<svg width="2639" height="2517" viewBox="0 0 2639 2517" fill="none" xmlns="http://www.w3.org/2000/svg">
<path d="M1762.79 2171.8L1762.79 2428.54C1762.79 2477.12 1723.41 2516.5 1674.84 2516.5L384.809 2516.5C336.232 2516.5 296.853 2477.12 296.853 2428.54L296.853 2171.8L87.9564 2171.8C39.3794 2171.8 1.31573e-05 2132.42 1.00891e-05 2083.84L-8.0243e-05 680.754C-8.23663e-05 632.177 39.3793 592.797 87.9563 592.797L590.041 592.797L590.04 87.9563C590.04 39.3794 629.42 -2.75128e-05 677.997 -2.96362e-05L2257.55 -9.86805e-05C2306.12 -0.000100804 2345.5 39.3795 2345.5 87.9564L2345.5 592.797L2550.74 592.797C2599.31 592.797 2638.69 632.177 2638.69 680.754L2638.69 1049.75C2638.69 1098.33 2599.31 1137.71 2550.74 1137.71L2345.5 1137.71L2345.5 2083.84C2345.5 2132.42 2306.12 2171.8 2257.55 2171.8L1762.79 2171.8Z" fill="#C9EBA3"/>
</svg>
