<svg width="65" height="50" viewBox="0 0 65 50" fill="none" xmlns="http://www.w3.org/2000/svg">
<path opacity="0.2" d="M12.8828 44.1563C12.8828 44.1563 20.9328 38.8763 25.1528 36.5563C29.3728 34.2363 30.5628 31.2563 31.9528 30.1663C33.3428 29.0763 48.8028 20.4563 51.4428 19.9463C62.5428 17.8263 63.9428 22.3363 64.8328 24.0263C65.7228 25.7163 59.8328 28.1863 56.1028 31.5563C52.3728 34.9263 41.3128 37.1563 41.3128 37.1563C41.3128 37.1563 24.3128 47.7063 22.9428 48.4163C21.5728 49.1263 21.7328 48.0163 22.5928 47.2363C23.4528 46.4563 35.4228 39.9963 35.4228 38.5063C35.4228 37.0163 32.3428 38.2063 31.1528 36.5063C29.9628 34.8063 15.7228 43.4063 14.8728 43.8763C14.2516 44.1639 13.5592 44.2613 12.8828 44.1563Z" fill="#0B324A"/>
<path d="M9.12739 13.3943C9.26171 13.1677 9.45372 12.9808 9.68384 12.8525C9.91397 12.7243 10.174 12.6593 10.4374 12.6643C10.4539 13.3996 10.2999 14.1286 9.98737 14.7943C9.49737 15.5943 8.90736 15.9243 8.66736 15.5343C8.58247 15.1657 8.57969 14.783 8.65919 14.4131C8.73868 14.0433 8.89852 13.6955 9.12739 13.3943Z" fill="#7F625A"/>
<path d="M3.56895 20.1577C4.97895 18.0877 5.16893 16.7977 6.95893 15.7677C11.4589 13.1677 7.08894 17.0077 12.4089 15.2977C12.6564 15.2167 12.8944 15.1094 13.1189 14.9777C14.1189 14.3977 15.3289 14.2177 16.8889 13.2677C18.7589 12.1877 23.2289 11.3377 24.0489 10.8677C25.9789 9.74766 32.8589 6.86766 34.9989 5.61766C38.8289 3.40766 44.9989 8.21766 44.9989 12.6177C44.9989 15.7577 39.9189 13.6176 37.6189 16.2776L36.7389 19.6977C36.7039 20.6669 36.3877 21.605 35.8289 22.3977V30.0877L34.9489 30.5877V32.2077C34.9489 32.2077 33.0189 33.6076 32.4689 33.2976C31.9189 32.9876 32.7589 31.2476 32.7589 31.2476L33.7589 30.6777V24.1277C32.7589 24.3677 32.2989 23.4777 31.8689 22.5077C31.3389 21.2877 30.2289 19.1177 29.4589 17.5077C27.5788 19.539 25.4087 21.2811 23.0189 22.6777C21.2671 23.7391 19.3404 24.4807 17.3289 24.8677V30.9277C17.276 32.0747 16.8513 33.1733 16.1189 34.0577V41.4976L15.4489 41.8876V43.4877C15.4489 43.4877 13.5089 44.8976 12.9589 44.5776C12.4089 44.2576 13.2489 42.5276 13.2489 42.5276L14.0389 42.0776V35.4376C13.1189 35.5676 12.4589 34.9277 12.4489 33.7277V26.4376C11.1489 26.3276 11.0189 29.2077 10.4489 27.9477C9.32892 27.7777 11.5689 29.2677 10.4489 28.6177C8.44892 27.4677 5.75892 24.4177 5.44892 24.3977C5.01346 24.7726 4.54488 25.1074 4.04893 25.3977C3.70803 25.5953 3.35385 25.769 2.98893 25.9176C2.71893 26.6176 3.35894 27.6176 2.77894 27.9176C2.5754 28.0222 2.34755 28.0703 2.11912 28.0569C1.89069 28.0435 1.67003 27.9691 1.48011 27.8415C1.29019 27.7138 1.13795 27.5376 1.03925 27.3312C0.940557 27.1247 0.899002 26.8956 0.918922 26.6676C0.868922 25.6376 2.38895 21.8877 3.56895 20.1577Z" fill="#75554A"/>
<path d="M6.25 15.7668C4.46 16.7668 4.41 18.9268 3 21.0068C1.83 22.7368 0 25.8968 0 26.9168C0 27.9368 2.4 29.1268 3.28 28.6168C3.91261 28.2108 4.39676 27.6108 4.66 26.9068C5.02587 26.7603 5.3802 26.5864 5.72 26.3868C6.25 26.0868 6.43001 26.2068 6.82001 25.8768C7.13001 25.8768 9.21 24.8768 11.22 26.0168C12.37 26.6668 16.4 28.7468 17.52 28.9168C17.7682 29.5023 18.173 30.008 18.6899 30.3785C19.2068 30.749 19.8158 30.9698 20.45 31.0168V38.3168C20.45 39.5068 21.12 40.1468 22.04 40.0168V46.6668L21.25 47.1168C21.25 47.1168 20.48 48.8868 20.96 49.1168C21.44 49.3468 23.44 48.0268 23.44 48.0268V46.4868L24.11 46.0968V38.6568C24.8422 37.7762 25.2671 36.6808 25.32 35.5368V29.4668C27.3328 29.0843 29.2602 28.3425 31.01 27.2768C33.3972 25.8805 35.5669 24.1421 37.45 22.1168C38.22 23.7568 38.2 25.9268 38.74 27.1168C39.16 28.1168 39.66 28.9768 40.63 28.7368V35.2868L39.63 35.8568C39.63 35.8568 38.86 37.6368 39.35 37.8568C39.84 38.0768 41.83 36.7668 41.83 36.7668V35.1568L42.71 34.6468V26.9668C43.258 26.1656 43.5698 25.2266 43.61 24.2568L44.72 17.2568C44.953 15.3395 45.0399 13.4072 44.98 11.4768C44.98 7.07677 37.98 2.98677 34.18 5.19677C32.04 6.42677 29.05 7.56676 27.11 8.68676C26.3 9.15676 21.11 10.4968 19.22 11.5768C17.66 12.5768 15.05 13.6968 14.04 14.2768C13.8154 14.4085 13.5774 14.5158 13.33 14.5968C7.95999 16.3168 10.75 13.1668 6.25 15.7668Z" fill="#7F625A"/>
<path d="M6.97436 16.3929C7.09717 16.3913 7.21714 16.3559 7.32119 16.2906C7.42524 16.2254 7.50937 16.1328 7.56436 16.0229L14.9744 0.94294C15.0124 0.866117 15.035 0.782533 15.0408 0.696984C15.0466 0.611434 15.0355 0.525595 15.0081 0.444344C14.9807 0.363093 14.9376 0.288026 14.8812 0.223442C14.8248 0.158859 14.7562 0.106023 14.6793 0.06794C14.6025 0.0298566 14.519 0.00727335 14.4334 0.00148793C14.3479 -0.00429749 14.262 0.00682475 14.1807 0.034218C14.0995 0.0616113 14.0244 0.104739 13.9599 0.161141C13.8953 0.217542 13.8424 0.286115 13.8043 0.362938L6.96435 14.2529L4.24435 8.79293C4.20805 8.71511 4.15648 8.6454 4.09268 8.58793C4.02887 8.53046 3.95416 8.48642 3.87298 8.45843C3.7918 8.43044 3.7058 8.41907 3.62014 8.425C3.53448 8.43092 3.4509 8.45402 3.37435 8.49293C3.21836 8.57036 3.09931 8.70631 3.04312 8.87115C2.98692 9.03598 2.99816 9.21634 3.07437 9.37293L6.38436 16.0229C6.43935 16.1328 6.52344 16.2254 6.6275 16.2906C6.73155 16.3559 6.85155 16.3913 6.97436 16.3929Z" fill="#75554A"/>
<path d="M5.07043 12.667C5.19324 12.6653 5.31321 12.6299 5.41726 12.5647C5.52131 12.4994 5.60544 12.4068 5.66042 12.297L7.40041 8.82698C7.44126 8.75058 7.46618 8.66669 7.47365 8.58038C7.48113 8.49407 7.47098 8.40715 7.44387 8.32487C7.41675 8.24259 7.37323 8.16668 7.31591 8.10173C7.25859 8.03677 7.18867 7.98413 7.1104 7.94699C7.03372 7.90754 6.94997 7.88374 6.864 7.87699C6.77804 7.87024 6.69157 7.88067 6.60967 7.90766C6.52777 7.93465 6.45207 7.97767 6.38695 8.03421C6.32184 8.09074 6.26861 8.15967 6.2304 8.23698L4.49041 11.717C4.41347 11.8723 4.40077 12.0518 4.45504 12.2164C4.5093 12.3811 4.62618 12.5178 4.78042 12.597C4.87123 12.64 4.96997 12.6639 5.07043 12.667Z" fill="#75554A"/>
<path d="M12.2688 5.48154C12.3737 5.47873 12.4765 5.45132 12.5689 5.40153C12.7214 5.32061 12.836 5.18316 12.8884 5.01866C12.9407 4.85416 12.9266 4.67569 12.8489 4.52153L11.0488 1.04153C10.9651 0.891504 10.8262 0.780034 10.6616 0.730803C10.497 0.681572 10.3197 0.698466 10.1674 0.777892C10.015 0.857318 9.89966 0.99302 9.84578 1.15616C9.79191 1.31929 9.80379 1.497 9.87887 1.65153L11.6789 5.13153C11.7365 5.23762 11.8218 5.32616 11.9256 5.38777C12.0295 5.44938 12.1481 5.48178 12.2688 5.48154Z" fill="#75554A"/>
<path d="M10.0513 10.0677C10.1561 10.0649 10.2589 10.0375 10.3513 9.98767C10.4277 9.94858 10.4957 9.89473 10.5512 9.82922C10.6067 9.76372 10.6487 9.68786 10.6747 9.60603C10.7007 9.52421 10.7103 9.43805 10.7028 9.35251C10.6954 9.26697 10.6711 9.18375 10.6313 9.10767L8.83126 5.62767C8.79797 5.5405 8.7466 5.46139 8.6805 5.39554C8.6144 5.32969 8.53507 5.2786 8.44777 5.24565C8.36048 5.2127 8.26719 5.19863 8.17406 5.20438C8.08093 5.21012 7.99007 5.23553 7.90749 5.27896C7.82491 5.32239 7.75248 5.38284 7.69497 5.45631C7.63746 5.52979 7.5962 5.61462 7.57387 5.70522C7.55155 5.79581 7.54866 5.89011 7.56545 5.98189C7.58224 6.07367 7.6183 6.16085 7.67125 6.23767L9.47127 9.70767C9.52412 9.8163 9.60661 9.90775 9.70925 9.97145C9.81189 10.0352 9.93046 10.0685 10.0513 10.0677Z" fill="#75554A"/>
<path d="M9.39081 17.4872C9.47637 17.4884 9.56129 17.4722 9.64038 17.4395C9.71947 17.4069 9.79108 17.3584 9.85083 17.2972L22.8508 4.00719C22.9574 3.88077 23.0126 3.71897 23.0055 3.55379C22.9985 3.38861 22.9297 3.23208 22.8128 3.11518C22.6959 2.99827 22.5394 2.92951 22.3742 2.92247C22.209 2.91544 22.0472 2.97064 21.9208 3.07718L9.38083 15.9172L3.25082 10.1272C3.12719 10.0044 2.96004 9.93557 2.78583 9.93557C2.61161 9.93557 2.44447 10.0044 2.32083 10.1272C2.25884 10.1877 2.20956 10.2601 2.17593 10.3399C2.1423 10.4198 2.125 10.5055 2.125 10.5922C2.125 10.6788 2.1423 10.7646 2.17593 10.8445C2.20956 10.9243 2.25884 10.9967 2.32083 11.0572L8.91083 17.2772C9.03761 17.4067 9.20966 17.482 9.39081 17.4872Z" fill="#9E7363"/>
<path d="M17.6777 8.29524C17.8492 8.34057 18.0315 8.31913 18.1878 8.23524C18.3387 8.14746 18.4486 8.00348 18.4936 7.8348C18.5386 7.66613 18.5149 7.48651 18.4277 7.33525L15.9277 2.97525C15.8851 2.90105 15.8282 2.83598 15.7604 2.78376C15.6925 2.73155 15.6151 2.6932 15.5325 2.67091C15.4498 2.64862 15.3636 2.64284 15.2787 2.65388C15.1938 2.66492 15.1119 2.69256 15.0377 2.73524C14.9635 2.77792 14.8985 2.83479 14.8463 2.90261C14.794 2.97044 14.7557 3.04789 14.7334 3.13054C14.7111 3.21318 14.7053 3.29941 14.7164 3.38429C14.7274 3.46917 14.7551 3.55104 14.7977 3.62524L17.2977 7.98524C17.3367 8.06004 17.3905 8.12611 17.4558 8.17941C17.5211 8.23271 17.5967 8.27212 17.6777 8.29524Z" fill="#9E7363"/>
<path d="M14.3404 12.0932C14.4261 12.1173 14.5161 12.1226 14.6041 12.1088C14.6921 12.095 14.7761 12.0624 14.8504 12.0132C14.9228 11.9674 14.9855 11.9077 15.0347 11.8376C15.084 11.7676 15.119 11.6884 15.1376 11.6048C15.1561 11.5211 15.158 11.4346 15.143 11.3503C15.1281 11.2659 15.0966 11.1853 15.0504 11.1132L12.3804 6.86319C12.3351 6.7903 12.2758 6.72706 12.2061 6.67706C12.1363 6.62706 12.0574 6.59129 11.9739 6.57179C11.8903 6.55229 11.8037 6.54943 11.719 6.5634C11.6344 6.57736 11.5532 6.60787 11.4804 6.65318C11.4075 6.69848 11.3442 6.7577 11.2942 6.82745C11.2442 6.8972 11.2085 6.97612 11.189 7.05969C11.1695 7.14326 11.1666 7.22985 11.1806 7.31452C11.1945 7.3992 11.2251 7.4803 11.2704 7.55319L13.9404 11.8132C13.9846 11.8845 14.0429 11.9461 14.1116 11.9942C14.1804 12.0423 14.2582 12.076 14.3404 12.0932Z" fill="#9E7363"/>
<path d="M6.30005 14.1251C6.46745 14.1243 6.62832 14.06 6.75006 13.9451L10.3801 10.4851C10.4509 10.4276 10.5091 10.356 10.5509 10.2749C10.5927 10.1938 10.6173 10.1049 10.623 10.0138C10.6287 9.92277 10.6155 9.83151 10.5841 9.74581C10.5528 9.66011 10.504 9.58185 10.4409 9.51595C10.3778 9.45006 10.3017 9.39796 10.2174 9.36297C10.1331 9.32797 10.0425 9.31083 9.95129 9.31263C9.86006 9.31442 9.77018 9.33512 9.68735 9.3734C9.60452 9.41169 9.53054 9.46674 9.47006 9.53507L5.84006 13.0151C5.71731 13.1387 5.64844 13.3058 5.64844 13.4801C5.64844 13.6543 5.71731 13.8214 5.84006 13.9451C5.96487 14.0615 6.12939 14.1258 6.30005 14.1251Z" fill="#9E7363"/>
<path d="M7.84125 20.7122C7.84125 21.1122 7.60124 21.4322 7.30124 21.4322C7.00124 21.4322 6.78125 21.1122 6.78125 20.7122C6.78125 20.3122 7.01124 19.9922 7.30124 19.9922C7.59124 19.9922 7.84125 20.3122 7.84125 20.7122Z" fill="black"/>
<path d="M12.6789 15.6165C11.8889 16.4065 11.559 17.3665 11.939 17.7465C12.319 18.1265 13.2889 17.8065 14.0789 17.0065C14.5759 16.4098 14.8389 15.6528 14.819 14.8765C14.039 14.8523 13.2773 15.1157 12.6789 15.6165Z" fill="#9E7363"/>
<path d="M12.4609 16.2766C11.9209 16.8266 11.6909 17.4866 11.9509 17.7466C12.2109 18.0066 12.8809 17.7466 13.4309 17.2366C13.7767 16.8265 13.9584 16.3028 13.9409 15.7666C13.4018 15.7504 12.8754 15.9317 12.4609 16.2766Z" fill="#75554A"/>
</svg>
