<svg width="65" height="45" viewBox="0 0 65 45" fill="none" xmlns="http://www.w3.org/2000/svg">
<path d="M4.61136 19.8077C4.90327 19.6518 5.16025 19.4378 5.36654 19.179C5.57282 18.9202 5.72407 18.622 5.81101 18.3027C5.89794 17.9834 5.91874 17.6496 5.87211 17.322C5.82547 16.9943 5.71241 16.6796 5.53983 16.3972C5.36725 16.1148 5.13881 15.8707 4.8685 15.6797C4.5982 15.4887 4.29174 15.355 3.96792 15.2867C3.64409 15.2184 3.30972 15.217 2.98531 15.2825C2.6609 15.348 2.35329 15.4791 2.08136 15.6677C1.66376 15.9198 1.33287 16.2931 1.13278 16.7379C0.932688 17.1828 0.872897 17.678 0.961362 18.1577L0.81136 18.2377C0.426796 18.4737 0.151747 18.8529 0.0467269 19.2917C-0.0582935 19.7306 0.0153198 20.1931 0.251363 20.5777C0.487405 20.9623 0.866543 21.2373 1.30538 21.3423C1.74421 21.4473 2.20679 21.3738 2.59136 21.1377C2.96136 20.9077 4.20136 20.0377 4.61136 19.8077Z" fill="#F68910"/>
<path d="M7.43373 24.4427C7.98406 24.1072 8.37857 23.5668 8.53047 22.9405C8.68238 22.3141 8.57923 21.653 8.24373 21.1027C8.07761 20.8302 7.85944 20.5931 7.60168 20.4049C7.34393 20.2168 7.05163 20.0812 6.74149 20.006C6.11511 19.8541 5.45406 19.9572 4.90373 20.2927C4.50373 20.5427 3.17373 21.2927 2.79373 21.4827C2.44201 21.7341 2.19858 22.1094 2.11243 22.5331C2.02627 22.9568 2.1038 23.3973 2.32939 23.7661C2.55499 24.135 2.91191 24.4046 3.32832 24.5209C3.74474 24.6371 4.18972 24.5913 4.57373 24.3927L4.71373 24.3027C5.10126 24.5951 5.56748 24.7646 6.05228 24.7896C6.53707 24.8145 7.01823 24.6937 7.43373 24.4427Z" fill="#F68910"/>
<path d="M4.08208 21.0959C3.19208 21.6359 2.34208 21.8759 2.18208 21.6159C2.02208 21.3559 2.62208 20.716 3.52208 20.166C4.42208 19.616 5.26207 19.3859 5.42207 19.6459C5.58207 19.9059 4.98208 20.5459 4.08208 21.0959Z" fill="#7F625A"/>
<path d="M5.72853 20.1356C5.66435 20.1756 5.59285 20.2024 5.5182 20.2145C5.44356 20.2266 5.36725 20.2238 5.29373 20.2061C5.22021 20.1884 5.15093 20.1562 5.08995 20.1115C5.02897 20.0668 4.97749 20.0104 4.93852 19.9456C4.89828 19.8807 4.87127 19.8084 4.85904 19.733C4.84681 19.6576 4.84961 19.5805 4.86726 19.5061C4.88492 19.4318 4.91709 19.3617 4.96193 19.2998C5.00676 19.2379 5.06338 19.1855 5.12852 19.1456C5.26113 19.066 5.41992 19.0424 5.56994 19.0799C5.71997 19.1174 5.84896 19.213 5.92853 19.3456C6.00809 19.4782 6.03172 19.637 5.99422 19.787C5.95671 19.937 5.86114 20.066 5.72853 20.1456V20.1356Z" fill="#7F625A"/>
<path d="M5.64711 19.3476C5.63795 19.3382 5.63281 19.3257 5.63281 19.3126C5.63281 19.2995 5.63795 19.2869 5.64711 19.2776C5.74035 19.2211 5.82156 19.1469 5.88609 19.059C5.95063 18.9712 5.99724 18.8715 6.02324 18.7656C6.04924 18.6597 6.05412 18.5498 6.03763 18.442C6.02113 18.3343 5.98359 18.2308 5.92711 18.1376C5.91727 18.1266 5.91183 18.1124 5.91183 18.0976C5.91183 18.0828 5.91727 18.0686 5.92711 18.0576C5.93927 18.0506 5.95306 18.0469 5.9671 18.0469C5.98114 18.0469 5.99495 18.0506 6.00711 18.0576C6.13569 18.2711 6.1742 18.527 6.1142 18.7689C6.05419 19.0108 5.90056 19.2189 5.6871 19.3476C5.6871 19.3476 5.66711 19.3776 5.64711 19.3476Z" fill="#7F625A"/>
<path d="M5.78773 19.5824C5.77857 19.5731 5.77344 19.5605 5.77344 19.5474C5.77344 19.5344 5.77857 19.5218 5.78773 19.5124C6.00004 19.383 6.25497 19.3429 6.49675 19.401C6.73853 19.4591 6.94743 19.6107 7.07773 19.8224C7.08757 19.8334 7.09302 19.8477 7.09302 19.8624C7.09302 19.8772 7.08757 19.8914 7.07773 19.9024C7.06753 19.9098 7.0553 19.9137 7.04274 19.9137C7.03018 19.9137 7.01794 19.9098 7.00774 19.9024C6.95127 19.8078 6.87653 19.7254 6.78789 19.66C6.69924 19.5946 6.59845 19.5475 6.49141 19.5214C6.38437 19.4954 6.27321 19.4909 6.16441 19.5082C6.05562 19.5256 5.95136 19.5644 5.85773 19.6224C5.85773 19.6224 5.80773 19.6124 5.78773 19.5824Z" fill="#7F625A"/>
<path d="M46.3058 15.039C46.0766 14.6603 45.7482 14.3513 45.3562 14.1456C44.9642 13.9398 44.5235 13.8451 44.0816 13.8715C43.6396 13.898 43.2133 14.0447 42.8487 14.2958C42.4841 14.5469 42.195 14.8928 42.0126 15.2962C41.8302 15.6996 41.7616 16.1452 41.814 16.5848C41.8664 17.0244 42.0379 17.4413 42.3099 17.7906C42.582 18.1398 42.9443 18.4081 43.3578 18.5665C43.7712 18.7248 44.22 18.7672 44.6558 18.689C44.6785 18.741 44.7053 18.7912 44.7358 18.839C44.9872 19.1908 45.3625 19.4342 45.7862 19.5203C46.2099 19.6065 46.6504 19.529 47.0192 19.3034C47.388 19.0778 47.6577 18.7209 47.774 18.3044C47.8902 17.888 47.8444 17.443 47.6458 17.059C47.4158 16.639 46.5558 15.399 46.3058 15.039Z" fill="#98AD48"/>
<path d="M50.9345 12.17C50.581 11.6605 50.0462 11.3053 49.4394 11.1773C48.8326 11.0493 48.1998 11.1582 47.6707 11.4815C47.1415 11.8049 46.756 12.3183 46.5932 12.9167C46.4303 13.5151 46.5023 14.153 46.7945 14.7C47.0345 15.1 47.7445 16.44 47.9845 16.81C48.0961 17.0097 48.2468 17.1848 48.4277 17.3249C48.6085 17.465 48.8158 17.5671 49.037 17.6251C49.2583 17.6832 49.489 17.696 49.7153 17.6628C49.9417 17.6296 50.159 17.5511 50.3542 17.4319C50.5495 17.3127 50.7187 17.1554 50.8517 16.9693C50.9847 16.7832 51.0787 16.5721 51.1283 16.3488C51.1778 16.1255 51.1817 15.8944 51.1398 15.6696C51.0979 15.4447 51.0111 15.2305 50.8845 15.04L50.7945 14.9C51.0877 14.5109 51.2577 14.043 51.2827 13.5565C51.3076 13.0699 51.1864 12.587 50.9345 12.17Z" fill="#98AD48"/>
<path d="M47.5925 15.5273C48.1425 16.4173 48.3725 17.2673 48.1225 17.4273C47.8725 17.5873 47.2125 16.9773 46.6725 16.0873C46.1325 15.1973 45.8825 14.3373 46.1425 14.1873C46.4025 14.0373 47.0525 14.6273 47.5925 15.5273Z" fill="#7F625A"/>
<path d="M46.6338 13.8867C46.7134 14.0193 46.737 14.178 46.6995 14.3281C46.662 14.4781 46.5664 14.6071 46.4338 14.6866C46.3012 14.7662 46.1424 14.7898 45.9924 14.7523C45.8424 14.7148 45.7134 14.6193 45.6338 14.4866C45.5936 14.4217 45.5666 14.3494 45.5544 14.274C45.5421 14.1986 45.5449 14.1215 45.5626 14.0472C45.5802 13.9728 45.6124 13.9027 45.6572 13.8408C45.7021 13.779 45.7587 13.7266 45.8238 13.6866C45.8893 13.6438 45.963 13.6149 46.0402 13.6018C46.1173 13.5887 46.1964 13.5916 46.2724 13.6104C46.3484 13.6291 46.4197 13.6633 46.4819 13.7109C46.5441 13.7584 46.5958 13.8183 46.6338 13.8867Z" fill="#7F625A"/>
<path d="M19.8412 2.25149C19.9552 1.78205 19.8781 1.28654 19.6268 0.873961C19.3755 0.461381 18.9706 0.165532 18.5012 0.0514891C18.0317 -0.0625539 17.5362 0.0145535 17.1236 0.265852C16.711 0.517151 16.4152 0.922052 16.3012 1.39149C16.2147 1.74632 16.2382 2.11906 16.3686 2.4602C16.499 2.80135 16.7301 3.09477 17.0312 3.30149C17.0269 3.34137 17.0269 3.3816 17.0312 3.42148C16.9776 3.58863 16.959 3.76501 16.9765 3.93966C16.994 4.1143 17.0472 4.28349 17.1328 4.4367C17.2185 4.5899 17.3347 4.72386 17.4743 4.83024C17.6139 4.93662 17.7739 5.01314 17.9444 5.05507C18.1148 5.09699 18.292 5.10341 18.4651 5.07393C18.6381 5.04445 18.8032 4.9797 18.9502 4.8837C19.0971 4.78771 19.2227 4.66251 19.3192 4.51591C19.4158 4.3693 19.4811 4.20441 19.5112 4.03149C19.5512 3.70149 19.7612 2.59149 19.8412 2.25149Z" fill="#FFC239"/>
<path d="M23.7922 3.19681C23.9062 2.72737 23.8291 2.23186 23.5778 1.81928C23.3265 1.4067 22.9216 1.11084 22.4522 0.996802C21.9828 0.882759 21.4873 0.959866 21.0747 1.21116C20.6621 1.46246 20.3662 1.86737 20.2522 2.33681C20.1722 2.68681 19.8422 3.7668 19.7622 4.0968C19.6826 4.42699 19.7375 4.77527 19.9147 5.06502C20.0919 5.35476 20.377 5.56224 20.7072 5.64181C21.0374 5.72137 21.3857 5.6665 21.6754 5.48928C21.9652 5.31206 22.1726 5.027 22.2522 4.69681C22.2522 4.69681 22.2522 4.6068 22.2522 4.5668C22.6183 4.52361 22.9623 4.36907 23.2377 4.12405C23.5131 3.87904 23.7067 3.55538 23.7922 3.19681Z" fill="#FFC239"/>
<path d="M20.2084 3.20956C20.0284 3.96956 19.6984 4.54956 19.4784 4.49956C19.2584 4.44956 19.2384 3.77957 19.4184 3.01957C19.5984 2.25957 19.9284 1.67957 20.1484 1.72957C20.3684 1.77957 20.4384 2.43956 20.2084 3.20956Z" fill="#7F625A"/>
<path d="M20.608 1.82898C20.595 1.88425 20.5713 1.93641 20.5381 1.98247C20.5049 2.02852 20.463 2.06754 20.4146 2.09729C20.3663 2.12704 20.3125 2.14692 20.2565 2.15579C20.2004 2.16466 20.1431 2.16235 20.088 2.14898C19.9777 2.12055 19.8828 2.05048 19.8231 1.95351C19.7634 1.85654 19.7436 1.74021 19.768 1.62897C19.7809 1.5737 19.8046 1.52154 19.8378 1.47548C19.871 1.42943 19.913 1.39041 19.9613 1.36066C20.0096 1.33091 20.0634 1.31103 20.1195 1.30216C20.1755 1.29329 20.2328 1.2956 20.288 1.30897C20.3439 1.32063 20.3969 1.34359 20.4437 1.37644C20.4905 1.40929 20.53 1.45135 20.56 1.50003C20.59 1.54871 20.6097 1.603 20.6179 1.65956C20.6261 1.71612 20.6228 1.77377 20.608 1.82898Z" fill="#7F625A"/>
<path d="M20.1419 1.46312C20.1612 1.38235 20.1643 1.29856 20.1511 1.21657C20.1379 1.13458 20.1086 1.05601 20.0649 0.985374C20.0213 0.914743 19.964 0.85344 19.8966 0.805C19.8291 0.756561 19.7528 0.721943 19.6719 0.703125C19.7621 0.72424 19.8473 0.76307 19.9224 0.817368C19.9976 0.871665 20.0612 0.940348 20.1096 1.01942C20.1579 1.0985 20.1901 1.1864 20.2043 1.27802C20.2184 1.36963 20.2142 1.46315 20.1919 1.55312C20.1919 1.55312 20.2019 1.46312 20.1419 1.46312Z" fill="#7F625A"/>
<g opacity="0.2">
<path d="M35.3574 25.3685C35.0201 25.2878 34.6668 25.3052 34.339 25.4186C34.0113 25.5319 33.7228 25.7366 33.5074 26.0085C33.4886 25.9048 33.4315 25.812 33.3474 25.7485C33.3993 25.6123 33.4989 25.4997 33.6277 25.4316C33.7565 25.3635 33.9057 25.3446 34.0474 25.3785C33.8883 25.3413 33.7213 25.361 33.5752 25.434C33.4291 25.5071 33.3131 25.6289 33.2474 25.7785C33.2244 25.7729 33.2004 25.7729 33.1774 25.7785H33.0874C33.0994 25.6164 33.0538 25.4554 32.9586 25.3237C32.8635 25.192 32.725 25.098 32.5674 25.0585C32.7082 25.0955 32.8315 25.181 32.9156 25.2998C32.9997 25.4187 33.0393 25.5633 33.0274 25.7085C32.9201 25.7249 32.8234 25.7822 32.7574 25.8685C32.6744 25.4638 32.4563 25.0994 32.1388 24.8352C31.8213 24.571 31.4234 24.4226 31.0104 24.4144C30.5974 24.4063 30.1939 24.5389 29.8663 24.7904C29.5386 25.0419 29.3063 25.3974 29.2074 25.7984C29.121 26.1533 29.1445 26.526 29.2749 26.8672C29.4053 27.2083 29.6363 27.5017 29.9374 27.7085C29.9331 27.7483 29.9331 27.7886 29.9374 27.8284C29.8588 28.1585 29.9133 28.5063 30.0893 28.7964C30.2652 29.0865 30.5484 29.2956 30.8774 29.3785C31.159 29.4463 31.4553 29.4159 31.7172 29.2922C31.9792 29.1685 32.1909 28.959 32.3174 28.6985C32.3174 28.8085 32.3974 28.8885 32.4574 28.8985C32.5174 28.9085 32.5974 28.8985 32.6774 28.7885C32.6785 29.0802 32.7777 29.3631 32.9591 29.5917C33.1405 29.8202 33.3935 29.9811 33.6774 30.0484C33.8443 30.0835 34.0164 30.0851 34.1838 30.0531C34.3513 30.0212 34.5108 29.9565 34.653 29.8625C34.7953 29.7686 34.9176 29.6474 35.0127 29.506C35.1079 29.3645 35.174 29.2056 35.2074 29.0385C35.2122 28.9986 35.2122 28.9583 35.2074 28.9185C35.6264 28.8596 36.0117 28.6566 36.2973 28.3444C36.5828 28.0322 36.7506 27.6303 36.7719 27.2078C36.7932 26.7853 36.6667 26.3685 36.414 26.0292C36.1613 25.6898 35.7983 25.4491 35.3874 25.3485L35.3574 25.3685Z" fill="#0B324A"/>
</g>
</svg>
