<svg width="84" height="67" viewBox="0 0 84 67" fill="none" xmlns="http://www.w3.org/2000/svg">
<path opacity="0.2" d="M19.2578 41.6991L61.3978 17.7891L83.7378 45.7691L51.5378 64.4391L19.2578 41.6991Z" fill="#0B324A"/>
<path d="M22.69 19.84L56.83 0L34.14 17.62L0 37.46L22.69 19.84Z" fill="#5A4238"/>
<path d="M8.03125 48.2559L40.2213 29.5859L72.4212 48.1859L40.2213 66.8559L8.03125 48.2559Z" fill="#5A4238"/>
<path d="M17.0859 53.4712L28.9959 60.3512L61.9559 41.2412L49.9059 34.2812L17.0859 53.4712Z" fill="#96766B"/>
<path d="M8.03313 48.2597L40.2231 29.5897L38.6531 14.9297L6.45312 33.5997L8.03313 48.2597Z" fill="#422B23"/>
<path d="M42.6987 55.3028L74.8988 36.6328L72.4187 48.1928L40.2188 66.8628L42.6987 55.3028Z" fill="#DD7003"/>
<path d="M24.2194 21.8594L42.6994 55.2994L40.2194 66.8594L31.1894 61.6494L24.1694 34.9594L17.0394 53.4694L8.00937 48.2594L5.60938 33.8794L24.2194 21.8594Z" fill="#F68910"/>
<path d="M22.6875 19.84L56.8275 0L77.1875 38.84L43.0475 58.68L22.6875 19.84Z" fill="#5A4238"/>
<path d="M24.1484 33.1406L24.1684 34.9606L31.1884 61.6506L33.6084 63.0406L24.1484 33.1406Z" fill="#F68910"/>
<path d="M24.1541 34.3438L13.9141 52.7038L17.1041 53.4637L24.1741 34.9538L31.1941 61.6437L30.1141 62.6337L24.1541 34.3438Z" fill="#88D5DB"/>
</svg>
