<svg width="79" height="44" viewBox="0 0 79 44" fill="none" xmlns="http://www.w3.org/2000/svg">
<path opacity="0.2" d="M78.4353 23.46L43.1753 43.51L27.5153 39.79L2.69531 21.24L38.5553 0L46.9953 12.74L61.1553 20.92L78.4353 23.46Z" fill="#0B324A"/>
<path d="M53.0409 23.5391V24.5291H53.7709L52.9909 24.9791H52.2609V23.9991L49.2109 23.5391H53.0409Z" fill="#96766B"/>
<path d="M47.3197 22.8281L47.0997 23.2781L46.6897 24.1081L46.3397 23.8981L45.7697 25.1881L45.0597 24.7781L44.8897 25.0981L44.2197 26.3881L43.0197 25.6981L42.0197 26.2781L41.6997 26.0981L41.3797 25.9081L42.3797 25.3281L41.1797 24.6381L43.9597 24.1481L43.2497 23.7381L44.9297 23.4881L45.4697 23.4081L45.3197 23.3181L45.1197 23.1981L47.3197 22.8281Z" fill="#71931B"/>
<path d="M45.3197 23.3203L45.4697 23.4103L44.9297 23.5003C45.0538 23.4284 45.1844 23.3681 45.3197 23.3203Z" fill="#88D5DB"/>
<path d="M45.0056 15.1309L45.0256 17.8009H47.0756L46.4956 20.4509L45.9856 18.4309H43.9356L43.9156 15.7709H40.2656V15.5909L41.3556 14.9609L41.3656 15.1309H45.0056Z" fill="#96766B"/>
<path d="M47.6925 23.5084L51.6125 25.7784L43.3325 30.5984L42.1625 29.9184C41.7303 29.6989 41.2523 29.5844 40.7675 29.5844C40.2827 29.5844 39.8047 29.6989 39.3725 29.9184C38.941 30.1404 38.4628 30.2561 37.9775 30.2561C37.4923 30.2561 37.014 30.1404 36.5825 29.9184L26.8625 24.3184C26.6183 24.1936 26.4242 23.9889 26.3125 23.7384L28.6125 22.3984C28.9635 22.4391 29.3031 22.5478 29.6125 22.7184L33.0625 24.7184C33.4947 24.938 33.9727 25.0525 34.4575 25.0525C34.9423 25.0525 35.4203 24.938 35.8525 24.7184C36.284 24.4965 36.7623 24.3807 37.2475 24.3807C37.7327 24.3807 38.211 24.4965 38.6425 24.7184L43.2425 27.3684C43.674 27.5904 44.1523 27.7061 44.6375 27.7061C45.1227 27.7061 45.601 27.5904 46.0325 27.3684C46.7925 26.9284 46.7825 26.2084 46.0325 25.7584L44.9525 25.1284L45.0825 24.7884L45.7925 25.1984L46.3625 23.9084L46.7125 24.1184L47.1225 23.2884C47.3213 23.3365 47.5129 23.4105 47.6925 23.5084Z" fill="#88D5DB"/>
<path d="M34.0222 36.0125L30.6422 38.0125L27.2422 36.0125C28.2915 35.4754 29.4534 35.1953 30.6322 35.1953C31.811 35.1953 32.9729 35.4754 34.0222 36.0125Z" fill="#96766B"/>
<path d="M39.39 29.9078C39.8222 29.6882 40.3002 29.5738 40.785 29.5738C41.2698 29.5738 41.7478 29.6882 42.18 29.9078L43.35 30.5878L34.04 35.9978C32.9907 35.4607 31.8288 35.1806 30.65 35.1806C29.4712 35.1806 28.3093 35.4607 27.26 35.9978L30.66 37.9978L28.98 38.9978L14.5 30.6278L26.33 23.7578C26.4417 24.0083 26.6358 24.213 26.88 24.3378L36.6 29.9478C37.0347 30.1636 37.5146 30.2725 37.9998 30.2656C38.4851 30.2586 38.9617 30.136 39.39 29.9078Z" fill="white"/>
<path d="M53.0547 24.5281V23.5281H49.2347L52.2347 23.9881V24.9881H52.9547L51.5747 25.7881L47.6547 23.5181C47.4693 23.4151 47.2709 23.3377 47.0647 23.2881L47.2847 22.8381L45.0847 23.2081L45.2847 23.3181C45.1494 23.3659 45.0188 23.4262 44.8947 23.4981L43.2147 23.7481L43.9247 24.1581L41.1447 24.6481L42.3447 25.3381L41.3447 25.9181L41.6647 26.1081L41.9847 26.2881L42.9847 25.7081L44.1847 26.3981L44.8547 25.1081L45.9747 25.7581C46.7547 26.2081 46.7647 26.9281 45.9747 27.3681C45.5432 27.5901 45.0649 27.7058 44.5797 27.7058C44.0944 27.7058 43.6162 27.5901 43.1847 27.3681L38.5847 24.7181C38.1532 24.4962 37.6749 24.3804 37.1897 24.3804C36.7044 24.3804 36.2262 24.4962 35.7947 24.7181C35.3624 24.9377 34.8845 25.0521 34.3997 25.0521C33.9149 25.0521 33.4369 24.9377 33.0047 24.7181L29.5547 22.7181C29.2453 22.5475 28.9056 22.4388 28.5547 22.3981L40.2047 15.6181V15.7981H43.8447V18.4581H45.8947L46.4047 20.4581L46.9947 17.8081H44.9347V15.1381H41.3947V14.9681L45.0847 12.8281L59.5747 21.1881L53.8147 24.5381L53.0547 24.5281Z" fill="white"/>
<path d="M60.9834 20.3387L59.5234 21.1888L45.0434 12.8187L14.4734 30.5788L28.9634 38.9487L27.5134 39.7887L13.0234 31.4287L46.5034 11.9688L60.9834 20.3387Z" fill="#54AEAF"/>
<path d="M45.3703 33.7812L44.7003 34.7412L44.3703 34.6813L43.7603 35.6312L43.0803 35.5113L42.2003 36.7213L41.0603 36.5213L40.0603 37.1013L39.7603 37.0513L39.4503 36.9913L40.4503 36.4113L39.3203 36.2012L42.0403 35.3213L41.3703 35.2012L43.5503 34.5312L43.2203 34.4713L45.3703 33.7812Z" fill="#678619"/>
<path d="M57.0959 26.7731C57.8359 26.9131 57.8159 27.3831 57.0459 27.8231C56.2759 28.2631 56.2659 28.7331 57.0459 28.8231L58.0459 29.0131C58.7759 29.1431 58.7559 29.6131 57.9959 30.0131C57.167 30.4713 56.2184 30.6666 55.2759 30.5731L50.9259 29.7831C49.9856 29.6928 49.0402 29.8917 48.2159 30.3531C47.3853 30.8066 46.4381 31.0016 45.4959 30.9131L43.3359 30.5131L51.6259 25.7031L57.0959 26.7731Z" fill="#80C8CE"/>
<path d="M55.6044 24.1406L55.5244 25.3806L56.9644 25.0806L56.4644 26.4006L56.1744 25.5406L54.7444 25.8306L54.8244 24.6006L52.9844 24.9806L53.7744 24.5306L55.6044 24.1406Z" fill="#896C62"/>
<path d="M59.5209 21.1797L71.0009 23.2597L40.4409 41.0297L28.9609 38.9397L30.6309 37.9397L33.8509 38.5197C35.7209 37.4397 35.7909 36.2997 34.0109 35.9697L43.3209 30.5597L45.4809 30.9597C46.4231 31.0481 47.3703 30.8531 48.2009 30.3997C49.0252 29.9383 49.9706 29.7394 50.9109 29.8297L55.2609 30.6197C56.2034 30.7132 57.152 30.5179 57.9809 30.0597C58.7409 29.6197 58.7609 29.1497 58.0309 29.0597L57.0309 28.8697C56.2909 28.7397 56.3109 28.2697 57.0309 27.8697C57.7509 27.4697 57.8209 26.9597 57.0809 26.8197L51.6009 25.8197L52.9709 25.0197L54.8109 24.6397L54.7409 25.8697L56.1709 25.5697L56.4509 26.4397L56.9509 25.1197L55.5209 25.4197L55.5909 24.1797L53.7609 24.5697L59.5209 21.1797ZM41.0609 36.5197L42.2009 36.7197L43.0909 35.5097L43.7609 35.6297L44.3709 34.6797H44.7009L45.3809 33.7297L43.2209 34.4197L43.5509 34.4797L41.3709 35.1497L42.0409 35.2697L39.3209 36.1497L40.4509 36.3597L39.4509 36.9397L39.7509 36.9997L40.0609 37.0497L41.0609 36.4697V36.5197Z" fill="white"/>
<path d="M34.0128 36C35.7928 36.33 35.7228 37.47 33.8528 38.55L30.6328 37.97L34.0128 36Z" fill="#896C62"/>
<path d="M60.98 20.3438L73.84 22.6738L40.37 42.1237L27.5 39.7937L28.96 38.9538L40.44 41.0338L71 23.2638L59.52 21.1838L60.98 20.3438Z" fill="#4EA1A2"/>
<path d="M29.1719 11.9809L29.2719 11.7109L29.5319 11.9509L29.1719 11.9809Z" fill="white"/>
<path d="M21.5934 21.1016L20.9334 22.6116L20.5934 22.3016L19.9834 23.8416L19.3134 23.2216L18.4334 25.1216L17.2834 24.0716L16.2834 24.6516L15.9734 24.3716L15.6634 24.0816L16.6634 23.5016L15.5234 22.4516L18.2534 22.2516L17.5734 21.6316L19.7634 21.5516L19.4234 21.2316L21.5934 21.1016Z" fill="#81A81F"/>
<path d="M21.1591 16.3183C21.3712 16.4546 21.5447 16.6432 21.6629 16.8659C21.7811 17.0887 21.8401 17.3381 21.834 17.5901C21.828 17.8422 21.7572 18.0885 21.6285 18.3054C21.4998 18.5222 21.3175 18.7023 21.0991 18.8283L17.7891 15.8283C18.3364 15.5682 18.9485 15.476 19.5482 15.5632C20.1479 15.6504 20.7084 15.9131 21.1591 16.3183Z" fill="#A88478"/>
<path d="M29.6484 11.9422L29.8384 11.4922L30.2784 11.9022L29.6484 11.9422Z" fill="white"/>
<path d="M41.4019 13.4428L41.3619 14.9628L40.2719 15.6028L40.3019 14.0728L36.1719 12.6328L41.4019 13.4428Z" fill="#A88478"/>
<path d="M33.6169 10.75L32.9569 12.26L32.6169 11.95L32.1069 13.25L31.7869 13.27L31.3369 12.87L31.1369 13.31L31.0169 13.32L31.0969 13.39L30.9769 13.64L29.1669 13.71L29.2269 13.77L28.3069 14.3L27.9969 14.01L27.6869 13.73L28.6069 13.2L28.6969 13.15L27.5469 12.09L29.1669 11.98L29.5269 11.95L29.6469 11.94L30.2769 11.9L29.8369 11.49L29.6069 11.27L29.9369 11.26L31.7969 11.19L31.4569 10.88L33.6169 10.75Z" fill="#81A81F"/>
<path d="M30.2731 10.5156L29.9431 11.2656L29.6131 11.2756L29.8431 11.4956L29.6531 11.9456L29.5331 11.9556L29.2731 11.7156L29.1731 11.9856L27.5531 12.0956L28.7031 13.1556L28.6131 13.2056L27.9931 12.6356L27.1131 14.5356L25.9631 13.4856L24.9631 14.0656L24.6531 13.7856L24.3431 13.4956L25.3431 12.9156L24.2031 11.8656L26.9331 11.6656L26.2531 11.0456L28.4431 10.9556L28.1131 10.6456L30.2731 10.5156Z" fill="#81A81F"/>
<path d="M33.1794 13.1953L32.5294 14.7053L32.1894 14.3953L31.5794 15.9353L30.8994 15.3153L30.0294 17.2153L28.8794 16.1553L27.8694 16.7453L27.5694 16.4553L27.2494 16.1753L28.2594 15.5953L27.1094 14.5353L29.8394 14.3453L29.2294 13.7753L29.1694 13.7153L30.9794 13.6453L31.3594 13.6353L31.0994 13.3953L31.0194 13.3253L31.1394 13.3153L31.7894 13.2753L32.1094 13.2553L33.1794 13.1953Z" fill="#81A81F"/>
<path d="M41.3928 14.9662V13.4462L36.1628 12.6362L40.2928 14.0762V15.6062L28.6328 22.3763C28.3482 22.2769 28.0463 22.2363 27.7455 22.257C27.4447 22.2776 27.1512 22.359 26.8828 22.4962C26.6673 22.6082 26.4959 22.7894 26.3961 23.0108C26.2963 23.2321 26.274 23.4807 26.3328 23.7162L14.5028 30.5862L2.88281 19.9162L33.3928 2.15625L45.0028 12.8262L41.3928 14.9662ZM31.6128 15.9662L32.2228 14.4263L32.5628 14.7363L33.2228 13.2162L32.1428 13.2862L32.6528 11.9863L32.9928 12.2962L33.6628 10.7762L31.4928 10.9162L31.8328 11.2262L29.9828 11.2962L30.3128 10.5462L28.1428 10.6762L28.4728 10.9863L26.2928 11.0662L26.9728 11.6963L24.2328 11.8862L25.3828 12.9463L24.3828 13.5262L24.6928 13.8163L25.0028 14.0963L26.0028 13.5163L27.1428 14.5663L28.0228 12.6662L28.6428 13.2363L27.7228 13.7663L28.0328 14.0462L28.3428 14.3262L29.2628 13.7962L29.8828 14.3763L27.1428 14.5663L28.2928 15.6263L27.2928 16.2063L27.6028 16.4863L27.9028 16.7762L28.9028 16.1862L30.0528 17.2462L30.9328 15.3463L31.6028 15.9662H31.6128ZM20.0128 23.8763L20.6228 22.3362L20.9628 22.6463L21.6228 21.1362L19.4528 21.2663L19.7928 21.5762L17.6028 21.6662L18.2828 22.2863L15.5528 22.4863L16.6928 23.5363L15.6928 24.1162L16.0028 24.4062L16.3128 24.6862L17.3128 24.1062L18.3928 25.1263L19.2728 23.2262L19.9428 23.8463L20.0128 23.8763ZM17.8228 15.8262L21.1328 18.8262C21.3512 18.7002 21.5335 18.5201 21.6623 18.3033C21.791 18.0865 21.8617 17.8402 21.8678 17.5881C21.8738 17.336 21.8149 17.0866 21.6967 16.8639C21.5785 16.6411 21.405 16.4526 21.1928 16.3163C20.7465 15.9045 20.1881 15.6344 19.5882 15.5401C18.9883 15.4457 18.374 15.5314 17.8228 15.7863V15.8262Z" fill="white"/>
<path d="M31.3406 12.875L31.7906 13.275L31.1406 13.315L31.3406 12.875Z" fill="white"/>
<path d="M30.9766 13.6406L31.0966 13.3906L31.3566 13.6306L30.9766 13.6406Z" fill="white"/>
<path d="M28.6134 22.3745L26.3134 23.7145C26.2546 23.4789 26.2769 23.2304 26.3767 23.0091C26.4765 22.7877 26.6479 22.6064 26.8634 22.4945C27.1318 22.3573 27.4253 22.2758 27.7261 22.2552C28.0269 22.2346 28.3288 22.2752 28.6134 22.3745Z" fill="#8CDCE2"/>
<path d="M46.5 11.9834L45.04 12.8234L33.43 2.15344L2.86 19.9134L14.48 30.5834L13.02 31.4334L0 19.4734L33.48 0.0234375L46.5 11.9834Z" fill="#5CBEBF"/>
</svg>
