<svg width="89" height="53" viewBox="0 0 89 53" fill="none" xmlns="http://www.w3.org/2000/svg">
<path d="M60.68 52.1104C54.1344 52.2314 47.6676 50.668 41.9 47.5704C37.3 44.9104 34.61 41.9504 33.9 38.7704C32.9 38.8304 31.9 38.8604 30.82 38.8604C22.82 38.8604 15.3 37.0404 9.58002 33.7404C3.41002 30.1804 0.0100223 25.2904 2.22573e-05 19.9904C-0.00997774 14.6904 3.35002 9.86044 9.44002 6.32044C15.13 3.01044 22.66 1.19043 30.63 1.19043C37.1521 1.11616 43.6132 2.45339 49.57 5.11043C50.0441 5.34054 50.5631 5.46345 51.09 5.47043C51.407 5.47253 51.7219 5.41835 52.02 5.31043C55.5615 4.10577 59.2793 3.5008 63.02 3.52043C68.3543 3.4199 73.6242 4.69778 78.32 7.23044C82.56 9.68044 85.07 13.0604 85.39 16.7504C85.4784 18.2661 85.2342 19.7828 84.6745 21.1941C84.1148 22.6055 83.2532 23.8773 82.15 24.9204C87.24 28.9204 88.24 32.9204 88.15 35.7104C87.99 40.1704 84.88 44.3804 79.4 47.5704C73.6535 50.6665 67.2064 52.23 60.68 52.1104Z" fill="#CFD18F"/>
<path d="M77.1158 9.3698C84.0358 13.3698 84.8258 19.5898 79.4358 24.0698C79.0058 24.4298 78.3258 25.2298 79.4358 26.0098C88.5358 32.2198 87.2958 40.0998 78.1458 45.4198C68.4958 51.0298 52.8158 51.0298 43.1458 45.4198C39.4458 43.2898 36.6958 40.6798 36.2558 37.8898C36.225 37.622 36.1309 37.3653 35.9814 37.141C35.8319 36.9167 35.6311 36.7312 35.3958 36.5998C34.9622 36.3611 34.4698 36.2502 33.9758 36.2798C25.7458 36.8198 17.1658 35.2798 10.8258 31.5898C-0.244223 25.1998 -0.30422 14.8498 10.6958 8.4598C21.0158 2.4598 37.3958 2.0898 48.5158 7.3498C49.8673 8.01432 51.4257 8.12204 52.8558 7.6498C60.4358 4.9698 70.5058 5.5598 77.1158 9.3698Z" fill="#81D1DC"/>
<path d="M28.8453 32.1965C16.8453 32.1965 7.44531 26.7066 7.44531 19.7066C7.44531 12.7066 16.8453 7.22656 28.8453 7.22656C40.8453 7.22656 50.1953 12.7066 50.1953 19.7066C50.1953 26.7066 40.8353 32.1965 28.8453 32.1965ZM28.8453 9.69655C18.5853 9.69655 9.92532 14.2865 9.92532 19.6965C9.92532 25.1065 18.5853 29.6965 28.8453 29.6965C39.1053 29.6965 47.7553 25.1165 47.7553 19.6965C47.7553 14.2765 39.0953 9.65656 28.8453 9.65656V9.69655Z" fill="#A8EAEF"/>
<path d="M60.1969 47.5091C48.1969 47.5091 38.7969 42.0291 38.7969 35.0291C38.7969 28.0291 48.1969 22.5391 60.1969 22.5391C72.1969 22.5391 81.5869 28.0191 81.5869 35.0291C81.5869 42.0391 72.1969 47.5091 60.1969 47.5091ZM60.1969 25.0191C49.9369 25.0191 41.2769 29.5991 41.2769 35.0191C41.2769 40.4391 49.9369 45.0191 60.1969 45.0191C70.4569 45.0191 79.1169 40.4391 79.1169 35.0191C79.1169 29.5991 70.4069 25.0191 60.1969 25.0191Z" fill="#A8EAEF"/>
<path d="M63.3078 25.0156C55.5678 25.0156 49.5078 21.3956 49.5078 16.7656C49.5078 12.1356 55.5678 8.51562 63.3078 8.51562C71.0478 8.51562 77.1178 12.1356 77.1178 16.7656C77.1178 21.3956 71.0578 25.0156 63.3078 25.0156ZM63.3078 11.0156C57.1678 11.0156 51.9878 13.6556 51.9878 16.7856C51.9878 19.9156 57.1678 22.5556 63.3078 22.5556C69.4478 22.5556 74.6378 19.9156 74.6378 16.7856C74.6378 13.6556 69.4478 10.9956 63.3078 10.9956V11.0156Z" fill="#A8EAEF"/>
<path d="M28.8466 25.285C22.8466 25.285 18.2266 22.835 18.2266 19.705C18.2266 16.575 22.8866 14.125 28.8466 14.125C34.8066 14.125 39.4566 16.575 39.4566 19.705C39.4566 22.835 34.7966 25.285 28.8466 25.285ZM28.8466 15.225C23.7566 15.225 19.4566 17.275 19.4566 19.705C19.4566 22.135 23.7566 24.185 28.8466 24.185C33.9366 24.185 38.2266 22.135 38.2266 19.705C38.2266 17.275 33.9266 15.225 28.8466 15.225Z" fill="#A8EAEF"/>
<path d="M60.2006 39.4847C54.8406 39.4847 50.6406 37.4847 50.6406 35.0247C50.6406 32.5647 54.8406 30.5547 60.2006 30.5547C65.5606 30.5547 69.7506 32.5547 69.7506 35.0247C69.7506 37.4947 65.5106 39.4847 60.2006 39.4847ZM60.2006 31.4347C55.6206 31.4347 51.7506 33.0747 51.7506 35.0247C51.7506 36.9747 55.5806 38.6547 60.2006 38.6547C64.8206 38.6547 68.6406 37.0147 68.6406 35.0747C68.6406 33.1347 64.7406 31.4347 60.2006 31.4347Z" fill="#A8EAEF"/>
<path d="M63.3059 19.9194C59.8259 19.9194 57.0859 18.5394 57.0859 16.7694C57.0859 14.9994 59.8259 13.6094 63.3059 13.6094C66.7859 13.6094 69.5259 14.9994 69.5259 16.7694C69.5259 18.5394 66.7959 19.9194 63.3059 19.9194ZM63.3059 14.5594C60.5459 14.5594 58.2059 15.5594 58.2059 16.7694C58.2059 17.9794 60.5459 18.9794 63.3059 18.9794C66.0659 18.9794 68.4159 17.9794 68.4159 16.7694C68.4159 15.5594 66.0759 14.5594 63.3059 14.5594Z" fill="#A8EAEF"/>
<path d="M60.9894 6.14H63.1994C62.6286 4.14509 62.3688 2.07408 62.4294 0C61.7748 1.35035 61.5714 2.87532 61.8494 4.35001C61.1089 2.97606 60.4803 1.54478 59.9694 0.0700073C59.7494 0.950007 60.6394 3.60001 61.1094 4.79001C60.0569 3.60677 58.6565 2.78754 57.1094 2.45C58.5694 3.49192 59.8755 4.7341 60.9894 6.14Z" fill="#BEC675"/>
<path d="M64.3547 6.13531C64.3961 4.78021 64.6877 3.44443 65.2147 2.19531C64.6417 2.68469 64.1762 3.28739 63.8474 3.96547C63.5187 4.64355 63.3339 5.38233 63.3047 6.13531H64.3547Z" fill="#BEC675"/>
<path d="M29.7688 36.6581H32.1987C31.5603 32.4124 31.276 28.121 31.3487 23.8281C30.6987 25.6981 30.4987 28.9781 30.7087 32.9281C30.1387 30.9281 28.8988 25.8181 28.6588 23.9781C28.4088 25.8181 29.3787 31.3581 29.8987 33.8581C28.2887 30.9181 26.7088 29.1181 25.4688 28.9681C27.2091 31.3473 28.6531 33.9297 29.7688 36.6581Z" fill="#BEC675"/>
<path d="M33.4469 36.6575C33.4849 33.893 33.7998 31.1392 34.3869 28.4375C33.3069 29.7875 32.5569 32.8075 32.2969 36.6575H33.4469Z" fill="#BEC675"/>
<path d="M79.3853 45.3378H80.6353C80.3091 43.1602 80.162 40.9595 80.1953 38.7578C79.8217 40.2846 79.7135 41.8643 79.8753 43.4278C79.4476 41.9166 79.0972 40.3846 78.8253 38.8378C78.8623 40.5415 79.0734 42.237 79.4553 43.8978C78.6353 42.3878 77.8253 41.4678 77.1953 41.3978C78.0848 42.6159 78.8204 43.9393 79.3853 45.3378Z" fill="#BEC675"/>
</svg>
