<svg width="60" height="40" viewBox="0 0 60 40" fill="none" xmlns="http://www.w3.org/2000/svg">
<path d="M59.33 17.18L29.74 34.37L0 17.19L29.57 0L59.33 17.18Z" fill="#5B5B5B"/>
<path d="M7.28015 16.3004L6.86014 16.5004C6.05014 16.8704 5.99012 16.7704 6.72012 16.2604L7.21014 15.9204C7.94014 15.4104 8.00014 14.6904 7.33014 14.3104C6.9168 14.1272 6.46624 14.0435 6.01468 14.0661C5.56311 14.0887 5.12314 14.2169 4.73013 14.4404L1.39014 16.3704C1.21952 16.4279 1.07125 16.5375 0.966217 16.6837C0.861182 16.8299 0.804688 17.0054 0.804688 17.1854C0.804688 17.3655 0.861182 17.541 0.966217 17.6872C1.07125 17.8334 1.21952 17.943 1.39014 18.0004L7.69012 21.6304C8.11681 21.851 8.59325 21.9577 9.07327 21.9402C9.5533 21.9227 10.0207 21.7816 10.4301 21.5304L13.6001 19.3804C14.3501 18.8804 14.2901 18.1704 13.4801 17.8004L10.2001 16.2904C9.26203 15.9166 8.21567 15.9201 7.28015 16.3004Z" fill="#A39B99"/>
<path d="M19.9411 22.2341C19.2318 22.249 18.5453 21.983 18.0312 21.4941L16.5912 20.3541C16.2107 20.0828 15.7594 19.9279 15.2925 19.9084C14.8255 19.8888 14.363 20.0055 13.9612 20.2441L11.2711 22.0241C11.103 22.0938 10.9593 22.2117 10.8582 22.363C10.7571 22.5143 10.7031 22.6922 10.7031 22.8741C10.7031 23.0561 10.7571 23.234 10.8582 23.3853C10.9593 23.5366 11.103 23.6545 11.2711 23.7241L15.8011 26.3341C16.2399 26.5552 16.7222 26.6761 17.2133 26.6882C17.7044 26.7003 18.1921 26.6033 18.6411 26.4041L22.2211 24.5741C23.0211 24.1741 23.0411 23.4741 22.2211 23.0141L21.8712 22.8041C21.3078 22.4075 20.6296 22.2072 19.9411 22.2341Z" fill="#A39B99"/>
<path d="M10.3718 16.0877C10.8135 16.2275 11.2829 16.256 11.7383 16.1705C12.1937 16.085 12.6209 15.8882 12.9818 15.5977L13.2418 15.3677C13.9118 14.7877 14.0918 14.9277 13.6318 15.6977V15.7877C13.1718 16.5577 13.0918 17.2077 13.4418 17.2277C14.1718 17.1304 14.8734 16.8818 15.5018 16.4977L18.0718 15.0877C18.8618 14.6577 18.8518 13.9677 18.0718 13.5477C17.2918 13.1277 17.3318 13.0277 18.1718 13.3277L18.9718 13.6177C19.36 13.7706 19.777 13.8365 20.1934 13.8106C20.6099 13.7846 21.0155 13.6676 21.3818 13.4677C21.8718 13.0877 21.6918 12.3377 20.9818 11.7877L17.2418 8.92771C16.8514 8.65776 16.3952 8.4985 15.9216 8.46681C15.448 8.43512 14.9747 8.53219 14.5518 8.74772L8.11178 12.4677C7.34178 12.9077 7.22179 13.6377 7.84179 14.0777C8.46179 14.5177 8.97177 15.0177 8.97177 15.1977C8.97177 15.3777 9.60179 15.7677 10.3718 16.0877Z" fill="#A39B99"/>
<path d="M30.6226 26.1301L28.2026 24.2701C27.7989 23.991 27.3371 23.8073 26.8521 23.7329C26.367 23.6584 25.8714 23.695 25.4026 23.8401C25.2194 23.8836 25.0488 23.9692 24.9045 24.0902C24.7602 24.2112 24.6461 24.3642 24.5713 24.537C24.4965 24.7099 24.4631 24.8978 24.4738 25.0858C24.4844 25.2738 24.5388 25.4568 24.6326 25.6201C25.0526 26.2801 24.8126 26.4301 24.1026 25.9401C23.7017 25.6932 23.2427 25.5566 22.772 25.5443C22.3014 25.5321 21.8358 25.6444 21.4226 25.8701L19.6726 26.8701C19.5055 26.9297 19.3609 27.0396 19.2587 27.1846C19.1565 27.3296 19.1016 27.5027 19.1016 27.6801C19.1016 27.8575 19.1565 28.0306 19.2587 28.1756C19.3609 28.3206 19.5055 28.4305 19.6726 28.4901L28.3726 33.4901C28.8084 33.7099 29.2896 33.8243 29.7776 33.8243C30.2656 33.8243 30.7469 33.7099 31.1826 33.4901L37.4126 29.8601C37.5731 29.781 37.7095 29.6603 37.8075 29.5105C37.9054 29.3608 37.9614 29.1875 37.9696 29.0087C37.9778 28.83 37.9378 28.6523 37.8539 28.4942C37.77 28.3361 37.6453 28.2035 37.4926 28.1101L35.9426 27.0001C35.5555 26.7388 35.1169 26.5634 34.6564 26.4858C34.1958 26.4081 33.724 26.4301 33.2726 26.5501C32.8286 26.6906 32.358 26.7258 31.898 26.6529C31.4381 26.58 31.0014 26.401 30.6226 26.1301Z" fill="#A39B99"/>
<path d="M23.6424 18.1144C23.1962 18.2447 22.7241 18.2589 22.2708 18.1556C21.8176 18.0524 21.3982 17.8351 21.0524 17.5244L20.2624 16.7744C19.911 16.4677 19.4773 16.271 19.015 16.2088C18.5528 16.1466 18.0824 16.2215 17.6624 16.4244L16.8124 16.8843C16.0224 17.3043 15.6324 17.8844 15.9424 18.1444C16.2524 18.4044 16.3924 18.7243 16.2624 18.8243C16.1324 18.9243 16.5824 19.4643 17.2624 20.0443L17.9124 20.5944C18.168 20.8499 18.4724 21.0514 18.8073 21.1871C19.1423 21.3228 19.5011 21.3899 19.8624 21.3843C20.5895 21.361 21.3002 21.6027 21.8624 22.0644L22.7624 22.6943C23.1872 22.96 23.661 23.1376 24.1557 23.2167C24.6505 23.2957 25.156 23.2745 25.6424 23.1544L27.2424 22.6744C27.4294 22.6458 27.6044 22.5648 27.7472 22.4408C27.89 22.3168 27.9947 22.1548 28.0491 21.9737C28.1035 21.7925 28.1055 21.5997 28.0548 21.4175C28.004 21.2353 27.9026 21.0712 27.7624 20.9443L26.1124 18.8644C25.8196 18.5109 25.4294 18.2513 24.9902 18.118C24.551 17.9846 24.0823 17.9834 23.6424 18.1144Z" fill="#A39B99"/>
<path d="M29.5709 24.2245L31.0609 25.3045C31.4764 25.5741 31.9443 25.7526 32.4338 25.8285C32.9232 25.9043 33.4232 25.8757 33.9009 25.7445L37.1308 24.6445C37.9708 24.3545 38.0209 23.7845 37.2309 23.3645L33.8009 21.5445C33.3587 21.3378 32.8743 21.2374 32.3864 21.2513C31.8985 21.2652 31.4206 21.393 30.9909 21.6245L29.6509 22.4345C29.4805 22.5097 29.3345 22.631 29.2293 22.7848C29.1241 22.9385 29.064 23.1186 29.0557 23.3047C29.0474 23.4908 29.0912 23.6755 29.1822 23.838C29.2732 24.0005 29.4078 24.1344 29.5709 24.2245Z" fill="#A39B99"/>
<path d="M42.1135 18.8658L42.3135 19.1458C42.8235 19.8758 42.6135 20.1459 41.8435 19.6559L41.4435 19.4258C41.0088 19.2085 40.5295 19.0953 40.0435 19.0953C39.5575 19.0953 39.0781 19.2085 38.6435 19.4258L37.0335 20.3658C36.8623 20.4339 36.7154 20.5517 36.6119 20.7042C36.5084 20.8566 36.4531 21.0366 36.4531 21.2209C36.4531 21.4051 36.5084 21.5851 36.6119 21.7375C36.7154 21.89 36.8623 22.0078 37.0335 22.0758L38.7435 23.2058C39.4935 23.6958 39.4135 24.3559 38.5835 24.6859L37.1935 25.2258C36.3535 25.5458 36.2635 26.2259 36.9935 26.7559L38.2635 27.6859C38.6603 27.9474 39.1198 28.0983 39.5944 28.1229C40.0691 28.1475 40.5417 28.0449 40.9635 27.8258L49.2234 23.0259C49.3955 22.9537 49.544 22.8348 49.652 22.6827C49.76 22.5306 49.8233 22.3513 49.8347 22.165C49.8462 21.9788 49.8053 21.7931 49.7167 21.6289C49.6281 21.4647 49.4954 21.3285 49.3335 21.2358L44.5835 17.6058C44.2636 17.3452 43.8875 17.1625 43.4848 17.0722C43.0821 16.982 42.664 16.9866 42.2635 17.0858C41.6835 17.3758 41.6435 18.1758 42.1135 18.8658Z" fill="#A39B99"/>
<path d="M30.319 13.7373L25.569 9.6073C25.1908 9.3083 24.7438 9.10867 24.2687 9.02658C23.7936 8.94449 23.3056 8.98254 22.849 9.1373L21.6589 9.58731C20.8289 9.91731 20.759 10.5873 21.509 11.0673L22.359 11.6373C22.5284 11.724 22.6714 11.8547 22.7729 12.0158C22.8744 12.1768 22.9306 12.3622 22.9357 12.5525C22.9409 12.7428 22.8946 12.9309 22.802 13.0971C22.7093 13.2634 22.5735 13.4016 22.4089 13.4973L21.129 14.4473C20.962 14.5608 20.8232 14.7108 20.7228 14.886C20.6225 15.0611 20.5633 15.2568 20.5498 15.4582C20.5364 15.6596 20.5689 15.8614 20.645 16.0484C20.7211 16.2354 20.8387 16.4026 20.989 16.5373L21.379 16.9073C21.7404 17.2224 22.1757 17.4408 22.6443 17.5422C23.1129 17.6436 23.5996 17.6247 24.059 17.4873L30.059 15.3473C30.2331 15.3128 30.3924 15.2258 30.5157 15.098C30.6389 14.9703 30.7201 14.8079 30.7484 14.6327C30.7767 14.4574 30.7508 14.2777 30.674 14.1177C30.5972 13.9576 30.4733 13.8249 30.319 13.7373Z" fill="#A39B99"/>
<path d="M34.7005 16.9942C34.8562 16.9011 34.9809 16.7642 35.0589 16.6005C35.137 16.4369 35.165 16.2538 35.1393 16.0743C35.1137 15.8948 35.0356 15.7269 34.9148 15.5917C34.794 15.4564 34.636 15.3599 34.4605 15.3142C33.4983 14.9538 32.4446 14.9187 31.4605 15.2142L27.2105 16.7342C27.0249 16.783 26.8551 16.8791 26.7177 17.0131C26.5803 17.1471 26.48 17.3145 26.4266 17.4989C26.3732 17.6832 26.3686 17.8783 26.4131 18.065C26.4576 18.2517 26.5497 18.4237 26.6805 18.5642L28.2005 20.5142C28.4845 20.8577 28.8782 21.093 29.3153 21.1804C29.7524 21.2678 30.2062 21.2021 30.6005 20.9942L30.9605 20.7942C31.8021 20.3542 32.7683 20.2131 33.7005 20.3942C34.6294 20.5845 35.5957 20.4317 36.4205 19.9642L37.8305 19.1341C38 19.0741 38.1467 18.963 38.2504 18.8162C38.3541 18.6693 38.4098 18.494 38.4098 18.3142C38.4098 18.1344 38.3541 17.959 38.2504 17.8122C38.1467 17.6653 38 17.5542 37.8305 17.4942C37.3918 17.2668 36.9093 17.1366 36.4158 17.1124C35.9223 17.0883 35.4293 17.1707 34.9705 17.3541C34.1105 17.7241 34.0205 17.5642 34.7005 16.9942Z" fill="#A39B99"/>
<path d="M25.6103 8.94136L26.6103 9.61135C26.9157 9.86231 27.2886 10.0172 27.6819 10.0563C28.0753 10.0955 28.4714 10.0172 28.8203 9.83135C29.0655 9.59902 29.2391 9.30137 29.3206 8.97356C29.4021 8.64575 29.3881 8.30146 29.2803 7.98134C29.0503 7.35134 29.4703 7.17136 30.2203 7.59136C30.6112 7.79388 31.045 7.89959 31.4853 7.89959C31.9255 7.89959 32.3594 7.79388 32.7503 7.59136C33.3903 7.17136 33.3403 6.40135 32.6303 5.86135L28.2203 2.53136C27.8289 2.26299 27.3723 2.10548 26.8987 2.07555C26.4251 2.04562 25.9523 2.14437 25.5303 2.36135L18.0103 6.74135C17.8468 6.8186 17.7073 6.93873 17.6067 7.08895C17.5061 7.23917 17.448 7.41386 17.4388 7.59444C17.4296 7.77502 17.4695 7.9547 17.5543 8.1144C17.639 8.2741 17.7655 8.40784 17.9203 8.50136L18.5503 8.95134C18.9622 9.21347 19.4283 9.37851 19.9134 9.43395C20.3985 9.48939 20.8898 9.43378 21.3503 9.27135L22.8203 8.64135C23.2783 8.48045 23.7665 8.42392 24.2492 8.47582C24.7319 8.52772 25.1969 8.68677 25.6103 8.94136Z" fill="#A39B99"/>
<path d="M46.5347 18.1206L50.2647 20.7506C50.6679 21.0069 51.1314 21.1529 51.6087 21.1739C52.086 21.195 52.5605 21.0904 52.9847 20.8706L54.0847 20.2306C54.2542 20.1763 54.4022 20.0696 54.5071 19.9258C54.612 19.782 54.6686 19.6086 54.6686 19.4306C54.6686 19.2526 54.612 19.0792 54.5071 18.9354C54.4022 18.7916 54.2542 18.6849 54.0847 18.6306L50.1947 16.4506C49.7439 16.2338 49.2544 16.1089 48.7548 16.0831C48.2552 16.0574 47.7555 16.1313 47.2847 16.3006L46.7047 16.5506C45.8747 16.8706 45.8047 17.6006 46.5347 18.1206Z" fill="#A39B99"/>
<path d="M37.2716 9.34662L35.7816 8.4466C35.3406 8.21457 34.857 8.07457 34.3602 8.03504C33.8634 7.9955 33.3638 8.05727 32.8916 8.21662L32.1216 8.5166C31.2376 8.88418 30.4278 9.40941 29.7316 10.0666C29.4994 10.3861 29.3953 10.7809 29.4397 11.1733C29.4841 11.5656 29.6739 11.9272 29.9716 12.1866L30.8416 13.0766C31.1387 13.391 31.5046 13.6322 31.9106 13.7814C32.3166 13.9306 32.7516 13.9838 33.1816 13.9366C34.0783 13.8283 34.9833 14.0564 35.7216 14.5766L37.3416 15.7166C38.1189 16.262 38.9852 16.668 39.9016 16.9166C40.7768 17.0271 41.6643 16.8517 42.4316 16.4166C43.1416 15.9966 43.0816 15.3066 42.3016 14.8666L38.6516 12.8666C37.8716 12.4266 37.5516 11.6566 37.9516 11.1366C38.3516 10.6166 38.0416 9.80662 37.2716 9.34662Z" fill="#A39B99"/>
<path d="M36.187 3.86954L30.967 0.869539C30.6186 0.651299 30.2254 0.514565 29.8168 0.469545C29.4081 0.424525 28.9946 0.472371 28.607 0.609529C28.077 0.919529 28.227 1.60955 28.927 2.15955L33.117 5.40955C33.5069 5.68242 33.962 5.8474 34.4361 5.88779C34.9103 5.92818 35.3866 5.84252 35.817 5.63953L36.157 5.44953C36.947 4.96953 36.967 4.26954 36.187 3.86954Z" fill="#A39B99"/>
<path d="M38.9444 10.7562C38.7844 11.2362 39.3044 11.9562 40.0944 12.3762L41.6444 13.1962C42.0688 13.3968 42.5416 13.4723 43.0074 13.4138C43.4732 13.3554 43.9127 13.1654 44.2744 12.8662L46.0444 11.2862C46.1965 11.1695 46.3162 11.0157 46.3919 10.8396C46.4676 10.6634 46.4968 10.4708 46.4767 10.2801C46.4567 10.0895 46.388 9.90713 46.2773 9.7506C46.1666 9.59408 46.0175 9.46859 45.8444 9.38616L39.8444 5.92617C39.4071 5.70147 38.925 5.57765 38.4335 5.5638C37.942 5.54996 37.4537 5.64646 37.0044 5.84618L36.5344 6.08617C36.3606 6.14408 36.2078 6.25203 36.0952 6.39645C35.9825 6.54087 35.915 6.71533 35.9011 6.89797C35.8872 7.08061 35.9276 7.2633 36.0171 7.42309C36.1066 7.58288 36.2414 7.71265 36.4044 7.79617L37.9344 8.92617C38.6444 9.46617 39.1144 10.2762 38.9444 10.7562Z" fill="#A39B99"/>
<path d="M44.3848 16.1559C44.3176 16.2753 44.2892 16.4125 44.3036 16.5487C44.3179 16.6849 44.3743 16.8132 44.4648 16.9159C44.6448 17.0659 45.4648 16.8559 46.2348 16.4659L51.1648 14.0159C51.9648 13.6159 51.9848 12.9359 51.2148 12.4859L50.3948 12.0159C49.9645 11.7899 49.4858 11.6719 48.9998 11.6719C48.5138 11.6719 48.035 11.7899 47.6048 12.0159L45.1048 13.5159C44.3348 13.9759 43.9248 14.6359 44.1748 14.9859C44.3041 15.1482 44.3911 15.3401 44.4278 15.5444C44.4644 15.7486 44.4496 15.9588 44.3848 16.1559Z" fill="#A39B99"/>
<path d="M57.6099 18.174L57.9299 17.994C58.1005 17.9365 58.2488 17.827 58.3538 17.6808C58.4588 17.5345 58.5153 17.359 58.5153 17.179C58.5153 16.999 58.4588 16.8235 58.3538 16.6773C58.2488 16.5311 58.1005 16.4215 57.9299 16.364L55.4099 14.914C54.5043 14.4517 53.4566 14.3516 52.4799 14.634L51.0699 15.124C50.2299 15.424 50.1899 15.984 50.9899 16.384L54.7599 18.264C55.2123 18.4596 55.7023 18.5529 56.1949 18.5374C56.6876 18.5218 57.1707 18.3977 57.6099 18.174Z" fill="#A39B99"/>
<path d="M30.5294 14.7012C30.5294 14.3712 30.1994 14.3712 30.1394 14.0112L27.5794 11.8112C27.0922 10.8359 26.2465 10.0869 25.2194 9.72123C24.7173 9.53706 24.1834 9.45544 23.6492 9.48121C23.115 9.50697 22.5914 9.63958 22.1094 9.87122C22.4963 10.2359 22.7714 10.7033 22.9024 11.2186C23.0335 11.734 23.0151 12.276 22.8494 12.7812C22.7694 13.7812 22.4394 15.0512 23.0894 15.7012C25.6694 17.9312 27.9394 14.3712 30.5294 14.7012Z" fill="#CEC9C8"/>
<path d="M34.1141 17.9237C33.4641 16.9237 35.1141 15.6637 33.1141 15.3438C31.4941 15.3438 29.8741 15.3437 29.2241 16.6337C26.9641 20.1937 32.1441 20.5237 34.1141 19.1737C34.2633 19.1965 34.415 19.1965 34.5642 19.1737C35.5271 18.8502 36.4498 18.4173 37.3142 17.8837C36.3542 17.2837 35.1141 18.5737 34.1141 17.9237Z" fill="#CEC9C8"/>
<path d="M27.94 21.8659C25.6622 19.5202 22.6679 18.0001 19.43 17.5459C18.7117 17.4063 17.9817 17.3359 17.25 17.3359C17.4469 18.0354 17.8306 18.6681 18.36 19.1659C20.17 19.9159 21.79 20.8959 23.71 21.7659C24.1864 22.0525 24.7342 22.1981 25.29 22.1859C26.32 22.4659 26.97 21.4959 27.94 21.8659Z" fill="#CEC9C8"/>
<path d="M33.7633 7.86719C32.1533 8.19719 30.5333 8.86719 30.8533 10.7772C31.5033 12.7172 33.4433 12.7172 35.1433 12.9872C35.7065 13.0123 36.2569 13.1637 36.7537 13.4303C37.2505 13.6969 37.6809 14.0718 38.0133 14.5272C38.6133 14.9797 39.2912 15.3187 40.0133 15.5272C40.6305 15.3849 41.2383 15.2046 41.8333 14.9872C41.4574 14.9613 41.0908 14.8593 40.7556 14.6874C40.4204 14.5155 40.1236 14.2773 39.8833 13.9872C38.6733 12.2972 37.6433 10.0572 35.8333 8.7572C35.2124 8.32035 34.5075 8.01727 33.7633 7.86719Z" fill="#CEC9C8"/>
<path d="M44.7694 11.1347C45.0894 10.4847 45.4194 10.1347 45.0894 9.5147C44.8427 9.02179 44.4925 8.58795 44.0628 8.24279C43.6331 7.89762 43.1339 7.64926 42.5994 7.5147C41.5474 7.25234 40.5582 6.78322 39.6894 6.13469C39.0326 5.83967 38.2869 5.81101 37.6094 6.05471C37.9694 8.22471 39.6094 9.8347 41.2094 11.4547C42.4994 12.1047 43.7994 12.4247 44.7694 11.1347Z" fill="#CEC9C8"/>
<path d="M45.1125 15.984C46.1125 14.044 48.3525 14.044 49.9725 13.074C49.3225 12.424 48.6725 11.774 47.6825 12.364L45.2025 13.714C45.0093 14.0584 44.9004 14.4436 44.8848 14.8382C44.8691 15.2328 44.9472 15.6254 45.1125 15.984Z" fill="#CEC9C8"/>
<path d="M33.5391 21.7311C31.8191 21.1711 29.5392 22.7911 31.1692 24.0911C32.7892 25.0911 35.0591 24.4111 36.4791 23.2711L33.5391 21.7311Z" fill="#CEC9C8"/>
<path d="M21.7916 26.3459C21.1416 26.6659 20.4916 27.3459 19.8516 27.6359C25.0316 31.2059 31.8516 34.4359 36.8016 28.4859C36.8807 28.444 36.9439 28.3772 36.9816 28.2959C33.4416 26.6659 29.8816 26.6659 26.9816 24.0859C26.3216 26.3459 23.7316 26.0259 21.7916 26.3459Z" fill="#CEC9C8"/>
<path d="M14.9926 20.1953C14.6235 20.2335 14.2678 20.3551 13.9525 20.5509C13.6373 20.7466 13.3706 21.0114 13.1726 21.3253C12.9269 21.6166 12.7823 21.9798 12.7607 22.3603C12.739 22.7408 12.8415 23.1181 13.0526 23.4353C14.0526 24.4353 15.3226 24.7153 16.5426 25.3553C16.8695 25.5044 17.2233 25.5857 17.5825 25.5943C17.9417 25.6029 18.2989 25.5386 18.6326 25.4053C19.6774 24.6395 20.8584 24.0796 22.1126 23.7553C19.8526 22.7853 17.5826 20.8653 14.9926 20.1953Z" fill="#CEC9C8"/>
<path d="M5.59875 15.6686C5.59875 15.0186 6.24877 14.6686 6.89877 14.6686C4.89877 14.3386 3.33875 15.9586 1.71875 16.9286C3.97875 18.5486 6.56878 19.1986 9.05878 20.5486C9.42983 20.548 9.79337 20.4441 10.1088 20.2486C11.07 19.1587 12.3064 18.3471 13.6888 17.8986C11.4288 15.6686 7.53875 18.2586 5.59875 15.6686Z" fill="#CEC9C8"/>
<path d="M46.3906 16.6402C48.0006 18.2602 50.2706 20.5302 52.9506 19.5302C53.0056 19.5094 53.0564 19.4789 53.1006 19.4402C50.9206 18.5802 49.3006 16.3202 46.3906 16.6402Z" fill="#CEC9C8"/>
<path d="M42.83 18.8681C42.34 20.0081 41.37 19.6781 40.4 19.3981C40.1362 19.1846 39.8097 19.0635 39.4705 19.0534C39.1313 19.0434 38.7981 19.1449 38.5222 19.3425C38.2463 19.5401 38.0428 19.8228 37.9431 20.1471C37.8433 20.4715 37.8528 20.8196 37.97 21.1381C38.3 21.7881 39.27 22.1381 39.59 23.0781C39.6543 23.4198 39.6285 23.7724 39.515 24.101C39.4015 24.4297 39.2042 24.723 38.9427 24.9522C38.6813 25.1814 38.3646 25.3384 38.0239 25.4079C37.6832 25.4773 37.3303 25.4567 37 25.3481C37.845 25.86 38.8293 26.0939 39.8142 26.0168C40.7991 25.9396 41.735 25.5553 42.49 24.9181C43.33 24.3481 44.16 23.6681 45.05 23.1081C45.8942 22.5214 46.8628 22.138 47.88 21.9881C48.03 21.9081 48.09 21.8281 48.09 21.7881C46.09 20.4981 44.77 17.8981 42.18 17.5781C42.5 17.9281 43.11 18.2581 42.83 18.8681Z" fill="#CEC9C8"/>
<path d="M54.2644 15.4687C53.199 15.0919 52.0327 15.1168 50.9844 15.5388C51.7981 16.2897 52.7396 16.8891 53.7644 17.3087C54.8133 17.7503 55.9925 17.7682 57.0544 17.3587L57.2144 17.2487C56.3653 16.457 55.3606 15.8508 54.2644 15.4687Z" fill="#CEC9C8"/>
<path d="M14.9875 14.3649C14.7347 14.7486 14.6217 15.2076 14.6675 15.6648C15.5704 14.5948 16.8397 13.8996 18.2275 13.7149C17.5775 13.7149 16.9275 13.3949 16.9275 12.7149C17.5775 10.7749 19.8475 11.4249 21.1375 12.3949C18.2275 8.51485 11.7475 9.48486 8.4375 12.5549C8.34123 12.6078 8.2563 12.6792 8.1875 12.7649C9.8075 14.6949 12.7175 13.3949 14.9875 14.3649Z" fill="#CEC9C8"/>
<path d="M22.0225 7.53638C22.7194 7.39763 23.424 7.30078 24.1325 7.24637C24.8245 7.1608 25.5269 7.23332 26.1869 7.45849C26.8468 7.68367 27.4471 8.05563 27.9425 8.54635C28.0918 7.91705 28.4131 7.34162 28.8704 6.88428C29.3277 6.42693 29.9032 6.10568 30.5325 5.95636C31.1954 5.90647 31.8607 6.01621 32.4725 6.27637C30.3125 3.04637 26.2825 2.82637 22.7925 4.09637C21.1025 4.70718 19.5569 5.66041 18.2525 6.89636C18.0925 6.99636 18.0625 7.07636 18.0625 7.08636C19.2025 8.22636 20.8225 7.57638 22.0225 7.53638Z" fill="#CEC9C8"/>
<path d="M36.0341 4.01468C34.9387 3.4118 33.8102 2.87095 32.6541 2.39468C31.5333 1.93767 30.4442 1.4065 29.3941 0.804688H29.1641C30.1641 1.73469 31.1641 2.38468 32.2641 3.48468C32.7818 3.91342 33.4084 4.18999 34.074 4.28357C34.7397 4.37715 35.4182 4.28406 36.0341 4.01468Z" fill="#CEC9C8"/>
<path d="M3.67378 16.6655C3.51378 16.7255 4.15379 17.6155 4.40379 17.5055C4.65379 17.3955 4.7838 15.6755 4.5938 15.6955C4.4038 15.7155 3.99378 16.5555 3.67378 16.6655Z" fill="#727272"/>
<path d="M32.8274 16.8701C32.5871 16.6665 32.2824 16.5547 31.9674 16.5547C31.6524 16.5547 31.3477 16.6665 31.1074 16.8701C29.6974 18.3101 31.7174 17.8701 32.8374 17.6201C33.1074 17.5401 32.9574 17.0801 32.8274 16.8701Z" fill="#727272"/>
<path d="M24.814 27.2265C24.5825 27.0083 24.2799 26.8811 23.9621 26.8683C23.6442 26.8554 23.3324 26.9578 23.084 27.1565C21.674 28.5965 23.694 28.1565 24.814 27.9165C25.044 27.8665 24.944 27.4065 24.814 27.2265Z" fill="#727272"/>
<path d="M28.5975 28.3672C28.2942 28.3951 28.0107 28.5302 27.7981 28.7484C27.5855 28.9665 27.4576 29.2533 27.4375 29.5572C27.5575 31.4772 28.5275 29.7072 29.1075 28.7872C29.2175 28.6072 28.8175 28.3772 28.5975 28.3672Z" fill="#727272"/>
<path d="M20.864 18.9444C20.774 19.4344 22.034 20.4344 22.434 20.1444C22.834 19.8544 21.114 17.4744 20.864 18.9444Z" fill="#727272"/>
<path d="M11.2991 12.2995C11.5391 12.5295 11.9591 12.9195 12.2991 12.5795C12.6391 12.2395 12.3991 11.7095 12.2991 11.4495C11.8691 10.3795 10.8291 11.8695 11.2991 12.2995Z" fill="#727272"/>
<path d="M34.1686 10.0486C34.203 9.93518 34.2084 9.81496 34.1844 9.6989C34.1603 9.58285 34.1077 9.47468 34.0311 9.38421C33.9545 9.29374 33.8566 9.22386 33.7461 9.18096C33.6356 9.13806 33.5162 9.1235 33.3986 9.1386C31.2186 9.1486 34.5186 11.7386 34.1686 10.0486Z" fill="#727272"/>
<path d="M28.2281 14.0563C27.2781 13.1763 28.1181 11.0563 28.8781 13.5463C28.9181 13.6463 28.3081 14.1363 28.2281 14.0563Z" fill="#727272"/>
<path d="M41.1688 9.48615C41.363 9.19139 41.4414 8.83521 41.3888 8.48615C38.8988 5.93615 40.9988 9.57615 41.1688 9.48615Z" fill="#727272"/>
<path d="M44.4735 21.5267C44.6618 21.2295 44.7397 20.8755 44.6935 20.5267C42.2035 17.9767 44.3035 21.6067 44.4735 21.5267Z" fill="#727272"/>
<path d="M20.878 6.66727C21.128 6.96727 22.348 6.22729 22.338 6.12729C22.108 4.42729 20.638 6.36727 20.878 6.66727Z" fill="#727272"/>
<path d="M28.8847 4.94982C28.6747 4.77982 27.2447 4.55982 27.0647 4.82982C26.6547 5.43982 27.9247 6.65982 28.3647 5.66982C28.4347 5.50982 29.0147 5.05982 28.8847 4.94982Z" fill="#727272"/>
<path d="M56.558 17.5691C56.658 17.5691 56.268 16.9991 56.108 17.0591C55.948 17.1191 55.878 18.1791 55.998 18.1591C56.118 18.1391 56.358 17.6391 56.558 17.5691Z" fill="#727272"/>
<path d="M37.7793 14.9669C37.9239 15.0955 38.1107 15.1665 38.3043 15.1665C38.4978 15.1665 38.6847 15.0955 38.8293 14.9669C39.6893 14.0869 38.4593 14.3869 37.7793 14.5069C37.6393 14.5769 37.6993 14.8669 37.7793 14.9669Z" fill="#727272"/>
<path d="M42.2884 11.0294C42.4346 11.1587 42.6231 11.2301 42.8184 11.2301C43.0136 11.2301 43.2021 11.1587 43.3484 11.0294C44.2084 10.1494 42.9684 10.4494 42.2884 10.5694C42.1084 10.6394 42.2084 10.9194 42.2884 11.0294Z" fill="#727272"/>
<path d="M34.521 5.58882C34.7062 5.57213 34.879 5.48904 35.0077 5.35487C35.1364 5.2207 35.2121 5.04449 35.221 4.85881C35.151 3.68881 34.561 4.76881 34.221 5.32881C34.111 5.43881 34.381 5.57882 34.521 5.58882Z" fill="#727272"/>
<path d="M45.7244 16.1063C45.7744 15.8063 45.0044 15.1964 44.7244 15.3764C44.4444 15.5564 45.5644 16.9963 45.7244 16.1063Z" fill="#727272"/>
<path d="M50.4032 18.6939C50.2632 18.5539 50.0032 18.3139 49.8132 18.5139C49.6232 18.7139 49.7432 19.0539 49.8132 19.2039C50.0532 19.8639 50.6932 18.9739 50.4032 18.6939Z" fill="#727272"/>
<path d="M32.7175 22.4089C32.6944 22.4771 32.6892 22.5501 32.7025 22.6209C32.7157 22.6916 32.747 22.7578 32.7932 22.813C32.8393 22.8682 32.8989 22.9107 32.9663 22.9362C33.0336 22.9618 33.1063 22.9696 33.1775 22.9589C34.5075 22.9489 32.4975 21.3689 32.7175 22.4089Z" fill="#727272"/>
<path d="M31.1109 18.4353C31.6909 18.9753 31.1709 20.2453 30.7109 18.7553C30.7309 18.6853 31.1109 18.3853 31.1109 18.4353Z" fill="#727272"/>
<path d="M36.1106 11.4461C36.0075 11.6247 35.9621 11.8308 35.9806 12.0362C37.4906 13.6162 36.2106 11.3961 36.1106 11.4461Z" fill="#727272"/>
<path d="M29.8015 14.2196C29.6907 14.3951 29.6447 14.6038 29.6715 14.8096C31.1815 16.3896 29.9115 14.1696 29.8015 14.2196Z" fill="#727272"/>
<path d="M44.562 22.1197C44.412 21.9397 43.662 22.3997 43.672 22.4497C43.802 23.4897 44.712 22.3097 44.562 22.1197Z" fill="#727272"/>
<path d="M39.6837 23.1787C39.8137 23.2787 40.6837 23.4087 40.7937 23.2487C41.0437 22.8787 40.2637 22.1287 40.0037 22.7387C39.9537 22.8687 39.6037 23.1087 39.6837 23.1787Z" fill="#727272"/>
<path d="M34.5821 16.4455C34.6821 16.4455 34.3021 15.8655 34.1421 15.9355C33.9821 16.0055 33.9121 17.0556 34.0221 17.0356C34.1321 17.0156 34.3921 16.5155 34.5821 16.4455Z" fill="#727272"/>
<path d="M15.8147 13.8653C15.9594 13.9939 16.1462 14.065 16.3397 14.065C16.5333 14.065 16.7201 13.9939 16.8647 13.8653C17.7247 12.9853 16.4847 13.2853 15.8147 13.4053C15.6647 13.4553 15.7347 13.7353 15.8147 13.8653Z" fill="#727272"/>
<path d="M14.6074 23.045C14.7537 23.1743 14.9422 23.2457 15.1374 23.2457C15.3327 23.2457 15.5212 23.1743 15.6674 23.045C16.5274 22.165 15.2874 22.465 14.6074 22.585C14.4674 22.655 14.5274 22.935 14.6074 23.045Z" fill="#727272"/>
<path d="M24.1074 7.37007C24.2943 7.35568 24.4696 7.2736 24.6003 7.1392C24.731 7.0048 24.8082 6.82731 24.8174 6.64006C24.7374 5.47006 24.1474 6.55006 23.8174 7.11006C23.6874 7.22006 23.9374 7.36007 24.1074 7.37007Z" fill="#727272"/>
<path d="M23.7478 14.9792C23.7978 14.6892 23.0278 14.0792 22.7478 14.2592C22.4678 14.4392 23.5878 15.8692 23.7478 14.9792Z" fill="#727272"/>
<path d="M28.4203 17.5669C28.2803 17.4369 28.0303 17.1969 27.8303 17.3969C27.6303 17.5969 27.7703 17.9369 27.8303 18.0869C28.1103 18.7369 28.7203 17.8669 28.4203 17.5669Z" fill="#727272"/>
<path d="M34.1081 28.5049C34.085 28.5731 34.0799 28.6461 34.0931 28.7168C34.1064 28.7876 34.1376 28.8538 34.1838 28.909C34.2299 28.9642 34.2895 29.0066 34.3568 29.0322C34.4241 29.0577 34.4969 29.0656 34.5681 29.0549C35.9381 29.0549 33.9281 27.4749 34.1081 28.5049Z" fill="#727272"/>
<path d="M9.18207 17.3181C9.76207 17.8581 9.24207 19.1281 8.78207 17.6381C8.76207 17.5681 9.11207 17.2681 9.18207 17.3181Z" fill="#727272"/>
<path d="M14.1123 10.329C14.0052 10.506 13.9595 10.7133 13.9823 10.919C15.5123 12.489 14.2423 10.279 14.1123 10.329Z" fill="#727272"/>
<path d="M7.83125 13.0946C7.72215 13.2673 7.67294 13.4711 7.69124 13.6746C9.21124 15.2546 7.94125 13.0446 7.83125 13.0946Z" fill="#727272"/>
<path d="M30.4603 31.0379C30.3103 30.8479 29.5703 31.3079 29.5703 31.3679C29.7103 32.4079 30.6103 31.2179 30.4603 31.0379Z" fill="#727272"/>
<path d="M28.5509 26.3194C28.6809 26.4294 29.5509 26.5593 29.6609 26.3893C29.9109 26.0193 29.1309 25.2694 28.8709 25.8794C28.8209 25.9794 28.4709 26.2494 28.5509 26.3194Z" fill="#727272"/>
<path d="M29.74 34.3675V39.5975L0 22.4075V17.1875L29.74 34.3675Z" fill="#CEC9C8"/>
<path d="M1.10837 17.8672C1.10837 17.8672 0.238367 18.8672 2.10837 20.2472C3.97837 21.6272 7.94837 23.5372 8.20837 22.9272C8.29614 22.7752 8.34235 22.6027 8.34235 22.4272C8.34235 22.2516 8.29614 22.0792 8.20837 21.9272L1.10837 17.8672Z" fill="#8C8280"/>
<path d="M16.4436 26.5806L11.1837 23.6406C11.1837 23.6406 9.88364 23.6406 10.7336 24.5606C11.5836 25.4806 16.6136 28.4006 16.6136 27.6806C16.628 27.3065 16.5703 26.933 16.4436 26.5806Z" fill="#8C8280"/>
<path d="M19.4005 28.3846C19.4005 28.3846 17.7505 28.3146 18.6205 29.0546C19.4905 29.7946 27.2605 36.1346 29.7505 36.0546V34.3646L19.4005 28.3846Z" fill="#8C8280"/>
<path d="M8.43439 24.0867C8.43439 24.0867 3.15438 20.7067 2.64438 21.5267C2.13438 22.3467 11.8644 29.6167 11.1844 27.5267C10.5044 25.4367 11.9944 25.5967 8.43439 24.0867Z" fill="#8C8280"/>
<path d="M3.16998 24.2347C3.24998 23.6847 1.62997 23.3547 1.71997 22.2347C1.80997 21.1147 0 19.8047 0 19.8047V22.4347L3.16998 24.2347Z" fill="#8C8280"/>
<path d="M11.7879 26.4649C10.6079 27.1549 12.0579 29.3749 14.8579 30.9849C17.6579 32.5949 18.6379 31.3749 17.7479 30.6449C16.8579 29.9149 13.3479 25.5349 11.7879 26.4649Z" fill="#8C8280"/>
<path d="M17.4342 29.0571C17.4342 29.0571 19.4342 31.5371 18.3742 31.9871C17.3142 32.4371 19.9542 33.7671 20.5542 32.8271C21.1542 31.8871 15.8342 27.1971 17.4342 29.0571Z" fill="#8C8280"/>
<path d="M21.982 32.8697C21.982 32.8697 24.782 37.1598 27.762 38.0998C30.742 39.0398 28.452 36.7697 27.442 36.2697C26.432 35.7697 20.802 30.7097 21.982 32.8697Z" fill="#8C8280"/>
<path d="M21.1071 33.1597C21.1071 33.1597 19.9171 33.1596 20.8271 33.8896C21.7371 34.6196 23.3071 36.0996 22.8271 35.2996C22.3471 34.4996 20.8071 31.9197 21.1071 33.1597Z" fill="#8C8280"/>
<path d="M29.7422 34.3697V39.5997L59.3322 22.4097V17.1797L29.7422 34.3697Z" fill="#5B5B5B"/>
<path d="M30.481 36.5612C30.481 36.5612 29.201 38.9712 30.751 38.2912C32.301 37.6112 36.751 35.5012 36.751 34.7812C36.751 34.0612 34.521 34.0012 30.481 36.5612Z" fill="#727272"/>
<path d="M38.4093 31.7879C38.2793 31.8779 34.9693 33.5679 36.0293 33.8879C37.0893 34.2079 36.7993 34.7379 37.6093 34.3679C38.4193 33.9979 41.6593 32.6379 41.8593 31.7879C42.0593 30.9379 41.7993 29.5179 38.4093 31.7879Z" fill="#727272"/>
<path d="M47.1087 26.8678C47.1087 26.8678 43.6587 29.2078 43.7187 29.8678C43.7787 30.5278 44.1887 29.0378 43.1987 29.4078C42.2087 29.7778 41.6487 30.8178 42.5987 30.9078C43.5487 30.9978 47.8887 29.4978 48.1387 28.3878C48.3887 27.2778 49.1087 25.3978 47.1087 26.8678Z" fill="#727272"/>
<path d="M49.1142 26.0576C49.1142 25.8976 51.0342 24.3676 51.2942 23.6876C51.5542 23.0076 53.0242 23.6876 53.2442 24.0876C53.4642 24.4876 52.2442 25.7976 51.2942 26.2176C50.3442 26.6376 48.7242 29.2476 49.1142 26.0576Z" fill="#727272"/>
<path d="M54.5393 22.4274C54.5393 22.4274 55.9993 21.8174 55.8593 20.4774C55.7193 19.1374 56.7893 21.2574 58.0193 21.1074C59.2493 20.9574 56.0793 24.4574 54.4593 24.5674C52.8393 24.6774 53.3593 22.4074 54.5393 22.4274Z" fill="#727272"/>
<path d="M59.3316 19.1953C58.7316 19.6853 57.4416 20.2453 57.5716 20.4653C57.8616 20.9653 58.5116 20.3453 58.5716 20.8353C58.5802 20.9254 58.607 21.0128 58.6503 21.0923C58.6935 21.1717 58.7524 21.2416 58.8235 21.2977C58.8945 21.3538 58.9761 21.3949 59.0635 21.4185C59.1508 21.4422 59.242 21.4479 59.3316 21.4353V19.1953Z" fill="#727272"/>
<path d="M37.7888 29.7006C37.7888 29.7006 39.2487 29.2806 38.7188 30.4206C38.1888 31.5606 32.0387 35.9506 29.7188 36.0306V34.3706L37.7888 29.7006Z" fill="#727272"/>
<path d="M40.112 28.3642C40.112 28.3642 39.472 29.6842 39.932 29.8342C40.392 29.9842 49.332 25.7442 49.932 24.3442C50.532 22.9442 50.382 22.1142 49.512 22.8742C48.642 23.6342 40.112 28.3642 40.112 28.3642Z" fill="#727272"/>
<path d="M54.2895 20.1092L52.3794 21.2192C52.3794 21.2192 50.9694 21.9592 51.3794 22.5092C51.7894 23.0592 53.1395 22.7192 54.0795 21.8592C55.0195 20.9992 55.9395 19.1592 54.2895 20.1092Z" fill="#727272"/>
<path d="M58.5076 17.6549L57.1076 18.4649C57.1076 18.4649 55.9976 19.2049 56.2476 19.7449C56.4976 20.2849 57.5676 19.9649 58.2476 19.4449C58.9276 18.9249 59.9176 16.8649 58.5076 17.6549Z" fill="#727272"/>
</svg>
