<svg width="67" height="65" viewBox="0 0 67 65" fill="none" xmlns="http://www.w3.org/2000/svg">
<g opacity="0.2">
<path d="M60.0572 38.9291L55.0572 41.8291L65.8072 48.0391L66.0372 51.8691L59.5772 51.6591L48.8272 45.4491L48.2472 45.7891L49.2372 46.3691L46.0472 48.2191L43.0172 49.9791L42.0272 49.4091L16.7472 64.0991L13.1172 62.0091L45.2172 43.3591L34.4672 37.1491L40.6872 33.5391L51.4372 39.7391L56.4372 36.8391L60.0572 38.9291Z" fill="#0B324A"/>
</g>
<path d="M17.7547 1.54344L17.5747 62.9834C17.5555 63.2149 17.4737 63.4367 17.338 63.6252C17.2024 63.8137 17.018 63.9617 16.8047 64.0534C16.2275 64.3492 15.5882 64.5034 14.9397 64.5034C14.2911 64.5034 13.6519 64.3492 13.0747 64.0534C12.8604 63.9574 12.6759 63.8056 12.5405 63.6138C12.405 63.4221 12.3236 63.1975 12.3047 62.9634L12.4747 1.52344C12.4965 1.75791 12.5803 1.98237 12.7173 2.17387C12.8544 2.36538 13.0398 2.51707 13.2547 2.61343C13.8319 2.90917 14.4711 3.0634 15.1197 3.0634C15.7682 3.0634 16.4075 2.90917 16.9847 2.61343C17.1938 2.51577 17.3744 2.36614 17.5092 2.17882C17.644 1.99149 17.7285 1.77274 17.7547 1.54344Z" fill="#75554A"/>
<path d="M16.9738 0.449966C17.1997 0.526309 17.396 0.671558 17.535 0.865295C17.6741 1.05903 17.7488 1.29149 17.7488 1.52995C17.7488 1.76841 17.6741 2.00087 17.535 2.19461C17.396 2.38835 17.1997 2.53361 16.9738 2.60995C16.3966 2.90569 15.7573 3.05992 15.1088 3.05992C14.4602 3.05992 13.821 2.90569 13.2438 2.60995C13.0179 2.53361 12.8216 2.38835 12.6826 2.19461C12.5435 2.00087 12.4688 1.76841 12.4688 1.52995C12.4688 1.29149 12.5435 1.05903 12.6826 0.865295C12.8216 0.671558 13.0179 0.526309 13.2438 0.449966C13.821 0.154234 14.4602 0 15.1088 0C15.7573 0 16.3966 0.154234 16.9738 0.449966Z" fill="#9E7363"/>
<path d="M35.0656 12.1503L33.8656 11.4503L29.0156 9.82031L30.2156 10.5103L35.0656 12.1503Z" fill="#AFC161"/>
<path d="M6.02814 24.4812L4.82812 23.7812L4.85812 32.6413L6.05814 33.3412L6.02814 24.4812Z" fill="#98AD48"/>
<path d="M30.2181 10.5103L29.0181 9.82031L4.82812 23.7803L6.02814 24.4803L30.2181 10.5103Z" fill="#AFC161"/>
<path d="M6.03125 24.4778L6.06125 33.3378L30.2513 19.3678L35.0713 12.1478L30.2213 10.5078L6.03125 24.4778Z" fill="#74922A"/>
<path d="M0.0234375 1.30937L1.22345 0.609375L25.4135 14.5794L24.2134 15.2794L0.0234375 1.30937Z" fill="#DD7003"/>
<path d="M24.2109 15.2781L25.4109 14.5781L30.2409 21.7981L29.041 22.4981L24.2109 15.2781Z" fill="#DD7003"/>
<path d="M24.21 15.2825L29.04 22.5025L24.18 24.1325L0 10.1725L0.019989 1.3125L24.21 15.2825Z" fill="#F98F07"/>
</svg>
