<svg width="73" height="67" viewBox="0 0 73 67" fill="none" xmlns="http://www.w3.org/2000/svg">
<g opacity="0.2">
<path d="M61.7366 56.2375L58.1266 62.0675L51.8366 62.8175L44.1566 59.8175L45.3066 57.5675L44.7966 57.4575L31.4466 59.8075L24.7566 63.9175L22.5266 66.8675L20.4466 62.8175L15.9766 60.0875L22.2866 60.2475C26.9425 57.6563 31.1747 54.3683 34.8366 50.4975L29.2766 43.8375L52.4466 32.4375L64.8666 38.1075L72.0866 47.5875L60.3266 55.1375L61.7366 56.2375ZM32.8566 56.6775C33.7566 57.0075 37.1766 56.9175 41.1766 56.6775L39.7966 56.3675L36.4466 52.3075C34.3366 54.8275 32.9766 56.5775 32.9066 56.6775H32.8566Z" fill="#0B324A"/>
</g>
<path d="M21.0972 51.5484L34.7672 27.0085C34.7672 27.0085 21.2972 45.8884 18.3572 46.6484C18.3572 46.6484 10.4172 24.1684 9.86719 14.6484V30.0385C9.86719 30.0385 15.5172 43.8484 14.7772 58.9284L9.86719 63.4984H16.5272L23.0072 66.8984L21.0972 61.6184V51.5484Z" fill="#9E7363"/>
<path d="M37.21 34.5037L36.61 6.22374L22 5.09375L23.17 41.0838L37.21 34.5037Z" fill="#74922A"/>
<path d="M19.6666 0L3.47656 2.34001L21.9966 5.09001L36.6066 6.22L19.6666 0Z" fill="#AFC161"/>
<path d="M0 33.5538L3.48 2.34375L22 5.09375L23.17 41.0838L0 33.5538Z" fill="#98AD48"/>
<path d="M40.0163 39.9716L43.8062 34.3516H37.2362L30.6562 42.0716L40.0163 39.9716Z" fill="#74922A"/>
<path d="M39.4197 24.5219L27.4297 23.1719L37.2397 34.3519H43.8097L39.4197 24.5219Z" fill="#AFC161"/>
<path d="M25.25 31.7319L27.43 23.1719L37.24 34.3519L30.66 42.0719L25.25 31.7319Z" fill="#98AD48"/>
</svg>
