<svg width="81" height="67" viewBox="0 0 81 67" fill="none" xmlns="http://www.w3.org/2000/svg">
<g opacity="0.2">
<path d="M59.6268 56.8214C55.749 56.8484 51.8967 56.1917 48.2468 54.8814L38.1168 60.7714H42.0068C42.5368 59.8614 44.0068 59.2014 45.7868 59.2014C46.776 59.1817 47.7538 59.4158 48.6268 59.8814C48.9546 60.0248 49.238 60.2536 49.4473 60.5438C49.6566 60.834 49.7842 61.1751 49.8168 61.5314C49.8168 62.8114 48.0268 63.8514 45.8168 63.8514C44.8244 63.8711 43.8434 63.637 42.9668 63.1714C42.71 63.0241 42.4745 62.8425 42.2668 62.6314H34.9168L28.8468 66.1414C28.151 66.4564 27.3709 66.5337 26.6268 66.3614C25.6478 66.197 24.7062 65.8583 23.8468 65.3614C23.2309 65.0316 22.6976 64.5666 22.2868 64.0014C22.2284 63.9252 22.1813 63.841 22.1468 63.7514C22.0996 63.6732 22.0626 63.5891 22.0368 63.5014C21.9857 63.3084 22.0025 63.1037 22.0844 62.9216C22.1664 62.7395 22.3085 62.5911 22.4868 62.5014L31.9568 57.0114C31.8884 56.8781 31.8508 56.7312 31.8468 56.5814L31.7868 47.5214C31.1851 47.3338 30.6051 47.0824 30.0568 46.7714C29.4602 46.5068 28.9433 46.0907 28.5574 45.5644C28.1714 45.0381 27.9299 44.4199 27.8568 43.7714C27.8568 41.3914 31.1568 39.4614 35.2668 39.4614C36.8447 39.4395 38.4093 39.7531 39.8568 40.3814C42.7568 35.9214 50.0468 32.7114 58.6968 32.5214H59.4868C64.6768 32.4202 69.8063 33.6492 74.3868 36.0914C78.2068 38.3014 80.5768 41.3414 80.5968 44.7114C80.6368 51.3714 71.2468 56.8214 59.6268 56.8214ZM37.7768 53.6114L41.8968 51.2214C40.6833 50.185 39.7223 48.8853 39.0868 47.4214C38.6486 47.5709 38.2009 47.6911 37.7468 47.7814V53.6114H37.7768Z" fill="#0B324A"/>
</g>
<path d="M28.906 62.4621C30.666 63.4621 30.676 65.1221 28.906 66.1221C27.9946 66.5877 26.9921 66.8478 25.9693 66.8841C24.9465 66.9204 23.9281 66.732 22.986 66.332C22.8466 66.2742 22.7128 66.2039 22.586 66.1221C22.4544 66.0502 22.3274 65.9701 22.206 65.882C20.836 64.882 20.946 63.3921 22.566 62.4621C23.5482 61.9632 24.6343 61.7031 25.736 61.7031C26.8377 61.7031 27.9238 61.9632 28.906 62.4621Z" fill="#9E7363"/>
<path d="M30.2234 22.0312H21.2734V64.2912H30.2234V22.0312Z" fill="#9E7363"/>
<path d="M22.7659 56.1321C23.3507 56.124 23.9204 55.9451 24.4049 55.6175C24.8894 55.2898 25.2676 54.8276 25.4928 54.2878C25.7181 53.748 25.7807 53.1542 25.6728 52.5793C25.565 52.0044 25.2914 51.4736 24.8859 51.0521L9.14586 35.3321C8.56784 34.8919 7.84966 34.6764 7.12475 34.7257C6.39983 34.7749 5.71744 35.0856 5.20427 35.6C4.69111 36.1143 4.38208 36.7975 4.33455 37.5225C4.28703 38.2475 4.50423 38.9652 4.94585 39.5422L20.6959 55.2622C20.9664 55.5366 21.2886 55.7548 21.6439 55.9041C21.9992 56.0534 22.3805 56.1309 22.7659 56.1321Z" fill="#9E7363"/>
<path d="M40.6378 6.18158C43.566 9.12194 45.5574 12.8639 46.3607 16.9351C47.1639 21.0064 46.743 25.2243 45.151 29.0565C43.559 32.8886 40.8673 36.1632 37.4158 38.4669C33.9642 40.7706 29.9075 42 25.7578 42C21.6081 42 17.5514 40.7706 14.0999 38.4669C10.6484 36.1632 7.95669 32.8886 6.3647 29.0565C4.7727 25.2243 4.35175 21.0064 5.15498 16.9351C5.95822 12.8639 7.94963 9.12194 10.8778 6.18158C12.829 4.22232 15.1479 2.66767 17.7014 1.60687C20.2549 0.546072 22.9927 0 25.7578 0C28.5229 0 31.2608 0.546072 33.8143 1.60687C36.3678 2.66767 38.6867 4.22232 40.6378 6.18158Z" fill="#74922A"/>
<path d="M32.6969 6.18581C34.8485 8.33843 36.3135 11.0807 36.9067 14.0658C37.4999 17.051 37.1947 20.145 36.0297 22.9568C34.8646 25.7685 32.892 28.1716 30.3613 29.8624C27.8306 31.5531 24.8554 32.4556 21.8119 32.4556C18.7683 32.4556 15.7931 31.5531 13.2624 29.8624C10.7317 28.1716 8.75915 25.7685 7.59409 22.9568C6.42904 20.145 6.12383 17.051 6.71705 14.0658C7.31027 11.0807 8.7753 8.33843 10.9269 6.18581C13.8146 3.30046 17.7297 1.67969 21.8119 1.67969C25.894 1.67969 29.8092 3.30046 32.6969 6.18581Z" fill="#98AD48"/>
<path d="M12.7 31.8111C13.7408 32.8515 14.4496 34.1771 14.7369 35.6204C15.0241 37.0637 14.8769 38.5598 14.3139 39.9194C13.7508 41.279 12.7972 42.4411 11.5737 43.2588C10.3501 44.0764 8.91159 44.5128 7.43999 44.5128C5.96839 44.5128 4.52985 44.0764 3.30629 43.2588C2.08274 42.4411 1.12913 41.279 0.56609 39.9194C0.00304633 38.5598 -0.144128 37.0637 0.143147 35.6204C0.430421 34.1771 1.13926 32.8515 2.18001 31.8111C3.57521 30.4163 5.46721 29.6328 7.43999 29.6328C9.41277 29.6328 11.3048 30.4163 12.7 31.8111Z" fill="#74922A"/>
<path d="M9.90719 31.815C10.667 32.5761 11.1842 33.5455 11.3934 34.6005C11.6025 35.6555 11.4942 36.7488 11.0822 37.7423C10.6702 38.7358 9.97291 39.5848 9.07851 40.1821C8.18411 40.7795 7.13271 41.0983 6.05718 41.0983C4.98165 41.0983 3.93028 40.7795 3.03588 40.1821C2.14148 39.5848 1.4442 38.7358 1.03219 37.7423C0.620168 36.7488 0.511891 35.6555 0.721029 34.6005C0.930167 33.5455 1.44735 32.5761 2.2072 31.815C3.23026 30.7976 4.61438 30.2266 6.05718 30.2266C7.49998 30.2266 8.88413 30.7976 9.90719 31.815Z" fill="#98AD48"/>
<path d="M28.3376 61.7628C28.0208 61.7615 27.7113 61.6667 27.4481 61.4903C27.1849 61.3139 26.9796 61.0638 26.8579 60.7713C26.7362 60.4787 26.7035 60.1568 26.7639 59.8458C26.8243 59.5348 26.9752 59.2485 27.1976 59.0228L35.6776 50.5428C35.9856 50.2793 36.3817 50.1417 36.7867 50.1575C37.1918 50.1732 37.5759 50.3412 37.8626 50.6278C38.1492 50.9144 38.3171 51.2986 38.3329 51.7037C38.3486 52.1087 38.2111 52.5048 37.9476 52.8128L29.4676 61.2928C29.1681 61.593 28.7617 61.7621 28.3376 61.7628Z" fill="#9E7363"/>
<path d="M39.4259 48.6441C39.9821 49.2048 40.3598 49.9176 40.5115 50.6926C40.6631 51.4677 40.582 52.2702 40.2783 52.9992C39.9746 53.7282 39.4619 54.351 38.8048 54.7891C38.1477 55.2272 37.3757 55.4609 36.586 55.4609C35.7962 55.4609 35.0242 55.2272 34.3671 54.7891C33.71 54.351 33.1973 53.7282 32.8936 52.9992C32.5899 52.2702 32.5087 51.4677 32.6604 50.6926C32.8121 49.9176 33.1898 49.2048 33.7459 48.6441C34.1178 48.2692 34.5602 47.9716 35.0476 47.7686C35.5351 47.5655 36.0579 47.4609 36.586 47.4609C37.114 47.4609 37.6368 47.5655 38.1243 47.7686C38.6117 47.9716 39.0541 48.2692 39.4259 48.6441Z" fill="#74922A"/>
<path d="M37.8956 48.6426C38.3045 49.0527 38.5827 49.5748 38.695 50.1429C38.8073 50.7111 38.7488 51.2997 38.5267 51.8346C38.3047 52.3695 37.9292 52.8265 37.4475 53.1481C36.9659 53.4696 36.3997 53.6413 35.8206 53.6413C35.2415 53.6413 34.6754 53.4696 34.1937 53.1481C33.7121 52.8265 33.3365 52.3695 33.1145 51.8346C32.8925 51.2997 32.8339 50.7111 32.9463 50.1429C33.0586 49.5748 33.3368 49.0527 33.7456 48.6426C34.0178 48.3696 34.3412 48.153 34.6973 48.0051C35.0533 47.8573 35.4351 47.7812 35.8206 47.7812C36.2062 47.7812 36.5879 47.8573 36.944 48.0051C37.3001 48.153 37.6235 48.3696 37.8956 48.6426Z" fill="#98AD48"/>
<path d="M19.0103 8.68165C19.5735 9.23954 19.9582 9.95219 20.1157 10.7291C20.2731 11.5061 20.1961 12.3123 19.8944 13.0454C19.5928 13.7785 19.0802 14.4055 18.4215 14.8467C17.7629 15.2879 16.9881 15.5234 16.1953 15.5234C15.4026 15.5234 14.6277 15.2879 13.9691 14.8467C13.3105 14.4055 12.7978 13.7785 12.4962 13.0454C12.1946 12.3123 12.1176 11.5061 12.275 10.7291C12.4324 9.95219 12.8171 9.23954 13.3803 8.68165C14.1293 7.93968 15.141 7.52344 16.1953 7.52344C17.2496 7.52344 18.2613 7.93968 19.0103 8.68165Z" fill="#AFC161"/>
<path d="M9.90719 31.815C10.667 32.5761 11.1842 33.5455 11.3934 34.6005C11.6025 35.6555 11.4942 36.7488 11.0822 37.7423C10.6702 38.7358 9.97291 39.5848 9.07851 40.1821C8.18411 40.7795 7.13271 41.0983 6.05718 41.0983C4.98165 41.0983 3.93028 40.7795 3.03588 40.1821C2.14148 39.5848 1.4442 38.7358 1.03219 37.7423C0.620168 36.7488 0.511891 35.6555 0.721029 34.6005C0.930167 33.5455 1.44735 32.5761 2.2072 31.815C3.23026 30.7976 4.61438 30.2266 6.05718 30.2266C7.49998 30.2266 8.88413 30.7976 9.90719 31.815Z" fill="#98AD48"/>
<path d="M5.17064 32.6626C5.45294 32.9412 5.64601 33.2975 5.72529 33.6862C5.80457 34.0749 5.76646 34.4783 5.61586 34.8453C5.46525 35.2123 5.20893 35.5262 4.87947 35.7471C4.55001 35.968 4.16231 36.0859 3.76564 36.0859C3.36897 36.0859 2.98127 35.968 2.65181 35.7471C2.32235 35.5262 2.06599 35.2123 1.91539 34.8453C1.76478 34.4783 1.7267 34.0749 1.80598 33.6862C1.88526 33.2975 2.07834 32.9412 2.36064 32.6626C2.73494 32.2931 3.2397 32.0859 3.76564 32.0859C4.29157 32.0859 4.79634 32.2931 5.17064 32.6626Z" fill="#AFC161"/>
</svg>
