<svg width="60" height="40" viewBox="0 0 60 40" fill="none" xmlns="http://www.w3.org/2000/svg">
<path d="M29.7656 34.3675V39.5975L59.3456 22.4075V17.1875L29.7656 34.3675Z" fill="#478479"/>
<path d="M29.76 34.3675V39.5975L0 22.4175V17.1875L29.76 34.3675Z" fill="#71AFA3"/>
<path d="M59.34 17.18L29.76 34.37L0 17.19L29.58 0L59.34 17.18Z" fill="#529386"/>
<path opacity="0.5" d="M50.7769 17.6778C50.7987 17.1385 50.6326 16.6083 50.3069 16.1778C49.7169 14.3778 48.6569 11.5678 47.5969 10.8978C46.5369 10.2278 42.6569 13.8978 41.3669 13.4678C38.7669 12.5678 36.0869 4.96785 33.4769 4.06785C31.4769 3.38785 25.1969 4.06785 25.1969 4.06785C25.1969 4.06785 24.9669 7.32783 26.7869 8.26783C29.3069 9.56783 33.5469 16.9378 36.2769 17.7278C37.5669 18.0978 45.2069 13.8178 46.0269 15.0778C47.2769 16.9878 43.7969 20.1578 43.7969 20.1578V20.3278C48.8669 20.1278 50.6169 18.9878 50.7969 17.7178C50.7887 17.7053 50.782 17.6919 50.7769 17.6778Z" fill="#C5E0D9"/>
<path d="M25.1953 4.06785C25.1953 4.06785 31.5253 3.38785 33.4753 4.06785C36.0853 4.96785 38.7653 12.5678 41.3653 13.4678C42.6553 13.9278 46.4453 10.1578 47.5953 10.8978C49.1853 11.8978 50.7853 17.7278 50.7853 17.7278C50.7853 17.7278 48.2853 12.9078 46.6953 12.3178C45.4153 11.8378 42.6953 13.8478 41.3653 13.4678C38.6353 12.6778 35.7953 6.78784 33.2653 5.46784C31.4253 4.54784 25.1953 4.06785 25.1953 4.06785Z" fill="#C5E0D9"/>
<path d="M23.4219 10.43C23.4219 10.43 28.4219 10.94 29.0719 9.56C29.3719 8.9 27.9119 7 27.9119 7C27.9119 7 29.9719 9.62 30.9919 9.91C32.0119 10.2 34.7219 9.14999 34.7219 9.14999C34.7219 9.14999 31.1919 11.27 29.8719 11.24C29.336 11.28 28.7978 11.28 28.2619 11.24C27.0619 10.96 23.4219 10.43 23.4219 10.43Z" fill="#C5E0D9"/>
<path d="M36.2222 15.4337C35.0622 15.3537 33.3622 16.4937 32.2222 16.5137C30.9548 16.3645 29.7053 16.0898 28.4922 15.6937C29.7151 16.2991 31.0183 16.7268 32.3622 16.9637C33.5722 16.9637 35.0422 15.6237 36.2422 15.6737C37.2422 15.6737 38.9622 16.5137 38.9722 16.9637C38.9722 17.6337 34.9722 18.9637 34.9722 18.9637C34.9722 18.9637 39.4722 17.7137 39.5122 16.9637C39.5622 16.4737 37.4222 15.5037 36.2222 15.4337Z" fill="#C5E0D9"/>
<path d="M45.9609 17.0191C45.0909 17.1091 43.9009 18.4892 43.0309 18.5692C42.7817 18.5615 42.5353 18.5142 42.3009 18.4291L41.2109 18.0191C41.2109 18.0191 44.6809 20.7491 46.2109 20.6791C47.5309 20.6191 50.6009 18.2592 50.6009 18.2592C50.6009 18.2592 47.1709 16.8691 45.9609 17.0191ZM46.0509 20.0191C45.2009 20.0191 43.3209 19.7691 43.4409 19.0791C43.5609 18.3891 45.1309 17.4492 45.9309 17.3792C46.7309 17.3092 49.4309 17.6591 49.5109 18.4391C49.5909 19.2191 47.0409 19.9491 46.0509 19.9891V20.0191Z" fill="#C5E0D9"/>
<path d="M31.6406 13.4244C31.6406 13.4244 34.3406 12.3744 35.0506 12.5544C35.7606 12.7344 37.1906 11.4844 37.1906 11.4844C37.1906 11.4844 35.9806 13.3344 35.1906 13.2244C34.0042 13.2123 32.8182 13.2791 31.6406 13.4244Z" fill="#C5E0D9"/>
<path opacity="0.5" d="M7.42388 17.8679C7.40356 17.4262 7.53795 16.9912 7.80389 16.6379C8.28389 15.1679 9.15388 12.8779 10.0139 12.3379C10.8739 11.7979 14.0139 14.7979 15.0839 14.4379C17.2039 13.6979 19.3939 7.50788 21.5139 6.76788C23.1139 6.21788 28.2639 6.76788 28.2639 6.76788C28.2639 6.76788 28.4639 9.4279 26.9739 10.1879C24.9139 11.2479 21.4639 17.2579 19.2339 17.8979C18.2339 18.2079 11.9639 14.7179 11.2939 15.7479C10.2939 17.2979 13.1139 19.8879 13.1139 19.8879V20.0279C8.97389 19.8579 7.55388 18.9279 7.43388 17.8879L7.42388 17.8679Z" fill="#C5E0D9"/>
<path d="M28.2172 6.77569C28.2172 6.77569 23.0672 6.22569 21.4672 6.77569C19.3472 7.51569 17.1572 13.7057 15.0372 14.4457C13.9872 14.8057 10.9072 11.7457 9.96718 12.3457C8.66718 13.1657 7.36719 17.9057 7.36719 17.9057C7.36719 17.9057 9.36719 13.9757 10.6972 13.4957C11.6972 13.1157 13.9772 14.7557 15.0372 14.4457C17.2672 13.7957 19.5872 8.9957 21.6472 7.9357C23.1272 7.1657 28.2172 6.77569 28.2172 6.77569Z" fill="#C5E0D9"/>
<path d="M29.67 11.9641C29.67 11.9641 25.58 12.3741 25.07 11.2441C24.82 10.7141 26.02 9.16406 26.02 9.16406C26.02 9.16406 24.33 11.2941 23.5 11.5341C22.67 11.7741 20.5 10.9141 20.5 10.9141C20.5 10.9141 23.38 12.6441 24.5 12.6141C24.9358 12.654 25.3742 12.654 25.81 12.6141C26.69 12.3941 29.67 11.9641 29.67 11.9641Z" fill="#C5E0D9"/>
<path d="M19.2326 16.0506C20.1726 15.9806 21.5526 16.9106 22.5026 16.9206C23.5219 16.8002 24.5268 16.5792 25.5026 16.2607C24.5053 16.7416 23.4446 17.0783 22.3525 17.2607C21.3525 17.2607 20.1726 16.1706 19.1926 16.2106C18.3926 16.2106 16.9725 16.9007 16.9625 17.2607C16.9625 17.8107 20.1926 18.9206 20.1926 18.9206C20.1926 18.9206 16.5226 17.9206 16.4926 17.3106C16.4626 16.7006 18.2526 16.1106 19.2326 16.0506Z" fill="#C5E0D9"/>
<path d="M7.52344 18.3494C7.52344 18.3494 10.0234 20.2694 11.1034 20.3494C12.1834 20.4294 15.1634 18.1794 15.1634 18.1794L14.2734 18.5194C14.0823 18.5812 13.884 18.6182 13.6834 18.6294C12.9734 18.5594 12.0034 17.4394 11.2934 17.3594C9.99657 17.5111 8.7275 17.8443 7.52344 18.3494ZM8.40343 18.4694C8.46343 17.8394 10.5434 17.5394 11.3134 17.6094C12.0834 17.6794 13.2534 18.4594 13.3134 18.9894C13.3734 19.5194 11.8834 19.7794 11.1934 19.7594C10.5034 19.7394 8.33343 19.1294 8.42343 18.4694H8.40343Z" fill="#C5E0D9"/>
<path d="M22.9653 14.4081C22.0801 14.0315 21.1427 13.7921 20.1853 13.6981C19.6053 13.8381 18.4453 12.8281 18.4453 12.8281C18.4453 12.8281 19.4453 14.3281 20.0653 14.2481C21.0344 14.2372 22.0032 14.2907 22.9653 14.4081Z" fill="#C5E0D9"/>
<g opacity="0.5">
<path d="M35.8634 24.0496C34.6834 24.6196 31.4234 24.4896 30.1434 24.0496C29.0334 23.6596 28.2234 21.6696 27.1434 21.2896C25.9665 21.0095 24.7403 21.0095 23.5634 21.2896C22.7334 21.5696 22.1234 23.0496 21.2934 23.3396C19.7469 23.6647 18.1498 23.6647 16.6034 23.3396C14.7934 22.8596 10.0434 21.0296 10.7634 19.7596C11.2334 18.9196 16.7134 19.1396 15.6234 18.6596C12.6234 17.3596 10.1334 16.3596 10.0634 15.0196C9.99336 13.8696 14.1934 13.0896 15.7734 12.7996C17.1512 12.6246 18.5456 12.6246 19.9234 12.7996C20.3834 12.8796 21.1434 13.4796 21.6234 13.4396C23.4034 13.2796 25.2734 10.4996 26.9434 10.0396C30.0206 9.43471 33.1861 9.43471 36.2634 10.0396C38.1334 10.5796 40.3734 13.1996 42.0234 14.0396C44.0234 15.0396 50.4934 15.2896 50.8034 17.0396C51.1134 18.7896 46.0434 20.5696 43.9434 21.1096C42.4334 21.4996 38.8534 20.4796 37.5234 21.1096C36.5534 21.4996 36.8034 23.5896 35.8634 24.0496ZM30.5934 23.3896C32.1088 23.8048 33.708 23.8048 35.2234 23.3896C36.0234 22.9996 37.5234 21.0896 36.6234 20.8296C29.9334 18.9496 30.5034 16.0196 30.1334 17.4296C29.4634 19.9596 27.7234 19.9596 27.8834 20.9196C28.0134 21.6996 29.6034 23.0496 30.5934 23.3896ZM16.9234 22.6796C18.206 22.9497 19.5308 22.9497 20.8134 22.6796C21.4634 22.4596 22.7534 21.5696 22.5934 21.0796C22.2434 19.9796 18.5034 19.1396 16.9134 19.0796C15.7834 19.0196 12.8134 19.2696 12.5834 20.0796C12.2934 21.0196 15.5734 22.3296 16.9234 22.6796ZM23.4134 20.6296C24.6104 20.8798 25.8463 20.8798 27.0434 20.6296C28.1534 20.1296 29.9434 18.0296 29.2334 17.2496C28.2334 16.1096 23.3934 16.8696 21.5534 17.2496C20.5534 17.4496 17.2134 18.6196 18.1834 18.7696C21.1134 19.2096 21.9934 20.3996 23.4234 20.6296H23.4134ZM37.3334 20.3896C39.3974 20.7545 41.5094 20.7545 43.5734 20.3896C45.2634 19.9596 49.3034 18.3896 49.0734 17.1196C48.8034 15.6796 43.6334 14.9396 41.6134 14.6096C39.6684 14.3546 37.6984 14.3546 35.7534 14.6096C34.3534 14.9096 30.2034 15.9696 30.8634 16.8896C32.4234 19.0496 35.5634 19.9796 37.3334 20.3896ZM11.6034 15.1596C11.3834 16.4096 15.0734 18.4796 16.8534 18.5896C18.1634 18.6696 20.0134 16.8496 21.2834 16.5896C23.5428 16.3337 25.8239 16.3337 28.0834 16.5896C30.4434 16.7896 21.9734 13.8596 19.6634 13.4596C18.4419 13.2996 17.2048 13.2996 15.9834 13.4596C14.7734 13.6796 11.7534 14.2796 11.6034 15.1596ZM35.4734 13.9596C36.6934 13.6996 38.0334 14.1396 40.5834 13.9596C42.2234 13.8396 37.3834 11.1396 35.8534 10.6996C33.0208 10.1396 30.106 10.1396 27.2734 10.6996C25.7934 11.0996 22.1034 13.1796 23.3734 13.8396C31.1934 17.8696 33.8934 14.2896 35.4734 13.9596Z" fill="#C5E0D9"/>
</g>
<g opacity="0.5">
<path d="M34.7266 28.7408L35.4666 28.4608C35.4666 27.8908 36.5666 27.8208 37.0066 26.1708C37.0066 26.1708 37.0066 26.1708 37.0066 26.1208C36.9462 26.0018 36.876 25.8881 36.7966 25.7808C36.4809 25.7438 36.1695 25.6768 35.8666 25.5808C35.7747 25.6036 35.6785 25.6036 35.5866 25.5808C34.0485 25.4002 32.4946 25.4002 30.9566 25.5808C30.0966 25.7608 28.8366 27.0008 27.9566 26.9408H27.7566C27.578 27.0287 27.3848 27.0829 27.1866 27.1008C27.0966 27.3108 24.0666 27.2408 23.7766 27.7608C23.2866 28.6208 26.5266 29.8708 27.7766 30.1908C28.8314 30.4158 29.9218 30.4158 30.9766 30.1908C31.5366 30.0008 31.9766 28.9908 32.5266 28.8008C33.2482 28.6314 33.9968 28.611 34.7266 28.7408ZM30.6466 29.7408C29.7724 29.9208 28.8708 29.9208 27.9966 29.7408C27.0766 29.5008 24.8466 28.6108 25.0466 27.9308C25.2466 27.2508 27.2266 27.2208 27.9966 27.2608C29.0766 27.3208 31.6266 27.9008 31.8666 28.6408C31.9666 28.9908 31.0866 29.5908 30.6466 29.7508V29.7408ZM32.4266 28.3408C31.4266 28.1808 30.8566 27.3408 28.8566 27.0708C28.1966 26.9708 30.4966 26.1708 31.1566 26.0708C32.4066 25.8008 35.6766 25.2908 36.3866 26.0708C36.8766 26.5908 35.6566 28.0708 34.8966 28.3708C34.0808 28.5355 33.2396 28.5287 32.4266 28.3508V28.3408Z" fill="#C5E0D9"/>
</g>
<path opacity="0.5" d="M29.7656 34.3647V39.5947L59.3456 22.4047L54.8356 19.8047L29.7656 34.3647Z" fill="#529386"/>
<path d="M0 17.1875V22.4175L4.52 19.7875L0 17.1875Z" fill="#8ECEC2"/>
</svg>
