<?xml version="1.0" encoding="UTF-8"?>
<svg version="1.1" viewBox="0 0 2048 2048" width="512" height="512" xmlns="http://www.w3.org/2000/svg">
<path transform="translate(693)" d="m0 0h56l31 6 21 6 25 10 19 10 15 10 13 10 14 12 13 13 9 11 11 15 10 16 9 17 9 23 3 8v3l105 1 14 4 12 7 12 11 7 10 5 11 3 13 1 28 118 1 23 2 24 5 23 7 25 11 21 12 16 12 11 9 13 12 11 12 13 17 9 14 10 18 9 21 7 22 5 23 2 17 1 254-4 2-52 4-39 5-34 6-34 8-26 7-35 11-27 10-29 12-36 17-28 15-27 16-36 24-18 13-13 10-16 13-11 9-15 14-8 7-13 13-6 5-2 3h-2l-2 4-14 14-1 2h-2l-2 4-13 14-8 10-13 16-12 16-13 18-10 15-13 20-12 20-9 16-12 22-13 28-8 18-13 34-12 36-10 37-8 36-6 36-3 23-3 32-2 48v17l1 30 3 37 5 38 7 38 9 38 9 31 13 38 13 32 9 20 1 5-3 1h-569l-20-1-26-5-23-7-19-8-16-8-15-9-19-14-13-12-17-17-11-14-9-13-10-17-10-21-8-24-8-32v-1133l9-35 7-20 12-25 11-18 12-16 9-10 7-8 9-9 11-9 17-13 19-11 16-8 20-8 21-6 20-4 11-1h129v-24l2-13 4-11 5-9 9-10 7-7 10-6 10-4 9-2 48-1h55l3-11 6-16 8-16 6-11 7-11 12-16 9-11 4-5 8-7 9-9 17-13 15-10 22-12 22-9 28-8zm153 1045v1h10v-1z" fill="#1D88DD"/>
<path transform="translate(1434,896)" d="m0 0h60l30 2 35 4 33 6 26 6 34 10 30 11 26 11 25 12 21 11 25 15 12 8 19 13 18 14 11 9 13 11 12 11 4 3v2l4 2 16 16 7 8 13 14 9 11 12 15 14 19 12 18 12 19 14 25 16 32 12 29 7 19 10 31 9 36 6 32 5 37 2 18v69l-5 43-6 36-5 24-10 36-11 32-12 29-16 33-12 22-12 20-10 15-10 14-9 12-11 14-11 13-7 8-9 10-10 10-3 4h-2l-1 3-8 7-7 7-8 7-15 13-14 11-19 14-24 16-20 12-16 9-27 14-32 14-30 11-33 10-34 8-41 7-40 5h-85l-32-5-35-6-30-7-31-9-26-9-27-11-28-13-28-15-20-12-21-14-18-13-18-14-14-12-8-7-13-12-27-27-7-8-13-15-11-14-10-13-12-17-11-17-9-15-12-21-14-28-12-28-10-27-8-25-8-30-7-35-4-28-3-30v-79l2-21 4-30 5-27 7-30 9-30 10-29 12-28 12-25 12-23 13-22 8-12 11-16 14-19 13-16 9-11 14-15 16-17 16-15 12-11 11-9 16-13 18-13 24-16 20-12 18-10 21-11 20-9 27-11 36-12 25-7 38-8 16-3 33-4z" fill="#54B058"/>
<path transform="translate(1434,896)" d="m0 0h44l3 2h-5l-2 6h-1l-1 14v143l-1 76 1 9 3 2 13 1 3 3-7 1-13-1-14 1-17 5-15 8-12 9-10 11-9 16-5 15-2 14-1 127-1 28-156 1-16 3-15 6-14 9-12 11-7 10-8 16-4 16-1 17 2 16 5 15 7 13 7 9 11 11 13 8 14 6 13 3 13 1 149 1 1 154 2 14 4 13 6 12 8 11 11 11 14 9 20 8 9 2 18 1v1l-7 1v252l-1 1h-48l-32-5-35-6-30-7-31-9-26-9-27-11-28-13-28-15-20-12-21-14-18-13-18-14-14-12-8-7-13-12-27-27-7-8-13-15-11-14-10-13-12-17-11-17-9-15-12-21-14-28-12-28-10-27-8-25-8-30-7-35-4-28-3-30v-79l2-21 4-30 5-27 7-30 9-30 10-29 12-28 12-25 12-23 13-22 8-12 11-16 14-19 13-16 9-11 14-15 16-17 16-15 12-11 11-9 16-13 18-13 24-16 20-12 18-10 21-11 20-9 27-11 36-12 25-7 38-8 16-3 33-4z" fill="#48984E"/>
<path transform="translate(693)" d="m0 0h56l31 6 21 6 25 10 19 10 15 10 13 10 14 12 13 13 9 11 11 15 10 16 9 17 9 23 3 8v3l105 1 14 4 12 7 12 11 7 10 5 11 3 13v27l-4 5-1 11 1 7v25l3 20v78l-1 24-2 15-5 17-10 21-10 15-8 10-5 6h-2l-2 4h-2v2l-14 11-10 7-11 6-14 7-19 6-15 2-48 1h-446l-20-2-16-4-17-6-17-9-12-8-11-9-11-11-12-16-8-12-10-22-5-20-3-29-1-22v-115l1-12h-123v-1h121v-24l2-13 4-11 5-9 9-10 7-7 10-6 10-4 9-2 48-1h55l3-11 6-16 8-16 6-11 7-11 12-16 9-11 4-5 8-7 9-9 17-13 15-10 22-12 22-9 28-8z" fill="#1979D4"/>
<path transform="translate(1471,1151)" d="m0 0 13 1 19 5 16 8 11 9 9 9 9 14 6 14 3 14 1 17v144h153l18 3 12 4 13 7 11 9 9 9 9 14 6 15 3 13v23l-5 19-8 16-8 10-11 11-14 9-15 6-14 3-65 1h-94v149l-2 17-5 16-7 13-7 9-12 12-11 7-13 6-18 5-6 1h-16l-15-4-16-7-13-9-13-13-8-12-6-14-3-13-1-9v-154h-149l-18-2-13-4-16-8-9-7-12-12-8-13-5-11-4-15-1-17 2-16 5-16 8-14 8-10 11-10 15-9 13-5 16-3h156v-28l1-127 2-14 5-15 9-16 12-13 14-10 15-7 14-4z" fill="#FDFDFD"/>
<path transform="translate(693)" d="m0 0h23v30l1 24v99l-1 115-1 231-1 38-1 14h10l-2 2-6 1h-231l-20-2-16-4-17-6-17-9-12-8-11-9-11-11-12-16-8-12-10-22-5-20-3-29-1-22v-115l1-12h-123v-1h121v-24l2-13 4-11 5-9 9-10 7-7 10-6 10-4 9-2 48-1h55l3-11 6-16 8-16 6-11 7-11 12-16 9-11 4-5 8-7 9-9 17-13 15-10 22-12 22-9 28-8z" fill="#1469B9"/>
<path transform="translate(714,767)" d="m0 0h419l15 2 16 7 9 6 3 3v2l-24 11-23 11-46 26-33 22-19 13-10 8-13 10-11 9-688-1-9-2-14-7-9-7-8-8-8-13-4-11-1-5v-24l4-12 7-12 12-13 10-7 11-5 9-2z" fill="#DFDFDF"/>
<path transform="translate(1457,1152)" d="m0 0h14v640h6v1h-16l-15-4-16-7-13-9-13-13-8-12-6-14-3-13-1-9v-154h-149l-18-2-13-4-16-8-9-7-12-12-8-13-5-11-4-15-1-17 2-16 5-16 8-14 8-10 11-10 15-9 13-5 16-3h156v-28l1-127 2-14 5-15 9-16 12-13 14-10 15-7z" fill="#DFDFDF"/>
<path transform="translate(326,1044)" d="m0 0h535l-7 11-17 26-12 20-9 16-12 22-13 28-4 8h-34l-162-1h-273l-15-2-12-5-11-7-7-6-9-12-6-13-2-8v-25l5-14 7-11 10-11 10-7 13-6 10-2zm520 1v1h10v-1z" fill="#DFDFDF"/>
<path transform="translate(716,1321)" d="m0 0h25l-8 49-4 36-3 46h-406l-15-2-15-6-13-9-7-7-7-11-5-11-2-8v-24l4-12 6-11 12-13 11-8 10-5 8-2 15-1h328z" fill="#DFDFDF"/>
<path transform="translate(714,767)" d="m0 0h419l15 2 16 7 9 6 3 3v2l-24 11-23 11-46 26-33 22-19 13-10 8-13 10-9 7h-285z" fill="#FDFDFD"/>
<path transform="translate(716,1045)" d="m0 0h141l2 1-2 5-9 13-11 17-12 20-9 16-12 22-13 28-3 6-71-1-1-1-1-32v-93z" fill="#FEFEFE"/>
<path transform="translate(716,1323)" d="m0 0h24l-1 11-6 36-4 36-3 46h-3v-2h-7l-1-123z" fill="#FDFDFD"/>
<path transform="translate(711,1766)" d="m0 0 2 4 1 1v15l2 3 8 1v1h-158v-1l36-1 19-1 21-1 4-1 13-1 1-1-3-1-25-1-9-2h-14l-8-1v-1l8-1 14-1 7-1h20l1 1h8l10-2h11l10-2 8-1 9 1 1-4 2 2z" fill="#1877D2"/>
<path transform="translate(345,896)" d="m0 0h369v3l-28-1h-371v-1z" fill="#1979D4"/>
<path transform="translate(1050,171)" d="m0 0 11 1 13 5 13 9 8 8 7 11 5 12 2 10v23l-2-1-4-8v-10l-4-15-6-11-9-12-12-8-10-8-9-2z" fill="#1E89DD"/>
<path transform="translate(348,1173)" d="m0 0h91l88 1v1l-10 1-110 1-89-1-6-1v-1z" fill="#1A7DD7"/>
<path transform="translate(709,761)" d="m0 0 4 1 1 6h-221v-1l152-1 3-1 57-2z" fill="#1773C8"/>
<path transform="translate(157,1763)" d="m0 0 10 2 17 5 12 2 10 1 8 1h15l5 1h17l13 1-2 2h-12l-12-1-7 1v1h-35l-11-2 1-2-6-2-5-1v-2l-3 1v-2l-6-1-9-4z" fill="#1979D4"/>
<path transform="translate(1559,1306)" d="m0 0h1l2 24 2 12 1 20-2 12v3 6l-1 2h-4z" fill="#48984E"/>
<path transform="translate(294,1323)" d="m0 0 6 1-3 3-10 5-10 8-10 11-5 9h-3l-1-5 6-8 2-4 7-5 5-3 3-3 3-2 2-3 5-2z" fill="#197BD5"/>
<path transform="translate(296,1045)" d="m0 0h9v2l-11 4-12 7-10 9-9 13-3 7h-2v-6h2l3-9 3-5 7-5h2v-2h2l2-4 3-1v-2h2v-2l4-2 2-2z" fill="#197CD6"/>
<path transform="translate(293,767)" d="m0 0 12 1-1 2-11 4-10 6h-2v-5h2l3-3h2v-2z" fill="#197BD5"/>
<path transform="translate(693,1313)" d="m0 0h4v2h3l1 4-2 1h-11l-4-1v-4z" fill="#1979D4"/>
<path transform="translate(1904,1096)" d="m0 0 6 2 8 9 5 7v2l-4-1-7-8v-2l-4-2-1-4-3-1z" fill="#4E9D54"/>
<path transform="translate(268,789)" d="m0 0 3 1-2 4-7 11-3 1 1-6 2-7 3-2h3z" fill="#197BD5"/>
<path transform="translate(294,1323)" d="m0 0 6 1-3 3-10 5-7 5-1-4 5-3 2-3 5-2z" fill="#1A7DD6"/>
<path transform="translate(1156,1495)" d="m0 0 2 4 2 5 2 1v4h2l2 4v3h2l2 6h-3l-8-14-3-7z" fill="#F5F5F5"/>
<path transform="translate(257,853)" d="m0 0 3 1 6 12 7 9 6 6-1 2-6-5v-2l-4-2-4-4-4-10-2-2z" fill="#1A7ED7"/>
<path transform="translate(689,896)" d="m0 0h25v3l-25-1z" fill="#1A7ED6"/>
<path transform="translate(340,232)" d="m0 0 3 2h-2l4 6-2 6h-2v9h-1z" fill="#1A80D8"/>
<path transform="translate(1924,1120)" d="m0 0 5 1 7 10v2h-2v-2h-2v-2l-4-2-1-4-3-1z" fill="#4D9C52"/>
<path transform="translate(258,1133)" d="m0 0 3 1 6 11-1 2-6-5z" fill="#1A7DD6"/>
<path transform="translate(1524,1168)" d="m0 0h2v2l4 1 4 4v2l3 1 1 4-14-12z" fill="#499A4E"/>
<path transform="translate(1895,1083)" d="m0 0 4 2 4 5v2l-5-1v-3l-4-2z" fill="#4E9D53"/>
<path transform="translate(1936,1135)" d="m0 0 5 2 4 6v2l-5-2-1-4-3-1z" fill="#4F9F54"/>
<path transform="translate(1483,1149)" d="m0 0h5l3 3-7 1-7-1v-1z" fill="#4B9E50"/>
<path transform="translate(258,1408)" d="m0 0h2l3 7-1 4-4-5z" fill="#1A7ED7"/>
<path transform="translate(940,141)" d="m0 0 2 2 3 10-4-1-1-8z" fill="#238BDD"/>
<path transform="translate(266,1424)" d="m0 0 4 2 7 8-1 2-5-5-3-2z" fill="#1A7FD8"/>
</svg>
