<svg xmlns="http://www.w3.org/2000/svg" xmlns:v="https://svgstorm.com"
viewBox = "0 0 399 421"
width="399"
height="421">
<g fill="None" fill-opacity="0.0" stroke="#000000" stroke-opacity="0.00" stroke-width="0.3"><path d="
M 0.00 202.00 
C 8.35 198.64 16.54 195.54 25.22 193.22 C 33.91 190.90 43.36 188.22 52.02 186.02 C 60.69 183.83 69.89 180.12 78.08 177.08 C 86.26 174.03 93.58 170.40 100.75 165.75 C 107.91 161.09 113.97 156.30 119.75 149.75 C 125.54 143.20 129.51 137.37 133.77 129.77 C 138.03 122.17 141.16 113.25 143.98 104.98 C 146.79 96.70 150.02 87.52 151.93 78.93 C 153.83 70.34 158.30 60.14 159.78 51.78 C 161.25 43.41 166.77 30.59 171.32 40.68 C 175.87 50.77 176.89 57.52 179.93 67.07 C 182.96 76.63 184.52 84.88 186.99 94.01 C 189.46 103.13 193.34 111.01 196.75 119.25 C 200.17 127.48 203.45 134.26 208.75 141.25 C 214.06 148.23 218.60 154.01 225.70 159.30 C 232.79 164.60 237.99 169.07 246.23 172.77 C 254.47 176.48 262.15 180.15 271.22 182.78 C 280.30 185.41 288.14 187.49 298.02 189.98 C 307.91 192.47 313.76 195.83 325.07 197.93 C 336.38 200.02 337.33 208.53 325.77 210.77 C 314.22 213.01 308.75 216.30 298.78 218.78 C 288.80 221.25 281.01 223.24 271.98 225.98 C 262.94 228.71 254.89 232.03 246.92 235.92 C 238.95 239.81 232.52 243.03 225.77 248.77 C 219.02 254.51 214.22 260.12 209.08 267.08 C 203.94 274.04 200.10 280.43 196.68 288.68 C 193.26 296.92 189.97 305.22 187.23 314.23 C 184.48 323.24 183.28 331.44 180.07 341.07 C 176.87 350.70 176.24 357.10 171.69 367.69 C 167.15 378.29 161.81 366.66 160.02 357.98 C 158.24 349.29 153.91 339.71 152.07 330.93 C 150.24 322.14 146.68 313.22 144.22 304.78 C 141.76 296.34 138.14 287.55 134.08 279.92 C 130.01 272.30 126.07 266.11 120.25 259.75 C 114.43 253.39 108.80 248.01 101.75 243.25 C 94.70 238.49 87.31 235.15 79.32 231.68 C 71.33 228.21 61.67 225.27 52.98 223.02 C 44.28 220.78 35.57 217.58 26.78 215.22 C 17.98 212.86 8.20 211.03 0.00 207.00
L 0.00 421.00
L 330.00 421.00
C 324.83 405.57 323.69 387.05 311.25 374.75 C 298.81 362.46 280.23 362.35 265.00 356.00
C 272.60 348.53 286.78 348.83 297.07 344.07 C 307.37 339.31 315.58 332.65 319.97 321.97 C 324.36 311.29 327.13 299.01 331.00 288.00
C 341.00 300.67 338.70 321.80 351.75 334.25 C 364.80 346.70 383.01 348.06 399.00 354.00
L 399.00 0.00
L 337.00 0.00
C 339.81 10.64 341.55 22.97 349.75 31.25 C 357.96 39.53 370.01 41.13 381.00 44.00
C 374.70 52.44 359.34 49.95 350.75 58.75 C 342.17 67.56 339.69 79.52 337.00 91.00
C 330.38 88.06 331.61 76.35 328.03 69.97 C 324.44 63.60 321.06 57.28 313.77 54.23 C 306.48 51.18 297.74 49.05 290.00 47.00
C 296.36 38.82 311.70 41.13 320.25 32.25 C 328.79 23.36 331.46 11.59 334.00 0.00
L 0.00 0.00
L 0.00 202.00 Z"/>
</g>
<g fill="None" fill-opacity="0.0" stroke="#E5B03A" stroke-opacity="0.97" stroke-width="0.3"><path d="
M 337.00 0.00 
L 334.00 0.00
C 331.46 11.59 328.79 23.36 320.25 32.25 C 311.70 41.13 296.36 38.82 290.00 47.00
C 297.74 49.05 306.48 51.18 313.77 54.23 C 321.06 57.28 324.44 63.60 328.03 69.97 C 331.61 76.35 330.38 88.06 337.00 91.00
C 339.69 79.52 342.17 67.56 350.75 58.75 C 359.34 49.95 374.70 52.44 381.00 44.00
C 370.01 41.13 357.96 39.53 349.75 31.25 C 341.55 22.97 339.81 10.64 337.00 0.00 Z"/>
</g>
<g fill="None" fill-opacity="0.0" stroke="#E5AF3A" stroke-opacity="0.99" stroke-width="0.3"><path d="
M 0.00 202.00 
L 0.00 207.00
C 8.20 211.03 17.98 212.86 26.78 215.22 C 35.57 217.58 44.28 220.78 52.98 223.02 C 61.67 225.27 71.33 228.21 79.32 231.68 C 87.31 235.15 94.70 238.49 101.75 243.25 C 108.80 248.01 114.43 253.39 120.25 259.75 C 126.07 266.11 130.01 272.30 134.08 279.92 C 138.14 287.55 141.76 296.34 144.22 304.78 C 146.68 313.22 150.24 322.14 152.07 330.93 C 153.91 339.71 158.24 349.29 160.02 357.98 C 161.81 366.66 167.15 378.29 171.69 367.69 C 176.24 357.10 176.87 350.70 180.07 341.07 C 183.28 331.44 184.48 323.24 187.23 314.23 C 189.97 305.22 193.26 296.92 196.68 288.68 C 200.10 280.43 203.94 274.04 209.08 267.08 C 214.22 260.12 219.02 254.51 225.77 248.77 C 232.52 243.03 238.95 239.81 246.92 235.92 C 254.89 232.03 262.94 228.71 271.98 225.98 C 281.01 223.24 288.80 221.25 298.78 218.78 C 308.75 216.30 314.22 213.01 325.77 210.77 C 337.33 208.53 336.38 200.02 325.07 197.93 C 313.76 195.83 307.91 192.47 298.02 189.98 C 288.14 187.49 280.30 185.41 271.22 182.78 C 262.15 180.15 254.47 176.48 246.23 172.77 C 237.99 169.07 232.79 164.60 225.70 159.30 C 218.60 154.01 214.06 148.23 208.75 141.25 C 203.45 134.26 200.17 127.48 196.75 119.25 C 193.34 111.01 189.46 103.13 186.99 94.01 C 184.52 84.88 182.96 76.63 179.93 67.07 C 176.89 57.52 175.87 50.77 171.32 40.68 C 166.77 30.59 161.25 43.41 159.78 51.78 C 158.30 60.14 153.83 70.34 151.93 78.93 C 150.02 87.52 146.79 96.70 143.98 104.98 C 141.16 113.25 138.03 122.17 133.77 129.77 C 129.51 137.37 125.54 143.20 119.75 149.75 C 113.97 156.30 107.91 161.09 100.75 165.75 C 93.58 170.40 86.26 174.03 78.08 177.08 C 69.89 180.12 60.69 183.83 52.02 186.02 C 43.36 188.22 33.91 190.90 25.22 193.22 C 16.54 195.54 8.35 198.64 0.00 202.00 Z"/>
</g>
<g fill="None" fill-opacity="0.0" stroke="#E6B03B" stroke-opacity="0.98" stroke-width="0.3"><path d="
M 330.00 421.00 
L 333.00 421.00
C 339.74 406.03 339.42 387.31 352.25 375.25 C 365.08 363.18 383.39 361.89 399.00 356.00
L 399.00 354.00
C 383.01 348.06 364.80 346.70 351.75 334.25 C 338.70 321.80 341.00 300.67 331.00 288.00
C 327.13 299.01 324.36 311.29 319.97 321.97 C 315.58 332.65 307.37 339.31 297.07 344.07 C 286.78 348.83 272.60 348.53 265.00 356.00
C 280.23 362.35 298.81 362.46 311.25 374.75 C 323.69 387.05 324.83 405.57 330.00 421.00 Z"/>
</g>
<g fill="None" fill-opacity="0.0" stroke="#000000" stroke-opacity="0.00" stroke-width="0.3"><path d="
M 333.00 421.00 
L 399.00 421.00
L 399.00 356.00
C 383.39 361.89 365.08 363.18 352.25 375.25 C 339.42 387.31 339.74 406.03 333.00 421.00 Z"/>
</g>
<g fill="#000000" fill-opacity="0.00" stroke="None">
<path d="
M 0.00 202.00 
C 8.35 198.64 16.54 195.54 25.22 193.22 C 33.91 190.90 43.36 188.22 52.02 186.02 C 60.69 183.83 69.89 180.12 78.08 177.08 C 86.26 174.03 93.58 170.40 100.75 165.75 C 107.91 161.09 113.97 156.30 119.75 149.75 C 125.54 143.20 129.51 137.37 133.77 129.77 C 138.03 122.17 141.16 113.25 143.98 104.98 C 146.79 96.70 150.02 87.52 151.93 78.93 C 153.83 70.34 158.30 60.14 159.78 51.78 C 161.25 43.41 166.77 30.59 171.32 40.68 C 175.87 50.77 176.89 57.52 179.93 67.07 C 182.96 76.63 184.52 84.88 186.99 94.01 C 189.46 103.13 193.34 111.01 196.75 119.25 C 200.17 127.48 203.45 134.26 208.75 141.25 C 214.06 148.23 218.60 154.01 225.70 159.30 C 232.79 164.60 237.99 169.07 246.23 172.77 C 254.47 176.48 262.15 180.15 271.22 182.78 C 280.30 185.41 288.14 187.49 298.02 189.98 C 307.91 192.47 313.76 195.83 325.07 197.93 C 336.38 200.02 337.33 208.53 325.77 210.77 C 314.22 213.01 308.75 216.30 298.78 218.78 C 288.80 221.25 281.01 223.24 271.98 225.98 C 262.94 228.71 254.89 232.03 246.92 235.92 C 238.95 239.81 232.52 243.03 225.77 248.77 C 219.02 254.51 214.22 260.12 209.08 267.08 C 203.94 274.04 200.10 280.43 196.68 288.68 C 193.26 296.92 189.97 305.22 187.23 314.23 C 184.48 323.24 183.28 331.44 180.07 341.07 C 176.87 350.70 176.24 357.10 171.69 367.69 C 167.15 378.29 161.81 366.66 160.02 357.98 C 158.24 349.29 153.91 339.71 152.07 330.93 C 150.24 322.14 146.68 313.22 144.22 304.78 C 141.76 296.34 138.14 287.55 134.08 279.92 C 130.01 272.30 126.07 266.11 120.25 259.75 C 114.43 253.39 108.80 248.01 101.75 243.25 C 94.70 238.49 87.31 235.15 79.32 231.68 C 71.33 228.21 61.67 225.27 52.98 223.02 C 44.28 220.78 35.57 217.58 26.78 215.22 C 17.98 212.86 8.20 211.03 0.00 207.00
L 0.00 421.00
L 330.00 421.00
C 324.83 405.57 323.69 387.05 311.25 374.75 C 298.81 362.46 280.23 362.35 265.00 356.00
C 272.60 348.53 286.78 348.83 297.07 344.07 C 307.37 339.31 315.58 332.65 319.97 321.97 C 324.36 311.29 327.13 299.01 331.00 288.00
C 341.00 300.67 338.70 321.80 351.75 334.25 C 364.80 346.70 383.01 348.06 399.00 354.00
L 399.00 0.00
L 337.00 0.00
C 339.81 10.64 341.55 22.97 349.75 31.25 C 357.96 39.53 370.01 41.13 381.00 44.00
C 374.70 52.44 359.34 49.95 350.75 58.75 C 342.17 67.56 339.69 79.52 337.00 91.00
C 330.38 88.06 331.61 76.35 328.03 69.97 C 324.44 63.60 321.06 57.28 313.77 54.23 C 306.48 51.18 297.74 49.05 290.00 47.00
C 296.36 38.82 311.70 41.13 320.25 32.25 C 328.79 23.36 331.46 11.59 334.00 0.00
L 0.00 0.00
L 0.00 202.00 Z"/>
</g>
<g fill="#E5B03A" fill-opacity="0.97" stroke="None">
<path d="
M 337.00 0.00 
L 334.00 0.00
C 331.46 11.59 328.79 23.36 320.25 32.25 C 311.70 41.13 296.36 38.82 290.00 47.00
C 297.74 49.05 306.48 51.18 313.77 54.23 C 321.06 57.28 324.44 63.60 328.03 69.97 C 331.61 76.35 330.38 88.06 337.00 91.00
C 339.69 79.52 342.17 67.56 350.75 58.75 C 359.34 49.95 374.70 52.44 381.00 44.00
C 370.01 41.13 357.96 39.53 349.75 31.25 C 341.55 22.97 339.81 10.64 337.00 0.00 Z"/>
</g>
<g fill="#E5AF3A" fill-opacity="0.99" stroke="None">
<path d="
M 0.00 202.00 
L 0.00 207.00
C 8.20 211.03 17.98 212.86 26.78 215.22 C 35.57 217.58 44.28 220.78 52.98 223.02 C 61.67 225.27 71.33 228.21 79.32 231.68 C 87.31 235.15 94.70 238.49 101.75 243.25 C 108.80 248.01 114.43 253.39 120.25 259.75 C 126.07 266.11 130.01 272.30 134.08 279.92 C 138.14 287.55 141.76 296.34 144.22 304.78 C 146.68 313.22 150.24 322.14 152.07 330.93 C 153.91 339.71 158.24 349.29 160.02 357.98 C 161.81 366.66 167.15 378.29 171.69 367.69 C 176.24 357.10 176.87 350.70 180.07 341.07 C 183.28 331.44 184.48 323.24 187.23 314.23 C 189.97 305.22 193.26 296.92 196.68 288.68 C 200.10 280.43 203.94 274.04 209.08 267.08 C 214.22 260.12 219.02 254.51 225.77 248.77 C 232.52 243.03 238.95 239.81 246.92 235.92 C 254.89 232.03 262.94 228.71 271.98 225.98 C 281.01 223.24 288.80 221.25 298.78 218.78 C 308.75 216.30 314.22 213.01 325.77 210.77 C 337.33 208.53 336.38 200.02 325.07 197.93 C 313.76 195.83 307.91 192.47 298.02 189.98 C 288.14 187.49 280.30 185.41 271.22 182.78 C 262.15 180.15 254.47 176.48 246.23 172.77 C 237.99 169.07 232.79 164.60 225.70 159.30 C 218.60 154.01 214.06 148.23 208.75 141.25 C 203.45 134.26 200.17 127.48 196.75 119.25 C 193.34 111.01 189.46 103.13 186.99 94.01 C 184.52 84.88 182.96 76.63 179.93 67.07 C 176.89 57.52 175.87 50.77 171.32 40.68 C 166.77 30.59 161.25 43.41 159.78 51.78 C 158.30 60.14 153.83 70.34 151.93 78.93 C 150.02 87.52 146.79 96.70 143.98 104.98 C 141.16 113.25 138.03 122.17 133.77 129.77 C 129.51 137.37 125.54 143.20 119.75 149.75 C 113.97 156.30 107.91 161.09 100.75 165.75 C 93.58 170.40 86.26 174.03 78.08 177.08 C 69.89 180.12 60.69 183.83 52.02 186.02 C 43.36 188.22 33.91 190.90 25.22 193.22 C 16.54 195.54 8.35 198.64 0.00 202.00 Z"/>
</g>
<g fill="#E6B03B" fill-opacity="0.98" stroke="None">
<path d="
M 330.00 421.00 
L 333.00 421.00
C 339.74 406.03 339.42 387.31 352.25 375.25 C 365.08 363.18 383.39 361.89 399.00 356.00
L 399.00 354.00
C 383.01 348.06 364.80 346.70 351.75 334.25 C 338.70 321.80 341.00 300.67 331.00 288.00
C 327.13 299.01 324.36 311.29 319.97 321.97 C 315.58 332.65 307.37 339.31 297.07 344.07 C 286.78 348.83 272.60 348.53 265.00 356.00
C 280.23 362.35 298.81 362.46 311.25 374.75 C 323.69 387.05 324.83 405.57 330.00 421.00 Z"/>
</g>
<g fill="#000000" fill-opacity="0.00" stroke="None">
<path d="
M 333.00 421.00 
L 399.00 421.00
L 399.00 356.00
C 383.39 361.89 365.08 363.18 352.25 375.25 C 339.42 387.31 339.74 406.03 333.00 421.00 Z"/>
</g>
</svg>