<svg xmlns="http://www.w3.org/2000/svg" width="58" height="72" viewBox="0 0 58 72" fill="none">
<path d="M51.0177 66.0827H25.1035C22.1777 66.0827 19.8092 63.7686 19.8092 60.7314V6.35124C19.8092 3.31405 22.1777 1 25.1035 1H51.157C54.0828 1 56.4513 3.31405 56.4513 6.35124V60.7314C56.312 63.7686 53.9435 66.0827 51.0177 66.0827Z" stroke="white" stroke-width="1.5" stroke-miterlimit="10" stroke-linecap="round" stroke-linejoin="round"/>
<path d="M51.0177 66.0827H25.1035C22.1777 66.0827 19.8092 63.7686 19.8092 60.7314V6.35124C19.8092 3.31405 22.1777 1 25.1035 1H51.157C54.0828 1 56.4513 3.31405 56.4513 6.35124V60.7314C56.312 63.7686 53.9435 66.0827 51.0177 66.0827Z" stroke="url(#paint0_linear)" stroke-width="1.5" stroke-miterlimit="10" stroke-linecap="round" stroke-linejoin="round"/>
<path d="M51.0177 71H25.1035C22.1777 71 19.8092 68.5414 19.8092 65.6488V10.6901C19.8092 7.65292 22.1777 5.33887 25.1035 5.33887H51.157C54.0828 5.33887 56.4513 7.79755 56.4513 10.6901V65.6488C56.312 68.5414 53.9435 71 51.0177 71Z" stroke="white" stroke-width="1.5" stroke-miterlimit="10" stroke-linecap="round" stroke-linejoin="round"/>
<path d="M51.0177 71H25.1035C22.1777 71 19.8092 68.5414 19.8092 65.6488V10.6901C19.8092 7.65292 22.1777 5.33887 25.1035 5.33887H51.157C54.0828 5.33887 56.4513 7.79755 56.4513 10.6901V65.6488C56.312 68.5414 53.9435 71 51.0177 71Z" stroke="url(#paint1_linear)" stroke-width="1.5" stroke-miterlimit="10" stroke-linecap="round" stroke-linejoin="round"/>
<path d="M37.9208 23.562C30.676 23.562 24.8245 29.6364 24.8245 37.0124C24.8245 44.5331 30.676 50.4628 37.9208 50.4628C45.1657 50.4628 51.0172 44.3885 51.0172 37.0124C51.1566 29.781 45.305 23.562 37.9208 23.562ZM42.5185 35.8554L36.9456 45.2562H35.9703L36.9456 39.1819H33.8805C33.6018 39.1819 33.3232 39.0372 33.3232 38.6033C33.3232 38.4587 33.4625 38.3141 33.4625 38.3141L39.0354 28.9133H40.0107L39.0354 34.9876H42.1005C42.3792 34.9876 42.6578 35.1323 42.6578 35.5661C42.5185 35.7108 42.5185 35.7108 42.5185 35.8554Z" stroke="white" stroke-width="1.5" stroke-miterlimit="10" stroke-linecap="round" stroke-linejoin="round"/>
<path d="M37.9208 23.562C30.676 23.562 24.8245 29.6364 24.8245 37.0124C24.8245 44.5331 30.676 50.4628 37.9208 50.4628C45.1657 50.4628 51.0172 44.3885 51.0172 37.0124C51.1566 29.781 45.305 23.562 37.9208 23.562ZM42.5185 35.8554L36.9456 45.2562H35.9703L36.9456 39.1819H33.8805C33.6018 39.1819 33.3232 39.0372 33.3232 38.6033C33.3232 38.4587 33.4625 38.3141 33.4625 38.3141L39.0354 28.9133H40.0107L39.0354 34.9876H42.1005C42.3792 34.9876 42.6578 35.1323 42.6578 35.5661C42.5185 35.7108 42.5185 35.7108 42.5185 35.8554Z" stroke="url(#paint2_linear)" stroke-width="1.5" stroke-miterlimit="10" stroke-linecap="round" stroke-linejoin="round"/>
<path d="M5.31927 13.0042H51.1567" stroke="white" stroke-width="1.5" stroke-miterlimit="10" stroke-linecap="round" stroke-linejoin="round"/>
<path d="M5.31927 13.0042H51.1567" stroke="url(#paint3_linear)" stroke-width="1.5" stroke-miterlimit="10" stroke-linecap="round" stroke-linejoin="round"/>
<path d="M12.9816 17.343H42.5181" stroke="white" stroke-width="1.5" stroke-miterlimit="10" stroke-linecap="round" stroke-linejoin="round"/>
<path d="M12.9816 17.343H42.5181" stroke="url(#paint4_linear)" stroke-width="1.5" stroke-miterlimit="10" stroke-linecap="round" stroke-linejoin="round"/>
<path d="M11.4494 55.8141H51.1566" stroke="white" stroke-width="1.5" stroke-miterlimit="10" stroke-linecap="round" stroke-linejoin="round"/>
<path d="M11.4494 55.8141H51.1566" stroke="url(#paint5_linear)" stroke-width="1.5" stroke-miterlimit="10" stroke-linecap="round" stroke-linejoin="round"/>
<path d="M24.8245 61.1653H37.503" stroke="white" stroke-width="1.5" stroke-miterlimit="10" stroke-linecap="round" stroke-linejoin="round"/>
<path d="M24.8245 61.1653H37.503" stroke="url(#paint6_linear)" stroke-width="1.5" stroke-miterlimit="10" stroke-linecap="round" stroke-linejoin="round"/>
<path d="M41.6827 61.1653H47.3949" stroke="white" stroke-width="1.5" stroke-miterlimit="10" stroke-linecap="round" stroke-linejoin="round"/>
<path d="M41.6827 61.1653H47.3949" stroke="url(#paint7_linear)" stroke-width="1.5" stroke-miterlimit="10" stroke-linecap="round" stroke-linejoin="round"/>
<path d="M3.36829 59.7191H8.94118" stroke="white" stroke-width="1.5" stroke-miterlimit="10" stroke-linecap="round" stroke-linejoin="round"/>
<path d="M3.36829 59.7191H8.94118" stroke="url(#paint8_linear)" stroke-width="1.5" stroke-miterlimit="10" stroke-linecap="round" stroke-linejoin="round"/>
<path d="M6.99086 6.49585H1" stroke="white" stroke-width="1.5" stroke-miterlimit="10" stroke-linecap="round" stroke-linejoin="round"/>
<path d="M6.99086 6.49585H1" stroke="url(#paint9_linear)" stroke-width="1.5" stroke-miterlimit="10" stroke-linecap="round" stroke-linejoin="round"/>
<defs>
<linearGradient id="paint0_linear" x1="38.1303" y1="1" x2="38.1303" y2="66.0827" gradientUnits="userSpaceOnUse">
<stop stop-color="white"/>
<stop offset="1" stop-color="white" stop-opacity="0"/>
</linearGradient>
<linearGradient id="paint1_linear" x1="38.1303" y1="5.33887" x2="38.1303" y2="71" gradientUnits="userSpaceOnUse">
<stop stop-color="white"/>
<stop offset="1" stop-color="white" stop-opacity="0"/>
</linearGradient>
<linearGradient id="paint2_linear" x1="37.9221" y1="23.562" x2="37.9221" y2="50.4628" gradientUnits="userSpaceOnUse">
<stop stop-color="white"/>
<stop offset="1" stop-color="white" stop-opacity="0"/>
</linearGradient>
<linearGradient id="paint3_linear" x1="28.238" y1="13.0042" x2="28.238" y2="14.0042" gradientUnits="userSpaceOnUse">
<stop stop-color="white"/>
<stop offset="1" stop-color="white" stop-opacity="0"/>
</linearGradient>
<linearGradient id="paint4_linear" x1="27.7498" y1="17.343" x2="27.7498" y2="18.343" gradientUnits="userSpaceOnUse">
<stop stop-color="white"/>
<stop offset="1" stop-color="white" stop-opacity="0"/>
</linearGradient>
<linearGradient id="paint5_linear" x1="31.303" y1="55.8141" x2="31.303" y2="56.8141" gradientUnits="userSpaceOnUse">
<stop stop-color="white"/>
<stop offset="1" stop-color="white" stop-opacity="0"/>
</linearGradient>
<linearGradient id="paint6_linear" x1="31.1637" y1="61.1653" x2="31.1637" y2="62.1653" gradientUnits="userSpaceOnUse">
<stop stop-color="white"/>
<stop offset="1" stop-color="white" stop-opacity="0"/>
</linearGradient>
<linearGradient id="paint7_linear" x1="44.5388" y1="61.1653" x2="44.5388" y2="62.1653" gradientUnits="userSpaceOnUse">
<stop stop-color="white"/>
<stop offset="1" stop-color="white" stop-opacity="0"/>
</linearGradient>
<linearGradient id="paint8_linear" x1="6.15473" y1="59.7191" x2="6.15473" y2="60.7191" gradientUnits="userSpaceOnUse">
<stop stop-color="white"/>
<stop offset="1" stop-color="white" stop-opacity="0"/>
</linearGradient>
<linearGradient id="paint9_linear" x1="3.99543" y1="6.49585" x2="3.99543" y2="7.49585" gradientUnits="userSpaceOnUse">
<stop stop-color="white"/>
<stop offset="1" stop-color="white" stop-opacity="0"/>
</linearGradient>
</defs>
</svg>