<svg fill="#fff" version="1.1" id="Layer_1" xmlns="http://www.w3.org/2000/svg" xmlns:xlink="http://www.w3.org/1999/xlink" 
	 viewBox="0 0 496 496" xml:space="preserve">
<g>
	<g>
		<g>
			<path d="M456,0H40C17.944,0,0,17.944,0,40v360c0,22.056,17.944,40,40,40h72v40H80v16h336v-16h-32v-40h72
				c22.056,0,40-17.944,40-40V40C496,17.944,478.056,0,456,0z M368,480H128v-40h240V480z M480,400c0,13.232-10.768,24-24,24H40
				c-13.232,0-24-10.768-24-24v-16h464V400z M480,368H16V40c0-13.232,10.768-24,24-24h416c13.232,0,24,10.768,24,24V368z"/>
			<path d="M48,336h400V48H48V336z M64,64h368v256H64V64z"/>
			<path d="M192,88c-57.344,0-104,46.656-104,104s46.656,104,104,104s104-46.656,104-104S249.344,88,192,88z M104,192
				c0-45.824,35.216-83.536,80-87.592v80.816l-79.672,13.28C104.168,196.344,104,194.192,104,192z M192,280
				c-40.816,0-75.128-27.968-85.032-65.72l82.576-13.76l62.544,55.592C236.336,270.88,215.24,280,192,280z M262.72,244.152
				L200,188.408v-84c44.784,4.056,80,41.768,80,87.592C280,211.536,273.528,229.536,262.72,244.152z"/>
			<path d="M312,168h104V88H312V168z M328,104h72v48h-72V104z"/>
			<rect x="312" y="184" width="104" height="16"/>
			<rect x="312" y="216" width="104" height="16"/>
			<rect x="312" y="248" width="104" height="16"/>
			<rect x="400" y="280" width="16" height="16"/>
			<rect x="312" y="280" width="72" height="16"/>
		</g>
	</g>
</g>
</svg>