<svg xmlns="http://www.w3.org/2000/svg" viewBox="0 0 24 24"><g fill="#919191"><path fill="none" d="M0 0h24v24H0V0z"/><path fill-opacity=".3" d="M4 7v12.2l.04.2.04.2q.03.1.07.18.03.1.08.18.04.1.1.17l.1.16q.07.06.14.13t.14.13q.1.06.17.1.08.07.17.1.1.06.18.1.1.03.18.06l.2.04q.1.02.2.03h12.4l.2-.04.2-.04q.1-.03.18-.07.1-.03.18-.08.1-.04.17-.1l.16-.1q.06-.07.13-.14t.13-.14q.06-.1.1-.17.07-.08.1-.17.06-.1.1-.18.03-.1.06-.18l.04-.2q.02-.1.03-.2V6.8l-.04-.2-.04-.2q-.03-.1-.07-.18-.03-.1-.08-.18-.04-.1-.1-.17l-.1-.16q-.07-.06-.14-.13t-.14-.13q-.1-.06-.17-.1-.08-.07-.17-.1-.1-.06-.18-.1-.1-.03-.18-.06l-.2-.04q-.1-.02-.18-.05H5.8l-.2.04-.2.04q-.1.03-.18.07-.1.03-.18.08-.1.04-.17.1l-.16.1q-.06.07-.13.14t-.13.14q-.06.1-.1.17-.07.08-.1.17-.06.1-.1.18-.03.1-.06.18l-.04.2q-.02.1-.05.19V7z"/><path d="M8.5 7V6c0-1.93 1.57-3.5 3.5-3.5s3.5 1.57 3.5 3.5v1h1V6c0-2.5-2-4.5-4.5-4.5S7.5 3.5 7.5 6v1h1z"/></g></svg>