<!DOCTYPE svg PUBLIC "-//W3C//DTD SVG 1.1//EN" "http://www.w3.org/Graphics/SVG/1.1/DTD/svg11.dtd">
<!-- Uploaded to: SVG Repo, www.svgrepo.com, Transformed by: SVG Repo Mixer Tools -->
<svg version="1.1" id="Layer_1" xmlns="http://www.w3.org/2000/svg" xmlns:xlink="http://www.w3.org/1999/xlink" viewBox="0 0 511.999 511.999" xml:space="preserve" width="64px" height="64px" fill="#000000">
<g id="SVGRepo_bgCarrier" stroke-width="0"/>
<g id="SVGRepo_tracerCarrier" stroke-linecap="round" stroke-linejoin="round"/>
<g id="SVGRepo_iconCarrier"> <path style="fill:#E4AAA9;" d="M421.98,264.613H90.024L61.718,148.724C45.121,80.769,96.581,15.227,166.534,15.227h178.935 c69.953,0,121.412,65.542,104.814,133.495L421.98,264.613z"/> <path style="fill:#E0315B;" d="M371.398,264.613H140.604v-46.453c0-31.898,25.859-57.757,57.757-57.757H313.64 c31.898,0,57.757,25.859,57.757,57.757V264.613z"/> <rect x="54.239" y="367.847" style="fill:#D8766A;" width="403.525" height="77.346"/> <path style="fill:#E4AAA9;" d="M457.764,367.846H54.239v-63.163c0-22.13,17.939-40.069,40.069-40.069h323.388 c22.13,0,40.069,17.939,40.069,40.069v63.163H457.764z"/> <path d="M440.2,254.193l24.877-101.856c9.028-36.961,0.729-75.324-22.766-105.248S383.516,0,345.469,0H166.532 c-38.046,0-73.343,17.163-96.84,47.089s-31.795,68.287-22.766,105.248l24.877,101.856c-19.302,8.637-32.791,28.012-32.791,50.489 v63.163v77.346c0,8.409,6.817,15.227,15.227,15.227h25.559l-23.255,26.257c-5.576,6.295-4.992,15.919,1.303,21.495 c6.297,5.578,15.919,4.992,21.495-1.303l41.137-46.448h271.042l41.137,46.448c3.01,3.397,7.198,5.132,11.405,5.132 c3.588,0,7.192-1.261,10.09-3.828c6.297-5.576,6.88-15.2,1.303-21.495l-23.255-26.257h25.559c8.41,0,15.227-6.819,15.227-15.227 v-77.346v-63.163C472.992,282.204,459.502,262.83,440.2,254.193z M442.537,352.618H69.467V334.6h201.762 c8.41,0,15.227-6.819,15.227-15.227s-6.817-15.227-15.227-15.227H69.493c0.289-13.447,11.297-24.304,24.814-24.304h46.297h230.792 h46.297c13.697,0,24.84,11.143,24.84,24.84v47.937H442.537z M356.17,249.386H155.832v-31.224c0-23.452,19.078-42.532,42.53-42.532 H313.64c23.45,0,42.53,19.078,42.53,42.532V249.386z M93.646,65.895c17.685-22.523,44.251-35.44,72.887-35.44H345.47 c28.637,0,55.202,12.917,72.886,35.44c17.685,22.524,23.93,51.397,17.135,79.214l-25.468,104.275h-23.398v-31.222 c0-40.244-32.74-72.986-72.985-72.986H198.362c-40.244,0-72.985,32.742-72.985,72.986v31.225h-23.398L76.511,145.111 C69.716,117.292,75.963,88.419,93.646,65.895z M442.537,429.964h-44.159H113.626H69.467v-46.891h373.07V429.964z"/> <path d="M316.911,334.592c-0.99,0-1.995-0.091-2.969-0.288c-0.975-0.196-1.934-0.487-2.848-0.868 c-0.929-0.381-1.812-0.853-2.634-1.401c-0.837-0.563-1.614-1.188-2.315-1.888s-1.34-1.491-1.888-2.315 c-0.563-0.838-1.02-1.721-1.401-2.634s-0.685-1.871-0.868-2.846c-0.198-0.99-0.305-1.981-0.305-2.986 c0-4.005,1.629-7.933,4.462-10.764c0.7-0.7,1.477-1.34,2.315-1.888c0.822-0.548,1.705-1.02,2.619-1.401 c0.929-0.381,1.888-0.67,2.863-0.868c1.964-0.396,3.974-0.396,5.939,0c0.975,0.198,1.934,0.487,2.863,0.868 c0.914,0.381,1.797,0.853,2.619,1.401c0.838,0.548,1.614,1.188,2.315,1.888c2.832,2.831,4.462,6.759,4.462,10.764 c0,1.005-0.107,1.996-0.305,2.986c-0.183,0.975-0.487,1.934-0.868,2.846c-0.381,0.915-0.853,1.798-1.401,2.634 c-0.548,0.822-1.188,1.614-1.888,2.315s-1.477,1.325-2.315,1.888c-0.822,0.548-1.705,1.02-2.619,1.401 c-0.929,0.381-1.888,0.67-2.863,0.868C318.906,334.502,317.9,334.592,316.911,334.592z"/> </g>
</svg>