<svg xmlns="http://www.w3.org/2000/svg" version="1.0" width="800.000000pt" height="494.000000pt" viewBox="0 0 800.000000 494.000000" preserveAspectRatio="xMidYMid meet">
<g transform="translate(0.000000,494.000000) scale(0.100000,-0.100000)" fill="#000000" stroke="none" style="&#10;    fill: rgba(0,0,0,0.01);&#10;">
<path d="M43 4920 c-60 -36 -53 -126 11 -156 79 -38 159 37 126 117 -13 31 -55 59 -87 59 -10 0 -32 -9 -50 -20z"/>
<path d="M242 4915 c-27 -22 -32 -34 -32 -70 0 -36 5 -48 32 -70 26 -22 39 -26 67 -21 106 17 106 165 0 182 -28 5 -41 1 -67 -21z"/>
<path d="M461 4926 c-13 -7 -30 -24 -37 -37 -51 -92 72 -183 146 -109 43 43 32 118 -21 145 -34 18 -57 18 -88 1z"/>
<path d="M674 4930 c-84 -33 -64 -162 27 -176 28 -5 41 -1 67 21 27 22 32 34 32 70 0 36 -5 48 -31 69 -31 27 -58 31 -95 16z"/>
<path d="M869 4925 c-52 -28 -61 -103 -19 -145 29 -29 67 -35 106 -16 64 30 71 120 11 156 -38 23 -62 24 -98 5z"/>
<path d="M1084 4930 c-84 -34 -64 -162 27 -176 30 -5 42 -1 69 23 45 40 45 95 1 135 -32 29 -59 34 -97 18z"/>
<path d="M1269 4912 c-26 -23 -33 -37 -33 -67 0 -30 7 -44 33 -67 28 -25 39 -29 70 -24 107 17 107 165 0 182 -31 5 -42 1 -70 -24z"/>
<path d="M1494 4930 c-84 -34 -64 -162 27 -176 31 -5 42 -1 70 24 46 41 47 92 1 133 -33 29 -60 35 -98 19z"/>
<path d="M1680 4913 c-26 -23 -32 -36 -32 -68 0 -32 6 -45 32 -68 27 -24 39 -28 69 -23 107 17 107 165 0 182 -30 5 -42 1 -69 -23z"/>
<path d="M1901 4926 c-13 -7 -30 -24 -37 -37 -51 -92 72 -183 146 -109 43 43 32 118 -21 145 -34 18 -57 18 -88 1z"/>
<path d="M2090 4912 c-22 -23 -30 -40 -30 -67 0 -27 8 -44 30 -67 27 -26 36 -30 68 -25 22 4 46 17 60 32 48 55 14 140 -60 152 -32 5 -41 1 -68 -25z"/>
<path d="M2311 4926 c-13 -7 -30 -24 -37 -37 -51 -92 72 -183 146 -109 43 43 32 118 -21 145 -34 18 -57 18 -88 1z"/>
<path d="M2524 4930 c-84 -33 -64 -162 27 -176 28 -5 41 -1 67 21 27 22 32 34 32 70 0 36 -5 48 -31 69 -31 27 -58 31 -95 16z"/>
<path d="M2719 4925 c-52 -28 -61 -103 -19 -145 29 -29 67 -35 106 -16 64 30 71 120 11 156 -38 23 -62 24 -98 5z"/>
<path d="M2934 4930 c-84 -34 -64 -162 27 -176 30 -5 42 -1 69 23 45 40 45 95 1 135 -32 29 -59 34 -97 18z"/>
<path d="M3119 4912 c-26 -23 -33 -37 -33 -67 0 -30 7 -44 33 -67 28 -25 39 -29 70 -24 21 3 45 16 59 31 47 55 14 140 -59 151 -31 5 -42 1 -70 -24z"/>
<path d="M3344 4930 c-53 -21 -70 -96 -34 -143 42 -53 125 -43 155 19 38 79 -38 158 -121 124z"/>
<path d="M3532 4915 c-27 -22 -32 -34 -32 -70 0 -36 5 -48 32 -70 26 -22 39 -26 67 -21 21 3 45 16 59 31 47 55 14 140 -59 151 -28 5 -41 1 -67 -21z"/>
<path d="M3751 4926 c-13 -7 -30 -24 -37 -37 -51 -92 72 -183 146 -109 43 43 32 118 -21 145 -34 18 -57 18 -88 1z"/>
<path d="M3939 4911 c-21 -22 -29 -39 -29 -66 0 -48 44 -95 90 -95 46 0 90 47 90 95 0 48 -44 95 -90 95 -22 0 -41 -9 -61 -29z"/>
<path d="M4161 4926 c-13 -7 -30 -24 -37 -37 -51 -92 72 -183 146 -109 43 43 32 118 -21 145 -34 18 -57 18 -88 1z"/>
<path d="M4374 4930 c-84 -33 -64 -162 27 -176 28 -5 41 -1 67 21 27 22 32 34 32 70 0 36 -5 48 -31 69 -31 27 -58 31 -95 16z"/>
<path d="M4575 4928 c-47 -28 -62 -75 -40 -122 42 -89 175 -58 175 40 0 64 -82 114 -135 82z"/>
<path d="M4784 4930 c-84 -34 -64 -162 27 -176 31 -5 42 -1 70 24 46 41 47 92 1 133 -33 29 -60 35 -98 19z"/>
<path d="M4970 4913 c-26 -23 -32 -36 -32 -68 0 -32 6 -45 32 -68 27 -24 39 -28 69 -23 21 3 45 16 59 31 47 55 14 140 -59 151 -30 5 -42 1 -69 -23z"/>
<path d="M5183 4920 c-60 -36 -53 -126 11 -156 80 -39 159 40 121 120 -26 55 -78 70 -132 36z"/>
<path d="M5382 4915 c-27 -22 -32 -34 -32 -70 0 -36 5 -48 32 -70 26 -22 39 -26 67 -21 21 3 45 16 59 31 47 55 14 140 -59 151 -28 5 -41 1 -67 -21z"/>
<path d="M5601 4926 c-13 -7 -30 -24 -37 -37 -51 -92 72 -183 146 -109 43 43 32 118 -21 145 -34 18 -57 18 -88 1z"/>
<path d="M5814 4930 c-84 -34 -64 -162 28 -177 32 -5 41 -1 68 25 41 42 42 92 1 133 -30 29 -58 35 -97 19z"/>
<path d="M6011 4926 c-13 -7 -30 -24 -37 -37 -51 -92 72 -183 146 -109 43 43 32 118 -21 145 -34 18 -57 18 -88 1z"/>
<path d="M6224 4930 c-84 -34 -64 -162 27 -176 30 -5 42 -1 69 23 45 40 45 95 1 135 -32 29 -59 34 -97 18z"/>
<path d="M6409 4912 c-26 -23 -33 -37 -33 -67 0 -30 7 -44 33 -67 28 -25 39 -29 70 -24 21 3 45 16 59 31 47 55 14 140 -59 151 -31 5 -42 1 -70 -24z"/>
<path d="M6634 4930 c-84 -34 -64 -162 27 -176 31 -5 42 -1 70 24 46 41 47 92 1 133 -33 29 -60 35 -98 19z"/>
<path d="M6820 4913 c-26 -23 -32 -36 -32 -68 0 -32 6 -45 32 -68 27 -24 39 -28 69 -23 21 3 45 16 59 31 47 55 14 140 -59 151 -30 5 -42 1 -69 -23z"/>
<path d="M7033 4920 c-60 -36 -53 -126 11 -156 79 -38 159 37 126 117 -13 31 -55 59 -87 59 -10 0 -32 -9 -50 -20z"/>
<path d="M7232 4915 c-27 -22 -32 -34 -32 -70 0 -36 5 -48 32 -70 26 -22 39 -26 67 -21 21 3 45 16 59 31 47 55 14 140 -59 151 -28 5 -41 1 -67 -21z"/>
<path d="M7451 4926 c-13 -7 -30 -24 -37 -37 -51 -92 72 -183 146 -109 43 43 32 118 -21 145 -34 18 -57 18 -88 1z"/>
<path d="M7664 4930 c-84 -33 -64 -162 27 -176 28 -5 41 -1 67 21 27 22 32 34 32 70 0 36 -5 48 -31 69 -31 27 -58 31 -95 16z"/>
<path d="M7859 4925 c-52 -28 -61 -103 -19 -145 29 -29 67 -35 106 -16 64 30 71 120 11 156 -38 23 -62 24 -98 5z"/>
<path d="M64 4720 c-38 -15 -66 -61 -60 -95 22 -109 176 -98 176 13 0 61 -62 105 -116 82z"/>
<path d="M258 4714 c-84 -45 -54 -164 42 -164 90 0 124 113 47 160 -38 24 -53 24 -89 4z"/>
<path d="M475 4721 c-93 -39 -69 -173 30 -173 106 0 119 154 15 176 -14 3 -34 1 -45 -3z"/>
<path d="M663 4710 c-77 -47 -43 -160 47 -160 97 0 126 120 40 165 -38 19 -48 19 -87 -5z"/>
<path d="M890 4723 c-61 -23 -80 -99 -37 -148 50 -59 151 -19 151 60 0 56 -66 107 -114 88z"/>
<path d="M1079 4715 c-32 -17 -54 -66 -45 -100 25 -97 176 -81 176 19 0 68 -74 114 -131 81z"/>
<path d="M1294 4720 c-56 -22 -72 -103 -29 -145 23 -24 39 -29 80 -26 26 3 75 56 75 82 0 36 -28 76 -61 88 -37 13 -37 13 -65 1z"/>
<path d="M1495 4716 c-31 -13 -55 -51 -55 -86 0 -26 49 -78 75 -81 41 -3 57 2 80 26 69 68 -11 181 -100 141z"/>
<path d="M1704 4720 c-31 -12 -54 -49 -54 -88 0 -99 152 -114 176 -17 9 35 -13 83 -47 100 -31 17 -44 18 -75 5z"/>
<path d="M1915 4721 c-92 -39 -69 -173 30 -173 105 0 119 154 15 176 -14 3 -34 1 -45 -3z"/>
<path d="M2108 4714 c-84 -45 -54 -164 42 -164 96 0 125 121 40 165 -36 18 -47 18 -82 -1z"/>
<path d="M2325 4721 c-60 -25 -77 -104 -32 -148 55 -55 151 -16 151 62 0 59 -67 108 -119 86z"/>
<path d="M2513 4710 c-40 -24 -52 -73 -29 -118 17 -34 33 -42 82 -42 92 0 117 122 34 165 -38 19 -48 19 -87 -5z"/>
<path d="M2740 4723 c-62 -23 -81 -103 -35 -148 68 -69 182 7 145 96 -7 15 -27 35 -45 43 -35 17 -41 18 -65 9z"/>
<path d="M2929 4715 c-32 -17 -54 -66 -45 -100 8 -31 40 -62 71 -67 31 -6 81 15 94 41 42 78 -44 169 -120 126z"/>
<path d="M3144 4720 c-56 -22 -72 -103 -29 -145 23 -24 39 -29 80 -26 26 3 75 56 75 82 0 36 -28 76 -61 88 -37 13 -37 13 -65 1z"/>
<path d="M3345 4716 c-31 -13 -55 -51 -55 -86 0 -11 12 -33 28 -49 59 -64 152 -29 152 57 0 66 -64 106 -125 78z"/>
<path d="M3554 4720 c-86 -35 -62 -170 30 -170 49 0 65 8 82 42 23 45 11 94 -29 118 -35 22 -50 23 -83 10z"/>
<path d="M3765 4721 c-93 -39 -69 -173 30 -173 106 0 119 154 15 176 -14 3 -34 1 -45 -3z"/>
<path d="M3958 4714 c-84 -45 -54 -164 42 -164 97 0 126 120 40 165 -36 18 -47 18 -82 -1z"/>
<path d="M4175 4721 c-60 -25 -77 -104 -32 -148 55 -55 151 -16 151 62 0 59 -67 108 -119 86z"/>
<path d="M4363 4711 c-40 -25 -52 -74 -29 -119 17 -34 33 -42 82 -42 74 0 111 88 62 144 -31 36 -75 42 -115 17z"/>
<path d="M4590 4723 c-62 -23 -81 -103 -35 -148 23 -24 39 -29 80 -26 26 3 75 56 75 82 0 36 -28 76 -61 88 -35 12 -37 12 -59 4z"/>
<path d="M4784 4716 c-56 -25 -69 -102 -23 -145 27 -25 61 -31 97 -15 55 23 70 93 30 138 -29 32 -64 39 -104 22z"/>
<path d="M4994 4720 c-47 -19 -68 -85 -43 -131 13 -26 63 -47 94 -41 31 5 63 36 71 67 9 35 -14 83 -47 100 -31 17 -44 18 -75 5z"/>
<path d="M5193 4714 c-56 -28 -66 -99 -20 -142 58 -54 147 -14 147 66 0 67 -66 107 -127 76z"/>
<path d="M5398 4714 c-81 -43 -54 -164 36 -164 49 0 65 8 82 42 23 45 11 94 -29 118 -38 24 -53 24 -89 4z"/>
<path d="M5615 4721 c-93 -39 -69 -173 30 -173 51 0 87 36 87 87 0 61 -64 108 -117 86z"/>
<path d="M5808 4714 c-83 -45 -53 -164 42 -164 97 0 126 120 40 165 -36 18 -47 18 -82 -1z"/>
<path d="M6030 4723 c-62 -23 -82 -109 -36 -152 56 -52 150 -12 150 64 0 56 -66 107 -114 88z"/>
<path d="M6219 4715 c-52 -29 -61 -103 -19 -145 29 -29 94 -27 125 5 70 69 -20 188 -106 140z"/>
<path d="M6434 4720 c-56 -22 -72 -103 -29 -145 23 -24 39 -29 80 -26 26 3 75 56 75 82 0 36 -28 76 -61 88 -37 13 -37 13 -65 1z"/>
<path d="M6635 4716 c-31 -13 -55 -51 -55 -86 0 -26 49 -78 75 -81 41 -3 57 2 80 26 69 68 -11 181 -100 141z"/>
<path d="M6844 4720 c-89 -36 -62 -170 34 -170 94 0 124 122 41 165 -31 17 -44 18 -75 5z"/>
<path d="M7055 4721 c-93 -39 -69 -173 31 -173 103 0 116 154 14 176 -14 3 -34 1 -45 -3z"/>
<path d="M7248 4714 c-84 -45 -54 -164 42 -164 90 0 124 113 47 160 -38 24 -53 24 -89 4z"/>
<path d="M7465 4721 c-92 -39 -69 -173 30 -173 50 0 87 36 88 86 2 60 -65 109 -118 87z"/>
<path d="M7653 4710 c-77 -47 -43 -160 47 -160 97 0 126 120 40 165 -38 19 -48 19 -87 -5z"/>
<path d="M7880 4723 c-62 -23 -81 -103 -35 -148 52 -53 136 -24 151 51 5 26 1 37 -23 62 -28 32 -66 46 -93 35z"/>
<path d="M32 4487 c-51 -55 -12 -147 63 -147 76 0 114 92 60 145 -33 34 -93 34 -123 2z"/>
<path d="M252 4503 c-17 -6 -42 -57 -42 -83 0 -33 53 -80 89 -80 38 0 79 36 87 76 9 46 -35 94 -84 93 -21 0 -43 -3 -50 -6z"/>
<path d="M445 4485 c-54 -53 -16 -145 60 -145 49 0 85 36 85 85 0 76 -92 114 -145 60z"/>
<path d="M659 4497 c-66 -51 -30 -157 53 -157 35 0 88 48 88 80 0 29 -26 76 -45 84 -27 10 -79 6 -96 -7z"/>
<path d="M855 4485 c-54 -53 -16 -145 60 -145 76 0 116 97 62 148 -33 31 -90 30 -122 -3z"/>
<path d="M1060 4485 c-53 -56 -13 -145 65 -145 48 0 89 50 81 99 -7 46 -38 71 -85 71 -27 0 -44 -7 -61 -25z"/>
<path d="M1265 4485 c-54 -53 -14 -144 63 -145 74 0 111 91 59 148 -29 31 -90 30 -122 -3z"/>
<path d="M1473 4488 c-53 -57 -16 -148 60 -148 76 0 115 93 62 145 -32 33 -93 34 -122 3z"/>
<path d="M1681 4493 c-12 -10 -24 -35 -28 -55 -5 -32 -1 -41 25 -68 38 -37 80 -40 118 -6 59 50 21 146 -57 146 -20 0 -46 -8 -58 -17z"/>
<path d="M1882 4487 c-31 -33 -30 -90 3 -122 53 -54 145 -16 145 60 0 76 -97 116 -148 62z"/>
<path d="M2102 4503 c-17 -6 -42 -57 -42 -83 0 -33 53 -80 90 -80 37 0 90 47 90 80 0 26 -18 61 -39 77 -16 12 -75 16 -99 6z"/>
<path d="M2295 4485 c-54 -53 -16 -145 60 -145 74 0 111 84 64 144 -28 36 -89 37 -124 1z"/>
<path d="M2495 4478 c-71 -84 48 -186 126 -109 32 33 36 58 14 100 -16 33 -33 41 -80 41 -25 0 -40 -8 -60 -32z"/>
<path d="M2705 4485 c-34 -33 -34 -84 1 -119 56 -56 144 -18 144 62 0 76 -91 112 -145 57z"/>
<path d="M2910 4485 c-53 -56 -13 -145 65 -145 41 0 85 47 85 91 0 72 -100 107 -150 54z"/>
<path d="M3115 4485 c-53 -52 -14 -144 62 -145 75 0 115 90 63 145 -32 34 -91 35 -125 0z"/>
<path d="M3322 4487 c-51 -54 -12 -147 61 -147 76 0 115 93 62 145 -33 34 -93 34 -123 2z"/>
<path d="M3542 4503 c-17 -6 -42 -57 -42 -83 0 -33 53 -80 89 -80 74 0 113 90 61 145 -23 24 -72 33 -108 18z"/>
<path d="M3731 4484 c-47 -60 -10 -144 64 -144 49 0 85 36 85 85 0 50 -36 85 -89 85 -31 0 -44 -6 -60 -26z"/>
<path d="M3952 4503 c-17 -6 -42 -57 -42 -83 0 -33 53 -80 90 -80 37 0 90 47 90 80 0 29 -26 76 -45 84 -19 7 -74 7 -93 -1z"/>
<path d="M4145 4485 c-54 -53 -16 -145 60 -145 74 0 111 84 64 144 -28 36 -89 37 -124 1z"/>
<path d="M4350 4485 c-52 -55 -13 -145 61 -145 36 0 89 47 89 80 0 29 -26 76 -45 84 -37 14 -82 6 -105 -19z"/>
<path d="M4555 4485 c-34 -33 -34 -84 1 -119 56 -56 144 -18 144 62 0 76 -91 112 -145 57z"/>
<path d="M4760 4485 c-52 -55 -12 -145 63 -145 76 1 115 93 62 145 -34 35 -93 34 -125 0z"/>
<path d="M4965 4485 c-53 -52 -14 -144 62 -145 76 0 115 89 63 145 -32 34 -91 35 -125 0z"/>
<path d="M5172 4487 c-51 -54 -12 -147 61 -147 76 0 115 93 62 145 -33 34 -93 34 -123 2z"/>
<path d="M5392 4503 c-17 -6 -42 -57 -42 -83 0 -33 53 -80 89 -80 38 0 79 36 87 76 9 46 -35 94 -84 93 -21 0 -43 -3 -50 -6z"/>
<path d="M5581 4484 c-47 -60 -10 -144 64 -144 49 0 85 36 85 85 0 50 -36 85 -89 85 -31 0 -44 -6 -60 -26z"/>
<path d="M5799 4497 c-21 -16 -39 -51 -39 -77 0 -33 53 -80 90 -80 37 0 90 47 90 80 0 29 -26 76 -45 84 -27 10 -79 6 -96 -7z"/>
<path d="M5995 4485 c-17 -16 -25 -35 -25 -60 0 -25 8 -44 25 -60 55 -56 145 -16 145 63 0 76 -91 112 -145 57z"/>
<path d="M6200 4485 c-52 -55 -13 -145 61 -145 36 0 89 47 89 80 0 29 -26 76 -45 84 -37 14 -82 6 -105 -19z"/>
<path d="M6405 4485 c-34 -33 -34 -84 1 -119 81 -80 199 38 121 122 -29 31 -90 30 -122 -3z"/>
<path d="M6613 4488 c-52 -57 -15 -148 59 -148 77 1 117 92 63 145 -32 33 -93 34 -122 3z"/>
<path d="M6815 4485 c-33 -32 -32 -75 1 -114 50 -60 148 -25 148 52 0 79 -94 118 -149 62z"/>
<path d="M7022 4487 c-31 -33 -30 -90 3 -122 53 -54 145 -16 145 60 0 76 -97 116 -148 62z"/>
<path d="M7242 4503 c-17 -6 -42 -57 -42 -83 0 -32 53 -80 88 -80 83 0 119 106 53 157 -16 12 -75 16 -99 6z"/>
<path d="M7435 4485 c-17 -16 -25 -35 -25 -60 0 -25 8 -44 25 -60 53 -54 145 -16 145 60 0 76 -92 114 -145 60z"/>
<path d="M7635 4478 c-71 -84 48 -186 126 -109 32 33 36 58 14 100 -16 33 -33 41 -80 41 -25 0 -40 -8 -60 -32z"/>
<path d="M7845 4485 c-17 -16 -25 -35 -25 -60 0 -25 8 -44 25 -60 55 -56 145 -16 145 63 0 76 -91 112 -145 57z"/>
<path d="M35 4275 c-37 -36 -34 -86 6 -119 40 -34 74 -33 110 3 32 33 36 58 14 100 -25 49 -90 57 -130 16z"/>
<path d="M243 4278 c-31 -34 -36 -63 -18 -98 42 -81 155 -52 155 39 0 31 -6 44 -26 60 -36 28 -85 27 -111 -1z"/>
<path d="M445 4275 c-35 -34 -33 -78 4 -116 18 -17 40 -29 56 -29 38 0 85 50 85 90 0 71 -94 107 -145 55z"/>
<path d="M656 4279 c-20 -16 -26 -29 -26 -60 0 -94 120 -120 155 -35 35 83 -57 151 -129 95z"/>
<path d="M872 4293 c-17 -6 -42 -57 -42 -83 0 -30 53 -80 83 -80 41 0 87 46 87 86 0 62 -66 102 -128 77z"/>
<path d="M1065 4275 c-41 -40 -33 -105 17 -131 54 -28 111 1 124 62 4 24 0 37 -21 62 -34 41 -84 44 -120 7z"/>
<path d="M1272 4280 c-46 -43 -37 -107 19 -139 51 -29 119 14 119 76 0 70 -87 110 -138 63z"/>
<path d="M1475 4275 c-47 -46 -24 -125 42 -141 53 -14 113 46 99 99 -16 66 -95 89 -141 42z"/>
<path d="M1675 4268 c-29 -35 -29 -76 1 -109 35 -38 121 -28 138 16 15 39 6 83 -20 104 -40 32 -87 28 -119 -11z"/>
<path d="M1885 4275 c-37 -36 -34 -86 6 -119 40 -34 74 -33 110 3 32 33 36 58 14 100 -25 49 -90 57 -130 16z"/>
<path d="M2093 4278 c-30 -34 -34 -55 -18 -94 36 -87 160 -57 157 39 -1 41 -41 77 -86 77 -21 0 -40 -8 -53 -22z"/>
<path d="M2295 4275 c-35 -34 -33 -78 4 -116 18 -17 40 -29 56 -29 38 0 85 50 85 90 0 71 -94 107 -145 55z"/>
<path d="M2506 4279 c-20 -16 -26 -29 -26 -60 0 -91 113 -120 155 -39 42 81 -56 156 -129 99z"/>
<path d="M2722 4293 c-17 -6 -42 -57 -42 -83 0 -30 53 -80 83 -80 41 0 87 46 87 86 0 62 -66 102 -128 77z"/>
<path d="M2915 4275 c-41 -40 -33 -105 17 -131 54 -28 111 1 124 62 4 24 0 37 -21 62 -34 41 -84 44 -120 7z"/>
<path d="M3122 4280 c-45 -42 -34 -112 21 -138 83 -40 158 68 92 133 -30 31 -82 33 -113 5z"/>
<path d="M3325 4275 c-47 -46 -24 -125 42 -141 53 -14 113 46 99 99 -16 67 -94 90 -141 42z"/>
<path d="M3530 4275 c-66 -71 12 -175 98 -131 34 17 42 34 42 81 0 68 -92 101 -140 50z"/>
<path d="M3735 4275 c-35 -34 -33 -78 4 -116 18 -17 40 -29 56 -29 38 0 85 50 85 90 0 71 -94 107 -145 55z"/>
<path d="M3941 4276 c-62 -66 7 -169 92 -137 82 31 56 161 -33 161 -26 0 -43 -7 -59 -24z"/>
<path d="M4145 4275 c-35 -34 -33 -78 4 -116 18 -17 40 -29 56 -29 38 0 85 50 85 90 0 71 -94 107 -145 55z"/>
<path d="M4356 4279 c-19 -15 -26 -30 -26 -54 0 -47 8 -64 42 -81 58 -30 122 7 122 71 0 73 -80 110 -138 64z"/>
<path d="M4560 4280 c-44 -44 -34 -108 21 -139 51 -29 119 14 119 76 0 70 -92 111 -140 63z"/>
<path d="M4765 4275 c-47 -46 -25 -124 39 -141 54 -13 115 48 102 101 -16 64 -96 86 -141 40z"/>
<path d="M4965 4268 c-21 -25 -25 -38 -21 -62 13 -61 70 -90 124 -62 76 39 45 156 -42 156 -26 0 -40 -7 -61 -32z"/>
<path d="M5175 4275 c-37 -36 -34 -86 6 -119 40 -34 74 -33 110 3 32 33 36 58 14 100 -25 49 -90 57 -130 16z"/>
<path d="M5383 4278 c-31 -34 -36 -63 -18 -98 42 -81 155 -52 155 39 0 31 -6 44 -26 60 -36 28 -85 27 -111 -1z"/>
<path d="M5585 4275 c-35 -34 -33 -78 4 -116 18 -17 40 -29 56 -29 38 0 85 50 85 90 0 71 -94 107 -145 55z"/>
<path d="M5795 4278 c-70 -61 1 -172 89 -138 30 11 60 68 49 97 -13 37 -46 63 -79 63 -20 0 -43 -9 -59 -22z"/>
<path d="M6012 4293 c-17 -6 -42 -57 -42 -83 0 -30 53 -80 83 -80 41 0 87 46 87 86 0 62 -66 102 -128 77z"/>
<path d="M6206 4279 c-19 -15 -26 -30 -26 -54 0 -47 8 -64 42 -81 58 -30 122 7 122 71 0 73 -80 110 -138 64z"/>
<path d="M6412 4280 c-46 -43 -37 -107 19 -139 51 -29 119 14 119 76 0 70 -87 110 -138 63z"/>
<path d="M6615 4275 c-47 -46 -24 -125 42 -141 53 -14 113 46 99 99 -16 66 -95 89 -141 42z"/>
<path d="M6815 4268 c-21 -25 -25 -38 -21 -62 13 -61 70 -90 124 -62 76 39 45 156 -42 156 -26 0 -40 -7 -61 -32z"/>
<path d="M7025 4275 c-37 -36 -34 -86 6 -119 40 -34 74 -33 110 3 32 33 36 58 14 100 -25 49 -90 57 -130 16z"/>
<path d="M7233 4278 c-30 -34 -34 -55 -18 -94 35 -85 155 -59 155 35 0 31 -6 44 -26 60 -36 28 -85 27 -111 -1z"/>
<path d="M7435 4275 c-35 -34 -33 -78 4 -116 18 -17 40 -29 56 -29 38 0 85 50 85 90 0 71 -94 107 -145 55z"/>
<path d="M7646 4279 c-20 -16 -26 -29 -26 -60 0 -91 113 -120 155 -39 42 81 -56 156 -129 99z"/>
<path d="M7862 4293 c-17 -6 -42 -57 -42 -83 0 -30 53 -80 83 -80 41 0 87 46 87 86 0 62 -66 102 -128 77z"/>
<path d="M49 4077 c-21 -16 -39 -51 -39 -77 0 -48 71 -84 125 -64 24 10 46 60 39 89 -13 52 -86 82 -125 52z"/>
<path d="M245 4065 c-53 -52 -18 -135 56 -135 45 0 79 34 79 79 0 42 -38 81 -80 81 -19 0 -40 -9 -55 -25z"/>
<path d="M445 4058 c-31 -37 -29 -82 6 -110 47 -39 123 -12 135 48 8 44 -35 94 -81 94 -25 0 -40 -8 -60 -32z"/>
<path d="M655 4065 c-53 -52 -18 -135 56 -135 45 0 79 34 79 79 0 42 -38 81 -80 81 -19 0 -40 -9 -55 -25z"/>
<path d="M867 4070 c-33 -26 -41 -63 -23 -99 26 -49 91 -57 131 -16 71 70 -29 177 -108 115z"/>
<path d="M1065 4065 c-51 -50 -17 -135 54 -135 49 0 81 32 81 82 0 70 -86 103 -135 53z"/>
<path d="M1276 4068 c-24 -22 -30 -40 -27 -80 4 -58 102 -80 140 -32 63 80 -38 179 -113 112z"/>
<path d="M1475 4065 c-50 -49 -17 -135 51 -135 47 0 70 14 83 50 28 82 -73 147 -134 85z"/>
<path d="M1686 4069 c-20 -16 -26 -29 -26 -58 0 -49 32 -81 82 -81 70 0 103 86 53 135 -30 31 -73 32 -109 4z"/>
<path d="M1899 4077 c-43 -33 -50 -87 -14 -122 40 -41 105 -33 130 16 21 40 19 57 -14 90 -31 31 -74 38 -102 16z"/>
<path d="M2095 4065 c-53 -52 -18 -135 56 -135 45 0 79 34 79 79 0 42 -38 81 -80 81 -19 0 -40 -9 -55 -25z"/>
<path d="M2298 4060 c-25 -26 -29 -36 -24 -63 16 -85 142 -91 161 -8 7 32 -7 68 -34 88 -29 22 -71 15 -103 -17z"/>
<path d="M2505 4065 c-51 -50 -17 -135 54 -135 47 0 81 33 81 79 0 42 -38 81 -80 81 -19 0 -40 -9 -55 -25z"/>
<path d="M2717 4070 c-33 -26 -41 -63 -23 -99 26 -49 91 -57 131 -16 71 70 -29 177 -108 115z"/>
<path d="M2915 4065 c-52 -51 -17 -135 56 -135 26 0 46 7 59 20 13 13 20 33 20 59 0 73 -84 108 -135 56z"/>
<path d="M3126 4068 c-24 -22 -30 -40 -27 -80 4 -58 102 -80 140 -32 63 80 -38 179 -113 112z"/>
<path d="M3342 4083 c-16 -6 -42 -56 -42 -81 0 -36 38 -72 76 -72 47 0 70 14 83 50 24 69 -47 131 -117 103z"/>
<path d="M3535 4065 c-53 -52 -18 -135 57 -135 70 0 103 86 53 135 -15 16 -36 25 -55 25 -19 0 -40 -9 -55 -25z"/>
<path d="M3749 4077 c-64 -49 -36 -147 42 -147 41 0 58 10 74 41 21 40 19 57 -14 90 -31 31 -74 38 -102 16z"/>
<path d="M3945 4065 c-53 -52 -18 -135 56 -135 45 0 79 34 79 79 0 42 -38 81 -80 81 -19 0 -40 -9 -55 -25z"/>
<path d="M4149 4061 c-33 -33 -35 -50 -14 -90 33 -65 134 -52 150 18 18 83 -75 132 -136 72z"/>
<path d="M4355 4065 c-51 -50 -17 -135 54 -135 47 0 81 33 81 79 0 42 -38 81 -80 81 -19 0 -40 -9 -55 -25z"/>
<path d="M4572 4074 c-32 -22 -43 -57 -31 -94 13 -36 36 -50 83 -50 25 0 40 7 55 26 25 31 26 55 6 93 -22 44 -71 55 -113 25z"/>
<path d="M4765 4065 c-52 -51 -17 -135 56 -135 26 0 46 7 59 20 13 13 20 33 20 59 0 73 -84 108 -135 56z"/>
<path d="M4976 4069 c-33 -26 -37 -88 -6 -119 13 -13 33 -20 59 -20 73 0 108 84 56 135 -30 31 -73 32 -109 4z"/>
<path d="M5189 4077 c-21 -16 -39 -51 -39 -77 0 -48 71 -84 125 -64 24 10 46 60 39 89 -13 52 -86 82 -125 52z"/>
<path d="M5385 4065 c-53 -52 -18 -135 57 -135 70 0 103 86 53 135 -15 16 -36 25 -55 25 -19 0 -40 -9 -55 -25z"/>
<path d="M5599 4077 c-27 -20 -41 -56 -34 -88 19 -83 145 -77 161 8 12 62 -77 118 -127 80z"/>
<path d="M5795 4065 c-53 -52 -18 -135 56 -135 45 0 79 34 79 79 0 42 -38 81 -80 81 -19 0 -40 -9 -55 -25z"/>
<path d="M5999 4061 c-33 -33 -35 -50 -14 -90 25 -49 90 -57 130 -16 27 26 31 54 13 88 -29 55 -84 63 -129 18z"/>
<path d="M6205 4065 c-51 -50 -17 -135 54 -135 49 0 81 32 81 82 0 70 -86 103 -135 53z"/>
<path d="M6422 4074 c-32 -22 -43 -57 -31 -94 13 -36 36 -50 83 -50 25 0 40 7 55 26 60 76 -29 173 -107 118z"/>
<path d="M6615 4065 c-52 -51 -17 -135 56 -135 79 0 111 85 53 138 -33 29 -78 29 -109 -3z"/>
<path d="M6826 4069 c-20 -16 -26 -29 -26 -58 0 -49 32 -81 82 -81 70 0 103 86 53 135 -30 31 -73 32 -109 4z"/>
<path d="M7039 4077 c-21 -16 -39 -51 -39 -77 0 -48 71 -84 125 -64 24 10 46 60 39 89 -13 52 -86 82 -125 52z"/>
<path d="M7235 4065 c-53 -52 -18 -135 56 -135 45 0 79 34 79 79 0 42 -38 81 -80 81 -19 0 -40 -9 -55 -25z"/>
<path d="M7435 4058 c-31 -37 -29 -82 6 -110 47 -39 123 -12 135 48 8 44 -35 94 -81 94 -25 0 -40 -8 -60 -32z"/>
<path d="M7645 4065 c-53 -52 -18 -135 56 -135 45 0 79 34 79 79 0 42 -38 81 -80 81 -19 0 -40 -9 -55 -25z"/>
<path d="M7857 4070 c-33 -26 -41 -63 -23 -99 26 -49 91 -57 131 -16 71 70 -29 177 -108 115z"/>
<path d="M47 3860 c-59 -47 -30 -139 44 -140 71 -1 105 85 54 135 -29 30 -64 32 -98 5z"/>
<path d="M263 3870 c-73 -30 -44 -150 37 -150 36 0 80 38 80 69 0 33 -21 68 -47 80 -28 13 -40 13 -70 1z"/>
<path d="M456 3859 c-55 -43 -21 -139 50 -139 69 0 102 97 48 139 -15 12 -37 21 -49 21 -12 0 -34 -9 -49 -21z"/>
<path d="M674 3869 c-47 -24 -56 -87 -19 -124 69 -70 180 29 118 104 -21 25 -70 35 -99 20z"/>
<path d="M866 3859 c-56 -44 -20 -140 53 -139 75 1 103 100 39 144 -30 22 -60 20 -92 -5z"/>
<path d="M1083 3868 c-28 -13 -46 -58 -37 -92 14 -57 86 -74 129 -31 65 64 -8 163 -92 123z"/>
<path d="M1275 3855 c-64 -63 4 -161 90 -129 18 7 45 55 45 79 0 26 -55 75 -85 75 -14 0 -37 -11 -50 -25z"/>
<path d="M1479 3851 c-33 -33 -35 -50 -14 -90 24 -46 74 -55 119 -20 35 28 36 80 1 114 -33 33 -70 32 -106 -4z"/>
<path d="M1685 3855 c-68 -67 23 -175 102 -120 44 31 37 111 -13 134 -38 17 -63 13 -89 -14z"/>
<path d="M1894 3857 c-35 -31 -37 -77 -4 -112 48 -51 130 -16 130 55 0 70 -72 103 -126 57z"/>
<path d="M2113 3870 c-73 -30 -44 -150 37 -150 60 0 102 76 67 121 -15 19 -51 39 -69 38 -7 0 -23 -4 -35 -9z"/>
<path d="M2306 3859 c-55 -43 -21 -139 50 -139 70 0 102 92 49 138 -33 28 -65 28 -99 1z"/>
<path d="M2524 3869 c-47 -24 -56 -87 -19 -124 69 -70 180 29 118 104 -21 25 -70 35 -99 20z"/>
<path d="M2715 3855 c-51 -50 -17 -136 54 -135 74 1 103 93 44 140 -34 27 -69 25 -98 -5z"/>
<path d="M2919 3851 c-16 -16 -29 -37 -29 -46 0 -24 27 -72 45 -79 55 -21 115 18 115 74 0 39 -39 80 -75 80 -16 0 -38 -12 -56 -29z"/>
<path d="M3125 3855 c-63 -62 6 -161 90 -129 18 7 45 55 45 79 0 26 -55 75 -85 75 -14 0 -37 -11 -50 -25z"/>
<path d="M3329 3851 c-31 -32 -35 -50 -17 -84 26 -50 77 -61 122 -26 35 28 36 80 1 114 -33 33 -70 32 -106 -4z"/>
<path d="M3553 3870 c-72 -29 -44 -150 34 -150 83 0 111 115 37 149 -29 13 -41 13 -71 1z"/>
<path d="M3744 3857 c-54 -47 -20 -137 51 -137 70 0 103 96 49 139 -35 27 -66 26 -100 -2z"/>
<path d="M3965 3868 c-51 -27 -60 -84 -20 -123 62 -63 161 6 129 90 -7 17 -54 45 -76 45 -7 0 -22 -6 -33 -12z"/>
<path d="M4156 3859 c-55 -43 -21 -139 50 -139 70 0 103 91 50 137 -34 28 -65 29 -100 2z"/>
<path d="M4373 3868 c-47 -23 -53 -103 -10 -133 74 -52 166 45 110 114 -21 25 -70 35 -100 19z"/>
<path d="M4565 3855 c-35 -34 -34 -86 1 -114 45 -35 96 -24 122 26 18 34 14 52 -17 84 -36 36 -73 37 -106 4z"/>
<path d="M4769 3851 c-16 -16 -29 -37 -29 -46 0 -24 27 -72 45 -79 55 -21 115 18 115 74 0 39 -39 80 -75 80 -16 0 -38 -12 -56 -29z"/>
<path d="M4975 3855 c-63 -62 6 -161 90 -129 18 7 45 55 45 79 0 26 -55 75 -85 75 -14 0 -37 -11 -50 -25z"/>
<path d="M5187 3860 c-59 -47 -30 -139 44 -140 71 -1 105 85 54 135 -29 30 -64 32 -98 5z"/>
<path d="M5403 3870 c-73 -30 -44 -150 37 -150 36 0 80 38 80 69 0 33 -21 68 -47 80 -28 13 -40 13 -70 1z"/>
<path d="M5595 3858 c-54 -47 -21 -138 50 -138 70 0 103 96 49 139 -34 27 -66 27 -99 -1z"/>
<path d="M5815 3868 c-51 -30 -60 -84 -20 -123 69 -70 180 29 118 104 -22 26 -71 35 -98 19z"/>
<path d="M6006 3859 c-56 -44 -20 -139 54 -139 66 0 97 92 46 137 -34 28 -65 29 -100 2z"/>
<path d="M6223 3868 c-28 -13 -46 -58 -37 -92 14 -57 86 -74 129 -31 65 64 -8 163 -92 123z"/>
<path d="M6415 3855 c-64 -63 4 -161 90 -129 18 7 45 55 45 79 0 26 -55 75 -85 75 -14 0 -37 -11 -50 -25z"/>
<path d="M6619 3851 c-33 -33 -35 -50 -14 -90 24 -46 74 -55 119 -20 35 28 36 80 1 114 -33 33 -70 32 -106 -4z"/>
<path d="M6825 3855 c-68 -67 23 -175 102 -120 44 31 37 111 -13 134 -38 17 -63 13 -89 -14z"/>
<path d="M7042 3864 c-64 -44 -36 -143 39 -144 44 0 79 35 79 80 0 65 -66 101 -118 64z"/>
<path d="M7253 3870 c-73 -30 -44 -150 37 -150 36 0 80 38 80 69 0 33 -21 68 -47 80 -28 13 -40 13 -70 1z"/>
<path d="M7446 3859 c-55 -43 -21 -139 50 -139 69 0 102 97 48 139 -15 12 -37 21 -49 21 -12 0 -34 -9 -49 -21z"/>
<path d="M7664 3869 c-47 -24 -56 -87 -19 -124 69 -70 180 29 118 104 -21 25 -70 35 -99 20z"/>
<path d="M7855 3855 c-51 -50 -17 -136 54 -135 74 1 103 93 44 140 -34 27 -69 25 -98 -5z"/>
<path d="M63 3660 c-50 -20 -59 -96 -16 -130 64 -50 146 18 117 95 -6 15 -54 46 -71 44 -4 0 -18 -4 -30 -9z"/>
<path d="M249 3641 c-16 -16 -29 -36 -29 -45 0 -54 60 -99 105 -78 58 27 67 93 18 132 -35 27 -59 25 -94 -9z"/>
<path d="M473 3660 c-44 -18 -57 -81 -24 -121 42 -52 131 -17 131 51 0 53 -57 91 -107 70z"/>
<path d="M659 3641 c-16 -16 -29 -39 -29 -51 0 -25 51 -80 74 -80 43 0 86 43 86 86 0 23 -55 74 -80 74 -12 0 -35 -13 -51 -29z"/>
<path d="M885 3659 c-47 -27 -60 -79 -27 -118 44 -53 132 -24 132 44 0 58 -59 100 -105 74z"/>
<path d="M1074 3647 c-20 -17 -27 -33 -27 -57 0 -34 39 -80 68 -80 29 0 64 24 76 51 15 37 -2 82 -37 98 -36 16 -50 14 -80 -12z"/>
<path d="M1288 3655 c-51 -28 -50 -103 2 -130 38 -20 52 -19 84 6 20 16 26 29 26 58 0 62 -58 95 -112 66z"/>
<path d="M1510 3663 c-57 -21 -70 -96 -23 -133 64 -50 146 18 117 95 -6 15 -55 46 -71 44 -4 0 -15 -3 -23 -6z"/>
<path d="M1703 3658 c-32 -16 -48 -61 -34 -97 12 -27 47 -51 76 -51 29 0 68 46 68 80 0 24 -7 40 -27 57 -29 25 -49 28 -83 11z"/>
<path d="M1913 3660 c-48 -19 -57 -87 -17 -127 20 -20 31 -24 57 -19 76 15 93 107 26 141 -32 17 -35 17 -66 5z"/>
<path d="M2099 3641 c-16 -16 -29 -39 -29 -51 0 -28 52 -80 80 -80 28 0 80 52 80 80 0 28 -52 80 -80 80 -12 0 -35 -13 -51 -29z"/>
<path d="M2323 3660 c-68 -28 -51 -132 24 -146 26 -5 37 -1 57 19 61 61 -2 160 -81 127z"/>
<path d="M2514 3647 c-20 -17 -27 -33 -27 -57 0 -34 39 -80 68 -80 42 0 85 43 85 86 0 22 -55 74 -79 74 -11 0 -32 -11 -47 -23z"/>
<path d="M2735 3659 c-47 -27 -60 -79 -27 -118 44 -53 132 -24 132 44 0 58 -59 100 -105 74z"/>
<path d="M2945 3660 c-54 -21 -65 -89 -21 -127 15 -12 34 -23 42 -23 29 0 74 31 80 55 9 34 -12 80 -42 94 -29 13 -32 13 -59 1z"/>
<path d="M3145 3658 c-48 -28 -60 -83 -25 -118 52 -52 123 -26 128 47 2 28 -2 44 -15 55 -25 23 -64 30 -88 16z"/>
<path d="M3360 3663 c-57 -21 -70 -96 -23 -133 64 -50 146 18 117 95 -6 15 -55 46 -71 44 -4 0 -15 -3 -23 -6z"/>
<path d="M3539 3641 c-32 -32 -35 -47 -18 -84 11 -24 47 -47 74 -47 29 0 68 46 68 80 0 24 -7 40 -27 57 -36 31 -61 29 -97 -6z"/>
<path d="M3763 3660 c-48 -20 -57 -87 -17 -127 20 -20 31 -24 57 -19 39 7 67 39 67 76 0 53 -57 91 -107 70z"/>
<path d="M3949 3641 c-16 -16 -29 -39 -29 -51 0 -12 13 -35 29 -51 16 -16 39 -29 51 -29 28 0 80 52 80 80 0 12 -13 35 -29 51 -16 16 -39 29 -51 29 -12 0 -35 -13 -51 -29z"/>
<path d="M4173 3660 c-68 -28 -51 -132 24 -146 26 -5 37 -1 57 19 61 61 -2 160 -81 127z"/>
<path d="M4364 3647 c-20 -17 -27 -33 -27 -57 0 -34 39 -80 68 -80 42 0 85 43 85 86 0 22 -55 74 -79 74 -11 0 -32 -11 -47 -23z"/>
<path d="M4585 3659 c-47 -27 -60 -79 -27 -118 46 -55 132 -24 132 48 0 57 -58 96 -105 70z"/>
<path d="M4795 3660 c-33 -13 -46 -36 -43 -76 4 -47 43 -80 82 -70 78 19 89 107 19 144 -25 14 -30 14 -58 2z"/>
<path d="M4993 3658 c-27 -13 -47 -60 -39 -93 6 -24 51 -55 80 -55 8 0 27 11 42 23 66 57 -5 164 -83 125z"/>
<path d="M5203 3660 c-50 -20 -59 -96 -16 -130 64 -50 146 18 117 95 -6 15 -54 46 -71 44 -4 0 -18 -4 -30 -9z"/>
<path d="M5389 3641 c-32 -32 -35 -47 -18 -84 11 -24 47 -47 74 -47 29 0 68 46 68 80 0 24 -7 40 -27 57 -36 31 -61 29 -97 -6z"/>
<path d="M5613 3660 c-48 -20 -57 -87 -17 -127 20 -20 31 -24 57 -19 39 7 67 39 67 76 0 53 -57 91 -107 70z"/>
<path d="M5799 3641 c-16 -16 -29 -39 -29 -51 0 -28 52 -80 80 -80 28 0 80 52 80 80 0 28 -52 80 -80 80 -12 0 -35 -13 -51 -29z"/>
<path d="M6023 3660 c-68 -28 -51 -132 24 -146 26 -5 37 -1 57 19 61 61 -2 160 -81 127z"/>
<path d="M6214 3647 c-20 -17 -27 -33 -27 -57 0 -34 39 -80 68 -80 29 0 64 24 76 51 15 37 -2 82 -37 98 -36 16 -50 14 -80 -12z"/>
<path d="M6435 3659 c-47 -27 -60 -79 -27 -118 46 -55 132 -24 132 48 0 57 -58 96 -105 70z"/>
<path d="M6650 3663 c-56 -21 -70 -96 -24 -132 15 -12 33 -21 41 -21 28 0 73 31 79 55 10 39 -4 73 -36 90 -31 16 -36 17 -60 8z"/>
<path d="M6843 3658 c-32 -16 -48 -61 -34 -97 12 -27 47 -51 76 -51 29 0 68 46 68 80 0 24 -7 40 -27 57 -29 25 -49 28 -83 11z"/>
<path d="M7053 3660 c-50 -20 -59 -96 -16 -130 64 -50 146 18 117 95 -6 15 -54 46 -71 44 -4 0 -18 -4 -30 -9z"/>
<path d="M7239 3641 c-16 -16 -29 -36 -29 -45 0 -43 43 -86 86 -86 23 0 74 55 74 80 0 28 -52 80 -80 80 -12 0 -35 -13 -51 -29z"/>
<path d="M7463 3660 c-44 -18 -57 -81 -24 -121 42 -52 131 -17 131 51 0 53 -57 91 -107 70z"/>
<path d="M7657 3650 c-49 -39 -40 -105 18 -132 45 -21 105 24 105 78 0 22 -55 74 -78 74 -11 0 -31 -9 -45 -20z"/>
<path d="M7875 3659 c-47 -27 -60 -79 -27 -118 44 -53 132 -24 132 44 0 58 -59 100 -105 74z"/>
<path d="M40 3430 c-11 -11 -20 -33 -20 -50 0 -67 88 -96 129 -44 26 34 26 54 0 88 -26 33 -79 36 -109 6z"/>
<path d="M247 3432 c-23 -25 -22 -85 1 -105 28 -25 87 -22 106 5 22 30 20 81 -2 101 -25 23 -85 22 -105 -1z"/>
<path d="M450 3428 c-42 -46 -8 -118 57 -118 36 0 73 38 73 74 0 59 -88 89 -130 44z"/>
<path d="M657 3432 c-21 -23 -22 -71 -1 -100 20 -28 83 -31 107 -4 23 25 22 85 -1 105 -25 23 -85 22 -105 -1z"/>
<path d="M861 3424 c-12 -15 -21 -34 -21 -44 0 -10 9 -29 21 -44 41 -52 129 -23 129 44 0 67 -88 96 -129 44z"/>
<path d="M1066 3428 c-37 -53 -5 -118 57 -118 42 0 70 29 70 70 0 43 -28 70 -74 70 -28 0 -42 -6 -53 -22z"/>
<path d="M1271 3424 c-12 -15 -21 -34 -21 -44 0 -10 9 -29 21 -44 41 -52 129 -23 129 44 0 67 -88 96 -129 44z"/>
<path d="M1480 3430 c-45 -45 -11 -120 54 -120 37 0 76 36 76 70 0 10 -9 29 -21 44 -26 33 -79 36 -109 6z"/>
<path d="M1685 3430 c-42 -46 -10 -120 52 -120 62 0 94 65 57 118 -20 29 -83 31 -109 2z"/>
<path d="M1890 3430 c-44 -44 -10 -120 55 -120 36 0 75 36 75 70 0 10 -9 29 -21 44 -26 33 -79 36 -109 6z"/>
<path d="M2097 3432 c-23 -25 -22 -85 1 -105 25 -23 85 -22 105 1 23 25 22 85 -1 105 -25 23 -85 22 -105 -1z"/>
<path d="M2306 3434 c-46 -45 -19 -116 47 -122 66 -6 102 68 57 116 -25 26 -81 30 -104 6z"/>
<path d="M2506 3428 c-37 -53 -5 -118 57 -118 42 0 70 29 70 70 0 43 -28 70 -74 70 -28 0 -42 -6 -53 -22z"/>
<path d="M2711 3424 c-12 -15 -21 -34 -21 -44 0 -10 9 -29 21 -44 41 -52 129 -23 129 44 0 67 -88 96 -129 44z"/>
<path d="M2920 3430 c-45 -45 -11 -120 54 -120 37 0 76 36 76 70 0 10 -9 29 -21 44 -26 33 -79 36 -109 6z"/>
<path d="M3121 3424 c-12 -15 -21 -34 -21 -44 0 -10 9 -29 21 -44 41 -52 129 -23 129 44 0 67 -88 96 -129 44z"/>
<path d="M3330 3430 c-45 -45 -11 -120 54 -120 37 0 76 36 76 70 0 10 -9 29 -21 44 -26 33 -79 36 -109 6z"/>
<path d="M3535 3430 c-42 -46 -10 -120 52 -120 62 0 94 65 57 118 -20 29 -83 31 -109 2z"/>
<path d="M3740 3430 c-44 -44 -10 -120 55 -120 36 0 75 36 75 70 0 10 -9 29 -21 44 -26 33 -79 36 -109 6z"/>
<path d="M3947 3432 c-23 -25 -22 -85 1 -105 25 -23 85 -22 105 1 23 25 22 85 -1 105 -25 23 -85 22 -105 -1z"/>
<path d="M4151 3424 c-12 -15 -21 -34 -21 -44 0 -10 9 -29 21 -44 41 -52 129 -21 129 46 0 65 -88 94 -129 42z"/>
<path d="M4356 3428 c-37 -53 -5 -118 57 -118 42 0 70 29 70 70 0 43 -28 70 -74 70 -28 0 -42 -6 -53 -22z"/>
<path d="M4561 3424 c-12 -15 -21 -34 -21 -44 0 -10 9 -29 21 -44 41 -52 129 -23 129 44 0 67 -88 96 -129 44z"/>
<path d="M4770 3430 c-45 -45 -11 -120 54 -120 37 0 76 36 76 70 0 10 -9 29 -21 44 -26 33 -79 36 -109 6z"/>
<path d="M4971 3424 c-12 -15 -21 -34 -21 -44 0 -10 9 -29 21 -44 41 -52 129 -23 129 44 0 67 -88 96 -129 44z"/>
<path d="M5180 3430 c-45 -45 -11 -120 54 -120 37 0 76 36 76 70 0 10 -9 29 -21 44 -26 33 -79 36 -109 6z"/>
<path d="M5385 3430 c-42 -46 -10 -120 52 -120 62 0 94 65 57 118 -20 29 -83 31 -109 2z"/>
<path d="M5590 3428 c-45 -48 -9 -122 57 -116 66 6 93 77 47 122 -23 24 -79 20 -104 -6z"/>
<path d="M5797 3432 c-23 -25 -22 -85 1 -105 25 -23 85 -22 105 1 23 25 22 85 -1 105 -25 23 -85 22 -105 -1z"/>
<path d="M6001 3424 c-12 -15 -21 -34 -21 -44 0 -10 9 -29 21 -44 41 -52 129 -21 129 46 0 65 -88 94 -129 42z"/>
<path d="M6206 3428 c-37 -53 -5 -118 57 -118 42 0 70 29 70 70 0 43 -28 70 -74 70 -28 0 -42 -6 -53 -22z"/>
<path d="M6411 3424 c-12 -15 -21 -34 -21 -44 0 -10 9 -29 21 -44 41 -52 129 -23 129 44 0 67 -88 96 -129 44z"/>
<path d="M6620 3430 c-45 -45 -11 -120 54 -120 37 0 76 36 76 70 0 10 -9 29 -21 44 -26 33 -79 36 -109 6z"/>
<path d="M6825 3430 c-42 -46 -10 -120 52 -120 62 0 94 65 57 118 -20 29 -83 31 -109 2z"/>
<path d="M7030 3430 c-45 -45 -11 -120 54 -120 37 0 76 36 76 70 0 10 -9 29 -21 44 -26 33 -79 36 -109 6z"/>
<path d="M7237 3432 c-23 -25 -22 -85 1 -105 28 -25 87 -22 106 5 22 30 20 81 -2 101 -25 23 -85 22 -105 -1z"/>
<path d="M7440 3428 c-26 -28 -26 -58 1 -92 40 -51 129 -20 129 45 0 62 -87 93 -130 47z"/>
<path d="M7647 3432 c-21 -23 -22 -71 -1 -100 20 -28 83 -31 107 -4 23 25 22 85 -1 105 -25 23 -85 22 -105 -1z"/>
<path d="M7851 3424 c-12 -15 -21 -34 -21 -44 0 -10 9 -29 21 -44 41 -52 129 -23 129 44 0 67 -88 96 -129 44z"/>
<path d="M41 3214 c-27 -35 -26 -59 4 -89 45 -46 118 -19 118 43 0 69 -80 99 -122 46z"/>
<path d="M250 3220 c-43 -43 -11 -120 48 -120 36 0 72 37 72 73 0 36 -33 67 -70 67 -17 0 -39 -9 -50 -20z"/>
<path d="M451 3214 c-27 -35 -26 -59 4 -89 63 -63 160 18 105 88 -29 37 -80 37 -109 1z"/>
<path d="M660 3220 c-27 -27 -26 -71 3 -98 46 -44 117 -14 117 48 0 38 -32 70 -70 70 -17 0 -39 -9 -50 -20z"/>
<path d="M865 3220 c-26 -29 -24 -79 4 -102 32 -25 67 -23 96 7 30 30 31 54 4 89 -26 33 -77 36 -104 6z"/>
<path d="M1070 3220 c-27 -27 -26 -71 3 -98 46 -44 117 -14 117 48 0 38 -32 70 -70 70 -17 0 -39 -9 -50 -20z"/>
<path d="M1277 3222 c-40 -44 -6 -122 52 -122 32 0 71 39 71 70 0 10 -9 29 -21 44 -25 32 -77 36 -102 8z"/>
<path d="M1481 3214 c-12 -15 -21 -34 -21 -44 0 -10 9 -29 21 -44 41 -52 119 -21 119 47 0 66 -78 93 -119 41z"/>
<path d="M1690 3220 c-43 -43 -11 -120 48 -120 36 0 72 37 72 73 0 36 -33 67 -70 67 -17 0 -39 -9 -50 -20z"/>
<path d="M1891 3214 c-27 -35 -26 -59 4 -89 45 -46 118 -19 118 43 0 69 -80 99 -122 46z"/>
<path d="M2100 3220 c-43 -43 -11 -120 48 -120 36 0 72 37 72 73 0 36 -33 67 -70 67 -17 0 -39 -9 -50 -20z"/>
<path d="M2300 3213 c-55 -70 42 -151 105 -88 30 30 31 54 4 89 -29 36 -80 36 -109 -1z"/>
<path d="M2510 3220 c-27 -27 -26 -71 3 -98 46 -44 117 -14 117 48 0 17 -9 39 -20 50 -11 11 -33 20 -50 20 -17 0 -39 -9 -50 -20z"/>
<path d="M2715 3220 c-26 -29 -24 -79 4 -102 32 -25 67 -23 96 7 30 30 31 54 4 89 -26 33 -77 36 -104 6z"/>
<path d="M2920 3218 c-26 -28 -26 -58 1 -92 41 -53 119 -21 119 48 0 61 -77 90 -120 44z"/>
<path d="M3127 3222 c-40 -44 -6 -122 52 -122 34 0 71 39 71 75 0 53 -88 86 -123 47z"/>
<path d="M3331 3214 c-27 -35 -26 -59 4 -89 47 -48 115 -22 115 44 0 70 -77 99 -119 45z"/>
<path d="M3540 3220 c-43 -43 -11 -120 48 -120 36 0 72 37 72 73 0 36 -33 67 -70 67 -17 0 -39 -9 -50 -20z"/>
<path d="M3741 3214 c-27 -35 -26 -59 4 -89 45 -46 118 -19 118 43 0 69 -80 99 -122 46z"/>
<path d="M3950 3220 c-27 -27 -26 -71 3 -98 30 -28 68 -28 95 1 44 46 14 117 -48 117 -17 0 -39 -9 -50 -20z"/>
<path d="M4155 3220 c-26 -29 -24 -79 4 -102 32 -25 67 -23 96 7 30 30 31 54 4 89 -26 33 -77 36 -104 6z"/>
<path d="M4360 3220 c-27 -27 -26 -71 3 -98 46 -44 117 -14 117 48 0 17 -9 39 -20 50 -11 11 -33 20 -50 20 -17 0 -39 -9 -50 -20z"/>
<path d="M4567 3222 c-25 -28 -22 -87 5 -106 32 -23 65 -20 93 9 30 30 31 54 4 89 -25 32 -77 36 -102 8z"/>
<path d="M4770 3218 c-59 -64 38 -160 100 -98 26 26 26 81 2 103 -26 24 -77 21 -102 -5z"/>
<path d="M4982 3224 c-49 -34 -15 -124 47 -124 34 0 71 39 71 74 0 54 -70 84 -118 50z"/>
<path d="M5181 3214 c-27 -35 -26 -59 4 -89 45 -46 115 -20 117 43 2 69 -79 100 -121 46z"/>
<path d="M5390 3220 c-43 -43 -11 -120 48 -120 36 0 72 37 72 73 0 36 -33 67 -70 67 -17 0 -39 -9 -50 -20z"/>
<path d="M5591 3214 c-27 -35 -26 -59 4 -89 63 -63 160 18 105 88 -29 37 -80 37 -109 1z"/>
<path d="M5800 3220 c-27 -27 -26 -71 3 -98 46 -44 117 -14 117 48 0 38 -32 70 -70 70 -17 0 -39 -9 -50 -20z"/>
<path d="M6005 3220 c-26 -29 -24 -79 4 -102 32 -25 67 -23 96 7 30 30 31 54 4 89 -26 33 -77 36 -104 6z"/>
<path d="M6210 3220 c-27 -27 -26 -71 3 -98 46 -44 117 -14 117 48 0 38 -32 70 -70 70 -17 0 -39 -9 -50 -20z"/>
<path d="M6417 3222 c-40 -44 -6 -122 52 -122 32 0 71 39 71 70 0 10 -9 29 -21 44 -25 32 -77 36 -102 8z"/>
<path d="M6621 3214 c-12 -15 -21 -34 -21 -44 0 -10 9 -29 21 -44 41 -52 119 -21 119 47 0 66 -78 93 -119 41z"/>
<path d="M6830 3220 c-43 -43 -11 -120 48 -120 36 0 72 37 72 73 0 36 -33 67 -70 67 -17 0 -39 -9 -50 -20z"/>
<path d="M7031 3214 c-27 -35 -26 -59 4 -89 45 -46 118 -19 118 43 0 69 -80 99 -122 46z"/>
<path d="M7240 3220 c-43 -43 -11 -120 48 -120 36 0 72 37 72 73 0 36 -33 67 -70 67 -17 0 -39 -9 -50 -20z"/>
<path d="M7440 3213 c-55 -70 42 -151 105 -88 30 30 31 54 4 89 -29 36 -80 36 -109 -1z"/>
<path d="M7650 3220 c-27 -27 -26 -71 3 -98 46 -44 117 -14 117 48 0 38 -32 70 -70 70 -17 0 -39 -9 -50 -20z"/>
<path d="M7855 3220 c-26 -29 -24 -79 4 -102 32 -25 67 -23 96 7 30 30 31 54 4 89 -26 33 -77 36 -104 6z"/>
<path d="M57 3019 c-45 -26 -37 -98 14 -120 26 -10 34 -9 57 8 71 53 5 156 -71 112z"/>
<path d="M252 3007 c-12 -13 -22 -33 -22 -46 0 -28 42 -71 70 -71 26 0 70 43 70 68 0 11 -9 31 -21 46 -26 33 -68 34 -97 3z"/>
<path d="M460 3010 c-53 -53 7 -143 72 -109 30 16 38 28 38 62 0 34 -32 67 -65 67 -14 0 -34 -9 -45 -20z"/>
<path d="M661 3004 c-12 -15 -21 -35 -21 -46 0 -25 44 -68 70 -68 28 0 70 43 70 73 0 31 -39 67 -72 67 -17 0 -34 -10 -47 -26z"/>
<path d="M869 3009 c-28 -28 -22 -76 13 -102 23 -17 31 -18 57 -8 52 22 59 95 12 120 -30 17 -59 13 -82 -10z"/>
<path d="M1071 3004 c-27 -35 -26 -59 4 -89 30 -30 54 -31 89 -4 33 26 34 68 3 97 -32 30 -71 28 -96 -4z"/>
<path d="M1279 3009 c-28 -28 -22 -76 13 -102 23 -17 31 -18 57 -8 37 16 57 60 42 90 -24 44 -78 54 -112 20z"/>
<path d="M1497 3019 c-47 -28 -38 -98 15 -120 25 -10 33 -9 56 8 71 53 5 156 -71 112z"/>
<path d="M1692 3007 c-12 -13 -22 -33 -22 -46 0 -28 42 -71 70 -71 26 0 70 43 70 68 0 11 -9 31 -21 46 -26 33 -68 34 -97 3z"/>
<path d="M1902 3014 c-15 -10 -22 -25 -22 -49 0 -59 54 -91 99 -58 74 55 -1 160 -77 107z"/>
<path d="M2102 3007 c-12 -13 -22 -33 -22 -46 0 -28 42 -71 70 -71 26 0 70 43 70 68 0 11 -9 31 -21 46 -26 33 -68 34 -97 3z"/>
<path d="M2309 3009 c-28 -28 -22 -76 12 -102 43 -32 99 -2 99 54 0 60 -69 90 -111 48z"/>
<path d="M2511 3004 c-12 -15 -21 -35 -21 -46 0 -25 44 -68 70 -68 28 0 70 43 70 73 0 31 -39 67 -72 67 -17 0 -34 -10 -47 -26z"/>
<path d="M2719 3009 c-28 -28 -22 -76 13 -102 23 -17 31 -18 56 -8 37 15 55 52 42 85 -18 47 -76 60 -111 25z"/>
<path d="M2920 3003 c-25 -32 -20 -69 12 -95 27 -23 49 -23 82 3 33 26 34 68 3 97 -32 30 -71 28 -97 -5z"/>
<path d="M3130 3010 c-29 -29 -26 -74 6 -99 41 -32 76 -24 102 26 17 31 15 41 -13 68 -29 30 -68 32 -95 5z"/>
<path d="M3347 3019 c-47 -28 -38 -98 15 -120 25 -10 33 -9 56 8 71 53 5 156 -71 112z"/>
<path d="M3542 3007 c-12 -13 -22 -33 -22 -46 0 -28 42 -71 70 -71 26 0 70 43 70 68 0 11 -9 31 -21 46 -26 33 -68 34 -97 3z"/>
<path d="M3752 3014 c-15 -10 -22 -25 -22 -49 0 -59 54 -91 99 -58 74 55 -1 160 -77 107z"/>
<path d="M3952 3007 c-12 -13 -22 -33 -22 -46 0 -28 42 -71 70 -71 28 0 70 43 70 73 0 30 -39 67 -71 67 -14 0 -35 -10 -47 -23z"/>
<path d="M4159 3009 c-28 -28 -22 -76 12 -102 45 -33 99 -1 99 58 0 59 -69 86 -111 44z"/>
<path d="M4361 3004 c-12 -15 -21 -35 -21 -46 0 -25 44 -68 70 -68 28 0 70 43 70 73 0 31 -39 67 -72 67 -17 0 -34 -10 -47 -26z"/>
<path d="M4569 3009 c-28 -28 -22 -76 13 -102 23 -17 31 -18 56 -8 37 15 55 52 42 85 -18 47 -76 60 -111 25z"/>
<path d="M4775 3005 c-29 -28 -30 -36 -10 -75 31 -60 116 -41 123 28 7 64 -66 95 -113 47z"/>
<path d="M4982 3010 c-31 -29 -29 -73 4 -99 33 -26 55 -26 82 -3 32 26 37 63 12 95 -26 33 -67 36 -98 7z"/>
<path d="M5197 3019 c-47 -28 -38 -98 15 -120 25 -10 33 -9 56 8 71 53 5 156 -71 112z"/>
<path d="M5392 3007 c-12 -13 -22 -33 -22 -46 0 -28 42 -71 70 -71 26 0 70 43 70 68 0 11 -9 31 -21 46 -26 33 -68 34 -97 3z"/>
<path d="M5600 3010 c-57 -57 15 -150 79 -103 34 26 40 74 12 102 -27 27 -65 27 -91 1z"/>
<path d="M5801 3004 c-12 -15 -21 -35 -21 -46 0 -25 44 -68 70 -68 28 0 70 43 70 73 0 31 -39 67 -72 67 -17 0 -34 -10 -47 -26z"/>
<path d="M6009 3009 c-28 -28 -22 -76 12 -102 45 -33 99 -1 99 58 0 59 -69 86 -111 44z"/>
<path d="M6211 3004 c-12 -15 -21 -35 -21 -46 0 -25 44 -68 70 -68 28 0 70 43 70 73 0 31 -39 67 -72 67 -17 0 -34 -10 -47 -26z"/>
<path d="M6419 3009 c-28 -28 -22 -76 13 -102 23 -17 31 -18 56 -8 37 15 55 52 42 85 -18 47 -76 60 -111 25z"/>
<path d="M6638 3019 c-50 -28 -42 -97 13 -120 26 -10 34 -9 57 8 71 52 5 156 -70 112z"/>
<path d="M6832 3007 c-30 -32 -28 -71 4 -96 35 -27 59 -26 89 4 30 30 31 54 4 89 -26 33 -68 34 -97 3z"/>
<path d="M7047 3019 c-45 -26 -37 -98 14 -120 26 -10 34 -9 57 8 71 53 5 156 -71 112z"/>
<path d="M7242 3007 c-12 -13 -22 -33 -22 -46 0 -28 42 -71 70 -71 26 0 70 43 70 68 0 11 -9 31 -21 46 -26 33 -68 34 -97 3z"/>
<path d="M7450 3010 c-53 -53 7 -143 72 -109 30 16 38 28 38 62 0 34 -32 67 -65 67 -14 0 -34 -9 -45 -20z"/>
<path d="M7651 3004 c-12 -15 -21 -35 -21 -46 0 -25 44 -68 70 -68 28 0 70 43 70 73 0 31 -39 67 -72 67 -17 0 -34 -10 -47 -26z"/>
<path d="M7859 3009 c-28 -28 -22 -76 13 -102 23 -17 31 -18 57 -8 52 22 59 95 12 120 -30 17 -59 13 -82 -10z"/>
<path d="M50 2800 c-43 -43 -14 -110 48 -110 57 0 82 68 39 108 -29 27 -61 28 -87 2z"/>
<path d="M255 2795 c-28 -27 -30 -37 -14 -68 25 -46 76 -51 108 -10 24 30 20 58 -11 86 -28 24 -55 21 -83 -8z"/>
<path d="M462 2800 c-45 -42 -17 -110 46 -110 34 0 62 30 62 67 0 28 -37 63 -65 63 -12 0 -31 -9 -43 -20z"/>
<path d="M677 2809 c-45 -26 -38 -103 10 -115 80 -21 125 77 53 116 -23 13 -40 12 -63 -1z"/>
<path d="M872 2797 c-41 -44 -16 -107 42 -107 60 0 88 68 46 110 -27 27 -62 25 -88 -3z"/>
<path d="M1082 2804 c-28 -19 -30 -74 -4 -97 25 -23 68 -21 92 3 27 27 25 56 -5 85 -28 29 -51 31 -83 9z"/>
<path d="M1282 2797 c-12 -13 -22 -33 -22 -45 0 -31 35 -62 68 -62 57 0 83 69 42 110 -27 27 -62 25 -88 -3z"/>
<path d="M1490 2800 c-25 -25 -26 -72 -2 -93 40 -36 112 -6 112 46 0 29 -39 67 -68 67 -12 0 -31 -9 -42 -20z"/>
<path d="M1695 2795 c-14 -13 -25 -33 -25 -45 0 -50 79 -80 113 -42 25 27 22 78 -5 96 -32 22 -55 20 -83 -9z"/>
<path d="M1900 2800 c-43 -43 -14 -110 48 -110 57 0 82 68 39 108 -29 27 -61 28 -87 2z"/>
<path d="M2118 2809 c-31 -18 -41 -47 -28 -80 21 -50 96 -52 118 -4 26 58 -36 116 -90 84z"/>
<path d="M2312 2800 c-43 -41 -17 -110 42 -110 39 0 66 26 66 63 0 31 -35 67 -65 67 -12 0 -31 -9 -43 -20z"/>
<path d="M2522 2803 c-31 -28 -35 -56 -11 -86 32 -41 83 -36 108 10 16 31 14 41 -14 68 -28 29 -55 32 -83 8z"/>
<path d="M2722 2797 c-41 -44 -16 -107 42 -107 60 0 88 68 46 110 -27 27 -62 25 -88 -3z"/>
<path d="M2932 2804 c-28 -19 -30 -74 -4 -97 25 -23 68 -21 92 3 27 27 25 56 -5 85 -28 29 -51 31 -83 9z"/>
<path d="M3135 2795 c-14 -13 -25 -33 -25 -45 0 -29 35 -60 68 -60 57 0 83 69 42 110 -27 27 -56 25 -85 -5z"/>
<path d="M3340 2800 c-25 -25 -26 -72 -2 -93 40 -36 112 -6 112 46 0 29 -39 67 -68 67 -12 0 -31 -9 -42 -20z"/>
<path d="M3545 2795 c-14 -13 -25 -32 -25 -43 0 -28 37 -62 69 -62 58 0 86 76 41 112 -30 25 -56 23 -85 -7z"/>
<path d="M3752 2800 c-45 -42 -17 -110 46 -110 57 0 82 68 39 108 -29 27 -57 28 -85 2z"/>
<path d="M3968 2809 c-47 -27 -42 -103 8 -115 81 -20 127 77 54 116 -23 12 -40 12 -62 -1z"/>
<path d="M4162 2797 c-41 -44 -16 -107 42 -107 61 0 89 68 44 110 -29 26 -59 25 -86 -3z"/>
<path d="M4370 2802 c-45 -36 -17 -112 41 -112 32 0 69 34 69 62 0 25 -44 68 -68 68 -11 0 -30 -8 -42 -18z"/>
<path d="M4572 2797 c-12 -13 -22 -33 -22 -45 0 -31 35 -62 68 -62 57 0 83 69 42 110 -27 27 -62 25 -88 -3z"/>
<path d="M4780 2800 c-41 -41 -14 -110 43 -110 32 0 67 32 67 60 0 27 -43 70 -70 70 -11 0 -29 -9 -40 -20z"/>
<path d="M4985 2795 c-14 -13 -25 -33 -25 -45 0 -50 79 -80 113 -42 25 27 22 78 -5 96 -32 22 -55 20 -83 -9z"/>
<path d="M5190 2800 c-43 -43 -14 -110 48 -110 57 0 82 68 39 108 -29 27 -61 28 -87 2z"/>
<path d="M5395 2795 c-28 -27 -30 -37 -14 -68 16 -29 28 -37 60 -37 56 0 83 77 39 112 -30 25 -56 23 -85 -7z"/>
<path d="M5602 2800 c-45 -42 -17 -110 46 -110 34 0 62 30 62 67 0 28 -37 63 -65 63 -12 0 -31 -9 -43 -20z"/>
<path d="M5817 2809 c-45 -26 -38 -103 10 -115 80 -21 125 77 53 116 -23 13 -40 12 -63 -1z"/>
<path d="M6012 2797 c-41 -44 -16 -107 42 -107 60 0 88 68 46 110 -27 27 -62 25 -88 -3z"/>
<path d="M6222 2804 c-28 -19 -30 -74 -4 -97 26 -24 67 -21 92 5 27 29 25 54 -5 83 -28 29 -51 31 -83 9z"/>
<path d="M6422 2797 c-12 -13 -22 -33 -22 -45 0 -31 35 -62 68 -62 57 0 83 69 42 110 -27 27 -62 25 -88 -3z"/>
<path d="M6630 2800 c-25 -25 -26 -72 -2 -93 40 -36 112 -6 112 46 0 29 -39 67 -68 67 -12 0 -31 -9 -42 -20z"/>
<path d="M6835 2795 c-14 -13 -25 -33 -25 -45 0 -50 79 -80 113 -42 25 27 22 78 -5 96 -32 22 -55 20 -83 -9z"/>
<path d="M7040 2800 c-43 -43 -14 -110 48 -110 57 0 82 68 39 108 -29 27 -61 28 -87 2z"/>
<path d="M7258 2809 c-31 -18 -41 -47 -28 -80 21 -50 96 -52 118 -4 26 58 -36 116 -90 84z"/>
<path d="M7452 2800 c-43 -41 -17 -110 42 -110 39 0 66 26 66 63 0 31 -35 67 -65 67 -12 0 -31 -9 -43 -20z"/>
<path d="M7667 2809 c-45 -26 -38 -103 10 -115 80 -21 125 77 53 116 -23 13 -40 12 -63 -1z"/>
<path d="M7862 2797 c-41 -44 -16 -107 42 -107 60 0 88 68 46 110 -27 27 -62 25 -88 -3z"/>
<path d="M56 2589 c-31 -25 -34 -61 -6 -89 28 -28 64 -25 89 6 27 34 26 50 -4 79 -29 30 -45 31 -79 4z"/>
<path d="M262 2594 c-44 -30 -19 -114 34 -114 57 0 85 69 44 110 -24 24 -48 25 -78 4z"/>
<path d="M465 2585 c-14 -13 -25 -32 -25 -43 0 -27 37 -62 65 -62 28 0 65 35 65 62 0 23 -43 68 -65 68 -9 0 -27 -11 -40 -25z"/>
<path d="M670 2590 c-27 -27 -26 -75 2 -94 46 -33 98 -7 98 47 0 32 -32 67 -60 67 -11 0 -29 -9 -40 -20z"/>
<path d="M875 2585 c-30 -29 -31 -45 -4 -79 25 -31 61 -34 89 -6 28 28 25 64 -6 89 -34 27 -50 26 -79 -4z"/>
<path d="M1095 2598 c-26 -15 -35 -28 -35 -55 0 -30 34 -63 63 -63 54 0 80 78 37 112 -26 21 -37 22 -65 6z"/>
<path d="M1285 2585 c-30 -29 -31 -45 -4 -79 25 -31 61 -34 89 -6 28 28 25 64 -6 89 -34 27 -50 26 -79 -4z"/>
<path d="M1496 2589 c-31 -25 -34 -61 -6 -89 28 -28 64 -25 89 6 27 34 26 50 -4 79 -29 30 -45 31 -79 4z"/>
<path d="M1700 2592 c-43 -34 -17 -112 37 -112 44 0 79 60 55 96 -8 13 -46 34 -60 34 -5 0 -20 -8 -32 -18z"/>
<path d="M1906 2589 c-31 -25 -34 -61 -6 -89 28 -28 64 -25 89 6 27 34 26 50 -4 79 -29 30 -45 31 -79 4z"/>
<path d="M2110 2590 c-38 -38 -15 -110 36 -110 34 0 64 29 64 61 0 33 -31 69 -60 69 -11 0 -29 -9 -40 -20z"/>
<path d="M2315 2585 c-30 -29 -32 -54 -5 -83 26 -27 64 -28 90 -2 28 28 25 64 -6 89 -34 27 -50 26 -79 -4z"/>
<path d="M2522 2590 c-44 -41 -16 -110 44 -110 51 0 75 84 32 114 -30 21 -50 20 -76 -4z"/>
<path d="M2725 2585 c-30 -29 -31 -45 -4 -79 25 -31 61 -34 89 -6 28 28 25 64 -6 89 -34 27 -50 26 -79 -4z"/>
<path d="M2945 2598 c-41 -23 -47 -66 -15 -98 28 -28 64 -25 89 7 24 30 20 58 -11 86 -23 20 -35 21 -63 5z"/>
<path d="M3135 2585 c-30 -29 -31 -45 -4 -79 25 -31 61 -34 89 -6 33 33 26 76 -17 99 -31 16 -41 14 -68 -14z"/>
<path d="M3346 2589 c-31 -25 -34 -61 -6 -89 28 -28 64 -25 89 6 27 34 26 50 -4 79 -29 30 -45 31 -79 4z"/>
<path d="M3552 2594 c-44 -30 -19 -114 34 -114 33 0 64 29 64 58 0 33 -8 45 -37 61 -28 14 -34 14 -61 -5z"/>
<path d="M3756 2589 c-31 -25 -34 -61 -6 -89 27 -27 62 -25 88 3 28 30 28 52 -3 82 -29 30 -45 31 -79 4z"/>
<path d="M3959 2589 c-29 -29 -23 -79 14 -99 24 -13 30 -13 55 0 52 30 31 120 -28 120 -11 0 -29 -9 -41 -21z"/>
<path d="M4165 2585 c-31 -30 -32 -55 -2 -83 29 -27 61 -28 87 -2 28 28 25 64 -6 89 -34 27 -50 26 -79 -4z"/>
<path d="M4385 2598 c-27 -15 -35 -28 -35 -60 0 -30 32 -58 66 -58 51 0 75 84 32 114 -26 19 -36 19 -63 4z"/>
<path d="M4575 2585 c-30 -29 -31 -45 -4 -79 25 -31 61 -34 89 -6 28 28 25 64 -6 89 -34 27 -50 26 -79 -4z"/>
<path d="M4795 2598 c-41 -23 -47 -66 -15 -98 28 -28 64 -25 89 6 27 34 26 50 -4 79 -27 28 -40 30 -70 13z"/>
<path d="M4992 2593 c-31 -28 -35 -56 -11 -86 25 -32 61 -35 89 -7 33 33 26 76 -17 99 -29 15 -37 14 -61 -6z"/>
<path d="M5196 2589 c-31 -25 -34 -61 -6 -89 28 -28 64 -25 89 6 27 34 26 50 -4 79 -29 30 -45 31 -79 4z"/>
<path d="M5402 2594 c-44 -30 -19 -114 34 -114 58 0 85 70 42 110 -26 24 -46 25 -76 4z"/>
<path d="M5606 2589 c-31 -25 -34 -61 -6 -89 26 -26 64 -25 90 2 27 29 25 54 -5 83 -29 30 -45 31 -79 4z"/>
<path d="M5810 2590 c-27 -27 -26 -75 2 -94 46 -33 98 -7 98 47 0 32 -32 67 -60 67 -11 0 -29 -9 -40 -20z"/>
<path d="M6015 2585 c-30 -29 -31 -45 -4 -79 25 -31 61 -34 89 -6 28 28 25 64 -6 89 -34 27 -50 26 -79 -4z"/>
<path d="M6235 2598 c-26 -15 -35 -28 -35 -55 0 -30 34 -63 63 -63 54 0 80 78 37 112 -26 21 -37 22 -65 6z"/>
<path d="M6425 2585 c-30 -29 -31 -45 -4 -79 25 -31 61 -34 89 -6 28 28 25 64 -6 89 -34 27 -50 26 -79 -4z"/>
<path d="M6636 2589 c-31 -25 -34 -61 -6 -89 28 -28 64 -25 89 6 27 34 26 50 -4 79 -29 30 -45 31 -79 4z"/>
<path d="M6840 2592 c-43 -34 -17 -112 37 -112 44 0 79 60 55 96 -8 13 -46 34 -60 34 -5 0 -20 -8 -32 -18z"/>
<path d="M7046 2589 c-31 -25 -34 -61 -6 -89 28 -28 64 -25 89 6 27 34 26 50 -4 79 -29 30 -45 31 -79 4z"/>
<path d="M7250 2590 c-38 -38 -15 -110 36 -110 34 0 64 29 64 61 0 33 -31 69 -60 69 -11 0 -29 -9 -40 -20z"/>
<path d="M7455 2585 c-14 -13 -25 -32 -25 -43 0 -27 37 -62 65 -62 28 0 65 35 65 62 0 23 -43 68 -65 68 -9 0 -27 -11 -40 -25z"/>
<path d="M7660 2590 c-27 -27 -26 -75 2 -94 46 -33 98 -7 98 47 0 32 -32 67 -60 67 -11 0 -29 -9 -40 -20z"/>
<path d="M7865 2585 c-30 -29 -31 -45 -4 -79 25 -31 61 -34 89 -6 28 28 25 64 -6 89 -34 27 -50 26 -79 -4z"/>
<path d="M72 2389 c-35 -13 -48 -53 -29 -83 36 -54 107 -36 107 28 0 47 -34 71 -78 55z"/>
<path d="M483 2389 c-48 -18 -53 -76 -8 -105 29 -19 60 -11 81 21 30 45 -21 104 -73 84z"/>
<path d="M888 2386 c-17 -8 -24 -21 -26 -48 -3 -30 1 -40 23 -54 32 -21 69 -8 87 30 22 49 -34 97 -84 72z"/>
<path d="M1304 2387 c-43 -24 -48 -78 -8 -104 23 -15 29 -15 52 -2 40 23 50 45 32 76 -18 32 -50 45 -76 30z"/>
<path d="M1512 2389 c-35 -13 -48 -53 -29 -83 22 -33 52 -41 82 -22 25 16 33 58 17 82 -14 21 -47 32 -70 23z"/>
<path d="M1922 2389 c-35 -13 -48 -53 -29 -83 36 -54 107 -36 107 28 0 47 -34 71 -78 55z"/>
<path d="M2332 2389 c-32 -12 -47 -56 -28 -85 21 -31 52 -39 81 -20 32 21 40 52 21 80 -18 28 -43 36 -74 25z"/>
<path d="M2738 2386 c-17 -8 -24 -21 -26 -48 -3 -30 1 -40 23 -54 32 -21 69 -8 87 30 22 49 -34 97 -84 72z"/>
<path d="M2955 2390 c-51 -19 -58 -70 -14 -103 32 -23 65 -16 81 18 22 50 -19 102 -67 85z"/>
<path d="M3154 2387 c-43 -24 -48 -78 -8 -104 23 -15 29 -15 52 -2 40 23 50 45 32 76 -18 32 -50 45 -76 30z"/>
<path d="M3362 2389 c-35 -13 -48 -53 -29 -83 22 -33 52 -41 82 -22 58 38 12 129 -53 105z"/>
<path d="M3772 2389 c-35 -13 -48 -53 -29 -83 22 -33 52 -41 81 -22 61 39 17 130 -52 105z"/>
<path d="M4182 2389 c-45 -17 -48 -78 -5 -106 49 -33 113 31 80 80 -18 29 -44 37 -75 26z"/>
<path d="M4600 2392 c-45 -13 -54 -82 -15 -108 32 -21 69 -7 87 30 19 42 -27 92 -72 78z"/>
<path d="M4800 2387 c-36 -18 -48 -61 -26 -86 27 -30 54 -35 81 -17 59 39 7 134 -55 103z"/>
<path d="M5002 2387 c-44 -20 -38 -97 9 -112 27 -9 73 23 77 54 7 43 -44 77 -86 58z"/>
<path d="M5212 2389 c-35 -13 -48 -53 -29 -83 36 -54 107 -36 107 28 0 47 -34 71 -78 55z"/>
<path d="M5623 2389 c-48 -18 -53 -76 -8 -105 29 -19 60 -11 81 21 30 45 -21 104 -73 84z"/>
<path d="M6028 2386 c-17 -8 -24 -21 -26 -48 -3 -30 1 -40 23 -54 32 -21 69 -8 87 30 22 49 -34 97 -84 72z"/>
<path d="M6444 2387 c-43 -23 -47 -78 -9 -103 32 -21 69 -7 87 30 21 46 -34 97 -78 73z"/>
<path d="M6650 2387 c-36 -18 -48 -61 -26 -86 27 -30 54 -35 81 -17 59 39 7 134 -55 103z"/>
<path d="M7062 2389 c-35 -13 -48 -53 -29 -83 36 -54 107 -36 107 28 0 47 -34 71 -78 55z"/>
<path d="M7472 2389 c-32 -12 -47 -56 -28 -85 21 -31 52 -39 81 -20 32 21 40 52 21 80 -18 28 -43 36 -74 25z"/>
<path d="M7878 2386 c-17 -8 -24 -21 -26 -48 -3 -30 1 -40 23 -54 32 -21 69 -8 87 30 22 49 -34 97 -84 72z"/>
<path d="M256 2374 c-22 -21 -20 -60 4 -84 23 -23 33 -24 63 -9 28 15 37 28 37 55 0 46 -71 72 -104 38z"/>
<path d="M667 2372 c-18 -19 -22 -49 -9 -68 8 -12 46 -34 59 -34 19 0 53 42 53 65 0 50 -69 75 -103 37z"/>
<path d="M1077 2372 c-24 -27 -21 -58 9 -81 33 -26 49 -26 74 -1 24 24 26 63 4 84 -21 22 -67 20 -87 -2z"/>
<path d="M1696 2374 c-9 -8 -16 -26 -16 -40 0 -26 32 -64 54 -64 24 0 66 41 66 64 0 48 -70 75 -104 40z"/>
<path d="M2107 2372 c-29 -32 -21 -69 21 -91 36 -19 82 11 82 55 0 47 -71 72 -103 36z"/>
<path d="M2517 2372 c-18 -19 -22 -49 -9 -68 8 -13 46 -34 61 -34 20 0 51 40 51 64 0 51 -69 76 -103 38z"/>
<path d="M3546 2374 c-9 -8 -16 -26 -16 -40 0 -26 32 -64 54 -64 24 0 66 41 66 64 0 48 -70 75 -104 40z"/>
<path d="M3957 2372 c-29 -32 -21 -69 21 -91 36 -19 82 11 82 55 0 47 -71 72 -103 36z"/>
<path d="M4367 2372 c-24 -27 -21 -58 9 -81 33 -26 49 -26 74 -1 24 24 26 63 4 84 -21 22 -67 20 -87 -2z"/>
<path d="M5396 2374 c-22 -21 -20 -60 4 -84 23 -23 33 -24 63 -9 28 15 37 28 37 55 0 46 -71 72 -104 38z"/>
<path d="M5807 2372 c-29 -32 -21 -69 21 -91 36 -19 82 11 82 55 0 47 -71 72 -103 36z"/>
<path d="M6217 2372 c-24 -27 -21 -58 9 -81 33 -26 49 -26 74 -1 24 24 26 63 4 84 -21 22 -67 20 -87 -2z"/>
<path d="M6836 2374 c-9 -8 -16 -26 -16 -40 0 -26 32 -64 54 -64 24 0 66 41 66 64 0 48 -70 75 -104 40z"/>
<path d="M7246 2374 c-22 -21 -20 -60 4 -84 23 -23 33 -24 63 -9 28 15 37 28 37 55 0 46 -71 72 -104 38z"/>
<path d="M7657 2372 c-18 -19 -22 -49 -9 -68 8 -13 46 -34 61 -34 20 0 51 40 51 64 0 51 -69 76 -103 38z"/>
<path d="M58 2169 c-25 -14 -24 -75 1 -89 45 -23 91 -1 91 45 0 46 -50 69 -92 44z"/>
<path d="M257 2162 c-22 -25 -21 -55 2 -76 27 -25 72 -17 90 15 13 24 13 29 -2 53 -21 31 -66 35 -90 8z"/>
<path d="M466 2164 c-34 -34 -9 -94 39 -94 30 0 55 25 55 55 0 30 -25 55 -55 55 -13 0 -31 -7 -39 -16z"/>
<path d="M663 2154 c-15 -24 -15 -29 -2 -53 28 -49 109 -32 109 24 0 54 -77 75 -107 29z"/>
<path d="M876 2164 c-33 -32 -9 -94 35 -94 39 0 59 19 59 55 0 24 -6 38 -19 45 -28 14 -57 12 -75 -6z"/>
<path d="M1073 2154 c-15 -24 -15 -29 -2 -53 28 -49 109 -32 109 24 0 54 -77 75 -107 29z"/>
<path d="M1287 2162 c-35 -38 -8 -92 45 -92 31 0 51 21 51 55 0 14 -6 32 -13 40 -17 21 -63 19 -83 -3z"/>
<path d="M1490 2165 c-7 -8 -12 -26 -12 -40 0 -34 19 -55 52 -55 31 0 60 27 60 57 0 44 -72 71 -100 38z"/>
<path d="M1697 2162 c-22 -25 -21 -55 2 -76 27 -25 72 -17 90 15 13 24 13 29 -2 53 -21 31 -66 35 -90 8z"/>
<path d="M1906 2164 c-9 -8 -16 -26 -16 -39 0 -13 7 -31 16 -39 8 -9 26 -16 39 -16 13 0 31 7 39 16 9 8 16 26 16 39 0 13 -7 31 -16 39 -8 9 -26 16 -39 16 -13 0 -31 -7 -39 -16z"/>
<path d="M2106 2158 c-21 -30 -20 -51 3 -72 27 -25 72 -17 90 15 13 24 13 29 -2 53 -22 34 -69 36 -91 4z"/>
<path d="M2316 2164 c-9 -8 -16 -26 -16 -39 0 -13 7 -31 16 -39 8 -9 26 -16 39 -16 13 0 31 7 39 16 9 8 16 26 16 39 0 13 -7 31 -16 39 -8 9 -26 16 -39 16 -13 0 -31 -7 -39 -16z"/>
<path d="M2513 2154 c-15 -24 -15 -29 -2 -53 28 -49 109 -32 109 24 0 54 -77 75 -107 29z"/>
<path d="M2726 2164 c-36 -35 -9 -94 43 -94 36 0 51 17 51 57 0 49 -59 72 -94 37z"/>
<path d="M2923 2154 c-15 -24 -15 -29 -2 -53 28 -49 109 -32 109 24 0 54 -77 75 -107 29z"/>
<path d="M3137 2162 c-35 -38 -8 -92 45 -92 31 0 51 21 51 55 0 14 -6 32 -13 40 -17 21 -63 19 -83 -3z"/>
<path d="M3342 2168 c-7 -7 -12 -26 -12 -43 0 -38 16 -55 50 -55 31 0 60 28 60 57 0 42 -68 71 -98 41z"/>
<path d="M3547 2162 c-22 -25 -21 -55 2 -76 27 -25 72 -17 90 15 13 24 13 29 -2 53 -21 31 -66 35 -90 8z"/>
<path d="M3756 2164 c-34 -34 -9 -94 39 -94 30 0 55 25 55 55 0 30 -25 55 -55 55 -13 0 -31 -7 -39 -16z"/>
<path d="M3953 2154 c-15 -24 -15 -29 -2 -53 11 -20 22 -26 49 -26 27 0 38 6 49 26 13 24 13 29 -2 53 -12 18 -26 26 -47 26 -21 0 -35 -8 -47 -26z"/>
<path d="M4166 2164 c-34 -34 -9 -94 39 -94 30 0 55 25 55 55 0 30 -25 55 -55 55 -13 0 -31 -7 -39 -16z"/>
<path d="M4363 2154 c-15 -24 -15 -29 -2 -53 28 -49 109 -32 109 24 0 54 -77 75 -107 29z"/>
<path d="M4577 2162 c-35 -38 -10 -92 42 -92 35 0 51 17 51 55 0 17 -5 36 -12 43 -18 18 -63 14 -81 -6z"/>
<path d="M4780 2165 c-7 -8 -12 -26 -12 -40 0 -34 19 -55 52 -55 31 0 60 27 60 57 0 44 -72 71 -100 38z"/>
<path d="M4987 2162 c-22 -25 -21 -55 2 -76 27 -25 72 -17 90 15 13 24 13 29 -2 53 -21 31 -66 35 -90 8z"/>
<path d="M5198 2169 c-21 -12 -24 -69 -6 -87 17 -17 64 -15 82 4 49 48 -16 119 -76 83z"/>
<path d="M5397 2162 c-22 -25 -21 -55 2 -76 27 -25 72 -17 90 15 13 24 13 29 -2 53 -21 31 -66 35 -90 8z"/>
<path d="M5606 2164 c-34 -34 -9 -94 39 -94 30 0 55 25 55 55 0 30 -25 55 -55 55 -13 0 -31 -7 -39 -16z"/>
<path d="M5803 2154 c-15 -24 -15 -29 -2 -53 26 -46 109 -33 109 18 0 58 -75 83 -107 35z"/>
<path d="M6016 2164 c-34 -34 -9 -94 39 -94 30 0 55 25 55 55 0 30 -25 55 -55 55 -13 0 -31 -7 -39 -16z"/>
<path d="M6213 2154 c-15 -24 -15 -29 -2 -53 28 -49 109 -32 109 24 0 54 -77 75 -107 29z"/>
<path d="M6427 2162 c-35 -38 -8 -92 45 -92 31 0 51 21 51 55 0 14 -6 32 -13 40 -17 21 -63 19 -83 -3z"/>
<path d="M6630 2165 c-7 -8 -12 -26 -12 -40 0 -34 19 -55 52 -55 31 0 60 27 60 57 0 44 -72 71 -100 38z"/>
<path d="M6837 2162 c-22 -25 -21 -55 2 -76 27 -25 72 -17 90 15 13 24 13 29 -2 53 -21 31 -66 35 -90 8z"/>
<path d="M7048 2169 c-25 -14 -24 -75 1 -89 45 -23 91 -1 91 45 0 46 -50 69 -92 44z"/>
<path d="M7247 2162 c-22 -25 -21 -55 2 -76 27 -25 72 -17 90 15 13 24 13 29 -2 53 -21 31 -66 35 -90 8z"/>
<path d="M7456 2164 c-34 -34 -9 -94 39 -94 30 0 55 25 55 55 0 30 -25 55 -55 55 -13 0 -31 -7 -39 -16z"/>
<path d="M7653 2154 c-15 -24 -15 -29 -2 -53 28 -49 109 -32 109 24 0 54 -77 75 -107 29z"/>
<path d="M7866 2164 c-33 -32 -9 -94 35 -94 39 0 59 19 59 55 0 24 -6 38 -19 45 -28 14 -57 12 -75 -6z"/>
<path d="M57 1952 c-33 -36 -8 -92 40 -92 25 0 53 30 53 57 0 46 -62 69 -93 35z"/>
<path d="M256 1948 c-21 -30 -20 -44 4 -68 38 -38 90 -15 90 40 0 50 -66 69 -94 28z"/>
<path d="M467 1952 c-33 -36 -8 -92 40 -92 25 0 53 30 53 57 0 46 -62 69 -93 35z"/>
<path d="M678 1959 c-38 -22 -12 -99 33 -99 21 0 59 33 59 53 0 43 -53 69 -92 46z"/>
<path d="M877 1952 c-33 -36 -8 -92 40 -92 25 0 53 30 53 57 0 46 -62 69 -93 35z"/>
<path d="M1086 1954 c-33 -32 -10 -94 35 -94 21 0 59 33 59 53 0 46 -62 73 -94 41z"/>
<path d="M1284 1945 c-21 -33 -6 -72 31 -81 50 -13 86 53 49 90 -24 24 -61 20 -80 -9z"/>
<path d="M1496 1954 c-37 -37 -1 -103 49 -90 14 4 31 17 37 31 23 52 -46 100 -86 59z"/>
<path d="M1696 1948 c-21 -30 -20 -44 4 -68 36 -36 90 -16 90 35 0 52 -65 74 -94 33z"/>
<path d="M1907 1952 c-33 -36 -8 -92 40 -92 25 0 53 30 53 57 0 46 -62 69 -93 35z"/>
<path d="M2109 1949 c-31 -31 -5 -89 42 -89 47 0 69 69 31 98 -23 18 -49 15 -73 -9z"/>
<path d="M2317 1952 c-33 -36 -8 -92 40 -92 25 0 53 30 53 57 0 46 -62 69 -93 35z"/>
<path d="M2528 1959 c-38 -22 -12 -99 33 -99 21 0 59 33 59 53 0 43 -53 69 -92 46z"/>
<path d="M2727 1952 c-21 -23 -21 -41 -1 -70 28 -40 94 -16 94 35 0 46 -62 69 -93 35z"/>
<path d="M2936 1954 c-33 -32 -10 -94 35 -94 21 0 59 33 59 53 0 46 -62 73 -94 41z"/>
<path d="M3134 1945 c-21 -33 -6 -72 31 -81 50 -13 86 53 49 90 -24 24 -61 20 -80 -9z"/>
<path d="M3346 1954 c-34 -33 -7 -94 42 -94 22 0 52 34 52 61 0 41 -64 63 -94 33z"/>
<path d="M3546 1948 c-21 -30 -20 -44 4 -68 38 -38 90 -15 90 40 0 50 -66 69 -94 28z"/>
<path d="M3757 1952 c-33 -36 -8 -92 40 -92 25 0 53 30 53 57 0 46 -62 69 -93 35z"/>
<path d="M3966 1957 c-38 -28 -13 -97 34 -97 28 0 53 25 53 55 0 30 -25 55 -53 55 -9 0 -24 -6 -34 -13z"/>
<path d="M4167 1952 c-33 -36 -8 -92 40 -92 25 0 53 30 53 57 0 46 -62 69 -93 35z"/>
<path d="M4378 1959 c-38 -22 -12 -99 33 -99 21 0 59 33 59 53 0 43 -53 69 -92 46z"/>
<path d="M4577 1952 c-21 -23 -21 -41 -1 -70 28 -41 94 -16 94 36 0 47 -61 69 -93 34z"/>
<path d="M4786 1954 c-37 -37 -1 -103 49 -90 14 4 31 17 37 31 23 52 -46 100 -86 59z"/>
<path d="M4986 1948 c-21 -30 -20 -44 4 -68 36 -36 90 -16 90 35 0 52 -65 74 -94 33z"/>
<path d="M5197 1952 c-22 -24 -21 -55 1 -75 26 -23 58 -21 76 5 21 29 20 51 -2 71 -24 22 -55 21 -75 -1z"/>
<path d="M5396 1948 c-21 -30 -20 -44 4 -68 38 -38 90 -15 90 40 0 50 -66 69 -94 28z"/>
<path d="M5607 1952 c-33 -36 -8 -92 40 -92 25 0 53 30 53 57 0 46 -62 69 -93 35z"/>
<path d="M5818 1958 c-52 -40 3 -120 61 -88 44 23 22 100 -29 100 -9 0 -23 -6 -32 -12z"/>
<path d="M6017 1952 c-33 -36 -8 -92 40 -92 25 0 53 30 53 57 0 46 -62 69 -93 35z"/>
<path d="M6226 1954 c-33 -32 -10 -94 35 -94 21 0 59 33 59 53 0 46 -62 73 -94 41z"/>
<path d="M6424 1945 c-21 -33 -6 -72 31 -81 50 -13 86 53 49 90 -24 24 -61 20 -80 -9z"/>
<path d="M6636 1954 c-37 -37 -1 -103 49 -90 14 4 31 17 37 31 23 52 -46 100 -86 59z"/>
<path d="M6836 1948 c-21 -30 -20 -44 4 -68 36 -36 90 -16 90 35 0 52 -65 74 -94 33z"/>
<path d="M7047 1952 c-33 -36 -8 -92 40 -92 25 0 53 30 53 57 0 46 -62 69 -93 35z"/>
<path d="M7246 1948 c-21 -30 -20 -44 4 -68 38 -38 90 -15 90 40 0 50 -66 69 -94 28z"/>
<path d="M7457 1952 c-33 -36 -8 -92 40 -92 25 0 53 30 53 57 0 46 -62 69 -93 35z"/>
<path d="M7668 1959 c-38 -22 -12 -99 33 -99 21 0 59 33 59 53 0 43 -53 69 -92 46z"/>
<path d="M7867 1952 c-33 -36 -8 -92 40 -92 25 0 53 30 53 57 0 46 -62 69 -93 35z"/>
<path d="M57 1742 c-32 -35 -10 -84 37 -84 35 0 49 13 49 48 0 48 -55 71 -86 36z"/>
<path d="M266 1744 c-24 -24 -20 -61 9 -80 23 -15 27 -15 50 0 30 20 33 56 7 79 -23 21 -46 22 -66 1z"/>
<path d="M464 1735 c-30 -46 10 -94 63 -74 30 11 38 45 19 74 -22 33 -60 33 -82 0z"/>
<path d="M677 1742 c-24 -27 -21 -59 8 -78 23 -15 27 -15 50 0 29 19 33 56 9 80 -21 21 -47 20 -67 -2z"/>
<path d="M879 1739 c-14 -14 -18 -27 -13 -42 9 -32 19 -39 50 -39 48 0 71 54 36 85 -25 23 -48 21 -73 -4z"/>
<path d="M1087 1742 c-24 -27 -21 -59 8 -78 23 -15 27 -15 50 0 46 30 26 96 -28 96 -8 0 -21 -8 -30 -18z"/>
<path d="M1298 1748 c-16 -13 -22 -29 -19 -55 0 -7 12 -20 26 -29 23 -15 27 -15 50 0 30 20 33 56 7 79 -22 20 -42 21 -64 5z"/>
<path d="M1497 1742 c-31 -34 -20 -69 26 -85 25 -9 69 35 61 60 -15 43 -60 55 -87 25z"/>
<path d="M1706 1744 c-24 -24 -20 -61 9 -80 23 -15 27 -15 50 0 30 20 33 56 7 79 -23 21 -46 22 -66 1z"/>
<path d="M1904 1735 c-14 -21 -15 -31 -6 -50 11 -24 27 -30 62 -25 36 4 48 52 21 79 -28 28 -57 26 -77 -4z"/>
<path d="M2116 1744 c-24 -24 -20 -61 9 -80 23 -15 27 -15 50 0 42 28 24 96 -25 96 -10 0 -26 -7 -34 -16z"/>
<path d="M2320 1740 c-11 -11 -20 -26 -20 -33 0 -51 81 -68 102 -22 9 19 8 29 -6 50 -20 30 -49 32 -76 5z"/>
<path d="M2527 1742 c-24 -27 -21 -59 8 -78 23 -15 27 -15 50 0 29 19 33 56 9 80 -21 21 -47 20 -67 -2z"/>
<path d="M2736 1747 c-20 -15 -25 -62 -8 -79 17 -17 64 -12 79 8 18 25 16 48 -5 67 -22 20 -42 21 -66 4z"/>
<path d="M2937 1742 c-24 -27 -21 -59 8 -78 23 -15 27 -15 50 0 46 30 26 96 -28 96 -8 0 -21 -8 -30 -18z"/>
<path d="M3148 1749 c-27 -16 -23 -65 7 -85 23 -15 27 -15 50 0 30 20 33 56 7 79 -21 19 -39 21 -64 6z"/>
<path d="M3345 1740 c-23 -26 -11 -69 23 -81 30 -11 75 30 66 58 -16 44 -60 55 -89 23z"/>
<path d="M3556 1744 c-24 -24 -20 -61 9 -80 23 -15 27 -15 50 0 30 20 33 56 7 79 -23 21 -46 22 -66 1z"/>
<path d="M3754 1735 c-14 -21 -15 -31 -6 -50 21 -46 102 -29 102 22 0 20 -37 53 -60 53 -11 0 -27 -11 -36 -25z"/>
<path d="M3966 1744 c-24 -24 -20 -61 9 -80 23 -15 27 -15 50 0 42 28 24 96 -25 96 -10 0 -26 -7 -34 -16z"/>
<path d="M4170 1740 c-11 -11 -20 -26 -20 -33 0 -51 81 -68 102 -22 9 19 8 29 -6 50 -20 30 -49 32 -76 5z"/>
<path d="M4377 1742 c-24 -27 -21 -59 8 -78 23 -15 27 -15 50 0 29 19 33 56 9 80 -21 21 -47 20 -67 -2z"/>
<path d="M4588 1748 c-28 -23 -29 -48 -3 -73 29 -30 65 -22 79 18 17 47 -37 85 -76 55z"/>
<path d="M4787 1742 c-24 -27 -21 -59 8 -78 23 -15 27 -15 50 0 46 30 26 96 -28 96 -8 0 -21 -8 -30 -18z"/>
<path d="M4998 1749 c-27 -16 -23 -65 7 -85 23 -15 27 -15 50 0 30 20 33 56 7 79 -21 19 -39 21 -64 6z"/>
<path d="M5197 1742 c-32 -35 -10 -84 37 -84 35 0 49 13 49 48 0 48 -55 71 -86 36z"/>
<path d="M5406 1744 c-24 -24 -20 -61 9 -80 23 -15 27 -15 50 0 30 20 33 56 7 79 -23 21 -46 22 -66 1z"/>
<path d="M5604 1735 c-14 -21 -15 -31 -6 -50 21 -46 102 -29 102 22 0 20 -37 53 -60 53 -11 0 -27 -11 -36 -25z"/>
<path d="M5816 1744 c-24 -24 -20 -61 9 -80 23 -15 27 -15 50 0 42 28 24 96 -25 96 -10 0 -26 -7 -34 -16z"/>
<path d="M6019 1739 c-27 -27 -15 -75 21 -79 35 -5 51 1 62 25 9 19 8 29 -6 50 -20 30 -49 32 -77 4z"/>
<path d="M6227 1742 c-24 -27 -21 -59 8 -78 23 -15 27 -15 50 0 29 19 33 56 9 80 -21 21 -47 20 -67 -2z"/>
<path d="M6438 1748 c-28 -23 -29 -48 -3 -73 24 -25 43 -25 73 -2 18 14 15 51 -6 70 -22 20 -43 22 -64 5z"/>
<path d="M6637 1742 c-24 -27 -21 -59 8 -78 23 -15 27 -15 50 0 25 16 29 26 25 56 -2 19 -29 40 -50 40 -9 0 -24 -8 -33 -18z"/>
<path d="M6848 1749 c-27 -16 -23 -65 7 -85 23 -15 27 -15 50 0 30 20 33 56 7 79 -21 19 -39 21 -64 6z"/>
<path d="M7047 1742 c-20 -22 -21 -42 -4 -66 14 -19 62 -25 77 -10 20 22 21 53 1 73 -26 26 -53 27 -74 3z"/>
<path d="M7256 1744 c-24 -24 -20 -61 9 -80 23 -15 27 -15 50 0 30 20 33 56 7 79 -23 21 -46 22 -66 1z"/>
<path d="M7454 1735 c-30 -46 10 -94 63 -74 30 11 38 45 19 74 -22 33 -60 33 -82 0z"/>
<path d="M7667 1742 c-24 -27 -21 -59 8 -78 23 -15 27 -15 50 0 29 19 33 56 9 80 -21 21 -47 20 -67 -2z"/>
<path d="M7869 1739 c-14 -14 -18 -27 -13 -42 9 -32 19 -39 50 -39 48 0 71 54 36 85 -25 23 -48 21 -73 -4z"/>
<path d="M68 1538 c-24 -20 -28 -44 -12 -67 17 -23 53 -28 72 -9 17 17 15 54 -4 72 -19 19 -35 20 -56 4z"/>
<path d="M272 1534 c-12 -8 -22 -26 -22 -38 0 -54 77 -64 95 -12 8 24 6 31 -14 47 -28 23 -31 23 -59 3z"/>
<path d="M478 1539 c-21 -12 -24 -59 -6 -77 7 -7 21 -12 33 -12 12 0 26 5 33 12 19 19 15 66 -7 78 -24 12 -31 12 -53 -1z"/>
<path d="M679 1531 c-20 -16 -22 -23 -14 -47 9 -24 16 -29 45 -29 29 0 36 5 45 29 8 24 6 31 -14 47 -13 10 -27 19 -31 19 -4 0 -18 -9 -31 -19z"/>
<path d="M886 1534 c-19 -18 -21 -55 -4 -72 19 -19 55 -14 72 9 16 23 12 47 -12 67 -21 16 -37 15 -56 -4z"/>
<path d="M1090 1530 c-24 -24 -25 -43 -4 -64 18 -19 55 -21 72 -4 19 19 14 55 -10 72 -29 20 -34 20 -58 -4z"/>
<path d="M1302 1534 c-24 -17 -29 -53 -10 -72 27 -27 88 -3 88 34 0 15 -35 54 -48 54 -4 0 -18 -7 -30 -16z"/>
<path d="M1500 1530 c-24 -24 -24 -29 -4 -58 27 -39 84 -23 84 23 0 23 -28 55 -48 55 -7 0 -21 -9 -32 -20z"/>
<path d="M1712 1534 c-24 -17 -29 -53 -10 -72 27 -27 88 -3 88 34 0 15 -35 54 -48 54 -4 0 -18 -7 -30 -16z"/>
<path d="M1918 1538 c-24 -20 -28 -44 -12 -67 17 -23 53 -28 72 -9 17 17 15 54 -4 72 -19 19 -35 20 -56 4z"/>
<path d="M2119 1531 c-20 -16 -22 -23 -14 -47 9 -24 16 -29 45 -29 29 0 36 5 45 29 8 24 6 31 -14 47 -13 10 -27 19 -31 19 -4 0 -18 -9 -31 -19z"/>
<path d="M2328 1539 c-21 -12 -24 -59 -6 -77 7 -7 21 -12 33 -12 12 0 26 5 33 12 19 19 15 66 -7 78 -24 12 -31 12 -53 -1z"/>
<path d="M2529 1531 c-20 -16 -22 -23 -14 -47 18 -52 95 -42 95 12 0 20 -32 54 -51 54 -4 0 -17 -9 -30 -19z"/>
<path d="M2736 1534 c-19 -18 -21 -55 -4 -72 19 -19 55 -14 72 10 20 29 20 34 -4 58 -24 24 -43 25 -64 4z"/>
<path d="M2940 1530 c-24 -24 -25 -43 -4 -64 18 -19 55 -21 72 -4 19 19 14 55 -10 72 -29 20 -34 20 -58 -4z"/>
<path d="M3152 1534 c-24 -17 -29 -53 -10 -72 27 -27 88 -3 88 34 0 15 -35 54 -48 54 -4 0 -18 -7 -30 -16z"/>
<path d="M3350 1530 c-24 -24 -24 -29 -4 -58 17 -24 53 -29 72 -10 17 17 15 54 -4 72 -21 21 -40 20 -64 -4z"/>
<path d="M3562 1534 c-27 -18 -27 -61 -1 -77 50 -31 105 38 59 75 -27 22 -30 22 -58 2z"/>
<path d="M3768 1538 c-24 -20 -28 -44 -12 -67 17 -23 53 -28 72 -9 19 19 15 66 -7 78 -25 13 -34 13 -53 -2z"/>
<path d="M3969 1531 c-20 -16 -22 -23 -14 -47 9 -24 16 -29 45 -29 29 0 36 5 45 29 8 24 6 31 -14 47 -13 10 -27 19 -31 19 -4 0 -18 -9 -31 -19z"/>
<path d="M4178 1539 c-21 -12 -24 -59 -6 -77 19 -19 55 -14 72 9 16 23 12 47 -12 67 -19 14 -31 15 -54 1z"/>
<path d="M4380 1532 c-46 -37 9 -106 59 -75 26 16 26 59 -1 77 -28 20 -31 20 -58 -2z"/>
<path d="M4586 1534 c-19 -18 -21 -55 -4 -72 19 -19 55 -14 72 10 20 29 20 34 -4 58 -24 24 -43 25 -64 4z"/>
<path d="M4790 1530 c-24 -24 -25 -43 -4 -64 18 -19 55 -21 72 -4 19 19 14 55 -10 72 -29 20 -34 20 -58 -4z"/>
<path d="M5002 1534 c-24 -17 -29 -53 -10 -72 27 -27 88 -3 88 34 0 15 -35 54 -48 54 -4 0 -18 -7 -30 -16z"/>
<path d="M5200 1530 c-24 -24 -24 -29 -4 -58 17 -24 53 -29 72 -10 17 17 15 54 -4 72 -21 21 -40 20 -64 -4z"/>
<path d="M5412 1534 c-27 -18 -27 -61 -1 -77 50 -31 105 38 59 75 -27 22 -30 22 -58 2z"/>
<path d="M5618 1539 c-21 -12 -24 -59 -6 -77 7 -7 21 -12 33 -12 12 0 26 5 33 12 19 19 15 66 -7 78 -24 12 -31 12 -53 -1z"/>
<path d="M5819 1531 c-20 -16 -22 -23 -14 -47 9 -24 16 -29 45 -29 29 0 36 5 45 29 8 24 6 31 -14 47 -13 10 -27 19 -31 19 -4 0 -18 -9 -31 -19z"/>
<path d="M6026 1534 c-19 -18 -21 -55 -4 -72 19 -19 55 -14 72 9 16 23 12 47 -12 67 -21 16 -37 15 -56 -4z"/>
<path d="M6230 1530 c-24 -24 -25 -43 -4 -64 18 -19 55 -21 72 -4 19 19 14 55 -10 72 -29 20 -34 20 -58 -4z"/>
<path d="M6437 1532 c-32 -35 -15 -82 29 -82 21 0 54 33 54 52 0 13 -39 48 -53 48 -8 0 -21 -8 -30 -18z"/>
<path d="M6640 1530 c-24 -24 -25 -43 -4 -64 18 -19 55 -21 72 -4 19 19 14 55 -10 72 -29 20 -34 20 -58 -4z"/>
<path d="M6852 1534 c-24 -17 -29 -53 -10 -72 27 -27 88 -3 88 34 0 15 -35 54 -48 54 -4 0 -18 -7 -30 -16z"/>
<path d="M7058 1538 c-24 -20 -28 -44 -12 -67 17 -23 53 -28 72 -9 17 17 15 54 -4 72 -19 19 -35 20 -56 4z"/>
<path d="M7262 1534 c-12 -8 -22 -26 -22 -38 0 -54 77 -64 95 -12 8 24 6 31 -14 47 -28 23 -31 23 -59 3z"/>
<path d="M7468 1539 c-21 -12 -24 -59 -6 -77 7 -7 21 -12 33 -12 12 0 26 5 33 12 19 19 15 66 -7 78 -24 12 -31 12 -53 -1z"/>
<path d="M7669 1531 c-20 -16 -22 -23 -14 -47 18 -52 95 -42 95 12 0 20 -32 54 -51 54 -4 0 -17 -9 -30 -19z"/>
<path d="M7876 1534 c-19 -18 -21 -55 -4 -72 19 -19 55 -14 72 9 16 23 12 47 -12 67 -21 16 -37 15 -56 -4z"/>
<path d="M482 1324 c-49 -34 -6 -103 47 -74 28 14 25 57 -4 76 -18 12 -24 11 -43 -2z"/>
<path d="M2332 1324 c-49 -34 -6 -103 47 -74 28 14 25 57 -4 76 -18 12 -24 11 -43 -2z"/>
<path d="M3772 1324 c-49 -34 -6 -103 47 -74 28 14 25 57 -4 76 -18 12 -24 11 -43 -2z"/>
<path d="M4182 1324 c-49 -34 -6 -103 47 -74 28 14 25 57 -4 76 -18 12 -24 11 -43 -2z"/>
<path d="M5622 1324 c-49 -34 -6 -103 47 -74 28 14 25 57 -4 76 -18 12 -24 11 -43 -2z"/>
<path d="M7472 1324 c-49 -34 -6 -103 47 -74 28 14 25 57 -4 76 -18 12 -24 11 -43 -2z"/>
<path d="M62 1318 c-17 -17 -15 -53 3 -68 38 -31 96 27 65 65 -15 18 -51 20 -68 3z"/>
<path d="M258 1305 c-9 -21 -8 -28 7 -45 24 -27 51 -25 70 4 23 34 5 66 -36 66 -22 0 -32 -6 -41 -25z"/>
<path d="M670 1309 c-9 -16 -8 -26 5 -45 19 -29 46 -31 70 -4 15 17 16 24 7 45 -15 32 -66 35 -82 4z"/>
<path d="M880 1315 c-31 -38 27 -96 65 -65 18 15 20 51 3 68 -17 17 -53 15 -68 -3z"/>
<path d="M1081 1308 c-15 -41 14 -74 54 -64 29 7 43 49 25 71 -20 24 -69 19 -79 -7z"/>
<path d="M1291 1316 c-20 -23 -5 -65 24 -72 35 -9 57 12 53 50 -3 27 -7 31 -34 34 -19 2 -36 -3 -43 -12z"/>
<path d="M1497 1323 c-13 -12 -7 -60 8 -73 38 -31 96 27 65 65 -13 15 -61 21 -73 8z"/>
<path d="M1702 1318 c-18 -18 -15 -42 7 -62 37 -33 88 5 70 52 -9 25 -56 31 -77 10z"/>
<path d="M1912 1318 c-17 -17 -15 -53 3 -68 38 -31 96 27 65 65 -15 18 -51 20 -68 3z"/>
<path d="M2108 1305 c-9 -21 -8 -28 7 -45 24 -27 51 -25 70 4 23 34 5 66 -36 66 -22 0 -32 -6 -41 -25z"/>
<path d="M2520 1309 c-9 -16 -8 -26 5 -45 19 -29 46 -31 70 -4 15 17 16 24 7 45 -15 32 -66 35 -82 4z"/>
<path d="M2730 1315 c-31 -38 27 -96 65 -65 18 15 20 51 3 68 -17 17 -53 15 -68 -3z"/>
<path d="M2937 1323 c-13 -12 -7 -60 8 -73 38 -31 96 27 65 65 -13 15 -61 21 -73 8z"/>
<path d="M3141 1316 c-20 -23 -5 -65 24 -72 35 -9 57 12 53 50 -3 27 -7 31 -34 34 -19 2 -36 -3 -43 -12z"/>
<path d="M3346 1314 c-18 -46 7 -81 49 -70 29 7 44 49 25 71 -17 20 -66 19 -74 -1z"/>
<path d="M3552 1318 c-18 -18 -15 -42 7 -62 37 -33 88 5 70 52 -9 25 -56 31 -77 10z"/>
<path d="M3960 1309 c-14 -26 11 -69 40 -69 11 0 27 11 35 24 23 34 5 66 -35 66 -19 0 -33 -7 -40 -21z"/>
<path d="M4370 1309 c-14 -25 11 -69 39 -69 21 0 51 30 51 51 0 41 -71 55 -90 18z"/>
<path d="M4580 1315 c-19 -22 -4 -64 25 -71 42 -11 67 24 49 70 -8 20 -57 21 -74 1z"/>
<path d="M4787 1323 c-13 -12 -7 -60 8 -73 38 -31 96 27 65 65 -13 15 -61 21 -73 8z"/>
<path d="M4991 1316 c-20 -23 -5 -65 24 -72 35 -9 57 12 53 50 -3 27 -7 31 -34 34 -19 2 -36 -3 -43 -12z"/>
<path d="M5202 1318 c-17 -17 -15 -53 3 -68 38 -31 96 27 65 65 -15 18 -51 20 -68 3z"/>
<path d="M5398 1305 c-9 -21 -8 -28 7 -45 24 -27 51 -25 70 4 23 34 5 66 -36 66 -22 0 -32 -6 -41 -25z"/>
<path d="M5810 1309 c-9 -16 -8 -26 5 -45 19 -29 46 -31 70 -4 15 17 16 24 7 45 -15 32 -66 35 -82 4z"/>
<path d="M6020 1315 c-31 -38 27 -96 65 -65 18 15 20 51 3 68 -17 17 -53 15 -68 -3z"/>
<path d="M6221 1308 c-11 -27 7 -61 33 -66 21 -5 56 25 56 48 0 43 -74 58 -89 18z"/>
<path d="M6431 1316 c-20 -23 -5 -65 24 -72 35 -9 57 12 53 50 -3 27 -7 31 -34 34 -19 2 -36 -3 -43 -12z"/>
<path d="M6637 1323 c-13 -12 -7 -60 8 -73 38 -31 96 27 65 65 -13 15 -61 21 -73 8z"/>
<path d="M6841 1316 c-20 -24 -5 -65 26 -72 35 -9 66 26 54 59 -10 27 -62 35 -80 13z"/>
<path d="M7052 1318 c-17 -17 -15 -53 3 -68 38 -31 96 27 65 65 -15 18 -51 20 -68 3z"/>
<path d="M7248 1305 c-9 -21 -8 -28 7 -45 24 -27 51 -25 70 4 23 34 5 66 -36 66 -22 0 -32 -6 -41 -25z"/>
<path d="M7660 1309 c-9 -16 -8 -26 5 -45 19 -29 46 -31 70 -4 15 17 16 24 7 45 -15 32 -66 35 -82 4z"/>
<path d="M7870 1315 c-31 -38 27 -96 65 -65 18 15 20 51 3 68 -17 17 -53 15 -68 -3z"/>
<path d="M60 1105 c-16 -19 -9 -45 16 -62 19 -12 24 -11 45 6 21 16 22 22 11 45 -13 29 -52 36 -72 11z"/>
<path d="M267 1113 c-4 -3 -7 -19 -7 -34 0 -34 25 -50 58 -38 24 9 30 47 10 67 -13 13 -50 16 -61 5z"/>
<path d="M472 1108 c-19 -19 -14 -45 10 -62 19 -13 25 -14 43 -2 25 16 31 42 15 61 -15 18 -52 19 -68 3z"/>
<path d="M682 1108 c-34 -34 6 -91 49 -68 31 17 23 74 -11 78 -14 2 -31 -3 -38 -10z"/>
<path d="M882 1108 c-19 -19 -14 -45 10 -62 19 -13 25 -14 43 -2 25 16 31 42 15 61 -15 18 -52 19 -68 3z"/>
<path d="M1092 1108 c-20 -20 -14 -58 11 -67 41 -16 77 22 57 60 -12 21 -50 25 -68 7z"/>
<path d="M1290 1100 c-12 -22 0 -55 22 -63 39 -13 74 37 48 68 -18 21 -57 19 -70 -5z"/>
<path d="M1500 1105 c-16 -19 -5 -61 17 -67 25 -7 42 1 53 23 23 43 -39 82 -70 44z"/>
<path d="M1700 1101 c-20 -38 16 -76 58 -60 24 9 30 47 10 67 -18 18 -56 14 -68 -7z"/>
<path d="M1912 1108 c-19 -19 -14 -45 10 -62 19 -13 25 -14 43 -2 25 16 31 42 15 61 -15 18 -52 19 -68 3z"/>
<path d="M2117 1113 c-4 -3 -7 -19 -7 -34 0 -35 30 -55 60 -39 25 13 28 65 4 74 -21 8 -49 8 -57 -1z"/>
<path d="M2322 1108 c-19 -19 -14 -45 10 -62 19 -13 25 -14 43 -2 25 16 31 42 15 61 -15 18 -52 19 -68 3z"/>
<path d="M2532 1108 c-20 -20 -15 -58 11 -67 35 -14 59 5 55 42 -2 26 -8 33 -28 35 -14 2 -31 -3 -38 -10z"/>
<path d="M2728 1094 c-11 -23 -10 -29 11 -45 21 -17 26 -18 45 -6 41 27 27 77 -20 77 -17 0 -28 -9 -36 -26z"/>
<path d="M2942 1108 c-20 -20 -14 -58 11 -67 41 -16 77 22 57 60 -12 21 -50 25 -68 7z"/>
<path d="M3140 1100 c-12 -22 0 -55 22 -63 39 -13 74 37 48 68 -18 21 -57 19 -70 -5z"/>
<path d="M3350 1105 c-17 -20 -5 -61 20 -68 11 -3 30 3 42 13 20 15 21 21 10 44 -13 30 -52 36 -72 11z"/>
<path d="M3551 1098 c-15 -42 15 -73 57 -57 24 9 30 47 10 67 -20 20 -58 14 -67 -10z"/>
<path d="M3762 1108 c-19 -19 -14 -45 10 -62 19 -13 25 -14 43 -2 25 16 31 42 15 61 -15 18 -52 19 -68 3z"/>
<path d="M3967 1114 c-15 -15 -7 -63 13 -74 33 -17 62 4 58 43 -3 27 -7 32 -33 35 -17 2 -34 0 -38 -4z"/>
<path d="M4172 1108 c-19 -19 -14 -45 10 -62 19 -13 25 -14 43 -2 25 16 31 42 15 61 -15 18 -52 19 -68 3z"/>
<path d="M4381 1106 c-34 -41 21 -94 59 -56 15 15 17 25 11 42 -10 27 -52 36 -70 14z"/>
<path d="M4578 1094 c-11 -23 -10 -29 10 -44 28 -23 60 -15 68 16 13 53 -56 77 -78 28z"/>
<path d="M4790 1105 c-16 -19 -5 -61 17 -67 25 -7 42 1 53 23 23 43 -39 82 -70 44z"/>
<path d="M4990 1101 c-20 -38 16 -76 58 -60 24 9 30 47 10 67 -18 18 -56 14 -68 -7z"/>
<path d="M5200 1105 c-16 -19 -9 -45 16 -62 19 -12 24 -11 45 6 21 16 22 22 11 45 -13 29 -52 36 -72 11z"/>
<path d="M5407 1113 c-4 -3 -7 -19 -7 -34 0 -34 25 -50 58 -38 24 9 30 47 10 67 -13 13 -50 16 -61 5z"/>
<path d="M5612 1108 c-19 -19 -14 -45 10 -62 19 -13 25 -14 43 -2 25 16 31 42 15 61 -15 18 -52 19 -68 3z"/>
<path d="M5823 1114 c-21 -9 -16 -62 7 -74 33 -17 62 4 58 43 -2 26 -8 32 -28 34 -14 1 -31 -1 -37 -3z"/>
<path d="M6022 1108 c-19 -19 -14 -45 10 -62 19 -13 25 -14 43 -2 25 16 31 42 15 61 -15 18 -52 19 -68 3z"/>
<path d="M6232 1108 c-20 -20 -14 -58 11 -67 41 -16 77 22 57 60 -12 21 -50 25 -68 7z"/>
<path d="M6430 1100 c-12 -22 0 -55 22 -63 39 -13 74 37 48 68 -18 21 -57 19 -70 -5z"/>
<path d="M6640 1105 c-16 -19 -5 -61 17 -67 25 -7 42 1 53 23 23 43 -39 82 -70 44z"/>
<path d="M6840 1101 c-20 -38 16 -76 58 -60 24 9 30 47 10 67 -18 18 -56 14 -68 -7z"/>
<path d="M7052 1108 c-19 -19 -14 -45 10 -62 19 -13 25 -14 43 -2 25 16 31 42 15 61 -15 18 -52 19 -68 3z"/>
<path d="M7257 1113 c-15 -15 -7 -63 13 -73 42 -22 82 34 48 68 -13 13 -50 16 -61 5z"/>
<path d="M7462 1108 c-19 -19 -14 -45 10 -62 19 -13 25 -14 43 -2 25 16 31 42 15 61 -15 18 -52 19 -68 3z"/>
<path d="M7672 1108 c-20 -20 -15 -58 11 -67 35 -14 59 5 55 42 -2 26 -8 33 -28 35 -14 2 -31 -3 -38 -10z"/>
<path d="M7868 1094 c-11 -23 -10 -29 11 -45 21 -17 26 -18 45 -6 41 27 27 77 -20 77 -17 0 -28 -9 -36 -26z"/>
<path d="M58 885 c-14 -30 3 -55 38 -55 29 0 45 27 33 58 -12 31 -56 30 -71 -3z"/>
<path d="M270 895 c-26 -32 13 -81 48 -59 34 22 22 74 -18 74 -10 0 -23 -7 -30 -15z"/>
<path d="M470 890 c-15 -28 4 -60 35 -60 14 0 29 8 35 20 15 28 -4 60 -35 60 -14 0 -29 -8 -35 -20z"/>
<path d="M680 895 c-26 -32 13 -81 48 -59 34 22 22 74 -18 74 -10 0 -23 -7 -30 -15z"/>
<path d="M881 888 c-12 -31 4 -58 33 -58 35 0 52 25 38 55 -15 33 -59 34 -71 3z"/>
<path d="M1092 898 c-30 -30 0 -75 43 -64 41 11 29 76 -15 76 -9 0 -21 -5 -28 -12z"/>
<path d="M1302 901 c-8 -4 -12 -21 -10 -37 2 -25 7 -29 32 -29 36 0 56 27 40 53 -13 19 -43 26 -62 13z"/>
<path d="M1502 898 c-29 -29 -2 -72 40 -66 17 2 24 11 26 32 5 41 -37 63 -66 34z"/>
<path d="M1710 895 c-26 -32 13 -81 48 -59 34 22 22 74 -18 74 -10 0 -23 -7 -30 -15z"/>
<path d="M1910 890 c-15 -28 4 -60 35 -60 31 0 50 32 35 60 -6 12 -21 20 -35 20 -14 0 -29 -8 -35 -20z"/>
<path d="M2120 895 c-26 -32 13 -81 48 -59 34 22 22 74 -18 74 -10 0 -23 -7 -30 -15z"/>
<path d="M2320 890 c-15 -28 4 -60 35 -60 31 0 50 32 35 60 -6 12 -21 20 -35 20 -14 0 -29 -8 -35 -20z"/>
<path d="M2530 895 c-26 -32 13 -81 48 -59 34 22 22 74 -18 74 -10 0 -23 -7 -30 -15z"/>
<path d="M2742 901 c-8 -4 -12 -21 -10 -37 2 -25 7 -29 32 -29 36 0 56 27 40 53 -13 19 -43 26 -62 13z"/>
<path d="M2942 898 c-30 -30 0 -75 43 -64 41 11 29 76 -15 76 -9 0 -21 -5 -28 -12z"/>
<path d="M3152 901 c-8 -4 -12 -21 -10 -37 2 -25 7 -29 32 -29 36 0 56 27 40 53 -13 19 -43 26 -62 13z"/>
<path d="M3352 898 c-29 -29 -2 -72 40 -66 17 2 24 11 26 32 5 41 -37 63 -66 34z"/>
<path d="M3560 895 c-26 -32 13 -81 48 -59 34 22 22 74 -18 74 -10 0 -23 -7 -30 -15z"/>
<path d="M3760 890 c-15 -28 4 -60 35 -60 31 0 50 32 35 60 -6 12 -21 20 -35 20 -14 0 -29 -8 -35 -20z"/>
<path d="M3970 895 c-26 -32 13 -81 48 -59 34 22 22 74 -18 74 -10 0 -23 -7 -30 -15z"/>
<path d="M4170 890 c-15 -28 4 -60 35 -60 31 0 50 32 35 60 -6 12 -21 20 -35 20 -14 0 -29 -8 -35 -20z"/>
<path d="M4380 895 c-26 -32 13 -81 48 -59 34 22 22 74 -18 74 -10 0 -23 -7 -30 -15z"/>
<path d="M4592 901 c-8 -4 -12 -21 -10 -37 2 -25 7 -29 32 -29 36 0 56 27 40 53 -13 19 -43 26 -62 13z"/>
<path d="M4792 898 c-29 -29 -2 -72 40 -66 17 2 24 11 26 32 5 41 -37 63 -66 34z"/>
<path d="M5002 898 c-7 -7 -12 -22 -12 -35 0 -27 42 -42 65 -23 28 23 11 70 -25 70 -9 0 -21 -5 -28 -12z"/>
<path d="M5202 898 c-29 -29 -2 -72 40 -66 17 2 24 11 26 32 5 41 -37 63 -66 34z"/>
<path d="M5410 895 c-26 -32 13 -81 48 -59 34 22 22 74 -18 74 -10 0 -23 -7 -30 -15z"/>
<path d="M5610 890 c-15 -28 4 -60 35 -60 14 0 29 8 35 20 15 28 -4 60 -35 60 -14 0 -29 -8 -35 -20z"/>
<path d="M5820 895 c-26 -32 13 -81 48 -59 34 22 22 74 -18 74 -10 0 -23 -7 -30 -15z"/>
<path d="M6020 890 c-15 -28 4 -60 35 -60 14 0 29 8 35 20 15 28 -4 60 -35 60 -14 0 -29 -8 -35 -20z"/>
<path d="M6230 895 c-26 -32 13 -81 48 -59 34 22 22 74 -18 74 -10 0 -23 -7 -30 -15z"/>
<path d="M6442 901 c-8 -4 -12 -21 -10 -37 2 -25 7 -29 32 -29 36 0 56 27 40 53 -13 19 -43 26 -62 13z"/>
<path d="M6642 898 c-29 -29 -2 -72 40 -66 17 2 24 11 26 32 5 41 -37 63 -66 34z"/>
<path d="M6852 898 c-7 -7 -12 -22 -12 -35 0 -27 42 -42 65 -23 28 23 11 70 -25 70 -9 0 -21 -5 -28 -12z"/>
<path d="M7048 885 c-14 -30 3 -55 38 -55 29 0 45 27 33 58 -12 31 -56 30 -71 -3z"/>
<path d="M7260 895 c-26 -32 13 -81 48 -59 34 22 22 74 -18 74 -10 0 -23 -7 -30 -15z"/>
<path d="M7460 890 c-15 -28 4 -60 35 -60 14 0 29 8 35 20 15 28 -4 60 -35 60 -14 0 -29 -8 -35 -20z"/>
<path d="M7670 895 c-26 -32 13 -81 48 -59 34 22 22 74 -18 74 -10 0 -23 -7 -30 -15z"/>
<path d="M7871 888 c-12 -31 4 -58 33 -58 35 0 52 25 38 55 -15 33 -59 34 -71 3z"/>
<path d="M73 693 c-22 -8 -16 -61 7 -68 39 -12 66 35 38 63 -13 13 -24 14 -45 5z"/>
<path d="M270 685 c-26 -32 13 -81 48 -59 34 22 22 74 -18 74 -10 0 -23 -7 -30 -15z"/>
<path d="M480 685 c-26 -31 13 -82 44 -56 19 16 21 42 4 59 -16 16 -33 15 -48 -3z"/>
<path d="M680 685 c-26 -32 13 -81 48 -59 34 22 22 74 -18 74 -10 0 -23 -7 -30 -15z"/>
<path d="M892 688 c-28 -28 -1 -75 38 -63 14 4 20 15 20 35 0 36 -33 53 -58 28z"/>
<path d="M1090 681 c-13 -25 -4 -48 21 -56 38 -12 65 35 37 63 -18 18 -46 14 -58 -7z"/>
<path d="M1302 688 c-23 -23 -7 -68 24 -68 14 0 44 27 44 40 0 13 -30 40 -44 40 -6 0 -17 -5 -24 -12z"/>
<path d="M1506 685 c-9 -9 -16 -20 -16 -25 0 -15 32 -41 48 -38 24 5 39 35 26 56 -15 23 -38 26 -58 7z"/>
<path d="M1712 688 c-28 -28 -1 -75 37 -63 25 8 34 31 21 56 -12 21 -40 25 -58 7z"/>
<path d="M1923 693 c-22 -8 -16 -61 7 -68 39 -12 66 35 38 63 -13 13 -24 14 -45 5z"/>
<path d="M2120 685 c-26 -32 13 -81 48 -59 34 22 22 74 -18 74 -10 0 -23 -7 -30 -15z"/>
<path d="M2330 685 c-26 -31 13 -82 44 -56 21 17 21 57 0 65 -23 9 -30 8 -44 -9z"/>
<path d="M2530 685 c-10 -12 -10 -21 -1 -41 13 -29 47 -30 65 -1 23 37 -36 76 -64 42z"/>
<path d="M2742 688 c-28 -28 -1 -75 38 -63 14 4 20 15 20 35 0 36 -33 53 -58 28z"/>
<path d="M2940 681 c-13 -25 -4 -48 21 -56 38 -12 65 35 37 63 -18 18 -46 14 -58 -7z"/>
<path d="M3152 688 c-28 -28 -1 -75 37 -63 25 8 34 31 21 56 -12 21 -40 25 -58 7z"/>
<path d="M3356 685 c-9 -9 -16 -20 -16 -25 0 -15 32 -41 48 -38 24 5 39 35 26 56 -15 23 -38 26 -58 7z"/>
<path d="M3562 688 c-25 -25 -6 -68 30 -68 9 0 22 9 28 20 22 40 -26 80 -58 48z"/>
<path d="M3773 693 c-22 -8 -16 -61 7 -68 39 -12 66 35 38 63 -13 13 -24 14 -45 5z"/>
<path d="M3970 685 c-26 -32 13 -81 48 -59 34 22 22 74 -18 74 -10 0 -23 -7 -30 -15z"/>
<path d="M4182 688 c-28 -28 -1 -75 38 -63 14 4 20 15 20 35 0 36 -33 53 -58 28z"/>
<path d="M4380 681 c-25 -47 36 -83 64 -38 8 12 8 22 0 35 -16 25 -51 27 -64 3z"/>
<path d="M4592 688 c-23 -23 -7 -68 24 -68 14 0 44 27 44 40 0 13 -30 40 -44 40 -6 0 -17 -5 -24 -12z"/>
<path d="M4790 681 c-13 -25 -4 -48 21 -56 38 -12 65 35 37 63 -18 18 -46 14 -58 -7z"/>
<path d="M5002 688 c-28 -28 -1 -75 37 -63 25 8 34 31 21 56 -12 21 -40 25 -58 7z"/>
<path d="M5213 693 c-22 -8 -16 -61 7 -68 39 -12 66 35 38 63 -13 13 -24 14 -45 5z"/>
<path d="M5412 688 c-25 -25 -6 -68 30 -68 26 0 45 44 28 65 -15 18 -41 20 -58 3z"/>
<path d="M5623 693 c-18 -7 -16 -48 3 -64 31 -26 70 25 44 56 -13 15 -25 17 -47 8z"/>
<path d="M5820 685 c-26 -32 13 -81 48 -59 34 22 22 74 -18 74 -10 0 -23 -7 -30 -15z"/>
<path d="M6032 688 c-28 -28 -1 -75 38 -63 14 4 20 15 20 35 0 36 -33 53 -58 28z"/>
<path d="M6230 681 c-13 -25 -4 -48 21 -56 38 -12 65 35 37 63 -18 18 -46 14 -58 -7z"/>
<path d="M6442 688 c-23 -23 -7 -68 24 -68 14 0 44 27 44 40 0 13 -30 40 -44 40 -6 0 -17 -5 -24 -12z"/>
<path d="M6646 685 c-9 -9 -16 -20 -16 -25 0 -15 32 -41 48 -38 24 5 39 35 26 56 -15 23 -38 26 -58 7z"/>
<path d="M6852 688 c-28 -28 -1 -75 37 -63 25 8 34 31 21 56 -12 21 -40 25 -58 7z"/>
<path d="M7063 693 c-22 -8 -16 -61 7 -68 39 -12 66 35 38 63 -13 13 -24 14 -45 5z"/>
<path d="M7260 685 c-26 -32 13 -81 48 -59 34 22 22 74 -18 74 -10 0 -23 -7 -30 -15z"/>
<path d="M7470 685 c-26 -31 13 -82 44 -56 19 16 21 42 4 59 -16 16 -33 15 -48 -3z"/>
<path d="M7670 685 c-26 -32 13 -81 48 -59 34 22 22 74 -18 74 -10 0 -23 -7 -30 -15z"/>
<path d="M7882 688 c-28 -28 -1 -75 38 -63 14 4 20 15 20 35 0 36 -33 53 -58 28z"/>
<path d="M72 478 c-30 -30 3 -77 40 -57 30 16 16 69 -17 69 -6 0 -16 -5 -23 -12z"/>
<path d="M275 474 c-9 -9 -14 -23 -11 -31 3 -8 6 -17 6 -19 0 -2 11 -4 25 -4 33 0 51 33 29 54 -20 20 -29 20 -49 0z"/>
<path d="M482 478 c-30 -30 3 -77 40 -57 30 16 16 69 -17 69 -6 0 -16 -5 -23 -12z"/>
<path d="M686 474 c-12 -12 -13 -20 -6 -35 13 -23 55 -25 64 -3 8 21 8 20 -10 38 -19 20 -29 20 -48 0z"/>
<path d="M892 478 c-30 -30 3 -77 40 -57 21 11 24 39 6 57 -15 15 -31 15 -46 0z"/>
<path d="M1103 483 c-20 -7 -15 -51 6 -63 22 -11 51 9 51 35 0 12 -31 37 -42 34 -2 0 -9 -3 -15 -6z"/>
<path d="M1302 478 c-30 -30 3 -77 40 -57 30 16 16 69 -17 69 -6 0 -16 -5 -23 -12z"/>
<path d="M1512 478 c-30 -30 3 -77 40 -57 30 16 16 69 -17 69 -6 0 -16 -5 -23 -12z"/>
<path d="M1716 474 c-20 -19 -20 -29 0 -48 12 -12 20 -13 35 -6 23 13 25 55 3 64 -21 8 -20 8 -38 -10z"/>
<path d="M1922 478 c-30 -30 3 -77 40 -57 30 16 16 69 -17 69 -6 0 -16 -5 -23 -12z"/>
<path d="M2125 474 c-9 -9 -14 -23 -11 -31 3 -8 6 -17 6 -19 0 -9 47 -3 58 8 16 16 15 23 -4 42 -20 20 -29 20 -49 0z"/>
<path d="M2332 478 c-30 -30 3 -77 40 -57 30 16 16 69 -17 69 -6 0 -16 -5 -23 -12z"/>
<path d="M2536 474 c-12 -12 -13 -20 -6 -35 13 -23 55 -25 64 -3 8 21 8 20 -10 38 -19 20 -29 20 -48 0z"/>
<path d="M2742 478 c-30 -30 3 -77 40 -57 30 16 16 69 -17 69 -6 0 -16 -5 -23 -12z"/>
<path d="M2952 478 c-18 -18 -14 -46 7 -58 15 -7 23 -6 35 6 21 21 20 41 -3 54 -24 13 -24 13 -39 -2z"/>
<path d="M3158 479 c-37 -21 -4 -78 33 -59 21 12 25 40 7 58 -14 14 -18 14 -40 1z"/>
<path d="M3362 478 c-30 -30 3 -77 40 -57 30 16 16 69 -17 69 -6 0 -16 -5 -23 -12z"/>
<path d="M3566 474 c-27 -26 -12 -58 25 -52 39 5 36 67 -3 68 -4 0 -14 -7 -22 -16z"/>
<path d="M3772 478 c-30 -30 3 -77 40 -57 30 16 16 69 -17 69 -6 0 -16 -5 -23 -12z"/>
<path d="M3975 474 c-9 -9 -14 -23 -11 -31 3 -8 6 -17 6 -19 0 -12 59 -2 64 12 8 21 8 20 -10 38 -20 20 -29 20 -49 0z"/>
<path d="M4182 478 c-30 -30 3 -77 40 -57 30 16 16 69 -17 69 -6 0 -16 -5 -23 -12z"/>
<path d="M4392 481 c-22 -14 -10 -56 17 -59 37 -6 52 26 25 52 -18 18 -24 19 -42 7z"/>
<path d="M4592 478 c-30 -30 3 -77 40 -57 30 16 16 69 -17 69 -6 0 -16 -5 -23 -12z"/>
<path d="M4802 478 c-18 -18 -14 -46 7 -58 15 -7 23 -6 35 6 21 21 20 41 -3 54 -24 13 -24 13 -39 -2z"/>
<path d="M5008 479 c-37 -21 -4 -78 33 -59 21 12 25 40 7 58 -14 14 -18 14 -40 1z"/>
<path d="M5212 478 c-30 -30 3 -77 40 -57 30 16 16 69 -17 69 -6 0 -16 -5 -23 -12z"/>
<path d="M5416 474 c-9 -8 -16 -18 -16 -22 1 -39 63 -42 68 -3 6 37 -26 52 -52 25z"/>
<path d="M5622 478 c-30 -30 3 -77 40 -57 30 16 16 69 -17 69 -6 0 -16 -5 -23 -12z"/>
<path d="M5826 474 c-19 -19 -20 -26 -4 -42 24 -24 68 -9 68 23 0 7 -32 35 -40 35 -5 0 -16 -7 -24 -16z"/>
<path d="M6032 478 c-30 -30 3 -77 40 -57 30 16 16 69 -17 69 -6 0 -16 -5 -23 -12z"/>
<path d="M6243 483 c-20 -7 -15 -51 6 -63 15 -7 23 -6 35 6 20 19 20 29 0 48 -16 17 -21 18 -41 9z"/>
<path d="M6442 478 c-30 -30 3 -77 40 -57 30 16 16 69 -17 69 -6 0 -16 -5 -23 -12z"/>
<path d="M6652 478 c-30 -30 3 -77 40 -57 30 16 16 69 -17 69 -6 0 -16 -5 -23 -12z"/>
<path d="M6858 479 c-37 -21 -4 -78 33 -59 23 13 25 55 3 64 -19 7 -15 8 -36 -5z"/>
<path d="M7062 478 c-30 -30 3 -77 40 -57 30 16 16 69 -17 69 -6 0 -16 -5 -23 -12z"/>
<path d="M7265 474 c-9 -9 -14 -23 -11 -31 3 -8 6 -17 6 -19 0 -2 11 -4 25 -4 33 0 51 33 29 54 -20 20 -29 20 -49 0z"/>
<path d="M7472 478 c-30 -30 3 -77 40 -57 30 16 16 69 -17 69 -6 0 -16 -5 -23 -12z"/>
<path d="M7676 474 c-12 -12 -13 -20 -6 -35 13 -23 55 -25 64 -3 8 21 8 20 -10 38 -19 20 -29 20 -48 0z"/>
<path d="M7882 478 c-30 -30 3 -77 40 -57 30 16 16 69 -17 69 -6 0 -16 -5 -23 -12z"/>
<path d="M75 266 c-22 -16 -15 -50 11 -54 25 -4 47 19 38 41 -8 22 -29 28 -49 13z"/>
<path d="M485 266 c-22 -16 -12 -56 14 -56 20 0 41 19 41 37 0 21 -35 34 -55 19z"/>
<path d="M896 264 c-19 -19 -20 -26 -4 -42 17 -17 45 -15 52 4 10 25 7 33 -13 44 -15 7 -23 6 -35 -6z"/>
<path d="M1105 266 c-25 -18 -15 -51 15 -51 20 0 26 6 28 26 4 31 -18 44 -43 25z"/>
<path d="M1305 264 c-18 -18 -16 -33 7 -47 21 -14 48 -2 48 22 0 30 -34 45 -55 25z"/>
<path d="M1515 266 c-22 -16 -15 -50 11 -54 25 -4 47 19 38 41 -8 22 -29 28 -49 13z"/>
<path d="M1721 271 c-7 -5 -11 -19 -9 -32 4 -33 52 -35 56 -2 4 25 -27 46 -47 34z"/>
<path d="M1925 266 c-22 -16 -11 -56 14 -56 24 0 43 23 35 43 -8 22 -29 28 -49 13z"/>
<path d="M2334 265 c-15 -11 -17 -17 -8 -32 21 -34 63 -25 64 14 0 22 -35 34 -56 18z"/>
<path d="M2745 264 c-18 -18 -16 -33 7 -47 21 -14 48 -2 48 22 0 30 -34 45 -55 25z"/>
<path d="M2956 267 c-24 -17 -17 -51 11 -55 30 -4 49 31 27 52 -19 19 -16 19 -38 3z"/>
<path d="M3155 264 c-18 -18 -16 -33 7 -47 21 -14 48 -2 48 22 0 30 -34 45 -55 25z"/>
<path d="M3365 266 c-22 -16 -15 -50 11 -54 25 -4 47 19 38 41 -8 22 -29 28 -49 13z"/>
<path d="M3775 266 c-22 -16 -12 -56 14 -56 20 0 41 19 41 37 0 21 -35 34 -55 19z"/>
<path d="M4184 265 c-15 -11 -17 -17 -8 -32 21 -34 63 -25 64 14 0 22 -35 34 -56 18z"/>
<path d="M4595 264 c-18 -18 -16 -33 7 -47 21 -14 48 -2 48 22 0 30 -34 45 -55 25z"/>
<path d="M4806 267 c-24 -17 -17 -51 11 -55 30 -4 49 31 27 52 -19 19 -16 19 -38 3z"/>
<path d="M5006 264 c-12 -12 -13 -20 -5 -35 14 -27 53 -22 57 8 4 30 -31 49 -52 27z"/>
<path d="M5215 266 c-22 -16 -15 -50 11 -54 25 -4 47 19 38 41 -8 22 -29 28 -49 13z"/>
<path d="M5625 266 c-22 -16 -12 -56 14 -56 20 0 41 19 41 37 0 21 -35 34 -55 19z"/>
<path d="M6036 264 c-19 -19 -20 -26 -4 -42 17 -17 45 -15 52 4 10 25 7 33 -13 44 -15 7 -23 6 -35 -6z"/>
<path d="M6245 266 c-25 -18 -15 -51 15 -51 20 0 26 6 28 26 4 31 -18 44 -43 25z"/>
<path d="M6445 264 c-18 -18 -16 -33 7 -47 21 -14 48 -2 48 22 0 30 -34 45 -55 25z"/>
<path d="M6655 266 c-22 -16 -15 -50 11 -54 25 -4 47 19 38 41 -8 22 -29 28 -49 13z"/>
<path d="M6861 271 c-7 -5 -11 -19 -9 -32 4 -33 52 -35 56 -2 4 25 -27 46 -47 34z"/>
<path d="M7065 266 c-22 -16 -11 -56 14 -56 24 0 43 23 35 43 -8 22 -29 28 -49 13z"/>
<path d="M7474 265 c-15 -11 -17 -17 -8 -32 21 -34 63 -25 64 14 0 22 -35 34 -56 18z"/>
<path d="M7885 264 c-18 -18 -16 -33 7 -47 21 -14 48 -2 48 22 0 30 -34 45 -55 25z"/>
<path d="M274 256 c-10 -26 4 -48 28 -44 17 2 23 10 23 28 0 18 -6 26 -23 28 -13 2 -25 -3 -28 -12z"/>
<path d="M684 256 c-10 -26 4 -48 28 -44 17 2 23 10 23 28 0 18 -6 26 -23 28 -13 2 -25 -3 -28 -12z"/>
<path d="M2124 256 c-10 -26 4 -48 28 -44 17 2 23 10 23 28 0 18 -6 26 -23 28 -13 2 -25 -3 -28 -12z"/>
<path d="M2534 256 c-10 -26 4 -48 28 -44 17 2 23 10 23 28 0 18 -6 26 -23 28 -13 2 -25 -3 -28 -12z"/>
<path d="M3562 243 c2 -22 8 -28 28 -28 20 0 25 5 25 25 0 20 -6 26 -28 28 -26 3 -28 1 -25 -25z"/>
<path d="M3974 256 c-10 -26 4 -48 28 -44 17 2 23 10 23 28 0 18 -6 26 -23 28 -13 2 -25 -3 -28 -12z"/>
<path d="M4384 255 c-10 -25 4 -47 28 -43 17 2 24 11 26 31 3 23 0 27 -23 27 -14 0 -28 -7 -31 -15z"/>
<path d="M5414 256 c-10 -26 4 -48 28 -44 17 2 23 10 23 28 0 18 -6 26 -23 28 -13 2 -25 -3 -28 -12z"/>
<path d="M5824 256 c-10 -26 4 -48 28 -44 17 2 23 10 23 28 0 18 -6 26 -23 28 -13 2 -25 -3 -28 -12z"/>
<path d="M7264 256 c-10 -26 4 -48 28 -44 17 2 23 10 23 28 0 18 -6 26 -23 28 -13 2 -25 -3 -28 -12z"/>
<path d="M7674 256 c-10 -26 4 -48 28 -44 17 2 23 10 23 28 0 18 -6 26 -23 28 -13 2 -25 -3 -28 -12z"/>
<path d="M66 44 c-9 -22 17 -49 39 -40 10 3 15 15 13 28 -4 29 -42 37 -52 12z"/>
<path d="M277 53 c-13 -12 -7 -41 10 -47 21 -8 48 17 40 38 -6 16 -38 22 -50 9z"/>
<path d="M477 48 c-6 -18 11 -48 28 -48 17 0 34 30 28 48 -3 6 -15 12 -28 12 -13 0 -25 -6 -28 -12z"/>
<path d="M684 45 c-4 -9 0 -23 8 -31 20 -20 50 -7 46 20 -4 26 -45 35 -54 11z"/>
<path d="M894 45 c-8 -21 2 -45 19 -45 21 0 38 25 31 44 -8 20 -43 21 -50 1z"/>
<path d="M1094 45 c-4 -9 0 -23 9 -32 21 -21 49 -9 45 19 -4 28 -45 38 -54 13z"/>
<path d="M1304 45 c-8 -21 2 -45 19 -45 20 0 40 27 33 45 -7 19 -45 20 -52 0z"/>
<path d="M1504 45 c-4 -9 0 -23 9 -32 21 -21 49 -9 45 19 -4 28 -45 38 -54 13z"/>
<path d="M1714 45 c-8 -21 2 -45 19 -45 20 0 40 27 33 45 -7 19 -45 20 -52 0z"/>
<path d="M1916 44 c-9 -22 17 -49 39 -40 10 3 15 15 13 28 -4 29 -42 37 -52 12z"/>
<path d="M2127 53 c-13 -12 -7 -41 10 -47 21 -8 48 17 40 38 -6 16 -38 22 -50 9z"/>
<path d="M2327 48 c-6 -18 11 -48 27 -48 20 0 37 25 30 44 -7 19 -50 22 -57 4z"/>
<path d="M2534 45 c-4 -9 0 -23 8 -31 20 -20 50 -7 46 20 -4 26 -45 35 -54 11z"/>
<path d="M2744 45 c-8 -21 2 -45 19 -45 21 0 38 25 31 44 -8 20 -43 21 -50 1z"/>
<path d="M2944 45 c-4 -9 0 -23 9 -32 21 -21 49 -9 45 19 -4 28 -45 38 -54 13z"/>
<path d="M3154 45 c-8 -21 2 -45 19 -45 20 0 40 27 33 45 -7 19 -45 20 -52 0z"/>
<path d="M3356 44 c-9 -22 17 -49 39 -40 10 3 15 15 13 28 -4 29 -42 37 -52 12z"/>
<path d="M3567 53 c-13 -12 -7 -41 10 -47 21 -8 48 17 40 38 -6 16 -38 22 -50 9z"/>
<path d="M3766 44 c-7 -19 10 -44 30 -44 16 0 33 30 27 48 -7 18 -50 15 -57 -4z"/>
<path d="M3977 54 c-12 -13 -8 -42 8 -48 25 -9 46 5 43 28 -3 21 -37 34 -51 20z"/>
<path d="M4177 48 c-6 -18 11 -48 27 -48 20 0 37 25 30 44 -7 19 -50 22 -57 4z"/>
<path d="M4384 45 c-4 -9 0 -23 8 -31 20 -20 50 -7 46 20 -4 26 -45 35 -54 11z"/>
<path d="M4594 45 c-8 -21 2 -45 19 -45 21 0 38 25 31 44 -8 20 -43 21 -50 1z"/>
<path d="M4794 45 c-4 -9 0 -23 9 -32 21 -21 49 -9 45 19 -4 28 -45 38 -54 13z"/>
<path d="M5004 45 c-8 -21 2 -45 19 -45 20 0 40 27 33 45 -7 19 -45 20 -52 0z"/>
<path d="M5206 44 c-9 -22 17 -49 39 -40 10 3 15 15 13 28 -4 29 -42 37 -52 12z"/>
<path d="M5417 53 c-13 -12 -7 -41 10 -47 21 -8 48 17 40 38 -6 16 -38 22 -50 9z"/>
<path d="M5616 44 c-7 -19 10 -44 30 -44 16 0 33 30 27 48 -7 18 -50 15 -57 -4z"/>
<path d="M5824 45 c-4 -9 0 -23 8 -31 20 -20 50 -7 46 20 -4 26 -45 35 -54 11z"/>
<path d="M6034 45 c-8 -21 2 -45 19 -45 21 0 38 25 31 44 -8 20 -43 21 -50 1z"/>
<path d="M6234 45 c-4 -9 0 -23 9 -32 21 -21 49 -9 45 19 -4 28 -45 38 -54 13z"/>
<path d="M6444 45 c-8 -21 2 -45 19 -45 20 0 40 27 33 45 -7 19 -45 20 -52 0z"/>
<path d="M6644 45 c-4 -9 0 -23 9 -32 21 -21 49 -9 45 19 -4 28 -45 38 -54 13z"/>
<path d="M6854 45 c-8 -21 2 -45 19 -45 20 0 40 27 33 45 -7 19 -45 20 -52 0z"/>
<path d="M7056 44 c-9 -22 17 -49 39 -40 10 3 15 15 13 28 -4 29 -42 37 -52 12z"/>
<path d="M7267 53 c-13 -12 -7 -41 10 -47 21 -8 48 17 40 38 -6 16 -38 22 -50 9z"/>
<path d="M7467 48 c-6 -18 11 -48 28 -48 17 0 34 30 28 48 -3 6 -15 12 -28 12 -13 0 -25 -6 -28 -12z"/>
<path d="M7674 45 c-4 -9 0 -23 8 -31 20 -20 50 -7 46 20 -4 26 -45 35 -54 11z"/>
<path d="M7884 45 c-8 -21 2 -45 19 -45 21 0 38 25 31 44 -8 20 -43 21 -50 1z"/>
</g>
</svg>