<svg xmlns="http://www.w3.org/2000/svg" xmlns:xlink="http://www.w3.org/1999/xlink" width="689px" height="463px" viewBox="0 0 689 463">
<style>
    svg polygon {fill: #2571f9; stroke: cornflowerblue;}
    svg line {stroke: rgba(255,255,255,0.1);}
    svg path {fill: rgba(0,0,0,0.1);stroke: rgba(255,255,255,0.1);}
    svg polyline#Stroke-81 {fill: rgba(0,0,0,0.1); stroke: rgba(255,255,255,0.2);}
    svg path#Fill-75,
    svg path#Fill-55,
    svg path#Fill-47,
    svg path#Fill-64 {fill: none; stroke: none;}
</style>
<defs><polygon id="path-1" points="0.0918015473 0.693990823 654.239382 0.693990823 654.239382 272.843514 0.0918015473 272.843514"></polygon><polygon id="path-3" points="0.0911285538 0.373380693 688.23946 0.373380693 688.23946 411.843372 0.0911285538 411.843372"></polygon><polygon id="path-5" points="0.823578947 0.6969 31.248 0.6969 31.248 68.8450481 0.823578947 68.8450481"></polygon><polygon id="path-7" points="0.497348837 0.6969 36.2316047 0.6969 36.2316047 68.8459 0.497348837 68.8459"></polygon><polygon id="path-9" points="0.432384615 0.129566667 21.2443846 0.129566667 21.2443846 45.5613815 0.432384615 45.5613815"></polygon><polygon id="path-11" points="0.489076923 0.701228571 10.2443846 0.701228571 10.2443846 17.8440857 0.489076923 17.8440857"></polygon><polygon id="path-13" points="0 463 688 463 688 0 0 0"></polygon></defs><g id="Pages" stroke="none" stroke-width="1" fill="none" fill-rule="evenodd" style="
"><g id="New-Pricing-HD" transform="translate(-631.000000, -3902.000000)"><g id="section/help" transform="translate(120.000000, 3886.000000)"><g id="illustration/plan-select" transform="translate(511.000000, 16.000000)"><g id="Group-3" transform="translate(34.000000, 190.000000)"><mask id="mask-2" fill="white"><use xlink:href="#path-1"></use></mask><g id="Clip-2"></g><path d="M1025.86415,207.490546 C949.575816,12.9231907 662.299119,-56.6833047 384.212864,52.0217234 C106.127461,160.727602 -57.4615572,406.578985 18.8267783,601.147191 C95.1151138,795.715396 382.391811,865.321041 660.478066,756.616013 C938.563469,647.910135 1102.15249,402.058751 1025.86415,207.490546 Z" id="Stroke-1" stroke="#53866A" stroke-width="2" stroke-dasharray="4,6" mask="url(#mask-2)"></path></g><g id="Group-6" transform="translate(0.000000, 51.000000)"><mask id="mask-4" fill="white"><use xlink:href="#path-3"></use></mask><g id="Clip-5"></g><path d="M1040.63928,163.360469 C921.934548,-33.0639364 598.351532,-55.0395397 317.895317,114.276287 C37.4399534,283.591262 -93.6855188,580.083146 25.0192167,776.508402 C143.723952,972.932807 467.306968,994.908411 747.762332,825.592584 C1028.21855,656.276758 1159.34317,359.785725 1040.63928,163.360469 Z" id="Stroke-4" stroke="#53866A" stroke-width="2" stroke-dasharray="4,6" mask="url(#mask-4)"></path></g><path d="M405,68 C367.097349,84.4057408 329.408793,103.784522 292.397359,126.16952 C281.735884,132.617489 271.268116,139.230484 261,146" id="Stroke-7" stroke="#53866A" stroke-width="2"></path><polygon id="Fill-9" fill="#9FD2B4" points="148.5 458 119 441 119 407 148.5 390 178 407 178 441"></polygon><polygon id="Stroke-11" stroke="#59856A" stroke-width="2" stroke-linecap="round" stroke-linejoin="round" points="148.499577 446 129 434.750211 129 412.249789 148.499577 401 168 412.249789 168 434.750211"></polygon><path d="M148.5,415 C153.19455,415 157,418.80545 157,423.5 C157,428.1937 153.19455,432 148.5,432 C143.80545,432 140,428.1937 140,423.5 C140,418.80545 143.80545,415 148.5,415" id="Fill-13" fill="#3B916B"></path><polygon id="Fill-15" fill="#9FD2B4" points="275.5 349 246 332 246 298 275.5 281 305 298 305 332" style="
"></polygon><polygon id="Stroke-17" stroke="red" stroke-width="2" stroke-linecap="round" stroke-linejoin="round" points="275.499577 338 256 326.750211 256 304.249789 275.499577 293 295 304.249789 295 326.750211" style="
"></polygon><path d="M275.5,307 C280.19455,307 284,310.80545 284,315.5 C284,320.1937 280.19455,324 275.5,324 C270.80545,324 267,320.1937 267,315.5 C267,310.80545 270.80545,307 275.5,307" id="Fill-19" fill="#3B916B" style="
"></path><polygon id="Fill-21" fill="#9FD2B4" points="330.5 318 301 301 301 267 330.5 250 360 267 360 301"></polygon><polygon id="Stroke-23" stroke="#59856A" stroke-width="2" stroke-linecap="round" stroke-linejoin="round" points="330.500423 307 311 295.750211 311 273.249789 330.500423 262 350 273.249789 350 295.750211"></polygon><path d="M330.5,276 C335.19455,276 339,279.80545 339,284.5 C339,289.1937 335.19455,293 330.5,293 C325.80545,293 322,289.1937 322,284.5 C322,279.80545 325.80545,276 330.5,276" id="Fill-25" fill="#3B916B"></path><polygon id="Fill-27" fill="#9FD2B4" points="301.5 209 272 192 272 158 301.5 141 331 158 331 192"></polygon><polygon id="Stroke-29" stroke="#59856A" stroke-width="2" stroke-linecap="round" stroke-linejoin="round" points="301.499577 198 282 186.750211 282 164.249789 301.499577 153 321 164.249789 321 186.750211"></polygon><path d="M301.5,167 C306.19455,167 310,170.8063 310,175.5 C310,180.19455 306.19455,184 301.5,184 C296.80545,184 293,180.19455 293,175.5 C293,170.8063 296.80545,167 301.5,167" id="Fill-31" fill="#3B916B"></path><polygon id="Fill-33" fill="#9FD2B4" points="356.5 179 327 162 327 128 356.5 111 386 128 386 162"></polygon><polygon id="Stroke-35" stroke="#59856A" stroke-width="2" stroke-linecap="round" stroke-linejoin="round" points="356.500423 167 337 155.750211 337 133.249789 356.500423 122 376 133.249789 376 155.750211"></polygon><path d="M356.5,136 C361.19455,136 365,139.8063 365,144.5 C365,149.19455 361.19455,153 356.5,153 C351.80545,153 348,149.19455 348,144.5 C348,139.8063 351.80545,136 356.5,136" id="Fill-37" fill="#3B916B"></path><polygon id="Fill-39" fill="#9FD2B4" points="412.5 150 383 133 383 99 412.5 82 442 99 442 133"></polygon><polygon id="Stroke-41" stroke="#59856A" stroke-width="2" stroke-linecap="round" stroke-linejoin="round" points="412.499577 138 393 126.750211 393 104.249789 412.499577 93 432 104.249789 432 126.750211"></polygon><path d="M412.5,107 C417.19455,107 421,110.80545 421,115.5 C421,120.1937 417.19455,124 412.5,124 C407.80545,124 404,120.1937 404,115.5 C404,110.80545 407.80545,107 412.5,107" id="Fill-43" fill="#3B916B"></path><polygon id="Fill-45" fill="#9FD2B4" points="487.5 253 458 236 458 202 487.5 185 517 202 517 236"></polygon><path d="M488,185 C506.77735,185 522,200.22246 522,218.999575 C522,237.77754 506.77735,253 488,253 C469.22265,253 454,237.77754 454,218.999575 C454,200.22246 469.22265,185 488,185" id="Fill-47" fill="#75C49A"></path><polygon id="Stroke-49" stroke="#59856A" stroke-width="2" stroke-linecap="round" stroke-linejoin="round" points="487.500423 241 468 229.750211 468 207.249789 487.500423 196 507 207.249789 507 229.750211"></polygon><path d="M487.5,210 C492.19455,210 496,213.8063 496,218.5 C496,223.19455 492.19455,227 487.5,227 C482.80545,227 479,223.19455 479,218.5 C479,213.8063 482.80545,210 487.5,210" id="Fill-51" fill="#3B916B"></path><polygon id="Fill-53" fill="#9FD2B4" points="561.5 100 532 83 532 49 561.5 32 591 49 591 83"></polygon><path d="M562,32 C580.77735,32 596,47.2224597 596,65.999575 C596,84.7775403 580.77735,100 562,100 C543.22265,100 528,84.7775403 528,65.999575 C528,47.2224597 543.22265,32 562,32" id="Fill-55" fill="#75C49A"></path><polygon id="Stroke-57" stroke="#59856A" stroke-width="2" stroke-linecap="round" stroke-linejoin="round" points="561.500423 89 542 77.7502109 542 55.2497891 561.500423 44 581 55.2497891 581 77.7502109"></polygon><path d="M561.5,58 C566.19455,58 570,61.8063 570,66.5 C570,71.19455 566.19455,75 561.5,75 C556.80545,75 553,71.19455 553,66.5 C553,61.8063 556.80545,58 561.5,58" id="Fill-59" fill="#3B916B"></path><g id="Group-63" transform="translate(657.000000, 17.000000)"><mask id="mask-6" fill="white"><use xlink:href="#path-5"></use></mask><g id="Clip-62"></g><polygon id="Fill-61" fill="#9FD2B4" mask="url(#mask-6)" points="29.9604211 68.8450481 0.823578947 51.8080111 0.823578947 17.733937 29.9604211 0.6969 59.0972632 17.733937 59.0972632 51.8080111"></polygon></g><g id="Group-66" transform="translate(652.000000, 17.000000)" style="
"><mask id="mask-8" fill="white"><use xlink:href="#path-7" style=""></use></mask><g id="Clip-65"></g><path d="M34.9159535,0.6969 C53.9244884,0.6969 69.3345581,15.9527148 69.3345581,34.7709741 C69.3345581,53.5900852 53.9244884,68.8459 34.9159535,68.8459 C15.9074186,68.8459 0.497348837,53.5900852 0.497348837,34.7709741 C0.497348837,15.9527148 15.9074186,0.6969 34.9159535,0.6969" id="Fill-64" fill="#204345" style="
"></path></g><g id="Group-69" transform="translate(667.000000, 29.000000)"><mask id="mask-10" fill="white"><use xlink:href="#path-9"></use></mask><g id="Clip-68"></g><polygon id="Stroke-67" stroke="#59856A" stroke-width="2" stroke-linecap="round" stroke-linejoin="round" mask="url(#mask-10)" points="19.9506154 45.5613815 0.432384615 34.2036407 0.432384615 11.4873074 19.9506154 0.129566667 39.468 11.4873074 39.468 34.2036407"></polygon></g><g id="Group-72" transform="translate(678.000000, 43.000000)"><mask id="mask-12" fill="white"><use xlink:href="#path-11"></use></mask><g id="Clip-71"></g><path d="M8.95061538,0.701228571 C13.6239231,0.701228571 17.4121538,4.53951429 17.4121538,9.27265714 C17.4121538,14.0066571 13.6239231,17.8440857 8.95061538,17.8440857 C4.27730769,17.8440857 0.489076923,14.0066571 0.489076923,9.27265714 C0.489076923,4.53951429 4.27730769,0.701228571 8.95061538,0.701228571" id="Fill-70" fill="#3B916B" mask="url(#mask-12)"></path></g><polygon id="Fill-73" fill="#9FD2B4" points="139.5 344 110 327 110 293 139.5 276 169 293 169 327"></polygon><path d="M139,276 C157.77735,276 173,291.22246 173,309.999575 C173,328.77754 157.77735,344 139,344 C120.22265,344 105,328.77754 105,309.999575 C105,291.22246 120.22265,276 139,276" id="Fill-75" fill="#204345"></path><polygon id="Stroke-77" stroke="#59856A" stroke-width="2" stroke-linecap="round" stroke-linejoin="round" points="139.500423 332 120 320.750211 120 298.249789 139.500423 287 159 298.249789 159 320.750211"></polygon><path d="M139.5,301 C144.19455,301 148,304.8063 148,309.5 C148,314.19455 144.19455,318 139.5,318 C134.80545,318 131,314.19455 131,309.5 C131,304.8063 134.80545,301 139.5,301" id="Fill-79" fill="#EBCD39"></path><polyline id="Stroke-81" stroke="#59856A" stroke-width="2" stroke-linecap="round" stroke-linejoin="round" points="233 103 262.650626 103 298 123"></polyline><line x1="233.5" y1="137" x2="233.5" y2="69" id="Stroke-83" stroke="#59856A" stroke-width="2" stroke-linecap="round" stroke-linejoin="round"></line><mask id="mask-14" fill="white"><use xlink:href="#path-13"></use></mask><g id="Clip-86"></g><polygon id="Stroke-85" stroke="#59856A" stroke-width="2" stroke-linecap="round" stroke-linejoin="round" mask="url(#mask-14)" points="97 86 216 86 216 77 97 77"></polygon><polygon id="Stroke-87" stroke="#59856A" stroke-width="2" stroke-linecap="round" stroke-linejoin="round" mask="url(#mask-14)" points="97 103 216 103 216 94 97 94"></polygon><polygon id="Stroke-88" stroke="#59856A" stroke-width="2" stroke-linecap="round" stroke-linejoin="round" mask="url(#mask-14)" points="148 120 216 120 216 111 148 111"></polygon></g></g></g></g></svg>