<svg xmlns="http://www.w3.org/2000/svg" width="40" height="43" viewBox="0 0 40 43" fill="none" class="transform-gpu -rotate-[7deg] group-hover:rotate-0 group-hover:translate-x-[2px] group-hover:-translate-y-[2px] transition duration-300" style="margin: 0 0 30px;">
    <mask id="path-1-inside-1_223_59390" fill="white">
        <path fill-rule="evenodd" clip-rule="evenodd" d="M38.138 11.1303L26.1642 2.1998C26.1642 2.1998 26.138 2.18095 26.1213 2.17007L24.4886 0.951159C23.274 0.046224 21.6529 -0.14091 20.2626 0.458524L4.66362 7.18417C3.27334 7.7836 2.29654 9.09084 2.12079 10.5952L1.88627 12.6192C1.8827 12.6388 1.87844 12.6708 1.87844 12.6708L0.15232 27.5081C0.06808 28.2617 0.184156 29.0194 0.477823 29.7005C0.771489 30.3816 1.24275 30.9862 1.84858 31.4423L6.13349 34.6354L6.13221 34.6467L15.3678 41.5388C15.6794 41.7711 16.0157 41.9591 16.3673 42.1016C17.4484 42.5538 18.685 42.5619 19.7848 42.0877L35.262 35.4146C36.3618 34.9404 37.2049 34.0357 37.6182 32.9391C37.756 32.5856 37.8501 32.212 37.8951 31.826L39.2236 20.379L39.2145 20.3722L39.8342 15.0644C39.9185 14.3108 39.8024 13.5531 39.5087 12.872C39.215 12.1909 38.7438 11.5864 38.138 11.1303ZM15.1534 38.6021L3.1629 29.6608L3.15783 29.663C2.56365 29.22 2.25026 28.4931 2.33819 27.762L4.05922 12.9269L4.06349 12.8949C4.06637 12.8876 4.07213 12.8731 4.06994 12.868C4.14601 12.3048 4.56046 12.0658 4.74313 11.987C4.92579 11.9083 5.39423 11.7666 5.86477 12.1183L17.7193 20.9675C18.392 21.4671 18.7492 22.2957 18.6558 23.1256C18.6544 23.1503 18.6494 23.1946 18.6494 23.1946L16.9496 37.8277C16.8823 38.4113 16.4526 38.6568 16.275 38.7334C16.0974 38.8099 15.629 38.9516 15.1534 38.6021Z"/>
    </mask>
    <path fill-rule="evenodd" clip-rule="evenodd" d="M38.138 11.1303L26.1642 2.1998C26.1642 2.1998 26.138 2.18095 26.1213 2.17007L24.4886 0.951159C23.274 0.046224 21.6529 -0.14091 20.2626 0.458524L4.66362 7.18417C3.27334 7.7836 2.29654 9.09084 2.12079 10.5952L1.88627 12.6192C1.8827 12.6388 1.87844 12.6708 1.87844 12.6708L0.15232 27.5081C0.06808 28.2617 0.184156 29.0194 0.477823 29.7005C0.771489 30.3816 1.24275 30.9862 1.84858 31.4423L6.13349 34.6354L6.13221 34.6467L15.3678 41.5388C15.6794 41.7711 16.0157 41.9591 16.3673 42.1016C17.4484 42.5538 18.685 42.5619 19.7848 42.0877L35.262 35.4146C36.3618 34.9404 37.2049 34.0357 37.6182 32.9391C37.756 32.5856 37.8501 32.212 37.8951 31.826L39.2236 20.379L39.2145 20.3722L39.8342 15.0644C39.9185 14.3108 39.8024 13.5531 39.5087 12.872C39.215 12.1909 38.7438 11.5864 38.138 11.1303ZM15.1534 38.6021L3.1629 29.6608L3.15783 29.663C2.56365 29.22 2.25026 28.4931 2.33819 27.762L4.05922 12.9269L4.06349 12.8949C4.06637 12.8876 4.07213 12.8731 4.06994 12.868C4.14601 12.3048 4.56046 12.0658 4.74313 11.987C4.92579 11.9083 5.39423 11.7666 5.86477 12.1183L17.7193 20.9675C18.392 21.4671 18.7492 22.2957 18.6558 23.1256C18.6544 23.1503 18.6494 23.1946 18.6494 23.1946L16.9496 37.8277C16.8823 38.4113 16.4526 38.6568 16.275 38.7334C16.0974 38.8099 15.629 38.9516 15.1534 38.6021Z" class="fill-white group-hover:fill-brand-light-green transition duration-300" style="fill: #f18700;">
    </path>
    <path d="M26.1642 2.1998L26.4564 1.79399L26.4631 1.799L26.1642 2.1998ZM38.138 11.1303L38.4369 10.7294L38.4387 10.7308L38.138 11.1303ZM26.1213 2.17007L25.8487 2.58925L25.8352 2.58042L25.8222 2.57073L26.1213 2.17007ZM24.4886 0.951159L24.7873 0.550215L24.7877 0.550497L24.4886 0.951159ZM20.2626 0.458524L20.4606 0.917665L20.2626 0.458524ZM4.66362 7.18417L4.46566 6.72503L4.66362 7.18417ZM2.12079 10.5952L1.62412 10.5377L1.62417 10.5372L2.12079 10.5952ZM1.88627 12.6192L2.38295 12.6768L2.38109 12.6928L2.37819 12.7087L1.88627 12.6192ZM1.87844 12.6708L1.38172 12.613L1.38283 12.6047L1.87844 12.6708ZM0.15232 27.5081L-0.344592 27.4525L-0.34433 27.4503L0.15232 27.5081ZM0.477823 29.7005L0.01868 29.8985L0.477823 29.7005ZM1.84858 31.4423L1.5498 31.8432L1.54784 31.8417L1.84858 31.4423ZM6.13349 34.6354L6.43226 34.2345L6.66298 34.4064L6.63025 34.6923L6.13349 34.6354ZM6.13221 34.6467L5.83316 35.0474L5.60275 34.8754L5.63545 34.5898L6.13221 34.6467ZM15.3678 41.5388L15.069 41.9397L15.0688 41.9396L15.3678 41.5388ZM16.3673 42.1016L16.5551 41.6382L16.5603 41.6404L16.3673 42.1016ZM19.7848 42.0877L19.5868 41.6286L19.7848 42.0877ZM35.262 35.4146L35.46 35.8737L35.262 35.4146ZM37.6182 32.9391L37.1503 32.7628L37.1523 32.7576L37.6182 32.9391ZM37.8951 31.826L38.3918 31.8837L38.3917 31.8839L37.8951 31.826ZM39.2236 20.379L39.5233 19.9788L39.7534 20.1511L39.7203 20.4367L39.2236 20.379ZM39.2145 20.3722L38.9149 20.7725L38.6846 20.6L38.7179 20.3142L39.2145 20.3722ZM39.8342 15.0644L40.3311 15.12L40.3308 15.1224L39.8342 15.0644ZM39.5087 12.872L39.0496 13.07L39.5087 12.872ZM3.1629 29.6608L2.96491 29.2017L3.23019 29.0873L3.46179 29.26L3.1629 29.6608ZM15.1534 38.6021L14.8573 39.0051L14.8545 39.003L15.1534 38.6021ZM3.15783 29.663L3.35581 30.1221L3.09054 30.2365L2.85895 30.0638L3.15783 29.663ZM2.33819 27.762L2.83486 27.8196L2.83461 27.8217L2.33819 27.762ZM4.05922 12.9269L3.56248 12.8693L3.56361 12.8608L4.05922 12.9269ZM4.06349 12.8949L3.56788 12.8288L3.57601 12.7678L3.59869 12.7106L4.06349 12.8949ZM4.06994 12.868L3.61075 13.0659L3.55588 12.9385L3.57444 12.8011L4.06994 12.868ZM4.74313 11.987L4.94109 12.4462L4.94109 12.4462L4.74313 11.987ZM5.86477 12.1183L5.56567 12.519L5.56544 12.5188L5.86477 12.1183ZM17.7193 20.9675L17.4212 21.369L17.4202 21.3682L17.7193 20.9675ZM18.6558 23.1256L18.1566 23.0977L18.1573 23.0836L18.1589 23.0696L18.6558 23.1256ZM18.6494 23.1946L19.1463 23.2502L19.1461 23.2523L18.6494 23.1946ZM16.9496 37.8277L16.4529 37.7704L16.4529 37.77L16.9496 37.8277ZM16.275 38.7334L16.473 39.1925L16.473 39.1925L16.275 38.7334ZM26.4631 1.799L38.4369 10.7295L37.839 11.5311L25.8653 2.6006L26.4631 1.799ZM26.3938 1.75089C26.4103 1.76157 26.4272 1.77339 26.4366 1.78001C26.4421 1.78383 26.4468 1.7872 26.4502 1.78964C26.4519 1.79086 26.4533 1.79188 26.4544 1.79263C26.4549 1.793 26.4553 1.79331 26.4557 1.79355C26.4558 1.79367 26.456 1.79377 26.4561 1.79385C26.4562 1.79389 26.4562 1.79393 26.4562 1.79396C26.4563 1.79398 26.4563 1.79399 26.4563 1.79401C26.4563 1.79401 26.4563 1.79402 26.4563 1.79403C26.4563 1.79403 26.4563 1.79403 26.4563 1.79404C26.4564 1.79404 26.4564 1.79404 26.1642 2.1998C25.872 2.60555 25.872 2.60555 25.872 2.60556C25.872 2.60556 25.872 2.60556 25.872 2.60556C25.872 2.60557 25.872 2.60557 25.8721 2.60558C25.8721 2.60559 25.8721 2.60559 25.8721 2.6056C25.8721 2.60561 25.8721 2.60562 25.8721 2.60563C25.8721 2.60564 25.8721 2.60563 25.8721 2.60561C25.872 2.60557 25.8719 2.60546 25.8717 2.6053C25.8712 2.60498 25.8705 2.60444 25.8695 2.60373C25.8674 2.60228 25.8646 2.60026 25.8614 2.59802C25.8582 2.59573 25.855 2.59352 25.8522 2.59163C25.8492 2.58954 25.8481 2.58886 25.8487 2.58925L26.3938 1.75089ZM24.7877 0.550497L26.4204 1.76941L25.8222 2.57073L24.1895 1.35182L24.7877 0.550497ZM20.0647 -0.000617687C21.6184 -0.670519 23.4289 -0.461885 24.7873 0.550215L24.1898 1.3521C23.1191 0.554333 21.6874 0.388699 20.4606 0.917665L20.0647 -0.000617687ZM4.46566 6.72503L20.0647 -0.000617732L20.4606 0.917665L4.86158 7.64331L4.46566 6.72503ZM1.62417 10.5372C1.82073 8.85467 2.91194 7.39493 4.46566 6.72503L4.86158 7.64331C3.63474 8.17228 2.77235 9.32701 2.61742 10.6532L1.62417 10.5372ZM1.3896 12.5617L1.62412 10.5377L2.61747 10.6528L2.38295 12.6768L1.3896 12.5617ZM1.87844 12.6708C1.38283 12.6047 1.38283 12.6047 1.38283 12.6047C1.38283 12.6047 1.38283 12.6047 1.38283 12.6047C1.38283 12.6047 1.38283 12.6046 1.38283 12.6046C1.38284 12.6046 1.38284 12.6046 1.38285 12.6046C1.38285 12.6045 1.38286 12.6044 1.38287 12.6044C1.38289 12.6042 1.38291 12.6041 1.38294 12.6039C1.38299 12.6035 1.38306 12.6029 1.38315 12.6023C1.38332 12.601 1.38356 12.5993 1.38385 12.5972C1.38442 12.593 1.38522 12.5873 1.38618 12.5807C1.38782 12.5693 1.39085 12.5489 1.39436 12.5297L2.37819 12.7087C2.37832 12.708 2.37809 12.7093 2.37752 12.713C2.37699 12.7163 2.37642 12.7201 2.37586 12.724C2.3753 12.7279 2.37481 12.7313 2.37447 12.7338C2.3743 12.735 2.37418 12.7359 2.3741 12.7365C2.37407 12.7368 2.37404 12.7369 2.37403 12.737C2.37403 12.7371 2.37402 12.7371 2.37403 12.7371C2.37403 12.737 2.37403 12.737 2.37404 12.737C2.37404 12.737 2.37404 12.737 2.37404 12.737C2.37404 12.737 2.37404 12.7369 2.37404 12.7369C2.37404 12.7369 2.37405 12.7369 2.37405 12.7369C2.37405 12.7369 2.37405 12.7369 1.87844 12.6708ZM-0.34433 27.4503L1.38179 12.613L2.37509 12.7286L0.648971 27.5659L-0.34433 27.4503ZM0.01868 29.8985C-0.309195 29.138 -0.438531 28.293 -0.344584 27.4525L0.649225 27.5636C0.574691 28.2304 0.677508 28.9008 0.936965 29.5025L0.01868 29.8985ZM1.54784 31.8417C0.87222 31.3331 0.346556 30.6589 0.01868 29.8985L0.936965 29.5025C1.19642 30.1043 1.61328 30.6393 2.14931 31.0428L1.54784 31.8417ZM5.83472 35.0363L1.54981 31.8432L2.14734 31.0413L6.43226 34.2345L5.83472 35.0363ZM5.63545 34.5898L5.63674 34.5785L6.63025 34.6923L6.62896 34.7035L5.63545 34.5898ZM15.0688 41.9396L5.83316 35.0474L6.43125 34.2459L15.6669 41.1381L15.0688 41.9396ZM16.1795 42.565C15.7888 42.4067 15.4152 42.1978 15.069 41.9397L15.6667 41.138C15.9436 41.3444 16.2425 41.5115 16.5551 41.6382L16.1795 42.565ZM19.9828 42.5469C18.7556 43.076 17.3778 43.0663 16.1744 42.5629L16.5603 41.6404C17.519 42.0414 18.6144 42.0479 19.5868 41.6286L19.9828 42.5469ZM35.46 35.8737L19.9828 42.5469L19.5868 41.6286L35.0641 34.9555L35.46 35.8737ZM38.086 33.1155C37.626 34.3361 36.6872 35.3446 35.46 35.8737L35.0641 34.9555C36.0365 34.5362 36.7838 33.7352 37.1503 32.7628L38.086 33.1155ZM38.3917 31.8839C38.3417 32.3128 38.2371 32.7279 38.084 33.1207L37.1523 32.7576C37.2748 32.4433 37.3585 32.1113 37.3985 31.7681L38.3917 31.8839ZM39.7203 20.4367L38.3918 31.8837L37.3984 31.7684L38.7269 20.3214L39.7203 20.4367ZM39.5142 19.972L39.5233 19.9788L38.924 20.7793L38.9149 20.7725L39.5142 19.972ZM40.3308 15.1224L39.7112 20.4302L38.7179 20.3142L39.3376 15.0065L40.3308 15.1224ZM39.9679 12.674C40.2957 13.4345 40.4251 14.2795 40.3311 15.12L39.3373 15.0089C39.4118 14.3421 39.309 13.6717 39.0496 13.07L39.9679 12.674ZM38.4387 10.7308C39.1143 11.2395 39.64 11.9136 39.9679 12.674L39.0496 13.07C38.7901 12.4682 38.3733 11.9333 37.8372 11.5297L38.4387 10.7308ZM3.46179 29.26L15.4523 38.2013L14.8545 39.003L2.864 30.0616L3.46179 29.26ZM2.95984 29.2039L2.96491 29.2017L3.36088 30.1199L3.35581 30.1221L2.95984 29.2039ZM2.83461 27.8217C2.76824 28.3736 3.00494 28.9253 3.45671 29.2622L2.85895 30.0638C2.12235 29.5146 1.73227 28.6126 1.84177 27.7023L2.83461 27.8217ZM4.55589 12.9845L2.83486 27.8196L1.84152 27.7044L3.56255 12.8693L4.55589 12.9845ZM4.5591 12.961L4.55483 12.993L3.56361 12.8608L3.56788 12.8288L4.5591 12.961ZM4.52914 12.6702C4.58534 12.8006 4.56884 12.9161 4.56631 12.9361C4.56126 12.976 4.55255 13.0073 4.54821 13.0221C4.53926 13.0524 4.52858 13.0785 4.52829 13.0792L3.59869 12.7106C3.60128 12.7041 3.59492 12.7192 3.58903 12.7393C3.58621 12.7488 3.57871 12.7751 3.57422 12.8106C3.57191 12.8288 3.56915 12.8589 3.57108 12.8961C3.57287 12.9309 3.5797 12.9938 3.61075 13.0659L4.52914 12.6702ZM4.94109 12.4462C4.8249 12.4963 4.60691 12.6279 4.56544 12.9349L3.57444 12.8011C3.6851 11.9817 4.29602 11.6353 4.54516 11.5279L4.94109 12.4462ZM5.56544 12.5188C5.30632 12.3251 5.05625 12.3965 4.94109 12.4462L4.54516 11.5279C4.79532 11.42 5.48214 11.2081 6.1641 11.7178L5.56544 12.5188ZM17.4202 21.3682L5.56567 12.519L6.16387 11.7176L18.0184 20.5669L17.4202 21.3682ZM18.1589 23.0696C18.2325 22.4158 17.9502 21.7618 17.4212 21.369L18.0174 20.5661C18.8338 21.1724 19.2659 22.1755 19.1526 23.1815L18.1589 23.0696ZM18.6494 23.1946C18.1525 23.1391 18.1525 23.1391 18.1525 23.1391C18.1525 23.1391 18.1525 23.1391 18.1525 23.1391C18.1525 23.1391 18.1525 23.1391 18.1525 23.1391C18.1525 23.1392 18.1525 23.1392 18.1525 23.1392C18.1525 23.1392 18.1525 23.1392 18.1525 23.1392C18.1525 23.1392 18.1525 23.1392 18.1525 23.1391C18.1525 23.1389 18.1526 23.1386 18.1526 23.1382C18.1527 23.1373 18.1529 23.1359 18.1531 23.1341C18.1535 23.1305 18.154 23.1254 18.1546 23.1198C18.1551 23.1141 18.1556 23.1086 18.1561 23.1038C18.1565 23.0984 18.1566 23.0966 18.1566 23.0977L19.155 23.1535C19.1536 23.1777 19.1511 23.2044 19.1496 23.2189C19.1488 23.2275 19.148 23.2351 19.1474 23.2405C19.1471 23.2433 19.1469 23.2455 19.1467 23.2472C19.1466 23.248 19.1465 23.2487 19.1465 23.2492C19.1464 23.2494 19.1464 23.2496 19.1464 23.2498C19.1464 23.2499 19.1464 23.25 19.1464 23.25C19.1464 23.25 19.1464 23.2501 19.1464 23.2501C19.1463 23.2501 19.1463 23.2501 19.1463 23.2501C19.1463 23.2501 19.1463 23.2502 19.1463 23.2502C19.1463 23.2502 19.1463 23.2502 18.6494 23.1946ZM16.4529 37.77L18.1528 23.1369L19.1461 23.2523L17.4463 37.8854L16.4529 37.77ZM16.0771 38.2742C16.1883 38.2263 16.4159 38.091 16.4529 37.7704L17.4463 37.885C17.3487 38.7316 16.7169 39.0873 16.473 39.1925L16.0771 38.2742ZM15.4495 38.1992C15.7158 38.3949 15.9692 38.3207 16.0771 38.2742L16.473 39.1925C16.2257 39.2992 15.5423 39.5084 14.8573 39.0051L15.4495 38.1992Z" class="fill-greyscale-light-09 group-hover:fill-brand-light-green transition duration-300" style="fill: #f18700;"/>
</svg>