<svg xmlns="http://www.w3.org/2000/svg" viewBox="0 0 24 24"><path d="M0 0h24v24H0V0z" fill="none"/><path d="M12 21c5 0 9-4 9-9s-4-9-9-9-9 4-9 9 4 9 9 9z" fill="#919191" fill-opacity=".3"/><path d="M12.1 15l1.5.8c.4.3 1 .1 1.2-.4.1-.2.1-.4.1-.6l-.4-1.7 1.3-1.2c.4-.4.4-.9 0-1.3-.1-.1-.3-.2-.5-.3l-1.8-.3-.8-1.6c-.2-.4-.7-.6-1.2-.4-.2 0-1.2 1.9-1.2 1.9l-1.7.3c-.5.1-.9.5-.8 1 0 .2.1.4.3.5l1.3 1.2-.4 1.7c0 .5.3.9.8 1.1.2 0 .4 0 .6-.1l1.7-.6z" fill-rule="evenodd" clip-rule="evenodd" fill="#919191"/></svg>