<svg version="1.0" viewBox="0 0 96.000000 152.000000" xmlns="http://www.w3.org/2000/svg" height="152.000000pt" width="96.000000pt" preserveAspectRatio="xMidYMid meet">
                                            <g fill="#fff" stroke="none" transform="translate(0.000000,152.000000) scale(0.100000,-0.100000)">
                                                <path d="M64 1491 c-17 -11 -36 -34 -43 -52 -8 -22 -11 -190 -11 -546 0 -581 -1 -571 72 -602 l37 -16 3 -133 3 -134 66 61 67 61 63 -57 64 -57 5 130 5 129 278 3 277 2 0 510 0 510 -420 0 -420 0 -32 29 c-43 38 -45 92 -4 127 l27 24 365 0 c317 0 364 2 364 15 0 13 -47 15 -367 15 -344 0 -370 -1 -399 -19z m326 -416 l0 -195 -170 0 -170 0 0 25 c0 14 5 25 12 25 9 0 9 3 0 12 -7 7 -12 18 -12 26 0 11 8 9 36 -7 26 -15 52 -21 97 -21 l62 0 -85 50 c-47 27 -91 52 -98 57 -8 5 -12 21 -10 39 l3 32 130 -74 c72 -40 133 -73 138 -74 4 0 7 68 7 150 l0 150 30 0 30 0 0 -195z m220 45 c0 -82 3 -150 8 -150 4 0 70 36 147 80 107 61 141 76 143 64 5 -19 20 -9 -138 -98 l-135 -76 60 0 c53 0 69 6 138 44 l77 45 0 -40 c0 -24 -5 -39 -12 -40 -10 0 -10 -2 0 -6 6 -2 12 -18 12 -34 l0 -29 -180 0 -180 0 0 188 c0 104 3 192 7 195 3 4 17 7 30 7 l23 0 0 -150z m-222 -607 l2 -203 -30 0 -30 0 -2 159 -3 159 -125 -70 c-149 -84 -150 -84 -150 -66 0 8 58 48 129 89 l130 74 -55 3 c-48 3 -63 -2 -129 -38 l-75 -41 0 35 c0 22 5 36 13 37 9 0 9 2 0 6 -7 2 -13 15 -13 28 0 29 23 32 210 31 l125 -1 3 -202z m522 176 c0 -21 -5 -29 -17 -29 -17 -1 -17 -1 0 -14 9 -7 17 -21 17 -30 0 -13 -10 -11 -54 14 -45 26 -64 31 -108 28 l-53 -3 107 -60 c106 -59 107 -61 108 -97 l0 -36 -147 83 -148 84 -3 -160 -3 -160 -27 3 -27 3 -3 190 c-1 104 0 195 3 203 4 10 43 12 180 12 l175 -2 0 -29z m-557 -491 c-3 -46 -7 -85 -9 -87 -2 -2 -22 13 -44 33 l-41 37 -40 -35 c-21 -20 -44 -36 -49 -36 -6 0 -10 35 -10 85 l0 85 100 0 99 0 -6 -82z"></path>
                                                <path d="M120 1425 c0 -13 44 -15 335 -15 291 0 335 2 335 15 0 13 -44 15 -335 15 -291 0 -335 -2 -335 -15z"></path>
                                                <path d="M140 1355 c0 -13 45 -15 345 -15 300 0 345 2 345 15 0 13 -45 15 -345 15 -300 0 -345 -2 -345 -15z"></path>
                                            </g>
                                        </svg>