<svg version="1.0" viewBox="0 0 1920.000000 1920.000000" height="1920.000000pt" width="1920.000000pt" preserveAspectRatio="xMidYMid meet">
    <g fill="#fff" stroke="none" transform="translate(0.000000,1920.000000) scale(0.100000,-0.100000)">
        <path
            d="M8657 16500 c-188 -32 -383 -134 -518 -271 -117 -119 -192 -252 -242 -427 -21 -75 -22 -92 -25 -814 -1 -406 -5 -738 -7 -738 -2 0 -390 225 -862 501 -832 486 -858 500 -883 486 -1888 -1100 -2630 -1535 -2653 -1555 -42 -40 -67 -101 -68 -168 -2 -93 40 -169 115 -209 l36 -20 0 -437 0 -437 108 -3 107 -3 0 -1185 0 -1185 -212 -3 -213 -2 0 -488 0 -487 -47 -30 c-68 -42 -177 -149 -229 -221 -56 -78 -109 -193 -136 -292 -29 -110 -29 -305 1 -417 25 -95 74 -201 130 -284 23 -33 41 -62 41 -64 0 -2 -25 -21 -55 -41 -76 -53 -185 -170 -234 -253 -50 -84 -94 -204 -111 -299 -17 -98 -8 -288 19 -378 66 -223 211 -408 403 -516 32 -17 58 -33 58 -35 0 -2 -25 -37 -56 -77 -70 -92 -157 -269 -184 -373 -93 -361 -1 -738 245 -1003 l55 -59 -70 -47 c-176 -117 -330 -306 -406 -497 -65 -168 -90 -383 -64 -560 66 -454 427 -826 877 -904 75 -13 593 -15 4134 -15 l4049 0 0 1080 0 1080 -215 0 -215 0 0 215 0 215 540 0 540 0 0 -406 c0 -223 4 -404 8 -402 5 2 308 183 673 403 l664 400 1025 5 c1162 6 1069 -1 1260 93 92 45 117 62 201 146 107 107 162 191 209 320 65 177 60 -225 58 5086 l-3 4830 -21 65 c-59 180 -120 284 -234 401 -125 128 -263 210 -439 262 l-76 22 -3515 1 c-1933 1 -3537 -2 -3563 -6z m7073 -447 c170 -58 309 -215 340 -382 7 -35 10 -1678 10 -4788 0 -4273 -2 -4741 -16 -4810 -40 -193 -160 -321 -333 -353 -34 -6 -432 -10 -1073 -10 l-1020 0 -383 -230 c-211 -126 -390 -233 -399 -236 -14 -6 -16 17 -16 230 l0 236 -755 0 -755 0 -2 432 -3 433 -537 3 -538 2 0 645 0 644 -107 3 -108 3 -3 648 -2 647 -540 0 -540 0 0 430 0 430 -212 2 -213 3 0 1185 0 1185 108 3 107 3 0 437 1 437 44 27 c68 41 99 96 103 183 3 61 0 79 -21 121 -14 27 -33 57 -44 66 -10 9 -129 82 -263 161 l-245 144 -3 842 c-2 829 -2 842 19 904 55 164 202 295 373 332 50 11 674 13 3511 12 l3450 -2 65 -22z m-8652 -1848 c463 -269 842 -493 842 -497 0 -10 -3537 -10 -3543 -1 -3 5 394 241 882 525 l886 517 46 -27 c26 -15 425 -247 887 -517z m1222 -1150 l0 -215 -2155 0 -2155 0 0 215 0 215 2155 0 2155 0 0 -215z m-3670 -1835 l0 -1190 -212 2 -213 3 -3 1175 c-1 646 0 1181 3 1188 3 9 56 12 215 12 l210 0 0 -1190z m865 0 l0 -1185 -212 -3 -213 -2 0 1190 0 1190 213 -2 212 -3 0 -1185z m865 0 l0 -1190 -215 0 -215 0 0 1190 0 1190 215 0 215 0 0 -1190z m860 0 l0 -1190 -212 2 -213 3 -3 1175 c-1 646 0 1181 3 1188 3 9 56 12 215 12 l210 0 0 -1190z m865 0 l0 -1185 -212 -3 -213 -2 0 1190 0 1190 213 -2 212 -3 0 -1185z m435 -1835 l0 -215 -2375 0 -2375 0 0 215 0 215 2375 0 2375 0 0 -215z m1080 -1080 l0 -435 -2923 0 c-2072 0 -2941 3 -2983 11 -137 25 -249 110 -311 237 -37 74 -38 79 -38 187 0 106 1 113 34 180 65 131 189 224 327 244 32 5 1372 9 2977 10 l2917 1 0 -435z m215 -1295 l0 -425 -3185 0 -3185 0 -68 32 c-276 131 -341 480 -128 694 58 58 142 104 214 119 23 4 1462 7 3197 6 l3155 -1 0 -425z m1075 -1515 l0 -645 -3517 2 -3518 3 -73 27 c-104 38 -176 83 -252 158 -76 76 -132 167 -163 265 -30 94 -31 292 -3 375 75 222 243 384 458 440 71 18 162 19 3571 19 l3497 1 0 -645z m440 -1730 l0 -645 -3842 2 -3843 3 -65 23 c-115 42 -182 83 -266 167 -65 65 -90 98 -123 167 -126 260 -75 549 131 750 75 74 193 140 290 163 43 11 795 13 3886 14 l3832 1 0 -645z"
        ></path>
        <path
            d="M13600 15640 c-339 -56 -602 -98 -2200 -355 -388 -62 -849 -136 -1024 -165 -176 -28 -347 -60 -380 -71 -250 -84 -436 -342 -436 -605 0 -59 102 -740 112 -749 2 -2 44 4 95 12 50 9 98 13 105 10 9 -3 21 -51 36 -143 12 -77 67 -420 122 -764 55 -344 141 -875 190 -1180 49 -305 139 -865 200 -1245 208 -1295 250 -1558 247 -1560 -1 -1 -47 -10 -101 -19 -55 -9 -102 -18 -104 -20 -2 -3 10 -89 27 -193 17 -103 42 -259 56 -346 14 -86 36 -187 50 -223 73 -195 241 -346 445 -401 116 -31 212 -23 695 55 242 40 539 88 660 107 121 20 470 76 775 125 305 49 879 141 1275 205 446 71 749 124 795 139 108 35 186 84 267 169 127 134 191 304 179 477 -5 80 -102 699 -111 708 -2 2 -49 -4 -105 -13 -56 -9 -103 -15 -104 -14 -1 2 -30 177 -64 389 -52 326 -620 3860 -698 4344 -20 122 -23 160 -14 166 7 4 55 13 106 20 52 7 94 14 94 16 0 2 -25 157 -55 344 -33 205 -65 369 -79 411 -64 184 -214 330 -413 400 -42 15 -90 22 -173 24 -103 4 -152 -2 -470 -55z m556 -405 c66 -39 92 -93 116 -236 11 -66 19 -122 17 -123 -2 -2 -247 -42 -544 -89 -297 -48 -835 -134 -1195 -192 -2174 -350 -2514 -404 -2518 -401 -1 2 -12 57 -23 122 -17 98 -18 126 -9 164 17 65 46 107 96 136 47 28 62 30 1364 239 1174 188 1762 283 2170 350 242 40 403 62 434 60 27 -3 67 -15 92 -30z m-6 -829 c0 -3 74 -468 165 -1033 91 -565 201 -1251 245 -1523 44 -272 138 -859 210 -1305 164 -1015 165 -1023 157 -1032 -8 -8 -548 -96 -553 -90 -3 2 4 42 15 88 76 325 41 640 -100 896 -31 58 -38 78 -28 84 16 9 -76 112 -311 349 -168 170 -274 262 -482 421 -102 78 -419 296 -472 326 -16 9 -8 23 87 143 396 497 657 962 747 1332 17 68 30 135 30 151 0 16 7 41 16 56 15 26 15 40 -16 227 -17 109 -37 206 -44 214 -7 8 -24 47 -39 85 -59 154 -147 302 -256 432 l-60 72 37 7 c67 13 617 102 635 103 9 1 17 -1 17 -3z m-1182 -263 c112 -74 224 -188 300 -302 54 -83 110 -196 101 -205 -2 -2 -384 -65 -849 -140 -465 -75 -928 -149 -1030 -166 -102 -16 -189 -30 -194 -30 -13 0 0 111 25 208 37 148 99 277 195 402 73 96 22 82 686 190 332 54 620 99 642 99 31 1 55 -10 124 -56z m-1984 -280 c-78 -185 -124 -387 -124 -550 0 -47 -4 -83 -10 -85 -18 -6 51 -420 70 -425 8 -2 37 -45 63 -96 171 -334 551 -701 1116 -1082 91 -61 175 -116 186 -122 18 -11 17 -14 -23 -65 -247 -309 -447 -600 -582 -848 -40 -74 -230 -470 -257 -537 -3 -8 2 -13 12 -13 13 0 16 -6 11 -26 -15 -57 -36 -223 -36 -279 0 -194 88 -474 217 -688 19 -32 33 -60 31 -62 -5 -5 -552 -93 -556 -90 -2 2 -55 322 -117 712 -63 389 -141 879 -175 1088 -140 869 -220 1370 -380 2365 -60 377 -112 695 -115 708 -3 13 0 24 7 27 22 8 611 103 646 104 l32 1 -16 -37z m2436 -672 c0 -5 -13 -49 -29 -98 -104 -317 -331 -695 -679 -1130 l-113 -142 -82 51 c-455 285 -860 625 -1056 888 -39 52 -71 99 -71 105 0 5 78 22 173 37 273 44 1339 216 1592 258 262 43 265 43 265 31z m-604 -2007 c226 -144 538 -373 533 -391 -3 -9 -1140 -195 -1148 -188 -17 18 458 655 488 655 5 0 62 -34 127 -76z m992 -835 c68 -88 128 -192 154 -268 21 -59 23 -84 23 -241 0 -160 -3 -184 -28 -274 -15 -54 -42 -129 -60 -165 l-32 -65 -390 -62 c-214 -35 -587 -94 -829 -133 -241 -39 -449 -71 -461 -71 -50 0 -201 202 -264 354 -76 183 -90 339 -47 508 14 51 34 114 45 140 19 45 20 46 83 56 34 6 277 46 538 88 261 42 635 102 830 134 195 32 363 58 373 59 10 1 36 -24 65 -60z m1421 -1301 c32 -171 25 -258 -26 -319 -56 -66 59 -44 -1628 -314 -220 -35 -652 -105 -960 -154 -308 -50 -743 -120 -967 -156 -224 -36 -428 -65 -453 -65 -75 0 -151 51 -187 125 -16 32 -54 252 -46 261 5 5 288 51 1488 244 278 44 1002 161 1610 259 608 98 1117 179 1131 180 25 1 28 -3 38 -61z"
        ></path>
    </g>
</svg>