<svg version=" 1.0 " viewBox=" 0 0 225.000000 225.000000 " xmlns=" http://www.w3.org/2000/svg " height=" 225.000000pt " width=" 225.000000pt " preserveAspectRatio=" xMidYMid meet ">
    <g fill=" #fff " stroke=" none " transform=" translate(0.000000,225.000000) scale(0.100000,-0.100000) ">
        <path
            d=" M675 2230 c-16 -18 -31 -20 -134 -20 -120 0 -145 -7 -178 -50 -10 -11 -12 -200 -13 -807 l0 -793 29 -32 29 -33 496 -3 496 -3 0 -98 c0 -129 9 -138 85 -87 30 20 58 36 63 36 5 0 39 -74 76 -165 38 -91 73 -168 78 -171 5 -3 50 11 99 31 64 27 89 43 89 55 0 10 -29 88 -65 175 -36 87 -62 161 -59 166 3 5 11 9 19 9 8 0 37 5 65 11 76 16 69 35 -55 159 l-105 105 0 698 c0 765 1 750 -59 781 -26 14 -82 16 -381 16 -337 0 -353 1 -377 20 -21 16 -41 20 -103 20 -64 0 -80 -3 -95 -20z m-185 -880 l0 -790 -30 0 c-19 0 -33 7 -40 19 -14 27 -14 1515 0 1542 7 12 21 19 40 19 l30 0 0 -790z m150 636 c0 -127 3 -157 16 -170 21 -21 23 -21 72 19 l43 34 45 -35 c37 -27 49 -32 65 -24 18 10 19 23 19 170 l0 160 348 0 c257 0 351 -3 360 -12 9 -9 12 -172 12 -672 l0 -660 -89 87 c-49 48 -93 87 -99 87 -6 0 -18 -7 -26 -16 -13 -13 -16 -46 -16 -205 l0 -189 -415 0 -415 0 0 790 0 790 40 0 40 0 0 -154z "
        ></path>
        <path
            d=" M1017 1820 c-29 -25 -67 -93 -90 -162 -5 -14 -12 -15 -39 -7 -48 13 -134 11 -171 -5 -96 -40 -96 -135 0 -253 l34 -43 -34 -42 c-96 -119 -96 -214 0 -254 37 -16 110 -18 167 -5 35 9 39 7 44 -12 3 -12 19 -49 36 -82 36 -69 82 -105 134 -105 49 0 112 67 142 148 l22 59 36 -8 c21 -5 61 -9 90 -9 163 0 201 132 77 269 l-37 40 41 48 c90 108 93 206 7 247 -37 17 -119 21 -178 7 l-36 -8 -22 61 c-15 40 -37 76 -65 104 -36 36 -48 42 -83 42 -32 0 -49 -7 -75 -30z m111 -62 c21 -23 61 -104 62 -124 0 -6 -22 -21 -50 -32 l-50 -21 -47 21 c-27 11 -49 22 -51 23 -6 5 32 92 55 123 28 38 51 41 81 10z m-248 -177 c22 -6 24 -12 22 -45 -5 -57 -13 -71 -56 -105 l-39 -31 -23 21 c-13 12 -35 45 -51 74 -27 53 -27 54 -9 74 15 17 30 21 75 20 31 -1 67 -4 81 -8z m571 -1 c35 -19 15 -85 -49 -152 l-25 -27 -41 31 c-23 18 -42 32 -43 32 0 1 -4 27 -8 58 -7 54 -6 57 16 61 47 9 131 7 150 -3z m-451 -39 c0 -5 -7 -11 -15 -15 -9 -3 -15 0 -15 9 0 8 7 15 15 15 8 0 15 -4 15 -9z m210 -6 c0 -9 -6 -12 -15 -9 -8 4 -15 10 -15 15 0 5 7 9 15 9 8 0 15 -7 15 -15z m-54 -66 c65 -37 74 -51 74 -124 0 -63 -13 -81 -93 -124 l-44 -24 -67 37 -67 37 3 81 3 81 60 33 c33 19 64 34 69 34 5 0 33 -14 62 -31z m-266 -119 c0 -13 -5 -18 -15 -14 -16 7 -19 17 -8 27 12 13 23 7 23 -13z m422 -12 c-9 -9 -12 -7 -12 12 0 19 3 21 12 12 9 -9 9 -15 0 -24z m-449 -81 c20 -17 30 -37 36 -75 4 -29 4 -55 0 -58 -5 -2 -37 -7 -73 -11 -112 -10 -141 28 -84 111 56 82 61 83 121 33z m534 26 c38 -48 73 -109 73 -130 0 -35 -33 -46 -113 -40 -38 3 -71 8 -74 11 -3 2 -2 28 2 58 6 47 12 57 48 85 23 18 44 33 46 33 2 0 10 -8 18 -17z m-399 -121 c2 -7 -3 -12 -12 -12 -9 0 -16 7 -16 16 0 17 22 14 28 -4z m209 -9 c-3 -3 -11 -2 -17 2 -9 6 -9 10 1 16 14 8 27 -7 16 -18z m-50 -59 c38 -17 40 -24 12 -84 -37 -83 -78 -109 -112 -72 -18 20 -71 131 -65 137 2 2 24 13 48 24 46 20 58 19 117 -5z "
        ></path>
        <path d=" M1052 1388 c-15 -15 -15 -61 0 -76 7 -7 24 -12 38 -12 33 0 50 17 50 50 0 33 -17 50 -50 50 -14 0 -31 -5 -38 -12z "></path>
    </g>
</svg>