<svg version="1.0" xmlns="http://www.w3.org/2000/svg"
 width="512.000000pt" height="512.000000pt" viewBox="0 0 512.000000 512.000000"
 preserveAspectRatio="xMidYMid meet">
 <style>
    g {fill: #fff;}
 </style>

<g transform="translate(0.000000,512.000000) scale(0.100000,-0.100000)"
fill="#000000" stroke="none">
<path d="M1644 4690 c-360 -28 -687 -136 -949 -313 -114 -78 -286 -248 -354
-352 -96 -147 -160 -300 -197 -470 -21 -101 -24 -331 -5 -435 39 -217 138
-419 294 -603 l63 -74 32 -209 c18 -115 46 -312 61 -439 16 -126 35 -242 42
-258 12 -26 48 -44 76 -39 7 2 39 -4 72 -13 32 -8 65 -15 73 -15 8 0 103 110
211 244 l197 243 61 -24 c176 -71 498 -102 711 -69 59 9 136 25 172 36 l66 19
0 -37 c0 -59 27 -210 55 -307 31 -106 106 -255 175 -347 107 -142 289 -286
461 -367 287 -135 569 -162 924 -90 62 13 109 18 114 13 5 -5 38 -63 74 -129
78 -143 109 -182 162 -206 41 -18 153 -27 191 -15 29 9 40 40 63 181 11 66 37
197 57 291 l37 171 59 48 c130 105 269 325 317 504 112 409 -33 836 -368 1089
-42 32 -126 85 -186 119 -247 139 -465 200 -751 210 l-151 6 -6 191 c-6 204
-16 267 -68 423 -112 338 -405 676 -729 838 -292 147 -677 214 -1056 185z
m266 -120 c499 -43 888 -240 1143 -579 204 -270 295 -604 246 -901 l-12 -69
-54 -11 c-417 -87 -774 -406 -898 -802 -18 -60 -33 -89 -45 -93 -156 -50 -544
-71 -750 -41 -63 10 -160 29 -215 43 -114 28 -168 27 -214 -7 -18 -12 -66 -67
-107 -122 -65 -85 -138 -174 -255 -311 l-27 -31 -6 50 c-35 270 -61 459 -87
619 l-31 190 -55 59 c-149 160 -249 355 -287 556 -20 105 -21 304 -1 407 85
446 419 794 919 958 232 76 492 106 736 85z m1950 -1654 c139 -25 258 -63 385
-125 289 -139 477 -350 562 -628 23 -77 26 -105 27 -233 0 -165 -12 -224 -74
-357 -50 -107 -88 -162 -178 -255 l-74 -76 -29 -124 c-27 -112 -87 -397 -104
-491 l-6 -39 -97 144 c-112 166 -182 241 -231 251 -20 4 -81 -1 -150 -13 -147
-26 -370 -28 -509 -5 -53 9 -151 34 -217 56 -329 109 -571 310 -690 573 -57
127 -70 186 -69 336 1 116 5 147 28 223 52 173 145 324 279 454 194 188 423
289 747 327 69 8 317 -3 400 -18z"/>
<path id="line1" d="M818 3753 c-22 -24 -23 -57 -3 -76 30 -30 368 -47 1088 -54 536 -5
569 -5 587 12 23 21 26 54 8 77 -12 14 -78 16 -558 22 -492 5 -666 11 -1000
32 -96 6 -107 5 -122 -13z"/>
<path id="line1" d="M1305 3128 c-305 -10 -315 -12 -315 -68 0 -56 -7 -55 473 -41 355 10
446 15 465 27 24 16 28 44 12 75 -10 18 -22 19 -183 17 -95 0 -298 -5 -452
-10z"/>
<path id="dote" d="M2990 2037 c-35 -18 -70 -74 -70 -114 0 -102 100 -151 168 -83 38 38
48 79 32 136 -19 68 -69 92 -130 61z"/>
<path id="dote" d="M3532 2033 c-41 -20 -62 -59 -62 -117 0 -64 37 -106 92 -106 32 0 47
7 74 34 28 28 34 41 34 79 0 112 -51 153 -138 110z"/>
<path id="dote" d="M4172 2030 c-56 -34 -77 -112 -47 -170 31 -59 104 -69 153 -20 38 38
48 79 32 136 -21 73 -73 93 -138 54z"/>
</g>
</svg>
