<svg width="32" height="32" viewBox="0 0 32 32" fill="none" xmlns="http://www.w3.org/2000/svg">
<path fill-rule="evenodd" clip-rule="evenodd" d="M16 32C12.8355 32 9.74207 31.0616 7.11089 29.3035C4.4797 27.5454 2.42895 25.0466 1.21795 22.1229C0.00694911 19.1993 -0.309927 15.9823 0.307437 12.8786C0.924801 9.77486 2.44867 6.92394 4.68631 4.6863C6.92395 2.44866 9.77487 0.924809 12.8786 0.307445C15.9823 -0.309918 19.1993 0.00692507 22.123 1.21793C25.0466 2.42893 27.5454 4.47969 29.3035 7.11088C31.0616 9.74207 32 12.8355 32 16C32 20.2435 30.3143 24.3131 27.3137 27.3137C24.3131 30.3143 20.2435 32 16 32ZM6.9408 19.608C6.59674 19.2602 6.40376 18.7906 6.40376 18.3013C6.40376 17.8121 6.59674 17.3425 6.9408 16.9947L7.8827 16.0581C8.04287 15.8965 8.23387 15.7687 8.44438 15.6823C8.6549 15.5959 8.88065 15.5527 9.10819 15.5553C9.33572 15.5578 9.56042 15.606 9.76896 15.6971C9.9775 15.7881 10.1656 15.9202 10.3222 16.0853L11.9861 17.8117C12.0655 17.8955 12.1611 17.9621 12.267 18.0077C12.373 18.0533 12.4871 18.0767 12.6024 18.0767C12.7178 18.0767 12.8319 18.0533 12.9378 18.0077C13.0438 17.9621 13.1393 17.8955 13.2187 17.8117L21.6987 9.0704C21.8563 8.90408 22.046 8.77136 22.2563 8.68021C22.4666 8.58907 22.6931 8.54141 22.9223 8.54006C23.1515 8.53872 23.3785 8.58372 23.5899 8.67239C23.8012 8.76105 23.9924 8.89155 24.152 9.05601L25.0667 9.9808C25.4024 10.3272 25.5901 10.7907 25.5901 11.2731C25.5901 11.7555 25.4024 12.2189 25.0667 12.5653L13.8085 24.0059C13.6514 24.1685 13.4634 24.2981 13.2556 24.3871C13.0477 24.4762 12.8241 24.5228 12.598 24.5243C12.3719 24.5258 12.1478 24.4821 11.9388 24.3958C11.7297 24.3096 11.54 24.1824 11.3808 24.0219L6.9408 19.608Z" fill="#699F4C" fill-opacity="0.6"/>
</svg>
