<?xml version="1.0" encoding="iso-8859-1"?>
<!-- Uploaded to: SVG Repo, www.svgrepo.com, Generator: SVG Repo Mixer Tools -->
<svg fill="#000000" version="1.1" id="Capa_1" xmlns="http://www.w3.org/2000/svg" xmlns:xlink="http://www.w3.org/1999/xlink" 
	 viewBox="0 0 60 60" xml:space="preserve">
<g>
	<g>
		<path d="M60,48L60,48V1c0-0.6-0.4-1-1-1H15c-0.6,0-1,0.4-1,1v58c0,0.6,0.4,1,1,1h33c0.3,0,0.5-0.1,0.7-0.3l11-11
			c0.1-0.1,0.1-0.2,0.2-0.3v-0.1C60,48.2,60,48.1,60,48z M16,2h42v45H48c-0.6,0-1,0.4-1,1v10H16V2z M49,56.6V49h7.6l-3.8,3.8
			L49,56.6z"/>
		<polygon points="24,16 26,16 26,12 30,12 30,10 26,10 26,6 24,6 24,10 20,10 20,12 24,12 		"/>
		<rect x="48" y="8" width="6" height="2"/>
		<rect x="42" y="12" width="12" height="2"/>
		<path d="M21,30h32c0.6,0,1-0.4,1-1v-8c0-0.6-0.4-1-1-1H21c-0.6,0-1,0.4-1,1v8C20,29.6,20.4,30,21,30z M22,22h30v6H22V22z"/>
		<rect x="20" y="33" width="2" height="2"/>
		<rect x="24" y="33" width="10" height="2"/>
		<rect x="40" y="33" width="2" height="2"/>
		<rect x="44" y="33" width="10" height="2"/>
		<rect x="20" y="38" width="2" height="2"/>
		<rect x="24" y="38" width="10" height="2"/>
		<rect x="40" y="38" width="2" height="2"/>
		<rect x="44" y="38" width="10" height="2"/>
		<rect x="20" y="43" width="2" height="2"/>
		<rect x="24" y="43" width="10" height="2"/>
		<rect x="20" y="48" width="2" height="2"/>
		<rect x="24" y="48" width="10" height="2"/>
		<rect x="20" y="53" width="2" height="2"/>
		<rect x="24" y="53" width="10" height="2"/>
		<rect x="40" y="43" width="2" height="2"/>
		<rect x="44" y="43" width="10" height="2"/>
		<path d="M8.9,0.7C8.8,0.3,8.4,0,8,0S7.2,0.3,7.1,0.7L4.2,9.4C4.1,9.5,4,9.7,4,9.9V10l0,0v38v5H2V24H0v30c0,0.6,0.4,1,1,1h3v4
			c0,0.6,0.4,1,1,1h6c0.6,0,1-0.4,1-1V48V10c0-0.2-0.1-0.5-0.2-0.6L8.9,0.7z M6,11h4v36H6V11z M8,4.2L9.6,9H6.4L8,4.2z M10,58H6v-9
			h4V58z"/>
	</g>
</g>
</svg>