<!DOCTYPE svg PUBLIC "-//W3C//DTD SVG 1.1//EN" "http://www.w3.org/Graphics/SVG/1.1/DTD/svg11.dtd">
<!-- Uploaded to: SVG Repo, www.svgrepo.com, Transformed by: SVG Repo Mixer Tools -->
<svg width="64px" height="64px" viewBox="0 0 20 20" xmlns="http://www.w3.org/2000/svg" fill="#000000">
<g id="SVGRepo_bgCarrier" stroke-width="0"/>
<g id="SVGRepo_tracerCarrier" stroke-linecap="round" stroke-linejoin="round"/>
<g id="SVGRepo_iconCarrier">
<path d="M11 1a2 2 0 0 0-2 2v3H7a2 2 0 0 0-2 2v3H3a2 2 0 0 0-2 2v3c0 1.1.9 2 2 2h14a2 2 0 0 0 2-2V3a2 2 0 0 0-2-2h-6Zm0 2h5v3h-5V3ZM7 8h5v3H7V8Zm-4 5h5v3H3v-3Z" fill="#000000"/>
</g>
</svg>