<svg xmlns="http://www.w3.org/2000/svg" width="24" height="24" focusable="false" aria-hidden="true" viewBox="0 0 24 24">
    <path d="M9 20C6.88333 20 5.021 19.2627 3.413 17.788C1.80433 16.3127 1 14.3167 1 11.8C1 10.2167 1.6 8.5 2.8 6.65C4 4.8 5.81667 2.8 8.25 0.65C8.35 0.566667 8.46667 0.5 8.6 0.45C8.73333 0.4 8.86667 0.375 9 0.375C9.13333 0.375 9.26667 0.4 9.4 0.45C9.53333 0.5 9.65 0.566667 9.75 0.65C12.1833 2.8 14 4.8 15.2 6.65C16.4 8.5 17 10.2167 17 11.8C17 14.3167 16.1957 16.3127 14.587 17.788C12.979 19.2627 11.1167 20 9 20ZM9 18C10.6833 18 12.104 17.425 13.262 16.275C14.4207 15.125 15 13.6333 15 11.8C15 10.6167 14.5083 9.26233 13.525 7.737C12.5417 6.21233 11.0333 4.51667 9 2.65C6.96667 4.51667 5.45833 6.21233 4.475 7.737C3.49167 9.26233 3 10.6167 3 11.8C3 13.6333 3.579 15.125 4.737 16.275C5.89567 17.425 7.31667 18 9 18ZM9.275 17C9.475 16.9833 9.646 16.9043 9.788 16.763C9.92933 16.621 10 16.45 10 16.25C10 16.0167 9.925 15.8293 9.775 15.688C9.625 15.546 9.43333 15.4833 9.2 15.5C8.51667 15.55 7.79167 15.3627 7.025 14.938C6.25833 14.5127 5.775 13.7417 5.575 12.625C5.54167 12.4417 5.454 12.2917 5.312 12.175C5.17067 12.0583 5.00833 12 4.825 12C4.59167 12 4.4 12.0873 4.25 12.262C4.1 12.4373 4.05 12.6417 4.1 12.875C4.38333 14.3917 5.05 15.475 6.1 16.125C7.15 16.775 8.20833 17.0667 9.275 17Z"></path>
</svg>