<svg viewBox="0 0 64 46" xmlns="http://www.w3.org/2000/svg" class="inline-block stroke shrink-0 fill-current w-22 h-20"><path d="M29.7326 44.6903C22.7563 44.6903 17.6555 43.1779 15.1825 40.5105C13.5104 38.707 12.9759 36.1165 11.8103 33.9509L7.37888 25.7185C6.57485 24.2248 4.92775 23.4156 3.48913 22.5168C2.50242 21.9003 1.74517 20.9595 1.35508 19.8669C0.966895 18.7744 0.959245 17.5699 1.33595 16.4755C1.71266 15.3791 2.45844 14.4307 3.43941 13.8029C4.27888 13.2661 5.2503 12.9816 6.25039 12.9816C6.42058 12.9816 6.59077 12.9892 6.76096 13.0062C7.92169 13.12 9.02122 13.6265 9.86069 14.4307C10.6982 15.235 11.2471 16.3104 11.4019 17.458C11.5918 18.8655 12.0091 20.389 13.2111 21.1454L20.3761 25.654C20.6591 25.8342 20.9822 25.948 21.3111 25.9879C21.401 25.9993 21.4909 26.005 21.5808 26.005C21.8236 26.005 22.0646 25.9651 22.2959 25.8874C22.6095 25.7811 22.9021 25.6028 23.1392 25.3733C23.3764 25.1419 23.5637 24.8555 23.6785 24.5444L27.1553 15.1689C27.6428 13.8543 27.0954 12.4106 26.4455 11.1682C25.9292 10.18 25.7494 9.03056 25.9368 7.93421C26.1242 6.83597 26.6769 5.8117 27.4915 5.04919C28.308 4.28478 29.3712 3.7992 30.4841 3.67781C30.6696 3.65884 30.857 3.64746 31.0425 3.64746C31.9795 3.64746 32.8993 3.89973 33.7043 4.37773C34.6662 4.94866 35.4272 5.83257 35.8479 6.86442C36.2686 7.89628 36.3413 9.05711 36.0506 10.1307C35.6876 11.4836 35.461 13.0086 36.2195 14.1861L41.6018 22.5414C41.7816 22.824 42.0264 23.063 42.3075 23.2375C42.5905 23.412 42.9136 23.5239 43.2444 23.56C43.3248 23.5695 43.4089 23.5733 43.4892 23.5733C43.7416 23.5733 43.9902 23.5315 44.2273 23.4481C44.5409 23.3381 44.8316 23.1579 45.0668 22.9246L51.1795 16.9061C52.1353 15.9651 52.2118 14.4787 52.0713 13.1447C51.9566 12.1337 52.1459 11.1151 52.6201 10.2047C53.0944 9.29421 53.8229 8.55067 54.7255 8.05561C55.4904 7.63642 56.3566 7.41449 57.2305 7.41449C57.3797 7.41449 57.5307 7.42018 57.6799 7.43346C58.7087 7.52261 59.6763 7.90766 60.4813 8.55067C61.2864 9.19179 61.8753 10.0491 62.187 11.026C62.4968 12.0028 62.5102 13.0404 62.2215 14.0248C61.9327 15.0092 61.3629 15.878 60.5731 16.5362C59.4353 17.4842 58.201 18.4898 57.8088 19.918L55.2104 29.3791C54.5833 31.6624 54.6346 34.2016 53.4746 36.2659C53.1905 36.7714 52.8315 37.2647 52.3983 37.7442C48.0862 42.5127 37.6263 44.6846 29.7345 44.6846" fill="#F4CA66"></path><path d="M57.5745 8.48376C57.1997 8.49893 56.2416 7.982 55.8802 8.09771C55.3199 8.2779 54.8112 8.5738 54.381 8.96265C54.9852 9.30786 56.081 10.3824 56.4463 10.9818C56.9301 11.7747 57.1308 12.7079 57.0161 13.6279C56.9014 14.5478 56.4769 15.4033 55.8114 16.0539C55.1459 16.7045 49.2754 32.0286 49.2754 32.0286C49.4628 31.9964 49.6406 31.9812 49.8146 31.9812C51.0499 31.9812 52.5607 33.3384 53.7922 33.9264L53.8075 33.2957C53.8075 33.1136 53.7979 32.9296 53.7788 32.7437L57.6051 16.6893L57.6835 16.6798C58.4981 16.5925 59.2668 16.2663 59.894 15.7428C60.5212 15.2193 60.9783 14.5231 61.2077 13.7417C61.4372 12.9602 61.4276 12.1275 61.181 11.3498C60.9343 10.5721 60.462 9.88549 59.8214 9.37715C59.1827 8.86691 58.4044 8.55773 57.5898 8.48755C57.586 8.48755 57.5821 8.48755 57.5783 8.48755" fill="white" fill-opacity="0.5"></path><path d="M6.24753 14.0311C5.65665 14.0311 5.07342 14.1563 4.53799 14.3991C4.35633 14.4807 4.18041 14.5774 4.01022 14.6855C3.2262 15.1882 2.63532 15.9374 2.3351 16.8156C2.18595 17.2481 2.11328 17.6976 2.11328 18.1472C2.11328 18.6119 2.1936 19.0766 2.3504 19.5204C2.66209 20.3949 3.26062 21.1384 4.05037 21.6335C4.71201 22.047 5.4769 22.2651 6.25327 22.2651C6.33549 22.2651 6.43336 22.4634 6.51558 22.4577C6.44866 22.4653 6.58251 22.4539 6.51558 22.4577L13.5154 36.749C13.6339 37.8283 15.1681 38.9246 15.8928 39.7327C17.3538 38.7425 18.3596 36.0244 19.8645 35.8385C19.8645 35.8385 9.67807 21.6069 8.88832 21.1137C8.09857 20.6206 7.49813 19.8751 7.18835 19.0007C6.87665 18.1263 6.87092 17.1722 7.17305 16.2959C7.40061 15.6339 7.79261 15.0421 8.30892 14.5774C7.84424 14.3119 7.32985 14.1392 6.79443 14.0672C6.79443 14.0672 6.78678 14.0672 6.78295 14.0672C6.77339 14.0672 6.76574 14.0653 6.75618 14.0634C6.75236 14.0634 6.74853 14.0634 6.74471 14.0634C6.74471 14.0634 6.7428 14.0634 6.74089 14.0634C6.73706 14.0634 6.73515 14.0634 6.73132 14.0634C6.73132 14.0634 6.72941 14.0634 6.7275 14.0634C6.71985 14.0634 6.71029 14.0634 6.70264 14.0615C6.70264 14.0615 6.70073 14.0615 6.69882 14.0615C6.69499 14.0615 6.69308 14.0615 6.68925 14.0615C6.68925 14.0615 6.68734 14.0615 6.68543 14.0615H6.67587C6.67587 14.0615 6.67396 14.0615 6.67204 14.0615C6.66822 14.0615 6.6644 14.0615 6.65866 14.0615C6.62998 14.0596 6.6032 14.0558 6.57452 14.0539C6.46744 14.0463 6.36035 14.0406 6.25327 14.0406" fill="white" fill-opacity="0.5"></path><path d="M31.04 4.69797C31.7838 4.69797 32.5162 4.89713 33.1587 5.28028C33.9293 5.73931 34.5279 6.43353 34.8663 7.26243C35.2029 8.08943 35.2603 9.00369 35.0289 9.86673C34.6393 11.32 34.2046 13.0111 35.0193 14.276L40.7101 23.112C40.974 23.5255 41.3297 23.8745 41.7485 24.1344C42.1672 24.3943 42.6376 24.5555 43.1272 24.6105C43.2477 24.6238 43.3681 24.6295 43.4886 24.6295C43.8577 24.6295 44.2267 24.5669 44.5766 24.4455C45.0413 24.2842 45.4639 24.0206 45.812 23.6735L52.3288 17.2563C53.3739 16.2272 53.2701 14.5027 53.1186 13.0439C53.0268 12.2339 53.1798 11.4164 53.5565 10.6918C53.9332 9.96915 54.5164 9.37356 55.2335 8.98093C55.8454 8.64519 56.5319 8.47069 57.228 8.47069C57.3465 8.47069 57.467 8.47638 57.5856 8.48586C58.4021 8.55604 59.1785 8.86522 59.8172 9.37546C60.4558 9.8857 60.9301 10.5723 61.1768 11.3481C61.4234 12.1258 61.433 12.9566 61.2035 13.74C60.974 14.5215 60.517 15.2195 59.8898 15.7411C59.2626 16.2646 58.492 16.5909 57.6793 16.6781C57.6319 16.6838 57.5926 16.7177 57.58 16.7637L54.1675 29.1878C53.5225 31.5361 53.627 34.2135 52.2586 36.228C49.1075 40.8666 38.7815 43.641 29.732 43.641C24.0451 43.641 18.8605 42.5442 16.2806 40.1249C14.4884 38.4443 13.9961 35.7876 12.8315 33.6242L6.9145 22.6322C6.78561 22.3928 6.52362 22.2604 6.25169 22.2604C5.47532 22.2604 4.71234 22.0441 4.0488 21.6287C3.25904 21.1356 2.6586 20.3901 2.34882 19.5157C2.03904 18.6413 2.03139 17.6872 2.33352 16.8109C2.63565 15.9327 3.22462 15.1834 4.00864 14.6808C4.67792 14.2521 5.4562 14.0264 6.24595 14.0264C6.38172 14.0264 6.51558 14.0321 6.65134 14.0454C7.57878 14.1364 8.44884 14.5366 9.12004 15.1796C9.79123 15.8246 10.2234 16.6743 10.3496 17.5943C10.5548 19.113 10.8426 20.896 12.1397 21.7122L19.8056 26.5357C20.2205 26.7994 20.691 26.9663 21.1786 27.0251C21.3105 27.0403 21.4425 27.0498 21.5763 27.0498C21.9339 27.0498 22.2896 26.991 22.63 26.8772C23.0965 26.7197 23.5211 26.4618 23.8729 26.1184C24.2248 25.777 24.4963 25.3597 24.6646 24.9007L28.3374 14.9967C28.8616 13.5833 28.0745 12.0212 27.378 10.6842C26.965 9.89139 26.8216 8.98662 26.9726 8.1065C27.1237 7.22639 27.5578 6.41836 28.2118 5.80759C28.8657 5.19493 29.7014 4.81367 30.5944 4.71694C30.7417 4.70176 30.8908 4.69228 31.038 4.69228M31.038 2.59632C30.8143 2.59632 30.5887 2.6077 30.3649 2.63236C29.0226 2.77652 27.7433 3.36263 26.7623 4.28257C25.7813 5.20062 25.1159 6.43353 24.8921 7.7556C24.6665 9.07577 24.8845 10.4566 25.504 11.6459C26.0774 12.7455 26.4504 14.0229 26.0193 15.1856L22.6854 24.1761C22.6223 24.3468 22.5248 24.4986 22.3986 24.62C22.2724 24.7414 22.1194 24.8362 21.953 24.8912C21.8306 24.9329 21.7044 24.9519 21.5763 24.9519C21.5285 24.9519 21.4807 24.9481 21.4348 24.9424C21.2608 24.9216 21.0906 24.8609 20.9434 24.7679L14.1287 20.4802C13.0722 19.8154 12.6118 18.5486 12.4435 17.3116C12.2561 15.9308 11.5983 14.6391 10.5905 13.6698C9.58088 12.7005 8.25571 12.0917 6.85978 11.9551C6.65708 11.9361 6.45056 11.9247 6.24595 11.9247C5.04316 11.9247 3.87287 12.2662 2.86321 12.913C1.68336 13.6679 0.786526 14.8098 0.333327 16.128C-0.119872 17.4463 -0.110311 18.8936 0.358186 20.208C0.826683 21.5206 1.73882 22.653 2.9244 23.3947C4.34621 24.2841 5.88873 25.1664 6.68367 26.6431L10.833 34.3509C11.9744 36.4713 12.5401 38.9499 14.059 40.8184C14.992 41.966 16.4365 43.0777 18.6468 43.9616C21.5323 45.1167 25.3664 45.7275 29.732 45.7275C34.0976 45.7275 38.9394 45.0788 43.0411 43.9028C46.2441 42.9828 50.604 41.289 53.1817 38.44C53.7872 37.7705 54.2683 37.0627 54.6206 36.3285C55.6242 34.2371 55.6383 31.7959 56.2526 29.559L58.7119 20.6039C59.0843 19.2479 60.1702 18.2378 61.2494 17.3363C62.1998 16.5434 62.8863 15.4983 63.2324 14.3147C63.5785 13.1311 63.5651 11.8849 63.1922 10.7089C62.8194 9.53289 62.1099 8.50293 61.1423 7.73094C60.1728 6.95894 59.0064 6.49423 57.7691 6.38801C57.5894 6.37284 57.4077 6.36525 57.2299 6.36525C56.1782 6.36525 55.136 6.6327 54.2143 7.13535C53.1263 7.73094 52.2504 8.62433 51.6806 9.72068C51.1127 10.8132 50.8832 12.0348 51.019 13.2582C51.1393 14.4003 50.9734 15.6287 50.155 16.4344L44.3242 22.175C44.1942 22.304 44.0412 22.3988 43.8768 22.4557C43.7525 22.4994 43.6205 22.5221 43.4886 22.5221C43.4465 22.5221 43.4025 22.5202 43.3605 22.5145C43.1865 22.4956 43.0163 22.4368 42.8671 22.3438C42.718 22.2509 42.5879 22.1238 42.4942 21.9759L37.3282 13.9558C36.6584 12.9159 36.7457 11.5898 37.0692 10.3959C37.4173 9.10232 37.3312 7.70628 36.8245 6.46578C36.3177 5.22338 35.4018 4.16118 34.2449 3.47264C33.2773 2.89602 32.1682 2.59253 31.04 2.59253" fill="#917127"></path><path d="M35.5694 41.6029C43.4826 40.4522 49.6923 38.1305 49.4391 36.4171C49.1859 34.7038 42.5657 34.2477 34.6524 35.3984C26.7392 36.5491 20.5295 38.8709 20.7827 40.5842C21.0359 42.2975 27.6561 42.7536 35.5694 41.6029Z" fill="#917127"></path><path d="M14.8835 0.326166L14.9179 2.42971C14.9274 3.00254 15.2124 3.53554 15.6866 3.86368L17.4248 5.06814C17.6906 5.25213 17.5625 5.66753 17.2393 5.67322L15.1187 5.70736C14.5412 5.71685 14.0038 5.99947 13.673 6.46987L12.4588 8.19406C12.2733 8.45771 11.8545 8.33063 11.8488 8.01007L11.8143 5.90653C11.8048 5.3337 11.5199 4.8007 11.0456 4.47255L9.3074 3.26809C9.0416 3.0841 9.16972 2.6687 9.49288 2.66301L11.6135 2.62887C12.191 2.61939 12.7284 2.33677 13.0592 1.86636L14.2735 0.142177C14.459 -0.121477 14.8777 0.00560797 14.8835 0.326166Z" fill="#917127"></path><path d="M44.6108 1.6065L45.0984 2.58524C45.2304 2.85269 45.4847 3.03857 45.7792 3.08789L46.8653 3.26998C47.0317 3.29844 47.0642 3.52036 46.9131 3.59434L45.9264 4.07802C45.6587 4.2089 45.4694 4.46117 45.4197 4.75327L45.2361 5.83065C45.2074 5.99567 44.9837 6.02792 44.9091 5.87807L44.4215 4.89933C44.2896 4.63378 44.0352 4.44599 43.7407 4.39668L42.6546 4.21459C42.4882 4.18613 42.4557 3.96421 42.6068 3.89023L43.5935 3.40655C43.8612 3.27567 44.0505 3.0234 44.1002 2.73129L44.2838 1.65392C44.3125 1.4889 44.5362 1.45665 44.6108 1.6065Z" fill="#917127"></path><path d="M54.2064 34.233C54.2062 34.233 54.206 34.2329 54.2059 34.2328C53.724 33.6088 53.0261 33.1006 52.1715 32.6738C50.8884 32.0346 49.24 31.5794 47.3431 31.2759C45.4481 30.9724 43.3064 30.8264 41.0499 30.8245C35.732 30.8245 29.7773 31.642 24.9508 33.2201C22.5376 34.0111 20.4055 34.9898 18.7686 36.1753C17.9502 36.769 17.256 37.4139 16.7168 38.1176C16.2818 38.6873 15.9483 39.2992 15.7427 39.9473C15.6627 40.1997 15.8295 40.4557 16.0885 40.5108C16.3461 40.5657 16.5971 40.4009 16.6816 40.1515C16.8521 39.6482 17.1196 39.1615 17.4797 38.6905C18.2982 37.6169 19.6042 36.6268 21.2545 35.7675C23.7289 34.4739 26.9682 33.4705 30.4428 32.7971C33.9173 32.1219 37.627 31.7748 41.0518 31.7748C44.0043 31.7748 46.7465 32.0346 48.9321 32.5543C50.024 32.8142 50.9782 33.1404 51.745 33.5217C52.4124 33.8527 52.9343 34.228 53.2955 34.6266C53.3843 34.7245 53.5338 34.7451 53.6391 34.6651L54.2067 34.234C54.2071 34.2337 54.2069 34.233 54.2064 34.233Z" fill="#917127"></path><path d="M20.1638 31.7177C20.1643 31.7177 20.1648 31.7181 20.1648 31.7187C20.279 32.7577 19.5219 33.6904 18.4743 33.8023C17.4264 33.9161 16.4856 33.165 16.3709 32.1255C16.2561 31.0861 17.0134 30.1529 18.0613 30.0409C19.1089 29.9272 20.0494 30.6778 20.1627 31.7167C20.1628 31.7173 20.1632 31.7177 20.1638 31.7177Z" fill="#917127"></path><path d="M34.2265 27.7404C34.2438 26.6951 33.4035 25.8338 32.3497 25.8166C31.2958 25.7995 30.4275 26.633 30.4102 27.6783C30.3929 28.7236 31.2332 29.5849 32.2871 29.6021C33.3409 29.6193 34.2092 28.7857 34.2265 27.7404Z" fill="#917127"></path><path d="M51.8972 27.7428C52.0119 28.7822 51.2546 29.7155 50.2067 29.8293C49.1588 29.9431 48.218 29.1919 48.1033 28.1525C47.9886 27.1131 48.7458 26.1798 49.7937 26.0679C50.8416 25.9541 51.7824 26.7052 51.8972 27.7447V27.7428Z" fill="#917127"></path></svg>