<svg viewBox="0 0 101 30" xmlns="http://www.w3.org/2000/svg" class="inline-block stroke shrink-0 fill-current w-48 h-10 text-yellow-700"><path d="M28.6892 2.34778H35.829C36.7785 2.34778 37.5472 3.11026 37.5472 4.05215V18.4608C37.5472 19.4027 38.3159 20.1652 39.2655 20.1652H46.6901C47.6396 20.1652 48.4083 20.9277 48.4083 21.8696V27.1352C48.4083 28.0771 47.6396 28.8396 46.6901 28.8396H28.6892C27.7396 28.8396 26.9709 28.0771 26.9709 27.1352V4.05215C26.9709 3.11026 27.7396 2.34778 28.6892 2.34778Z"></path><path d="M51.8555 2.34778H58.9952C59.9448 2.34778 60.7135 3.11026 60.7135 4.05215V16.7363C60.7135 19.1583 61.7715 20.2459 63.7249 20.2459C65.6783 20.2459 66.7364 19.156 66.7364 16.7363V4.05215C66.7364 3.11026 67.5051 2.34778 68.4546 2.34778H75.5944C76.5439 2.34778 77.3126 3.11026 77.3126 4.05215V17.8262C77.3126 24.5652 71.7803 29.3262 63.5621 29.3262C55.3439 29.3262 50.1372 24.5652 50.1372 17.8262V4.05215C50.1372 3.11026 50.9059 2.34778 51.8555 2.34778Z"></path><path d="M80.7792 19.849C81.2924 18.9632 82.468 18.7277 83.2978 19.3332C84.5164 20.2258 86.377 21.3022 88.4706 21.513C89.6281 21.6296 90.1843 21.3493 90.2521 20.6833C90.3697 19.5351 88.769 19.3377 86.2979 18.0415C83.0739 16.3708 79.7505 13.8299 80.2411 9.05318C80.7905 3.6844 85.5812 1.09869 91.9636 1.74007C95.7822 2.12356 98.4862 3.50948 99.9173 4.43792C100.623 4.89541 100.885 5.79469 100.539 6.55941L98.8592 10.2776C98.4274 11.2352 97.2382 11.5761 96.3519 11.0087C95.1876 10.2619 93.51 9.41648 91.6878 9.23259C90.6433 9.12719 90.0261 9.25277 89.9537 9.95694C89.8316 11.141 91.62 11.3586 94.2018 12.666C97.141 14.1596 100.46 16.7386 99.9693 21.5512C99.4651 26.4759 95.3617 29.7299 88.4548 29.0347C83.9331 28.5795 80.786 26.7046 79.2124 25.5273C78.5228 25.0115 78.3329 24.0629 78.7648 23.3206L80.7769 19.8535L80.7792 19.849Z"></path><path d="M0.0823669 6.62007C-0.207022 5.72303 0.290365 4.7632 1.19471 4.47615L11.5494 1.18178C17.6695 -0.764796 23.0526 1.80522 24.8342 7.31079C26.7175 13.1348 23.7196 17.9429 17.5994 19.8895L16.4961 20.2393C15.5918 20.5264 15.0944 21.4862 15.3838 22.3833L16.4441 25.6664C16.7335 26.5635 16.2361 27.5233 15.3318 27.8104L9.35412 29.7121C8.44978 29.9991 7.48213 29.5058 7.19274 28.6087L0.0823669 6.62007ZM14.2805 13.3927C15.7388 12.9285 16.1095 11.6435 15.6302 10.1611C15.1509 8.67877 14.1336 7.83556 12.7454 8.27735L12.6391 8.31099C11.7348 8.59804 11.2374 9.55787 11.5268 10.4549L12.1191 12.2893C12.4085 13.1864 13.3762 13.6798 14.2805 13.3927Z"></path></svg>