<svg viewBox="0 0 19 15" xmlns="http://www.w3.org/2000/svg" class="inline-block stroke shrink-0 fill-current h-5 w-5 mr-2"><path d="M10.1985 2.47507C10.442 2.32212 10.6299 2.0926 10.7335 1.82135C10.8371 1.55009 10.8508 1.25189 10.7726 0.971975C10.6944 0.692065 10.5285 0.445721 10.3 0.270312C10.0716 0.0949026 9.79315 0 9.50686 0C9.22057 0 8.94209 0.0949026 8.71367 0.270312C8.48524 0.445721 8.31934 0.692065 8.24112 0.971975C8.1629 1.25189 8.17664 1.55009 8.28024 1.82135C8.38385 2.0926 8.57167 2.32212 8.81522 2.47507L6.92587 6.33285C6.85629 6.47601 6.756 6.60148 6.63238 6.70002C6.50876 6.79856 6.36496 6.86765 6.21158 6.9022C6.05821 6.93675 5.89915 6.93588 5.74615 6.89966C5.59314 6.86344 5.45008 6.79279 5.32751 6.69291L2.3754 4.30537C2.55406 4.06366 2.64716 3.7677 2.63961 3.46547C2.63206 3.16324 2.5243 2.87246 2.3338 2.64028C2.1433 2.40809 1.88123 2.2481 1.59007 2.18625C1.29891 2.1244 0.995735 2.16431 0.729688 2.29952C0.463641 2.43472 0.25032 2.65729 0.124308 2.93114C-0.0017046 3.205 -0.0330214 3.51408 0.0354341 3.80829C0.10389 4.1025 0.268105 4.36459 0.501458 4.55207C0.73481 4.73954 1.02362 4.84142 1.32107 4.84117L2.8646 13.2383C2.95256 13.7325 3.20849 14.1796 3.58772 14.5016C3.96694 14.8236 4.44538 15 4.93952 15H14.0742C14.5683 15 15.0468 14.8236 15.426 14.5016C15.8052 14.1796 16.0612 13.7325 16.1491 13.2383L17.6547 4.81974H17.68C17.9412 4.81974 18.1966 4.74095 18.4138 4.59333C18.631 4.44572 18.8001 4.23593 18.8999 3.99052C18.9997 3.74512 19.0256 3.47514 18.9743 3.21477C18.923 2.9544 18.7969 2.71535 18.6119 2.52788C18.4269 2.34042 18.1913 2.21298 17.9349 2.1617C17.6786 2.11042 17.413 2.1376 17.1719 2.2398C16.9308 2.34201 16.7249 2.51464 16.5804 2.73583C16.4358 2.95703 16.3591 3.21684 16.36 3.48238C16.3587 3.77211 16.4522 4.05406 16.6257 4.28394L13.6736 6.67148C13.551 6.77136 13.4079 6.84201 13.2549 6.87823C13.1019 6.91445 12.9429 6.91532 12.7895 6.88076C12.6361 6.84621 12.4923 6.77712 12.3687 6.67859C12.2451 6.58005 12.1448 6.45458 12.0752 6.31142L10.1985 2.47507Z"></path></svg>