<?xml version="1.0" encoding="iso-8859-1"?>
<!-- Uploaded to: SVG Repo, www.svgrepo.com, Generator: SVG Repo Mixer Tools -->
<svg height="800px" width="800px" version="1.1" id="Layer_1" xmlns="http://www.w3.org/2000/svg" xmlns:xlink="http://www.w3.org/1999/xlink" 
	 viewBox="0 0 512 512" xml:space="preserve">
<path style="fill:#2D527C;" d="M407.936,422.649H104.064c-6.214,0-11.622-4.25-13.092-10.29l-49.68-204.233
	c-1.108-4.551,0.229-9.351,3.53-12.676c3.3-3.325,8.092-4.7,12.65-3.622l96.552,22.741l90.821-134.108
	c2.506-3.701,6.686-5.919,11.156-5.919c4.471,0,8.649,2.218,11.156,5.919l90.821,134.108l96.552-22.741
	c4.561-1.078,9.349,0.296,12.65,3.622c3.301,3.325,4.638,8.125,3.53,12.676l-22.253,91.478c-1.76,7.231-9.046,11.67-16.278,9.909
	c-7.23-1.76-11.665-9.046-9.907-16.276l17.063-70.145l-84.22,19.836c-5.443,1.283-11.11-0.928-14.244-5.559L256,112.044
	l-84.871,125.323c-3.134,4.63-8.801,6.842-14.244,5.559l-84.22-19.836l41.989,172.61h282.694l8.537-35.096
	c1.76-7.23,9.045-11.67,16.278-9.909c7.23,1.76,11.665,9.046,9.907,16.276l-11.04,45.386
	C419.558,418.398,414.15,422.649,407.936,422.649z"/>
<circle style="fill:#CEE8FA;" cx="256" cy="90.061" r="38.294"/>
<path style="fill:#2D527C;" d="M256,141.828c-28.545,0-51.767-23.222-51.767-51.767S227.455,38.294,256,38.294
	c28.545,0,51.767,23.222,51.767,51.767S284.545,141.828,256,141.828z M256,65.241c-13.685,0-24.82,11.135-24.82,24.82
	c0,13.685,11.135,24.82,24.82,24.82c13.685,0,24.82-11.135,24.82-24.82S269.685,65.241,256,65.241z"/>
<circle style="fill:#CEE8FA;" cx="460.234" cy="204.935" r="38.294"/>
<path style="fill:#2D527C;" d="M460.233,256.709c-28.545,0-51.767-23.222-51.767-51.767s23.223-51.767,51.767-51.767
	S512,176.397,512,204.941S488.778,256.709,460.233,256.709z M460.233,180.123c-13.687,0-24.82,11.135-24.82,24.82
	c0,13.685,11.135,24.82,24.82,24.82c13.685,0,24.82-11.135,24.82-24.82C485.053,191.258,473.918,180.123,460.233,180.123z"/>
<circle style="fill:#CEE8FA;" cx="51.767" cy="204.935" r="38.294"/>
<g>
	<path style="fill:#2D527C;" d="M51.767,256.709C23.222,256.709,0,233.487,0,204.941s23.222-51.767,51.767-51.767
		s51.767,23.222,51.767,51.767S80.311,256.709,51.767,256.709z M51.767,180.123c-13.685,0-24.82,11.135-24.82,24.82
		c0,13.685,11.135,24.82,24.82,24.82c13.687,0,24.82-11.135,24.82-24.82C76.587,191.258,65.454,180.123,51.767,180.123z"/>
	<path style="fill:#2D527C;" d="M259.044,366.339c-8.681,0-16.842-3.381-22.981-9.518l-42.589-42.589
		c-12.671-12.672-12.671-33.289,0-45.961l42.589-42.589c6.14-6.139,14.301-9.516,22.981-9.516c8.68,0,16.842,3.379,22.979,9.516
		l42.59,42.589c12.671,12.672,12.671,33.289,0,45.961l-42.589,42.589C275.886,362.958,267.725,366.339,259.044,366.339z
		 M259.044,243.11c-0.86,0-2.512,0.21-3.928,1.625l-42.588,42.589c-2.165,2.164-2.165,5.687,0,7.851l42.589,42.589
		c1.415,1.416,3.067,1.626,3.926,1.626s2.511-0.21,3.926-1.626l42.589-42.589c2.165-2.164,2.165-5.687,0-7.851l-42.589-42.589
		C261.557,243.32,259.903,243.11,259.044,243.11z"/>
</g>
<path style="fill:#CEE8FA;" d="M392.58,460.233H120.658c-9.165,0-16.594-7.429-16.594-16.594v-34.464h305.11v34.464
	C409.174,452.803,401.745,460.233,392.58,460.233z"/>
<path style="fill:#2D527C;" d="M392.581,473.706H120.658c-16.579,0-30.068-13.488-30.068-30.068v-34.463
	c0-7.44,6.032-13.474,13.474-13.474h305.11c7.442,0,13.474,6.034,13.474,13.474v34.463
	C422.648,460.218,409.159,473.706,392.581,473.706z M117.538,422.649v20.989c0,1.721,1.4,3.121,3.121,3.121H392.58
	c1.721,0,3.119-1.4,3.119-3.121v-20.989H117.538z"/>
</svg>