<svg xmlns="http://www.w3.org/2000/svg" version="1.0" width="1280.000000pt" height="1230.000000pt" viewBox="0 0 1280.000000 1230.000000" preserveAspectRatio="xMidYMid meet">
<style>
    g {fill: rgba(0,0,0,0.050);}
</style>
<g transform="translate(0.000000,1230.000000) scale(0.100000,-0.100000)" fill="#000000" stroke="none">
<path d="M357 11683 l-357 -618 706 -3 c562 -2 705 -5 701 -15 -2 -7 -320 -558 -706 -1225 -385 -667 -701 -1215 -701 -1218 0 -2 317 -4 705 -4 388 0 705 -2 705 -5 0 -2 -316 -550 -701 -1217 -386 -667 -703 -1218 -706 -1225 -4 -10 133 -13 701 -15 l706 -3 -323 -560 c-178 -308 -496 -857 -705 -1220 -298 -514 -379 -661 -368 -667 8 -5 326 -7 705 -6 505 2 690 0 687 -8 -2 -6 -320 -557 -705 -1223 -386 -667 -701 -1214 -701 -1217 0 -2 317 -4 705 -4 388 0 705 -2 705 -5 0 -2 -157 -277 -350 -610 -192 -333 -350 -607 -350 -610 0 -3 2560 -5 5690 -5 3130 0 5690 2 5690 5 0 3 -157 277 -350 610 -192 333 -350 608 -350 610 0 3 317 5 705 5 388 0 705 2 705 4 0 3 -315 550 -701 1217 -385 666 -703 1217 -705 1223 -3 8 182 10 687 8 379 -1 697 1 705 6 11 6 -70 153 -368 667 -209 363 -527 912 -705 1220 l-323 560 706 3 c568 2 705 5 701 15 -3 7 -320 558 -706 1225 -385 667 -701 1215 -701 1217 0 3 317 5 705 5 388 0 705 2 705 4 0 3 -316 551 -701 1218 -386 667 -704 1218 -706 1225 -4 10 139 13 701 15 l706 3 -357 618 c-196 339 -359 617 -362 617 -3 -1 -163 -275 -356 -610 -256 -445 -353 -605 -360 -595 -5 7 -165 281 -355 609 -189 328 -346 596 -350 596 -3 0 -162 -273 -354 -605 -192 -333 -351 -605 -355 -605 -3 0 -164 272 -356 605 -192 333 -352 605 -355 605 -3 0 -162 -273 -354 -605 -192 -333 -352 -605 -355 -605 -4 0 -164 272 -356 605 -192 333 -352 605 -355 605 -3 0 -162 -272 -354 -605 -193 -333 -353 -605 -356 -605 -3 0 -163 272 -356 605 -192 333 -351 605 -354 605 -3 0 -162 -272 -354 -605 -193 -333 -353 -605 -356 -605 -3 0 -163 272 -356 605 -192 333 -351 605 -354 605 -3 0 -163 -272 -355 -605 -192 -333 -352 -605 -356 -605 -3 0 -163 272 -355 605 -192 332 -351 605 -354 605 -3 0 -163 -272 -355 -605 -192 -333 -353 -605 -356 -605 -4 0 -163 272 -355 605 -192 332 -351 605 -354 605 -4 0 -161 -268 -350 -596 -190 -328 -349 -602 -355 -609 -7 -10 -104 150 -360 595 -192 335 -353 609 -356 610 -3 0 -166 -278 -362 -617z m711 -10 c189 -327 341 -597 339 -599 -2 -2 -314 -3 -694 -2 l-689 3 345 598 c190 328 348 597 351 597 3 -1 159 -269 348 -597z m1417 6 c187 -324 342 -594 343 -599 2 -7 -239 -10 -688 -10 -655 0 -692 1 -685 18 11 29 679 1182 685 1182 3 -1 158 -266 345 -591z m1420 1 c187 -325 341 -594 343 -600 3 -7 -231 -10 -688 -10 -640 0 -692 1 -686 17 11 28 681 1183 686 1183 3 -1 158 -266 345 -590z m1423 -4 c188 -327 342 -597 342 -600 0 -3 -310 -6 -690 -6 -379 0 -690 3 -690 7 0 10 684 1193 690 1193 3 0 159 -268 348 -594z m1420 0 c188 -326 342 -596 342 -600 0 -3 -310 -6 -690 -6 -379 0 -690 3 -690 6 0 10 684 1194 690 1194 3 0 159 -267 348 -594z m1420 1 c188 -326 342 -596 342 -600 0 -4 -310 -7 -690 -7 -379 0 -690 3 -690 6 0 10 684 1193 690 1194 3 0 159 -267 348 -593z m1414 9 c186 -320 340 -590 344 -599 6 -16 -46 -17 -686 -17 -457 0 -691 3 -688 10 6 19 683 1189 688 1190 3 0 157 -263 342 -584z m1420 2 c185 -321 340 -591 343 -600 7 -17 -30 -18 -685 -18 -449 0 -690 3 -688 10 6 19 683 1189 688 1190 3 0 157 -262 342 -582z m1429 -15 l345 -598 -689 -3 c-380 -1 -692 0 -694 2 -5 4 680 1195 687 1196 3 0 161 -269 351 -597z m-9601 -620 c0 -14 -685 -1192 -692 -1190 -9 2 -688 1176 -688 1188 0 5 294 9 690 9 380 0 690 -3 690 -7z m1416 -8 c-11 -29 -681 -1185 -687 -1185 -6 0 -682 1167 -687 1187 -3 11 114 13 688 13 620 0 692 -2 686 -15z m1420 -2 c-11 -28 -681 -1183 -686 -1183 -6 0 -675 1154 -686 1183 -6 16 31 17 686 17 640 0 692 -1 686 -17z m1419 0 c-11 -29 -679 -1183 -685 -1183 -6 0 -674 1154 -685 1183 -7 16 30 17 685 17 655 0 692 -1 685 -17z m1421 0 c-11 -29 -680 -1183 -686 -1183 -5 0 -675 1155 -686 1183 -6 16 46 17 686 17 655 0 692 -1 686 -17z m1422 4 c-5 -20 -681 -1187 -687 -1187 -6 0 -676 1156 -687 1185 -6 13 66 15 686 15 574 0 691 -2 688 -13z m1422 4 c0 -12 -679 -1186 -688 -1188 -7 -2 -692 1176 -692 1190 0 4 311 7 690 7 396 0 690 -4 690 -9z m-9572 -607 c189 -328 342 -598 339 -600 -2 -2 -314 -3 -694 -2 l-690 3 345 598 c190 328 348 597 351 597 3 0 160 -269 349 -596z m1420 2 c188 -326 342 -596 342 -600 0 -3 -311 -6 -691 -6 -560 0 -690 2 -687 13 5 20 681 1187 687 1187 4 0 160 -268 349 -594z m1420 0 c188 -326 342 -596 342 -599 0 -4 -311 -7 -691 -7 -654 0 -691 1 -684 18 11 29 679 1182 685 1182 3 0 159 -267 348 -594z m1420 1 c188 -326 342 -596 342 -600 0 -4 -311 -7 -691 -7 -632 0 -691 1 -685 16 11 28 681 1184 686 1184 3 0 159 -267 348 -593z m1414 9 c186 -321 341 -591 344 -600 6 -15 -53 -16 -685 -16 -380 0 -691 3 -691 7 0 10 684 1193 690 1193 3 0 157 -263 342 -584z m1420 2 c185 -321 340 -591 343 -600 7 -17 -30 -18 -684 -18 -380 0 -691 3 -691 7 0 10 684 1193 690 1193 3 0 157 -262 342 -582z m1424 -5 c186 -323 340 -593 342 -600 3 -11 -127 -13 -687 -13 -380 0 -691 3 -691 6 0 11 684 1193 691 1194 3 0 158 -264 345 -587z m1426 -10 l345 -598 -690 -3 c-380 -1 -692 0 -694 2 -5 5 679 1195 688 1196 3 0 161 -269 351 -597z m-9604 -623 c-7 -21 -683 -1189 -689 -1190 -3 0 -158 264 -345 587 -186 322 -343 592 -347 600 -7 11 110 13 688 13 450 0 695 -3 693 -10z m1422 4 c0 -10 -684 -1193 -690 -1194 -5 0 -141 234 -582 997 l-117 203 695 0 c382 0 694 -3 694 -6z m1420 0 c0 -10 -684 -1194 -690 -1194 -6 0 -675 1154 -686 1183 -6 16 41 17 685 17 380 0 691 -3 691 -6z m1420 -1 c0 -10 -684 -1193 -690 -1193 -5 0 -676 1157 -686 1184 -6 14 60 16 685 16 380 0 691 -3 691 -7z m1416 -9 c-10 -27 -681 -1184 -686 -1184 -6 0 -690 1183 -690 1193 0 4 311 7 691 7 625 0 691 -2 685 -16z m1420 -1 c-11 -29 -680 -1183 -686 -1183 -6 0 -690 1184 -690 1194 0 3 311 6 691 6 644 0 691 -1 685 -17z m1419 0 c-11 -30 -679 -1183 -685 -1183 -6 1 -690 1184 -690 1194 0 3 311 6 691 6 654 0 691 -1 684 -17z m1428 4 c-4 -8 -161 -278 -347 -600 -187 -323 -342 -587 -345 -587 -6 1 -682 1169 -689 1190 -2 7 243 10 693 10 578 0 695 -2 688 -13z m-10995 -601 c188 -326 342 -595 342 -597 0 -2 -310 -4 -690 -4 -379 0 -690 3 -690 7 0 12 682 1188 689 1188 3 0 160 -267 349 -594z m1420 1 c188 -327 342 -595 342 -598 0 -2 -311 -4 -690 -4 -504 0 -690 3 -688 11 5 20 680 1184 687 1184 3 0 160 -267 349 -593z m1414 9 c186 -321 340 -589 343 -597 4 -12 -99 -14 -685 -14 -499 0 -690 3 -688 11 5 19 681 1184 687 1184 3 0 158 -263 343 -584z m1420 1 c186 -321 340 -590 343 -598 4 -12 -89 -14 -685 -14 -479 0 -690 3 -688 11 5 18 682 1184 688 1184 3 0 157 -262 342 -583z m1420 1 c185 -321 339 -590 343 -598 5 -13 -76 -15 -685 -15 -609 0 -690 2 -685 15 11 28 679 1180 685 1180 3 0 157 -262 342 -582z m1424 -5 c186 -323 340 -592 342 -597 2 -8 -209 -11 -688 -11 -596 0 -689 2 -685 14 11 29 680 1181 685 1181 4 0 159 -264 346 -587z m1424 -7 c187 -323 340 -591 340 -595 0 -3 -311 -6 -690 -6 -586 0 -689 2 -685 14 14 37 681 1180 687 1178 4 -1 161 -267 348 -591z m1420 1 c187 -324 340 -592 340 -595 0 -4 -310 -7 -690 -7 -379 0 -690 2 -690 4 0 13 686 1190 693 1188 4 -1 160 -267 347 -590z m1419 3 c187 -325 341 -594 341 -598 0 -4 -310 -7 -690 -7 -379 0 -690 2 -690 4 0 9 686 1191 691 1191 4 0 160 -266 348 -590z m-9602 -632 c-3 -7 -156 -274 -341 -593 -185 -319 -337 -584 -340 -590 -2 -5 -6 -8 -9 -5 -8 8 -675 1164 -683 1183 -6 16 45 17 686 17 550 0 691 -3 687 -12z m1421 2 c-6 -19 -683 -1189 -688 -1189 -5 -1 -676 1156 -686 1184 -6 13 66 15 686 15 446 0 690 -3 688 -10z m1420 0 c-6 -20 -683 -1189 -688 -1189 -6 -1 -690 1182 -690 1192 0 4 311 7 691 7 455 0 690 -3 687 -10z m1422 4 c0 -10 -684 -1193 -690 -1193 -6 0 -690 1183 -690 1193 0 3 311 6 690 6 380 0 690 -3 690 -6z m1420 -1 c0 -10 -684 -1193 -690 -1192 -5 0 -682 1169 -688 1189 -3 7 232 10 687 10 380 0 691 -3 691 -7z m1416 -8 c-10 -28 -681 -1185 -686 -1184 -5 0 -682 1170 -688 1189 -2 7 242 10 688 10 620 0 692 -2 686 -15z m1420 -2 c-8 -19 -675 -1175 -683 -1183 -3 -3 -7 0 -9 5 -3 6 -155 271 -340 590 -185 319 -338 586 -341 593 -4 9 137 12 687 12 641 0 692 -1 686 -17z m-9567 -598 l341 -590 -687 -3 c-377 -1 -688 0 -690 2 -2 2 150 272 339 599 189 327 346 592 350 588 3 -3 159 -271 347 -596z m1420 0 l341 -590 -686 -3 c-378 -1 -689 0 -691 2 -7 7 682 1194 689 1187 3 -3 160 -271 347 -596z m1420 1 c188 -324 341 -591 341 -593 0 -1 -310 -3 -690 -3 -379 0 -690 2 -690 5 0 2 149 262 331 577 183 315 336 583 342 596 6 12 14 19 18 15 4 -5 161 -273 348 -597z m4273 -19 c180 -312 328 -570 328 -572 0 -3 -310 -5 -690 -5 -379 0 -690 1 -690 3 0 3 513 892 652 1131 l41 69 15 -29 c8 -16 163 -284 344 -597z m1745 -573 c-2 -2 -313 -3 -691 -2 l-686 3 320 555 c177 305 333 574 346 598 l26 43 344 -597 c190 -328 343 -598 341 -600z m1420 0 c-2 -2 -313 -3 -690 -2 l-687 3 246 425 c135 234 291 503 346 598 l100 173 345 -597 c189 -328 343 -598 340 -600z m-6021 600 c186 -323 341 -591 342 -595 2 -5 -308 -9 -688 -9 -392 0 -690 4 -688 9 10 26 682 1181 688 1181 3 0 159 -264 346 -586z m1424 -7 c187 -324 340 -591 340 -593 0 -2 -311 -4 -691 -4 -380 0 -689 4 -687 9 14 36 684 1181 690 1179 4 -2 161 -268 348 -591z m-5340 -621 c0 -6 -679 -1179 -687 -1187 -5 -4 -164 262 -355 592 l-346 599 694 0 c382 0 694 -2 694 -4z m1420 0 c0 -8 -672 -1170 -684 -1183 -8 -9 -98 138 -353 581 -189 326 -343 596 -343 600 0 3 311 6 690 6 380 0 690 -2 690 -4z m1417 -8 c-3 -7 -156 -274 -341 -593 -185 -319 -337 -584 -340 -590 -2 -5 -5 -8 -8 -5 -9 9 -688 1188 -688 1194 0 3 311 6 691 6 549 0 690 -3 686 -12z m1421 2 c-7 -20 -683 -1189 -688 -1189 -5 0 -681 1169 -688 1189 -2 7 242 10 688 10 435 0 690 -4 688 -10z m1420 0 c-7 -20 -683 -1189 -688 -1189 -5 0 -681 1169 -688 1189 -2 6 253 10 688 10 446 0 690 -3 688 -10z m1422 4 c0 -6 -679 -1185 -688 -1194 -3 -3 -6 0 -8 5 -3 6 -155 271 -340 590 -185 319 -338 586 -341 593 -4 9 137 12 686 12 380 0 691 -3 691 -6z m1420 0 c0 -4 -154 -274 -342 -600 -256 -443 -346 -590 -354 -581 -12 13 -684 1175 -684 1183 0 2 311 4 690 4 380 0 690 -3 690 -6z m1082 -593 c-191 -330 -350 -596 -355 -592 -8 8 -687 1181 -687 1187 0 2 312 4 694 4 l694 0 -346 -599z m-10667 9 c180 -311 333 -577 341 -592 l15 -28 -695 0 -694 0 71 123 c40 67 196 337 347 599 151 262 278 474 282 470 4 -4 154 -261 333 -572z m1434 -24 c188 -324 341 -591 341 -593 0 -1 -311 -3 -691 -3 -455 0 -690 3 -687 10 11 35 684 1187 690 1182 4 -4 160 -272 347 -596z m1421 -1 c187 -323 340 -589 340 -591 0 -2 -311 -4 -691 -4 -445 0 -689 3 -687 10 13 38 685 1186 691 1181 4 -4 160 -272 347 -596z m1423 -3 c186 -321 337 -585 337 -588 0 -2 -311 -4 -691 -4 -431 0 -689 4 -687 9 2 6 156 275 343 599 250 435 343 587 351 578 6 -6 162 -273 347 -594z m1084 586 c6 -13 159 -281 342 -596 182 -315 331 -575 331 -577 0 -3 -310 -5 -690 -5 -379 0 -690 2 -690 5 0 2 149 262 331 577 183 315 336 583 342 596 6 12 13 22 17 22 4 0 11 -10 17 -22z m2090 -1165 c4 -10 -137 -13 -686 -13 -380 0 -691 2 -691 4 0 5 649 1130 677 1174 14 23 27 1 355 -565 187 -323 342 -594 345 -600z m1420 0 c4 -10 -137 -13 -686 -13 -380 0 -691 2 -691 4 0 4 650 1132 677 1174 14 23 27 2 355 -565 187 -323 342 -594 345 -600z m1101 555 c177 -306 322 -559 322 -562 0 -3 -310 -6 -690 -6 -379 0 -690 2 -690 3 0 4 565 983 652 1131 l40 68 22 -38 c12 -22 167 -290 344 -596z m1382 67 c178 -308 334 -577 347 -597 l23 -38 -695 0 -696 0 12 23 c14 27 633 1098 661 1145 11 18 21 32 23 30 1 -2 148 -255 325 -563z m-9580 -658 c0 -6 -681 -1182 -688 -1189 -6 -5 -679 1147 -690 1182 -3 7 232 10 687 10 380 0 691 -2 691 -3z m1420 -1 c0 -4 -649 -1130 -677 -1174 -14 -23 -27 -2 -355 565 -187 323 -342 594 -345 601 -4 9 137 12 686 12 380 0 691 -2 691 -4z m1420 0 c0 -5 -649 -1130 -677 -1174 -14 -23 -27 -1 -355 565 -187 323 -342 594 -345 601 -4 9 137 12 686 12 380 0 691 -2 691 -4z m1417 -8 c-3 -7 -156 -274 -341 -593 -185 -319 -338 -584 -341 -590 -3 -7 -7 -7 -10 0 -3 6 -156 271 -341 590 -185 319 -338 586 -341 593 -4 9 137 12 687 12 550 0 691 -3 687 -12z m1420 0 c-3 -7 -158 -278 -345 -601 -328 -566 -341 -588 -355 -565 -28 44 -677 1169 -677 1174 0 2 311 4 691 4 549 0 690 -3 686 -12z m1420 0 c-3 -7 -158 -278 -345 -601 -328 -567 -341 -588 -355 -565 -28 44 -677 1170 -677 1174 0 2 311 4 691 4 549 0 690 -3 686 -12z m1421 2 c-11 -35 -684 -1187 -690 -1182 -7 7 -688 1183 -688 1189 0 1 311 3 691 3 455 0 690 -3 687 -10z m-9568 -605 c187 -323 340 -589 340 -591 0 -2 -312 -4 -694 -4 l-694 0 346 599 c191 330 350 596 355 592 4 -4 160 -272 347 -596z m1424 -3 c185 -321 336 -585 336 -588 0 -2 -310 -4 -690 -4 -379 0 -690 3 -690 6 0 4 154 274 343 600 256 443 345 590 353 581 6 -7 163 -274 348 -595z m1083 586 c6 -13 160 -281 342 -596 182 -315 331 -575 331 -577 0 -3 -310 -5 -690 -5 -379 0 -690 3 -690 6 0 10 685 1193 691 1194 3 0 10 -10 16 -22z m1748 -569 c187 -324 342 -594 343 -599 2 -6 -253 -10 -688 -10 -446 0 -690 3 -688 10 7 20 683 1189 688 1189 3 0 158 -265 345 -590z m1420 0 c187 -324 342 -594 343 -599 2 -7 -242 -10 -688 -10 -435 0 -690 4 -688 10 7 20 683 1189 688 1189 3 0 158 -265 345 -590z m1423 -3 c188 -327 342 -597 342 -600 0 -3 -310 -6 -690 -6 -379 0 -690 2 -690 5 0 2 149 262 331 577 182 315 336 583 342 596 6 12 13 22 16 22 3 0 160 -268 349 -594z m1416 6 c186 -321 340 -590 343 -598 4 -12 -94 -14 -686 -14 -380 0 -691 2 -691 4 0 5 650 1132 677 1174 8 13 16 22 17 20 2 -1 155 -266 340 -586z m1434 -24 l340 -588 -694 0 c-382 0 -694 2 -694 4 0 4 651 1133 677 1175 12 19 17 21 23 10 5 -8 161 -278 348 -601z m-9619 -630 c-9 -17 -649 -1125 -676 -1171 -4 -6 -673 1138 -690 1181 -4 9 137 12 686 12 l692 0 -12 -22z m1420 0 c-14 -27 -632 -1098 -662 -1147 l-20 -33 -14 26 c-8 15 -163 284 -344 597 -181 313 -329 571 -329 574 0 3 311 5 690 5 l691 0 -12 -22z m1431 19 c0 -3 -513 -892 -652 -1131 l-41 -69 -15 29 c-8 16 -163 285 -344 597 -180 312 -328 570 -328 573 0 2 311 4 690 4 380 0 690 -1 690 -3z m1418 -6 c-14 -36 -684 -1181 -690 -1179 -7 3 -688 1174 -688 1184 0 2 311 4 691 4 380 0 689 -4 687 -9z m1422 5 c0 -10 -681 -1181 -688 -1184 -6 -2 -676 1143 -690 1179 -2 5 307 9 687 9 380 0 691 -2 691 -4z m1420 0 c0 -3 -148 -261 -328 -573 -181 -312 -336 -581 -344 -597 l-15 -29 -41 69 c-139 239 -652 1128 -652 1131 0 2 311 3 690 3 380 0 690 -2 690 -4z m1420 -1 c0 -3 -148 -261 -329 -574 -181 -313 -336 -582 -344 -597 l-14 -26 -20 33 c-30 49 -648 1120 -662 1147 l-12 22 691 0 c379 0 690 -2 690 -5z m1417 -7 c-17 -43 -686 -1187 -690 -1181 -27 46 -667 1154 -676 1171 l-12 22 692 0 c549 0 690 -3 686 -12z m-11320 -21 c6 -12 160 -281 342 -596 183 -315 330 -575 328 -577 -2 -2 -314 -3 -693 -2 l-690 3 345 598 c190 328 348 597 352 597 3 0 10 -10 16 -23z m1417 7 c3 -8 157 -276 341 -594 184 -319 335 -582 335 -585 0 -3 -311 -5 -691 -5 -644 0 -691 1 -685 17 13 32 681 1183 687 1183 4 0 10 -7 13 -16z m1751 -575 c187 -324 342 -594 343 -599 2 -7 -242 -10 -688 -10 -620 0 -692 2 -686 15 10 28 681 1185 686 1184 3 0 158 -265 345 -590z m1420 1 c187 -325 341 -594 343 -600 3 -7 -231 -10 -687 -10 -380 0 -691 3 -691 7 0 10 684 1193 690 1192 3 0 158 -265 345 -589z m1423 -4 c188 -327 342 -596 342 -600 0 -3 -310 -6 -690 -6 -379 0 -690 3 -690 6 0 10 684 1193 690 1193 3 0 159 -267 348 -593z m1420 0 c188 -326 342 -596 342 -599 0 -4 -311 -7 -691 -7 -456 0 -690 3 -687 10 6 20 683 1189 688 1189 3 1 159 -266 348 -593z m1415 9 c185 -321 340 -591 343 -600 6 -13 -66 -15 -686 -15 -446 0 -690 3 -688 10 6 20 683 1189 688 1189 3 1 157 -262 343 -584z m1419 2 c185 -321 340 -591 344 -600 6 -16 -41 -17 -685 -17 -380 0 -691 2 -691 5 0 3 151 266 335 585 184 318 338 586 341 594 3 9 9 16 13 16 3 0 158 -263 343 -583z m1429 -14 l345 -598 -690 -3 c-379 -1 -691 0 -693 2 -2 2 145 262 328 577 182 315 336 584 342 596 6 13 13 23 16 23 4 0 162 -269 352 -597z m-9601 -622 c0 -13 -686 -1190 -693 -1188 -7 2 -687 1174 -687 1185 0 4 311 7 690 7 380 0 690 -2 690 -4z m1415 -10 c-14 -37 -681 -1180 -687 -1178 -8 2 -688 1175 -688 1186 0 3 311 6 690 6 586 0 689 -2 685 -14z m1420 0 c-11 -29 -680 -1181 -685 -1181 -6 0 -683 1166 -688 1184 -2 8 209 11 688 11 596 0 689 -2 685 -14z m1420 -1 c-11 -28 -679 -1180 -685 -1180 -6 0 -674 1152 -685 1180 -5 13 76 15 685 15 609 0 690 -2 685 -15z m1423 4 c-5 -18 -682 -1184 -688 -1184 -5 0 -674 1152 -685 1181 -4 12 89 14 685 14 479 0 690 -3 688 -11z m1422 5 c0 -11 -680 -1184 -688 -1186 -6 -2 -673 1141 -687 1178 -4 12 99 14 685 14 379 0 690 -3 690 -6z m1420 -1 c0 -11 -680 -1183 -687 -1185 -7 -2 -693 1175 -693 1188 0 2 311 4 690 4 380 0 690 -3 690 -7z m-9572 -604 c189 -328 342 -598 339 -600 -2 -2 -314 -3 -694 -2 l-690 3 346 598 c190 328 348 597 351 597 3 -1 159 -269 348 -596z m1417 6 c187 -324 341 -593 343 -599 3 -8 -202 -11 -688 -11 -655 0 -692 1 -686 18 12 29 680 1182 686 1182 3 -1 158 -266 345 -590z m1423 -4 c188 -326 342 -596 342 -600 0 -3 -311 -6 -691 -6 -644 0 -691 1 -685 17 11 29 680 1183 686 1183 3 0 159 -268 348 -594z m1420 1 c188 -327 342 -597 342 -600 0 -4 -311 -7 -691 -7 -625 0 -691 2 -685 16 10 27 681 1184 686 1184 3 0 159 -267 348 -593z m1415 9 c185 -322 340 -592 343 -600 6 -14 -60 -16 -685 -16 -380 0 -691 3 -691 7 0 10 684 1193 690 1193 3 0 157 -263 343 -584z m1419 1 c186 -321 340 -591 344 -600 6 -16 -41 -17 -685 -17 -380 0 -691 3 -691 6 0 10 684 1193 690 1194 3 0 157 -262 342 -583z m1420 1 c185 -321 340 -591 344 -600 6 -17 -31 -18 -686 -18 -486 0 -691 3 -688 11 7 20 683 1188 688 1189 3 0 157 -262 342 -582z m1429 -15 l346 -598 -690 -3 c-380 -1 -692 0 -694 2 -5 5 679 1195 687 1196 3 0 161 -269 351 -597z m-9603 -623 c-7 -21 -683 -1189 -689 -1190 -4 0 -239 403 -672 1152 l-27 48 696 0 c451 0 694 -3 692 -10z m1422 4 c0 -10 -684 -1193 -690 -1194 -7 0 -683 1168 -688 1187 -3 11 125 13 687 13 380 0 691 -3 691 -6z m1420 -1 c0 -10 -684 -1193 -690 -1193 -6 0 -675 1154 -685 1183 -7 16 30 17 684 17 380 0 691 -3 691 -7z m1420 0 c0 -10 -684 -1193 -690 -1193 -5 0 -675 1156 -686 1184 -6 15 53 16 685 16 380 0 691 -3 691 -7z m1416 -9 c-11 -28 -681 -1184 -686 -1184 -6 0 -690 1183 -690 1193 0 4 311 7 691 7 632 0 691 -1 685 -16z m1419 -1 c-10 -29 -679 -1183 -685 -1183 -6 0 -690 1183 -690 1193 0 4 311 7 691 7 654 0 691 -1 684 -17z m1423 4 c-5 -19 -681 -1187 -688 -1187 -6 1 -690 1184 -690 1194 0 3 311 6 691 6 562 0 690 -2 687 -13z m1405 -35 c-433 -749 -668 -1152 -672 -1152 -6 1 -682 1169 -689 1190 -2 7 241 10 692 10 l696 0 -27 -48z m-10975 -566 c188 -327 342 -596 342 -600 0 -3 -310 -6 -690 -6 -412 0 -690 4 -690 9 0 13 681 1191 689 1191 3 0 160 -268 349 -594z m1420 0 c188 -326 342 -596 342 -599 0 -4 -311 -7 -691 -7 -580 0 -690 2 -687 14 5 20 680 1186 687 1186 3 0 160 -267 349 -594z m1420 1 c188 -326 342 -596 342 -600 0 -4 -311 -7 -691 -7 -573 0 -690 2 -687 13 5 20 681 1187 687 1187 3 0 160 -267 349 -593z m1414 10 c185 -321 340 -591 344 -600 6 -16 -41 -17 -686 -17 -562 0 -691 2 -688 13 5 19 681 1187 688 1187 3 0 157 -263 342 -583z m1420 1 c185 -321 340 -591 343 -600 7 -17 -30 -18 -685 -18 -655 0 -692 1 -685 18 11 28 679 1182 685 1182 3 0 157 -262 342 -582z m1423 -5 c187 -323 341 -593 343 -600 3 -11 -126 -13 -688 -13 -645 0 -692 1 -686 17 11 29 681 1183 686 1183 3 0 159 -264 345 -587z m1421 0 c186 -322 340 -592 342 -600 3 -11 -114 -13 -687 -13 -380 0 -691 3 -691 7 0 11 684 1193 691 1193 3 0 158 -264 345 -587z m1424 -6 c187 -324 340 -593 340 -598 0 -5 -281 -9 -690 -9 -379 0 -690 3 -690 7 0 14 685 1192 692 1190 4 -1 161 -267 348 -590z m1420 0 c187 -324 340 -593 340 -598 0 -5 -276 -9 -690 -9 -379 0 -690 3 -690 6 0 14 686 1193 693 1191 4 -1 160 -267 347 -590z m-9602 -627 c-6 -19 -683 -1189 -688 -1190 -5 0 -674 1153 -685 1183 -7 16 30 17 685 17 441 0 690 -4 688 -10z m1420 0 c-6 -19 -683 -1189 -688 -1190 -5 0 -675 1155 -686 1183 -6 16 46 17 686 17 450 0 691 -3 688 -10z m1422 4 c0 -10 -684 -1193 -690 -1194 -6 0 -690 1183 -690 1193 0 4 311 7 690 7 380 0 690 -3 690 -6z m1420 0 c0 -10 -684 -1194 -690 -1194 -6 0 -690 1184 -690 1194 0 3 311 6 690 6 380 0 690 -3 690 -6z m1420 -1 c0 -10 -684 -1193 -690 -1193 -6 1 -690 1184 -690 1194 0 3 311 6 690 6 380 0 690 -3 690 -7z m1416 -10 c-11 -28 -681 -1183 -686 -1183 -5 1 -682 1171 -688 1190 -3 7 238 10 688 10 640 0 692 -1 686 -17z m1419 0 c-11 -30 -680 -1183 -685 -1183 -5 1 -682 1171 -688 1190 -2 6 247 10 688 10 655 0 692 -1 685 -17z m-9566 -598 l340 -590 -686 -3 c-377 -1 -688 0 -690 2 -2 2 150 272 339 599 189 327 346 592 349 588 4 -3 160 -271 348 -596z m10278 -591 c-2 -2 -313 -3 -690 -2 l-686 3 280 485 c154 267 310 536 346 598 l65 113 345 -597 c189 -328 342 -598 340 -600z m-8859 594 l342 -593 -687 -3 c-377 -1 -688 0 -690 2 -5 5 678 1186 686 1186 3 0 160 -267 349 -592z m1414 10 c185 -321 339 -590 343 -598 5 -13 -75 -15 -686 -12 -381 1 -689 6 -687 11 10 26 682 1181 687 1181 3 0 158 -262 343 -582z m1424 -5 c186 -323 341 -590 342 -595 2 -4 -308 -8 -688 -8 -380 0 -690 4 -688 9 10 26 683 1181 688 1181 3 0 159 -264 346 -587z m1420 1 c186 -323 341 -591 342 -595 2 -5 -308 -9 -688 -9 -380 0 -690 4 -688 8 11 28 683 1182 688 1182 3 0 159 -264 346 -586z m1424 -7 c187 -324 340 -591 340 -593 0 -2 -311 -5 -690 -6 -610 -3 -690 -1 -685 12 15 39 681 1180 687 1178 5 -2 161 -268 348 -591z m1419 2 c188 -325 340 -593 338 -595 -2 -2 -313 -3 -690 -2 l-687 3 342 593 c189 325 346 592 349 592 4 0 160 -266 348 -591z"/>
</g>
</svg>