<!DOCTYPE svg PUBLIC "-//W3C//DTD SVG 1.1//EN" "http://www.w3.org/Graphics/SVG/1.1/DTD/svg11.dtd">
<!-- Uploaded to: SVG Repo, www.svgrepo.com, Transformed by: SVG Repo Mixer Tools -->
<svg width="256px" height="256px" viewBox="-4.8 -4.8 57.60 57.60" xmlns="http://www.w3.org/2000/svg" fill="#000000">
<g id="SVGRepo_bgCarrier" stroke-width="0"/>
<g id="SVGRepo_tracerCarrier" stroke-linecap="round" stroke-linejoin="round"/>
<g id="SVGRepo_iconCarrier">
<title>70 Basic icons by Xicons.co</title>
<path d="M45,43H3a2,2,0,0,1,0-4H45A2,2,0,0,1,45,43Z" fill="#c8c8c8"/>
<rect x="8" y="35" width="14" height="12" rx="2" ry="2" fill="#f6c253"/>
<path d="M45,26H3a2,2,0,0,1,0-4H45A2,2,0,0,1,45,26Z" fill="#c8c8c8"/>
<path d="M45,9H3A2,2,0,0,1,3,5H45A2,2,0,0,1,45,9Z" fill="#c8c8c8"/>
<rect x="8" y="1" width="14" height="12" rx="2" ry="2" fill="#ec5044"/>
<rect x="26" y="18" width="14" height="12" rx="2" ry="2" fill="#4dbe86"/>
</g>
</svg>