<svg width="76" height="30" viewBox="0 0 76 30" fill="none" xmlns="http://www.w3.org/2000/svg">
<g clip-path="url(#clip0_464_385)">
<path fill-rule="evenodd" clip-rule="evenodd" d="M0 15.9737C0 8.98287 4.48229 6.66602 9.86123 6.66602C17.1546 6.66602 19.1667 11.6272 19.1667 14.8455V16.887H3.93971C3.93971 20.1399 6.37329 22.4609 9.75694 22.4609C13.9113 22.4609 14.7655 19.4993 14.7655 19.4993H18.7498C18.7498 19.4993 18.2227 24.9993 9.99987 24.9993C3.01405 24.9993 0 21.5119 0 15.9737ZM15.1387 14.2814C15.1387 11.2785 12.9429 9.27499 9.72209 9.27499C6.89399 9.27499 4.02772 11.0933 4.02772 14.2814H15.1387Z" fill="#7B7D7F"/>
<path fill-rule="evenodd" clip-rule="evenodd" d="M18.4205 21.4585V0H22.3196V9.67051C22.3196 9.67051 23.9723 6.77993 29.2911 6.77993C34.971 6.77993 38.334 10.8174 38.334 15.8375C38.334 21.2333 34.6726 25 29.2824 25C24.1636 25 22.2811 22.0358 22.2811 22.0358C22.2811 23.1585 22.1442 24.3868 22.1442 24.3868H18.334C18.334 24.3868 18.4205 22.6764 18.4205 21.4585ZM34.2959 15.8375C34.2959 12.1684 31.9681 9.4341 28.3076 9.4341C24.2106 9.4341 22.3196 12.7012 22.3196 15.8724C22.3196 19.2756 24.4271 22.3458 28.3339 22.3458C31.6074 22.3458 34.2959 19.772 34.2959 15.8375Z" fill="#7B7D7F"/>
<path fill-rule="evenodd" clip-rule="evenodd" d="M39.584 11.8552C39.584 11.1401 40.103 6.66602 48.1951 6.66602C52.1006 6.66602 56.5287 7.83245 56.5287 13.3761V21.8306C56.5287 22.8088 56.6674 24.3376 56.6674 24.3376H53.0868C53.0868 24.3376 52.9914 23.1042 52.9914 21.8524C52.9914 21.8524 51.1746 24.9993 45.5346 24.9993C41.3962 24.9993 38.334 22.987 38.334 19.2887C38.334 15.5304 41.6483 13.6784 47.9174 13.6784H52.6396V12.8369C52.6396 10.473 50.5779 9.24316 47.9174 9.24316C43.8229 9.24316 43.6118 11.8552 43.6118 11.8552H39.584ZM52.6396 17.3249V16.2029C46.5241 16.2029 42.3618 16.2227 42.3618 19.2884C42.3618 20.9737 43.5978 22.4265 46.4806 22.4265C51.7452 22.4265 52.6396 18.7883 52.6396 17.3249Z" fill="#7B7D7F"/>
<path fill-rule="evenodd" clip-rule="evenodd" d="M55.834 8.33398H60.0243L66.0381 20.5042L72.038 8.33398H75.834L64.9052 30.0007H60.9234L64.0769 23.9607L55.834 8.33398Z" fill="#7B7D7F"/>
</g>
<defs>
<clipPath id="clip0_464_385">
<rect width="76" height="30" fill="white"/>
</clipPath>
</defs>
</svg>
