<svg version="1.0" xmlns="http://www.w3.org/2000/svg"
 width="512.000000pt" height="512.000000pt" viewBox="0 0 512.000000 512.000000"
 preserveAspectRatio="xMidYMid meet">
<style>
    .has-cr {
        fill: #ffad0a;
    }
</style>
<g transform="translate(0.000000,512.000000) scale(0.100000,-0.100000)"
fill="#fff" stroke="none">
<path d="M573 4877 c-12 -6 -126 -128 -253 -270 -166 -186 -230 -264 -230
-282 0 -28 28 -62 287 -350 161 -180 193 -210 220 -213 22 -2 38 3 52 17 19
19 21 33 21 141 l0 120 1013 0 c1096 0 1095 0 1289 -55 487 -139 891 -549
1019 -1034 68 -260 66 -548 -6 -796 -90 -311 -277 -584 -532 -779 -37 -28 -65
-57 -69 -72 -9 -34 10 -72 38 -79 13 -3 171 -4 353 -3 l329 3 49 60 c378 465
529 1108 401 1705 -162 756 -748 1361 -1503 1550 -231 58 -277 60 -1378 60
l-1003 0 0 123 c0 106 -3 126 -17 139 -27 24 -56 29 -80 15z m-20 -394 c17
-17 80 -18 1125 -23 1088 -6 1109 -6 1217 -28 383 -76 703 -239 972 -496 705
-673 792 -1751 205 -2529 l-36 -47 -189 0 -188 0 81 88 c211 227 344 484 412
795 20 89 23 131 22 322 0 206 -1 228 -28 340 -74 317 -216 575 -441 800 -223
223 -477 364 -795 441 l-115 28 -1111 3 -1110 4 -20 -22 c-12 -14 -21 -41 -24
-81 l-5 -59 -130 146 c-72 80 -131 150 -133 155 -2 5 57 75 130 156 l133 148
5 -62 c3 -40 11 -67 23 -79z"/>
<path d="M4500 4883 c-45 -17 -50 -31 -50 -160 l0 -123 -415 0 c-402 0 -416
-1 -435 -20 -11 -11 -20 -33 -20 -49 0 -35 5 -39 184 -157 142 -93 201 -140
319 -254 l79 -75 144 -3 144 -3 0 -120 c0 -107 2 -121 21 -140 14 -14 30 -19
52 -17 27 3 59 33 220 213 259 288 287 322 287 350 0 18 -63 95 -226 277 -125
139 -231 258 -238 264 -15 16 -47 24 -66 17z m230 -409 c72 -80 130 -149 128
-154 -2 -5 -61 -75 -133 -155 l-130 -146 -5 59 c-8 99 -13 102 -202 102 l-159
0 -100 90 c-55 49 -129 111 -164 137 l-65 48 326 5 326 5 19 24 c13 16 19 39
19 77 0 30 2 54 4 54 3 0 64 -66 136 -146z"/>
<path d="M998 3873 c-122 -133 -272 -391 -351 -603 -133 -355 -162 -763 -81
-1139 102 -475 379 -908 769 -1201 230 -173 502 -299 775 -360 210 -47 262
-49 1333 -50 l1007 0 0 -123 c0 -106 3 -126 17 -139 29 -26 56 -29 85 -10 14
9 128 131 252 270 163 182 226 259 226 277 0 28 -28 62 -287 350 -161 180
-193 210 -220 213 -22 2 -38 -3 -52 -17 -19 -19 -21 -33 -21 -141 l0 -120
-1012 0 c-858 0 -1028 2 -1108 15 -636 102 -1133 599 -1235 1235 -17 111 -20
330 -4 433 34 229 117 442 245 633 66 98 205 248 290 314 119 92 138 126 94
170 -19 19 -33 20 -358 20 l-338 0 -26 -27z m406 -175 c-227 -234 -365 -494
-436 -818 -20 -92 -23 -133 -22 -325 0 -206 1 -228 28 -340 74 -317 216 -575
441 -800 223 -223 477 -364 795 -441 l115 -28 1111 -3 1110 -4 20 22 c12 14
21 41 24 81 l5 59 130 -146 c72 -80 131 -150 133 -155 2 -5 -57 -75 -130 -156
l-133 -148 -5 63 c-9 112 108 101 -1101 101 -1148 0 -1165 1 -1400 60 -561
140 -1036 546 -1274 1087 -153 349 -194 757 -114 1146 52 259 181 540 347 760
l36 47 190 0 190 0 -60 -62z"/>
<path class="has-cr" d="M2373 3720 c-40 -24 -60 -62 -69 -129 -20 -150 -165 -211 -289 -122
-109 78 -146 70 -281 -61 -56 -55 -110 -116 -119 -135 -23 -48 -14 -95 31
-160 42 -61 55 -109 44 -160 -17 -74 -78 -126 -161 -137 -67 -9 -105 -29 -129
-69 -18 -28 -20 -51 -20 -187 0 -136 2 -159 20 -187 24 -40 62 -60 129 -69
150 -20 211 -165 122 -289 -42 -59 -53 -92 -45 -140 5 -34 23 -56 118 -151 96
-96 117 -113 152 -118 47 -8 88 6 144 48 116 88 265 23 284 -125 9 -67 29
-105 69 -129 28 -18 51 -20 187 -20 136 0 159 2 187 20 40 24 59 59 68 127 20
149 169 215 285 127 56 -42 97 -56 144 -48 35 5 56 22 152 118 96 96 113 117
118 152 8 47 -6 88 -48 144 -88 116 -23 265 125 284 67 9 105 29 129 69 18 28
20 51 20 187 0 136 -2 159 -20 187 -24 40 -62 60 -129 69 -148 19 -213 168
-125 284 42 56 56 97 48 144 -5 35 -22 56 -118 152 -95 95 -117 113 -151 118
-48 8 -81 -3 -140 -45 -124 -89 -269 -28 -289 122 -9 67 -29 105 -69 129 -28
18 -51 20 -187 20 -136 0 -159 -2 -187 -20z m308 -170 c10 -66 32 -113 78
-163 90 -98 249 -130 363 -74 30 15 63 36 73 47 19 21 19 20 101 -61 l82 -82
-33 -43 c-43 -57 -59 -105 -59 -184 0 -155 113 -287 264 -309 l45 -6 0 -115 0
-115 -45 -6 c-66 -10 -113 -32 -163 -78 -98 -91 -130 -248 -74 -363 15 -30 36
-63 47 -73 21 -19 20 -19 -61 -101 l-82 -82 -43 33 c-57 43 -105 59 -184 59
-155 0 -287 -113 -309 -264 l-6 -45 -115 0 -115 0 -6 45 c-22 151 -154 264
-309 264 -79 0 -127 -16 -184 -59 l-43 -33 -82 82 c-81 82 -82 82 -61 101 11
10 32 43 47 73 56 114 24 273 -74 363 -50 46 -97 68 -163 78 l-45 6 0 115 0
115 45 6 c66 10 113 32 163 78 98 90 130 249 74 363 -15 30 -36 63 -47 73 -21
19 -20 19 61 101 l82 82 43 -33 c88 -68 204 -79 313 -30 101 46 181 154 181
245 0 15 3 30 7 34 4 3 57 5 117 4 l111 -3 6 -45z"/>
<path class="has-cr" d="M2405 3155 c-209 -58 -384 -234 -440 -445 -8 -30 -15 -98 -15 -150 0
-52 7 -120 15 -150 56 -213 232 -389 445 -445 71 -19 229 -19 300 0 213 56
389 232 445 445 19 71 19 229 0 300 -56 213 -232 389 -445 445 -68 18 -237 18
-305 0z m296 -145 c199 -61 329 -240 329 -450 0 -266 -204 -470 -470 -470
-266 0 -470 204 -470 470 0 210 129 387 328 451 78 25 202 25 283 -1z"/>
<path d="M488 1268 c-348 -384 -398 -443 -398 -474 0 -17 64 -95 226 -276 124
-139 238 -261 252 -270 29 -19 56 -16 85 10 14 13 17 33 17 139 l0 123 415 0
c402 0 416 1 435 20 27 27 26 71 -2 97 -13 11 -59 42 -103 68 -116 72 -256
180 -364 281 l-94 89 -144 3 -143 3 0 120 c0 106 -2 121 -20 139 -41 41 -71
28 -162 -72z m66 -307 c18 -20 29 -21 178 -21 l159 0 100 -89 c55 -50 129
-112 165 -138 l66 -48 -326 -5 c-377 -6 -358 0 -366 -102 l-5 -62 -133 148
c-73 81 -132 151 -130 156 2 5 61 75 133 155 l130 146 5 -59 c3 -39 12 -67 24
-81z"/>
</g>
</svg>
