<svg version="1.1" id="Layer_1" xmlns="http://www.w3.org/2000/svg" x="0" y="0" viewBox="0 0 48 48" xml:space="preserve"><style>.st0{fill-opacity:.3;fill:#919191}</style><g id="icons-free-product"><path class="st0" d="M6.2 21.5h35.5v19c0 .6-.4 1-.9 1H7.1c-.5 0-.9-.4-.9-1v-19z"/><path d="M4 14.5c0-.6.4-1 1-1h38c.5 0 1 .4 1 1v6c0 .5-.5 1-1 1H5c-.6 0-1-.5-1-1v-6zm18 7h4v20h-4z" fill="#919191"/><path class="st0" d="M22 13.5h4v8h-4z"/><path d="M30 6.5c-4 0-6 6-6 6h5.9c1.7 0 3-1.3 3.1-2.9 0-1.7-1.3-3-3-3.1.1 0 0 0 0 0zm-12 0c4 0 6 6 6 6h-5.9c-1.7 0-3-1.3-3.1-2.9 0-1.7 1.3-3 3-3.1-.1 0 0 0 0 0z" fill="none" stroke="#919191" stroke-width="2" stroke-miterlimit="10"/></g></svg>