<svg xmlns="http://www.w3.org/2000/svg" width="69" height="72" viewBox="0 0 69 72" fill="none">
<path d="M5.6072 11.8696H1V16.6521H5.6072V11.8696Z" stroke="white" stroke-width="1.5" stroke-miterlimit="10" stroke-linecap="round" stroke-linejoin="round"/>
<path d="M5.6072 11.8696H1V16.6521H5.6072V11.8696Z" stroke="url(#paint0_linear)" stroke-width="1.5" stroke-miterlimit="10" stroke-linecap="round" stroke-linejoin="round"/>
<path d="M68.1532 11.8696H63.546V16.6521H68.1532V11.8696Z" stroke="white" stroke-width="1.5" stroke-miterlimit="10" stroke-linecap="round" stroke-linejoin="round"/>
<path d="M68.1532 11.8696H63.546V16.6521H68.1532V11.8696Z" stroke="url(#paint1_linear)" stroke-width="1.5" stroke-miterlimit="10" stroke-linecap="round" stroke-linejoin="round"/>
<path d="M5.6072 55.4927H1V60.2753H5.6072V55.4927Z" stroke="white" stroke-width="1.5" stroke-miterlimit="10" stroke-linecap="round" stroke-linejoin="round"/>
<path d="M5.6072 55.4927H1V60.2753H5.6072V55.4927Z" stroke="url(#paint2_linear)" stroke-width="1.5" stroke-miterlimit="10" stroke-linecap="round" stroke-linejoin="round"/>
<path d="M68.1532 55.4927H63.546V60.2753H68.1532V55.4927Z" stroke="white" stroke-width="1.5" stroke-miterlimit="10" stroke-linecap="round" stroke-linejoin="round"/>
<path d="M68.1532 55.4927H63.546V60.2753H68.1532V55.4927Z" stroke="url(#paint3_linear)" stroke-width="1.5" stroke-miterlimit="10" stroke-linecap="round" stroke-linejoin="round"/>
<path d="M6.44495 14.1884H62.7085" stroke="white" stroke-width="1.5" stroke-miterlimit="10" stroke-linecap="round" stroke-linejoin="round"/>
<path d="M6.44495 14.1884H62.7085" stroke="url(#paint4_linear)" stroke-width="1.5" stroke-miterlimit="10" stroke-linecap="round" stroke-linejoin="round"/>
<path d="M6.44495 57.9565H62.7085" stroke="white" stroke-width="1.5" stroke-miterlimit="10" stroke-linecap="round" stroke-linejoin="round"/>
<path d="M6.44495 57.9565H62.7085" stroke="url(#paint5_linear)" stroke-width="1.5" stroke-miterlimit="10" stroke-linecap="round" stroke-linejoin="round"/>
<path d="M3.37317 17.2319V54.913" stroke="white" stroke-width="1.5" stroke-miterlimit="10" stroke-linecap="round" stroke-linejoin="round"/>
<path d="M3.37317 17.2319V54.913" stroke="url(#paint6_linear)" stroke-width="1.5" stroke-miterlimit="10" stroke-linecap="round" stroke-linejoin="round"/>
<path d="M65.9197 17.2319V54.913" stroke="white" stroke-width="1.5" stroke-miterlimit="10" stroke-linecap="round" stroke-linejoin="round"/>
<path d="M65.9197 17.2319V54.913" stroke="url(#paint7_linear)" stroke-width="1.5" stroke-miterlimit="10" stroke-linecap="round" stroke-linejoin="round"/>
<path d="M34.6465 49.8406C34.2276 49.6957 33.9484 49.4058 33.6692 49.116C30.3185 46.0725 28.0847 41.4348 28.0847 35.9275C28.0847 30.5652 30.1789 25.9275 33.5296 23.0289C33.9484 22.7391 34.2276 22.4492 34.6465 22.1594" stroke="white" stroke-width="1.5" stroke-miterlimit="10"/>
<path d="M34.6465 49.8406C34.2276 49.6957 33.9484 49.4058 33.6692 49.116C30.3185 46.0725 28.0847 41.4348 28.0847 35.9275C28.0847 30.5652 30.1789 25.9275 33.5296 23.0289C33.9484 22.7391 34.2276 22.4492 34.6465 22.1594" stroke="url(#paint8_linear)" stroke-width="1.5" stroke-miterlimit="10"/>
<path d="M34.6465 49.8406C35.0653 49.6957 35.3445 49.4058 35.6238 49.116C38.9745 46.0725 41.2083 41.4348 41.2083 35.9275C41.2083 30.5652 39.1141 25.9275 35.7634 23.0289C35.3445 22.7391 35.0653 22.4492 34.6465 22.1594" stroke="white" stroke-width="1.5" stroke-miterlimit="10"/>
<path d="M34.6465 49.8406C35.0653 49.6957 35.3445 49.4058 35.6238 49.116C38.9745 46.0725 41.2083 41.4348 41.2083 35.9275C41.2083 30.5652 39.1141 25.9275 35.7634 23.0289C35.3445 22.7391 35.0653 22.4492 34.6465 22.1594" stroke="url(#paint9_linear)" stroke-width="1.5" stroke-miterlimit="10"/>
<path d="M23.8962 27.3768C27.1073 29.2609 30.7372 30.5653 34.5068 30.5653C38.2763 30.5653 42.0458 29.4058 45.1173 27.3768" stroke="white" stroke-width="1.5" stroke-miterlimit="10"/>
<path d="M23.8962 27.3768C27.1073 29.2609 30.7372 30.5653 34.5068 30.5653C38.2763 30.5653 42.0458 29.4058 45.1173 27.3768" stroke="url(#paint10_linear)" stroke-width="1.5" stroke-miterlimit="10"/>
<path d="M23.8962 44.6232C27.1073 42.7391 30.7372 41.4348 34.5068 41.4348C38.2763 41.4348 42.0458 42.5942 45.1173 44.6232" stroke="white" stroke-width="1.5" stroke-miterlimit="10"/>
<path d="M23.8962 44.6232C27.1073 42.7391 30.7372 41.4348 34.5068 41.4348C38.2763 41.4348 42.0458 42.5942 45.1173 44.6232" stroke="url(#paint11_linear)" stroke-width="1.5" stroke-miterlimit="10"/>
<path d="M21.104 36.0725H48.0491" stroke="white" stroke-width="1.5" stroke-miterlimit="10"/>
<path d="M21.104 36.0725H48.0491" stroke="url(#paint12_linear)" stroke-width="1.5" stroke-miterlimit="10"/>
<path d="M34.6465 22.1594V49.8406" stroke="white" stroke-width="1.5" stroke-miterlimit="10"/>
<path d="M34.6465 22.1594V49.8406" stroke="url(#paint13_linear)" stroke-width="1.5" stroke-miterlimit="10"/>
<path d="M34.7862 50.1304C42.1883 50.1304 48.1889 43.9013 48.1889 36.2174C48.1889 28.5334 42.1883 22.3043 34.7862 22.3043C27.384 22.3043 21.3834 28.5334 21.3834 36.2174C21.3834 43.9013 27.384 50.1304 34.7862 50.1304Z" stroke="white" stroke-width="1.5" stroke-miterlimit="10" stroke-linecap="round" stroke-linejoin="round"/>
<path d="M34.7862 50.1304C42.1883 50.1304 48.1889 43.9013 48.1889 36.2174C48.1889 28.5334 42.1883 22.3043 34.7862 22.3043C27.384 22.3043 21.3834 28.5334 21.3834 36.2174C21.3834 43.9013 27.384 50.1304 34.7862 50.1304Z" stroke="url(#paint14_linear)" stroke-width="1.5" stroke-miterlimit="10" stroke-linecap="round" stroke-linejoin="round"/>
<path d="M11.3314 57.9565V51.7246" stroke="white" stroke-width="1.5" stroke-linecap="round" stroke-linejoin="round"/>
<path d="M11.3314 57.9565V51.7246" stroke="url(#paint15_linear)" stroke-width="1.5" stroke-linecap="round" stroke-linejoin="round"/>
<path d="M11.3314 41.2898V25.6377" stroke="white" stroke-width="1.5" stroke-linecap="round" stroke-linejoin="round" stroke-dasharray="10.18 10.18"/>
<path d="M11.3314 41.2898V25.6377" stroke="url(#paint16_linear)" stroke-width="1.5" stroke-linecap="round" stroke-linejoin="round" stroke-dasharray="10.18 10.18"/>
<path d="M11.3313 20.4203V14.1884" stroke="white" stroke-width="1.5" stroke-linecap="round" stroke-linejoin="round"/>
<path d="M11.3313 20.4203V14.1884" stroke="url(#paint17_linear)" stroke-width="1.5" stroke-linecap="round" stroke-linejoin="round"/>
<path d="M58.2409 57.9565V69.116C58.2409 70.1305 57.4032 71 56.426 71H13.1463C12.169 71 11.3313 70.1305 11.3313 69.116V57.9565" stroke="white" stroke-width="1.5" stroke-miterlimit="10" stroke-linecap="round" stroke-linejoin="round"/>
<path d="M58.2409 57.9565V69.116C58.2409 70.1305 57.4032 71 56.426 71H13.1463C12.169 71 11.3313 70.1305 11.3313 69.116V57.9565" stroke="url(#paint18_linear)" stroke-width="1.5" stroke-miterlimit="10" stroke-linecap="round" stroke-linejoin="round"/>
<path d="M58.2407 14.1884V20.4203" stroke="white" stroke-width="1.5" stroke-linecap="round" stroke-linejoin="round"/>
<path d="M58.2407 14.1884V20.4203" stroke="url(#paint19_linear)" stroke-width="1.5" stroke-linecap="round" stroke-linejoin="round"/>
<path d="M58.2407 30.855V46.5072" stroke="white" stroke-width="1.5" stroke-linecap="round" stroke-linejoin="round" stroke-dasharray="10.18 10.18"/>
<path d="M58.2407 30.855V46.5072" stroke="url(#paint20_linear)" stroke-width="1.5" stroke-linecap="round" stroke-linejoin="round" stroke-dasharray="10.18 10.18"/>
<path d="M58.2407 51.7246V57.9565" stroke="white" stroke-width="1.5" stroke-linecap="round" stroke-linejoin="round"/>
<path d="M58.2407 51.7246V57.9565" stroke="url(#paint21_linear)" stroke-width="1.5" stroke-linecap="round" stroke-linejoin="round"/>
<path d="M11.3313 14.1885V2.88406C11.3313 1.86957 12.169 1 13.1463 1H56.5655C57.5428 1 58.3805 1.86957 58.3805 2.88406V14.1885" stroke="white" stroke-width="1.5" stroke-miterlimit="10" stroke-linecap="round" stroke-linejoin="round"/>
<path d="M11.3313 14.1885V2.88406C11.3313 1.86957 12.169 1 13.1463 1H56.5655C57.5428 1 58.3805 1.86957 58.3805 2.88406V14.1885" stroke="url(#paint22_linear)" stroke-width="1.5" stroke-miterlimit="10" stroke-linecap="round" stroke-linejoin="round"/>
<path d="M11.3313 8.3913H58.2409" stroke="white" stroke-width="1.5" stroke-miterlimit="10" stroke-linecap="round" stroke-linejoin="round"/>
<path d="M11.3313 8.3913H58.2409" stroke="url(#paint23_linear)" stroke-width="1.5" stroke-miterlimit="10" stroke-linecap="round" stroke-linejoin="round"/>
<path d="M21.2439 64.6232H48.189" stroke="white" stroke-width="1.5" stroke-miterlimit="10" stroke-linecap="round" stroke-linejoin="round"/>
<path d="M21.2439 64.6232H48.189" stroke="url(#paint24_linear)" stroke-width="1.5" stroke-miterlimit="10" stroke-linecap="round" stroke-linejoin="round"/>
<defs>
<linearGradient id="paint0_linear" x1="3.3036" y1="11.8696" x2="3.3036" y2="16.6521" gradientUnits="userSpaceOnUse">
<stop stop-color="white"/>
<stop offset="1" stop-color="white" stop-opacity="0"/>
</linearGradient>
<linearGradient id="paint1_linear" x1="65.8496" y1="11.8696" x2="65.8496" y2="16.6521" gradientUnits="userSpaceOnUse">
<stop stop-color="white"/>
<stop offset="1" stop-color="white" stop-opacity="0"/>
</linearGradient>
<linearGradient id="paint2_linear" x1="3.3036" y1="55.4927" x2="3.3036" y2="60.2753" gradientUnits="userSpaceOnUse">
<stop stop-color="white"/>
<stop offset="1" stop-color="white" stop-opacity="0"/>
</linearGradient>
<linearGradient id="paint3_linear" x1="65.8496" y1="55.4927" x2="65.8496" y2="60.2753" gradientUnits="userSpaceOnUse">
<stop stop-color="white"/>
<stop offset="1" stop-color="white" stop-opacity="0"/>
</linearGradient>
<linearGradient id="paint4_linear" x1="34.5767" y1="14.1884" x2="34.5767" y2="15.1884" gradientUnits="userSpaceOnUse">
<stop stop-color="white"/>
<stop offset="1" stop-color="white" stop-opacity="0"/>
</linearGradient>
<linearGradient id="paint5_linear" x1="34.5767" y1="57.9565" x2="34.5767" y2="58.9565" gradientUnits="userSpaceOnUse">
<stop stop-color="white"/>
<stop offset="1" stop-color="white" stop-opacity="0"/>
</linearGradient>
<linearGradient id="paint6_linear" x1="3.87317" y1="17.2319" x2="3.87317" y2="54.913" gradientUnits="userSpaceOnUse">
<stop stop-color="white"/>
<stop offset="1" stop-color="white" stop-opacity="0"/>
</linearGradient>
<linearGradient id="paint7_linear" x1="66.4197" y1="17.2319" x2="66.4197" y2="54.913" gradientUnits="userSpaceOnUse">
<stop stop-color="white"/>
<stop offset="1" stop-color="white" stop-opacity="0"/>
</linearGradient>
<linearGradient id="paint8_linear" x1="31.3656" y1="22.1594" x2="31.3656" y2="49.8406" gradientUnits="userSpaceOnUse">
<stop stop-color="white"/>
<stop offset="1" stop-color="white" stop-opacity="0"/>
</linearGradient>
<linearGradient id="paint9_linear" x1="37.9274" y1="22.1594" x2="37.9274" y2="49.8406" gradientUnits="userSpaceOnUse">
<stop stop-color="white"/>
<stop offset="1" stop-color="white" stop-opacity="0"/>
</linearGradient>
<linearGradient id="paint10_linear" x1="34.5068" y1="27.3768" x2="34.5068" y2="30.5653" gradientUnits="userSpaceOnUse">
<stop stop-color="white"/>
<stop offset="1" stop-color="white" stop-opacity="0"/>
</linearGradient>
<linearGradient id="paint11_linear" x1="34.5068" y1="41.4348" x2="34.5068" y2="44.6232" gradientUnits="userSpaceOnUse">
<stop stop-color="white"/>
<stop offset="1" stop-color="white" stop-opacity="0"/>
</linearGradient>
<linearGradient id="paint12_linear" x1="34.5766" y1="36.0725" x2="34.5766" y2="37.0725" gradientUnits="userSpaceOnUse">
<stop stop-color="white"/>
<stop offset="1" stop-color="white" stop-opacity="0"/>
</linearGradient>
<linearGradient id="paint13_linear" x1="35.1465" y1="22.1594" x2="35.1465" y2="49.8406" gradientUnits="userSpaceOnUse">
<stop stop-color="white"/>
<stop offset="1" stop-color="white" stop-opacity="0"/>
</linearGradient>
<linearGradient id="paint14_linear" x1="34.7862" y1="22.3043" x2="34.7862" y2="50.1304" gradientUnits="userSpaceOnUse">
<stop stop-color="white"/>
<stop offset="1" stop-color="white" stop-opacity="0"/>
</linearGradient>
<linearGradient id="paint15_linear" x1="11.8314" y1="51.7246" x2="11.8314" y2="57.9565" gradientUnits="userSpaceOnUse">
<stop stop-color="white"/>
<stop offset="1" stop-color="white" stop-opacity="0"/>
</linearGradient>
<linearGradient id="paint16_linear" x1="11.8314" y1="25.6377" x2="11.8314" y2="41.2898" gradientUnits="userSpaceOnUse">
<stop stop-color="white"/>
<stop offset="1" stop-color="white" stop-opacity="0"/>
</linearGradient>
<linearGradient id="paint17_linear" x1="11.8313" y1="14.1884" x2="11.8313" y2="20.4203" gradientUnits="userSpaceOnUse">
<stop stop-color="white"/>
<stop offset="1" stop-color="white" stop-opacity="0"/>
</linearGradient>
<linearGradient id="paint18_linear" x1="34.7861" y1="57.9565" x2="34.7861" y2="71" gradientUnits="userSpaceOnUse">
<stop stop-color="white"/>
<stop offset="1" stop-color="white" stop-opacity="0"/>
</linearGradient>
<linearGradient id="paint19_linear" x1="58.7407" y1="14.1884" x2="58.7407" y2="20.4203" gradientUnits="userSpaceOnUse">
<stop stop-color="white"/>
<stop offset="1" stop-color="white" stop-opacity="0"/>
</linearGradient>
<linearGradient id="paint20_linear" x1="58.7407" y1="30.855" x2="58.7407" y2="46.5072" gradientUnits="userSpaceOnUse">
<stop stop-color="white"/>
<stop offset="1" stop-color="white" stop-opacity="0"/>
</linearGradient>
<linearGradient id="paint21_linear" x1="58.7407" y1="51.7246" x2="58.7407" y2="57.9565" gradientUnits="userSpaceOnUse">
<stop stop-color="white"/>
<stop offset="1" stop-color="white" stop-opacity="0"/>
</linearGradient>
<linearGradient id="paint22_linear" x1="34.8559" y1="1" x2="34.8559" y2="14.1885" gradientUnits="userSpaceOnUse">
<stop stop-color="white"/>
<stop offset="1" stop-color="white" stop-opacity="0"/>
</linearGradient>
<linearGradient id="paint23_linear" x1="34.7861" y1="8.3913" x2="34.7861" y2="9.3913" gradientUnits="userSpaceOnUse">
<stop stop-color="white"/>
<stop offset="1" stop-color="white" stop-opacity="0"/>
</linearGradient>
<linearGradient id="paint24_linear" x1="34.7164" y1="64.6232" x2="34.7164" y2="65.6232" gradientUnits="userSpaceOnUse">
<stop stop-color="white"/>
<stop offset="1" stop-color="white" stop-opacity="0"/>
</linearGradient>
</defs>
</svg>