<svg version="1.0" xmlns="http://www.w3.org/2000/svg"
 width="512.000000pt" height="512.000000pt" viewBox="0 0 512.000000 512.000000"
 preserveAspectRatio="xMidYMid meet">
 <style>
    g {fill: #fff;}
 </style>

<g transform="translate(0.000000,512.000000) scale(0.100000,-0.100000)"
fill="#000000" stroke="none">
<path d="M2365 5114 c-656 -66 -1184 -312 -1622 -755 -406 -411 -647 -906
-725 -1489 -18 -138 -15 -497 6 -645 66 -461 235 -867 510 -1226 93 -121 125
-137 179 -91 35 30 22 74 -49 168 -270 353 -429 730 -490 1159 -28 199 -21
720 8 645 6 -14 30 -65 54 -115 110 -229 357 -426 800 -639 85 -41 154 -79
154 -84 0 -4 -11 -42 -25 -83 -54 -156 -70 -359 -40 -488 38 -159 125 -266
289 -358 316 -175 386 -257 386 -446 0 -76 -28 -367 -36 -376 -8 -9 -162 55
-288 118 -154 78 -324 189 -446 291 -47 39 -96 73 -109 77 -56 14 -102 -32
-88 -89 9 -33 157 -157 311 -259 325 -216 699 -355 1101 -410 120 -17 505 -17
625 -1 592 79 1097 328 1507 743 460 465 714 1051 740 1704 24 617 -181 1229
-574 1713 -42 51 -84 97 -94 102 -51 28 -109 -5 -109 -62 0 -25 13 -48 56 -98
382 -446 595 -1059 571 -1645 -13 -313 -80 -606 -203 -887 -40 -93 -164 -322
-170 -315 -1 1 13 67 31 147 38 165 77 378 101 560 23 172 23 487 0 590 -46
207 -155 324 -282 305 -66 -10 -119 -32 -269 -114 -71 -39 -139 -71 -149 -71
-52 0 -199 200 -292 395 -73 155 -95 231 -101 350 -7 143 23 253 122 450 41
83 75 156 75 164 0 7 -17 47 -37 88 -32 66 -38 88 -43 172 -8 116 -27 160
-146 338 l-82 121 65 -29 c133 -60 313 -171 466 -289 85 -65 130 -77 159 -42
44 50 30 85 -66 161 -352 279 -790 465 -1246 527 -103 14 -456 26 -535 18z
m141 -180 c23 -121 -61 -375 -136 -411 -14 -6 -81 -19 -149 -28 -144 -19 -177
-30 -215 -76 -26 -31 -28 -38 -24 -101 6 -77 7 -76 -102 -148 -92 -61 -185
-162 -254 -273 l-59 -96 -76 -26 c-152 -50 -182 -89 -235 -302 -36 -142 -53
-193 -66 -193 -3 0 -18 40 -33 89 -16 55 -39 106 -59 132 -63 82 -183 119
-273 85 -57 -22 -129 -101 -175 -192 -31 -60 -35 -78 -35 -144 0 -72 2 -80 44
-150 108 -181 112 -194 110 -305 -1 -56 3 -112 9 -126 68 -165 560 -406 787
-386 34 3 95 19 140 37 69 29 92 33 165 33 176 -1 331 -92 615 -362 210 -200
284 -245 442 -266 168 -22 320 -82 460 -181 88 -63 117 -103 110 -155 -15
-112 -99 -213 -357 -429 -224 -187 -272 -240 -326 -357 -24 -52 -62 -113 -85
-138 -48 -53 -159 -140 -302 -239 l-98 -68 -132 21 c-73 12 -163 30 -202 39
-67 17 -70 20 -73 50 -2 17 4 95 12 173 35 317 13 436 -107 565 -66 71 -161
139 -307 218 -184 100 -248 192 -258 369 -6 112 11 215 55 342 44 127 49 159
30 188 -9 14 -104 67 -248 139 -375 187 -569 328 -697 507 -111 155 -134 484
-51 734 47 144 189 386 327 559 179 224 471 474 686 589 l46 24 17 -25 c29
-44 111 -118 152 -140 116 -59 206 9 384 292 37 58 73 108 81 111 39 15 317
53 413 56 41 1 42 0 49 -35z m354 15 c134 -15 356 -63 390 -84 29 -18 281
-370 325 -455 12 -22 21 -71 26 -132 6 -71 15 -114 36 -165 l29 -69 -48 -94
c-147 -291 -174 -508 -93 -750 99 -294 317 -613 446 -651 64 -20 133 0 278 80
140 78 205 104 233 95 30 -9 66 -73 89 -159 18 -67 22 -108 22 -255 1 -184 -8
-279 -49 -523 -37 -225 -100 -503 -171 -754 l-26 -92 -106 -104 c-195 -190
-380 -321 -616 -437 -224 -110 -422 -174 -655 -214 -113 -19 -316 -39 -356
-34 -28 3 -26 5 37 50 91 65 211 179 247 236 17 26 40 71 52 101 30 78 82 134
259 282 180 151 300 265 343 327 76 110 111 235 89 318 -46 171 -402 378 -701
409 -109 11 -159 44 -390 259 -373 349 -614 436 -898 326 -89 -34 -116 -36
-215 -14 -140 32 -327 118 -437 200 -83 63 -83 63 -81 162 2 115 -21 190 -99
312 -68 107 -72 130 -36 206 51 109 109 147 166 107 39 -27 48 -42 71 -130 26
-98 48 -136 91 -163 37 -23 57 -24 110 -10 87 25 120 80 177 297 24 90 45 152
58 164 10 11 53 31 94 45 97 34 130 60 178 142 88 150 134 198 298 312 80 55
119 125 109 194 -8 51 -14 48 135 66 184 22 230 52 304 203 59 121 79 199 79
320 l1 97 60 -5 c33 -3 98 -10 145 -16z m-1050 -104 c0 -13 -100 -152 -128
-179 l-31 -28 -25 19 c-41 32 -80 84 -70 93 9 8 233 99 247 100 4 0 7 -2 7 -5z"/>
</g>
</svg>
