<svg width="130" height="30" viewBox="0 0 130 30" fill="none" xmlns="http://www.w3.org/2000/svg">
<path fill-rule="evenodd" clip-rule="evenodd" d="M76.6727 9.94945C75.3163 7.05278 71.987 6.80089 70.1373 9.31974C69.1918 10.5268 68.8127 12.081 68.4571 13.5387L68.411 13.7277C68.1644 15.4909 67.6711 17.1282 66.9313 18.6395C66.5613 19.3951 66.1914 20.1508 65.5748 20.6546C65.3282 21.0324 64.9583 21.0324 64.5884 20.7805C63.8485 20.1508 63.3553 18.1357 63.7252 17.2541C65.5748 13.4758 66.6846 9.44568 66.9313 5.28958C67.0546 4.03016 66.9313 2.77073 66.1914 1.63725C65.3282 0 63.7252 0 62.6154 1.38537C61.9989 2.14102 61.5056 3.02262 61.259 4.03016C59.9026 8.43814 59.7793 13.098 60.6424 17.6319C60.8891 19.2692 60.3958 20.1508 59.286 20.9064C59.2244 20.9694 59.1319 21.0324 59.0394 21.0954C58.9469 21.1583 58.8544 21.2213 58.7928 21.2843C57.5597 22.0399 56.6965 21.788 56.08 20.5286C55.71 19.773 55.4634 18.8914 55.3401 18.1357C55.2168 17.7579 55.3401 17.3801 55.4634 17.0022C57.3131 13.4758 58.6695 9.69757 58.7928 5.66741C58.7928 4.40798 58.6695 3.02262 58.0529 1.88914C57.3131 0.755655 56.2033 0.50377 55.0935 1.25942C54.8518 1.42398 54.6628 1.6423 54.4576 1.87925C54.3487 2.00499 54.2353 2.13598 54.107 2.26696C52.8739 3.90422 52.504 5.91929 52.2574 7.93437C51.8874 11.4608 52.0107 14.9871 52.504 18.5135C52.504 18.7654 52.504 18.8914 52.3807 19.1432C51.2709 20.4027 49.9145 21.5362 48.1881 21.914C46.955 22.1659 46.0919 21.788 45.4753 20.6546C44.9821 19.8989 44.8588 19.0173 44.8588 18.1357C44.7947 17.4815 44.7639 17.1671 44.9047 17.0337C45.0349 16.9103 45.3119 16.9417 45.8452 17.0022H46.3385C49.0513 16.6244 50.531 14.8612 50.4077 12.0905C50.4077 10.3273 49.5445 9.06785 48.0648 8.56409C46.7084 8.06032 44.9821 8.56409 43.9956 9.82351C43.2557 10.7051 42.7625 11.7126 42.3926 12.8461C42.3309 13.098 42.2384 13.3499 42.1459 13.6018C42.0535 13.8537 41.961 14.1056 41.8993 14.3574C41.4061 14.1056 40.9128 13.8537 40.4196 13.7277C39.9264 13.6018 39.803 13.224 39.803 12.7202C39.924 10.9909 39.9856 9.32225 40.0461 7.68443V7.68439V7.68435V7.6843C40.109 5.98224 40.1706 4.31352 40.2963 2.64479C40.4196 0.881597 39.5564 0.125942 37.8301 0C37.3368 0 36.9669 0.125942 36.9669 0.881597C37.1522 3.53028 37.1287 6.25002 37.1055 8.93407V8.93408V8.93409V8.93424V8.93439V8.93453C37.0979 9.8238 37.0902 10.7092 37.0902 11.5867C37.0902 12.2164 36.9669 12.2164 36.3504 12.2164C36.0409 12.1769 35.7193 12.125 35.3932 12.0724C34.6797 11.9572 33.9446 11.8386 33.2676 11.8386C32.6511 11.8386 32.6511 11.5867 32.6511 10.957C32.7127 10.1384 32.7435 9.35123 32.7744 8.56409C32.8052 7.77695 32.836 6.9898 32.8977 6.17118C33.021 4.03016 31.7879 3.52639 30.3082 3.40045C29.6916 3.40045 29.5683 3.52639 29.5683 4.1561C29.6916 6.42306 29.6916 8.69001 29.6916 10.831C29.6916 11.397 29.6916 11.6803 29.5535 11.8536C29.415 12.0273 29.1375 12.0903 28.5818 12.2164C27.7187 12.4683 26.9788 12.7202 26.1156 13.098C26.0496 13.1318 25.9923 13.1565 25.9392 13.1794C25.7941 13.242 25.6796 13.2914 25.4991 13.4758C24.8825 13.9796 24.8825 14.8612 25.2525 15.6169C25.5535 16.2319 26.018 16.0127 26.3798 15.8418H26.3799C26.4626 15.8028 26.54 15.7662 26.6089 15.7428C27.472 15.365 28.4585 14.9872 29.4449 14.6094L29.445 14.6093V15.4909C29.3217 19.1432 29.1984 22.7956 29.1984 26.4479C29.1984 27.7073 29.445 28.9668 30.6781 29.5965C30.6781 29.5965 31.048 29.8484 31.418 29.9743C31.7879 30.1002 32.5278 29.7224 32.5278 29.7224C32.6511 29.5965 32.6511 29.3446 32.6511 29.2186C32.5894 28.7778 32.5586 28.3056 32.5278 27.8333C32.4969 27.361 32.4661 26.8887 32.4044 26.4479C32.2811 22.4178 32.2811 18.5135 32.4044 14.4834C32.4044 14.2315 32.5278 13.9796 32.7744 13.9796C33.2107 13.9796 33.647 13.9407 34.0907 13.9011C34.7758 13.84 35.4787 13.7772 36.2271 13.8537C36.8436 13.8537 36.9669 14.1056 36.9669 14.6093C36.8436 16.8763 36.8436 19.2692 36.8436 21.5362C36.8436 23.4253 37.7068 24.1809 39.5564 24.1809C40.0497 24.1809 40.173 24.055 40.173 23.5512C39.9264 21.0324 39.9264 18.5135 39.9264 15.9947C39.9264 15.2554 39.9264 14.9079 40.0851 14.8047C40.226 14.7132 40.4917 14.814 40.9932 15.0041C41.0821 15.0378 41.1784 15.0743 41.2828 15.1131C41.776 15.365 41.8993 15.6169 41.8993 16.1206V16.1207C41.8993 17.0023 41.8993 17.7579 42.0226 18.6395C42.2692 20.2767 42.8858 21.6621 44.2422 22.6696C45.9685 24.055 47.8182 23.8031 49.7912 22.9215C51.1476 22.2918 52.1341 21.4102 53.1205 20.2767C53.2079 20.4551 53.2798 20.6178 53.3471 20.7702L53.3472 20.7703C53.47 21.0482 53.5778 21.2922 53.7371 21.5362C54.9702 23.5512 56.5732 24.055 58.5462 23.2993C59.1627 23.0475 59.656 22.7956 60.1492 22.4178C60.6424 22.0399 61.1357 21.5362 61.6289 21.0324C61.9989 21.788 62.4921 22.4178 63.1086 23.0475C64.3417 24.055 65.6982 23.8031 66.6846 22.2918C67.4245 21.2843 68.041 20.1508 68.5343 18.7654C68.7809 19.8989 69.0275 20.7805 69.3975 21.5362C70.5072 23.9291 73.9599 24.3069 75.4396 22.0399C75.563 21.788 75.7171 21.5362 75.8712 21.2843L75.8713 21.2842V21.2841C76.0254 21.0323 76.1795 20.7804 76.3028 20.5286C77.4126 18.0098 77.6592 15.365 77.4126 12.7202C77.4126 11.9645 77.166 10.957 76.6727 9.94945ZM44.8588 14.8613C45.1054 13.476 45.352 12.0906 45.9685 10.7052C46.0028 10.6354 46.037 10.5606 46.0722 10.4837C46.2907 10.0063 46.5473 9.4458 47.0783 9.4458C47.7125 9.4458 47.8031 10.001 47.8937 10.5561C47.9088 10.6487 47.9239 10.7412 47.9415 10.8312C48.5581 12.7203 47.5716 14.8613 45.8452 15.2392H45.4753C44.9821 15.3651 44.7354 15.3651 44.8588 14.8613ZM56.4499 3.90422C56.2033 4.28204 56.08 4.53393 55.9567 4.91175C54.9702 8.06032 54.9702 11.2089 54.9702 14.7353C55.4634 14.2315 55.5867 13.8537 55.71 13.4758C56.4499 11.3348 57.0665 9.1938 57.3131 7.05278C57.4364 6.04524 57.5597 5.0377 57.3131 4.03016C57.28 3.96266 57.2558 3.89517 57.2334 3.83253C57.1721 3.66137 57.1237 3.52639 56.9431 3.52639C56.7547 3.52639 56.6383 3.67339 56.5389 3.79894C56.5081 3.83773 56.479 3.87448 56.4499 3.90422ZM64.0951 4.65999C64.2184 4.15622 64.3417 3.77839 64.5884 3.40057C64.6214 3.36682 64.6456 3.33307 64.668 3.30175C64.7294 3.21617 64.7778 3.14868 64.9583 3.14868C65.2049 3.14868 65.2049 3.40057 65.2049 3.52651C65.2049 3.57868 65.2261 3.65245 65.2509 3.73888C65.2859 3.86112 65.3282 4.00867 65.3282 4.15622C65.4515 7.93449 64.835 11.5868 63.232 14.9873C63.1086 11.4609 63.1086 7.93449 64.0951 4.65999ZM73.8878 20.8114C73.9124 20.7562 73.9362 20.7031 73.9599 20.6546C74.9464 18.5135 75.193 16.2466 75.4397 13.8537C75.4397 12.7202 75.3163 11.5867 74.8231 10.4532C74.3299 9.31974 73.4667 9.1938 72.6035 10.0754C72.3569 10.3273 72.2336 10.5792 72.1103 10.831C71.2471 12.5942 71.1238 14.4834 71.1238 16.3725V18.0098C71.2471 19.1432 71.3704 20.2767 71.987 21.2843C72.3569 22.0399 72.9734 22.0399 73.4667 21.4102C73.6658 21.3085 73.7846 21.0426 73.8878 20.8114Z" fill="#7B7D7F"/>
<path fill-rule="evenodd" clip-rule="evenodd" d="M126.964 5.83506C126.152 5.83506 125.92 5.96572 125.92 7.01096C125.92 9.10145 125.92 11.192 125.92 13.4131C125.92 14.0664 125.688 14.3277 125.225 14.197C124.645 14.197 124.065 14.197 123.601 14.197C123.022 14.197 122.906 13.9357 122.906 13.4131C122.906 11.3226 122.906 9.10145 122.906 7.01096C122.906 6.09637 122.79 5.96572 121.978 5.96572C121.63 5.96572 121.398 5.96572 121.051 5.96572C120.123 5.96572 120.007 6.09637 120.007 7.14162C120.007 10.0161 120.007 12.8905 120.007 15.8956C120.007 18.5087 120.007 20.9911 120.007 23.6042C120.007 25.956 119.775 25.8254 121.978 25.6947C122.906 25.6947 123.022 25.5641 123.022 24.5188C123.022 22.2977 123.022 20.0765 123.022 17.986C123.022 17.3328 123.253 17.2021 123.717 17.2021C124.297 17.2021 124.877 17.2021 125.456 17.2021C125.92 17.2021 126.152 17.3328 126.152 17.986C126.152 19.9459 126.152 21.7751 126.152 23.7349C126.152 26.0867 126.036 25.8254 128.123 25.8254C129.051 25.8254 129.167 25.6947 129.167 24.6495C129.167 19.1619 129.167 13.6744 129.167 8.31752C128.819 5.70441 129.051 5.83506 126.964 5.83506Z" fill="#7B7D7F"/>
<path fill-rule="evenodd" clip-rule="evenodd" d="M96.3382 14.7075C96.0993 15.6346 95.6216 16.4293 94.905 16.8266C94.5467 16.959 94.5467 17.3563 94.5467 17.7537C94.7904 18.6724 95.0539 19.6132 95.3212 20.567C95.7088 21.9507 96.1042 23.3619 96.4577 24.773C96.6965 25.7001 96.5771 25.8325 95.741 25.8325C94.6414 25.8325 94.1587 25.8636 93.8854 25.6395C93.5947 25.4011 93.5407 24.8739 93.2329 23.7135C92.9671 22.7556 92.7383 21.7567 92.5053 20.7397C92.3195 19.9286 92.1311 19.106 91.9191 18.2834C91.898 18.2131 91.8805 18.1468 91.8642 18.0848C91.7884 17.7964 91.7362 17.5978 91.4414 17.4888C90.8442 17.3563 90.6053 17.4888 90.6053 18.151V24.6406C90.6053 25.7001 90.4859 25.8325 89.5304 25.8325H88.4555C87.7389 25.8325 87.5 25.7001 87.5 24.773V15.8995V7.02595C87.5 5.96642 87.7389 5.83398 88.5749 5.83398H92.3969C94.905 5.83398 96.0993 7.02595 96.4577 9.67476C96.6965 11.3965 96.816 12.9858 96.3382 14.7075ZM90.9636 14.84C92.0385 15.3697 93.3523 14.5751 93.5912 13.3831C93.7106 12.5885 93.7106 11.7938 93.7106 10.9992C93.5912 9.01256 93.1135 8.4828 91.3219 8.61524H91.2025C90.8442 8.61524 90.6053 8.74768 90.7248 9.145V11.6614V14.1778C90.7248 14.4427 90.7248 14.7075 90.9636 14.84Z" fill="#7B7D7F"/>
<path fill-rule="evenodd" clip-rule="evenodd" d="M114.854 12.7553C114.128 11.9961 113.402 11.3634 112.797 10.4777C112.313 9.84502 112.071 9.21234 112.192 8.32659C112.192 7.44083 112.797 6.80815 113.644 6.80815C114.37 6.68162 114.854 7.06123 115.096 8.07351C115.217 8.57966 115.217 9.0858 115.217 9.59195C115.217 10.2246 115.459 10.4777 116.064 10.4777C116.548 10.4777 116.911 10.4777 117.395 10.4777C117.879 10.4777 118.121 10.2246 118.121 9.71848C118.121 8.70619 118 7.69391 117.758 6.80815C117.516 6.04894 117.032 5.41626 116.427 4.91011C114.854 3.89783 112.555 3.89783 110.983 5.03665C109.773 5.9224 109.047 8.07351 109.41 9.97155C109.773 11.6165 110.62 12.8819 111.708 14.1472C112.555 15.033 113.644 15.9187 114.37 16.931C114.975 17.6902 115.338 18.4494 115.338 19.4617C115.338 20.474 114.854 21.2332 114.128 21.2332C112.918 21.3598 112.434 20.9802 112.071 19.8413C111.95 19.3352 111.95 18.7025 111.95 18.1964C111.95 17.4371 111.708 17.1841 110.983 17.3106C110.862 17.3106 110.741 17.3106 110.62 17.3106C109.168 17.3106 109.168 17.3106 109.168 18.9556C109.168 22.4986 110.983 24.3966 114.37 24.1436C116.185 24.017 117.637 22.7517 118.121 20.9802C118.605 19.0821 118.242 17.4371 117.274 15.7922C116.548 14.5268 115.701 13.6411 114.854 12.7553Z" fill="#7B7D7F"/>
<path fill-rule="evenodd" clip-rule="evenodd" d="M107.441 22.8077C106.201 22.8077 105.085 22.8077 103.845 22.8077C103.349 22.8077 103.101 22.6761 103.101 22.1498C103.101 20.5709 103.101 19.1235 103.101 17.5445C103.101 17.0182 103.225 16.7551 103.721 16.8866C104.217 16.8866 104.589 16.8866 105.085 16.8866C106.821 16.8866 106.821 16.8866 106.821 15.0445C106.821 14.3866 106.573 14.1235 105.953 14.1235C105.209 14.1235 104.465 14.1235 103.845 14.1235C103.473 14.1235 103.225 13.9919 103.225 13.4656C103.225 12.1498 103.225 10.834 103.225 9.38661C103.225 8.8603 103.349 8.72872 103.845 8.72872C104.713 8.72872 105.705 8.72872 106.573 8.72872C108.31 8.72872 108.31 8.72872 108.31 6.88661C108.31 5.96556 108.186 5.83398 107.193 5.83398C105.209 5.83398 103.225 5.83398 101.116 5.83398C100.248 5.83398 100 5.96556 100 7.01819C100 9.91293 100 12.8077 100 15.7024C100 18.5972 100 21.4919 100 24.5182C100 25.5709 100.124 25.7024 101.116 25.834C102.977 25.834 104.713 25.834 106.573 25.834C108.434 25.834 108.31 25.834 108.31 23.8603C108.434 23.0709 108.062 22.8077 107.441 22.8077Z" fill="#7B7D7F"/>
<path fill-rule="evenodd" clip-rule="evenodd" d="M85.5645 5.83398C83.4815 5.83398 81.521 5.83398 79.4379 5.83398C78.5802 5.83398 78.3352 5.96555 78.3352 7.01812C78.3352 9.91266 78.3352 12.8072 78.3352 15.8334C78.3352 18.4648 78.3352 20.9646 78.3352 23.596C78.3352 25.9643 78.2126 25.8327 80.4182 25.8327C81.2759 25.8327 81.3984 25.7011 81.3984 24.7801C81.3984 22.4119 81.3984 20.1752 81.3984 17.8069C81.3984 17.2806 81.521 17.0175 82.0111 17.1491C82.5012 17.1491 82.9913 17.1491 83.4815 17.1491C85.3194 17.1491 85.3194 17.1491 85.1969 15.3071C85.1969 14.6492 84.9518 14.3861 84.3392 14.3861C83.604 14.3861 82.8688 14.3861 82.2562 14.3861C81.6435 14.3861 81.3984 14.2545 81.521 13.5967C81.521 12.281 81.521 11.0968 81.521 9.78109C81.521 9.25481 81.6435 8.99167 82.2562 8.99167C83.1139 8.99167 84.0941 8.99167 84.9518 8.99167C86.5447 8.99167 86.6673 8.99167 86.6673 7.28126C86.5447 5.96555 86.4222 5.83398 85.5645 5.83398Z" fill="#7B7D7F"/>
<path fill-rule="evenodd" clip-rule="evenodd" d="M20.0316 8.35601C19.9479 8.22451 19.8658 8.09568 19.8193 7.94812C20.9196 7.94812 21.6531 8.59391 21.6531 9.62716C21.6531 9.97158 21.6565 10.316 21.6599 10.6604C21.6769 12.3825 21.6938 14.1046 21.2863 15.8267C20.7973 18.9265 19.3303 21.5096 16.8852 23.3178C13.8288 25.6426 10.528 26.4175 6.86036 25.3843C6.61585 25.2551 6.37135 25.1583 6.12684 25.0614C5.88233 24.9645 5.63782 24.8677 5.39332 24.7385C5.21722 24.6455 5.04366 24.5525 4.87154 24.4602C3.84873 23.912 2.87678 23.3911 1.7257 23.0595C0.992176 22.9303 0.380907 22.4137 0.136399 21.6387V21.5096C-0.160717 20.5679 0.10379 19.711 0.21496 19.3508C0.241019 19.2664 0.258653 19.2093 0.258653 19.1848C0.503161 18.4098 0.530328 17.6349 0.557496 16.8599C0.571079 16.4725 0.584663 16.085 0.625414 15.6975C0.869922 11.3062 3.07049 8.20644 6.73811 6.13993C10.4057 4.07342 16.1517 4.84836 19.208 8.20644C19.3453 8.30312 19.4654 8.43599 19.5877 8.57118C19.792 8.7972 20.0023 9.02972 20.3083 9.11053C20.3083 8.79065 20.1677 8.5698 20.0316 8.35601ZM8.81642 9.23969C9.91671 8.72306 11.017 8.59391 12.2395 8.59391C13.8796 8.47014 15.6319 8.70216 17.4965 8.94903C17.5777 8.95979 17.6592 8.97058 17.741 8.98138C17.6376 8.8722 17.578 8.78609 17.5343 8.72306C17.4746 8.63696 17.4448 8.59391 17.3742 8.59391C16.2739 7.81896 15.0514 7.43149 13.8288 7.17318C11.995 6.78571 10.039 6.78571 8.20516 7.56065C7.83839 7.68981 7.47163 7.94812 7.71614 8.46475C7.76294 8.53891 7.80525 8.62253 7.84824 8.70746C8.02984 9.0663 8.22329 9.44856 8.81642 9.23969Z" fill="#7B7D7F"/>
</svg>
