<svg version="1.0" xmlns="http://www.w3.org/2000/svg"
 width="512.000000pt" height="512.000000pt" viewBox="0 0 512.000000 512.000000"
 preserveAspectRatio="xMidYMid meet">
<style>
    .has-cr {
        fill: #ffad0a;
    }
</style>
<g transform="translate(0.000000,512.000000) scale(0.100000,-0.100000)"
fill="#000000" stroke="none">
<path d="M2485 4951 c-92 -24 -173 -90 -215 -176 -19 -41 -24 -66 -24 -135 -1
-78 2 -90 33 -148 38 -70 70 -100 145 -140 43 -22 64 -26 136 -26 72 0 93 4
136 26 75 40 107 70 145 140 31 58 34 70 33 148 0 72 -4 93 -26 136 -39 75
-70 107 -137 143 -65 34 -164 49 -226 32z m138 -165 c103 -43 128 -177 48
-257 -112 -113 -296 -12 -267 146 18 94 128 150 219 111z"/>
<path d="M1565 4775 c-31 -31 -31 -51 1 -148 14 -43 24 -80 23 -81 -2 -2 -42
-20 -89 -41 -188 -82 -401 -218 -578 -370 -426 -366 -689 -861 -753 -1419 -15
-129 -6 -462 15 -581 59 -322 190 -643 358 -877 l34 -48 62 46 c34 25 62 48
62 50 0 2 -27 45 -61 96 -129 196 -232 450 -284 698 -21 99 -28 165 -32 316
-11 359 44 625 193 933 164 342 407 617 744 842 92 62 352 199 376 199 7 0 24
-37 39 -82 30 -92 52 -118 99 -118 49 0 34 -18 260 313 85 125 70 142 -199
231 -110 36 -210 66 -223 66 -13 0 -34 -11 -47 -25z m256 -206 c24 -7 46 -14
48 -16 5 -3 -62 -102 -70 -103 -3 0 -13 26 -23 58 -10 31 -21 63 -24 71 -4 10
-1 13 10 8 9 -3 36 -11 59 -18z"/>
<path d="M3056 4638 c-22 -73 -33 -140 -23 -144 7 -2 58 -17 114 -34 336 -99
661 -296 923 -559 195 -195 352 -414 469 -655 119 -243 199 -503 238 -771 21
-147 23 -495 4 -635 -25 -187 -103 -503 -130 -533 -4 -4 -40 6 -81 23 -40 16
-84 30 -97 30 -30 0 -73 -42 -73 -70 0 -30 80 -381 91 -403 15 -27 57 -50 81
-43 13 3 102 54 198 113 187 116 204 134 184 190 -10 28 -27 40 -106 72 l-46
19 33 106 c86 271 119 493 119 801 -1 255 -18 405 -73 630 -212 862 -836 1557
-1634 1819 -168 56 -186 60 -191 44z m1642 -3533 c2 -1 -16 -14 -40 -28 l-43
-25 -6 21 c-3 12 -9 34 -13 49 l-6 28 52 -21 c29 -11 54 -22 56 -24z"/>
<path d="M2335 3924 c-390 -28 -731 -177 -1003 -438 -304 -292 -454 -641 -453
-1058 0 -169 20 -295 72 -453 163 -493 567 -848 1058 -930 136 -23 384 -16
514 14 184 43 376 138 534 266 45 36 85 71 89 77 4 5 -18 35 -49 66 l-55 55
-53 -47 c-158 -142 -378 -246 -588 -276 -121 -18 -354 -8 -456 20 -196 52
-360 142 -501 273 -373 348 -504 888 -333 1374 117 331 362 595 703 759 198
95 385 136 616 137 235 0 421 -42 625 -142 154 -76 274 -162 395 -283 474
-475 601 -1205 315 -1813 -87 -186 -194 -334 -352 -485 -336 -323 -751 -491
-1218 -493 -143 -1 -331 14 -357 29 -3 2 2 36 13 76 21 83 14 111 -34 138 -26
14 -36 12 -220 -50 -117 -40 -201 -74 -214 -87 -44 -43 -34 -67 110 -249 137
-174 155 -189 208 -172 31 11 44 33 67 118 20 75 10 72 157 49 129 -20 413
-17 549 5 711 116 1292 592 1510 1236 123 366 123 761 1 1128 -164 490 -535
885 -990 1055 -196 74 -465 115 -660 101z m-682 -3386 c-8 -29 -16 -54 -18
-56 -1 -1 -15 16 -30 38 -31 45 -31 43 10 58 53 19 55 17 38 -40z"/>
<path class="has-cr" d="M2185 3335 c-22 -21 -25 -33 -25 -100 l0 -76 -36 -15 -36 -15 -59 57
c-84 79 -90 77 -252 -84 -70 -70 -130 -137 -134 -150 -8 -32 9 -64 61 -120 43
-46 44 -48 31 -80 l-14 -32 -76 0 c-67 0 -79 -3 -100 -25 -25 -24 -25 -26 -25
-215 0 -189 0 -191 25 -215 21 -22 33 -25 100 -25 l76 0 15 -36 15 -36 -55
-58 c-82 -86 -82 -87 76 -247 73 -74 143 -136 156 -140 32 -8 64 9 120 61 46
43 48 44 80 31 l32 -14 0 -76 c0 -67 3 -79 25 -100 24 -25 26 -25 215 -25 189
0 191 0 215 25 22 21 25 33 25 100 l0 76 36 15 36 15 59 -57 c84 -79 90 -77
252 84 70 70 130 137 134 150 8 32 -9 64 -61 120 -43 46 -44 48 -31 80 l14 32
76 0 c67 0 79 3 100 25 25 24 25 26 25 215 0 189 0 191 -25 215 -21 22 -33 25
-100 25 l-76 0 -15 36 -15 36 55 58 c82 86 82 87 -76 247 -73 74 -143 136
-156 140 -31 8 -57 -6 -117 -60 -50 -44 -51 -45 -83 -31 l-32 13 0 76 c0 67
-3 79 -25 100 -24 25 -26 25 -215 25 -189 0 -191 0 -215 -25z m295 -170 c0
-80 41 -131 138 -170 92 -37 148 -31 205 23 l28 26 56 -57 57 -56 -26 -28
c-54 -57 -60 -113 -23 -205 39 -97 90 -138 170 -138 l35 0 0 -80 0 -80 -35 0
c-80 0 -131 -41 -170 -138 -37 -92 -31 -148 23 -205 l26 -28 -57 -56 -56 -57
-28 26 c-57 54 -113 60 -205 23 -97 -39 -138 -90 -138 -170 l0 -35 -80 0 -80
0 0 35 c0 80 -41 131 -138 170 -92 37 -148 31 -205 -23 l-28 -26 -56 57 -57
56 26 28 c54 57 60 113 23 205 -39 97 -90 138 -170 138 l-35 0 0 80 0 80 35 0
c80 0 131 41 170 138 37 92 31 148 -23 205 l-26 28 57 56 56 57 28 -26 c57
-54 113 -60 205 -23 97 39 138 90 138 170 l0 35 80 0 80 0 0 -35z"/>
<path class="has-cr" d="M2306 2870 c-63 -16 -153 -70 -197 -117 -22 -24 -55 -74 -72 -111
-29 -61 -32 -76 -32 -163 0 -90 2 -99 37 -171 45 -91 103 -147 196 -191 61
-29 76 -32 162 -32 86 0 101 3 162 32 93 44 151 100 196 191 35 72 37 81 37
172 0 91 -2 100 -37 172 -68 136 -188 217 -336 224 -42 2 -94 -1 -116 -6z
m168 -162 c86 -26 166 -136 166 -228 0 -124 -116 -240 -240 -240 -124 0 -240
116 -240 240 0 63 23 114 75 165 70 71 145 90 239 63z"/>
<path d="M3266 1869 c-15 -39 -26 -72 -24 -74 15 -14 131 -65 137 -60 11 6 61
130 61 150 0 9 -24 22 -66 35 -36 11 -69 20 -73 20 -4 0 -20 -32 -35 -71z"/>
<path d="M885 1191 c-92 -24 -173 -90 -215 -176 -19 -41 -24 -66 -24 -135 -1
-78 2 -90 33 -148 38 -70 70 -100 145 -140 43 -22 64 -26 136 -26 72 0 93 4
136 26 75 40 107 70 145 140 31 58 34 70 33 148 0 72 -4 93 -26 136 -39 75
-70 107 -137 143 -65 34 -164 49 -226 32z m138 -165 c103 -43 128 -177 48
-257 -65 -65 -157 -65 -222 0 -124 123 13 325 174 257z"/>
<path d="M4165 791 c-92 -24 -173 -90 -215 -176 -19 -41 -24 -66 -24 -135 -1
-78 2 -90 33 -148 38 -70 70 -100 145 -140 43 -22 64 -26 136 -26 72 0 93 4
136 26 75 40 107 70 145 140 31 58 34 70 33 148 0 72 -4 93 -26 136 -39 75
-70 107 -137 143 -65 34 -164 49 -226 32z m138 -165 c103 -43 128 -177 48
-257 -65 -65 -157 -65 -222 0 -124 123 13 325 174 257z"/>
</g>
</svg>
