<?xml version="1.0" encoding="iso-8859-1"?>
<!-- Uploaded to: SVG Repo, www.svgrepo.com, Generator: SVG Repo Mixer Tools -->
<svg height="800px" width="800px" version="1.1" id="Layer_1" xmlns="http://www.w3.org/2000/svg" xmlns:xlink="http://www.w3.org/1999/xlink" 
	 viewBox="0 0 512 512" xml:space="preserve">
<path style="fill:#FFD782;" d="M0,102.4v333.683c0,10.238,7.904,18.538,17.655,18.538h476.69c9.751,0,17.655-8.3,17.655-18.538
	V102.4c0-10.238-7.904-18.538-17.655-18.538H17.655C7.904,83.862,0,92.162,0,102.4z"/>
<path style="fill:#FFC36E;" d="M17.655,83.862v344.276c0,4.875,3.953,8.828,8.828,8.828h185.379c4.875,0,8.828,3.953,8.828,8.828
	v8.828c0,4.875,3.953,8.828,8.828,8.828h52.966c4.875,0,8.828-3.953,8.828-8.828v-8.828c0-4.875,3.953-8.828,8.828-8.828h185.379
	c4.875,0,8.828-3.953,8.828-8.828V83.862H17.655z"/>
<path style="fill:#D7DEED;" d="M467.862,419.31H44.138c-4.875,0-8.828-3.953-8.828-8.828V83.862H476.69v326.621
	C476.69,415.358,472.737,419.31,467.862,419.31z"/>
<path style="fill:#E4EAF6;" d="M467.862,48.552H282.483C267.857,48.552,256,60.408,256,75.034c0-14.626-11.857-26.483-26.483-26.483
	H44.138c-4.875,0-8.828,3.953-8.828,8.828v335.448c0,4.875,3.953,8.828,8.828,8.828h194.207c4.875,0,8.828-3.953,8.828-8.828
	v-291.31c0-4.875,3.953-8.828,8.828-8.828s8.828,3.953,8.828,8.828v291.31c0,4.875,3.953,8.828,8.828,8.828h194.207
	c4.875,0,8.828-3.953,8.828-8.828V57.379C476.69,52.504,472.737,48.552,467.862,48.552z"/>
<g>
	<path style="fill:#D7DEED;" d="M211.862,110.345H79.448c-4.875,0-8.828-3.953-8.828-8.828l0,0c0-4.875,3.953-8.828,8.828-8.828
		h132.414c4.875,0,8.828,3.953,8.828,8.828l0,0C220.69,106.392,216.737,110.345,211.862,110.345z"/>
	<path style="fill:#D7DEED;" d="M114.759,145.655h-35.31c-4.875,0-8.828-3.953-8.828-8.828l0,0c0-4.875,3.953-8.828,8.828-8.828
		h35.31c4.875,0,8.828,3.953,8.828,8.828l0,0C123.586,141.703,119.634,145.655,114.759,145.655z"/>
	<path style="fill:#D7DEED;" d="M211.862,216.276h-44.138c-4.875,0-8.828-3.953-8.828-8.828l0,0c0-4.875,3.953-8.828,8.828-8.828
		h44.138c4.875,0,8.828,3.953,8.828,8.828l0,0C220.69,212.323,216.737,216.276,211.862,216.276z"/>
	<path style="fill:#D7DEED;" d="M141.241,286.897H79.448c-4.875,0-8.828-3.953-8.828-8.828l0,0c0-4.875,3.953-8.828,8.828-8.828
		h61.793c4.875,0,8.828,3.953,8.828,8.828l0,0C150.069,282.944,146.116,286.897,141.241,286.897z"/>
</g>
<path style="fill:#C7CFE2;" d="M211.862,145.655h-61.793c-4.875,0-8.828-3.953-8.828-8.828l0,0c0-4.875,3.953-8.828,8.828-8.828
	h61.793c4.875,0,8.828,3.953,8.828,8.828l0,0C220.69,141.703,216.737,145.655,211.862,145.655z"/>
<path style="fill:#D7DEED;" d="M211.862,180.966H79.448c-4.875,0-8.828-3.953-8.828-8.828l0,0c0-4.875,3.953-8.828,8.828-8.828
	h132.414c4.875,0,8.828,3.953,8.828,8.828l0,0C220.69,177.013,216.737,180.966,211.862,180.966z"/>
<path style="fill:#C7CFE2;" d="M132.414,216.276H79.448c-4.875,0-8.828-3.953-8.828-8.828l0,0c0-4.875,3.953-8.828,8.828-8.828
	h52.966c4.875,0,8.828,3.953,8.828,8.828l0,0C141.241,212.323,137.289,216.276,132.414,216.276z"/>
<path style="fill:#D7DEED;" d="M211.862,251.586H79.448c-4.875,0-8.828-3.953-8.828-8.828l0,0c0-4.875,3.953-8.828,8.828-8.828
	h132.414c4.875,0,8.828,3.953,8.828,8.828l0,0C220.69,247.634,216.737,251.586,211.862,251.586z"/>
<g>
	<path style="fill:#C7CFE2;" d="M211.862,286.897h-35.31c-4.875,0-8.828-3.953-8.828-8.828l0,0c0-4.875,3.953-8.828,8.828-8.828
		h35.31c4.875,0,8.828,3.953,8.828,8.828l0,0C220.69,282.944,216.737,286.897,211.862,286.897z"/>
	<path style="fill:#C7CFE2;" d="M114.759,357.517h-35.31c-4.875,0-8.828-3.953-8.828-8.828l0,0c0-4.875,3.953-8.828,8.828-8.828
		h35.31c4.875,0,8.828,3.953,8.828,8.828l0,0C123.586,353.565,119.634,357.517,114.759,357.517z"/>
</g>
<g>
	<path style="fill:#D7DEED;" d="M211.862,322.207H79.448c-4.875,0-8.828-3.953-8.828-8.828l0,0c0-4.875,3.953-8.828,8.828-8.828
		h132.414c4.875,0,8.828,3.953,8.828,8.828l0,0C220.69,318.254,216.737,322.207,211.862,322.207z"/>
	<path style="fill:#D7DEED;" d="M211.862,357.517h-61.793c-4.875,0-8.828-3.953-8.828-8.828l0,0c0-4.875,3.953-8.828,8.828-8.828
		h61.793c4.875,0,8.828,3.953,8.828,8.828l0,0C220.69,353.565,216.737,357.517,211.862,357.517z"/>
	<path style="fill:#D7DEED;" d="M432.552,110.345H300.138c-4.875,0-8.828-3.953-8.828-8.828l0,0c0-4.875,3.953-8.828,8.828-8.828
		h132.414c4.875,0,8.828,3.953,8.828,8.828l0,0C441.379,106.392,437.427,110.345,432.552,110.345z"/>
	<path style="fill:#D7DEED;" d="M335.448,145.655h-35.31c-4.875,0-8.828-3.953-8.828-8.828l0,0c0-4.875,3.953-8.828,8.828-8.828
		h35.31c4.875,0,8.828,3.953,8.828,8.828l0,0C344.276,141.703,340.323,145.655,335.448,145.655z"/>
	<path style="fill:#D7DEED;" d="M432.552,216.276h-44.138c-4.875,0-8.828-3.953-8.828-8.828l0,0c0-4.875,3.953-8.828,8.828-8.828
		h44.138c4.875,0,8.828,3.953,8.828,8.828l0,0C441.379,212.323,437.427,216.276,432.552,216.276z"/>
	<path style="fill:#D7DEED;" d="M361.931,286.897h-61.793c-4.875,0-8.828-3.953-8.828-8.828l0,0c0-4.875,3.953-8.828,8.828-8.828
		h61.793c4.875,0,8.828,3.953,8.828,8.828l0,0C370.759,282.944,366.806,286.897,361.931,286.897z"/>
</g>
<path style="fill:#C7CFE2;" d="M432.552,145.655h-61.793c-4.875,0-8.828-3.953-8.828-8.828l0,0c0-4.875,3.953-8.828,8.828-8.828
	h61.793c4.875,0,8.828,3.953,8.828,8.828l0,0C441.379,141.703,437.427,145.655,432.552,145.655z"/>
<path style="fill:#D7DEED;" d="M432.552,180.966H300.138c-4.875,0-8.828-3.953-8.828-8.828l0,0c0-4.875,3.953-8.828,8.828-8.828
	h132.414c4.875,0,8.828,3.953,8.828,8.828l0,0C441.379,177.013,437.427,180.966,432.552,180.966z"/>
<path style="fill:#C7CFE2;" d="M353.103,216.276h-52.966c-4.875,0-8.828-3.953-8.828-8.828l0,0c0-4.875,3.953-8.828,8.828-8.828
	h52.966c4.875,0,8.828,3.953,8.828,8.828l0,0C361.931,212.323,357.978,216.276,353.103,216.276z"/>
<path style="fill:#D7DEED;" d="M432.552,251.586H300.138c-4.875,0-8.828-3.953-8.828-8.828l0,0c0-4.875,3.953-8.828,8.828-8.828
	h132.414c4.875,0,8.828,3.953,8.828,8.828l0,0C441.379,247.634,437.427,251.586,432.552,251.586z"/>
<g>
	<path style="fill:#C7CFE2;" d="M432.552,286.897h-35.31c-4.875,0-8.828-3.953-8.828-8.828l0,0c0-4.875,3.953-8.828,8.828-8.828
		h35.31c4.875,0,8.828,3.953,8.828,8.828l0,0C441.379,282.944,437.427,286.897,432.552,286.897z"/>
	<path style="fill:#C7CFE2;" d="M335.448,357.517h-35.31c-4.875,0-8.828-3.953-8.828-8.828l0,0c0-4.875,3.953-8.828,8.828-8.828
		h35.31c4.875,0,8.828,3.953,8.828,8.828l0,0C344.276,353.565,340.323,357.517,335.448,357.517z"/>
</g>
<g>
	<path style="fill:#D7DEED;" d="M432.552,322.207H300.138c-4.875,0-8.828-3.953-8.828-8.828l0,0c0-4.875,3.953-8.828,8.828-8.828
		h132.414c4.875,0,8.828,3.953,8.828,8.828l0,0C441.379,318.254,437.427,322.207,432.552,322.207z"/>
	<path style="fill:#D7DEED;" d="M432.552,357.517h-61.793c-4.875,0-8.828-3.953-8.828-8.828l0,0c0-4.875,3.953-8.828,8.828-8.828
		h61.793c4.875,0,8.828,3.953,8.828,8.828l0,0C441.379,353.565,437.427,357.517,432.552,357.517z"/>
</g>
</svg>