<svg xmlns="http://www.w3.org/2000/svg" version="1.0" width="512.000000pt" height="512.000000pt" viewBox="0 0 512.000000 512.000000" preserveAspectRatio="xMidYMid meet">
    <g transform="translate(0.000000,512.000000) scale(0.100000,-0.100000)" fill="#0272b6" stroke="none">
        <path d="M1620 4674 c-46 -20 -77 -50 -103 -99 l-22 -40 -3 -1842 -2 -1843 -134 0 c-120 0 -137 -2 -177 -23 -24 -13 -57 -43 -74 -66 -27 -39 -30 -50 -30 -120 0 -66 4 -83 25 -114 14 -21 43 -50 64 -65 l39 -27 503 0 502 0 44 30 c138 97 118 306 -34 370 -27 11 -73 15 -168 15 l-130 0 0 750 0 750 1318 2 1319 3 40 28 c83 57 118 184 75 267 -10 19 -140 198 -290 398 -170 225 -270 367 -265 375 4 7 128 174 276 372 149 197 276 374 283 392 19 45 17 120 -5 168 -23 51 -79 101 -128 114 -26 7 -459 11 -1330 11 l-1293 0 0 20 c0 58 -56 137 -122 171 -45 23 -128 25 -178 3z"></path>
    </g>
</svg>