<?xml version="1.0" encoding="iso-8859-1"?>
<!-- Uploaded to: SVG Repo, www.svgrepo.com, Generator: SVG Repo Mixer Tools -->
<svg version="1.1" id="Layer_1" xmlns="http://www.w3.org/2000/svg" xmlns:xlink="http://www.w3.org/1999/xlink" 
	 viewBox="0 0 512 512" xml:space="preserve">
<circle style="fill:#F9DCA4;" cx="81.664" cy="215.096" r="51.821"/>
<path style="fill:#E7C080;" d="M57.017,215.1c0-23.917,16.208-44.039,38.235-50.011c-4.333-1.175-8.884-1.813-13.588-1.813
	c-28.621,0-51.823,23.202-51.823,51.823s23.202,51.823,51.823,51.823c4.704,0,9.257-0.638,13.588-1.813
	C73.225,259.139,57.017,239.017,57.017,215.1z"/>
<path style="fill:#EAA0E3;" d="M124.49,370.503H38.838v-60.754c0-23.652,19.174-42.827,42.827-42.827l0,0
	c23.652,0,42.827,19.174,42.827,42.827v60.754H124.49z"/>
<path style="fill:#D57CD4;" d="M90.202,267.776c-2.76-0.559-5.614-0.854-8.538-0.854l0,0c-23.652,0-42.827,19.174-42.827,42.827
	v60.754h17.075v-60.754C55.913,289.02,70.641,271.734,90.202,267.776z"/>
<g>
	<path style="fill:#F9DCA4;" d="M55.888,408.168c4.666,25.736,12.806,57.712,25.781,70.687v-70.687"/>
	<path style="fill:#F9DCA4;" d="M107.439,408.168c-4.666,25.736-12.806,57.712-25.769,70.687v-85.303"/>
</g>
<rect x="38.842" y="370.506" style="fill:#F4C063;" width="85.655" height="37.665"/>
<rect x="38.842" y="370.506" style="fill:#D5A03C;" width="18.662" height="37.665"/>
<circle style="fill:#F9DCA4;" cx="225.754" cy="226.513" r="49.585"/>
<path style="fill:#E7C080;" d="M202.175,226.518c0-22.882,15.506-42.132,36.58-47.846c-4.144-1.124-8.5-1.733-13-1.733
	c-27.382,0-49.58,22.198-49.58,49.58s22.198,49.58,49.58,49.58c4.501,0,8.856-0.61,13-1.733
	C217.68,268.65,202.175,249.401,202.175,226.518z"/>
<path style="fill:#F4C063;" d="M225.754,176.934c0,38.96-48.14,37.691-48.14,37.691
	C182.933,192.985,202.474,176.934,225.754,176.934z"/>
<g>
	<path style="fill:#F9DCA4;" d="M201.094,411.228c4.464,24.622,12.252,55.213,24.665,67.627v-67.627"/>
	<path style="fill:#F9DCA4;" d="M250.413,411.228c-4.464,24.622-12.252,55.213-24.654,67.627v-81.611"/>
</g>
<g>
	<path style="fill:#F4C063;" d="M178.943,404.169l-1.057,7.059h95.735l-1.057-7.059c-3.886-25.948-5.838-52.149-5.838-78.386v-8.713
		c0-22.629-18.343-40.972-40.972-40.972l0,0c-22.628,0-40.972,18.343-40.972,40.972v8.713
		C184.781,352.02,182.831,378.221,178.943,404.169z"/>
	<path style="fill:#F4C063;" d="M273.894,214.625c0,0-48.14,1.27-48.14-37.691C249.034,176.934,268.574,192.985,273.894,214.625z"/>
</g>
<path style="fill:#D5A03C;" d="M185.839,317.07v8.713c0,26.237-1.952,52.438-5.838,78.386l-1.057,7.059h25.183l0.501-7.059
	c1.842-25.948,2.767-52.149,2.767-78.386v-8.713c0-22.628,8.693-40.972,19.417-40.972l0,0
	C204.183,276.098,185.839,294.441,185.839,317.07z"/>
<g>
	<path style="fill:#F9DCA4;" d="M254.728,288.104c-6.71,8.63-17.19,14.19-28.97,14.19c-11.79,0-22.28-5.56-28.981-14.2
		c7.41-7.41,17.65-12,28.97-12C237.068,276.095,247.318,280.685,254.728,288.104z"/>
</g>
<path style="fill:#EAA0E3;" d="M452.49,284.794H345.75v-78.288c0-28.052,22.74-50.792,50.792-50.792h5.156
	c28.052,0,50.792,22.74,50.792,50.792v78.288H452.49z"/>
<path style="fill:#D57CD4;" d="M410.626,156.972c-3.707-0.815-7.554-1.257-11.506-1.257l0,0c-29.475,0-53.37,23.895-53.37,53.37
	v75.711h23.012v-75.711C368.762,183.561,386.684,162.235,410.626,156.972z"/>
<polygon style="fill:#74C194;" points="461.282,377.835 336.958,377.835 345.75,284.794 452.49,284.794 "/>
<g>
	<path style="fill:#F9DCA4;" d="M397.91,377.836v107.531c-14.605-14.605-23.083-53.349-27.378-80.108
		c-2.53-15.809-3.597-27.423-3.597-27.423L397.91,377.836L397.91,377.836z"/>
	<circle style="fill:#F9DCA4;" cx="398.766" cy="91.176" r="64.544"/>
</g>
<path style="fill:#E7C080;" d="M363.606,91.174c0-30.588,21.286-56.187,49.848-62.839c-4.722-1.1-9.636-1.7-14.691-1.7
	c-35.645,0-64.54,28.895-64.54,64.54s28.895,64.54,64.54,64.54c5.057,0,9.97-0.6,14.691-1.7
	C384.891,147.361,363.606,121.763,363.606,91.174z"/>
<path style="fill:#F9DCA4;" d="M428.897,377.836c0,0-1.068,11.614-3.597,27.423c-4.295,26.759-12.784,65.504-27.388,80.108V377.836
	H428.897z"/>
<g>
	<path style="fill:#4D4D4D;" d="M463.301,91.174c0,0,10.411,77.546-10.805,117.909c0-14.74-5.97-28.086-15.629-37.744
		c-9.658-9.658-23.003-15.629-37.744-15.629C434.597,155.52,463.301,126.692,463.301,91.174z"/>
	<path style="fill:#4D4D4D;" d="M463.301,91.174c-71.632,7.341-109.904-45.895-109.904-45.895
		c11.659-11.524,27.681-18.642,45.367-18.642C434.406,26.638,463.301,55.533,463.301,91.174z"/>
</g>
<polyline style="fill:#54AC7C;" points="368.762,284.794 368.014,377.835 336.958,377.835 345.75,284.794 "/>
<path style="fill:#E7C080;" d="M428.897,377.836c0,0-1.068,11.614-3.597,27.423h-54.766c-2.53-15.809-3.597-27.423-3.597-27.423
	H428.897z"/>
<path style="fill:#EC589B;" d="M491.575,180.856L491.575,180.856c-16.532-16.532-43.336-16.532-59.868,0l-45.085,45.085
	c-16.532,16.532-16.532,43.336,0,59.868l0,0c16.532,16.532,43.336,16.532,59.868,0l45.085-45.085
	C508.107,224.192,508.107,197.388,491.575,180.856z"/>
<path style="fill:#D3468D;" d="M405.96,288.422L405.96,288.422c-16.532-16.532-16.532-43.336,0-59.868l45.085-45.085
	c7.209-7.209,16.369-11.272,25.78-12.194c-15.13-5.804-32.919-2.618-45.118,9.581l-45.085,45.085
	c-16.532,16.532-16.532,43.336,0,59.868l0,0c9.324,9.323,21.914,13.387,34.087,12.194
	C415.335,295.941,410.293,292.756,405.96,288.422z"/>
<path style="fill:#F9DCA4;" d="M431.312,214.085c-8.533-8.533-8.533-22.418,0-30.953l0,0c8.533-8.533,22.418-8.533,30.953,0
	c8.533,8.533,8.533,22.418,0,30.953l0,0C453.731,222.618,439.846,222.618,431.312,214.085z"/>
<path d="M69.156,208.79c0.61-3.088-0.706-6.357-3.292-8.149c-3.04-2.108-7.223-1.839-9.973,0.637
	c-5.328,4.799-1.785,13.976,5.389,13.976C65.053,215.253,68.425,212.49,69.156,208.79z"/>
<path d="M109.931,208.711c0.594-3.128-0.784-6.394-3.43-8.16c-3.087-2.061-7.299-1.687-9.99,0.861
	c-5.144,4.871-1.549,13.842,5.538,13.842C105.862,215.253,109.222,212.444,109.931,208.711z"/>
<path d="M201.536,222.494c-2.796,2.015-3.987,5.745-2.898,9.007c1.085,3.253,4.184,5.505,7.62,5.505c3.64,0,6.88-2.546,7.776-6.069
	C215.851,223.792,207.466,218.221,201.536,222.494z"/>
<path d="M240.043,222.882c-2.507,2.128-3.465,5.714-2.341,8.805c1.146,3.151,4.185,5.319,7.547,5.319
	c3.915,0,7.379-2.953,7.939-6.846C254.218,222.996,245.6,218.162,240.043,222.882z"/>
<path d="M358.907,87.877c-2.888,1.927-4.235,5.634-3.236,8.964c1.005,3.348,4.18,5.74,7.687,5.74c3.632,0,6.877-2.546,7.776-6.057
	C372.92,89.542,364.879,83.893,358.907,87.877z"/>
<path d="M512,210.79c0-13.45-5.239-26.097-14.749-35.608c-6.855-6.854-15.339-11.474-24.576-13.529
	c3.176-33.932-0.827-66.972-1.363-71.134c-0.169-19.137-7.688-37.105-21.238-50.656c-3.135-3.134-8.216-3.134-11.35,0
	c-3.134,3.134-3.134,8.216,0,11.349c8.898,8.897,14.449,20.243,16.056,32.515c-24.639,1.022-47.595-5.357-68.311-19.064
	c-10.123-6.698-17.465-13.763-21.833-18.496c9.49-7.213,21.315-11.506,34.128-11.506c7.634,0,15.034,1.493,21.995,4.437
	c4.081,1.726,8.791-0.183,10.517-4.265c1.727-4.082-0.183-8.79-4.264-10.517c-8.951-3.786-18.455-5.705-28.248-5.705
	c-40.014,0-72.565,32.552-72.565,72.565c0,28.178,16.155,52.639,39.681,64.654c-16.842,10.073-28.148,28.489-28.148,49.504v3.781
	l-0.042-0.01c-12.438,52.819-30.075,112.223-38.06,120.206c-0.38,0.379-0.416,0.375-0.768,0.329
	c-5.138-0.688-17.551-13.526-27.954-31.595c-3.631-8.582-9.644-15.912-17.2-21.181c17.669-9.85,29.652-28.719,29.652-50.345
	c0-31.764-25.841-57.605-57.605-57.605s-57.605,25.841-57.605,57.605c0,21.624,11.983,40.494,29.653,50.345
	c-11.923,8.314-19.989,21.781-20.94,37.151c-4.15,5.168-13.717,18.523-20.857,39.518c-7.585-25.239-18.961-41.092-23.59-46.837
	c-0.965-16.201-9.544-30.384-22.205-39.005c18.631-10.153,31.302-29.919,31.302-52.59c0-33.001-26.848-59.849-59.85-59.849
	c-12.024,0-23.623,3.554-33.541,10.275c-3.669,2.487-4.627,7.477-2.14,11.146c2.486,3.669,7.476,4.626,11.145,2.14
	c7.249-4.915,15.734-7.512,24.536-7.512c24.15,0,43.799,19.648,43.799,43.798s-19.648,43.798-43.799,43.798
	c-24.149,0-43.798-19.648-43.798-43.798c0-7.281,1.821-14.489,5.266-20.843c2.113-3.896,0.667-8.767-3.229-10.88
	c-3.901-2.112-8.768-0.666-10.88,3.23c-4.715,8.695-7.207,18.548-7.207,28.493c0,22.671,12.671,42.436,31.302,52.59
	c-12.662,8.621-21.241,22.805-22.205,39.007C23.694,315.654,0,349.28,0,404.778c0,4.432,3.592,8.025,8.025,8.025
	s8.025-3.593,8.025-8.025c0-29.429,7.452-52.112,14.762-67.303v33.03v37.665c0,4.432,3.592,8.025,8.025,8.025h10.402
	c4.666,23.694,10.391,41.965,17.099,54.636h-4.292c-4.433,0-8.025,3.593-8.025,8.025s3.592,8.025,8.025,8.025h39.235
	c4.433,0,8.025-3.593,8.025-8.025s-3.592-8.025-8.025-8.025h-4.287c6.706-12.671,12.427-30.943,17.094-54.636h10.402
	c4.433,0,8.025-3.593,8.025-8.025v-37.665v-33.179c0.15,0.309,0.299,0.604,0.448,0.919c6.53,13.787,14.314,36.523,14.314,66.534
	v3.208c0,4.432,3.592,8.025,8.025,8.025c4.433,0,8.025-3.593,8.025-8.025c0-26.666,6.411-47.526,13.025-61.974
	c-0.745,19.068-2.528,38.155-5.346,56.969l-1.057,7.059c-0.346,2.31,0.332,4.657,1.855,6.427c1.525,1.77,3.745,2.787,6.081,2.787
	h16.561c6.484,32.793,15.099,54.737,25.638,65.276c0.194,0.194,0.395,0.376,0.604,0.546c0.203,0.167,0.413,0.32,0.628,0.463
	c0.003,0.002,0.006,0.004,0.01,0.006c1.106,0.735,2.355,1.166,3.63,1.294c0.009,0.001,0.017,0.003,0.027,0.004
	c0.259,0.025,0.518,0.037,0.778,0.037h0.001h0.001c0.048,0,0.096-0.006,0.143-0.007c0.21-0.003,0.419-0.011,0.628-0.03
	c0.056-0.005,0.112-0.018,0.168-0.025c0.202-0.024,0.404-0.049,0.606-0.089c0.031-0.006,0.062-0.016,0.093-0.022
	c0.227-0.047,0.452-0.101,0.674-0.168c0.013-0.004,0.025-0.01,0.037-0.013c0.241-0.074,0.478-0.157,0.713-0.255
	c0.001-0.001,0.003-0.001,0.005-0.002c0.005-0.002,0.01-0.005,0.014-0.007c0.326-0.136,0.643-0.301,0.952-0.48
	c0.063-0.036,0.125-0.072,0.186-0.11c0.3-0.186,0.592-0.387,0.87-0.616c0.027-0.021,0.049-0.046,0.076-0.068
	c0.173-0.147,0.345-0.295,0.507-0.459c10.531-10.54,19.142-32.484,25.624-65.274h16.561c2.336,0,4.556-1.018,6.081-2.787
	c1.525-1.77,2.202-4.116,1.855-6.427l-1.057-7.058c-0.54-3.609-1.045-7.242-1.5-10.798c-0.564-4.397-4.578-7.502-8.982-6.939
	c-4.396,0.564-7.503,4.584-6.939,8.981c0.38,2.96,0.792,5.971,1.229,8.979h-14.075c-0.004,0-0.009,0-0.013,0h-63.021
	c3.723-25.567,5.608-51.602,5.608-77.419v-8.713c0-6.149,1.698-11.908,4.643-16.84c7.896,6.492,17.803,10.089,28.309,10.089
	c10.5,0,20.404-3.598,28.299-10.09c2.946,4.932,4.644,10.691,4.644,16.84v8.713c0,15.239,0.658,30.66,1.958,45.837
	c0.379,4.417,4.3,7.695,8.68,7.311c4.416-0.379,7.69-4.264,7.311-8.68c-1.114-13.009-1.713-26.2-1.844-39.294
	c7.95,8.884,15.167,13.682,21.915,14.589c0.784,0.106,1.563,0.157,2.335,0.157c4.458,0,8.624-1.747,11.92-5.044
	c4.414-4.413,11.966-16.309,26.753-68.146v11.898l-8.766,92.662c-0.213,2.25,0.533,4.486,2.053,6.157
	c1.522,1.671,3.677,2.625,5.936,2.625h22.75c2.536,22.238,11.323,83.971,32.536,105.184c1.537,1.535,3.589,2.351,5.678,2.351
	c1.034,0,2.076-0.2,3.069-0.611c0.994-0.412,1.859-1.022,2.591-1.754l0.014,0.014c21.213-21.213,30-82.946,32.536-105.184h25.16
	c2.26,0,4.416-0.953,5.937-2.625c1.52-1.671,2.266-3.908,2.053-6.157l-3.146-33.197c-0.418-4.413-4.31-7.651-8.747-7.232
	c-4.412,0.418-7.65,4.334-7.232,8.746l2.314,24.415H345.774l7.284-76.987h29.293c9.626,8.922,21.913,13.393,34.207,13.393
	c10.182,0,20.358-3.074,29.025-9.195l2.144,22.639c0.394,4.155,3.89,7.269,7.98,7.269c0.253,0,0.509-0.012,0.766-0.036
	c4.413-0.418,7.651-4.334,7.233-8.746l-3.156-33.325c10.019,5.002,18.312,7.507,24.968,7.507c5.428,0,9.771-1.661,13.085-4.972
	c12.889-12.891,6.37-35.002,2.372-45.122C508.114,233.332,512,222.362,512,210.79z M46.863,309.749
	c0-19.19,15.612-34.801,34.8-34.801s34.801,15.612,34.801,34.801v52.729H46.863V309.749z M65.615,416.193h8.029v30.672
	C70.734,438.236,68.032,427.935,65.615,416.193z M89.695,446.837v-30.644h8.019C95.3,427.922,92.602,438.214,89.695,446.837z
	 M116.466,400.142H89.695v-6.591c0-4.432-3.592-8.025-8.025-8.025s-8.025,3.593-8.025,8.025v6.591H46.863v-21.615h69.603
	C116.466,378.528,116.466,400.142,116.466,400.142z M217.734,446.099c-2.488-7.699-4.807-16.707-6.906-26.846h6.906V446.099z
	 M233.784,446.068v-26.815h6.897C238.585,429.381,236.269,438.373,233.784,446.068z M261.504,205.369
	c-6.722-1.314-14.829-4.019-20.516-9.583c-2.808-2.748-4.754-5.989-5.918-9.756C246.288,188.61,255.785,195.738,261.504,205.369z
	 M216.438,186.03c-1.163,3.766-3.109,7.008-5.918,9.756c-5.683,5.56-13.79,8.264-20.512,9.578
	C195.727,195.736,205.222,188.61,216.438,186.03z M184.2,226.518c0-1.408,0.072-2.801,0.21-4.174
	c9.31-0.838,25.866-3.916,37.266-15.019c1.498-1.458,2.857-3.001,4.079-4.625c1.222,1.624,2.581,3.166,4.079,4.626
	c11.401,11.104,27.957,14.181,37.266,15.019c0.138,1.373,0.21,2.765,0.21,4.174c0,22.913-18.641,41.554-41.554,41.554
	S184.2,249.432,184.2,226.518z M208.882,288.785c4.938-2.958,10.71-4.662,16.872-4.662c6.163,0,11.933,1.705,16.872,4.662
	c-4.834,3.54-10.69,5.485-16.868,5.485C219.576,294.269,213.717,292.325,208.882,288.785z M381.606,421.437
	c-2.855-14.114-4.693-27.316-5.705-35.583h13.988v67.451C386.872,444.364,384.075,433.648,381.606,421.437z M414.222,421.437
	c-2.47,12.211-5.266,22.919-8.283,31.86v-67.443h13.988C418.915,394.122,417.077,407.323,414.222,421.437z M432.047,155.623
	c10.259-5.32,19.09-13.014,25.768-22.355c0.028,8.683-0.278,18.059-1.17,27.408c-4.715,0.461-9.286,1.586-13.615,3.306
	C439.693,160.735,435.998,157.946,432.047,155.623z M436.987,188.807c2.611-2.612,6.092-4.05,9.801-4.05
	c3.709,0,7.189,1.438,9.801,4.051c2.611,2.611,4.049,6.092,4.049,9.801c0,3.71-1.438,7.189-4.05,9.801
	c-2.611,2.611-6.092,4.05-9.8,4.05c-3.71,0-7.191-1.438-9.801-4.05l0,0C431.582,203.005,431.582,194.212,436.987,188.807z
	 M342.247,91.174c0-12.564,4.126-24.18,11.088-33.575c5.023,5.379,12.941,12.867,23.687,20.057
	c7.326,4.902,16.595,10.048,27.669,14.152c-1.687,4.853,1.785,10.772,7.527,10.772c3.64,0,6.882-2.561,7.776-6.08
	c0.005-0.022,0.005-0.044,0.011-0.066c10.378,2.446,21.946,3.802,34.615,3.37c-4.165,27.068-27.604,47.864-55.816,47.885h-0.082
	C367.577,147.666,342.247,122.322,342.247,91.174z M353.78,205.332c0-22.935,18.654-41.593,41.582-41.593h3.358
	c0.014,0,0.028,0.001,0.042,0.001s0.028-0.001,0.042-0.001h4.075c9.486,0,18.527,3.21,25.81,8.989
	c-0.906,0.786-1.798,1.596-2.655,2.454l-45.084,45.085c-9.513,9.511-14.75,22.157-14.75,35.608c0,7.33,1.566,14.416,4.522,20.891
	h-16.94v-71.435H353.78z M392.298,280.135c-6.481-6.48-10.05-15.095-10.05-24.26c0-9.164,3.569-17.78,10.05-24.259l25.539-25.539
	c1.285,5.016,3.88,9.763,7.799,13.682c0,0,0,0,0.001,0c5.642,5.643,13.155,8.751,21.151,8.751c7.996,0,15.508-3.107,21.151-8.751
	c5.643-5.643,8.751-13.155,8.751-21.151c0-7.996-3.107-15.508-8.751-21.15c-0.166-0.166-0.338-0.321-0.506-0.483
	c6.961,1.177,13.375,4.462,18.469,9.554c13.377,13.376,13.377,35.142,0,48.518l-29.239,29.239
	c-10.167-6.193-18.338-12.428-18.433-12.5c-3.515-2.694-8.553-2.029-11.25,1.489c-2.696,3.517-2.03,8.553,1.486,11.249
	c0.378,0.29,7.277,5.559,16.54,11.418l-3.089,3.089c-0.058,0.057-0.115,0.113-0.171,0.171l-0.929,0.929
	c-6.48,6.48-15.095,10.049-24.259,10.049C407.392,290.184,398.778,286.615,392.298,280.135z M487.256,275.999
	c-0.717,0.546-5.244,0.992-15.831-3.774l16.96-16.96c0.262,0.957,0.511,1.944,0.733,2.954
	C490.188,263.093,491.37,271.884,487.256,275.999z"/>
</svg>