<svg version="1.0" xmlns="http://www.w3.org/2000/svg"
 width="512.000000pt" height="512.000000pt" viewBox="0 0 512.000000 512.000000"
 preserveAspectRatio="xMidYMid meet">

<g transform="translate(0.000000,512.000000) scale(0.100000,-0.100000)"
fill="#000000" stroke="none">
<path d="M1276 5024 c-288 -52 -549 -270 -657 -548 -35 -90 -59 -223 -59 -326
l0 -78 -45 -6 c-25 -4 -82 -26 -127 -48 -339 -170 -411 -624 -142 -892 75 -76
190 -138 288 -155 35 -7 207 -11 418 -11 l359 0 24 -25 c24 -23 25 -31 25
-135 0 -104 -1 -112 -25 -135 l-24 -25 -312 0 c-215 0 -324 -4 -353 -12 -86
-26 -166 -136 -166 -228 0 -92 80 -202 166 -228 29 -8 155 -12 433 -12 l392 0
24 -25 25 -24 0 -455 0 -455 -567 -3 -568 -3 -67 -32 c-93 -44 -151 -100 -196
-191 -35 -72 -37 -81 -37 -172 0 -91 2 -100 37 -172 45 -91 103 -147 196 -191
l67 -32 728 -3 727 -3 0 -159 0 -160 1440 0 1440 0 0 1472 0 1473 90 90 91 91
-57 98 c-56 96 -57 98 -44 137 14 43 5 38 160 77 l75 18 0 304 0 304 -108 27
c-60 15 -109 29 -111 31 -8 12 -26 61 -26 71 0 7 25 55 56 107 l55 94 -213
213 -214 214 -98 -57 c-96 -56 -98 -57 -137 -44 -43 14 -38 5 -77 160 l-18 75
-304 0 -304 0 -18 -75 c-39 -155 -34 -146 -77 -160 -39 -13 -41 -12 -137 44
l-98 57 -161 -161 -162 -162 -46 31 c-179 121 -421 144 -610 58 l-52 -23 -54
69 c-192 246 -525 369 -845 311z m388 -182 c48 -16 111 -45 142 -63 68 -41
170 -133 208 -187 l27 -40 -51 -64 c-86 -106 -149 -264 -150 -375 l0 -33 78 0
78 0 10 69 c44 279 321 465 589 396 74 -20 169 -70 199 -106 13 -15 40 -58 61
-94 36 -65 37 -69 25 -106 -14 -42 -5 -38 -160 -77 l-75 -18 0 -304 0 -304 75
-18 c155 -39 146 -34 160 -77 13 -39 12 -41 -44 -137 l-57 -98 43 -43 42 -43
-592 0 -592 0 0 -80 0 -80 80 0 80 0 0 -880 0 -880 -80 0 -80 0 0 456 c0 329
-3 468 -12 498 -16 55 -99 138 -154 154 -29 8 -155 12 -433 12 l-392 0 -24 25
c-33 32 -33 78 0 110 l24 25 312 0 c215 0 324 4 353 12 55 16 138 99 154 154
15 53 16 255 0 306 -15 49 -81 126 -128 147 -30 14 -96 17 -436 21 l-400 5
-76 37 c-91 45 -147 103 -191 196 -28 60 -32 77 -32 157 0 107 18 168 73 240
85 112 183 160 327 160 80 0 97 -4 157 -32 37 -17 87 -50 112 -73 56 -52 112
-160 121 -235 l7 -55 79 0 c76 0 79 1 79 23 0 58 -25 149 -61 224 -67 141
-182 237 -343 289 l-71 22 2 109 c2 190 65 334 208 479 84 85 168 139 271 174
91 32 149 39 266 35 85 -3 124 -9 192 -33z m2376 -53 c21 -85 25 -93 53 -103
17 -6 67 -27 111 -47 l81 -35 84 49 84 49 124 -125 125 -124 -49 -84 -49 -84
35 -81 c20 -44 41 -94 47 -111 10 -28 18 -32 103 -53 l91 -22 0 -178 0 -178
-91 -22 c-84 -21 -93 -25 -103 -53 -6 -16 -27 -66 -47 -111 l-36 -81 50 -84
49 -84 -125 -124 -124 -125 -84 49 -84 49 -81 -35 c-44 -20 -94 -41 -111 -47
-28 -10 -32 -18 -53 -103 l-22 -91 -178 0 -178 0 -22 91 c-21 85 -25 93 -53
103 -17 6 -67 27 -111 47 l-81 35 -84 -49 -84 -49 -124 125 -125 124 49 84 50
84 -36 81 c-20 45 -41 95 -47 111 -10 28 -19 32 -103 53 l-91 22 0 178 0 178
91 22 c85 21 93 25 103 53 6 17 27 67 47 111 l35 81 -49 84 -49 84 125 124
124 125 84 -49 84 -49 81 35 c44 20 94 41 111 47 28 10 32 18 53 103 l22 91
178 0 178 0 22 -91z m-924 -1920 l92 -91 96 57 c96 58 97 58 136 45 44 -14 39
-5 78 -160 l18 -75 304 0 304 0 27 108 c15 60 29 109 31 111 12 8 61 26 71 26
7 0 55 -25 107 -55 l93 -56 44 43 43 42 0 -1312 0 -1312 -1280 0 -1280 0 0 80
0 80 128 0 127 0 295 111 c162 60 310 120 328 132 39 27 82 108 82 157 0 50
-45 135 -83 159 -18 11 -165 69 -327 130 l-295 111 -127 0 -128 0 0 880 0 880
512 0 513 0 91 -91z m-2396 -2069 l0 -240 -136 0 c-170 0 -204 9 -269 75 -71
70 -91 145 -63 239 15 51 99 137 148 153 19 6 99 11 178 12 l142 1 0 -240z
m320 0 l0 -240 -80 0 -80 0 0 240 0 240 80 0 80 0 0 -240z m1120 160 l0 -80
-480 0 -480 0 0 80 0 80 480 0 480 0 0 -80z m389 -41 c251 -94 251 -94 251
-119 0 -11 -8 -24 -18 -29 -22 -12 -446 -171 -455 -171 -4 0 -7 90 -7 200 0
110 3 200 7 200 3 0 103 -36 222 -81z m-389 -279 l0 -80 -480 0 -480 0 0 80 0
80 480 0 480 0 0 -80z"/>
<path d="M3715 4550 c-146 -27 -271 -94 -380 -204 -92 -93 -144 -177 -182
-291 -23 -71 -26 -96 -26 -215 0 -119 3 -144 26 -215 38 -115 91 -199 182
-290 91 -91 175 -144 290 -182 71 -23 96 -26 215 -26 119 0 144 3 215 26 115
38 199 91 290 182 91 91 144 175 182 290 23 71 26 96 26 215 0 119 -3 144 -26
215 -38 115 -91 199 -182 290 -139 140 -284 203 -475 210 -58 2 -127 0 -155
-5z m231 -161 c194 -35 362 -187 430 -389 26 -76 26 -244 0 -320 -61 -183
-192 -314 -376 -376 -76 -26 -244 -26 -320 0 -271 91 -432 344 -392 617 26
180 141 337 305 418 118 58 225 73 353 50z"/>
<path d="M3746 4230 c-63 -16 -153 -70 -197 -117 -22 -24 -55 -74 -72 -111
-29 -61 -32 -76 -32 -163 0 -90 2 -99 37 -171 45 -91 103 -147 196 -191 61
-29 76 -32 162 -32 86 0 101 3 162 32 93 44 151 100 196 191 35 72 37 81 37
172 0 91 -2 100 -37 172 -68 136 -188 217 -336 224 -42 2 -94 -1 -116 -6z
m168 -162 c86 -26 166 -136 166 -228 0 -124 -116 -240 -240 -240 -63 0 -114
23 -165 75 -102 101 -102 229 0 330 70 71 145 90 239 63z"/>
<path d="M2488 2363 l-168 -168 -48 48 c-26 26 -52 47 -58 47 -13 0 -104 -93
-104 -106 0 -5 47 -56 105 -114 l105 -105 225 225 c124 124 225 230 225 235 0
13 -92 105 -105 105 -6 0 -85 -75 -177 -167z"/>
<path d="M2960 2400 l0 -80 720 0 720 0 0 80 0 80 -720 0 -720 0 0 -80z"/>
<path d="M2960 2080 l0 -80 80 0 80 0 0 80 0 80 -80 0 -80 0 0 -80z"/>
<path d="M3280 2080 l0 -80 560 0 560 0 0 80 0 80 -560 0 -560 0 0 -80z"/>
<path d="M2488 1723 l-168 -168 -48 48 c-26 26 -52 47 -58 47 -13 0 -104 -93
-104 -106 0 -5 47 -56 105 -114 l105 -105 225 225 c124 124 225 230 225 235 0
13 -92 105 -105 105 -6 0 -85 -75 -177 -167z"/>
<path d="M2960 1760 l0 -80 720 0 720 0 0 80 0 80 -720 0 -720 0 0 -80z"/>
<path d="M2960 1440 l0 -80 560 0 560 0 0 80 0 80 -560 0 -560 0 0 -80z"/>
<path d="M4240 1440 l0 -80 80 0 80 0 0 80 0 80 -80 0 -80 0 0 -80z"/>
<path d="M3280 1027 c-49 -16 -133 -102 -148 -153 -28 -94 -8 -169 63 -239
101 -102 229 -102 330 0 98 97 101 222 8 325 -65 72 -158 97 -253 67z m135
-172 c50 -49 15 -135 -55 -135 -41 0 -80 39 -80 80 0 41 39 80 80 80 19 0 40
-9 55 -25z"/>
<path d="M3920 1027 c-49 -16 -133 -102 -148 -153 -28 -94 -8 -169 63 -239
101 -102 229 -102 330 0 98 97 101 222 8 325 -65 72 -158 97 -253 67z m135
-172 c50 -49 15 -135 -55 -135 -41 0 -80 39 -80 80 0 41 39 80 80 80 19 0 40
-9 55 -25z"/>
</g>
</svg>
