<?xml version="1.0" encoding="iso-8859-1"?>
<!-- Uploaded to: SVG Repo, www.svgrepo.com, Generator: SVG Repo Mixer Tools -->
<svg height="800px" width="800px" version="1.1" id="Layer_1" xmlns="http://www.w3.org/2000/svg" xmlns:xlink="http://www.w3.org/1999/xlink" 
	 viewBox="0 0 512 512" xml:space="preserve">
<path style="fill:#EBB45F;" d="M240.172,261.086c-48.737,0-73.841-28.258-86.345-52.629c-5.422-10.56-4.948-22.948,1.267-33.121
	c6.285-10.293,17.225-16.439,29.263-16.439h143.612c12.034,0,22.974,6.146,29.259,16.431c6.22,10.182,6.694,22.569,1.271,33.129
	c-13.117,25.569-40.168,55.518-94.159,52.405l-16.841,0.018C245,261.017,242.556,261.086,240.172,261.086z M184.358,176.552
	c-5.836,0-11.143,2.983-14.194,7.982c-3.03,4.957-3.258,10.741-0.629,15.862c15.608,30.414,41.625,44.853,77.479,42.845
	l17.814-0.017c36.294,2.017,62.358-12.405,77.965-42.819c2.629-5.129,2.401-10.914-0.629-15.871c-3.052-5-8.358-7.982-14.194-7.982
	L184.358,176.552L184.358,176.552z"/>
<path style="fill:#D7DEED;" d="M485.517,52.966H26.483C11.857,52.966,0,64.822,0,79.448v353.103
	c0,14.626,11.857,26.483,26.483,26.483h459.034c14.626,0,26.483-11.857,26.483-26.483V79.448
	C512,64.822,500.143,52.966,485.517,52.966z M494.345,432.552c0,4.875-3.953,8.828-8.828,8.828H26.483
	c-4.875,0-8.828-3.953-8.828-8.828V114.759c0-4.875,3.953-8.828,8.828-8.828h459.034c4.875,0,8.828,3.953,8.828,8.828V432.552z"/>
<circle style="fill:#FF6464;" cx="26.483" cy="79.448" r="8.828"/>
<circle style="fill:#FFE182;" cx="52.966" cy="79.448" r="8.828"/>
<circle style="fill:#A5D76E;" cx="79.448" cy="79.448" r="8.828"/>
<g>
	<path style="fill:#EFF2FA;" d="M123.586,88.276h-8.828c-4.875,0-8.828-3.953-8.828-8.828l0,0c0-4.875,3.953-8.828,8.828-8.828
		h8.828c4.875,0,8.828,3.953,8.828,8.828l0,0C132.414,84.323,128.461,88.276,123.586,88.276z"/>
	<path style="fill:#EFF2FA;" d="M158.897,88.276h-8.828c-4.875,0-8.828-3.953-8.828-8.828l0,0c0-4.875,3.953-8.828,8.828-8.828
		h8.828c4.875,0,8.828,3.953,8.828,8.828l0,0C167.724,84.323,163.772,88.276,158.897,88.276z"/>
	<path style="fill:#EFF2FA;" d="M450.207,88.276h-8.828c-4.875,0-8.828-3.953-8.828-8.828l0,0c0-4.875,3.953-8.828,8.828-8.828
		h8.828c4.875,0,8.828,3.953,8.828,8.828l0,0C459.034,84.323,455.082,88.276,450.207,88.276z"/>
	<path style="fill:#EFF2FA;" d="M485.517,88.276h-8.828c-4.875,0-8.828-3.953-8.828-8.828l0,0c0-4.875,3.953-8.828,8.828-8.828
		h8.828c4.875,0,8.828,3.953,8.828,8.828l0,0C494.345,84.323,490.392,88.276,485.517,88.276z"/>
	<path style="fill:#EFF2FA;" d="M406.069,88.276H194.207c-4.875,0-8.828-3.953-8.828-8.828l0,0c0-4.875,3.953-8.828,8.828-8.828
		h211.862c4.875,0,8.828,3.953,8.828,8.828l0,0C414.897,84.323,410.944,88.276,406.069,88.276z"/>
</g>
<path style="fill:#AA6455;" d="M300.138,414.897h-88.276c-4.875,0-8.828-3.953-8.828-8.828v-17.655c0-4.875,3.953-8.828,8.828-8.828
	h88.276c4.875,0,8.828,3.953,8.828,8.828v17.655C308.966,410.944,305.013,414.897,300.138,414.897z"/>
<path style="fill:#9B5A50;" d="M238.345,406.069v-17.655c0-4.875,3.953-8.828,8.828-8.828h-35.31c-4.875,0-8.828,3.953-8.828,8.828
	v17.655c0,4.875,3.953,8.828,8.828,8.828h35.31C242.297,414.897,238.345,410.944,238.345,406.069z"/>
<path style="fill:#FFD782;" d="M282.483,379.586h-52.966v-8.828c0-4.875,3.953-8.828,8.828-8.828h35.31
	c4.875,0,8.828,3.953,8.828,8.828V379.586z"/>
<g>
	<path style="fill:#FFC36E;" d="M256,361.931h-17.655c-4.875,0-8.828,3.953-8.828,8.828v8.828h17.655v-8.828
		C247.172,365.884,251.125,361.931,256,361.931z"/>
	<polygon style="fill:#FFC36E;" points="247.172,264.828 238.345,361.931 273.655,361.931 264.828,264.828 	"/>
</g>
<polygon style="fill:#EBB45F;" points="256,264.828 256,361.931 238.345,361.931 247.172,264.828 "/>
<path style="fill:#FFD782;" d="M273.655,308.966h-35.31c-4.875,0-8.828-3.953-8.828-8.828l0,0c0-4.875,3.953-8.828,8.828-8.828
	h35.31c4.875,0,8.828,3.953,8.828,8.828l0,0C282.483,305.013,278.53,308.966,273.655,308.966z"/>
<path style="fill:#FFC36E;" d="M247.172,300.138c0-4.875,3.953-8.828,8.828-8.828h-17.655c-4.875,0-8.828,3.953-8.828,8.828
	s3.953,8.828,8.828,8.828H256C251.125,308.966,247.172,305.013,247.172,300.138z"/>
<path style="fill:#FFD782;" d="M317.793,158.897H194.207c-4.875,0-8.828-3.953-8.828-8.828l0,0c0-4.875,3.953-8.828,8.828-8.828
	h123.586c4.875,0,8.828,3.953,8.828,8.828l0,0C326.621,154.944,322.668,158.897,317.793,158.897z"/>
<path style="fill:#FFC36E;" d="M229.517,150.069c0-4.875,3.953-8.828,8.828-8.828h-44.138c-4.875,0-8.828,3.953-8.828,8.828
	c0,4.875,3.953,8.828,8.828,8.828h44.138C233.47,158.897,229.517,154.944,229.517,150.069z"/>
<path style="fill:#FFD782;" d="M194.207,158.897l6.404,57.643c1.551,13.962,8.585,26.734,19.554,35.51l27.007,21.606h17.655
	l27.007-21.606c10.969-8.776,18.003-21.548,19.554-35.51l6.404-57.643H194.207z"/>
<g>
	<path style="fill:#FFC36E;" d="M240.632,216.54l-2.287-57.643h-44.138l6.404,57.643c1.551,13.961,8.585,26.735,19.554,35.51
		l27.007,21.606h10.089l-9.645-21.606C243.699,243.275,241.186,230.502,240.632,216.54z"/>
	<polygon style="fill:#FFC36E;" points="315.831,176.552 317.793,158.897 194.207,158.897 196.169,176.552 	"/>
</g>
<polygon style="fill:#EBB45F;" points="239.046,176.552 238.345,158.897 194.207,158.897 196.169,176.552 "/>
<path style="fill:#FFFFFF;" d="M303.257,186.585c-9.105-2.076-16.271-9.242-18.347-18.347c-0.157-0.685-1.064-0.685-1.22,0
	c-2.076,9.105-9.242,16.271-18.347,18.347c-0.685,0.157-0.685,1.064,0,1.22c9.105,2.076,16.271,9.242,18.347,18.347
	c0.157,0.685,1.064,0.685,1.22,0c2.076-9.105,9.242-16.271,18.347-18.347C303.943,187.65,303.943,186.742,303.257,186.585z"/>
</svg>