<!DOCTYPE svg PUBLIC "-//W3C//DTD SVG 1.1//EN" "http://www.w3.org/Graphics/SVG/1.1/DTD/svg11.dtd">
<!-- Uploaded to: SVG Repo, www.svgrepo.com, Transformed by: SVG Repo Mixer Tools -->
<svg fill="#000000" height="64px" width="64px" version="1.1" id="Layer_1" xmlns="http://www.w3.org/2000/svg" xmlns:xlink="http://www.w3.org/1999/xlink" viewBox="0 0 512 512" xml:space="preserve">
<g id="SVGRepo_bgCarrier" stroke-width="0"/>
<g id="SVGRepo_tracerCarrier" stroke-linecap="round" stroke-linejoin="round"/>
<g id="SVGRepo_iconCarrier"> <g> <g> <path d="M322.206,8.86c-66.12-17.719-135.104-8.675-194.237,25.466C5.717,104.909-36.319,261.792,34.263,384.045 C81.63,466.087,167.855,512.002,256.406,512c112.361,0,215.868-74.478,246.748-189.729 C539.813,185.461,459.04,45.525,322.206,8.86z M470.899,313.629c-26.781,99.946-116.56,164.993-214.55,164.987 c-76.993-0.006-151.983-39.932-193.167-111.266C1.805,261.043,38.359,124.623,144.665,63.246 c51.07-29.484,111.011-37.64,168.899-22.131C432.546,72.997,502.787,194.623,470.899,313.629z"/> </g> </g> <g> <g> <path d="M426.737,261.052c2.386-8.907-2.9-18.061-11.807-20.449l-45.615-12.222c-8.939-2.402-18.09,3.014-20.449,11.807 l-12.222,45.615c-2.841,10.603,5.165,21.022,16.139,21.022c7.371-0.001,14.119-4.92,16.117-12.38l1.534-5.725l19.732,35.557 c0.047,0.082,0.092,0.165,0.14,0.247c6.337,10.977-1.301,25.982-13.048,26.988h-99.584c-9.221,0-16.696,7.364-16.696,16.585 s7.476,16.696,16.696,16.696h100.172c34.985,0,61.047-42.659,41.456-76.83l-20.61-37.141l7.596,2.036 C415.185,275.24,424.35,269.96,426.737,261.052z"/> </g> </g> <g> <g> <path d="M356.631,172.869l-50.085-86.751c-0.166-0.289-0.343-0.573-0.526-0.852c-20.367-30.847-67.948-28.963-86.741,3.367 l-21.858,36.416l-2.036-7.597c-2.386-8.906-11.541-14.19-20.449-11.805c-8.907,2.388-14.192,11.543-11.805,20.45l12.223,45.615 c2.399,8.945,11.606,14.164,20.449,11.805l45.615-12.222c8.907-2.388,14.192-11.542,11.805-20.449s-11.541-14.186-20.449-11.807 l-5.725,1.534l20.927-34.865c6.92-11.662,23.401-11.765,29.946-2.384l49.791,86.241c4.616,7.995,14.831,10.718,22.807,6.111 C358.506,191.066,361.242,180.855,356.631,172.869z"/> </g> </g> <g> <g> <path d="M221.17,342.324l-31.306-31.306c-6.519-6.519-17.092-6.519-23.612,0c-6.521,6.519-6.521,17.092,0,23.612l4.584,4.584 l-41.336,0.028c-12.404,0-21.87-14.868-16.751-25.857l49.789-86.237c4.61-7.986,1.874-18.198-6.111-22.807 c-7.988-4.614-18.198-1.874-22.807,6.111l-50.087,86.752c-0.167,0.289-0.325,0.582-0.474,0.882 c-16.631,33.264,9.125,74.551,46.453,74.551l41.938-0.029l-5.197,5.197c-6.521,6.519-6.521,17.092,0,23.612s17.092,6.521,23.612,0 l33.393-33.393C230.368,360.915,229.797,348.52,221.17,342.324z"/> </g> </g> </g>
</svg>