<!DOCTYPE svg PUBLIC "-//W3C//DTD SVG 1.1//EN" "http://www.w3.org/Graphics/SVG/1.1/DTD/svg11.dtd">
<!-- Uploaded to: SVG Repo, www.svgrepo.com, Transformed by: SVG Repo Mixer Tools -->
<svg fill="#000000" height="64px" width="64px" version="1.1" id="Layer_1" xmlns="http://www.w3.org/2000/svg" xmlns:xlink="http://www.w3.org/1999/xlink" viewBox="0 0 509.995 509.995" xml:space="preserve">
<g id="SVGRepo_bgCarrier" stroke-width="0"/>
<g id="SVGRepo_tracerCarrier" stroke-linecap="round" stroke-linejoin="round"/>
<g id="SVGRepo_iconCarrier"> <g> <g> <g> <path d="M504.677,389.078L429.18,268.281l12.656-54.814c2.165-9.375-1.498-19.043-9.331-24.63 c-7.833-5.587-18.167-5.903-26.327-0.803l-19.525,12.204L284.677,37.078c-6.438-10.301-17.533-16.45-29.68-16.45 c-12.147,0-23.242,6.149-29.68,16.45L142.32,169.874l-54.817,12.643c-9.376,2.162-16.461,9.691-18.051,19.181 c-1.59,9.489,2.655,18.917,10.815,24.016l19.525,12.204L5.318,389.077c-6.74,10.784-7.098,24.394-0.933,35.517 c6.166,11.124,17.896,18.033,30.613,18.033h161.977l39.774,39.784c4.545,4.547,10.581,6.956,16.738,6.956 c3.057,0,6.145-0.594,9.094-1.815c8.889-3.682,14.633-12.278,14.633-21.899v-23.025h197.783c12.717,0,24.447-6.91,30.613-18.033 C511.775,413.471,511.418,399.861,504.677,389.078z M169.787,163.66l72.491-115.983c2.759-4.415,7.514-7.05,12.72-7.05 c5.206,0,9.961,2.635,12.72,7.05l107.275,171.64c1.406,2.249,3.647,3.848,6.231,4.444c2.583,0.597,5.299,0.142,7.548-1.264 l28.005-17.503c1.826-1.141,3.361-0.411,4.113,0.125c0.752,0.537,1.942,1.75,1.458,3.848l-13.588,58.85l-4.871,21.097 c-0.459,1.989-2.452,3.233-4.44,2.775l-79.952-18.44c-2.098-0.484-2.667-2.085-2.82-2.997c-0.153-0.911-0.136-2.611,1.689-3.752 l28.005-17.503c4.684-2.927,6.107-9.097,3.18-13.78l-86.075-137.72c-1.827-2.924-5.032-4.7-8.48-4.7 c-3.448,0-6.652,1.776-8.48,4.7l-51.289,82.062l-0.001,0.002c-3.601-10.643-14.294-17.327-25.44-15.9L169.787,163.66z M262.581,327.703c-8.889-3.682-19.029-1.664-25.832,5.141l-39.774,39.784H98.146l61.006-97.61l19.526,12.204 c8.16,5.1,18.494,4.785,26.327-0.803c7.833-5.587,11.496-15.255,9.331-24.63l-12.656-54.814l53.318-85.308l72.295,115.672 l-19.525,12.204c-8.16,5.1-12.405,14.526-10.815,24.017c1.59,9.489,8.675,17.018,18.05,19.18l54.817,12.643l42.029,67.247 H277.214v-23.025C277.214,339.98,271.47,331.384,262.581,327.703z M177.15,422.628h-0.004H34.998 c-5.45,0-10.478-2.961-13.12-7.729c-2.642-4.768-2.489-10.6,0.4-15.222l99.775-159.64c2.927-4.683,1.503-10.853-3.18-13.78 l-28.005-17.503c-1.826-1.141-1.842-2.841-1.689-3.752c0.153-0.912,0.722-2.513,2.82-2.997l79.951-18.44 c0.279-0.064,0.558-0.095,0.833-0.095c1.685,0,3.212,1.16,3.607,2.871l18.459,79.947c0.484,2.098-0.705,3.311-1.458,3.848 c-0.752,0.537-2.289,1.267-4.113,0.125l-28.005-17.504c-2.25-1.406-4.967-1.86-7.549-1.264c-2.584,0.597-4.826,2.195-6.231,4.444 L71.624,377.328c-1.927,3.083-2.029,6.968-0.267,10.147c1.762,3.179,5.111,5.152,8.747,5.152h97.042h0.004 C170.032,401.321,170.033,413.933,177.15,422.628z M488.118,414.899c-2.643,4.767-7.67,7.729-13.12,7.729H267.214 c-5.523,0-10,4.477-10,10v33.025c0,2.153-1.432,3.068-2.286,3.421c-0.854,0.353-2.513,0.72-4.036-0.803l-58.011-58.025 c-1.443-1.444-1.443-3.792,0-5.236l58.012-58.026c1.522-1.521,3.182-1.156,4.035-0.803c0.854,0.354,2.286,1.268,2.286,3.421 v33.025c0,5.523,4.477,10,10,10h162.677c3.635,0,6.984-1.973,8.747-5.152s1.66-7.065-0.267-10.147l-41.082-65.732l-0.006-0.008 c1.005,0.129,2.006,0.199,2.999,0.199c10.021,0,19.165-6.415,22.44-16.104l0.006,0.013l64.988,103.982 C490.606,404.299,490.759,410.132,488.118,414.899z"/> <path d="M166.589,220.271c-5.376,1.265-8.708,6.648-7.444,12.025l2.118,9c1.084,4.605,5.19,7.712,9.726,7.712 c0.758,0,1.529-0.087,2.299-0.268c5.376-1.265,8.708-6.648,7.444-12.025l-2.118-9 C177.35,222.339,171.969,219.007,166.589,220.271z"/> <path d="M153.734,207.296c1.084,4.606,5.19,7.712,9.726,7.712c0.758,0,1.529-0.087,2.299-0.268 c5.376-1.265,8.708-6.649,7.444-12.025l-0.471-2c-1.265-5.376-6.649-8.707-12.025-7.444c-5.376,1.265-8.708,6.649-7.444,12.025 L153.734,207.296z"/> </g> </g> </g> </g>
</svg>