<svg height="90px" width="90px" version="1.1" id="Layer_1" xmlns="http://www.w3.org/2000/svg" xmlns:xlink="http://www.w3.org/1999/xlink" viewBox="0 0 512 512" xml:space="preserve" fill="#000000">
                                            <g id="SVGRepo_bgCarrier" stroke-width="0"></g>
                                            <g id="SVGRepo_tracerCarrier" stroke-linecap="round" stroke-linejoin="round"></g>
                                            <g id="SVGRepo_iconCarrier">
                                                <g>
                                                    <path style="fill: #ecf0f1;" d="M256,225.627c-4.799,0-8.678-3.888-8.678-8.678V60.746c0-4.79,3.879-8.678,8.678-8.678 s8.678,3.888,8.678,8.678v156.203C264.678,221.739,260.799,225.627,256,225.627"></path>
                                                    <path style="fill: #d1d4d1;" d="M256,69.424c-19.144,0-34.712-15.568-34.712-34.712S236.856,0,256,0s34.712,15.568,34.712,34.712 S275.144,69.424,256,69.424"></path>
                                                    <path style="fill: #556080;" d="M351.458,512H160.542c-33.549,0-60.746-27.197-60.746-60.746V277.695 c0-33.549,27.197-60.746,60.746-60.746h190.915c33.549,0,60.746,27.197,60.746,60.746v173.559 C412.203,484.803,385.007,512,351.458,512"></path>
                                                    <g>
                                                        <polygon style="fill: #f0c419;" points="186.576,433.898 134.508,399.186 186.576,364.475 "></polygon>
                                                        <polygon style="fill: #f0c419;" points="221.288,433.898 273.356,399.186 221.288,364.475 "></polygon>
                                                        <polygon style="fill: #f0c419;" points="377.492,416.542 342.78,468.61 308.068,416.542 "></polygon>
                                                        <polygon style="fill: #f0c419;" points="377.492,381.831 342.78,329.763 308.068,381.831 "></polygon>
                                                        <path style="fill: #f0c419;" d="M238.644,312.407H169.22c-14.379,0-26.034-11.655-26.034-26.034s11.655-26.034,26.034-26.034 h69.424c14.379,0,26.034,11.654,26.034,26.034S253.023,312.407,238.644,312.407"></path>
                                                        <path style="fill: #f0c419;" d="M360.136,295.051h-52.068c-4.799,0-8.678-3.888-8.678-8.678c0-4.79,3.879-8.678,8.678-8.678h52.068 c4.799,0,8.678,3.888,8.678,8.678C368.814,291.163,364.935,295.051,360.136,295.051"></path>
                                                    </g>
                                                    <polygon style="fill: #bf9a22;" points="195.254,312.409 212.61,312.409 212.61,260.342 195.254,260.342 "></polygon>
                                                </g>
                                            </g>
                                        </svg>