<svg xmlns="http://www.w3.org/2000/svg" viewBox="0 0 24 24"><g fill="#919191"><path fill="none" d="M0 0h24v24H0V0z"/><path fill-opacity=".3" fill-rule="evenodd" d="M8.3 3.05C9.24 3 9.55 3 12 3c2.44 0 2.75 0 3.7.05 1.47.07 2.76.43 3.8 1.46 1.02 1.04 1.38 2.33 1.45 3.8.04.95.05 1.26.05 3.7 0 2.44 0 2.75-.05 3.7-.07 1.47-.43 2.76-1.46 3.8-1.04 1.02-2.33 1.38-3.8 1.45-.95.04-1.26.05-3.7.05-2.44 0-2.75 0-3.7-.05-1.47-.07-2.76-.43-3.8-1.46-1.02-1.04-1.38-2.33-1.45-3.8C3 14.76 3 14.45 3 12c0-2.44 0-2.75.05-3.7.07-1.47.43-2.76 1.46-3.8 1.04-1 2.33-1.37 3.79-1.44zm7.34 1.62c-.95-.04-1.24-.05-3.64-.05-2.4 0-2.7 0-3.64.05-1.02.05-1.97.26-2.7 1-.73.72-.94 1.67-1 2.7-.03.94-.04 1.23-.04 3.63s0 2.7.05 3.64c.05 1.02.26 1.97 1 2.7.72.73 1.67.94 2.7 1 .94.03 1.23.04 3.63.04s2.7 0 3.64-.05c1.02-.05 1.97-.26 2.7-1 .73-.72.94-1.67 1-2.7.03-.94.04-1.23.04-3.63s0-2.7-.05-3.64c-.05-1.02-.26-1.97-1-2.7-.72-.73-1.67-.94-2.7-1z"/><path fill-rule="evenodd" d="M8 12c0-2.2 1.8-4 4-4s4 1.8 4 4-1.8 4-4 4-4-1.8-4-4zm1.4 0c0 1.43 1.17 2.6 2.6 2.6 1.43 0 2.6-1.17 2.6-2.6 0-1.43-1.17-2.6-2.6-2.6-1.43 0-2.6 1.17-2.6 2.6z"/><path d="M17 8c.55 0 1-.45 1-1s-.45-1-1-1-1 .45-1 1 .45 1 1 1z"/></g></svg>