<svg height="90px" width="90px" version="1.1" id="Layer_1" xmlns="http://www.w3.org/2000/svg" xmlns:xlink="http://www.w3.org/1999/xlink" viewBox="0 0 512 512" xml:space="preserve" fill="#000000">
                                            <g id="SVGRepo_bgCarrier" stroke-width="0"></g>
                                            <g id="SVGRepo_tracerCarrier" stroke-linecap="round" stroke-linejoin="round"></g>
                                            <g id="SVGRepo_iconCarrier">
                                                <path style="fill: #ffd15c;" d="M260.36,240.033c-62.686,0-113.683-50.998-113.683-113.683S197.674,12.665,260.36,12.665 s113.683,50.998,113.683,113.683S323.046,240.033,260.36,240.033z"></path>
                                                <g>
                                                    <path style="fill: #f8b64c;" d="M260.36,12.665v227.367c62.686,0,113.683-50.998,113.683-113.683S323.046,12.665,260.36,12.665z"></path>
                                                    <path style="fill: #f8b64c;" d="M260.36,188.458c-34.246,0-62.108-27.862-62.108-62.108S226.114,64.24,260.36,64.24 s62.107,27.862,62.107,62.108S294.606,188.458,260.36,188.458z"></path>
                                                </g>
                                                <path style="fill: #f59d00;" d="M260.36,64.24v124.217c34.246,0,62.107-27.862,62.107-62.108S294.606,64.24,260.36,64.24z"></path>
                                                <path style="fill: #ffd15c;" d="M122.565,279.919h169.288c30.772,0,55.529,25.314,54.686,56.229 c-0.457,16.668-8.682,31.568-21.158,41.327h20.25l76.753-64.403c23.574-19.782,58.816-16.3,78.034,7.924 c18.235,22.982,14.531,57.233-8.253,76.349l-100.964,84.714c-9.588,8.044-21.762,12.475-34.277,12.475H202.878 c-12.515,0-24.688-4.43-34.276-12.475l-59.184-49.654c-4.632-3.886-7.307-9.623-7.307-15.67V300.373 C102.11,289.077,111.268,279.919,122.565,279.919z"></path>
                                                <g>
                                                    <path style="fill: #f8b64c;" d="M500.419,320.996c-19.218-24.223-54.461-27.705-78.034-7.924l-76.753,64.403h-20.249 c12.476-9.759,20.701-24.659,21.158-41.327c0.843-30.916-23.915-56.229-54.686-56.229H260.36v214.615h96.564 c12.515,0,24.689-4.431,34.277-12.475l100.964-84.714C514.95,378.229,518.654,343.978,500.419,320.996z"></path>
                                                    <path style="fill: #f8b64c;" d="M233.301,356.588c0-11.296,9.158-20.454,20.454-20.454h92.784c0,0.005,0,0.009,0,0.014 c-0.451,16.43-8.457,31.132-20.635,40.896h-72.149C242.458,377.044,233.301,367.886,233.301,356.588z"></path>
                                                </g>
                                                <path style="fill: #169ed9;" d="M20.454,248.022h102.11c11.296,0,20.454,9.158,20.454,20.454v210.405 c0,11.296-9.158,20.454-20.454,20.454H20.454C9.158,499.336,0,490.178,0,478.881V268.476C0,257.18,9.158,248.022,20.454,248.022z"></path>
                                                <path style="fill: #f59d00;" d="M260.36,336.134v40.909h65.544c12.178-9.763,20.185-24.466,20.635-40.895c0-0.005,0-0.009,0-0.014 H260.36V336.134z"></path>
                                            </g>
                                        </svg>