<svg version="1.0" xmlns="http://www.w3.org/2000/svg"
 width="512.000000pt" height="512.000000pt" viewBox="0 0 512.000000 512.000000"
 preserveAspectRatio="xMidYMid meet">
<style>
    .has-cr {
        fill: #ffad0a;
    }
</style>
<g transform="translate(0.000000,512.000000) scale(0.100000,-0.100000)"
fill="#000000" stroke="none">
<path d="M2370 5113 c-559 -53 -1006 -230 -1417 -562 -514 -413 -842 -1000
-934 -1671 -18 -125 -18 -515 0 -640 80 -582 327 -1083 732 -1489 729 -728
1808 -948 2769 -564 475 190 895 536 1186 979 283 429 431 961 411 1479 -21
540 -187 1008 -523 1473 l-16 22 86 0 c97 0 135 13 154 55 25 55 11 105 -38
130 -23 12 -72 15 -244 15 l-216 0 -32 -29 -33 -29 0 -230 c0 -230 0 -230 24
-256 29 -31 80 -42 112 -26 46 24 59 50 59 125 l1 70 29 -35 c42 -50 173 -271
216 -365 96 -209 166 -443 200 -670 14 -88 18 -178 18 -335 0 -244 -15 -371
-69 -585 -104 -408 -315 -775 -620 -1080 -305 -306 -671 -516 -1080 -620 -213
-54 -341 -69 -585 -69 -237 0 -355 13 -565 64 -421 103 -834 341 -1130 651
-349 365 -563 800 -641 1299 -25 161 -25 519 0 680 20 133 72 341 111 450 271
751 910 1323 1679 1505 231 55 480 72 794 55 l94 -5 29 33 c42 47 35 113 -17
147 -40 26 -379 44 -544 28z"/>
<path d="M3188 4991 c-27 -24 -33 -36 -33 -69 0 -50 33 -89 81 -98 93 -17 153
99 85 167 -40 40 -89 40 -133 0z"/>
<path d="M2338 4456 c-263 -34 -520 -119 -728 -241 -91 -53 -110 -75 -110
-123 0 -44 14 -68 50 -87 40 -21 58 -19 110 10 208 116 381 184 580 226 141
31 475 34 615 6 458 -91 836 -333 1099 -701 226 -317 342 -736 308 -1117 -13
-142 -50 -322 -89 -434 -40 -115 -149 -323 -221 -425 -86 -122 -281 -316 -401
-401 -408 -287 -920 -385 -1396 -268 -895 221 -1450 1103 -1265 2010 37 180
114 379 205 528 44 73 45 109 6 153 -24 27 -36 33 -70 32 -52 -2 -69 -17 -125
-113 -193 -329 -284 -750 -245 -1132 46 -462 244 -870 576 -1190 288 -276 607
-438 1009 -510 174 -31 449 -31 629 0 417 73 767 258 1056 558 277 288 440
612 510 1009 32 182 32 446 0 628 -70 397 -233 721 -510 1009 -286 297 -646
488 -1051 558 -150 26 -400 33 -542 15z"/>
<path d="M2504 4062 c-36 -28 -44 -57 -44 -147 0 -86 1 -88 34 -121 38 -38 70
-43 116 -19 43 22 50 43 50 150 0 93 -1 98 -29 126 -35 34 -93 39 -127 11z"/>
<path d="M1214 3906 c-37 -37 -43 -70 -20 -115 15 -28 53 -51 86 -51 51 0 100
49 100 99 0 34 -23 72 -51 87 -45 23 -78 17 -115 -20z"/>
<path class="has-cr" d="M3435 3564 c-16 -8 -184 -168 -371 -356 l-342 -341 -48 17 c-61 21
-167 21 -228 0 l-48 -17 -172 171 c-94 93 -181 175 -193 181 -85 43 -175 -47
-132 -132 6 -12 88 -99 181 -193 l171 -172 -17 -48 c-42 -124 -10 -262 83
-355 97 -97 237 -126 368 -77 79 29 162 112 191 191 27 70 29 173 6 241 l-17
48 350 351 c232 233 353 361 357 379 10 43 -17 96 -58 113 -43 18 -44 18 -81
-1z m-798 -884 c87 -52 83 -198 -6 -245 -98 -50 -211 16 -211 123 0 85 56 142
140 142 27 0 58 -8 77 -20z"/>
<path d="M1069 2631 c-38 -39 -40 -96 -5 -134 31 -34 58 -40 157 -35 77 3 82
5 110 36 32 36 36 69 14 112 -22 43 -43 50 -150 50 -93 0 -98 -1 -126 -29z"/>
<path d="M3793 2625 c-32 -32 -35 -39 -30 -78 4 -28 14 -49 32 -64 23 -21 37
-23 126 -23 98 0 101 1 130 29 49 49 35 128 -28 160 -12 6 -61 11 -108 11 -86
0 -87 0 -122 -35z"/>
<path d="M2514 1350 c-43 -17 -54 -48 -54 -153 0 -96 1 -99 29 -128 49 -49
128 -35 160 28 6 12 11 61 11 108 0 86 -1 88 -34 121 -35 35 -68 42 -112 24z"/>
</g>
</svg>
