<svg width="171" height="30" viewBox="0 0 171 30" fill="none" xmlns="http://www.w3.org/2000/svg">
<g clip-path="url(#clip0_464_373)">
<path fill-rule="evenodd" clip-rule="evenodd" d="M57.0437 11.9664C57.0058 12.0925 56.9187 12.1964 56.8035 12.2532C56.6882 12.3099 56.5554 12.3143 56.4369 12.2652C55.6551 11.9389 54.8231 11.7603 53.9803 11.7381C52.5785 11.7381 51.2545 12.1746 51.2545 13.6285C51.2545 14.4142 51.6763 14.8205 53.0263 15.2571L53.9998 15.5761C55.9663 16.214 56.8101 17.1442 56.8101 18.9339C56.8101 22.0432 54.704 24.1653 50.8845 24.1653C49.5685 24.1794 48.2597 23.9638 47.0131 23.5274C46.7502 23.4277 46.6079 23.1332 46.6886 22.8558L47.1364 21.244C47.1754 21.1175 47.2643 21.0138 47.3811 20.9588C47.498 20.9038 47.6319 20.9025 47.7497 20.9553C48.7124 21.3769 49.7423 21.6102 50.7872 21.6436C52.5006 21.6436 53.7077 21.0325 53.7077 19.6088C53.7077 18.766 53.1463 18.447 51.8808 18.0407L50.8131 17.7049C48.931 17.0669 48.0872 15.9018 48.0872 14.0449C48.0872 10.8785 50.6444 9.16602 54.0128 9.16602C55.0816 9.18651 56.1407 9.38143 57.1508 9.74356C57.4161 9.84051 57.5595 10.1373 57.4753 10.4151L57.0437 11.9664Z" fill="#7B7D7F"/>
<path fill-rule="evenodd" clip-rule="evenodd" d="M63.8723 3.34404C64 3.34357 64.1212 3.40088 64.2024 3.50014C64.2836 3.59941 64.3162 3.73014 64.2913 3.85626L62.1732 14.874C64.1635 13.4048 65.9367 11.6588 67.4401 9.68818C67.6364 9.43198 67.9399 9.28228 68.2613 9.2831H70.5656C70.6671 9.28493 70.7592 9.34339 70.8045 9.4348C70.8499 9.52622 70.8411 9.63546 70.7817 9.71832C69.3215 11.8242 67.6195 13.7491 65.711 15.4532L68.6271 22.8485C68.6704 22.9586 68.6563 23.0832 68.5895 23.1806C68.5228 23.2781 68.4121 23.3356 68.2946 23.334H65.8474C65.5372 23.3326 65.2604 23.1379 65.1524 22.8452L63.1574 17.338C62.5523 17.7431 61.977 18.0913 61.4949 18.3424L60.6437 22.8151C60.5868 23.1106 60.3309 23.3248 60.0319 23.3273H57.9272C57.7994 23.3278 57.6783 23.2704 57.5971 23.1712C57.5159 23.0719 57.4833 22.9412 57.5082 22.8151L61.1657 3.84621C61.2217 3.54872 61.4801 3.33353 61.7809 3.33399L63.8723 3.34404Z" fill="#7B7D7F"/>
<path fill-rule="evenodd" clip-rule="evenodd" d="M74.5238 9.1729C74.6517 9.17242 74.773 9.23129 74.8543 9.33328C74.9356 9.43526 74.9682 9.56957 74.9432 9.69915L73.5152 17.2936C73.375 17.9387 73.2981 18.5966 73.2855 19.2576C73.2855 20.1484 73.7748 20.7469 74.9266 20.7469C76.2038 20.7114 77.424 20.1924 78.3552 19.2886L80.1861 9.69227C80.2445 9.3881 80.5018 9.16824 80.8019 9.16602H82.909C83.0363 9.16657 83.1567 9.22588 83.2372 9.32773C83.3177 9.42957 83.35 9.56329 83.3251 9.69227L81.4344 19.7013C81.2047 20.8604 80.945 22.1709 80.7154 23.2131C79.6202 27.9149 77.5464 29.9993 73.392 29.9993C72.5103 30.001 71.6321 29.8854 70.7789 29.6553C70.487 29.576 70.3087 29.2715 70.3762 28.9674L70.7357 27.4472C70.7984 27.1681 71.068 26.9941 71.3382 27.0585C71.9638 27.2175 72.6047 27.3029 73.2489 27.313C75.6989 27.313 77.1369 26.2433 77.6562 23.3266L77.8593 22.2225C76.6975 23.2341 75.234 23.8013 73.7149 23.8288C71.2949 23.8288 70 22.5802 70 20.5853C70.046 19.2825 70.2099 17.987 70.4893 16.7158L71.8009 9.70946C71.8581 9.40457 72.1161 9.1841 72.4167 9.18321L74.5238 9.1729Z" fill="#7B7D7F"/>
<path fill-rule="evenodd" clip-rule="evenodd" d="M92.8754 11.9664C92.8375 12.0925 92.7505 12.1964 92.6353 12.2532C92.5202 12.3099 92.3873 12.3143 92.2689 12.2652C91.4876 11.9388 90.656 11.7602 89.8137 11.7381C88.4125 11.7381 87.0925 12.1746 87.0925 13.6285C87.0925 14.4142 87.5109 14.8205 88.8601 15.257L89.8331 15.576C91.7986 16.214 92.6387 17.1441 92.6387 18.9338C92.6387 22.0432 90.5337 24.1653 86.7162 24.1653C85.4009 24.1798 84.0927 23.9641 82.8469 23.5273C82.5841 23.4276 82.4419 23.1332 82.5225 22.8558L82.9734 21.244C83.0123 21.1174 83.1012 21.0138 83.218 20.9588C83.3348 20.9038 83.4686 20.9025 83.5864 20.9552C84.5484 21.3774 85.5778 21.6108 86.6222 21.6436C88.3347 21.6436 89.5412 21.0325 89.5412 19.6088C89.5412 18.766 88.9801 18.447 87.7184 18.0407L86.6481 17.7049C84.7702 17.0669 83.9269 15.9017 83.9269 14.0449C83.9269 10.8785 86.4795 9.16602 89.8493 9.16602C90.9176 9.18657 91.9761 9.38148 92.9857 9.74356C93.2496 9.8419 93.3924 10.1375 93.3101 10.4151L92.8754 11.9664Z" fill="#7B7D7F"/>
<path fill-rule="evenodd" clip-rule="evenodd" d="M105.316 12.3161C105.28 12.4376 105.195 12.5369 105.082 12.5879C104.969 12.6388 104.84 12.6362 104.73 12.5808C103.932 12.2118 103.067 12.0255 102.193 12.0347C99.2069 12.0347 97.4029 14.6746 97.4029 18.0347C97.4322 20.0448 98.1356 21.3848 100.333 21.3848C101.324 21.3936 102.308 21.2235 103.241 20.8823C103.345 20.8408 103.462 20.8568 103.552 20.9247C103.642 20.9926 103.692 21.103 103.684 21.2173L103.492 22.8924C103.457 23.2191 103.243 23.4963 102.942 23.606C101.85 23.9886 100.702 24.1778 99.5488 24.1654C95.8854 24.1654 94.166 22.0214 94.166 18.4703C94.166 13.4451 96.9274 9.16707 102.225 9.16707C103.342 9.14887 104.45 9.36547 105.482 9.80358C105.753 9.92992 105.893 10.2433 105.807 10.5372L105.316 12.3161Z" fill="#7B7D7F"/>
<path fill-rule="evenodd" clip-rule="evenodd" d="M108.279 9.97669C107.988 10.0803 107.791 10.3582 107.785 10.6734L107.749 12.1809C107.75 12.2951 107.803 12.4021 107.894 12.4685C107.985 12.5349 108.101 12.5525 108.207 12.5159C109.423 12.0728 110.699 11.8286 111.989 11.7923C113.77 11.7923 114.336 12.3082 114.336 13.4672C114.324 13.8671 114.277 14.2651 114.195 14.6564H113.43C107.615 14.6564 105 17.0751 105 20.4249C105 22.9173 106.556 24.1634 108.959 24.1634C110.468 24.2108 111.927 23.6025 112.976 22.4885H113.061C113.146 23.5537 113.767 24.1634 115.042 24.1634C115.382 24.1604 115.722 24.1222 116.055 24.0495C116.372 23.9725 116.614 23.7089 116.67 23.3795L116.836 22.5454C116.859 22.2805 116.707 22.0327 116.464 21.9391C116.088 21.7448 116.003 21.2457 116.173 20.3546L117.274 14.4119C117.409 13.8023 117.484 13.1807 117.5 12.5561C117.5 10.0336 115.66 9.16602 112.832 9.16602C111.283 9.19821 109.748 9.47156 108.279 9.97669ZM108.249 19.9795C108.249 17.8624 110.345 16.9077 113.201 16.9077H113.764L113.143 20.0666C112.314 20.9368 111.19 21.4456 110.005 21.487C108.789 21.487 108.249 20.9074 108.249 19.9795Z" fill="#7B7D7F"/>
<path fill-rule="evenodd" clip-rule="evenodd" d="M123.281 8.81149C123.419 8.8068 123.552 8.86305 123.646 8.9658C123.741 9.06856 123.787 9.20782 123.773 9.34782L123.678 10.3686H123.705C125.124 9.11528 126.922 8.39695 128.799 8.33398C131.034 8.33398 132.501 9.64886 132.501 11.7458C132.484 12.692 132.376 13.6342 132.178 14.5589L130.633 22.8046C130.574 23.1106 130.311 23.3318 130.005 23.334H127.848C127.719 23.3335 127.596 23.2738 127.514 23.1713C127.431 23.0689 127.398 22.9344 127.424 22.8046L128.85 15.2786C128.997 14.5886 129.085 13.8871 129.115 13.1818C129.115 12.0745 128.528 11.507 127.291 11.507C125.933 11.507 124.412 12.2233 123.325 13.2717L121.542 22.8046C121.485 23.1108 121.223 23.3328 120.917 23.334H118.771C118.64 23.3345 118.516 23.2753 118.433 23.1727C118.351 23.0701 118.317 22.9349 118.343 22.8046L120.876 9.3409C120.933 9.03471 121.195 8.81267 121.501 8.81149H123.281Z" fill="#7B7D7F"/>
<path fill-rule="evenodd" clip-rule="evenodd" d="M137.471 8.81149C137.607 8.81188 137.735 8.8702 137.826 8.97221C137.917 9.07421 137.962 9.21051 137.95 9.34782L137.851 10.3686H137.882C139.298 9.11504 141.094 8.39667 142.968 8.33398C145.199 8.33398 146.667 9.64886 146.667 11.7458C146.643 12.6925 146.53 13.6346 146.328 14.5589L144.802 22.8046C144.744 23.1113 144.481 23.3331 144.175 23.334H142.028C141.899 23.3332 141.776 23.2737 141.693 23.1714C141.611 23.0691 141.577 22.9348 141.601 22.8046L143.029 15.2786C143.174 14.5885 143.263 13.8871 143.293 13.1818C143.293 12.0745 142.706 11.507 141.472 11.507C140.116 11.507 138.597 12.2233 137.512 13.2717L135.735 22.8046C135.677 23.1113 135.414 23.3331 135.108 23.334H132.935C132.805 23.3332 132.682 23.2737 132.6 23.1714C132.517 23.0691 132.483 22.9348 132.508 22.8046L135.04 9.3409C135.097 9.03343 135.361 8.81101 135.668 8.81149H137.471Z" fill="#7B7D7F"/>
<path fill-rule="evenodd" clip-rule="evenodd" d="M150.777 19.2968C150.709 18.8744 150.699 18.4443 150.747 18.0191L159.012 18.0157C159.302 18.0233 159.557 17.82 159.622 17.5295C159.861 16.3433 159.988 15.1359 160 13.9245C160 11.0775 158.549 9.16602 155.289 9.16602C153.496 9.16602 152.045 9.59861 150.887 10.4403C148.573 12.0936 147.5 15.2123 147.5 18.5657C147.5 22.4557 149.391 24.166 153.284 24.166C154.672 24.1674 156.051 23.934 157.366 23.4752C157.655 23.3641 157.857 23.0935 157.887 22.7777L158.076 21.1713C158.081 21.0619 158.034 20.9568 157.95 20.89C157.865 20.8232 157.754 20.803 157.653 20.836C156.439 21.2217 155.176 21.4173 153.906 21.4161C152.104 21.4161 151.031 20.7186 150.777 19.2968ZM156.88 14.0486C156.873 14.615 156.798 15.1783 156.655 15.7253L151.07 15.732C151.52 13.3813 152.791 11.8152 154.878 11.8152C156.316 11.8152 156.88 12.7441 156.88 14.0486Z" fill="#7B7D7F"/>
<path fill-rule="evenodd" clip-rule="evenodd" d="M165.553 9.47958C165.685 9.48018 165.811 9.53551 165.901 9.63243C165.99 9.72935 166.036 9.85922 166.027 9.9912L165.961 11.1068H166.017C167.013 9.89109 168.494 9.1803 170.063 9.16602C170.224 9.16602 170.359 9.16602 170.478 9.16602C170.603 9.18465 170.713 9.25934 170.777 9.36907C170.841 9.47879 170.852 9.61171 170.807 9.73044L170.241 11.5887C170.138 11.8814 169.865 12.0791 169.556 12.0838C168.219 12.1107 166.916 12.5046 165.787 13.2226L163.947 22.8276C163.89 23.1202 163.635 23.3318 163.338 23.3327H161.257C161.131 23.3331 161.011 23.2766 160.93 23.1787C160.85 23.0809 160.818 22.952 160.842 22.8276L163.298 9.98459C163.354 9.69321 163.608 9.482 163.904 9.47958H165.553Z" fill="#7B7D7F"/>
<path fill-rule="evenodd" clip-rule="evenodd" d="M13.9677 26.6158C13.9688 14.3785 23.1329 4.16694 35.0872 3.08227C32.3468 0.249981 28.257 -0.730466 24.5659 0.560002C20.8748 1.85047 18.2355 5.18352 17.7762 9.13451C16.8654 8.54012 15.8081 8.22116 14.7268 8.21463C11.5542 8.21463 8.66789 11.4665 9.03076 14.8032C6.85731 13.6427 4.21597 13.9057 2.30385 15.4732C0.391731 17.0406 -0.42765 19.6144 0.217065 22.0281C0.86178 24.4418 2.84802 26.2365 5.27559 26.5988C5.51295 26.6418 5.75358 26.6634 5.99466 26.6633H13.9644V26.6056L13.9677 26.6158ZM23.0361 12.2234C26.779 8.40081 31.8637 6.26002 37.1612 6.27642H37.2012C37.6648 7.38885 37.933 8.57572 37.9935 9.78285C37.7227 9.76927 37.4509 9.76248 37.1779 9.76248H37.1346C28.0123 9.76435 20.6177 17.3042 20.6159 26.6056V26.6667H17.2003C17.1751 21.2507 19.2766 16.0496 23.0361 12.2234ZM43.2967 18.8933C43.32 18.6184 43.3333 18.3434 43.3333 18.0617C43.3364 16.7685 43.0506 15.4916 42.4977 14.3279C38.4169 12.4764 33.6936 12.8618 29.9536 15.3516C26.2136 17.8413 23.9674 22.0954 23.9882 26.6496H27.4204C27.3761 21.209 31.6591 16.7584 36.9948 16.7006H37.3277C39.5022 16.7284 41.6044 17.5007 43.2967 18.8933ZM37.3277 19.9084C39.022 19.9396 40.6382 20.6406 41.8352 21.8636C41.9383 21.9687 42.0354 22.0769 42.1315 22.1841C42.1782 22.236 42.2246 22.2878 42.2713 22.3388C41.6969 23.4056 40.9017 24.3322 39.941 25.0543C39.8017 24.789 39.6257 24.5455 39.4183 24.3313C38.1603 23.102 36.1755 23.102 34.9175 24.3313C34.2916 24.9661 34.0919 25.5397 33.8755 26.6633H30.5797C30.5388 22.9986 33.4012 19.9845 36.9948 19.9084H37.3277Z" fill="#7B7D7F"/>
</g>
<defs>
<clipPath id="clip0_464_373">
<rect width="171" height="30" fill="white"/>
</clipPath>
</defs>
</svg>
