<?xml version="1.0" standalone="no"?>
<!DOCTYPE svg PUBLIC "-//W3C//DTD SVG 20010904//EN"
 "http://www.w3.org/TR/2001/REC-SVG-20010904/DTD/svg10.dtd">
<svg version="1.0" xmlns="http://www.w3.org/2000/svg"
 width="261.000000pt" height="225.000000pt" viewBox="0 0 261.000000 225.000000"
 preserveAspectRatio="xMidYMid meet">
<metadata>
Created by potrace 1.16, written by Peter Selinger 2001-2019
</metadata>
<g transform="translate(0.000000,225.000000) scale(0.100000,-0.100000)"
fill="#000000" stroke="none">
<path d="M1645 2050 c-4 -6 -17 -55 -30 -110 -63 -257 -158 -351 -417 -410
-160 -37 -157 -60 14 -102 252 -62 336 -145 399 -396 16 -64 34 -121 40 -127
22 -22 42 12 65 113 42 188 116 298 239 357 33 15 108 40 167 54 59 15 112 31
118 37 24 24 -3 41 -98 62 -111 26 -196 59 -253 98 -78 54 -140 169 -175 323
-8 36 -17 76 -19 89 -6 23 -38 31 -50 12z"/>
<path d="M2054 1896 c-7 -29 -35 -56 -72 -72 l-27 -11 35 -15 c40 -17 54 -32
67 -73 l9 -29 20 39 c12 26 32 46 57 58 l37 19 -42 21 c-32 16 -45 30 -52 55
-11 38 -23 41 -32 8z"/>
<path d="M704 1819 c-85 -11 -152 -59 -197 -143 -22 -41 -22 -41 -22 -631 0
-589 0 -590 22 -631 29 -54 101 -117 151 -132 56 -17 1148 -17 1204 0 50 15
122 78 151 132 21 40 22 51 25 412 3 331 1 373 -13 388 -20 19 -58 21 -73 3
-8 -9 -12 -134 -14 -378 l-3 -366 -28 -36 c-53 -70 -25 -67 -647 -67 -622 0
-594 -3 -647 67 l-28 36 0 573 c0 563 0 573 21 600 11 15 33 37 48 48 26 20
44 21 371 26 244 4 347 8 356 17 13 13 15 61 3 73 -11 10 -607 18 -680 9z"/>
<path d="M1091 1147 c-5 -12 -12 -38 -16 -57 -22 -105 -76 -156 -200 -190 -33
-10 -60 -23 -60 -30 0 -7 37 -25 85 -40 106 -34 140 -70 173 -179 22 -71 42
-99 51 -69 2 7 12 42 22 78 29 102 90 157 204 181 70 15 64 37 -15 58 -33 9
-75 26 -93 36 -46 27 -90 97 -104 166 -13 63 -33 83 -47 46z"/>
</g>
</svg>
