<svg xmlns="http://www.w3.org/2000/svg" xmlns:v="https://svgstorm.com"
viewBox = "0 0 162 146"
width="162"
height="146">
<g fill="None" fill-opacity="0.0" stroke="#FEFEFD" stroke-opacity="1.00" stroke-width="0.3"><path d="
M 0.00 64.00 
C 24.99 61.84 45.77 38.96 52.00 16.00
C 57.94 39.25 78.05 61.26 103.00 64.00
C 78.25 68.82 56.60 90.17 52.00 115.00
C 46.75 90.60 25.44 67.91 0.00 65.00
L 0.00 146.00
L 162.00 146.00
L 162.00 0.00
L 0.00 0.00
L 0.00 64.00
M 108.00 17.00 
C 100.48 19.79 93.79 26.58 91.00 34.00
C 89.39 26.85 83.38 19.72 76.00 18.00
C 82.25 14.34 90.14 9.07 91.00 1.00
C 94.09 7.75 99.59 16.07 108.00 17.00
M 127.00 76.00 
C 131.48 87.91 137.80 100.22 152.00 103.00
C 141.38 106.88 130.39 116.26 128.00 128.00
C 127.41 130.01 127.06 132.11 126.00 134.00
C 124.61 133.74 125.22 131.95 125.00 131.00
C 119.69 119.17 113.77 105.56 99.00 103.00
C 111.84 100.12 122.97 87.84 125.00 75.00
C 125.33 74.12 124.74 72.90 125.00 72.00
C 126.83 72.49 127.18 74.35 127.00 76.00 Z"/>
</g>
<g fill="None" fill-opacity="0.0" stroke="#FA9F3B" stroke-opacity="1.00" stroke-width="0.3"><path d="
M 108.00 17.00 
C 99.59 16.07 94.09 7.75 91.00 1.00
C 90.14 9.07 82.25 14.34 76.00 18.00
C 83.38 19.72 89.39 26.85 91.00 34.00
C 93.79 26.58 100.48 19.79 108.00 17.00 Z"/>
</g>
<g fill="None" fill-opacity="0.0" stroke="#FD9C30" stroke-opacity="1.00" stroke-width="0.3"><path d="
M 0.00 64.00 
L 0.00 65.00
C 25.44 67.91 46.75 90.60 52.00 115.00
C 56.60 90.17 78.25 68.82 103.00 64.00
C 78.05 61.26 57.94 39.25 52.00 16.00
C 45.77 38.96 24.99 61.84 0.00 64.00 Z"/>
</g>
<g fill="None" fill-opacity="0.0" stroke="#F2E0BF" stroke-opacity="1.00" stroke-width="0.3"><path d="
M 125.00 75.00 
C 125.17 75.47 126.79 75.69 127.00 76.00
C 127.18 74.35 126.83 72.49 125.00 72.00
C 124.74 72.90 125.33 74.12 125.00 75.00 Z"/>
</g>
<g fill="None" fill-opacity="0.0" stroke="#FB9D33" stroke-opacity="1.00" stroke-width="0.3"><path d="
M 125.00 131.00 
C 125.30 130.20 127.56 128.83 128.00 128.00
C 130.39 116.26 141.38 106.88 152.00 103.00
C 137.80 100.22 131.48 87.91 127.00 76.00
C 126.79 75.69 125.17 75.47 125.00 75.00
C 122.97 87.84 111.84 100.12 99.00 103.00
C 113.77 105.56 119.69 119.17 125.00 131.00 Z"/>
</g>
<g fill="None" fill-opacity="0.0" stroke="#F3D8AC" stroke-opacity="1.00" stroke-width="0.3"><path d="
M 125.00 131.00 
C 125.22 131.95 124.61 133.74 126.00 134.00
C 127.06 132.11 127.41 130.01 128.00 128.00
C 127.56 128.83 125.30 130.20 125.00 131.00 Z"/>
</g>
<g fill="#FEFEFD" fill-opacity="1.00" stroke="None">
<path d="
M 0.00 64.00 
C 24.99 61.84 45.77 38.96 52.00 16.00
C 57.94 39.25 78.05 61.26 103.00 64.00
C 78.25 68.82 56.60 90.17 52.00 115.00
C 46.75 90.60 25.44 67.91 0.00 65.00
L 0.00 146.00
L 162.00 146.00
L 162.00 0.00
L 0.00 0.00
L 0.00 64.00
M 108.00 17.00 
C 100.48 19.79 93.79 26.58 91.00 34.00
C 89.39 26.85 83.38 19.72 76.00 18.00
C 82.25 14.34 90.14 9.07 91.00 1.00
C 94.09 7.75 99.59 16.07 108.00 17.00
M 127.00 76.00 
C 131.48 87.91 137.80 100.22 152.00 103.00
C 141.38 106.88 130.39 116.26 128.00 128.00
C 127.41 130.01 127.06 132.11 126.00 134.00
C 124.61 133.74 125.22 131.95 125.00 131.00
C 119.69 119.17 113.77 105.56 99.00 103.00
C 111.84 100.12 122.97 87.84 125.00 75.00
C 125.33 74.12 124.74 72.90 125.00 72.00
C 126.83 72.49 127.18 74.35 127.00 76.00 Z"/>
</g>
<g fill="#FA9F3B" fill-opacity="1.00" stroke="None">
<path d="
M 108.00 17.00 
C 99.59 16.07 94.09 7.75 91.00 1.00
C 90.14 9.07 82.25 14.34 76.00 18.00
C 83.38 19.72 89.39 26.85 91.00 34.00
C 93.79 26.58 100.48 19.79 108.00 17.00 Z"/>
</g>
<g fill="#FD9C30" fill-opacity="1.00" stroke="None">
<path d="
M 0.00 64.00 
L 0.00 65.00
C 25.44 67.91 46.75 90.60 52.00 115.00
C 56.60 90.17 78.25 68.82 103.00 64.00
C 78.05 61.26 57.94 39.25 52.00 16.00
C 45.77 38.96 24.99 61.84 0.00 64.00 Z"/>
</g>
<g fill="#F2E0BF" fill-opacity="1.00" stroke="None">
<path d="
M 125.00 75.00 
C 125.17 75.47 126.79 75.69 127.00 76.00
C 127.18 74.35 126.83 72.49 125.00 72.00
C 124.74 72.90 125.33 74.12 125.00 75.00 Z"/>
</g>
<g fill="#FB9D33" fill-opacity="1.00" stroke="None">
<path d="
M 125.00 131.00 
C 125.30 130.20 127.56 128.83 128.00 128.00
C 130.39 116.26 141.38 106.88 152.00 103.00
C 137.80 100.22 131.48 87.91 127.00 76.00
C 126.79 75.69 125.17 75.47 125.00 75.00
C 122.97 87.84 111.84 100.12 99.00 103.00
C 113.77 105.56 119.69 119.17 125.00 131.00 Z"/>
</g>
<g fill="#F3D8AC" fill-opacity="1.00" stroke="None">
<path d="
M 125.00 131.00 
C 125.22 131.95 124.61 133.74 126.00 134.00
C 127.06 132.11 127.41 130.01 128.00 128.00
C 127.56 128.83 125.30 130.20 125.00 131.00 Z"/>
</g>
</svg>