<svg version="1.0" xmlns="http://www.w3.org/2000/svg"
 width="512.000000pt" height="512.000000pt" viewBox="0 0 512.000000 512.000000"
 preserveAspectRatio="xMidYMid meet">

<g transform="translate(0.000000,512.000000) scale(0.100000,-0.100000)"
fill="#3d358b" stroke="none">
<path d="M1552 4270 c-541 -181 -989 -334 -997 -340 -34 -29 -35 -54 -33 -902
l3 -838 33 -32 c28 -28 39 -33 82 -33 43 0 54 5 82 33 l33 32 3 740 c1 407 6
740 10 740 10 0 754 -248 759 -254 2 -2 -7 -22 -20 -43 -220 -348 -246 -807
-67 -1180 27 -57 73 -138 102 -180 73 -107 225 -256 336 -327 l91 -60 -86 -33
c-127 -49 -305 -145 -412 -221 -188 -133 -473 -442 -501 -540 -26 -96 75 -181
164 -140 14 6 61 59 104 117 476 639 1320 849 2039 505 219 -105 450 -298 605
-505 43 -58 90 -111 104 -117 89 -41 190 44 164 140 -28 98 -315 409 -500 540
-108 77 -286 172 -413 221 l-86 33 91 60 c220 143 408 386 492 637 47 143 61
230 61 397 0 248 -59 458 -182 653 -13 21 -23 40 -21 42 2 1 215 73 474 159
533 178 529 176 529 266 0 95 59 70 -1034 435 -537 179 -988 325 -1001 324
-14 0 -467 -148 -1008 -329z m1780 -172 c417 -139 758 -255 758 -258 0 -3
-343 -119 -762 -259 l-763 -254 -762 253 c-420 139 -763 256 -763 260 0 7
1494 507 1520 509 8 1 356 -113 772 -251z m-1162 -893 c206 -69 384 -125 395
-125 11 0 189 56 394 125 206 69 380 125 385 125 13 0 73 -93 114 -175 219
-445 67 -997 -350 -1269 -159 -103 -311 -153 -503 -163 -278 -14 -550 91 -751
291 -299 297 -378 766 -192 1141 45 92 101 175 118 175 8 0 184 -56 390 -125z"/>
</g>
</svg>
