<svg version="1.0" xmlns="http://www.w3.org/2000/svg"
 width="512.000000pt" height="512.000000pt" viewBox="0 0 512.000000 512.000000"
 preserveAspectRatio="xMidYMid meet">
<style>
    .has-cr {
        fill: #ffad0a;
    }
</style>
<g transform="translate(0.000000,512.000000) scale(0.100000,-0.100000)"
fill="#000000" stroke="none">
<path d="M1077 4806 c-57 -21 -103 -61 -129 -113 -18 -38 -33 -53 -71 -72 -55
-26 -102 -84 -118 -144 -7 -26 -9 -154 -7 -366 4 -303 6 -330 25 -383 62 -164
179 -279 343 -334 39 -13 84 -19 155 -19 71 0 116 6 155 19 164 55 281 170
343 334 19 53 21 80 25 383 2 212 0 340 -7 366 -17 62 -63 118 -120 144 -28
13 -50 29 -51 35 0 5 -13 31 -29 56 -55 87 -169 127 -268 95 -43 -14 -54 -14
-88 -2 -50 18 -109 18 -158 1z m142 -166 c24 -17 49 -30 56 -30 7 0 32 13 56
30 24 16 54 30 67 30 35 0 82 -52 82 -91 0 -45 34 -79 78 -79 24 0 42 -8 63
-29 28 -28 29 -34 29 -116 l0 -86 -31 23 c-127 95 -205 123 -344 123 -137 0
-241 -37 -335 -119 l-35 -30 -3 79 c-2 43 2 91 8 106 13 29 47 49 87 49 36 0
73 37 73 71 0 57 34 97 85 98 11 0 40 -13 64 -29z m208 -405 c77 -35 154 -112
190 -189 24 -52 28 -74 28 -151 0 -78 -4 -98 -28 -150 -37 -79 -114 -156 -191
-192 -52 -24 -74 -28 -151 -28 -78 0 -98 4 -150 28 -79 37 -156 114 -192 191
-24 52 -28 74 -28 151 0 78 4 98 28 150 48 103 149 188 254 215 65 16 176 5
240 -25z"/>
<path d="M3722 4406 c-143 -35 -279 -144 -345 -277 -140 -285 -3 -621 298
-730 82 -30 245 -32 325 -5 161 54 284 174 341 331 30 82 32 245 5 325 -90
267 -358 420 -624 356z m246 -156 l34 -12 -34 -35 c-40 -43 -137 -113 -198
-143 -67 -34 -178 -70 -238 -77 -54 -6 -54 -6 -47 18 37 119 132 213 260 256
46 15 172 11 223 -7z m175 -128 c9 -10 29 -44 44 -77 24 -52 28 -72 28 -150 0
-77 -4 -99 -28 -151 -36 -77 -113 -154 -192 -191 -52 -24 -73 -28 -150 -28
-77 0 -99 4 -147 27 -79 37 -152 107 -189 184 -35 71 -33 94 8 94 47 0 190 38
265 70 92 39 219 124 283 189 27 28 52 51 56 51 3 0 13 -8 22 -18z"/>
<path class="has-cr" d="M2330 4261 c-84 -27 -158 -99 -185 -181 -42 -126 15 -288 148 -422
74 -75 209 -173 252 -184 32 -8 74 14 178 92 203 153 304 358 252 514 -21 62
-80 132 -140 163 -54 29 -172 30 -233 3 -41 -19 -44 -19 -80 -1 -41 19 -153
29 -192 16z m165 -180 c47 -41 83 -41 130 0 65 57 152 47 195 -24 26 -41 25
-82 -1 -154 -18 -47 -39 -75 -113 -148 -111 -110 -135 -124 -173 -104 -16 8
-69 55 -119 104 -74 73 -95 101 -113 148 -25 69 -27 107 -6 148 39 75 133 89
200 30z"/>
<path d="M25 3745 c-28 -27 -32 -67 -15 -175 55 -344 329 -626 665 -684 l70
-12 5 -395 c6 -373 7 -397 28 -453 24 -65 52 -114 94 -166 l28 -35 0 -685 c0
-595 2 -688 15 -707 11 -15 66 -38 190 -80 166 -55 177 -57 203 -43 37 21 51
63 31 98 -12 22 -38 35 -149 73 l-135 46 -3 596 -2 596 57 -21 c83 -31 253
-31 336 0 l57 21 0 -632 c0 -548 2 -635 15 -654 11 -15 66 -38 190 -80 166
-55 177 -57 203 -43 37 21 51 63 31 98 -12 22 -38 35 -149 73 l-135 46 -3 647
-2 647 47 66 c25 36 58 95 72 132 l26 66 3 393 3 392 253 0 254 0 53 28 c34
17 65 44 84 71 28 39 30 50 30 126 0 76 -2 87 -30 126 -19 27 -50 54 -84 71
-49 26 -62 28 -165 28 -99 0 -115 -2 -134 -20 -30 -28 -30 -82 0 -110 19 -17
35 -20 123 -20 88 0 104 -3 123 -20 30 -28 30 -82 0 -110 -21 -19 -34 -20
-270 -20 l-248 0 -15 38 c-24 56 -91 119 -153 142 -48 18 -78 20 -347 20 -269
0 -299 -2 -347 -20 -62 -23 -129 -86 -153 -143 -17 -41 -7 -40 -127 -11 -125
30 -269 125 -352 233 -86 112 -146 275 -146 397 0 53 -33 94 -75 94 -14 0 -37
-11 -50 -25z m1556 -690 c16 -9 39 -30 49 -48 19 -30 20 -53 20 -384 l0 -353
-375 0 -375 0 0 350 c0 388 1 392 63 430 30 19 52 20 310 20 231 0 283 -3 308
-15z m59 -947 c0 -7 -13 -40 -29 -73 -36 -75 -108 -146 -186 -182 -52 -24 -72
-28 -150 -28 -78 0 -98 4 -150 28 -78 36 -150 107 -186 182 -16 33 -29 66 -29
73 0 9 80 12 365 12 285 0 365 -3 365 -12z"/>
<path d="M4995 3745 c-20 -19 -25 -35 -25 -72 0 -75 -27 -180 -65 -261 -98
-206 -271 -338 -499 -381 l-46 -8 -19 41 c-25 56 -97 120 -158 140 -45 15 -91
17 -360 14 -294 -3 -310 -4 -348 -25 -52 -28 -110 -89 -130 -135 l-15 -38
-248 0 c-236 0 -249 1 -270 20 -30 28 -30 82 0 110 19 17 35 20 123 20 88 0
104 3 123 20 30 28 30 82 0 110 -19 18 -35 20 -134 20 -103 0 -116 -2 -165
-28 -34 -17 -65 -44 -84 -71 -28 -39 -30 -50 -30 -126 0 -76 2 -87 30 -126 19
-27 50 -54 84 -71 l53 -28 254 0 254 0 0 -650 0 -651 25 -24 c19 -20 34 -25
75 -25 l50 0 -2 -496 -3 -497 -135 -46 c-111 -38 -137 -51 -149 -73 -20 -35
-6 -77 31 -98 26 -14 37 -12 203 43 124 42 179 65 190 80 13 18 15 96 15 554
l0 533 225 0 225 0 -2 -496 -3 -497 -135 -46 c-111 -38 -137 -51 -149 -73 -20
-35 -6 -77 31 -98 26 -14 37 -12 203 43 124 42 179 65 190 80 13 18 15 96 15
554 l0 533 125 0 c120 0 127 1 150 25 l25 24 0 223 c0 291 -22 392 -114 531
l-36 54 0 247 c0 189 3 247 13 250 6 2 41 9 77 16 267 50 507 253 606 515 29
79 53 196 54 268 0 56 -32 97 -75 97 -14 0 -37 -11 -50 -25z m-844 -690 c16
-9 39 -30 49 -48 19 -30 20 -52 20 -309 l0 -278 -375 0 -375 0 0 275 c0 305 2
318 63 355 30 19 52 20 310 20 231 0 283 -3 308 -15z m147 -845 c57 -95 65
-135 70 -347 l4 -193 -451 0 -451 0 0 300 0 300 397 -2 398 -3 33 -55z"/>
</g>
</svg>
