<?xml version="1.0" encoding="UTF-8"?>
<svg version="1.1" viewBox="0 0 800 800" width="800" height="800" xmlns="http://www.w3.org/2000/svg">
<path transform="translate(267,42)" d="m0 0h93v2l7 2 6 4 6 10 1 54 8 4 12 4 16 8 5-1 33-33 7-4 4-1h10l7 3 6 4 60 60 5 9 1 4v8l-4 9-7 8-28 28v6l8 16 6 17 1 1 52 1 7 3-1 4-316 316-6 10-3 9-1 9-3 1-8-7-4-8-1-55-8-2-14-5-13-7h-5l-34 34-10 5h-12l-6-3-5-3v-2l-3-1v-2l-3-1v-2l-4-2-2-4-3-1v-2l-3-1v-2l-3-1v-2l-3-1v-2l-3-1v-2h-2l-4-5-5-4-4-5-5-5-5-4-7-8-6-8-2-6v-7l4-10 9-10 26-26 1-4-5-10-6-14-4-11v-2h-49l-9-2-6-4-5-6-3-5v-100h2l1-4 4-6 9-5 4-1 52-1 7-20 8-16-1-4-33-33-5-10-1-3v-7l4-9 7-9 56-56 8-5 10-2 9 2 9 7 30 30 5 1 17-8 18-7 1-1 1-52 3-7 4-6 6-4 7-1zm37 140-18 2-16 4-16 6-14 7-13 8-13 11-8 7-12 14-6 8-14 26-6 18-3 15-2 24 2 23 5 21 5 14 15 27 9 10 8 10 9 8 11 9 28 16 18 6 13 3 15 2h24l20-3 18-5 10-4 12-7 11-6 10-8 13-11 8-9 9-11 8-14 8-15 6-17 3-14 2-22-1-21-3-17-5-17-4-9-13-24-12-14-7-8-11-10-9-7-23-13-10-4-15-5-14-3-13-1z" fill="#79838B"/>
<path transform="translate(638,262)" d="m0 0 8 2 8 7 64 64 2 5v8l-3 6-6 7v7l3 10v14l-4 15-10 14-118 118-9 5-4 1h-8l-9-3-9-7-4-2-5 5h-2l-1 3h-2l-1 3h-2l-1 3h-2l-1 3h-2l-1 3h-2l-1 3h-2v2h-2l-1 3h-2l-2 4h-2v2h-2l-1 3h-2l-1 3h-2l-1 3h-2l-1 3h-2l-1 3h-2l-1 3h-2l-1 3h-2v2l-4 4h-2l-1 3h-2v2h-2l-1 3h-2l-2 4-4 2-1 3h-2l-1 3h-2l-1 3h-2l-1 3h-2l-1 3h-2l-1 3h-2l-1 3h-2l-1 3h-2l-1 3h-2l-1 3h-2v2h-2l-1 3h-2l-1 3h-2l-1 3h-2l-1 3h-2l-1 3h-2l-1 3h-2l-1 3h-2l-1 3h-2l-1 3h-2l-1 3h-2l-1 3h-2l-1 3h-2l-1 3h-2l-1 3h-2v2h-2l-1 3h-2l-1 3-7 5-8 1-7-3-8-7-61-61-3-4-1-9 3-7 7-8 331-331z" fill="#79838B"/>
<path transform="translate(312,219)" d="m0 0 23 2 22 7 17 9 10 8 10 9 9 10 7 11 7 13 6 19 2 18v13l-2 18-6 19-12 21-12 14-11 10-8 6-14 7-9 4-13 4-13 2h-23l-17-3-18-6-12-7-7-4-9-8-8-7-9-11-7-11-6-12-6-20-2-17v-11l3-21 6-18 9-17 8-10 11-12 13-10 16-9 11-4 13-4z" fill="#79838B"/>
<path transform="translate(700,209)" d="m0 0h24l12 4 11 6 10 8 8 10 6 12 3 9v26l-4 10-6 12-8 9-3 2h-6l-6-4-73-73-2-3v-8l4-5 10-7 10-5z" fill="#79838B"/>
<path transform="translate(261,643)" d="m0 0h6l6 4 65 65 2 4-1 7-4 4-46 14-22 7-18 5-9 2v2h-6v-2l-5-2-2-3v-8l8-25 10-34 7-22 4-13z" fill="#79838B"/>
</svg>
