<?xml version="1.0" encoding="iso-8859-1"?>
<!-- Uploaded to: SVG Repo, www.svgrepo.com, Generator: SVG Repo Mixer Tools -->
<svg height="800px" width="800px" version="1.1" id="Layer_1" xmlns="http://www.w3.org/2000/svg" xmlns:xlink="http://www.w3.org/1999/xlink" 
	 viewBox="0 0 486.4 486.4" xml:space="preserve">
<g>
	<path style="fill:#3B4D81;" d="M119.839,295.775l39.627,39.627l-79.18,79.18l-39.627-39.627L119.839,295.775z"/>
	<g>
		<path style="fill:#D7E1F2;" d="M326.175,53.913l75.154,75.154L177.233,353.164l-75.154-75.154L326.175,53.913z"/>
		<path style="fill:#D7E1F2;" d="M312.513,40.246l30.745-30.745l102.484,102.484l-30.745,30.745L312.513,40.246z"/>
	</g>
	<g>
		<path d="M242.125,364.654c-5.247,0-9.5-4.253-9.5-9.5v-15.701c0-5.247,4.253-9.5,9.5-9.5s9.5,4.253,9.5,9.5v15.701
			C251.625,360.401,247.372,364.654,242.125,364.654z"/>
	</g>
	<path d="M292.369,467.4h-40.744v-77.461c0-5.247-4.253-9.5-9.5-9.5s-9.5,4.253-9.5,9.5V467.4H191.88c-5.247,0-9.5,4.253-9.5,9.5
		s4.253,9.5,9.5,9.5h100.489c5.247,0,9.5-4.253,9.5-9.5S297.616,467.4,292.369,467.4z"/>
	<path d="M152.748,285.906c-2.431,0-4.863-0.928-6.718-2.782c-3.71-3.71-3.71-9.725,0-13.435l116.432-116.432
		c3.71-3.709,9.725-3.709,13.435,0c3.71,3.71,3.71,9.725,0,13.435L159.465,283.124C157.61,284.978,155.179,285.906,152.748,285.906z
		 M297.925,140.728c-2.432,0-4.862-0.927-6.718-2.783c-3.71-3.71-3.71-9.725,0-13.435l26.572-26.571c3.71-3.709,9.725-3.71,13.435,0
		s3.71,9.725,0,13.435l-26.572,26.571C302.787,139.801,300.356,140.728,297.925,140.728z"/>
	<path d="M452.459,105.267L349.975,2.783C348.193,1.001,345.777,0,343.257,0s-4.936,1.001-6.718,2.782l-30.746,30.746
		c-3.71,3.71-3.71,9.725,0,13.435l6.947,6.947L95.358,271.293c-3.71,3.71-3.71,9.725,0,13.435l11.046,11.047L33.94,368.239
		c-3.71,3.71-3.71,9.725,0,13.435l21.075,21.075l-13.284,13.284c-3.71,3.71-3.71,9.725,0,13.435
		c1.855,1.855,4.287,2.782,6.718,2.782s4.863-0.928,6.718-2.782l13.284-13.284l5.117,5.117c1.782,1.782,4.198,2.783,6.718,2.783
		c2.52,0,4.936-1.001,6.718-2.782l72.464-72.464l11.046,11.046c1.782,1.781,4.198,2.782,6.718,2.782s4.936-1.001,6.718-2.782
		l217.383-217.383l6.947,6.947c1.782,1.781,4.198,2.782,6.718,2.782s4.936-1.001,6.718-2.783l30.745-30.746
		C456.169,114.992,456.169,108.977,452.459,105.267z M80.286,401.149l-26.192-26.193l65.063-65.063l26.193,26.192L80.286,401.149z
		 M177.231,339.731l-61.72-61.721L326.176,67.345l61.721,61.721L177.231,339.731z M414.996,129.296l-89.05-89.05l17.311-17.311
		l89.049,89.05L414.996,129.296z"/>
</g>
</svg>