<svg xmlns="http://www.w3.org/2000/svg" version="1.0" width="512.000000pt" height="512.000000pt" viewBox="0 0 512.000000 512.000000" preserveAspectRatio="xMidYMid meet">
<style>
    .has-cr {
        fill: #000;
    }
</style>
<g transform="translate(0.000000,512.000000) scale(0.100000,-0.100000)" fill="#fff" stroke="none">
<path class="has-cr" d="M2388 5106 c-222 -40 -402 -132 -570 -294 -150 -144 -242 -304 -294 -510 -42 -166 -28 -232 49 -232 49 0 65 24 82 124 9 48 25 115 36 149 97 288 343 517 644 599 114 30 345 31 457 0 333 -91 589 -350 670 -677 29 -118 31 -304 4 -420 -33 -144 -82 -234 -364 -672 l-272 -422 0 -63 c0 -62 -19 -112 -36 -95 -4 4 2 179 15 390 12 210 21 390 21 400 0 14 9 17 59 17 177 0 288 139 240 301 -47 155 -258 202 -371 82 -37 -38 -54 -85 -63 -165 l-7 -68 -128 0 -128 0 -7 68 c-12 112 -48 172 -127 213 -49 25 -139 25 -194 0 -104 -47 -155 -189 -105 -296 40 -87 123 -135 232 -135 l59 0 0 -37 c0 -21 9 -182 20 -358 11 -176 20 -342 20 -370 -1 -46 -2 -48 -15 -31 -10 13 -15 43 -15 84 l0 63 -270 421 c-149 231 -281 441 -294 467 -13 25 -36 85 -51 134 -31 99 -60 133 -105 122 -64 -16 -74 -58 -39 -171 35 -115 86 -204 350 -614 l253 -394 8 -74 c9 -85 25 -119 71 -159 33 -27 34 -31 40 -120 7 -109 28 -164 82 -212 60 -53 91 -61 222 -61 134 0 179 15 234 77 46 53 60 94 66 197 6 88 7 92 40 119 46 40 62 74 71 159 l8 74 254 394 c139 217 270 429 291 470 172 343 131 786 -101 1099 -75 101 -209 225 -309 285 -89 54 -229 110 -330 132 -94 21 -309 26 -403 10z m-136 -1423 c9 -10 19 -44 23 -75 l6 -58 -51 0 c-41 0 -56 5 -75 25 -31 30 -33 77 -5 105 25 25 81 27 102 3z m718 -3 c28 -28 26 -75 -5 -105 -19 -20 -34 -25 -75 -25 l-51 0 6 58 c4 31 14 65 23 75 21 24 77 22 102 -3z m-293 -372 c-3 -51 -14 -234 -23 -405 l-18 -313 -76 0 -76 0 -18 313 c-9 171 -20 354 -23 405 l-6 92 123 0 123 0 -6 -92z m43 -915 c0 -66 -17 -120 -43 -138 -30 -21 -194 -21 -224 0 -26 18 -43 72 -43 138 l0 47 155 0 155 0 0 -47z"/>
<path class="has-cr" d="M1031 4814 c-24 -30 -27 -63 -8 -86 6 -9 54 -52 105 -97 68 -59 100 -81 121 -81 38 0 71 33 71 73 0 34 -23 61 -152 175 -59 52 -105 57 -137 16z"/>
<path class="has-cr" d="M3910 4749 c-89 -81 -100 -94 -100 -124 0 -42 32 -75 72 -75 20 0 51 21 115 76 48 41 96 85 106 96 38 45 2 118 -59 118 -29 0 -49 -13 -134 -91z"/>
<path class="has-cr" d="M1213 4217 c-44 -25 -193 -169 -199 -194 -14 -53 51 -107 99 -81 21 10 105 81 175 146 42 40 45 91 6 121 -30 24 -49 26 -81 8z"/>
<path class="has-cr" d="M3836 4209 c-31 -25 -35 -76 -8 -106 29 -33 166 -149 189 -161 48 -26 113 28 99 81 -3 14 -45 61 -92 104 -122 111 -141 119 -188 82z"/>
<path d="M810 3421 c-45 -24 -76 -69 -84 -126 l-7 -45 -173 0 c-161 0 -176 -2 -216 -23 -30 -16 -51 -37 -67 -67 l-23 -43 0 -1351 c0 -1182 2 -1359 15 -1411 46 -174 183 -307 353 -344 75 -16 3828 -16 3904 0 170 36 307 170 353 344 13 52 15 229 15 1411 l0 1351 -23 43 c-16 30 -37 51 -67 67 -40 21 -55 23 -211 23 l-168 0 -7 45 c-8 57 -39 102 -84 126 -32 17 -63 19 -363 19 -191 0 -336 -4 -346 -10 -10 -5 -24 -22 -30 -39 -10 -24 -10 -34 3 -60 9 -17 18 -32 19 -33 1 -1 148 -5 327 -8 l325 -5 3 -476 c2 -462 3 -477 22 -494 28 -25 76 -23 103 4 22 21 22 26 25 402 l3 380 157 -3 157 -3 0 -1355 0 -1355 -28 -57 c-32 -65 -89 -121 -156 -152 l-46 -21 -1935 0 -1935 0 -46 21 c-67 31 -124 87 -156 152 l-28 57 0 1355 0 1355 162 3 163 2 2 -1307 3 -1308 23 -42 c12 -24 41 -55 64 -70 l42 -28 1711 0 1711 0 42 28 c23 15 52 46 64 70 l23 42 0 796 c0 770 -1 798 -19 818 -25 27 -86 29 -109 3 -15 -17 -17 -71 -17 -575 l0 -557 -632 0 c-696 0 -712 -2 -829 -60 -35 -18 -85 -50 -111 -72 l-48 -39 0 494 c0 485 0 495 -21 521 -28 36 -80 36 -108 0 -21 -26 -21 -36 -21 -522 l0 -496 -27 26 c-46 42 -136 95 -204 119 -58 21 -87 23 -296 27 l-233 4 -31 -31 c-25 -25 -30 -37 -25 -59 14 -58 28 -62 250 -62 227 0 286 -10 375 -63 67 -40 115 -95 152 -172 51 -106 139 -95 -761 -95 l-790 0 -15 24 c-13 19 -15 50 -13 162 l3 139 298 5 c281 5 299 6 313 24 23 33 18 82 -12 105 -26 20 -38 21 -315 21 l-289 0 2 1158 3 1157 325 5 c179 3 326 7 327 8 1 1 10 16 19 33 13 26 13 36 3 60 -6 17 -20 34 -30 39 -10 6 -155 10 -346 10 -300 0 -331 -2 -363 -19z m3448 -2745 c2 -112 0 -143 -13 -162 l-15 -24 -790 0 c-900 0 -812 -11 -761 95 37 77 85 132 152 172 104 62 100 62 794 60 l630 -2 3 -139z"/>
<path d="M1035 2565 c-14 -13 -25 -36 -25 -50 0 -14 11 -37 25 -50 l24 -25 396 0 396 0 24 25 c14 13 25 36 25 50 0 14 -11 37 -25 50 l-24 25 -396 0 -396 0 -24 -25z"/>
<path d="M3255 2565 c-14 -13 -25 -36 -25 -50 0 -14 11 -37 25 -50 l24 -25 396 0 396 0 24 25 c14 13 25 36 25 50 0 14 -11 37 -25 50 l-24 25 -396 0 -396 0 -24 -25z"/>
<path d="M1177 2190 c-34 -27 -37 -80 -7 -110 19 -19 33 -20 469 -20 l450 0 20 26 c26 33 27 65 2 95 l-19 24 -444 3 c-439 3 -445 2 -471 -18z"/>
<path d="M3043 2200 c-45 -18 -55 -72 -22 -114 l20 -26 450 0 c436 0 450 1 469 20 30 30 27 83 -6 109 -26 21 -36 21 -458 20 -237 0 -441 -4 -453 -9z"/>
<path d="M1170 1820 c-30 -30 -27 -83 7 -110 26 -20 32 -21 471 -18 l444 3 19 24 c25 30 24 62 -2 95 l-20 26 -450 0 c-436 0 -450 -1 -469 -20z"/>
<path d="M3021 1814 c-28 -35 -26 -69 4 -99 l24 -25 439 0 c429 0 440 0 466 21 33 26 36 79 6 109 -19 19 -33 20 -469 20 l-450 0 -20 -26z"/>
<path d="M1200 1473 c-51 -19 -68 -85 -30 -123 19 -19 33 -20 469 -20 l450 0 20 26 c12 15 21 33 21 40 0 29 -25 64 -53 74 -31 10 -848 14 -877 3z"/>
<path d="M3051 1469 c-52 -21 -65 -69 -30 -113 l20 -26 450 0 c436 0 450 1 469 20 27 27 26 81 -1 106 -20 18 -44 19 -453 21 -263 1 -440 -2 -455 -8z"/>
</g>
</svg>