<svg xmlns="http://www.w3.org/2000/svg" version="1.0" width="128.000000pt" height="128.000000pt" viewBox="0 0 128.000000 128.000000" preserveAspectRatio="xMidYMid meet">
    <g transform="translate(0.000000,128.000000) scale(0.100000,-0.100000)" fill="#4ae4c8" stroke="none">
        <path
            d="M555 1270 c-140 -19 -252 -76 -361 -185 -127 -125 -187 -269 -187 -445 0 -108 15 -174 65 -280 57 -119 169 -231 289 -288 105 -50 171 -65 279 -65 108 0 174 15 279 65 120 57 232 169 289 289 22 46 46 109 53 139 16 71 16 209 0 280 -41 177 -180 351 -341 428 -124 58 -243 79 -365 62z m236 -132 c146 -67 230 -221 209 -380 -11 -74 -32 -120 -95 -202 -59 -77 -79 -118 -90 -184 l-7 -42 -56 -1 c-63 -2 -150 -2 -229 0 l-51 1 -7 42 c-11 66 -31 107 -90 184 -86 112 -114 204 -94 312 25 131 103 226 228 279 79 33 201 29 282 -9z m-586 -272 c51 -23 69 -46 46 -61 -15 -8 -121 42 -121 58 0 12 9 27 16 27 2 0 28 -11 59 -24z m943 0 c3 -12 -12 -23 -53 -41 -57 -26 -75 -25 -75 1 0 15 96 65 115 60 6 -1 11 -10 13 -20z m-928 -226 c0 -18 -7 -20 -70 -20 -63 0 -70 2 -70 20 0 18 7 20 70 20 63 0 70 -2 70 -20z m980 0 c0 -18 -7 -20 -70 -20 -63 0 -70 2 -70 20 0 18 7 20 70 20 63 0 70 -2 70 -20z m-942 -183 c2 -12 -13 -24 -53 -42 -58 -25 -75 -25 -75 1 0 15 96 65 115 60 6 -1 11 -10 13 -19z m837 -1 c51 -23 69 -46 46 -60 -14 -9 -121 42 -121 57 0 12 9 27 16 27 2 0 28 -11 59 -24z"
        ></path>
    </g>
</svg>