<svg xmlns="http://www.w3.org/2000/svg" xmlns:xlink="http://www.w3.org/1999/xlink" fill="#000000" height="800px" width="800px" version="1.1" id="Layer_1" viewBox="0 0 512.001 512.001" xml:space="preserve">
<style>
    #has-cr {
        fill: #ffad0a;
    }
</style>
<g>
	<g>
		<g>
			<path id="has-cr" d="M249.313,329.228c-14.519,0-25.778-6.222-25.778-18.074c0-9.482-2.963-17.185-23.112-17.185     c-14.519,0-23.112,4.445-23.112,20.445c0,27.852,25.482,55.112,73.187,55.112c47.075,0,72.001-23.366,72.001-73.779     c0-70.032-66.42-64.594-91.854-64.594l2.963-39.704h64.89c8.889,0,13.334-10.074,13.334-20.148     c0-10.074-4.445-20.149-13.334-20.149h-94.52c-5.037,0-7.408,5.333-8.296,14.223c-8.702,81.219-8.593,79.114-8.593,83.261     c0,11.259,4.148,18.074,17.778,18.074c44.513,0,71.409-6.623,71.409,29.038C276.276,315.656,271.921,329.228,249.313,329.228z"/>
			<path d="M79.207,64.893c-33.88-15.844-72.672,8.944-72.672,46.19c0,28.195,22.816,51.015,51.016,51.015     c37.166,0,61.532-38.349,46.605-71.795c86.477-75.942,218.675-72.67,301.193,9.848c85.942,85.944,85.942,225.782,0,311.726     c-85.942,85.942-225.782,85.942-311.725,0c-6.942-6.942-18.199-6.942-25.142,0c-6.943,6.942-6.943,18.199,0,25.142     c159.655,159.657,436.984,48.019,436.984-181.005C505.466,33.233,241.749-80.296,79.207,64.893z M68.482,122.014     c-6.04,6.041-15.82,6.043-21.863,0c-6.042-6.043-6.042-15.82,0-21.862c6.026-6.026,15.834-6.028,21.862,0     C74.523,106.192,74.524,115.969,68.482,122.014z"/>
		</g>
	</g>
</g>
</svg>