<svg xmlns="http://www.w3.org/2000/svg" version="1.0" width="800.000000pt" height="970.000000pt" viewBox="0 0 800.000000 970.000000" preserveAspectRatio="xMidYMid meet">
    <g transform="translate(0.000000,970.000000) scale(0.100000,-0.100000)" fill="#30415b" stroke="none">
        <path
            d="M3202 9689 c-116 -17 -180 -51 -390 -206 -192 -141 -289 -176 -429 -156 -43 6 -143 30 -221 52 -243 69 -343 76 -428 33 -57 -29 -120 -102 -134 -154 -35 -128 37 -287 179 -390 194 -143 257 -193 350 -283 57 -55 149 -156 204 -225 125 -156 139 -173 304 -347 l135 -143 1177 0 1178 0 159 163 c88 89 221 239 297 334 165 206 277 313 457 437 150 103 216 172 251 265 58 157 19 276 -113 340 -124 60 -223 57 -402 -13 -188 -74 -313 -91 -430 -61 -76 20 -119 47 -250 154 -181 149 -314 205 -491 206 -153 0 -231 -35 -400 -181 -93 -80 -166 -134 -213 -158 -32 -16 -34 -16 -70 5 -96 58 -191 127 -261 189 -42 37 -95 77 -117 88 -92 47 -229 67 -342 51z"
        ></path>
        <path
            d="M2624 7203 c-324 -422 -710 -815 -1218 -1243 -501 -422 -846 -852 -1086 -1354 -214 -446 -314 -880 -313 -1356 1 -553 137 -1037 423 -1510 142 -235 290 -419 507 -630 148 -146 207 -196 357 -309 489 -367 1137 -628 1833 -736 606 -95 1314 -83 1933 30 758 139 1401 427 1900 850 105 90 304 293 390 400 163 200 337 500 433 745 193 492 259 1152 171 1715 -81 520 -305 1015 -660 1460 -117 147 -446 474 -614 610 -425 344 -554 458 -831 734 -228 229 -378 394 -524 579 l-80 102 -1277 0 -1277 0 -67 -87z m2120 -1027 c31 -30 50 -121 41 -195 -3 -31 -67 -483 -141 -1004 -74 -522 -134 -960 -134 -973 l0 -24 488 0 c521 0 548 -2 629 -51 103 -63 96 -212 -15 -349 -143 -175 -2213 -2508 -2250 -2535 -128 -94 -202 -50 -202 119 0 63 250 1892 276 2018 l5 27 -503 3 c-432 3 -510 6 -551 20 -144 49 -184 153 -112 294 27 54 114 159 406 489 342 386 784 888 1509 1710 344 390 362 409 425 446 61 35 98 37 129 5z"
        ></path>
    </g>
</svg>