<?xml version="1.0" encoding="iso-8859-1"?>
<!--Generator: Adobe Illustrator 19.0.0, SVG Export Plug-In . SVG Version: 6.00 Build 0)-->
<!--License: CC0. Made by SVG Repo: https://www.svgrepo.com/svg/149534/user-->
<svg version="1.1" id="Layer_1" xmlns="http://www.w3.org/2000/svg" xmlns:xlink="http://www.w3.org/1999/xlink" x="0px" y="0px" viewBox="0 0 226.001 226.001" style="enable-background:new 0 0 226.001 226.001;" xml:space="preserve">
  <g>
    <g>
      <g>
        <path d="M222.103,21.431H3.897C1.743,21.431,0,23.174,0,25.328v175.345c0,2.154,1.743,3.897,3.897,3.897h218.207
				c2.154,0,3.897-1.743,3.897-3.897V25.328C226,23.174,224.257,21.431,222.103,21.431z M151.967,196.776H19.483V181.19
				c0-8.775,8.01-16.473,17.139-16.473h21.694c1.488,0,2.846-0.849,3.501-2.184l9.11-18.596c0.083-0.173,0.081-0.356,0.138-0.534
				c4.652,1.75,9.67,2.717,14.888,2.717c4.48,0,8.8-0.74,12.88-2.045l9.042,18.457c0.655,1.336,2.013,2.184,3.501,2.184h24.373
				c8.942,0,16.218,7.192,16.218,16.032V196.776z M123.944,88.464c2.69,0.525,4.642,2.9,4.642,5.651v2.702
				c0,2.793-1.971,5.171-4.688,5.662c-1.75,0.316-3.067,1.781-3.192,3.558c-1.298,18.105-16.564,32.291-34.753,32.291
				c-18.151,0-33.414-14.159-34.746-32.23c-0.133-1.842-1.545-3.333-3.375-3.577c-2.831-0.376-4.97-2.827-4.97-5.704v-2.702
				c0-2.9,2.063-5.293,4.901-5.697c1.922-0.274,3.349-1.918,3.349-3.858V74.263c0-11.944,9.703-21.659,21.632-21.659h48.049V84.64
				C120.793,86.505,122.114,88.11,123.944,88.464z M218.207,196.776h-58.448v-16.028c0-13.136-10.772-23.825-24.011-23.825h-21.941
				l-7.789-15.899c11.746-6.315,20.305-17.945,22.181-31.75c4.878-2.089,8.181-6.933,8.181-12.458v-2.702
				c0-5.343-3.136-10.084-7.793-12.272V48.707c0-2.154-1.743-3.897-3.897-3.897H72.744c-16.226,0-29.426,13.212-29.426,29.452v7.375
				c-4.874,2.082-8.249,6.96-8.249,12.477v2.702c0,5.685,3.562,10.666,8.664,12.645c1.838,13.064,9.659,24.189,20.497,30.652
				c-0.094,0.142-0.229,0.242-0.307,0.399l-8.041,16.412H36.621c-13.516,0-24.932,11.111-24.932,24.266v15.586H7.793V29.224h210.414
				V196.776z"/>
        <rect x="145.569" y="56.5" width="60.948" height="7.793"/>
        <rect x="145.569" y="72.086" width="60.948" height="7.793"/>
        <rect x="145.569" y="85.073" width="45.362" height="7.793"/>
      </g>
    </g>
  </g>
</svg>
