<svg width="103" height="30" viewBox="0 0 103 30" fill="none" xmlns="http://www.w3.org/2000/svg">
<path fill-rule="evenodd" clip-rule="evenodd" d="M22.602 15.7705C21.9492 17.7318 20.5215 20.1321 18.3227 22.9693C15.1914 27.0512 12.5421 29.0923 10.3749 29.0923C9.03285 29.0923 7.89641 27.8497 6.96858 25.3632C6.34896 23.0843 5.7292 20.8054 5.1097 18.5267C4.4204 16.0415 3.68151 14.7976 2.89115 14.7976C2.71879 14.7976 2.11574 15.1614 1.0836 15.8856L0 14.4855C1.13657 13.4839 2.25781 12.4824 3.3611 11.4792C4.8769 10.1655 6.01496 9.47471 6.77355 9.40498C8.56589 9.23221 9.66918 10.4611 10.0833 13.0915C10.5306 15.9295 10.8404 17.6948 11.0142 18.3856C11.5311 20.7402 12.0992 21.9163 12.7205 21.9163C13.2025 21.9163 13.9263 21.1524 14.8922 19.6253C15.8562 18.0978 16.3732 16.9357 16.4426 16.1371C16.5802 14.8189 16.0634 14.1582 14.8922 14.1582C14.3405 14.1582 13.7722 14.2855 13.1874 14.537C14.3194 10.8187 16.482 9.01254 19.6737 9.11545C21.8055 9.17832 22.9222 10.4337 23.0196 12.8823L24.5643 11.4792C26.0467 10.1655 27.15 9.47471 27.8755 9.40498C29.0119 9.30194 29.8476 9.63675 30.3826 10.4127C30.916 11.1883 31.1142 12.1945 30.9781 13.4339C30.5292 15.5356 30.0455 18.2038 29.5287 21.4403C29.4939 22.9222 30.029 23.6616 31.1322 23.6616C31.6143 23.6616 32.4757 23.1511 33.7179 22.1269L33.7682 22.0842C33.8434 21.3631 33.9706 20.507 34.1461 19.5159C34.4303 17.9128 34.5891 16.6644 34.6223 15.7675C34.6903 15.1476 34.5346 14.8369 34.1569 14.8369C33.9497 14.8369 33.3634 15.1869 32.3977 15.8856L31.157 14.4855C31.3293 14.3492 32.4144 13.3461 34.4152 11.4792C35.863 10.1324 36.8454 9.44128 37.3622 9.40648C38.2585 9.33687 38.9823 9.70798 39.5339 10.5202C40.0855 11.3324 40.3621 12.2748 40.3621 13.3461C40.3621 13.6915 40.3274 14.0203 40.2594 14.331C40.7763 13.537 41.3792 12.8445 42.0699 12.2566C43.6552 10.8748 45.431 10.0958 47.3958 9.92316C49.0853 9.78532 50.2913 10.1823 51.0168 11.1156C51.6016 11.8763 51.8767 12.9658 51.8433 14.3825C52.0854 14.1764 52.3437 13.9507 52.6202 13.7082C53.4122 12.7749 54.1875 12.0324 54.9461 11.4792C56.2215 10.5459 57.55 10.0277 58.9282 9.92316C60.583 9.78532 61.7724 10.1808 62.4963 11.1111C63.1159 11.8688 63.3925 12.9537 63.3246 14.3643C63.2897 15.3294 63.0571 16.7327 62.6263 18.5752C62.194 20.4177 61.9795 21.4752 61.9795 21.751C61.9447 22.4753 62.0144 22.9739 62.1865 23.2496C62.3588 23.5254 62.7713 23.6616 63.4274 23.6616C63.7222 23.6616 64.1589 23.4706 64.738 23.0866C64.6813 22.6518 64.6588 22.2002 64.6681 21.7313C64.7014 18.9327 65.9436 16.2721 68.3917 13.7475C71.0805 10.9839 74.2525 9.60045 77.9069 9.60045C81.2861 9.60045 83.0783 10.9807 83.2854 13.7385C83.4229 15.496 82.4572 17.3068 80.3899 19.1691C78.1819 21.2042 75.4057 22.4965 72.0628 23.048C72.6824 23.9101 73.6131 24.3406 74.8555 24.3406C77.3371 24.3406 80.0437 23.7086 82.9755 22.4419L83.3635 22.2723L83.31 21.6314C83.1362 18.663 84.2046 15.9355 86.5168 13.4505C88.9984 10.6898 92.1175 9.30955 95.8761 9.30955C98.2882 9.30955 100.115 10.1216 101.358 11.743C102.53 13.2278 103.064 15.143 102.96 17.4888C102.822 20.6645 101.651 23.4087 99.4447 25.7208C97.2377 28.0331 94.4963 29.1892 91.2214 29.1892C88.498 29.1892 86.4292 28.3088 85.0161 26.5481C84.6968 26.1433 84.4217 25.7071 84.1976 25.2381C83.8259 25.4725 83.4358 25.7035 83.0271 25.9345C79.3727 28.0407 75.6657 29.0923 71.9086 29.0923C69.1158 29.0923 67.1149 28.1588 65.9089 26.2937L65.6592 25.8882L65.5476 25.9905C63.2371 27.9938 60.9275 28.9953 58.6185 28.9953C56.3757 28.9953 55.2907 27.7528 55.36 25.2647C55.3934 24.1586 55.6095 22.8298 56.0054 21.2753C56.4015 19.7206 56.6175 18.5113 56.6523 17.6479C56.6871 16.3356 56.2894 15.678 55.4583 15.678C54.5591 15.678 53.4876 16.7507 52.2424 18.8932C50.9276 21.1403 50.2174 23.3177 50.1146 25.4254C50.045 26.9133 50.1901 28.0544 50.5497 28.8484C48.1439 28.9181 46.4585 28.5196 45.4974 27.6559C44.636 26.8952 44.2415 25.6346 44.3111 23.8708C44.3442 22.7647 44.5136 21.6586 44.8188 20.5525C45.1226 19.4464 45.2919 18.4616 45.3266 17.5962C45.3962 16.3175 44.9291 15.678 43.9287 15.678C43.0642 15.678 42.1318 16.6644 41.1313 18.6342C40.1308 20.604 39.5777 22.6616 39.4749 24.8042C39.4054 26.7407 39.5294 28.0877 39.8453 28.8484C37.4786 28.9181 35.798 28.4179 34.8037 27.3481C34.3483 26.8541 34.0298 26.2184 33.8534 25.4402L33.2526 25.9905C30.9417 27.9938 28.6325 28.9953 26.3234 28.9953C25.2534 28.9953 24.4343 28.6499 23.8661 27.9587C23.2978 27.2679 23.0303 26.371 23.0651 25.2647C23.0983 24.1255 23.4519 22.3633 24.1244 19.9796C24.797 17.5962 25.134 16.3175 25.134 16.1447C25.134 15.2476 24.8227 14.7976 24.203 14.7976C24.0075 14.7976 23.4733 15.1222 22.602 15.7705ZM97.1168 17.2932C97.1517 16.3584 97.022 15.5007 96.7279 14.7219C96.4351 13.943 96.0122 13.5521 95.462 13.5521C93.7031 13.5521 92.2551 14.5052 91.1188 16.4099C90.1516 17.9691 89.6346 19.6311 89.5666 21.3964C89.5319 22.2631 89.6874 23.0253 90.032 23.6828C90.4099 24.4451 90.9448 24.8253 91.6356 24.8253C93.1861 24.8253 94.5146 23.9087 95.6178 22.0722C96.5485 20.5479 97.047 18.9554 97.1168 17.2932ZM77.183 15.5507C77.2162 14.6235 76.8384 14.1582 76.0464 14.1582C75.0128 14.1582 73.9638 14.872 72.8969 16.2993C71.83 17.7266 71.2784 19.0933 71.2451 20.3993C71.2254 20.3993 71.2254 20.6236 71.2451 21.0706C72.9315 20.4523 74.3946 19.507 75.6339 18.234C76.6314 17.1342 77.1481 16.2386 77.183 15.5507ZM32.7357 2.57881C32.701 3.43953 32.2702 4.26533 31.4421 5.05632C30.5111 5.95023 29.4078 6.39731 28.1323 6.39731C26.1676 6.39731 25.2186 5.53808 25.2881 3.81825C25.3213 2.92435 25.8472 2.06374 26.8644 1.23795C27.8816 0.413647 29.0103 0 30.2527 0C30.9765 0 31.5795 0.284788 32.0632 0.851619C32.5452 1.4197 32.7689 1.99551 32.7357 2.57881Z" fill="#7B7D7F"/>
</svg>
