<?xml version="1.0" encoding="iso-8859-1"?>
<!-- Uploaded to: SVG Repo, www.svgrepo.com, Generator: SVG Repo Mixer Tools -->
<svg height="800px" width="800px" version="1.1" id="Layer_1" xmlns="http://www.w3.org/2000/svg" xmlns:xlink="http://www.w3.org/1999/xlink" 
	 viewBox="0 0 469.333 469.333" xml:space="preserve">
<path style="fill:#3866A3;" d="M437.333,245.333H32v-64c0-17.675,14.325-32,32-32h341.333c17.675,0,32,14.325,32,32V245.333z"/>
<path style="fill:#4A88DA;" d="M394.667,458.667h-320C51.104,458.667,32,439.563,32,416V256c0-23.563,19.104-42.667,42.667-42.667
	h320c23.563,0,42.667,19.104,42.667,42.667v160C437.333,439.563,418.229,458.667,394.667,458.667z"/>
<path style="fill:#F5B945;" d="M394.667,213.333H160V32c0-11.787,9.547-21.333,21.333-21.333h192
	c11.787,0,21.333,9.547,21.333,21.333V213.333z"/>
<path style="fill:#FFFFFF;" d="M341.333,213.333h-128v-10.667c0-35.349,28.651-64,64-64l0,0c35.349,0,64,28.651,64,64V213.333z"/>
<circle cx="277.333" cy="96" r="10.667"/>
<circle cx="277.333" cy="53.333" r="10.667"/>
<path style="fill:#F5B945;" d="M213.333,213.333H74.667V128c0-11.787,9.547-21.333,21.333-21.333h96
	c11.787,0,21.333,9.547,21.333,21.333V213.333z"/>
<path d="M116.448,190.219c-5.888,0-10.667-4.768-10.667-10.667v-32c0-5.899,4.779-10.667,10.667-10.667s10.667,4.768,10.667,10.667
	v32C127.115,185.451,122.336,190.219,116.448,190.219z"/>
<path style="fill:#6EA0E1;" d="M437.333,373.333H330.667c-11.787,0-21.333-9.547-21.333-21.333v-42.667
	c0-11.787,9.547-21.333,21.333-21.333h106.667V373.333z"/>
<path d="M448,181.333c0-23.531-19.136-42.667-42.667-42.667V32c0-17.643-14.357-32-32-32h-192c-17.643,0-32,14.357-32,32v64H96
	c-17.643,0-32,14.357-32,32v10.667c-23.531,0-42.667,19.136-42.667,42.667V416c0,29.408,23.925,53.333,53.333,53.333h320
	C424.075,469.333,448,445.408,448,416V181.333z M426.667,181.333v32.277c-6.229-4.715-13.408-8.245-21.333-9.856V160
	C417.099,160,426.667,169.568,426.667,181.333z M170.667,32c0-5.888,4.789-10.667,10.667-10.667h192
	C379.211,21.333,384,26.112,384,32v106.667V160v42.667h-32C352,161.504,318.507,128,277.333,128
	c-20.885,0-39.765,8.64-53.333,22.517V128c0-17.643-14.357-32-32-32h-21.333V32z M202.667,202.667h-21.333v-85.333H192
	c5.877,0,10.667,4.779,10.667,10.667V202.667z M330.667,202.667H224c0-29.408,23.925-53.333,53.333-53.333
	S330.667,173.259,330.667,202.667z M85.333,128c0-5.888,4.789-10.667,10.667-10.667h53.333v85.333h-64V160v-21.333V128z M64,160
	v43.744c-7.925,1.621-15.104,5.141-21.333,9.856v-32.267C42.667,169.568,52.235,160,64,160z M394.667,448h-320
	c-17.643,0-32-14.357-32-32V256c0-17.643,14.357-32,32-32h320c17.643,0,32,14.357,32,32v21.333h-96c-17.643,0-32,14.357-32,32V352
	c0,17.643,14.357,32,32,32h96v32C426.667,433.643,412.309,448,394.667,448z M426.667,362.667h-96
	c-5.877,0-10.667-4.779-10.667-10.667v-42.667c0-5.888,4.789-10.667,10.667-10.667h96V362.667z"/>
<circle cx="85.333" cy="330.667" r="10.667"/>
<circle cx="128" cy="330.667" r="10.667"/>
<circle cx="170.667" cy="330.667" r="10.667"/>
<circle cx="213.333" cy="330.667" r="10.667"/>
<circle cx="256" cy="330.667" r="10.667"/>
<circle cx="352" cy="330.667" r="10.667"/>
<circle cx="394.667" cy="330.667" r="10.667"/>
<path d="M160,416H85.333c-5.888,0-10.667-4.768-10.667-10.667s4.779-10.667,10.667-10.667H160c5.888,0,10.667,4.768,10.667,10.667
	S165.888,416,160,416z"/>
</svg>