<svg width="78" height="50" viewBox="0 0 78 50" fill="none" xmlns="http://www.w3.org/2000/svg">
<path opacity="0.2" d="M74.1101 33.3468C75.4732 32.1252 76.3678 30.4668 76.6401 28.6568C79.0301 21.8268 74.6401 16.4668 58.4801 19.3968C56.1869 19.8282 53.8333 19.8282 51.5401 19.3968C51.4801 18.2768 50.3701 17.6168 47.4801 17.8168C44.5901 18.0168 40.2601 19.2568 35.0001 20.4268C31.1588 21.2532 27.3875 22.3765 23.7201 23.7868C23.3107 23.6222 22.8615 23.5839 22.4301 23.6768C21.1471 23.9344 20.0161 24.6847 19.2801 25.7668C15.7001 27.6368 13.9901 29.3068 14.0801 30.1368C14.1098 30.4314 14.1667 30.7227 14.2501 31.0068C13.127 32.1275 11.8942 33.1326 10.5701 34.0068L10.1501 34.2968L9.9801 34.4368C9.94387 34.4717 9.91349 34.5122 9.89011 34.5568C9.47011 35.2468 11.2701 35.8068 12.7101 35.8068C13.9523 35.7985 15.1862 35.6029 16.3701 35.2268C11.0001 39.4668 9.82011 43.5468 11.9401 44.4568C13.0401 44.9368 15.3601 45.6568 16.3401 45.4568C16.9401 43.8768 21.4101 39.0168 26.8001 35.6768H28.4301C30.6405 36.1975 32.8868 36.5518 35.1501 36.7368C34.1501 40.2968 30.5601 47.2868 26.6701 48.7368C26.7901 49.1468 29.8401 49.3268 31.5801 49.3268C35.7401 49.3268 38.7201 44.4168 44.2201 38.6568C44.7501 38.1068 45.2201 37.5568 45.6901 37.0268H48.5301C47.1469 38.0314 45.6329 38.8422 44.0301 39.4368C44.1501 39.8468 47.2101 40.0268 48.9501 40.0268C51.8567 39.8415 54.6529 38.8436 57.0201 37.1468C61.7001 38.1468 55.7201 40.3868 52.1801 41.7068C52.3001 42.1168 55.3601 42.2968 57.0901 42.2968C61.0101 42.2968 67.8201 39.6168 73.0901 34.2968C73.4743 34.0311 73.8178 33.7111 74.1101 33.3468Z" fill="#0B324A"/>
<path d="M33.9383 25.86C28.3983 25.97 42.9383 9.5 41.1183 6.34C41.8782 5.52758 42.9269 5.04633 44.0383 5C48.1883 5 51.5683 12.73 51.5683 22.27C51.5683 31.81 49.0583 36.88 44.8983 36.88C43.1583 36.88 39.8983 36.58 39.4183 35.88C42.1283 33.29 44.5383 25.63 33.9383 25.86Z" fill="#75554A"/>
<path d="M7.28125 17.2692C7.28125 25.2692 19.5613 31.8092 34.7113 31.8092C49.8613 31.8092 64.8113 33.8092 63.7113 25.8092C61.6513 11.3592 51.1113 -3.19077 34.7113 2.72923C29.3713 4.65923 24.1813 0.39924 19.7713 1.81924C12.4313 4.18924 7.28125 12.2492 7.28125 17.2692Z" fill="#7F625A"/>
<path d="M27.2446 29.9256C24.5746 25.0656 30.1546 21.7656 28.3846 18.6056C29.1408 17.7938 30.1862 17.3124 31.2946 17.2656C35.4446 17.2656 38.8146 24.9956 38.8146 34.5356C38.8146 44.0756 36.3146 49.1456 32.1546 49.1456C30.4146 49.1456 27.1546 48.8456 26.6746 48.1456C29.3846 45.5756 30.4446 35.7556 27.2446 29.9256Z" fill="#7F625A"/>
<path d="M21.7957 24.9604C26.3657 21.8304 22.8757 16.3704 25.8857 14.3504C25.5736 13.284 24.8555 12.3827 23.8857 11.8404C20.1757 9.97038 13.6757 15.3404 9.36568 23.8404C5.05568 32.3404 8.36568 42.2804 12.0757 44.1504C13.6257 44.9404 16.6357 46.1504 17.4057 45.7604C16.1657 42.2104 16.2957 28.7304 21.7957 24.9604Z" fill="#75554A"/>
<path d="M46.0398 31.6519C40.4998 31.7619 55.0398 15.2919 53.2298 12.1319C54.1298 11.2719 56.7698 9.97194 56.1398 10.7919C55.5098 11.6119 63.6698 16.2919 63.6698 25.7919C63.6698 35.2919 61.1598 42.6419 57.0098 42.6419C55.2598 42.6419 52.0098 42.3419 51.5298 41.6419C54.2398 39.0819 56.6498 31.4219 46.0398 31.6519Z" fill="#7F625A"/>
<path d="M3.43069 12.1853C2.75152 12.4162 2.12334 12.7761 1.58068 13.2453C1.24068 11.6053 1.69068 10.1253 2.72068 9.76532C3.75068 9.40532 5.08068 10.3253 5.83068 11.8853C5.01833 11.806 4.19852 11.9085 3.43069 12.1853Z" fill="#9E7363"/>
<path d="M0.544564 20.4671C5.26456 27.8371 12.3046 29.5871 20.1546 29.5871C28.0046 29.5871 29.7946 24.7671 29.7946 17.3771C29.7946 9.98712 29.9546 -0.882884 22.1546 0.0571164C19.3446 0.397116 16.3046 2.43712 12.1546 4.37712C0.904565 9.66712 -1.20544 17.7571 0.544564 20.4671Z" fill="#7F625A"/>
<path d="M11.6469 13.652C11.1043 13.1803 10.4763 12.8171 9.79688 12.582C11.0669 11.482 12.5769 11.152 13.3969 11.882C14.2169 12.612 14.0569 14.212 13.0569 15.632C12.7392 14.8758 12.2577 14.1995 11.6469 13.652Z" fill="#9E7363"/>
<path d="M0.582266 27.339C0.202266 28.649 2.97227 29.839 4.58227 29.839C8.09227 29.839 8.93227 27.169 11.9023 25.349C14.6823 23.659 1.70226 16.199 1.59226 20.349C1.67592 22.7206 1.33385 25.088 0.582266 27.339Z" fill="#7F625A"/>
<path d="M0.57818 27.3423C0.62818 27.1723 0.67818 27.0123 0.71818 26.8623C1.25054 25.4111 1.52468 23.878 1.52818 22.3323C1.52818 21.2023 3.05818 21.8623 3.13818 20.9523C3.21818 20.0423 3.55818 19.2923 4.02818 19.2223C4.38106 19.1774 4.73792 19.2666 5.02818 19.4723C5.44818 19.7623 5.51818 20.6423 5.34818 21.8223C5.12818 23.3423 7.78818 23.8223 7.85818 24.6523C8.07818 27.5023 5.53818 30.6523 3.27818 28.8423C2.27818 28.0323 2.06817 27.0423 1.47817 26.9623C1.14817 26.9623 0.818186 27.3523 0.568186 27.7723C0.536717 27.6302 0.540142 27.4827 0.57818 27.3423Z" fill="#9E7363"/>
<path d="M6.79688 21.4778C6.79688 21.8778 7.03687 22.1978 7.32687 22.1978C7.61687 22.1978 7.85687 21.8778 7.85687 21.4778C7.85687 21.0778 7.61687 20.7578 7.32687 20.7578C7.03687 20.7578 6.79688 21.0778 6.79688 21.4778Z" fill="black"/>
<path d="M1.60156 20.009C1.60156 20.409 1.83156 20.729 2.13156 20.729C2.43156 20.729 2.66156 20.409 2.66156 20.009C2.66156 19.609 2.42156 19.2891 2.13156 19.2891C1.84156 19.2891 1.60156 19.579 1.60156 20.009Z" fill="black"/>
<path d="M0.927674 26.867C0.794184 26.9616 0.69246 27.0944 0.635895 27.2479C0.579331 27.4014 0.570573 27.5684 0.610779 27.727C0.650986 27.8856 0.738275 28.0283 0.861146 28.1363C0.984016 28.2443 1.13671 28.3126 1.29913 28.3321C1.46156 28.3517 1.6261 28.3216 1.77109 28.2458C1.91608 28.17 2.03473 28.0521 2.11142 27.9076C2.18811 27.7631 2.21925 27.5988 2.20073 27.4362C2.18221 27.2737 2.11491 27.1205 2.00768 26.997C1.88157 26.8367 1.69703 26.733 1.49455 26.7086C1.29208 26.6843 1.08821 26.7412 0.927674 26.867Z" fill="black"/>
</svg>
