<svg width="74" height="67" viewBox="0 0 74 67" fill="none" xmlns="http://www.w3.org/2000/svg">
<path opacity="0.2" d="M71.62 51.5382L70.5 50.8883L73.5 49.1782L71.71 48.1782L68.71 49.8883L51.34 39.7582C51.4114 39.6875 51.4571 39.595 51.4698 39.4953C51.4824 39.3956 51.4614 39.2946 51.41 39.2083C51.38 39.1542 51.3393 39.1068 51.2906 39.0689C51.2418 39.0309 51.1859 39.0032 51.1261 38.9873C51.0664 38.9714 51.0041 38.9678 50.9429 38.9765C50.8817 38.9853 50.8229 39.0063 50.77 39.0382L50.44 39.2282L33.94 29.6382L36.52 28.1482L34.75 27.0982L32.17 28.5982L25.86 24.9282C25.7062 24.8381 25.5228 24.8127 25.3503 24.8577C25.1778 24.9027 25.0302 25.0144 24.94 25.1682C24.8498 25.3221 24.8245 25.5054 24.8695 25.678C24.9145 25.8505 25.0262 25.9981 25.18 26.0882L30.75 29.3382L5.75 43.7782L7.56 44.7782L32.56 30.3482L49.08 39.9482L45.25 42.1982L36.86 37.3282C32.05 40.1082 32.02 44.6083 36.8 47.3883C41.58 50.1683 49.36 50.1683 54.17 47.3883L46.17 42.7382L50 40.4882L67.32 50.5482L42.75 64.8382L44.55 65.8382L69.16 51.6282L70.94 52.6282C71.0442 52.6859 71.161 52.7168 71.28 52.7182C71.3983 52.7187 71.5145 52.6874 71.6165 52.6276C71.7186 52.5678 71.8027 52.4817 71.86 52.3782C71.9271 52.2327 71.9398 52.0679 71.8957 51.9138C71.8517 51.7596 71.7539 51.6264 71.62 51.5382Z" fill="#0B324A"/>
<path d="M36.1031 27.125C36.1031 31.445 33.3931 39.345 24.0231 39.345C14.6531 39.345 11.9531 30.995 11.9531 27.125C11.9531 23.255 17.3631 20.125 24.0231 20.125C30.6831 20.125 36.1031 23.265 36.1031 27.125Z" fill="#47342D"/>
<path d="M32.7536 22.2753C37.3736 25.0453 37.2136 29.4753 32.4036 32.1653C27.5936 34.8553 19.9436 34.7653 15.3236 31.9853C10.7036 29.2053 10.8636 24.7853 15.6836 22.0953C20.5036 19.4053 28.1236 19.4953 32.7536 22.2753Z" fill="#9E7363"/>
<path d="M30.8493 26.1843C28.79 25.1072 26.5049 24.533 24.1811 24.5086C21.8572 24.4843 19.5606 25.0105 17.4792 26.0443C14.6892 27.6043 13.8992 29.9043 15.1392 31.8743L15.3092 31.9843C19.9292 34.7643 27.5692 34.8443 32.3892 32.1643L32.9192 31.8443C34.0992 29.9443 33.4293 27.7343 30.8493 26.1843Z" fill="#DD7003"/>
<path d="M47.06 41.3975L45.8 40.6775L44.96 42.1275V31.9075L50.7 21.9075L49.44 21.1875L43.98 30.6475L38.04 27.3375L36.75 29.5075L42.28 32.6475C42.28 32.6475 42.34 63.8675 42.34 65.2775C42.3494 65.3919 42.3885 65.5019 42.4533 65.5966C42.5182 65.6913 42.6067 65.7674 42.71 65.8175C42.9994 65.9658 43.3199 66.0431 43.645 66.0431C43.9702 66.0431 44.2906 65.9658 44.58 65.8175C44.6883 65.772 44.782 65.6975 44.8508 65.6022C44.9196 65.507 44.9608 65.3946 44.97 65.2775C44.97 64.6675 44.97 45.0075 44.97 45.0075L47.06 41.3975Z" fill="#372823"/>
<path d="M38.2306 28.8941C38.19 29.0438 38.115 29.182 38.0118 29.2977C37.9085 29.4134 37.7797 29.5036 37.6356 29.561C37.4915 29.6184 37.336 29.6414 37.1814 29.6284C37.0269 29.6153 36.8775 29.5665 36.745 29.4857C36.6126 29.405 36.5007 29.2945 36.4183 29.1631C36.3359 29.0317 36.2853 28.8829 36.2703 28.7285C36.2553 28.5741 36.2765 28.4183 36.3321 28.2735C36.3877 28.1287 36.4762 27.9988 36.5906 27.8941C36.6313 27.7444 36.7062 27.6062 36.8095 27.4905C36.9128 27.3747 37.0416 27.2846 37.1857 27.2272C37.3298 27.1698 37.4853 27.1467 37.6398 27.1598C37.7944 27.1729 37.9438 27.2217 38.0763 27.3025C38.2087 27.3832 38.3205 27.4937 38.4029 27.6251C38.4853 27.7565 38.536 27.9053 38.551 28.0597C38.566 28.2141 38.5448 28.3699 38.4892 28.5147C38.4336 28.6595 38.3451 28.7894 38.2306 28.8941Z" fill="#372823"/>
<path d="M38.1339 28.8088C38.0158 28.9162 37.87 28.9886 37.713 29.0179C37.556 29.0472 37.394 29.0322 37.245 28.9746C37.0961 28.917 36.9661 28.819 36.8697 28.6917C36.7733 28.5644 36.7142 28.4127 36.6992 28.2537C36.6841 28.0948 36.7136 27.9347 36.7843 27.7915C36.855 27.6484 36.9643 27.5277 37.0997 27.4431C37.2352 27.3585 37.3915 27.3133 37.5512 27.3125C37.7109 27.3117 37.8677 27.3555 38.0039 27.4388C38.1968 27.6071 38.3179 27.843 38.342 28.0978C38.3662 28.3527 38.2917 28.6072 38.1339 28.8088Z" fill="#9E7363"/>
<path d="M10.5213 20.16L9.26125 19.44L8.42125 20.89V10.67L14.1613 0.719999L12.9012 0L7.44125 9.46L1.53125 6.1L0.28125 8.27L5.75125 11.41C5.75125 11.41 5.82125 42.63 5.82125 44.04C5.83063 44.1544 5.8697 44.2644 5.93459 44.3591C5.99947 44.4538 6.08794 44.5299 6.19125 44.58C6.4781 44.7307 6.79724 44.8094 7.12125 44.8094C7.44525 44.8094 7.76441 44.7307 8.05125 44.58C8.16144 44.5359 8.2572 44.4621 8.32784 44.3667C8.39847 44.2714 8.44119 44.1582 8.45125 44.04C8.45125 43.43 8.45125 23.77 8.45125 23.77L10.5213 20.16Z" fill="#372823"/>
<path d="M1.68078 7.65436C1.54408 7.78141 1.37456 7.86767 1.19139 7.90339C1.00822 7.9391 0.818715 7.92286 0.644301 7.85648C0.469887 7.7901 0.317531 7.67624 0.204459 7.52777C0.0913868 7.37931 0.0221147 7.20217 0.00447705 7.01639C-0.0131606 6.8306 0.0215365 6.64359 0.104651 6.4765C0.187766 6.30941 0.315977 6.16892 0.474783 6.0709C0.63359 5.97289 0.816654 5.92127 1.00327 5.92188C1.18989 5.92249 1.37261 5.97531 1.53078 6.07437C1.75399 6.26801 1.8941 6.54016 1.92203 6.83434C1.94996 7.12853 1.86356 7.42217 1.68078 7.65436Z" fill="#372823"/>
<path d="M1.591 7.56293C1.47358 7.67107 1.32838 7.74439 1.17165 7.77468C1.01492 7.80498 0.852842 7.79105 0.703576 7.73447C0.55431 7.67788 0.423744 7.58086 0.326485 7.45428C0.229227 7.3277 0.169122 7.17654 0.152894 7.01774C0.136666 6.85893 0.164952 6.69875 0.234597 6.55511C0.304242 6.41147 0.412492 6.29005 0.547227 6.20444C0.681962 6.11883 0.837864 6.07242 0.997483 6.07038C1.1571 6.06835 1.31413 6.11078 1.451 6.19293C1.64543 6.35986 1.76836 6.59506 1.79441 6.84999C1.82046 7.10492 1.74765 7.36013 1.591 7.56293Z" fill="#9E7363"/>
<path d="M47.7492 32.6482C47.6302 32.6467 47.5134 32.6158 47.4092 32.5582L1.57921 5.94815C1.42523 5.85821 1.31275 5.71138 1.26599 5.5393C1.21922 5.36722 1.24193 5.18365 1.32921 5.02815C1.3728 4.95092 1.43129 4.88312 1.50129 4.82866C1.57129 4.77421 1.6514 4.7342 1.73698 4.71095C1.82256 4.68769 1.9119 4.68166 1.99983 4.69319C2.08776 4.70473 2.17252 4.73361 2.24921 4.77815L48.0492 31.3982C48.1772 31.4722 48.2771 31.5864 48.3334 31.7231C48.3897 31.8599 48.3991 32.0114 48.3603 32.154C48.3215 32.2967 48.2366 32.4225 48.1189 32.5119C48.0011 32.6013 47.8571 32.6492 47.7092 32.6482H47.7492Z" fill="#6B4E43"/>
<path d="M29.2381 17.0266C27.5281 16.0266 25.2981 16.2466 22.9581 17.6066C18.3281 20.2766 14.5681 26.7866 14.5781 32.1066C14.5808 32.2401 14.6356 32.3673 14.731 32.4608C14.8264 32.5543 14.9546 32.6067 15.0881 32.6066C15.1546 32.608 15.2207 32.596 15.2826 32.5715C15.3444 32.5469 15.4007 32.5103 15.4482 32.4638C15.4957 32.4172 15.5334 32.3616 15.5591 32.3003C15.5849 32.239 15.5982 32.1731 15.5981 32.1066C15.5981 27.1066 19.1082 20.9866 23.4581 18.4766C25.4581 17.3066 27.3581 17.1066 28.7381 17.9066C29.3099 18.29 29.7876 18.7977 30.1357 19.3916C30.4837 19.9855 30.6931 20.6504 30.7481 21.3366L31.8381 21.9666C31.7481 19.6666 30.7481 17.9166 29.2381 17.0266Z" fill="#47342D"/>
<path d="M29.3572 44.8129C29.0059 43.782 28.2671 42.9283 27.2972 42.4329C27.1972 42.3795 27.0856 42.3516 26.9722 42.3516C26.8588 42.3516 26.7472 42.3795 26.6472 42.4329L16.8672 49.3329C16.9677 49.2811 17.0791 49.2541 17.1922 49.2541C17.3052 49.2541 17.4167 49.2811 17.5172 49.3329C18.4863 49.837 19.2266 50.6917 19.5872 51.7229C19.8172 52.3929 19.7672 52.8929 19.4872 53.0829L29.2672 46.1829C29.5372 45.9829 29.5972 45.4829 29.3572 44.8129Z" fill="#47342D"/>
<path d="M17.5134 49.3329C18.4825 49.837 19.2228 50.6917 19.5834 51.7229C19.9434 52.7229 19.5834 53.3829 18.8334 53.1129C17.8566 52.6109 17.1114 51.7511 16.7534 50.7129C16.4034 49.6729 16.7534 49.0529 17.5134 49.3329Z" fill="#47342D"/>
<path d="M17.5697 49.5127C18.4497 49.958 19.1207 50.7295 19.4397 51.6627C19.7697 52.6027 19.4397 53.1627 18.7697 52.9127C17.8878 52.47 17.2159 51.6975 16.8997 50.7627C16.5697 49.8227 16.8697 49.2627 17.5697 49.5127Z" fill="#C18F80"/>
<path d="M19.322 41.8161L28.322 50.4361C28.142 50.2661 27.772 50.3061 27.262 50.6061C26.3285 51.17 25.5917 52.0081 25.152 53.0061C25.032 53.3561 25.052 53.5961 25.152 53.7161L16.152 45.1061C16.022 44.9761 16.002 44.7361 16.152 44.3961C16.5911 43.3951 17.3278 42.5536 18.262 41.9861C18.752 41.6961 19.152 41.6461 19.322 41.8161Z" fill="#9E7363"/>
<path d="M28.3607 51.148C27.9183 52.1443 27.1821 52.9817 26.2507 53.548C25.3707 54.068 24.8707 53.818 25.1607 53.008C25.6004 52.01 26.3372 51.1719 27.2707 50.608C28.1507 50.088 28.6507 50.338 28.3607 51.148Z" fill="#563429"/>
<path d="M28.1954 51.2439C27.8009 52.1344 27.1453 52.8841 26.3154 53.3939C25.5154 53.8539 25.0754 53.6339 25.3154 52.9039C25.7179 52.0124 26.3801 51.2631 27.2154 50.7539C28.0154 50.3339 28.4554 50.5139 28.1954 51.2439Z" fill="#C18F80"/>
<path d="M29.2352 50.5225L19.8153 52.4025C18.9653 52.5825 18.0653 51.7325 17.8153 50.5025C17.5653 49.2725 18.0553 48.1325 18.9153 47.9425L28.3253 46.0625C27.4653 46.2525 26.9752 47.3925 27.2352 48.6225C27.4952 49.8525 28.3752 50.7025 29.2352 50.5225Z" fill="#54423C"/>
<path d="M30.3244 47.9754C30.5744 49.2054 30.0844 50.3454 29.2344 50.5254C28.3844 50.7054 27.4744 49.8554 27.2344 48.6254C26.9944 47.3954 27.4644 46.2554 28.3244 46.0654C29.1844 45.8754 30.0644 46.7354 30.3244 47.9754Z" fill="#47342D"/>
<path d="M30.1576 48.0081C30.3776 49.1081 29.9476 50.1281 29.1576 50.2881C28.3676 50.4481 27.5977 49.6881 27.3777 48.5981C27.1577 47.5081 27.5877 46.4781 28.3777 46.3181C29.1677 46.1581 29.9276 46.9181 30.1576 48.0081Z" fill="#C18F80"/>
<path d="M23.1828 44.7184C23.1828 46.7184 22.1828 48.4184 20.9028 48.4184C19.6228 48.4184 18.6328 46.7584 18.6328 44.7184C18.6328 42.6784 20.9028 38.8984 20.9028 38.8984C20.9028 38.8984 23.1828 42.6684 23.1828 44.7184Z" fill="#FFC239"/>
<path d="M26.2297 42.3356C26.2297 44.3356 25.2297 46.0456 23.9597 46.0456C22.6897 46.0456 21.6797 44.3856 21.6797 42.3356C21.6797 40.2856 23.9597 36.5156 23.9597 36.5156C23.9597 36.5156 26.2297 40.3356 26.2297 42.3356Z" fill="#FFC239"/>
<path d="M28.33 45.2184C28.33 47.2684 27.33 48.9184 26.06 48.9184C24.79 48.9184 23.75 47.2684 23.75 45.2184C23.75 43.1684 26.03 39.3984 26.03 39.3984C26.03 39.3984 28.33 43.1784 28.33 45.2184Z" fill="#FFC239"/>
<path d="M24.7484 46.5744C24.7484 47.7444 24.1684 48.6944 23.4484 48.6944C22.7284 48.6944 22.1484 47.6944 22.1484 46.5744C22.3694 45.3896 22.8103 44.2568 23.4484 43.2344C24.0865 44.2568 24.5275 45.3896 24.7484 46.5744Z" fill="#FF7F15"/>
<path d="M21.6512 37.1747C21.6512 37.5647 21.4513 37.8747 21.2113 37.8747C20.9713 37.8747 20.7812 37.5647 20.7812 37.1747C20.8525 36.7775 20.9984 36.3975 21.2113 36.0547C21.4285 36.3963 21.5779 36.7765 21.6512 37.1747Z" fill="#FF7F15"/>
<path d="M26.4247 38.5091C26.4247 38.6791 26.3347 38.8191 26.2347 38.8191C26.1347 38.8191 26.0547 38.6791 26.0547 38.5091C26.086 38.3429 26.147 38.1837 26.2347 38.0391C26.3267 38.1825 26.3911 38.3419 26.4247 38.5091Z" fill="#FF7F15"/>
</svg>
