<svg width="60" height="40" viewBox="0 0 60 40" fill="none" xmlns="http://www.w3.org/2000/svg">
<path d="M59.33 17.18L29.75 34.37L0 17.19L29.57 0L59.33 17.18Z" fill="#CFD18F"/>
<path d="M29.75 34.3675V39.5975L0 22.4175V17.1875L29.75 34.3675Z" fill="#98AD48"/>
<path d="M29.75 34.3697V39.5997L59.33 22.4097V17.1797L29.75 34.3697Z" fill="#50770C"/>
<path d="M29.75 36.9769V39.5969L0 22.4169V19.7969L29.75 36.9769Z" fill="#9E7363"/>
<path d="M29.75 36.9769V39.5969L59.33 22.4069V19.7969L29.75 36.9769Z" fill="#75554A"/>
<path d="M31.9559 2.86871C32.2242 2.95864 32.4575 3.13061 32.6227 3.36029C32.788 3.58997 32.8769 3.86576 32.8769 4.14871C32.8769 4.43166 32.788 4.70745 32.6227 4.93713C32.4575 5.16682 32.2242 5.33878 31.9559 5.42871C31.2705 5.77422 30.5136 5.95419 29.7459 5.95419C28.9783 5.95419 28.2214 5.77422 27.5359 5.42871C26.3159 4.71871 26.3059 3.56871 27.5359 2.86871C28.22 2.51854 28.9775 2.33594 29.7459 2.33594C30.5144 2.33594 31.2719 2.51854 31.9559 2.86871Z" fill="#C4B470"/>
<path d="M13.3559 14.1006C13.6242 14.1905 13.8575 14.3624 14.0227 14.5921C14.188 14.8218 14.2769 15.0976 14.2769 15.3806C14.2769 15.6635 14.188 15.9393 14.0227 16.169C13.8575 16.3987 13.6242 16.5706 13.3559 16.6606C12.6722 17.006 11.9169 17.1859 11.1509 17.1859C10.3849 17.1859 9.62964 17.006 8.94594 16.6606C7.71594 15.9506 7.71594 14.8006 8.94594 14.1006C9.62871 13.752 10.3844 13.5703 11.1509 13.5703C11.9175 13.5703 12.6732 13.752 13.3559 14.1006Z" fill="#BEC675"/>
<path d="M47.8053 18.2037C47.9689 18.2599 48.1108 18.3657 48.2112 18.5065C48.3117 18.6472 48.3657 18.8158 48.3657 18.9887C48.3657 19.1617 48.3117 19.3303 48.2112 19.471C48.1108 19.6117 47.9689 19.7176 47.8053 19.7737C47.3866 19.9847 46.9242 20.0947 46.4553 20.0947C45.9864 20.0947 45.5241 19.9847 45.1053 19.7737C44.3553 19.3337 44.3453 18.6337 45.1053 18.2037C45.5241 17.9927 45.9864 17.8828 46.4553 17.8828C46.9242 17.8828 47.3866 17.9927 47.8053 18.2037Z" fill="#BEC675"/>
<path d="M30.5556 18.2648C30.7421 18.3385 30.9021 18.4666 31.0149 18.6324C31.1277 18.7983 31.188 18.9942 31.188 19.1948C31.188 19.3953 31.1277 19.5913 31.0149 19.7571C30.9021 19.923 30.7421 20.0511 30.5556 20.1248C30.0576 20.3809 29.5056 20.5146 28.9456 20.5146C28.3855 20.5146 27.8336 20.3809 27.3356 20.1248C27.149 20.0511 26.989 19.923 26.8762 19.7571C26.7634 19.5913 26.7031 19.3953 26.7031 19.1948C26.7031 18.9942 26.7634 18.7983 26.8762 18.6324C26.989 18.4666 27.149 18.3385 27.3356 18.2648C27.8336 18.0086 28.3855 17.875 28.9456 17.875C29.5056 17.875 30.0576 18.0086 30.5556 18.2648Z" fill="#E0D39B"/>
<path d="M19.4844 11.9272C20.2493 12.5098 20.9002 13.2285 21.4044 14.0472C22.0695 14.1578 22.7502 14.1306 23.4044 13.9672C23.6483 12.4369 24.1667 10.9633 24.9344 9.61719C24.0405 10.2552 23.3857 11.174 23.0744 12.2272C23.0266 11.4907 22.7425 10.7893 22.2644 10.2272C22.4157 10.8824 22.4763 11.5554 22.4444 12.2272C22.1063 11.2467 21.4565 10.4037 20.5944 9.82718C21.3556 11.0587 21.9002 12.4116 22.2044 13.8272C21.9061 13.3404 21.5105 12.9205 21.0425 12.5935C20.5745 12.2666 20.0441 12.0398 19.4844 11.9272Z" fill="#BEC675"/>
<path d="M39.1328 10.4375C39.8187 10.6742 40.4657 11.0112 41.0528 11.4375C41.7014 11.4978 42.3542 11.4978 43.0028 11.4375C43.324 10.6456 43.8525 9.95473 44.5328 9.4375C43.8059 9.62302 43.1575 10.0366 42.6828 10.6175C42.6254 10.4129 42.5216 10.2244 42.3793 10.0665C42.2371 9.90869 42.0603 9.78581 41.8628 9.70749C42.017 9.9809 42.0833 10.2951 42.0528 10.6075C41.5556 10.0716 40.9125 9.69273 40.2028 9.51749C40.8786 9.98658 41.4281 10.6152 41.8028 11.3475C41.0041 10.8233 40.0854 10.5102 39.1328 10.4375Z" fill="#BEC675"/>
<path d="M36.1594 28.2591C35.6554 28.6387 35.2279 29.1104 34.8994 29.649C34.4741 29.7392 34.0346 29.7392 33.6094 29.649C33.4524 28.6429 33.1135 27.6738 32.6094 26.7891C33.2006 27.2039 33.6341 27.8066 33.8394 28.4991C33.8665 28.0128 34.0527 27.549 34.3694 27.179C34.2707 27.605 34.2304 28.0423 34.2494 28.479C34.4663 27.8248 34.8912 27.2594 35.4594 26.869C34.9585 27.686 34.6001 28.5821 34.3994 29.519C34.5918 29.2005 34.8471 28.9245 35.1497 28.7079C35.4523 28.4913 35.7958 28.3386 36.1594 28.2591Z" fill="#BEC675"/>
</svg>
