<svg width="58" height="44" viewBox="0 0 58 44" fill="none" xmlns="http://www.w3.org/2000/svg">
<g filter="url(#filter0_d_189_12)">
<path opacity="0.2" d="M52.5692 14.5206C51.6292 12.8706 50.6292 10.3006 48.7792 9.21057C46.9292 8.12057 44.1891 8.53057 42.2991 8.52057C38.5091 8.52057 36.9692 11.1806 38.8492 14.5206C39.4461 15.5232 40.2027 16.4217 41.0892 17.1806C40.3692 18.0206 39.5692 18.9306 38.7192 19.8906C36.2092 18.3406 33.1091 16.1106 30.0091 16.1106C26.5691 16.1106 23.1291 18.8606 20.5091 20.3906C15.2691 23.3906 15.3092 28.3906 20.5692 31.3906C24.393 33.3671 28.7382 34.1013 32.9992 33.4906C35.5813 34.8649 38.5333 35.3831 41.4292 34.9706C45.4292 34.2006 46.4992 31.0706 43.8392 27.9706C43.6592 27.7606 43.4691 27.5406 43.2891 27.3006C43.8791 25.4006 43.2392 23.3906 41.3692 21.7006C42.1637 20.8179 42.9018 19.886 43.5791 18.9106C45.2691 19.8943 47.1751 20.4473 49.1292 20.5206C52.9292 20.5006 54.4492 17.8306 52.5692 14.5206Z" fill="#0B324A"/>
<path d="M22.2299 16.2678C20.7599 15.3278 15.9799 16.0778 14.9499 17.5378C13.1099 19.7978 19.15 33.0078 19.31 32.8978C19.6385 33.5583 20.1575 34.1052 20.8 34.4678L21.1699 34.6578L21.5399 34.7978C22.2478 35.044 23.0222 35.0163 23.7106 34.7202C24.3991 34.4241 24.9518 33.881 25.2599 33.1978C25.6655 32.475 25.807 31.6335 25.66 30.8178C25.36 30.8178 24.1799 17.6678 22.2299 16.2678Z" fill="#F68910"/>
<path d="M25.2602 28.4441C24.5202 24.6141 23.8102 17.2841 22.2602 16.2641C20.7102 15.2441 16.0102 16.0741 14.9802 17.5341C13.7502 19.1241 16.3802 26.7441 18.2202 30.5341C20.7259 30.577 23.1839 29.8473 25.2602 28.4441Z" fill="#DD7003"/>
<path d="M29.5332 11.1312C35.6132 13.4312 33.3332 18.4912 28.8032 22.9812C24.2732 27.4712 18.6732 29.3912 12.1432 27.1512C5.61319 24.9112 1.14319 18.9812 6.14319 14.4112C8.52319 12.1212 12.3832 8.41117 17.1932 7.92117C22.0032 7.43117 26.5932 9.98117 29.5332 11.1312Z" fill="#9E7363"/>
<path d="M39.2228 5.88444C38.7728 4.02444 36.8328 4.03444 36.2228 5.75444C36.3628 8.49444 31.6928 27.2144 30.7528 26.9744C30.3748 27.8136 30.0801 28.6878 29.8727 29.5844C29.8727 29.7344 29.8127 29.8644 29.7927 30.0044C29.7727 30.1444 29.7927 30.2744 29.7327 30.3944C29.5727 31.8844 30.3027 32.2144 31.6227 30.9944C32.4178 30.2011 33.0766 29.2821 33.5728 28.2744C34.5128 28.6444 41.0028 8.89444 39.2228 5.88444Z" fill="#E8DCD1"/>
<path d="M38.805 12.8044C39.2732 10.5295 39.4147 8.19934 39.225 5.88444C38.775 4.02444 36.835 4.03444 36.225 5.75444C35.915 6.57444 35.665 9.15444 35.125 12.2244C35.5523 12.7672 36.1689 13.1285 36.8513 13.2361C37.5336 13.3436 38.2314 13.1895 38.805 12.8044Z" fill="#D3BEAE"/>
<path d="M43.9312 2.65596C47.2212 4.72596 46.5112 8.42596 43.0412 10.126C39.5712 11.826 34.8613 10.996 31.8513 8.95596C28.8413 6.91596 28.4812 4.44596 31.7112 2.70596C33.3212 1.85596 35.4712 0.12596 37.7612 0.00595963C40.0512 -0.11404 42.3112 1.60596 43.9312 2.65596Z" fill="#E54600"/>
<path d="M33.5145 25.4386C33.9995 25.0869 34.5788 24.8884 35.1777 24.8688C35.7765 24.8492 36.3675 25.0094 36.8745 25.3286C38.0745 26.3286 38.3245 34.4486 38.1545 34.4386C38.1437 34.6619 38.0718 34.8779 37.9466 35.0631C37.8214 35.2483 37.6477 35.3955 37.4445 35.4886L37.1645 35.6186C37.0652 35.6657 36.9613 35.7025 36.8545 35.7286C36.1217 35.9101 35.3602 35.9452 34.6138 35.832C33.8673 35.7187 33.1506 35.4593 32.5045 35.0686C31.9245 34.6686 31.6945 34.2086 31.7845 33.7886C31.8645 33.7986 32.7145 26.4886 33.5145 25.4386Z" fill="#B9AFA6"/>
<path d="M31.9844 32.4777C32.3844 30.3377 32.8644 26.1977 33.5144 25.4777C33.9994 25.1259 34.5787 24.9275 35.1775 24.9079C35.7764 24.8883 36.3674 25.0484 36.8744 25.3677C37.6644 26.0977 38.2144 30.6177 38.1744 33.0077C36.0965 33.2582 33.9894 33.0778 31.9844 32.4777Z" fill="#A49387"/>
<path d="M30.6287 23.3688C28.0087 25.3688 26.6887 27.9888 29.4387 29.8988C32.1887 31.8088 38.0487 32.4088 40.9387 30.3888C43.8287 28.3688 42.4587 24.5988 39.4787 22.7188C37.9587 21.7188 36.1387 20.0988 34.7687 20.2888C33.3987 20.4788 32.0087 22.3688 30.6287 23.3688Z" fill="#F98F07"/>
</g>
<defs>
<filter id="filter0_d_189_12" x="0" y="0" width="57.375" height="43.8984" filterUnits="userSpaceOnUse" color-interpolation-filters="sRGB">
<feFlood flood-opacity="0" result="BackgroundImageFix"/>
<feColorMatrix in="SourceAlpha" type="matrix" values="0 0 0 0 0 0 0 0 0 0 0 0 0 0 0 0 0 0 127 0" result="hardAlpha"/>
<feOffset dy="4"/>
<feGaussianBlur stdDeviation="2"/>
<feComposite in2="hardAlpha" operator="out"/>
<feColorMatrix type="matrix" values="0 0 0 0 0 0 0 0 0 0 0 0 0 0 0 0 0 0 0.25 0"/>
<feBlend mode="normal" in2="BackgroundImageFix" result="effect1_dropShadow_189_12"/>
<feBlend mode="normal" in="SourceGraphic" in2="effect1_dropShadow_189_12" result="shape"/>
</filter>
</defs>
</svg>
