<svg width="72" height="34" viewBox="0 0 72 34" fill="none" xmlns="http://www.w3.org/2000/svg">
<path d="M22.18 8.89374C20.7227 12.3838 19.9226 16.113 19.82 19.8937C17.8844 21.3828 15.6335 22.409 13.24 22.8937C8.91 17.1037 4.29 12.4137 0 9.55374C3.07 9.75374 7.00001 12.1138 11 15.9438C9.71001 12.6838 7.28 5.44375 7.9 3.03375C9.2888 7.0685 11.001 10.9845 13.02 14.7437C12.48 9.57374 13.02 5.28375 14.61 2.84375C14.4383 8.74131 15.208 14.6285 16.89 20.2838C17.45 14.9638 19.37 10.7337 22.18 8.89374Z" fill="#BEC675"/>
<path d="M12.7969 22.4222C12.7969 22.4222 23.3069 -28.0278 71.7969 22.4222C71.8169 22.4222 27.5069 47.1622 12.7969 22.4222Z" fill="#727272"/>
<path d="M19.1064 17.8849C19.1064 17.8849 40.6464 15.8849 38.1064 4.68487C35.5664 -6.51513 9.88641 17.0549 19.1064 17.8849Z" fill="#CEC9C8"/>
<path d="M20.0084 13.7885C20.0084 13.7885 24.8384 4.60843 27.3384 6.66843C29.8384 8.72843 17.1484 18.2985 20.0084 13.7885Z" fill="#EFEFEF"/>
<path d="M71.82 22.4256C68.4059 18.8395 64.7936 15.4475 61 12.2656C49.15 26.2656 31.62 29.4056 20 29.7856C38.45 41.0556 71.82 22.4256 71.82 22.4256Z" fill="#5B5B5B"/>
<path d="M17.1185 18.8441C16.6713 18.887 16.2474 19.064 15.9025 19.3519C15.5576 19.6398 15.3077 20.0252 15.1855 20.4576C15.0634 20.89 15.0747 21.3492 15.218 21.775C15.3613 22.2008 15.6298 22.5735 15.9885 22.8441C18.1385 24.9641 42.5785 22.2141 44.8885 9.84405C44.8885 9.78405 34.5085 18.6741 17.1185 18.8441Z" fill="#A39B99"/>
<path d="M34.8672 25.2328C37.7186 27.3754 40.138 30.0391 41.9972 33.0828C44.4046 33.4812 46.8678 33.3859 49.2372 32.8028C50.4372 26.3628 52.4072 20.7028 54.9172 16.6328C52.2672 18.0628 49.8372 21.5828 48.0372 26.3128C47.889 23.56 46.8342 20.9335 45.0372 18.8428C45.6066 21.2422 45.8356 23.7097 45.7172 26.1728C43.8272 21.8028 41.4172 18.5828 38.8572 17.2828C41.702 21.8769 43.7318 26.9278 44.8572 32.2128C41.8572 28.1328 38.2072 25.5428 34.8672 25.2328Z" fill="#BEC675"/>
</svg>
