<svg width="75" height="51" viewBox="0 0 75 51" fill="none" xmlns="http://www.w3.org/2000/svg">
<path d="M0 34.2L3.70001 17.51L27.2 13.29L29.53 1.00999L49.87 0L57.4 17.1L74.8 25.94L73.91 42.08L42.89 50.34L30.81 40.07L12.47 42.08L0 34.2Z" fill="#727272"/>
<path d="M3.70001 17.5078L0 34.1978L12.47 42.0778L20.33 25.1578L3.70001 17.5078Z" fill="#A39B99"/>
<path d="M30.5078 40.0997L39.2578 26.6797L42.3578 29.5097L40.9378 36.3597L44.0878 31.0797L46.6978 33.4597L45.8378 42.7097L51.8878 39.8797L54.0278 36.1297L58.7778 37.9697L58.4878 46.1897L42.8878 50.3397L30.5078 40.0997Z" fill="#A39B99"/>
<path d="M73.9225 41.9706L46.3925 47.8106V45.2506L44.6525 47.8506L31.1425 39.1406L35.0525 33.1406L29.5425 37.5206L13.3925 40.1306C13.3925 40.1306 5.8725 36.5006 0.0625 33.9706V34.2006L12.5325 42.0806L30.0425 40.0806L42.9525 50.3606L73.9525 42.1006L73.9225 41.9706Z" fill="#5B5B5B"/>
<path d="M3.70312 17.51L27.2031 14.75L37.4031 20.07L20.3331 25.16L13.6231 22.28L3.70312 17.51Z" fill="#CEC9C8"/>
<path d="M29.5312 1.00999L49.8712 0L50.7013 5.58998L36.4912 7.21001L29.5312 1.00999Z" fill="#CEC9C8"/>
<path d="M57.3978 17.1016L51.3478 25.1616L39.2578 26.6816L46.6978 33.4616L57.2178 31.2616L58.2378 27.5916L71.7078 26.7116L57.3978 17.1016Z" fill="#CEC9C8"/>
<path d="M38.9531 16.6778L36.4931 7.20782L29.5331 1.00781L27.2031 13.2878L27.5531 14.7478L37.4031 20.0678L36.8131 14.1578L38.9531 16.6778Z" fill="#A39B99"/>
<path d="M50.6972 5.58998L53.7272 15.69L50.6972 18.6V22.28L53.9372 21.71L57.3972 17.1L49.8672 0L50.6972 5.58998Z" fill="#5B5B5B"/>
<path d="M68.5328 43.5175V36.4375L66.1328 33.9875L66.4328 29.7875L73.0228 28.4775L74.8028 25.9375L73.9128 42.0775L68.5328 43.5175Z" fill="#5B5B5B"/>
<path d="M3.70312 17.5078L20.3331 23.9878L31.9231 21.7078L21.0631 25.9378L16.3331 33.7678L19.4031 25.2778L3.70312 17.5078Z" fill="#EFEFEF"/>
<path d="M29.9766 1.00781L36.2065 8.42783L38.0865 13.3478L37.3965 7.98782L45.2466 6.20782L36.4865 7.20782L29.9766 1.00781Z" fill="#EFEFEF"/>
<path d="M44.0938 31.0781L45.9637 33.7681L46.1338 39.6381L47.6237 34.7281L57.2238 31.2581L46.7038 33.4581L44.0938 31.0781Z" fill="#EFEFEF"/>
</svg>
