<svg width="76" height="37" viewBox="0 0 76 37" fill="none" xmlns="http://www.w3.org/2000/svg">
<path d="M0 24.36L18.6 0L59.49 0.410004L75.17 24.36L46.27 36.75L0 24.36Z" fill="#727272"/>
<path d="M21.5019 1.24219L12.4219 8.67218L31.0019 15.6922L52.5219 12.3922L57.0119 1.24219H21.5019Z" fill="#CEC9C8"/>
<path d="M0 24.3619L12.42 8.67188L31 15.6919L33.47 23.9519L44.5 13.6219L46.27 36.7519L0 24.3619Z" fill="#A39B99"/>
<path d="M54.9766 6.28406L63.9166 29.1841L75.1666 24.3641L59.4865 0.414062L57.0066 1.24408L54.9766 6.28406Z" fill="#5B5B5B"/>
<path d="M67.87 27.4894L51.37 32.5494V29.1794L46.17 35.4294L25.54 29.1794L30.23 27.5994H21.37L0 24.3594L46.27 36.7494L67.87 27.4894Z" fill="#5B5B5B"/>
<path d="M12.4219 8.67218L29.3619 17.0522L33.4719 23.9522V17.2822L44.5019 13.6222L45.2019 22.7122L46.2719 15.6522L52.2219 14.8022L54.9819 19.3122L53.4619 12.8822L57.0119 1.24219L51.1619 12.5922L46.2719 13.3422V11.8922L31.0019 15.6922L12.4219 8.67218Z" fill="#EFEFEF"/>
</svg>
