<svg width="75" height="55" viewBox="0 0 75 55" fill="none" xmlns="http://www.w3.org/2000/svg">
<path d="M43.725 16.6147C43.4862 16.6963 43.2788 16.8506 43.132 17.0559C42.9852 17.2612 42.9062 17.5073 42.9062 17.7597C42.9062 18.0121 42.9852 18.2582 43.132 18.4635C43.2788 18.6688 43.4862 18.8231 43.725 18.9047C43.8892 18.9966 44.0596 19.0768 44.235 19.1447V18.7447H46.775V19.2647C47.0894 19.1891 47.3921 19.0714 47.675 18.9147C47.105 18.4047 46.585 17.9147 46.125 17.4247L48.005 16.8147C47.9106 16.74 47.8102 16.6731 47.705 16.6147C47.0894 16.298 46.4072 16.1328 45.715 16.1328C45.0228 16.1328 44.3405 16.298 43.725 16.6147Z" fill="#ABBA5F"/>
<path d="M6.13281 43.885L14.4528 39.125L15.7728 41.415L8.7728 45.405L6.13281 43.885Z" fill="#F68910"/>
<path d="M3.57437 17.1875L15.7844 38.3675L17.1044 40.6575L25.3744 54.9975L22.7444 53.4775L15.7744 41.4175L14.4543 39.1275L2.23438 17.9475L3.57437 17.1875Z" fill="#F68910"/>
<path opacity="0.2" d="M73.6922 31.7247C73.5795 31.6601 73.4626 31.6033 73.3422 31.5547C68.4183 29.8626 63.6777 27.6782 59.1922 25.0347C55.1192 22.7959 51.36 20.0286 48.0122 16.8047L46.1022 17.4247C46.5622 17.9047 47.1022 18.4247 47.6522 18.9147C50.7487 21.5693 54.0981 23.9138 57.6522 25.9147C61.5108 28.1736 65.5476 30.1134 69.7222 31.7147C69.4902 31.8514 69.2865 32.0313 69.1222 32.2447H46.6622L46.7522 19.2447V18.7447H44.2122V19.1447L44.1322 32.2747H28.3322L30.8222 33.7247H44.1322L44.0822 41.4247L22.7422 53.4447L25.3722 54.9647L46.6122 42.8547L46.6822 33.7147H69.3522C69.4711 33.8326 69.6057 33.9336 69.7522 34.0147C70.371 34.3323 71.0566 34.498 71.7522 34.498C72.4478 34.498 73.1334 34.3323 73.7522 34.0147C73.9844 33.9225 74.1828 33.7613 74.3204 33.5528C74.4581 33.3443 74.5284 33.0985 74.5218 32.8487C74.5153 32.599 74.4322 32.3572 74.2838 32.1562C74.1355 31.9552 73.9289 31.8045 73.6922 31.7247Z" fill="#0B324A"/>
<path d="M28.0812 31.3359L29.4113 33.6459L17.1013 40.6559L15.7812 38.3659L28.0812 31.3359Z" fill="#F68910"/>
<path d="M27.3828 31.7834L35.7028 27.0234L37.0228 29.3034L30.0128 33.3034L27.3828 31.7834Z" fill="#F68910"/>
<path d="M24.8166 5.08594L37.0366 26.2659L38.3466 28.5559L46.6165 42.8959L43.9866 41.3759L37.0266 29.3059L35.7065 27.0259L23.4766 5.84594L24.8166 5.08594Z" fill="#F68910"/>
<path d="M49.3291 19.2344L50.6591 21.5344L38.3491 28.5544L37.0391 26.2644L49.3291 19.2344Z" fill="#F68910"/>
<path d="M2.09 13.3775C2.69349 13.7704 3.19557 14.3005 3.5553 14.9244C3.91503 15.5482 4.12224 16.2483 4.16 16.9675C4.16 18.2875 3.22999 18.8275 2.07999 18.1575C1.47519 17.765 0.971605 17.2353 0.610168 16.6115C0.248732 15.9877 0.0396706 15.2874 0 14.5675C0.01 13.2475 0.939996 12.7175 2.09 13.3775Z" fill="#F98F07"/>
<path d="M29.494 29.2088C30.0988 29.6012 30.6025 30.1309 30.9639 30.7547C31.3253 31.3785 31.5344 32.0789 31.574 32.7988C31.574 34.1188 30.634 34.6488 29.484 33.9888C28.8876 33.6002 28.3901 33.0779 28.0307 32.4634C27.6714 31.8489 27.4603 31.1591 27.4141 30.4488C27.4241 29.0788 28.354 28.5388 29.494 29.2088Z" fill="#F98F07"/>
<path d="M52.0372 16.112C51.8715 16.0122 51.6933 15.9348 51.5072 15.882L51.6872 15.782C46.9946 14.4047 42.5029 12.4177 38.3272 9.872C33.5577 7.16744 29.0806 3.97715 24.9672 0.352L24.8372 0.432C24.7672 0.432 24.6972 0.322 24.6272 0.282C24.4157 0.128583 24.1674 0.03389 23.9074 0.00754389C23.6475 -0.0188022 23.3852 0.0241376 23.1472 0.132L0.617188 13.232C0.85406 13.1217 1.11605 13.0765 1.37619 13.1011C1.63633 13.1257 1.88521 13.2192 2.0972 13.372C2.70069 13.765 3.20277 14.295 3.5625 14.9189C3.92223 15.5428 4.12944 16.2428 4.16721 16.962C4.19342 17.2183 4.15179 17.4771 4.04648 17.7123C3.94117 17.9475 3.77588 18.1508 3.5672 18.302L6.3472 16.682C9.35729 18.9786 12.514 21.0764 15.7972 22.962C19.8161 25.3909 24.114 27.325 28.5972 28.722L28.0272 29.052C28.2644 28.941 28.5273 28.8963 28.7879 28.9227C29.0485 28.9492 29.2971 29.0457 29.5072 29.202C30.112 29.5944 30.6156 30.1241 30.977 30.748C31.3385 31.3718 31.5475 32.0721 31.5872 32.792C31.6115 33.0478 31.568 33.3054 31.4608 33.5389C31.3537 33.7725 31.1869 33.9736 30.9772 34.122L53.4972 21.042C53.7059 20.8908 53.8712 20.6875 53.9765 20.4523C54.0818 20.2171 54.1234 19.9583 54.0972 19.702C54.059 18.9841 53.8526 18.2852 53.4948 17.6616C53.137 17.0381 52.6377 16.5073 52.0372 16.112Z" fill="#7F625A"/>
</svg>
