<svg width="75" height="67" viewBox="0 0 75 67" fill="none" xmlns="http://www.w3.org/2000/svg">
<g opacity="0.2">
<path d="M12.9609 49.3416L24.8309 56.2316L14.7709 62.0416L17.9609 63.8916L21.1209 65.7616L31.1809 59.9516L43.0509 66.8416L51.5609 50.8116L58.5709 54.8816L64.3809 42.0416L67.8709 44.0716L74.3109 31.3516L52.3709 35.0416L55.8609 37.0616L33.6609 40.3916L40.6709 44.4616L12.9609 49.3416Z" fill="#0B324A"/>
</g>
<path d="M15.3744 51.0003C16.3865 51.5023 17.5031 51.7576 18.6328 51.7455C19.7625 51.7333 20.8733 51.454 21.8744 50.9303C22.2352 50.7616 22.5453 50.5009 22.7735 50.1744C23.0017 49.8479 23.1399 49.4671 23.1744 49.0703C23.1744 54.0036 23.1744 58.9336 23.1744 63.8603C23.1387 64.258 23 64.6396 22.7721 64.9675C22.5441 65.2954 22.2348 65.5583 21.8744 65.7303C20.8718 66.2501 19.7608 66.5264 18.6315 66.5368C17.5023 66.5472 16.3864 66.2915 15.3744 65.7903C14.9942 65.6264 14.6649 65.3638 14.4205 65.0297C14.1761 64.6956 14.0255 64.3022 13.9844 63.8903C13.9844 58.9636 13.9844 54.0303 13.9844 49.0903C14.0217 49.5046 14.1707 49.901 14.4154 50.2374C14.6602 50.5737 14.9916 50.8374 15.3744 51.0003Z" fill="#9E7363"/>
<path d="M1.45495 43.42L18.575 20C24.3016 27.7733 30.0316 35.5433 35.765 43.31C38.625 47.19 37.3849 51.85 31.9949 55.07C24.8349 59.36 13.0449 59.48 5.67495 55.34C-0.0350509 52.17 -1.42505 47.41 1.45495 43.42Z" fill="#98AD48"/>
<path d="M18.5719 20L32.7719 39.32C31.9147 40.7085 30.7168 41.8548 29.2919 42.65C23.5519 46.08 14.1119 46.18 8.21188 42.86C6.65305 42.0562 5.34276 40.8427 4.42188 39.35L18.5719 20Z" fill="#74922A"/>
<path d="M4.86883 28.9987L18.5788 10.2188L32.3188 28.8987C34.6088 31.9987 33.6088 35.7388 29.3188 38.3188C23.5788 41.7488 14.1388 41.8387 8.22884 38.5287C3.67884 35.9987 2.57883 32.1687 4.86883 28.9987Z" fill="#98AD48"/>
<path d="M18.575 10.2188L28.135 23.2188C27.6886 23.6331 27.1991 23.9985 26.675 24.3087C22.365 26.8887 15.275 26.9588 10.835 24.4688C10.2164 24.1309 9.64206 23.7177 9.125 23.2388L18.575 10.2188Z" fill="#74922A"/>
<path d="M8.28828 14.07C11.7083 9.35667 15.1383 4.66667 18.5783 0L28.9283 14C30.6383 16.33 29.9283 19.13 26.6483 21.07C22.3383 23.65 15.2483 23.72 10.8183 21.23C7.38828 19.33 6.57828 16.46 8.28828 14.07Z" fill="#98AD48"/>
</svg>
