<svg width="65" height="67" viewBox="0 0 65 67" fill="none" xmlns="http://www.w3.org/2000/svg">
<g opacity="0.2">
<path d="M64.3144 38.8125L64.3744 49.3125L57.1044 45.1125L56.2844 45.5925L56.3444 56.8925L46.5644 51.2425L45.6344 51.7825L45.7244 66.0625L33.6844 59.2525L20.7944 66.7525L16.4844 63.9825L29.3744 56.4925L17.3344 49.6825H41.9944L42.9244 49.1425L33.1444 43.4925H52.6344L53.4644 43.0125L46.1944 38.8125H64.3144Z" fill="#0B324A"/>
</g>
<path d="M20.6406 46.6562L20.6506 66.8562L25.8306 63.8562V48.9463L20.6406 46.6562Z" fill="#75554A"/>
<path d="M20.6375 46.6562L15.4375 48.9362V63.8562L20.6475 66.8562L20.6375 46.6562Z" fill="#9E7363"/>
<path d="M20.6406 26.9062L20.7006 58.1963L41.2706 46.2462L20.6406 26.9062Z" fill="#98AD48"/>
<path d="M20.64 26.9062L0 46.2462L20.7 58.1963L20.64 26.9062Z" fill="#AFC161"/>
<path d="M32.4606 37.9862L20.6406 26.9062L20.6806 44.8262L32.4606 37.9862Z" fill="#74922A"/>
<path d="M8.8125 38.0019L20.6625 44.8419L20.6325 26.9219L8.8125 38.0019Z" fill="#74922A"/>
<path d="M20.6094 13.4531L20.6594 39.5931L37.8394 29.6131L20.6094 13.4531Z" fill="#98AD48"/>
<path d="M20.6072 13.4531L3.36719 29.6131L20.6572 39.5931L20.6072 13.4531Z" fill="#AFC161"/>
<path d="M28.8794 21.2131L20.6094 13.4531L20.6394 26.0031L28.8794 21.2131Z" fill="#74922A"/>
<path d="M12.3281 21.2109L20.6181 26.0009L20.5981 13.4609L12.3281 21.2109Z" fill="#74922A"/>
<path d="M20.5781 0L20.6181 20.98L34.4181 12.96L20.5781 0Z" fill="#98AD48"/>
<path d="M20.5822 0L6.74219 12.96L20.6222 20.98L20.5822 0Z" fill="#AFC161"/>
</svg>
