<svg width="73" height="67" viewBox="0 0 73 67" fill="none" xmlns="http://www.w3.org/2000/svg">
<g opacity="0.2">
<path d="M63.4984 50.225L72.3784 55.345L60.0085 62.535L54.0685 59.105H35.7484L21.8784 66.875L16.6484 63.875L39.6484 50.805L33.3885 47.185L54.5784 34.875L59.0184 37.445L62.0184 35.685L70.8885 40.805L67.8885 42.565L72.3284 45.125L63.4984 50.225ZM39.4284 56.965H50.3784L44.8784 53.795L39.4284 56.965Z" fill="#0B324A"/>
</g>
<path d="M22.9485 63.2218C24.2785 63.9918 24.3784 65.2218 23.2384 66.0418C23.035 66.1816 22.821 66.3053 22.5984 66.4118C21.823 66.7403 20.985 66.8944 20.1434 66.8633C19.3019 66.8322 18.4775 66.6166 17.7285 66.2318C16.2785 65.4118 16.2985 64.0518 17.7285 63.2318C18.5363 62.8193 19.4301 62.6033 20.3372 62.6016C21.2443 62.5998 22.139 62.8124 22.9485 63.2218Z" fill="#9E7363"/>
<path d="M24.0284 3.64844H16.6484V64.7284H24.0284V3.64844Z" fill="#9E7363"/>
<path d="M20.7089 59.9602C20.2243 59.9585 19.7509 59.8136 19.3483 59.5438C18.9457 59.274 18.6318 58.8913 18.4459 58.4437C18.2601 57.9961 18.2105 57.5036 18.3036 57.028C18.3966 56.5523 18.6281 56.1148 18.9689 55.7702L31.9689 42.8202C32.4291 42.3601 33.0531 42.1016 33.7039 42.1016C34.0261 42.1016 34.3452 42.165 34.6429 42.2883C34.9406 42.4116 35.2111 42.5924 35.4389 42.8202C35.6668 43.0481 35.8475 43.3185 35.9708 43.6162C36.0941 43.9139 36.1576 44.233 36.1576 44.5552C36.1576 44.8774 36.0941 45.1965 35.9708 45.4942C35.8475 45.7919 35.6668 46.0624 35.4389 46.2902L22.4389 59.2902C21.9736 59.7336 21.3515 59.9745 20.7089 59.9602Z" fill="#9E7363"/>
<path d="M0 13.1697L20.36 1.42969L40.68 13.1697L20.34 24.9197L0 13.1697Z" fill="#AFC161"/>
<path d="M20.34 24.9219V48.2919L0 36.5419V13.1719L20.34 24.9219Z" fill="#98AD48"/>
<path d="M20.3438 24.9219V48.2919L40.6837 36.5419V13.1719L20.3438 24.9219Z" fill="#74922A"/>
<path d="M25.8047 33.7731L35.4747 28.2031L45.1247 33.7731L35.4647 39.3531L25.8047 33.7731Z" fill="#AFC161"/>
<path d="M35.4647 39.3534V50.4534L25.8047 44.8734V33.7734L35.4647 39.3534Z" fill="#98AD48"/>
<path d="M35.4609 39.3534V50.4534L45.1209 44.8734V33.7734L35.4609 39.3534Z" fill="#74922A"/>
<path d="M10.6797 5.58L20.3497 0L29.9997 5.58L20.3397 11.16L10.6797 5.58Z" fill="#AFC161"/>
<path d="M20.3397 11.1581V18.2481L10.6797 12.6781V5.57812L20.3397 11.1581Z" fill="#98AD48"/>
<path d="M20.3359 11.1581V18.2481L29.9959 12.6781V5.57812L20.3359 11.1581Z" fill="#74922A"/>
</svg>
