<svg width="50" height="67" viewBox="0 0 50 67" fill="none" xmlns="http://www.w3.org/2000/svg">
<g opacity="0.2">
<path d="M48.9 60.2337L44.14 66.8637L31.41 59.5137L23.81 63.9637C23.1812 64.2401 22.481 64.3101 21.81 64.1638C20.8876 64.0262 19.9991 63.7175 19.19 63.2538C18.5485 62.9203 18.0094 62.4192 17.63 61.8037C17.5651 61.7051 17.5217 61.5938 17.5027 61.4773C17.4836 61.3607 17.4894 61.2414 17.5196 61.1273C17.5498 61.0131 17.6038 60.9065 17.6779 60.8146C17.7521 60.7227 17.8448 60.6474 17.95 60.5938L25.59 56.1338L12.75 48.7238L22.81 46.2737L22.28 38.9637L28.88 44.8037L40.14 42.0738L49.14 32.3438L49.76 39.7437L66.51 35.6837L58.08 47.4337L69.16 47.7238L54.62 52.2637L51.02 57.2637L59.53 60.4637L48.9 60.2337Z" fill="#0B324A"/>
</g>
<path d="M16.57 45.0981C17.3485 45.4839 18.2072 45.6804 19.076 45.6718C19.9448 45.6631 20.7993 45.4494 21.57 45.0481C21.848 44.9164 22.0866 44.7142 22.2621 44.4615C22.4375 44.2089 22.5437 43.9146 22.57 43.6081C22.57 47.4081 22.57 59.5581 22.57 63.3481C22.544 63.6534 22.4378 63.9464 22.2622 64.1975C22.0866 64.4486 21.8478 64.6489 21.57 64.7781C20.7963 65.1748 19.9394 65.3816 19.07 65.3816C18.2006 65.3816 17.3437 65.1748 16.57 64.7781C16.2768 64.6536 16.0226 64.4522 15.8343 64.1953C15.6459 63.9383 15.5304 63.6353 15.5 63.3181C15.5 59.5281 15.5 47.3781 15.5 43.5781C15.521 43.9055 15.632 44.2207 15.8208 44.4889C16.0096 44.7571 16.2689 44.968 16.57 45.0981Z" fill="#9E7363"/>
<path d="M18.9844 0L19.0444 57.27L37.9644 46.28L18.9844 0Z" fill="#98AD48"/>
<path d="M18.99 0L0 46.28L19.05 57.27L18.99 0Z" fill="#AFC161"/>
<path d="M28.3538 16.9375L22.3438 37.4275L29.2538 33.4675L28.3538 16.9375Z" fill="#98AD48"/>
<path d="M28.3525 16.9375L21.5625 27.4475L22.3425 37.4275L28.3525 16.9375Z" fill="#AFC161"/>
<path d="M36.9031 36.9219L24.2031 51.8219L31.1231 47.8618L36.9031 36.9219Z" fill="#98AD48"/>
<path d="M36.9097 36.9219L23.4297 41.8419L24.2097 51.8219L36.9097 36.9219Z" fill="#AFC161"/>
<path d="M10.31 11.6875L15.65 29.8875L9.5 26.3675L10.31 11.6875Z" fill="#AFC161"/>
<path d="M10.3047 11.6875L16.3347 21.0275L15.6447 29.8875L10.3047 11.6875Z" fill="#98AD48"/>
<path d="M1.34375 32.8203L12.6338 46.0603L6.48373 42.5503L1.34375 32.8203Z" fill="#AFC161"/>
<path d="M1.34375 32.8203L13.3138 37.2003L12.6338 46.0603L1.34375 32.8203Z" fill="#98AD48"/>
</svg>
