<svg width="64" height="67" viewBox="0 0 64 67" fill="none" xmlns="http://www.w3.org/2000/svg">
<g opacity="0.2">
<path d="M47.6904 54.4627C49.4604 56.3927 48.9504 58.8327 46.1604 60.4627C44.2266 61.4439 42.0888 61.9553 39.9204 61.9553C37.7519 61.9553 35.6141 61.4439 33.6804 60.4627C32.6951 59.9512 31.8919 59.1479 31.3804 58.1627H30.6804L16.4704 66.4227C16.1574 66.5644 15.8102 66.613 15.4704 66.5627H15.2404H14.9904C14.5411 66.4609 14.1096 66.2924 13.7104 66.0627C13.318 65.8672 12.9913 65.5614 12.7704 65.1827C12.7338 65.1238 12.7099 65.0578 12.7002 64.9891C12.6905 64.9204 12.6952 64.8505 12.714 64.7837C12.7329 64.7169 12.7654 64.6548 12.8095 64.6012C12.8536 64.5477 12.9084 64.5039 12.9704 64.4727L23.8704 58.1327V55.3627C23.5193 55.2888 23.1819 55.1606 22.8704 54.9827C22.6087 54.872 22.3866 54.6848 22.2331 54.4457C22.0797 54.2066 22.002 53.9267 22.0104 53.6427C19.8004 51.6427 20.1804 48.9927 23.1604 47.2527C25.9167 45.7945 29.0886 45.3217 32.1504 45.9127C32.4511 45.7911 32.7624 45.6974 33.0804 45.6327C31.9204 43.8227 32.5904 41.7127 35.0804 40.2527C36.8863 39.353 38.8662 38.8565 40.883 38.7978C42.8997 38.7391 44.9052 39.1195 46.7604 39.9127C47.226 39.4037 47.7694 38.9717 48.3704 38.6327C50.3027 37.6468 52.4411 37.1328 54.6104 37.1328C56.7796 37.1328 58.918 37.6468 60.8504 38.6327C64.3104 40.6327 64.3204 43.8627 60.8504 45.8627C60.1473 46.2545 59.4027 46.5664 58.6304 46.7927C61.3904 48.7927 61.1904 51.7227 58.0004 53.5727C54.8066 55.1863 51.1134 55.5051 47.6904 54.4627ZM26.1504 56.7727L27.8004 55.7727C27.2423 55.7103 26.6881 55.6168 26.1404 55.4927V56.7327L26.1504 56.7727Z" fill="#0B324A"/>
</g>
<path d="M17.9509 64.1439C18.8409 64.6539 18.9509 65.4739 18.1409 66.0239C18.0782 66.073 18.0113 66.1165 17.9409 66.1539C17.8675 66.1998 17.7906 66.24 17.7109 66.2739C17.1934 66.493 16.6342 66.5957 16.0726 66.575C15.511 66.5543 14.9609 66.4105 14.4609 66.1539C13.4609 65.6039 13.4609 64.7039 14.4609 64.1539C15.0015 63.8798 15.5987 63.7361 16.2048 63.7344C16.8108 63.7327 17.4088 63.8729 17.9509 64.1439Z" fill="#9E7363"/>
<path d="M7.80759 28.1027C7.52658 27.2267 7.38156 26.3127 7.37759 25.3927C7.33773 24.2088 7.53649 23.029 7.96205 21.9235C8.3876 20.818 9.03125 19.8094 9.85466 18.9578C10.6781 18.1062 11.6644 17.429 12.755 16.9665C13.8455 16.504 15.018 16.2656 16.2026 16.2656C17.3872 16.2656 18.5596 16.504 19.6502 16.9665C20.7408 17.429 21.7271 18.1062 22.5505 18.9578C23.3739 19.8094 24.0176 20.818 24.4431 21.9235C24.8687 23.029 25.0674 24.2088 25.0276 25.3927C25.0278 26.3131 24.8827 27.2277 24.5976 28.1027C26.0735 28.2714 27.4828 28.8101 28.6949 29.6689C29.907 30.5277 30.8825 31.6787 31.5311 33.0151C32.1796 34.3515 32.4801 35.8301 32.4046 37.3137C32.3291 38.7972 31.8802 40.2377 31.0994 41.5015C30.3187 42.7652 29.2314 43.8113 27.9384 44.5426C26.6454 45.274 25.1887 45.6669 23.7033 45.685C22.218 45.7031 20.7521 45.3457 19.4417 44.6461C18.1313 43.9464 17.0189 42.9271 16.2076 41.6827C15.3964 42.9265 14.2842 43.9454 12.9743 44.6448C11.6644 45.3442 10.1991 45.7016 8.71426 45.6838C7.22941 45.666 5.77309 45.2736 4.48032 44.543C3.18755 43.8123 2.10018 42.7671 1.31901 41.5042C0.537851 40.2413 0.0881856 38.8017 0.0117068 37.3187C-0.0647721 35.8357 0.234413 34.3574 0.881523 33.0209C1.52863 31.6843 2.50272 30.5328 3.71347 29.6731C4.92422 28.8133 6.33245 28.2732 7.80759 28.1027Z" fill="#98AD48"/>
<path d="M18.6622 21.2969H13.7422V65.1569H18.6622V21.2969Z" fill="#9E7363"/>
<path d="M7.80833 11.2429C7.5264 10.3671 7.38135 9.45297 7.37833 8.53289C7.4554 6.24377 8.41893 4.07416 10.0655 2.48207C11.7121 0.889982 13.9129 0 16.2033 0C18.4937 0 20.6945 0.889982 22.3411 2.48207C23.9877 4.07416 24.9513 6.24377 25.0283 8.53289C25.0303 9.45336 24.8851 10.3682 24.5983 11.2429C26.0732 11.4127 27.4814 11.952 28.6923 12.8109C29.9033 13.6698 30.8778 14.8205 31.5257 16.1563C32.1735 17.4922 32.4736 18.9699 32.3983 20.4526C32.323 21.9354 31.8746 23.3751 31.0946 24.6383C30.3147 25.9016 29.2286 26.9476 27.9368 27.6793C26.645 28.4111 25.1894 28.8049 23.7049 28.8243C22.2204 28.8437 20.755 28.488 19.4446 27.7903C18.1341 27.0926 17.021 26.0754 16.2083 24.8329C15.3958 26.0748 14.2829 27.0915 12.9729 27.789C11.663 28.4865 10.1981 28.8422 8.71416 28.823C7.23017 28.8039 5.77501 28.4106 4.48343 27.6796C3.19184 26.9486 2.1056 25.9035 1.3253 24.6411C0.544998 23.3787 0.0958668 21.9398 0.0194988 20.4576C-0.0568692 18.9755 0.241994 17.498 0.888414 16.1621C1.53484 14.8262 2.50791 13.675 3.71752 12.8151C4.92714 11.9552 6.33417 11.4144 7.80833 11.2429Z" fill="#98AD48"/>
<path d="M4.7422 29.6641C4.7422 30.4058 4.96213 31.1308 5.37419 31.7475C5.78624 32.3641 6.37192 32.8448 7.05714 33.1286C7.74236 33.4125 8.49636 33.4867 9.22379 33.342C9.95122 33.1973 10.6194 32.8402 11.1439 32.3157C11.6683 31.7913 12.0255 31.1231 12.1701 30.3957C12.3148 29.6682 12.2406 28.9142 11.9567 28.229C11.6729 27.5438 11.1923 26.9581 10.5756 26.5461C9.95891 26.134 9.23388 25.9141 8.4922 25.9141C7.99937 25.9128 7.51114 26.0088 7.05558 26.1968C6.60001 26.3848 6.18609 26.661 5.83761 27.0095C5.48912 27.358 5.21295 27.7719 5.02497 28.2275C4.83698 28.683 4.74088 29.1712 4.7422 29.6641Z" fill="#74922A"/>
<path d="M16.2102 38.7709C16.3966 38.7715 16.5811 38.7346 16.7529 38.6624C16.9247 38.5903 17.0802 38.4843 17.2102 38.3509C17.3421 38.2198 17.4467 38.064 17.5181 37.8924C17.5895 37.7208 17.6262 37.5367 17.6262 37.3509C17.6262 37.165 17.5895 36.981 17.5181 36.8093C17.4467 36.6377 17.3421 36.4819 17.2102 36.3509L9.69024 28.8309C9.5639 28.6794 9.40737 28.5559 9.23064 28.4682C9.05391 28.3805 8.86085 28.3307 8.66378 28.3218C8.46671 28.3129 8.26995 28.3451 8.08603 28.4165C7.90212 28.4878 7.73509 28.5967 7.59559 28.7362C7.4561 28.8757 7.3472 29.0428 7.27584 29.2267C7.20448 29.4106 7.17223 29.6073 7.18114 29.8044C7.19004 30.0015 7.23991 30.1945 7.32756 30.3713C7.41522 30.548 7.53874 30.7045 7.69024 30.8309L15.2102 38.3509C15.4749 38.6177 15.8345 38.7687 16.2102 38.7709Z" fill="#9E7363"/>
<path d="M6.27344 43.5963C6.27344 44.1782 6.44612 44.747 6.76962 45.2307C7.09311 45.7144 7.55287 46.0912 8.09067 46.3134C8.62847 46.5356 9.22012 46.5933 9.79069 46.479C10.3613 46.3648 10.8851 46.0838 11.2959 45.6716C11.7066 45.2594 11.9859 44.7346 12.0982 44.1637C12.2105 43.5927 12.1508 43.0013 11.9268 42.4642C11.7027 41.9272 11.3243 41.4687 10.8395 41.1469C10.3547 40.825 9.78534 40.6543 9.20344 40.6563C8.42544 40.6589 7.6802 40.9698 7.131 41.5209C6.58181 42.072 6.27343 42.8182 6.27344 43.5963Z" fill="#74922A"/>
<path d="M15.2537 50.7346C15.4755 50.7358 15.6927 50.6712 15.8777 50.5488C16.0627 50.4264 16.2072 50.2519 16.2928 50.0473C16.3785 49.8428 16.4016 49.6173 16.359 49.3997C16.3164 49.182 16.2102 48.9819 16.0537 48.8246L10.1537 42.9146C9.9455 42.7051 9.6626 42.5869 9.36724 42.5859C9.07187 42.585 8.78822 42.7014 8.5787 42.9096C8.36918 43.1178 8.25094 43.4007 8.25001 43.6961C8.24907 43.9915 8.3655 44.2751 8.5737 44.4846L14.4737 50.3846C14.573 50.493 14.6935 50.5799 14.8276 50.6401C14.9617 50.7003 15.1067 50.7325 15.2537 50.7346Z" fill="#9E7363"/>
<path d="M29.4793 36.2041C29.4833 37.0565 29.2344 37.891 28.7641 38.6019C28.2938 39.3129 27.6232 39.8684 26.8372 40.1983C26.0512 40.5281 25.185 40.6175 24.3481 40.4551C23.5113 40.2927 22.7415 39.8858 22.1359 39.2858C21.5304 38.6858 21.1163 37.9198 20.9461 37.0845C20.776 36.2492 20.8573 35.3823 21.1798 34.5932C21.5024 33.8042 22.0517 33.1285 22.7582 32.6516C23.4648 32.1747 24.2969 31.9181 25.1493 31.9141C25.7153 31.9115 26.2763 32.0204 26.8002 32.2345C27.3241 32.4487 27.8008 32.764 28.2028 33.1623C28.6049 33.5607 28.9246 34.0343 29.1436 34.5563C29.3626 35.0782 29.4767 35.6381 29.4793 36.2041Z" fill="#74922A"/>
<path d="M16.7528 7.73188C16.7528 8.58432 16.5 9.41762 16.0264 10.1264C15.5529 10.8352 14.8797 11.3876 14.0922 11.7138C13.3046 12.04 12.438 12.1254 11.602 11.9591C10.7659 11.7928 9.99795 11.3823 9.39518 10.7795C8.79242 10.1768 8.38193 9.40879 8.21563 8.57273C8.04933 7.73667 8.13468 6.87007 8.46089 6.08252C8.78711 5.29497 9.33953 4.62184 10.0483 4.14825C10.7571 3.67466 11.5904 3.42189 12.4428 3.42189C13.0092 3.42057 13.5702 3.53115 14.0937 3.74728C14.6172 3.96341 15.0929 4.28083 15.4934 4.68132C15.8939 5.0818 16.2113 5.55745 16.4274 6.08096C16.6435 6.60447 16.7541 7.16552 16.7528 7.73188Z" fill="#74922A"/>
<path d="M28.4628 20.4855C28.4628 21.1353 28.2703 21.7706 27.9097 22.3112C27.5491 22.8518 27.0364 23.2735 26.4364 23.5231C25.8364 23.7726 25.1759 23.839 24.5383 23.7136C23.9006 23.5883 23.3144 23.2769 22.8535 22.8188C22.3926 22.3607 22.0777 21.7763 21.9485 21.1395C21.8193 20.5026 21.8816 19.8417 22.1275 19.2402C22.3735 18.6387 22.7921 18.1235 23.3305 17.7596C23.8689 17.3957 24.503 17.1994 25.1528 17.1954C25.5869 17.1915 26.0175 17.2737 26.4196 17.4374C26.8216 17.6011 27.1872 17.843 27.4951 18.149C27.803 18.455 28.0471 18.8191 28.2132 19.2202C28.3793 19.6213 28.4642 20.0513 28.4628 20.4855Z" fill="#74922A"/>
<path d="M16.3121 46.6657C15.9976 46.6567 15.6923 46.5575 15.4327 46.3799C15.173 46.2022 14.97 45.9536 14.8477 45.6638C14.7254 45.3739 14.6891 45.0549 14.7431 44.745C14.797 44.4351 14.939 44.1472 15.1521 43.9157L23.7921 35.2757C24.0931 34.9627 24.5061 34.7822 24.9403 34.7737C25.3744 34.7653 25.7941 34.9297 26.1071 35.2307C26.4201 35.5317 26.6006 35.9447 26.609 36.3789C26.6175 36.813 26.4531 37.2327 26.1521 37.5457L17.5121 46.1857C17.3554 46.3433 17.1681 46.4672 16.9617 46.5497C16.7553 46.6323 16.5343 46.6717 16.3121 46.6657Z" fill="#9E7363"/>
</svg>
