<svg width="99" height="67" viewBox="0 0 99 67" fill="none" xmlns="http://www.w3.org/2000/svg">
<g opacity="0.2">
<path d="M92.8175 38.1081L98.9475 43.5681L96.9475 48.6381L85.0575 51.6381L69.7775 45.0281C65.0875 46.0281 58.5975 46.6281 58.3275 48.4581C58.2175 49.2081 59.0775 50.0181 60.4175 50.7981C62.949 52.1269 65.6365 53.1347 68.4175 53.7981C69.2575 52.7981 69.8575 52.1281 69.8975 52.0881C70.4675 52.0881 81.2875 51.3681 81.8975 51.7281L83.6075 52.5781L83.9075 52.5081L83.6875 52.6181L91.2275 55.9381C91.0075 56.2081 86.6975 61.3181 85.6975 61.8581L78.3975 63.3481L64.3975 57.9881C65.3947 57.1701 66.3122 56.2593 67.1375 55.2681C63.7975 53.8481 61.1375 51.5581 56.7875 51.2681C52.6275 51.0281 48.9475 56.0481 46.6575 58.0781C45.4075 59.1981 46.7475 63.2081 46.8175 63.4181L40.8175 60.4181C40.6475 60.5581 36.8175 60.5481 35.9375 60.0481C35.1075 59.3481 39.8275 58.4681 39.9375 58.3381L34.9375 56.5381C35.4775 56.5381 45.7475 57.0681 52.0975 47.9981C53.5875 45.8781 42.9475 37.7481 43.2875 35.4581C43.5841 34.6216 44.1505 33.9074 44.8975 33.4281L40.2175 28.6681L53.7975 22.0781L64.7275 25.1881L74.0175 32.4281L60.3975 39.0181L50.8975 39.5681L47.1775 35.8281C47.1491 36.0003 47.1491 36.1759 47.1775 36.3481C47.9198 39.8888 50.0199 42.9977 53.0275 45.0081C53.645 45.3756 54.3218 45.6328 55.0275 45.7681C57.7075 46.2781 62.0275 44.6481 65.4575 43.1281L60.1975 40.8481L80.3075 32.7481L92.8175 38.1081Z" fill="#0B324A"/>
</g>
<path d="M30.2368 63.5616C30.2368 63.5616 38.5368 56.5616 31.9868 40.9816C30.4568 37.3216 12.9868 34.8916 10.4968 31.8516C8.00685 28.8116 8.89685 19.1816 8.89685 19.1816C8.89685 19.1816 11.8968 28.1216 14.1768 30.1816C17.5368 33.1816 27.1768 38.1816 31.1768 36.1816C34.8368 34.3416 35.3668 24.5716 35.9768 20.5216C36.3468 18.0716 35.9768 10.6016 35.9768 10.6016C35.9768 10.6016 41.6768 17.2316 42.0568 20.0016C42.7168 24.4316 34.0068 33.6416 36.8968 37.0616C39.5368 40.2116 49.7468 37.3416 53.1868 35.0616C55.8968 33.3316 59.8968 23.8816 59.8968 23.8816C59.8968 23.8816 58.7568 34.7516 56.2368 37.0616C51.6568 41.2716 44.0468 37.7016 39.2368 41.6316C35.9968 44.2816 39.5068 53.0316 40.3568 57.1316C40.8268 59.3916 46.9568 63.5616 46.9568 63.5616L39.4268 60.9516C39.4268 60.9516 40.7768 67.2216 39.4268 66.9516C38.0768 66.6816 35.9468 62.2616 35.9468 62.2616L30.2368 63.5616Z" fill="#9E7363"/>
<path d="M26.8438 24.0391L28.4137 6.28906L20.5938 12.6591L20.7838 31.4591L26.8438 24.0391Z" fill="#74922A"/>
<path d="M13.0903 4.03906L1.57031 7.95906L20.5903 12.6591L28.4103 6.28906L13.0903 4.03906Z" fill="#AFC161"/>
<path d="M0 25.7109L1.57 7.96094L20.59 12.6609L20.78 31.4609L0 25.7109Z" fill="#98AD48"/>
<path d="M64.3937 9.98156L59.6538 2.35156L50.8438 5.29156L59.6538 22.0816L64.3937 9.98156Z" fill="#74922A"/>
<path d="M48.66 0L33.25 2.33L50.84 5.29L59.65 2.35L48.66 0Z" fill="#AFC161"/>
<path d="M28.8828 26.4681L33.2528 2.32812L50.8428 5.28813L59.6528 22.0781L28.8828 26.4681Z" fill="#98AD48"/>
<path d="M62.8125 31.4328L69.2625 22.8828C69.2625 22.8828 72.5925 32.6728 72.5525 34.0428L69.1925 41.0428L62.8125 31.4328Z" fill="#74922A"/>
<path d="M62.8088 31.4294L49.4688 33.2794C49.4688 33.2794 57.6588 23.0994 57.6188 24.4294L69.2588 22.8594L62.8088 31.4294Z" fill="#AFC161"/>
<path d="M62.8088 31.4297L49.4688 33.2797C49.4688 33.2797 52.7988 43.0697 52.7588 44.4297L69.1888 41.0997L62.8088 31.4297Z" fill="#98AD48"/>
</svg>
