<!DOCTYPE svg PUBLIC "-//W3C//DTD SVG 1.1//EN" "http://www.w3.org/Graphics/SVG/1.1/DTD/svg11.dtd">
<!-- Uploaded to: SVG Repo, www.svgrepo.com, Transformed by: SVG Repo Mixer Tools -->
<svg version="1.1" id="Layer_1" xmlns="http://www.w3.org/2000/svg" xmlns:xlink="http://www.w3.org/1999/xlink" viewBox="-49.5 -49.5 594.00 594.00" xml:space="preserve" width="800px" height="800px" fill="#000000">
<g id="SVGRepo_bgCarrier" stroke-width="0"/>
<g id="SVGRepo_tracerCarrier" stroke-linecap="round" stroke-linejoin="round" stroke="#fcfcfc" stroke-width="47.519999999999996"> <g> <rect x="104.54" style="fill:#FFDA44;" width="122.96" height="141.256"/> <polygon style="fill:#6E76E5;" points="187.01,369.45 128.39,327.23 0,465.96 0,495 247.49,495 247.49,325.88 "/> <polygon style="fill:#515BE0;" points="366.6,327.23 307.99,369.45 247.49,325.88 247.49,495 495,495 495,465.96 "/> <path style="fill:#99E9EC;" d="M366.6,327.23l-99.117-107.089L366.6,327.23z"/> <polygon style="fill:#99E9EC;" points="247.49,325.88 247.49,220.141 227.5,220.141 128.39,327.23 187.01,369.45 "/> <polygon style="fill:#99E9EC;" points="247.49,325.88 307.99,369.45 366.6,327.23 307.99,369.45 "/> <polygon style="fill:#66DDE2;" points="247.49,220.141 247.49,325.88 307.99,369.45 366.6,327.23 267.483,220.141 "/> <path style="fill:#957856;" d="M267.483,220.141C267.5,220.141,267.5,0,267.5,0h-40v220.141H267.483z"/> </g> </g>
<g id="SVGRepo_iconCarrier"> <g> <rect x="104.54" style="fill:#FFDA44;" width="122.96" height="141.256"/> <polygon style="fill:#6E76E5;" points="187.01,369.45 128.39,327.23 0,465.96 0,495 247.49,495 247.49,325.88 "/> <polygon style="fill:#515BE0;" points="366.6,327.23 307.99,369.45 247.49,325.88 247.49,495 495,495 495,465.96 "/> <path style="fill:#99E9EC;" d="M366.6,327.23l-99.117-107.089L366.6,327.23z"/> <polygon style="fill:#99E9EC;" points="247.49,325.88 247.49,220.141 227.5,220.141 128.39,327.23 187.01,369.45 "/> <polygon style="fill:#99E9EC;" points="247.49,325.88 307.99,369.45 366.6,327.23 307.99,369.45 "/> <polygon style="fill:#66DDE2;" points="247.49,220.141 247.49,325.88 307.99,369.45 366.6,327.23 267.483,220.141 "/> <path style="fill:#957856;" d="M267.483,220.141C267.5,220.141,267.5,0,267.5,0h-40v220.141H267.483z"/> </g> </g>
</svg>