<svg xmlns="http://www.w3.org/2000/svg" width="50%" height="50%" viewBox="0 0 511.672 511.672">
    <path style="fill:#a85d5d" d="m473.853 222.264 37.757-57.073s4.779-141.878-85.273-149.217H85.32C-4.731 23.313.047 165.19.047 165.19l37.929 56.526L0 325.057l42.629 170.579 426.398.062 42.645-170.595-37.819-102.839z"/>
    <g style="opacity:.2">
        <path style="fill:#fff" d="M.593 165.987C3.186 126.403 16.771 42.878 85.32 37.273H426.336c68.551 5.606 82.15 89.162 84.728 128.73l.546-.812s4.779-141.878-85.273-149.217H85.32C-4.731 23.313.047 165.19.047 165.19l.546.797z"/>
    </g>
    <path style="fill:#723f3f" d="M511.672 325.104 0 325.057l37.976-103.34 435.877.547z"/>
    <path style="fill:#8c4c4c" d="m473.853 222.264-435.877-.547L.047 165.19h511.562z"/>
    <path d="M266.485 410.315c0 5.887-4.778 10.665-10.649 10.665-5.887 0-10.665-4.778-10.665-10.665 0-5.888 4.778-10.649 10.665-10.649 5.871 0 10.649 4.762 10.649 10.649z"/>
    <path style="fill:#ffce54" d="M170.251 295.045c-12.258 0-24.079-2.701-32.448-7.401-6.387-3.591-10.181-8.042-10.181-11.914 0-7.87 16.615-19.315 42.629-19.315 12.257 0 24.094 2.701 32.463 7.417 6.371 3.575 10.181 8.026 10.181 11.898 0 7.885-16.615 19.315-42.644 19.315zM255.524 295.045c-12.258 0-24.079-2.701-32.464-7.401-6.371-3.591-10.165-8.042-10.165-11.914 0-7.87 16.599-19.315 42.629-19.315 12.257 0 24.078 2.701 32.463 7.417 6.371 3.575 10.165 8.026 10.165 11.898 0 7.885-16.597 19.315-42.628 19.315z"/>
    <path style="fill:#ffce54" d="M340.797 295.045c-12.258 0-24.094-2.701-32.463-7.401-6.371-3.591-10.182-8.042-10.182-11.914 0-7.87 16.615-19.315 42.645-19.315 12.258 0 24.078 2.701 32.448 7.417 6.371 3.575 10.181 8.026 10.181 11.898 0 7.885-16.613 19.315-42.629 19.315zM212.895 265.065c-12.258 0-24.094-2.686-32.464-7.401-6.371-3.592-10.181-8.026-10.181-11.899 0-7.885 16.614-19.332 42.645-19.332 12.242 0 24.078 2.717 32.448 7.417 6.371 3.576 10.181 8.042 10.181 11.915 0 7.869-16.615 19.3-42.629 19.3z"/>
    <path style="fill:#ffce54" d="M298.152 265.065c-12.242 0-24.078-2.686-32.447-7.401-6.371-3.592-10.181-8.026-10.181-11.899 0-7.885 16.615-19.332 42.628-19.332 12.258 0 24.094 2.717 32.464 7.417 6.371 3.576 10.181 8.042 10.181 11.915 0 7.869-16.613 19.3-42.645 19.3z"/>
    <path style="fill:#ffce54" d="M255.524 235.099c-12.258 0-24.079-2.702-32.464-7.417-6.371-3.575-10.165-8.026-10.165-11.898 0-7.87 16.599-19.315 42.629-19.315 12.257 0 24.078 2.701 32.463 7.417 6.371 3.576 10.165 8.026 10.165 11.898 0 7.869-16.597 19.315-42.628 19.315zM91.629 325.104h72.516c4.153-3.123 6.417-6.511 6.417-9.415 0-3.873-3.81-8.308-10.181-11.899-8.37-4.715-20.206-7.401-32.463-7.401-26.015 0-42.629 11.431-42.629 19.301 0 3.028 2.311 6.384 6.34 9.414zM176.902 325.104h72.516c4.153-3.123 6.402-6.511 6.402-9.415 0-3.873-3.794-8.308-10.165-11.899-8.37-4.715-20.206-7.401-32.464-7.401-26.03 0-42.629 11.431-42.629 19.301.001 3.028 2.312 6.384 6.34 9.414z"/>
    <path style="fill:#ccd1d9" d="M206.586 325.106h96.27v98.75h-96.27z"/>
    <path style="fill:#ffce54" d="M262.16 325.104h72.516c4.154-3.123 6.418-6.511 6.418-9.415 0-3.873-3.795-8.308-10.165-11.899-8.386-4.715-20.206-7.401-32.464-7.401-26.029 0-42.645 11.431-42.645 19.301 0 3.028 2.327 6.384 6.34 9.414zM347.434 325.104h72.516c4.154-3.123 6.418-6.511 6.418-9.415 0-3.873-3.81-8.308-10.181-11.899-8.37-4.715-20.206-7.401-32.448-7.401-26.029 0-42.645 11.431-42.645 19.301 0 3.028 2.31 6.384 6.34 9.414z"/>
    <path style="fill:#f6bb42" d="M434.331 325.104c1.733-2.951 2.702-6.121 2.702-9.415 0-15.179-20.098-27.732-46.158-29.7 2.076-3.186 3.217-6.652 3.217-10.259 0-14.507-18.332-26.593-42.66-29.372 0-.203.016-.406.016-.593 0-14.522-18.316-26.608-42.66-29.387.016-.188.031-.391.031-.594 0-16.552-23.86-29.98-53.294-29.98-29.435 0-53.294 13.429-53.294 29.98 0 .203.016.406.031.594-24.344 2.779-42.661 14.865-42.661 29.387 0 .188.016.39.016.593-24.328 2.779-42.66 14.865-42.66 29.372 0 3.622 1.14 7.104 3.248 10.321-25.78 2.093-45.58 14.568-45.58 29.638 0 3.294.968 6.464 2.701 9.415h357.005zm-197.342-5.106c-6.605 2.811-15.053 4.356-23.797 4.356s-17.192-1.546-23.782-4.356c-3.654-1.562-5.934-3.154-7.198-4.31 1.265-1.124 3.544-2.733 7.198-4.278 6.59-2.812 15.038-4.373 23.782-4.373 8.745 0 17.192 1.562 23.797 4.373 3.638 1.545 5.918 3.154 7.199 4.278-1.281 1.156-3.561 2.749-7.199 4.31zm-5.262-39.974c-3.638-1.546-5.918-3.154-7.199-4.294.297-.266.656-.547 1.062-.858 9.322-1.281 17.676-3.936 24.344-7.59 1.843-.125 3.716-.203 5.59-.203s3.748.078 5.574.203c6.684 3.654 15.038 6.309 24.359 7.59.406.312.766.593 1.062.858-1.28 1.14-3.561 2.748-7.199 4.294-6.604 2.811-15.053 4.372-23.796 4.372-8.745 0-17.192-1.562-23.797-4.372zm90.519 39.974c-6.589 2.811-15.037 4.356-23.781 4.356s-17.191-1.546-23.797-4.356c-3.639-1.562-5.918-3.154-7.199-4.31 1.281-1.124 3.561-2.733 7.199-4.278 6.605-2.812 15.053-4.373 23.797-4.373s17.192 1.562 23.781 4.373c3.654 1.545 5.934 3.154 7.199 4.278-1.265 1.156-3.545 2.749-7.199 4.31zm85.274-8.588c3.654 1.545 5.935 3.154 7.199 4.278-1.265 1.155-3.545 2.748-7.199 4.31-6.589 2.811-15.053 4.356-23.781 4.356-8.744 0-17.191-1.546-23.797-4.356-3.654-1.562-5.934-3.154-7.199-4.31 1.266-1.124 3.545-2.733 7.199-4.278 6.605-2.812 15.053-4.373 23.797-4.373 8.728 0 17.192 1.562 23.781 4.373zm-66.723-44.332c8.744 0 17.192 1.547 23.782 4.357 3.653 1.562 5.934 3.154 7.198 4.294-1.265 1.14-3.545 2.748-7.198 4.294-6.59 2.811-15.038 4.372-23.782 4.372s-17.191-1.562-23.797-4.372c-3.654-1.546-5.934-3.154-7.198-4.294.296-.266.655-.547 1.062-.858 9.322-1.281 17.676-3.936 24.344-7.59a82.36 82.36 0 0 1 5.589-.203zm-42.645-29.98c8.744 0 17.192 1.546 23.798 4.356 3.653 1.562 5.934 3.154 7.198 4.31-.297.25-.656.546-1.062.859-9.322 1.28-17.677 3.95-24.345 7.573-1.842.141-3.7.219-5.59.219-1.873 0-3.731-.078-5.574-.219-6.684-3.623-15.037-6.293-24.359-7.573-.406-.312-.75-.609-1.047-.859a13.65 13.65 0 0 1 1.047-.875c9.322-1.28 17.676-3.935 24.359-7.573a73.275 73.275 0 0 1 5.575-.218zm-66.425-25.609c6.605-2.811 15.053-4.356 23.797-4.356s17.192 1.546 23.796 4.356c3.639 1.546 5.919 3.154 7.199 4.294-.297.266-.656.562-1.062.875-9.321 1.281-17.676 3.935-24.359 7.558-1.826.156-3.7.218-5.574.218s-3.748-.062-5.59-.218c-6.667-3.623-15.021-6.277-24.344-7.558a18.603 18.603 0 0 1-1.062-.875c1.281-1.139 3.56-2.748 7.199-4.294zm-42.629 29.965c6.605-2.811 15.053-4.356 23.797-4.356 1.874 0 3.732.078 5.574.219 6.684 3.639 15.038 6.293 24.359 7.573.406.312.75.594 1.046.875-.297.25-.64.546-1.046.859-9.322 1.28-17.691 3.95-24.359 7.573a73.016 73.016 0 0 1-5.574.219c-1.89 0-3.748-.078-5.59-.219-6.667-3.623-15.021-6.293-24.344-7.573a30.434 30.434 0 0 1-1.062-.859c1.265-1.157 3.545-2.749 7.199-4.311zm-42.629 29.982c6.589-2.811 15.037-4.357 23.782-4.357 1.889 0 3.748.078 5.59.203 6.667 3.654 15.021 6.309 24.344 7.59.406.312.765.593 1.062.858-1.28 1.14-3.544 2.748-7.199 4.294-6.605 2.811-15.053 4.372-23.797 4.372-8.745 0-17.192-1.562-23.782-4.372-3.654-1.546-5.934-3.154-7.199-4.294 1.265-1.14 3.545-2.733 7.199-4.294zm-42.333 39.974c6.59-2.812 15.053-4.373 23.782-4.373 8.745 0 17.192 1.562 23.797 4.373 3.654 1.545 5.934 3.154 7.198 4.278-1.265 1.155-3.544 2.748-7.198 4.31-6.605 2.811-15.053 4.356-23.797 4.356s-17.192-1.546-23.782-4.356c-3.654-1.562-5.934-3.154-7.198-4.31 1.265-1.123 3.544-2.733 7.198-4.278z"/>
    <path style="fill:#aab2bc" d="M244.856 383.616h21.331v26.702h-21.331z"/>
    <path style="fill:#434a54" d="M270.936 369.982c0 8.448-6.855 15.287-15.287 15.287-8.448 0-15.303-6.839-15.303-15.287 0-8.447 6.855-15.287 15.303-15.287 8.431-.001 15.287 6.839 15.287 15.287z"/>
    <path style="fill:#ccd1d9" d="M319.467 165.19s.016-.016.016-.031V122.53c0-5.871-4.777-10.649-10.664-10.649H202.23c-5.887 0-10.665 4.778-10.665 10.649v42.66h127.902z"/>
    <path style="fill:#aab2bc" d="M212.895 165.19v-31.995h85.257v31.995h21.314c0-21.798.016-42.66.016-42.66 0-5.871-4.777-10.649-10.664-10.649H202.23c-5.887 0-10.665 4.778-10.665 10.649v42.66h21.33zM55.152 325.057l37.742 170.594h21.829L76.998 325.057zM434.159 325.088l-37.772 170.61h21.83l37.772-170.61zM298.152 325.088v95.893h-85.257v-95.908h-21.33v106.573c0 5.871 4.778 10.649 10.665 10.649h106.588c5.887 0 10.664-4.778 10.664-10.649V325.088h-21.33z"/>
    <path style="fill:#aab2bc" d="M255.836 335.707c-17.661 0-31.979 14.318-31.979 31.979 0 17.66 14.319 31.979 31.979 31.979 17.645 0 31.964-14.319 31.964-31.979 0-17.661-14.319-31.979-31.964-31.979zm0 42.629c-5.887 0-10.665-4.778-10.665-10.649 0-5.872 4.778-10.665 10.665-10.665 5.871 0 10.649 4.793 10.649 10.665 0 5.871-4.778 10.649-10.649 10.649z"/>
    <path style="opacity:.1;enable-background:new" d="m0 325.057 7.823-21.33h495.98l7.869 21.33z"/>
</svg>
