<!DOCTYPE svg PUBLIC "-//W3C//DTD SVG 1.1//EN" "http://www.w3.org/Graphics/SVG/1.1/DTD/svg11.dtd">
<!-- Uploaded to: SVG Repo, www.svgrepo.com, Transformed by: SVG Repo Mixer Tools -->
<svg fill="#4b7de2" width="64px" height="64px" viewBox="0 0 24 24" xmlns="http://www.w3.org/2000/svg">
<g id="SVGRepo_bgCarrier" stroke-width="0"/>
<g id="SVGRepo_tracerCarrier" stroke-linecap="round" stroke-linejoin="round"/>
<g id="SVGRepo_iconCarrier">
<path d="M23,4a1,1,0,0,1-1,1H19a1,1,0,0,1,0-2h3A1,1,0,0,1,23,4ZM2,3h8.184a3,3,0,1,1,0,2H2A1,1,0,0,1,2,3ZM12,4a1,1,0,1,0,1-1A1,1,0,0,0,12,4ZM1,12a1,1,0,0,1,1-1H6.184a3,3,0,1,1,0,2H2A1,1,0,0,1,1,12Zm7,0a1,1,0,1,0,1-1A1,1,0,0,0,8,12Zm14-1H15a1,1,0,0,0,0,2h7a1,1,0,0,0,0-2Zm0,8H17a1,1,0,0,0,0,2h5a1,1,0,0,0,0-2ZM1,20a1,1,0,0,1,1-1H8.184a3,3,0,1,1,0,2H2A1,1,0,0,1,1,20Zm9,0a1,1,0,1,0,1-1A1,1,0,0,0,10,20Z"/>
</g>
</svg>