<?xml version="1.0" encoding="iso-8859-1"?>
<!-- Uploaded to: SVG Repo, www.svgrepo.com, Generator: SVG Repo Mixer Tools -->
<svg height="800px" width="800px" version="1.1" id="Layer_1" xmlns="http://www.w3.org/2000/svg" xmlns:xlink="http://www.w3.org/1999/xlink" 
	 viewBox="0 0 512.001 512.001" xml:space="preserve">
<path style="fill:#85EDC1;" d="M467.009,512H44.988c-31.293,0-51.647-32.851-37.823-60.854l45.28-91.779
	c3.046-6.172,9.331-10.08,16.214-10.08h374.677c6.882,0,13.168,3.908,16.214,10.08l45.283,91.783
	C518.683,479.205,498.238,512,467.009,512z"/>
<path style="fill:#48A792;" d="M504.834,451.15l-45.283-91.783c-3.046-6.172-9.331-10.08-16.214-10.08H255.999v162.715h211.011
	C498.238,512,518.683,479.205,504.834,451.15z"/>
<path style="fill:#B9F7F9;" d="M459.551,359.367L459.551,359.367L459.551,359.367L397.103,232.81
	c-3.046-6.171-9.331-10.079-16.214-10.079H131.105c-6.882,0-13.168,3.908-16.214,10.079L52.445,359.365l0,0l0,0l-12.867,26.079
	c5.412,0,422.636,0,432.838,0L459.551,359.367z"/>
<path style="fill:#00D8E0;" d="M459.551,359.367L459.551,359.367L459.551,359.367L397.103,232.81
	c-3.046-6.171-9.331-10.079-16.214-10.079H255.997v162.715c105.662,0,211.347,0,216.419,0L459.551,359.367z"/>
<path style="fill:#FFDB2D;" d="M397.105,232.81l-62.446-126.556c-3.046-6.171-9.331-10.079-16.214-10.079H193.552
	c-6.882,0-13.168,3.908-16.214,10.079L114.893,232.81l-12.869,26.08c17.57,0,295.353,0,307.949,0L397.105,232.81z"/>
<path style="fill:#FF9900;" d="M397.105,232.81l-62.446-126.556c-3.046-6.171-9.331-10.079-16.214-10.079h-62.446V258.89
	c73.843,0,147.623,0,153.974,0L397.105,232.81z"/>
<path style="fill:#FF4F19;" d="M334.657,106.254c-0.002-0.004-0.004-0.007-0.006-0.011l-40.818-82.735
	c-15.476-31.35-60.2-31.338-75.672,0.004l-40.816,82.73c-0.002,0.005-0.005,0.008-0.007,0.013l-12.869,26.08
	c6.905,0,174.479,0,183.056,0L334.657,106.254z"/>
<path style="fill:#FC0023;" d="M334.657,106.254c-0.002-0.004-0.004-0.007-0.006-0.011l-40.818-82.735
	C286.096,7.834,271.047,0,255.999,0v132.333c43.621,0,87.26,0,91.528,0L334.657,106.254z"/>
</svg>