<?xml version="1.0" standalone="no"?>
<!DOCTYPE svg PUBLIC "-//W3C//DTD SVG 20010904//EN"
 "http://www.w3.org/TR/2001/REC-SVG-20010904/DTD/svg10.dtd">
<svg version="1.0" xmlns="http://www.w3.org/2000/svg"
 width="51.000000pt" height="50.000000pt" viewBox="0 0 51.000000 50.000000"
 preserveAspectRatio="xMidYMid meet">
<metadata>
Created by potrace 1.10, written by Peter Selinger 2001-2011
</metadata>
<g transform="translate(0.000000,50.000000) scale(0.100000,-0.100000)"
fill="#203c64" stroke="none">
<path d="M163 474 c-8 -23 12 -38 41 -30 39 10 36 46 -4 46 -19 0 -33 -6 -37
-16z"/>
<path d="M205 388 c-112 -115 -129 -140 -112 -157 23 -23 45 -8 157 104 98 98
113 118 104 133 -24 37 -47 25 -149 -80z"/>
<path d="M62 377 c-52 -53 -61 -74 -41 -94 14 -14 39 -2 92 47 25 23 37 43 37
61 0 21 -15 39 -34 39 -1 0 -25 -24 -54 -53z"/>
<path d="M302 337 c-72 -73 -90 -95 -80 -105 29 -29 62 -13 144 71 88 89 104
127 56 127 -21 0 -49 -21 -120 -93z"/>
<path d="M302 207 c-113 -114 -142 -148 -142 -170 0 -58 38 -34 195 123 124
124 148 153 139 167 -25 39 -47 25 -192 -120z"/>
<path d="M32 209 c-26 -10 -29 -41 -6 -60 20 -16 48 -1 52 28 4 27 -18 43 -46
32z"/>
<path d="M420 175 c-26 -27 -31 -37 -22 -48 31 -36 113 22 96 67 -10 26 -38
19 -74 -19z"/>
<path d="M117 152 c-54 -54 -59 -85 -17 -90 34 -4 100 63 103 104 3 48 -30 43
-86 -14z"/>
<path d="M300 55 c-10 -12 -10 -18 0 -30 21 -25 54 -15 58 18 3 23 0 27 -21
27 -14 0 -30 -7 -37 -15z"/>
</g>
</svg>
