<svg width="89" height="21" viewBox="0 0 89 21" fill="none" xmlns="http://www.w3.org/2000/svg">
<g filter="url(#filter0_i_298_410)">
<path d="M6.10632 1.44338C5.56799 2.36296 6.82409 3.46646 7.90075 3.03732C8.43907 2.7921 8.85777 2.24035 8.85777 1.6886C8.85777 0.646409 6.76428 0.401187 6.10632 1.44338Z" fill="#0A5FD9"/>
<path d="M7.42162 5.67323C2.99536 10.3324 2.21778 11.9264 4.13183 12.2942C5.44775 12.5394 14.4797 2.91448 14.061 1.74968C13.403 -0.0281782 12.0871 0.707488 7.42162 5.67323Z" fill="#0A5FD9"/>
<path d="M1.97848 5.67395C-0.115016 7.88095 -0.59353 9.96533 1.02146 9.96533C2.15793 9.96533 5.86641 6.16439 5.86641 5.06089C5.86641 3.03781 4.25143 3.28303 1.97848 5.67395Z" fill="#0A5FD9"/>
<path d="M11.9081 7.14521C8.2594 10.8848 7.72108 12.4175 9.9342 12.4175C11.2501 12.4175 17.8297 5.67388 17.8297 4.32516C17.8297 2.24077 15.6764 3.22166 11.9081 7.14521Z" fill="#0A5FD9"/>
<path d="M11.6683 12.9077C6.04576 18.6704 4.67003 21 6.94297 21C8.3187 21 20.5208 8.49368 19.9825 7.5741C19.0255 6.04146 17.231 7.20627 11.6683 12.9077Z" fill="#0A5FD9"/>
<path d="M0.124476 13.3368C-0.114781 13.8885 0.00484714 14.6242 0.363733 14.992C1.26095 15.9116 2.99556 15.0533 2.7563 13.8272C2.51705 12.4172 0.60299 12.0494 0.124476 13.3368Z" fill="#0A5FD9"/>
<path d="M16.6931 13.8889C15.1978 15.5442 15.437 16.709 17.2315 16.709C18.6072 16.709 20.282 14.4407 19.8035 13.2759C19.325 11.9885 18.1885 12.2337 16.6931 13.8889Z" fill="#0A5FD9"/>
<path d="M4.13167 15.1145C2.09799 17.2602 1.91855 19.1606 3.71297 19.1606C4.78963 19.1606 8.37849 14.9919 8.07942 14.0723C7.6009 12.601 6.10554 13.0301 4.13167 15.1145Z" fill="#0A5FD9"/>
<path d="M11.549 19.1608C11.0106 20.0804 11.7882 21 13.1041 21C13.8219 21 14.2406 20.5709 14.2406 19.7739C14.2406 18.4865 12.2667 17.996 11.549 19.1608Z" fill="#0A5FD9"/>
</g>
<path d="M29.2012 16.9998V3.18164H34.6529C35.6964 3.18164 36.5871 3.36831 37.3248 3.74165C38.0669 4.1105 38.6315 4.63453 39.0183 5.31374C39.4096 5.98846 39.6053 6.78237 39.6053 7.69549C39.6053 8.6131 39.4074 9.40252 39.0115 10.0637C38.6157 10.7205 38.0422 11.2243 37.291 11.5751C36.5443 11.926 35.6402 12.1014 34.5787 12.1014H30.9284V9.75337H34.1064C34.6641 9.75337 35.1274 9.67691 35.4963 9.52397C35.8651 9.37103 36.1395 9.14163 36.3194 8.83576C36.5038 8.52989 36.5961 8.1498 36.5961 7.69549C36.5961 7.23668 36.5038 6.84985 36.3194 6.53498C36.1395 6.22011 35.8629 5.98171 35.4895 5.81978C35.1207 5.65335 34.6551 5.57014 34.0929 5.57014H32.1227V16.9998H29.2012ZM36.6635 10.7115L40.0978 16.9998H36.8727L33.5126 10.7115H36.6635Z" fill="#253858"/>
<path d="M48.2619 12.5872V6.63619H51.1362V16.9998H48.3766V15.1174H48.2686C48.0347 15.7246 47.6457 16.2127 47.1014 16.5815C46.5616 16.9503 45.9026 17.1348 45.1245 17.1348C44.4318 17.1348 43.8223 16.9773 43.296 16.6625C42.7697 16.3476 42.3581 15.9 42.0613 15.3198C41.7689 14.7395 41.6204 14.0446 41.6159 13.2349V6.63619H44.4902V12.7221C44.4947 13.3339 44.6589 13.8174 44.9828 14.1728C45.3066 14.5281 45.7407 14.7058 46.285 14.7058C46.6313 14.7058 46.9552 14.6271 47.2566 14.4696C47.5579 14.3077 47.8008 14.0693 47.9853 13.7544C48.1742 13.4396 48.2664 13.0505 48.2619 12.5872Z" fill="#253858"/>
<path d="M53.4353 16.9998V6.63619H56.2219V8.44443H56.3298C56.5187 7.8012 56.8358 7.3154 57.2812 6.98704C57.7265 6.65418 58.2393 6.48775 58.8195 6.48775C58.9635 6.48775 59.1186 6.49674 59.2851 6.51474C59.4515 6.53273 59.5977 6.55747 59.7236 6.58896V9.13938C59.5887 9.0989 59.402 9.06291 59.1636 9.03143C58.9252 8.99994 58.7071 8.9842 58.5091 8.9842C58.0863 8.9842 57.7085 9.07641 57.3756 9.26083C57.0473 9.44076 56.7864 9.69265 56.593 10.0165C56.404 10.3404 56.3096 10.7137 56.3096 11.1365V16.9998H53.4353Z" fill="#253858"/>
<path d="M65.4503 17.2022C64.3842 17.2022 63.4666 16.9863 62.6974 16.5545C61.9328 16.1182 61.3435 15.502 60.9297 14.7058C60.5159 13.9051 60.3089 12.9583 60.3089 11.8652C60.3089 10.7992 60.5159 9.86358 60.9297 9.05842C61.3435 8.25326 61.926 7.62577 62.6772 7.17596C63.4329 6.72615 64.319 6.50124 65.3356 6.50124C66.0193 6.50124 66.6558 6.61145 67.245 6.83185C67.8388 7.04776 68.3561 7.37388 68.7969 7.81019C69.2422 8.24651 69.5885 8.79528 69.8359 9.4565C70.0833 10.1132 70.207 10.8824 70.207 11.764V12.5534H61.456V10.7722H67.5014C67.5014 10.3584 67.4115 9.99177 67.2315 9.67241C67.0516 9.35304 66.802 9.1034 66.4826 8.92347C66.1677 8.73905 65.8011 8.64684 65.3828 8.64684C64.9465 8.64684 64.5597 8.74805 64.2223 8.95046C63.8894 9.14838 63.6286 9.41602 63.4396 9.75337C63.2507 10.0862 63.154 10.4573 63.1495 10.8667V12.5602C63.1495 13.073 63.244 13.516 63.4329 13.8894C63.6263 14.2627 63.8984 14.5506 64.2493 14.753C64.6001 14.9554 65.0162 15.0566 65.4975 15.0566C65.8169 15.0566 66.1093 15.0117 66.3746 14.9217C66.64 14.8317 66.8672 14.6968 67.0561 14.5169C67.245 14.3369 67.389 14.1165 67.4879 13.8556L70.1463 14.0311C70.0114 14.6698 69.7347 15.2276 69.3164 15.7044C68.9026 16.1767 68.3673 16.5455 67.7106 16.8109C67.0584 17.0718 66.3049 17.2022 65.4503 17.2022Z" fill="#253858"/>
<path d="M72.0827 16.9998V6.63619H74.8693V8.44443H74.9773C75.1662 7.8012 75.4833 7.3154 75.9286 6.98704C76.3739 6.65418 76.8867 6.48775 77.467 6.48775C77.6109 6.48775 77.7661 6.49674 77.9325 6.51474C78.099 6.53273 78.2451 6.55747 78.3711 6.58896V9.13938C78.2362 9.0989 78.0495 9.06291 77.8111 9.03143C77.5727 8.99994 77.3545 8.9842 77.1566 8.9842C76.7338 8.9842 76.3559 9.07641 76.0231 9.26083C75.6947 9.44076 75.4338 9.69265 75.2404 10.0165C75.0515 10.3404 74.957 10.7137 74.957 11.1365V16.9998H72.0827Z" fill="#253858"/>
<path d="M82.5155 17.1955C81.8543 17.1955 81.2651 17.0808 80.7478 16.8514C80.2305 16.6175 79.8212 16.2734 79.5198 15.8191C79.2229 15.3603 79.0745 14.789 79.0745 14.1053C79.0745 13.5295 79.1802 13.046 79.3916 12.6547C79.603 12.2633 79.8909 11.9484 80.2552 11.71C80.6196 11.4716 81.0334 11.2917 81.4967 11.1703C81.9645 11.0488 82.4548 10.9634 82.9676 10.9139C83.5703 10.8509 84.0561 10.7924 84.425 10.7385C84.7938 10.68 85.0615 10.5945 85.2279 10.4821C85.3943 10.3696 85.4775 10.2032 85.4775 9.98278V9.94229C85.4775 9.51497 85.3426 9.18436 85.0727 8.95046C84.8073 8.71656 84.4295 8.59961 83.9392 8.59961C83.4219 8.59961 83.0103 8.71431 82.7045 8.94371C82.3986 9.16862 82.1962 9.452 82.0972 9.79386L79.4388 9.57795C79.5738 8.94821 79.8392 8.40394 80.235 7.94514C80.6308 7.48183 81.1414 7.12648 81.7666 6.87908C82.3963 6.62719 83.125 6.50124 83.9527 6.50124C84.5284 6.50124 85.0795 6.56871 85.6057 6.70366C86.1365 6.8386 86.6066 7.04776 87.0159 7.33114C87.4297 7.61452 87.7558 7.97887 87.9942 8.42418C88.2326 8.865 88.3518 9.39353 88.3518 10.0098V16.9998H85.626V15.5627H85.545C85.3786 15.8865 85.1559 16.1722 84.877 16.4196C84.5982 16.6625 84.2631 16.8536 83.8717 16.9931C83.4804 17.128 83.0283 17.1955 82.5155 17.1955ZM83.3387 15.2118C83.7615 15.2118 84.1349 15.1286 84.4587 14.9622C84.7826 14.7913 85.0367 14.5618 85.2211 14.274C85.4056 13.9861 85.4978 13.66 85.4978 13.2956V12.1958C85.4078 12.2543 85.2841 12.3083 85.1267 12.3578C84.9738 12.4028 84.8006 12.4455 84.6072 12.486C84.4137 12.522 84.2203 12.5557 84.0269 12.5872C83.8335 12.6142 83.6581 12.6389 83.5006 12.6614C83.1633 12.7109 82.8686 12.7896 82.6167 12.8975C82.3649 13.0055 82.1692 13.1517 82.0297 13.3361C81.8903 13.516 81.8206 13.7409 81.8206 14.0108C81.8206 14.4022 81.9623 14.7013 82.2457 14.9082C82.5335 15.1106 82.8979 15.2118 83.3387 15.2118Z" fill="#253858"/>
<defs>
<filter id="filter0_i_298_410" x="0" y="0.773438" width="20" height="24.2266" filterUnits="userSpaceOnUse" color-interpolation-filters="sRGB">
<feFlood flood-opacity="0" result="BackgroundImageFix"/>
<feBlend mode="normal" in="SourceGraphic" in2="BackgroundImageFix" result="shape"/>
<feColorMatrix in="SourceAlpha" type="matrix" values="0 0 0 0 0 0 0 0 0 0 0 0 0 0 0 0 0 0 127 0" result="hardAlpha"/>
<feOffset dy="4"/>
<feGaussianBlur stdDeviation="2"/>
<feComposite in2="hardAlpha" operator="arithmetic" k2="-1" k3="1"/>
<feColorMatrix type="matrix" values="0 0 0 0 0 0 0 0 0 0 0 0 0 0 0 0 0 0 0.25 0"/>
<feBlend mode="normal" in2="shape" result="effect1_innerShadow_298_410"/>
</filter>
</defs>
</svg>
