<!DOCTYPE svg PUBLIC "-//W3C//DTD SVG 1.1//EN" "http://www.w3.org/Graphics/SVG/1.1/DTD/svg11.dtd">
<!-- Uploaded to: SVG Repo, www.svgrepo.com, Transformed by: SVG Repo Mixer Tools -->
<svg fill="" width="800px" height="800px" viewBox="-2.4 -2.4 28.80 28.80" id="secure" data-name="Flat Line" xmlns="http://www.w3.org/2000/svg" class="icon flat-line" stroke="">
<g id="SVGRepo_bgCarrier" stroke-width="0"/>
<g id="SVGRepo_tracerCarrier" stroke-linecap="round" stroke-linejoin="round" stroke="#ffffff" stroke-width="2.688">
<path id="secondary" d="M12,21l.88-.38a11,11,0,0,0,6.63-9.26l.43-5.52a1,1,0,0,0-.76-1L12,3,4.82,4.8a1,1,0,0,0-.76,1l.43,5.52a11,11,0,0,0,6.63,9.26Z" style="fill: #355b97; stroke-width: 2;"/>
<polyline id="primary" points="9 11 11 13 15 9" style="fill: none; stroke: #ffffff; stroke-linecap: round; stroke-linejoin: round; stroke-width: 2;"/>
<path id="primary-2" data-name="primary" d="M12,21l.88-.38a11,11,0,0,0,6.63-9.26l.43-5.52a1,1,0,0,0-.76-1L12,3,4.82,4.8a1,1,0,0,0-.76,1l.43,5.52a11,11,0,0,0,6.63,9.26Z" style="fill: none; stroke: #ffffff; stroke-linecap: round; stroke-linejoin: round; stroke-width: 2;"/>
</g>
<g id="SVGRepo_iconCarrier">
<path id="secondary" d="M12,21l.88-.38a11,11,0,0,0,6.63-9.26l.43-5.52a1,1,0,0,0-.76-1L12,3,4.82,4.8a1,1,0,0,0-.76,1l.43,5.52a11,11,0,0,0,6.63,9.26Z" style="fill: #355b97; stroke-width: 2;"/>
<polyline id="primary" points="9 11 11 13 15 9" style="fill: none; stroke: #ffffff; stroke-linecap: round; stroke-linejoin: round; stroke-width: 2;"/>
<path id="primary-2" data-name="primary" d="M12,21l.88-.38a11,11,0,0,0,6.63-9.26l.43-5.52a1,1,0,0,0-.76-1L12,3,4.82,4.8a1,1,0,0,0-.76,1l.43,5.52a11,11,0,0,0,6.63,9.26Z" style="fill: none; stroke: #ffffff; stroke-linecap: round; stroke-linejoin: round; stroke-width: 2;"/>
</g>
</svg>