<svg version="1.1" id="Layer_1" xmlns="http://www.w3.org/2000/svg" xmlns:xlink="http://www.w3.org/1999/xlink" x="0px" y="0px"
	 width="100%" viewBox="0 0 512 512" enable-background="new 0 0 512 512" xml:space="preserve">
<path fill="#000000" opacity="1.000000" stroke="none" 
	d="
M513.000000,128.000000 
	C513.000000,256.251007 513.000000,384.502045 513.000000,513.000000 
	C415.978119,513.000000 318.956055,513.000000 221.259979,512.610229 
	C227.047226,510.813873 233.523636,509.473083 239.967194,507.989624 
	C275.619965,499.781677 306.408386,482.593292 332.389648,456.994019 
	C349.803009,439.836670 363.308655,419.913086 373.318329,397.481750 
	C383.311554,375.087311 388.684753,351.616547 389.716827,327.369385 
	C390.294373,313.800842 388.497986,300.054535 386.909851,286.489197 
	C384.729645,267.866455 378.595398,250.329025 370.201324,233.597824 
	C366.919983,227.057465 363.420349,220.626633 360.480896,214.084412 
	C365.530090,213.683029 370.113678,213.241623 374.707825,213.021973 
	C389.710419,212.304703 404.722351,211.767807 419.719208,210.951263 
	C425.631134,210.629364 430.779938,209.078934 435.401733,204.352753 
	C459.727631,179.477539 484.463013,155.002518 509.104095,130.436569 
	C510.161499,129.382385 511.690613,128.801422 513.000000,128.000000 
z"/>
<path fill="#000000" opacity="1.000000" stroke="none" 
	d="
M1.000001,292.000000 
	C1.000000,195.062332 1.000000,98.124664 1.000000,1.000000 
	C129.021957,1.000000 257.044006,1.000000 385.872437,1.219194 
	C385.453369,2.785814 384.280487,4.185722 382.994690,5.472889 
	C357.924133,30.570410 332.817780,55.632324 307.810913,80.793114 
	C306.164703,82.449463 304.424866,84.736710 304.154449,86.908073 
	C303.120331,95.212067 302.528717,103.580338 302.032379,111.940079 
	C301.200775,125.947426 300.568726,139.966629 299.498047,153.976761 
	C296.077332,152.134720 293.063934,150.201385 289.936859,148.473816 
	C263.637848,133.944717 235.368515,125.577606 205.474747,124.303146 
	C190.266830,123.654778 174.740234,124.974503 159.691086,127.439705 
	C138.769318,130.866882 118.914528,138.068558 100.350929,148.783691 
	C86.675072,156.677551 73.847054,165.633118 62.324211,176.321655 
	C49.513866,188.204498 38.713326,201.785309 29.549097,216.753006 
	C16.702379,237.735229 8.017298,260.167694 3.903149,284.420227 
	C3.459461,287.035706 1.992369,289.477600 1.000001,292.000000 
z"/>
<path fill="#E64C3C" opacity="1.000000" stroke="none" 
	d="
M1.000001,292.468658 
	C1.992369,289.477600 3.459461,287.035706 3.903149,284.420227 
	C8.017298,260.167694 16.702379,237.735229 29.549097,216.753006 
	C38.713326,201.785309 49.513866,188.204498 62.324211,176.321655 
	C73.847054,165.633118 86.675072,156.677551 100.350929,148.783691 
	C118.914528,138.068558 138.769318,130.866882 159.691086,127.439705 
	C174.740234,124.974503 190.266830,123.654778 205.474747,124.303146 
	C235.368515,125.577606 263.637848,133.944717 289.936859,148.473816 
	C293.063934,150.201385 296.077332,152.134720 299.545807,154.438782 
	C299.353973,166.791336 298.759705,178.677750 297.965271,190.877808 
	C294.462616,194.359360 291.160126,197.527252 287.559753,200.493195 
	C253.618134,174.761200 215.727570,164.494598 173.989029,170.268967 
	C91.128952,181.732330 34.266144,258.825897 46.826225,341.933228 
	C59.672321,426.933014 143.218323,484.258270 227.015198,465.570282 
	C290.397888,451.434967 336.860962,400.200134 344.152069,335.678284 
	C348.740784,295.070984 338.283630,258.460541 313.203003,225.905182 
	C316.720459,222.354996 320.065582,219.095459 323.820892,215.839691 
	C336.160797,215.277618 348.090454,214.711761 360.020142,214.145920 
	C363.420349,220.626633 366.919983,227.057465 370.201324,233.597824 
	C378.595398,250.329025 384.729645,267.866455 386.909851,286.489197 
	C388.497986,300.054535 390.294373,313.800842 389.716827,327.369385 
	C388.684753,351.616547 383.311554,375.087311 373.318329,397.481750 
	C363.308655,419.913086 349.803009,439.836670 332.389648,456.994019 
	C306.408386,482.593292 275.619965,499.781677 239.967194,507.989624 
	C233.523636,509.473083 227.047226,510.813873 220.792999,512.610229 
	C203.979111,513.000000 186.958206,513.000000 169.655884,512.609497 
	C168.865829,511.836029 168.384949,511.164185 167.844589,511.112427 
	C153.622131,509.748688 139.993851,505.849579 126.728989,500.843536 
	C103.091995,491.923157 81.833176,478.963531 63.273712,461.746948 
	C49.088718,448.588318 37.023529,433.723419 27.352240,416.911316 
	C15.874077,396.958191 7.499889,375.917389 3.914025,353.066010 
	C3.478913,350.293213 1.996847,347.684662 1.000001,345.000000 
	C1.000000,327.645782 1.000000,310.291534 1.000001,292.468658 
z"/>
<path fill="#000000" opacity="1.000000" stroke="none" 
	d="
M398.000000,1.000000 
	C436.260284,1.000000 474.520599,1.000000 513.000000,1.000000 
	C513.000000,39.020615 513.000000,77.041649 512.744019,115.876328 
	C509.713196,113.668991 506.294403,112.527237 502.228943,112.984955 
	C492.957855,114.028740 483.686462,115.082344 474.400024,115.973984 
	C466.061615,116.774605 457.697784,117.307510 449.354492,118.061615 
	C439.235931,118.976173 429.127136,119.998940 419.135223,120.664948 
	C424.408234,115.167191 429.601654,110.019516 434.682098,104.762634 
	C435.913208,103.488739 437.102356,101.985962 437.746063,100.364258 
	C441.167877,91.743454 438.071716,82.071236 430.525421,77.249786 
	C424.023651,73.095711 413.980713,74.650230 407.764648,80.724243 
	C402.905334,85.472473 397.999969,90.173637 393.066437,94.450363 
	C393.033447,91.677216 392.850769,89.328117 393.098114,87.025208 
	C394.336975,75.489677 395.787964,63.976410 396.966949,52.435146 
	C397.817474,44.108868 398.180237,35.731548 399.086365,27.412487 
	C400.054260,18.526499 403.391724,9.604102 398.000000,1.000000 
z"/>
<path fill="#CF976A" opacity="1.000000" stroke="none" 
	d="
M419.014130,120.974884 
	C429.127136,119.998940 439.235931,118.976173 449.354492,118.061615 
	C457.697784,117.307510 466.061615,116.774605 474.400024,115.973984 
	C483.686462,115.082344 492.957855,114.028740 502.228943,112.984955 
	C506.294403,112.527237 509.713196,113.668991 512.744019,116.344986 
	C513.000000,119.692909 513.000000,123.385818 513.000000,127.539368 
	C511.690613,128.801422 510.161499,129.382385 509.104095,130.436569 
	C484.463013,155.002518 459.727631,179.477539 435.401733,204.352753 
	C430.779938,209.078934 425.631134,210.629364 419.719208,210.951263 
	C404.722351,211.767807 389.710419,212.304703 374.707825,213.021973 
	C370.113678,213.241623 365.530090,213.683029 360.480896,214.084412 
	C348.090454,214.711761 336.160797,215.277618 323.962952,215.581436 
	C354.015503,184.930862 384.329132,154.535248 414.682007,124.178879 
	C415.937958,122.922821 417.561737,122.034523 419.014130,120.974884 
z"/>
<path fill="#CF976A" opacity="1.000000" stroke="none" 
	d="
M397.539368,1.000000 
	C403.391724,9.604102 400.054260,18.526499 399.086365,27.412487 
	C398.180237,35.731548 397.817474,44.108868 396.966949,52.435146 
	C395.787964,63.976410 394.336975,75.489677 393.098114,87.025208 
	C392.850769,89.328117 393.033447,91.677216 392.923065,94.765533 
	C391.212830,97.415428 389.715302,99.422516 387.964325,101.176643 
	C359.411957,129.780823 330.830414,158.355927 302.240662,186.922760 
	C300.954010,188.208374 299.527069,189.353577 298.165466,190.564178 
	C298.759705,178.677750 299.353973,166.791336 299.900452,154.442871 
	C300.568726,139.966629 301.200775,125.947426 302.032379,111.940079 
	C302.528717,103.580338 303.120331,95.212067 304.154449,86.908073 
	C304.424866,84.736710 306.164703,82.449463 307.810913,80.793114 
	C332.817780,55.632324 357.924133,30.570410 382.994690,5.472889 
	C384.280487,4.185722 385.453369,2.785814 386.339417,1.219194 
	C389.692902,1.000000 393.385834,1.000000 397.539368,1.000000 
z"/>
<path fill="#000000" opacity="1.000000" stroke="none" 
	d="
M1.000001,345.468658 
	C1.996847,347.684662 3.478913,350.293213 3.914025,353.066010 
	C7.499889,375.917389 15.874077,396.958191 27.352240,416.911316 
	C37.023529,433.723419 49.088718,448.588318 63.273712,461.746948 
	C81.833176,478.963531 103.091995,491.923157 126.728989,500.843536 
	C139.993851,505.849579 153.622131,509.748688 167.844589,511.112427 
	C168.384949,511.164185 168.865829,511.836029 169.187225,512.609497 
	C113.072998,513.000000 57.145992,513.000000 1.000000,513.000000 
	C1.000000,457.312622 1.000000,401.624969 1.000001,345.468658 
z"/>
<path fill="#F5EEC9" opacity="1.000000" stroke="none" 
	d="
M313.030701,226.195831 
	C338.283630,258.460541 348.740784,295.070984 344.152069,335.678284 
	C336.860962,400.200134 290.397888,451.434967 227.015198,465.570282 
	C143.218323,484.258270 59.672321,426.933014 46.826225,341.933228 
	C34.266144,258.825897 91.128952,181.732330 173.989029,170.268967 
	C215.727570,164.494598 253.618134,174.761200 287.430511,200.738678 
	C277.169586,211.555405 266.740021,221.924698 256.008148,232.073807 
	C221.816116,209.536865 185.921661,205.991241 149.472290,223.574951 
	C113.041336,241.149780 92.860710,271.300323 89.855415,311.829102 
	C84.957062,377.887360 142.759094,432.206146 208.388107,423.788422 
	C287.672119,413.619354 327.715393,322.890961 281.858826,257.393738 
	C292.356415,246.800217 302.693542,236.498032 313.030701,226.195831 
z"/>
<path fill="#805333" opacity="1.000000" stroke="none" 
	d="
M256.310425,232.293976 
	C266.740021,221.924698 277.169586,211.555405 287.728394,200.940643 
	C291.160126,197.527252 294.462616,194.359360 297.965271,190.877808 
	C299.527069,189.353577 300.954010,188.208374 302.240662,186.922760 
	C330.830414,158.355927 359.411957,129.780823 387.964325,101.176643 
	C389.715302,99.422516 391.212830,97.415428 392.971680,95.210876 
	C397.999969,90.173637 402.905334,85.472473 407.764648,80.724243 
	C413.980713,74.650230 424.023651,73.095711 430.525421,77.249786 
	C438.071716,82.071236 441.167877,91.743454 437.746063,100.364258 
	C437.102356,101.985962 435.913208,103.488739 434.682098,104.762634 
	C429.601654,110.019516 424.408234,115.167191 419.135223,120.664948 
	C417.561737,122.034523 415.937958,122.922821 414.682007,124.178879 
	C384.329132,154.535248 354.015503,184.930862 323.552734,215.577667 
	C320.065582,219.095459 316.720459,222.354996 313.203003,225.905182 
	C302.693542,236.498032 292.356415,246.800217 281.566437,257.556732 
	C272.014252,266.989380 262.887573,275.940338 253.842606,284.973145 
	C252.348038,286.465729 251.211212,288.316559 249.585114,290.083252 
	C247.745743,291.443970 246.131363,292.623810 244.730438,294.018158 
	C232.574966,306.116455 220.590149,318.391052 208.226059,330.271301 
	C205.506226,332.884674 201.668976,335.110382 198.016830,335.820648 
	C189.833282,337.412231 182.886261,333.617371 179.596680,326.978027 
	C176.108261,319.937408 177.498779,311.836304 183.386383,305.912537 
	C195.593552,293.630493 207.882614,281.429840 220.079590,269.137787 
	C221.567902,267.637878 222.697968,265.782440 224.319168,263.984558 
	C235.199661,253.349548 245.755035,242.821762 256.310425,232.293976 
z"/>
<path fill="#E64D3D" opacity="1.000000" stroke="none" 
	d="
M249.909058,290.001831 
	C251.211212,288.316559 252.348038,286.465729 253.842606,284.973145 
	C262.887573,275.940338 272.014252,266.989380 281.406006,257.848022 
	C327.715393,322.890961 287.672119,413.619354 208.388107,423.788422 
	C142.759094,432.206146 84.957062,377.887360 89.855415,311.829102 
	C92.860710,271.300323 113.041336,241.149780 149.472290,223.574951 
	C185.921661,205.991241 221.816116,209.536865 256.008148,232.073792 
	C245.755035,242.821762 235.199661,253.349548 223.990082,263.834717 
	C209.375381,256.738037 194.804459,255.147354 179.678375,259.077972 
	C148.306610,267.230133 128.963577,298.214844 134.996719,330.553925 
	C140.805573,361.690735 170.935745,383.672150 202.545395,379.833923 
	C245.511810,374.616699 269.310120,329.479706 249.909058,290.001831 
z"/>
<path fill="#2D3E50" opacity="1.000000" stroke="none" 
	d="
M249.585114,290.083252 
	C269.310120,329.479706 245.511810,374.616699 202.545395,379.833923 
	C170.935745,383.672150 140.805573,361.690735 134.996719,330.553925 
	C128.963577,298.214844 148.306610,267.230133 179.678375,259.077972 
	C194.804459,255.147354 209.375381,256.738037 223.664978,263.941956 
	C222.697968,265.782440 221.567902,267.637878 220.079590,269.137787 
	C207.882614,281.429840 195.593552,293.630493 183.386383,305.912537 
	C177.498779,311.836304 176.108261,319.937408 179.596680,326.978027 
	C182.886261,333.617371 189.833282,337.412231 198.016830,335.820648 
	C201.668976,335.110382 205.506226,332.884674 208.226059,330.271301 
	C220.590149,318.391052 232.574966,306.116455 244.730438,294.018158 
	C246.131363,292.623810 247.745743,291.443970 249.585114,290.083252 
z"/>
</svg>