<svg xmlns="http://www.w3.org/2000/svg" viewBox="0 0 64 64" width="800" height="800">
  <style>
    .c1 { fill: #ff786e; }
    .c2 { fill: #be5652; }
    .c3 { fill: #e7a523; }
    .c4 { fill: #ffc865; }
    .c5 { fill: #018273; }
    .c6 { fill: #00b3aa; }
    .c7 { fill: #508d9b; }
    .c8 { fill: #6bc4d2; }
  </style>
  <path class="c4" d="M32 7C18.2 7 7 18.2 7 32h50C57 18.2 45.8 7 32 7z"/>
  <path class="c3" d="M32 57c13.8 0 25-11.2 25-25H7c0 13.8 11.2 25 25 25z"/>
  <path class="c8" d="m8.8 41.8 9.4 1.9c.5.1 1-.2 1.2-.6l3.7-8.8c.1-.3.1-.6 0-.9l-6.4-12.1c-.1-.2-.3-.4-.5-.5l-9.4-1.9c-.4-.1-1.1.2-1.3.7L1.8 28.5c-.1.3-.1.7 0 .9l6.3 11.8c.1.2.3.4.7.6z"/>
  <path class="c7" d="m23.1 34.2-3.7 8.8c-.2.4-.7.7-1.2.6l-9.4-1.9a1.1 1.1 0 0 1-.5-.3l2.4-6.2c.2.3.6.3.9.4l3 .6c.3.1.5 0 .8-.1.2-.1.4-.3.4-.5l1.2-2.8c.1-.3.1-.6 0-.9l-2.3-4.3c0-.1-.1-.1-.2-.2l2.4-6.2 6.4 12.2c.2.3.2.6 0 .9zM1.8 29l6.4 1.5c0-.2 0-.4.1-.6l1.2-2.8c.1-.2.3-.4.5-.5l-3.9-7.4c-.2.1-.4.3-.5.5L1.8 28.5c-.1.2-.1.4 0 .5z"/>
  <path class="c6" d="m43 36.2-8.9 3.6c-.3.1-.6.5-.6.7l-4 12.8c-.1.2 0 .6.1.9l5.9 8.7c.3.4.6.5 1.1.5l9.1-3.7c.3-.1.5-.4.6-.7l4-13.1c0-.2 0-.4-.2-.5l-5.3-8c-.3-.4-.9-.6-1.3-.4z"/>
  <path class="c5" d="m45.1 59-8.9 3.6c-.4.2-1 0-1.3-.4l-5.3-8c-.1-.2-.2-.4-.2-.5l6.1-2.7c0 .4.1.4.2.6l1.7 2.6c.2.2.4.4.7.4.2.1.4 0 .7 0l2.9-1.2c.3-.1.5-.4.6-.7l1.4-4.6c0-.1 0-.2 0-.3l6.1-2.7-4 13.1c-.1.3-.3.6-.6.7zM33.7 40.2l3.5 5.6c.1-.2.3-.3.5-.4l2.9-1.2c.2-.1.5 0 .7 0l2.5-8a1 1 0 0 0-.7 0l-8.9 3.6c-.2.1-.4.2-.5.4z"/>
  <path class="c1" d="M53 10.3c0-.2-.1-.4-.2-.6L46.8.7c-.3-.4-1-.7-1.5-.5l-10 4.1c-.3.1-.6.5-.7.8l-4.5 14.4c-.1.3 0 .7.1 1l6 9c.3.5 1 .7 1.5.5l10-4.1c.3-.1.6-.4.7-.8l4.6-14.8z"/>
  <path class="c2" d="m47.7 25.9-10 4.1c-.5.2-1.2 0-1.5-.5l-6-9c-.1-.2-.2-.4-.2-.6l6.9-3c0 .4.2.7.2.7l1.9 2.9c.2.3.4.4.7.5.2.1.5 0 .7 0l3.2-1.3c.3-.1.6-.4.7-.8l1.6-5.2c0-.1 0-.2 0-.3l6.9-3-4.6 14.9c-.1.4-.4.6-.7.8zM34.8 4.6l3.9 6.4c.1-.2.3-.4.5-.5l3.2-1.3c.3-.1.5-.1.8 0l2.8-9c-.3.1-.5.1-.8.2l-10 4.1c-.2.1-.4.2-.4.3z"/>
</svg>
