<?xml version="1.0" encoding="UTF-8"?>
<svg xmlns="http://www.w3.org/2000/svg" xmlns:xlink="http://www.w3.org/1999/xlink" width="350px" height="350px" viewBox="0 0 350 350" version="1.1">
<g id="surface1">
<path style=" stroke:none;fill-rule:nonzero;fill:rgb(98.823529%,83.92157%,29.411766%);fill-opacity:1;" d="M 234.882812 121.816406 C 234.882812 125.507812 231.875 128.445312 228.253906 128.445312 C 224.5625 128.445312 221.621094 125.4375 221.621094 121.816406 L 35.34375 121.816406 L 35.34375 254.84375 C 35.34375 269.539062 47.234375 281.433594 61.933594 281.433594 L 288.132812 281.433594 C 302.832031 281.433594 314.726562 269.539062 314.726562 254.84375 L 314.726562 121.816406 Z M 234.882812 121.816406 "/>
<path style=" stroke:none;fill-rule:nonzero;fill:rgb(25.098041%,16.078432%,26.274511%);fill-opacity:1;" d="M 288.066406 284.171875 L 61.933594 284.171875 C 45.730469 284.171875 32.609375 270.976562 32.609375 254.84375 L 32.609375 121.816406 C 32.609375 120.3125 33.835938 119.082031 35.34375 119.082031 L 221.550781 119.082031 C 223.054688 119.082031 224.285156 120.3125 224.285156 121.816406 C 224.285156 124.003906 226.0625 125.710938 228.183594 125.710938 C 230.371094 125.710938 232.078125 123.933594 232.078125 121.816406 C 232.078125 120.3125 233.308594 119.082031 234.8125 119.082031 L 314.65625 119.082031 C 316.160156 119.082031 317.390625 120.3125 317.390625 121.816406 L 317.390625 254.84375 C 317.390625 270.976562 304.265625 284.167969 288.066406 284.167969 Z M 38.078125 124.550781 L 38.078125 254.84375 C 38.078125 268.039062 48.808594 278.699219 61.933594 278.699219 L 288.066406 278.699219 C 301.257812 278.699219 311.921875 267.96875 311.921875 254.84375 L 311.921875 124.550781 L 237.207031 124.550781 C 236.046875 128.378906 232.421875 131.179688 228.25 131.179688 C 224.082031 131.179688 220.460938 128.378906 219.296875 124.550781 Z M 38.078125 124.550781 "/>
<path style=" stroke:none;fill-rule:nonzero;fill:rgb(96.078432%,67.058825%,20%);fill-opacity:1;" d="M 281.4375 121.816406 L 281.4375 254.84375 C 281.4375 269.539062 269.539062 281.433594 254.84375 281.433594 L 288.132812 281.433594 C 302.832031 281.433594 314.726562 269.539062 314.726562 254.84375 L 314.726562 121.816406 Z M 281.4375 121.816406 "/>
<path style=" stroke:none;fill-rule:nonzero;fill:rgb(96.078432%,67.058825%,20%);fill-opacity:1;" d="M 68.5625 121.816406 L 68.5625 254.84375 C 68.5625 269.539062 80.457031 281.433594 95.15625 281.433594 L 61.933594 281.433594 C 47.234375 281.433594 35.34375 269.539062 35.34375 254.84375 L 35.34375 121.816406 Z M 68.5625 121.816406 "/>
<path style=" stroke:none;fill-rule:nonzero;fill:rgb(25.098041%,16.078432%,26.274511%);fill-opacity:1;" d="M 288.066406 284.71875 L 61.933594 284.71875 C 45.460938 284.71875 31.992188 271.320312 31.992188 254.773438 L 31.992188 121.816406 C 31.992188 119.96875 33.496094 118.464844 35.34375 118.464844 L 221.550781 118.464844 C 223.398438 118.464844 224.902344 119.96875 224.902344 121.816406 C 224.902344 123.664062 226.40625 125.164062 228.25 125.164062 C 230.097656 125.164062 231.601562 123.664062 231.601562 121.816406 C 231.601562 119.96875 233.105469 118.464844 234.949219 118.464844 L 314.792969 118.464844 C 316.640625 118.464844 318.144531 119.96875 318.144531 121.816406 L 318.144531 254.84375 C 318.007812 271.320312 304.539062 284.714844 288.066406 284.714844 Z M 288.066406 278.085938 C 300.917969 278.085938 311.375 267.625 311.375 254.773438 L 311.375 125.097656 L 237.617188 125.097656 C 236.25 128.992188 232.558594 131.726562 228.183594 131.726562 C 223.875 131.726562 220.117188 128.925781 218.75 125.097656 L 38.625 125.097656 L 38.625 254.773438 C 38.625 267.625 49.082031 278.085938 61.933594 278.085938 Z M 288.066406 278.085938 "/>
<path style=" stroke:none;fill-rule:nonzero;fill:rgb(98.823529%,83.92157%,29.411766%);fill-opacity:1;" d="M 314.65625 254.84375 C 314.65625 240.148438 302.765625 228.253906 288.066406 228.253906 L 274.734375 228.253906 L 274.734375 68.5625 L 288.066406 68.5625 C 302.765625 68.5625 314.65625 80.457031 314.65625 95.15625 Z M 314.65625 254.84375 "/>
<path style=" stroke:none;fill-rule:nonzero;fill:rgb(25.098041%,16.078432%,26.274511%);fill-opacity:1;" d="M 314.65625 257.578125 C 313.15625 257.578125 311.921875 256.347656 311.921875 254.84375 C 311.921875 241.648438 301.191406 230.988281 288.066406 230.988281 L 274.734375 230.988281 C 273.984375 230.988281 273.300781 230.714844 272.820312 230.167969 C 272.273438 229.621094 272 228.9375 272 228.253906 L 272 68.5625 C 272 67.0625 273.234375 65.828125 274.734375 65.828125 L 288.066406 65.828125 C 304.265625 65.828125 317.390625 79.023438 317.390625 95.15625 L 317.390625 254.773438 C 317.390625 256.347656 316.164062 257.578125 314.65625 257.578125 Z M 288.066406 225.449219 C 297.910156 225.449219 306.59375 230.304688 311.921875 237.753906 L 311.921875 95.15625 C 311.921875 81.960938 301.191406 71.296875 288.066406 71.296875 L 277.46875 71.296875 L 277.46875 225.449219 Z M 288.066406 225.449219 "/>
<path style=" stroke:none;fill-rule:nonzero;fill:rgb(96.078432%,67.058825%,20%);fill-opacity:1;" d="M 301.328125 95.15625 C 301.328125 80.457031 289.433594 68.5625 274.734375 68.5625 L 288 68.5625 C 302.695312 68.5625 314.589844 80.457031 314.589844 95.15625 L 314.589844 254.773438 C 314.589844 244.929688 309.257812 236.320312 301.257812 231.738281 L 301.257812 95.15625 Z M 301.328125 95.15625 "/>
<path style=" stroke:none;fill-rule:nonzero;fill:rgb(25.098041%,16.078432%,26.274511%);fill-opacity:1;" d="M 314.65625 258.125 C 312.8125 258.125 311.308594 256.621094 311.308594 254.777344 C 311.308594 241.925781 300.851562 231.464844 288 231.464844 L 274.667969 231.464844 C 272.820312 231.464844 271.320312 229.960938 271.320312 228.117188 L 271.320312 68.5625 C 271.320312 66.71875 272.820312 65.214844 274.667969 65.214844 L 288 65.214844 C 304.472656 65.214844 317.9375 78.613281 317.9375 95.15625 L 317.9375 254.773438 C 318.007812 256.621094 316.503906 258.125 314.65625 258.125 Z M 278.085938 224.902344 L 288.066406 224.902344 C 297.429688 224.902344 305.839844 229.277344 311.378906 236.046875 L 311.378906 95.226562 C 311.378906 82.375 300.917969 71.914062 288.066406 71.914062 L 278.085938 71.914062 Z M 278.085938 224.902344 "/>
<path style=" stroke:none;fill-rule:nonzero;fill:rgb(25.098041%,16.078432%,26.274511%);fill-opacity:1;" d="M 288.066406 189.96875 C 287.179688 189.96875 286.425781 189.21875 286.425781 188.328125 L 286.425781 68.5625 C 286.425781 67.675781 287.179688 66.921875 288.066406 66.921875 C 288.953125 66.921875 289.707031 67.675781 289.707031 68.5625 L 289.707031 188.261719 C 289.707031 189.21875 288.953125 189.96875 288.066406 189.96875 Z M 288.066406 229.890625 C 287.179688 229.890625 286.425781 229.140625 286.425781 228.253906 L 286.425781 201.660156 C 286.425781 200.773438 287.179688 200.019531 288.066406 200.019531 C 288.953125 200.019531 289.707031 200.773438 289.707031 201.660156 L 289.707031 228.25 C 289.707031 229.140625 288.953125 229.890625 288.066406 229.890625 Z M 288.066406 229.890625 "/>
<path style=" stroke:none;fill-rule:nonzero;fill:rgb(98.823529%,83.92157%,29.411766%);fill-opacity:1;" d="M 35.34375 254.84375 C 35.34375 240.148438 47.234375 228.253906 61.933594 228.253906 L 75.265625 228.253906 L 75.265625 68.5625 L 61.933594 68.5625 C 47.234375 68.5625 35.34375 80.457031 35.34375 95.15625 Z M 35.34375 254.84375 "/>
<path style=" stroke:none;fill-rule:nonzero;fill:rgb(25.098041%,16.078432%,26.274511%);fill-opacity:1;" d="M 35.34375 257.578125 C 33.835938 257.578125 32.609375 256.347656 32.609375 254.84375 L 32.609375 95.15625 C 32.609375 78.953125 45.800781 65.828125 61.933594 65.828125 L 75.265625 65.828125 C 76.765625 65.828125 78 67.058594 78 68.5625 L 78 228.183594 C 78 228.933594 77.722656 229.617188 77.179688 230.097656 C 76.632812 230.644531 75.945312 230.917969 75.265625 230.917969 L 61.933594 230.917969 C 48.742188 230.917969 38.078125 241.648438 38.078125 254.773438 C 38.078125 256.347656 36.84375 257.578125 35.34375 257.578125 Z M 61.933594 71.300781 C 48.742188 71.300781 38.078125 82.03125 38.078125 95.15625 L 38.078125 237.753906 C 43.40625 230.304688 52.089844 225.449219 61.933594 225.449219 L 72.53125 225.449219 L 72.53125 71.296875 L 61.933594 71.296875 Z M 61.933594 71.300781 "/>
<path style=" stroke:none;fill-rule:nonzero;fill:rgb(100%,92.54902%,65.098041%);fill-opacity:1;" d="M 48.601562 95.15625 C 48.601562 80.457031 60.5 68.5625 75.195312 68.5625 L 61.933594 68.5625 C 47.234375 68.5625 35.34375 80.457031 35.34375 95.15625 L 35.34375 254.773438 C 35.34375 244.929688 40.671875 236.320312 48.671875 231.738281 L 48.671875 95.15625 Z M 48.601562 95.15625 "/>
<path style=" stroke:none;fill-rule:nonzero;fill:rgb(25.098041%,16.078432%,26.274511%);fill-opacity:1;" d="M 35.34375 258.125 C 33.496094 258.125 31.992188 256.621094 31.992188 254.777344 L 31.992188 95.226562 C 31.992188 78.75 45.390625 65.285156 61.933594 65.285156 L 75.265625 65.285156 C 77.109375 65.285156 78.613281 66.789062 78.613281 68.632812 L 78.613281 228.253906 C 78.613281 230.097656 77.109375 231.601562 75.265625 231.601562 L 61.933594 231.601562 C 49.082031 231.601562 38.621094 242.0625 38.621094 254.914062 C 38.621094 256.621094 37.1875 258.125 35.34375 258.125 Z M 61.933594 71.914062 C 49.082031 71.914062 38.621094 82.375 38.621094 95.226562 L 38.621094 236.046875 C 44.09375 229.277344 52.5 224.902344 61.933594 224.902344 L 71.914062 224.902344 L 71.914062 71.914062 Z M 61.933594 71.914062 "/>
<path style=" stroke:none;fill-rule:nonzero;fill:rgb(25.098041%,16.078432%,26.274511%);fill-opacity:1;" d="M 61.933594 189.96875 C 61.046875 189.96875 60.292969 189.21875 60.292969 188.328125 L 60.292969 68.5625 C 60.292969 67.675781 61.042969 66.921875 61.933594 66.921875 C 62.820312 66.921875 63.574219 67.675781 63.574219 68.5625 L 63.574219 188.261719 C 63.574219 189.21875 62.824219 189.96875 61.933594 189.96875 Z M 61.933594 229.890625 C 61.046875 229.890625 60.292969 229.140625 60.292969 228.253906 L 60.292969 201.660156 C 60.292969 200.773438 61.042969 200.019531 61.933594 200.019531 C 62.820312 200.019531 63.574219 200.773438 63.574219 201.660156 L 63.574219 228.25 C 63.574219 229.140625 62.824219 229.890625 61.933594 229.890625 Z M 61.933594 229.890625 "/>
<path style=" stroke:none;fill-rule:nonzero;fill:rgb(90.196079%,90.588236%,90.980393%);fill-opacity:1;" d="M 181.839844 173.839844 L 200.644531 192.644531 L 191.21875 202.070312 L 172.414062 183.265625 Z M 181.839844 173.839844 "/>
<path style=" stroke:none;fill-rule:nonzero;fill:rgb(73.725492%,74.509805%,75.294119%);fill-opacity:1;" d="M 181.835938 173.835938 L 177.121094 178.554688 L 195.78125 197.558594 L 200.636719 192.703125 Z M 181.835938 173.835938 "/>
<path style=" stroke:none;fill-rule:nonzero;fill:rgb(25.098041%,16.078432%,26.274511%);fill-opacity:1;" d="M 191.203125 205.421875 C 190.382812 205.421875 189.492188 205.078125 188.875 204.464844 L 170.078125 185.664062 C 168.78125 184.367188 168.78125 182.246094 170.078125 180.949219 L 179.511719 171.515625 C 180.8125 170.214844 182.929688 170.214844 184.226562 171.515625 L 203.027344 190.3125 C 204.324219 191.609375 204.324219 193.730469 203.027344 195.03125 L 193.59375 204.394531 C 192.910156 205.078125 192.089844 205.421875 191.203125 205.421875 Z M 177.117188 183.273438 L 191.203125 197.355469 L 195.917969 192.636719 L 181.835938 178.554688 Z M 177.117188 183.273438 "/>
<path style=" stroke:none;fill-rule:nonzero;fill:rgb(34.901962%,76.47059%,94.117647%);fill-opacity:1;" d="M 205.320312 187.964844 L 242.925781 225.570312 L 224.125 244.375 L 186.515625 206.765625 Z M 205.320312 187.964844 "/>
<path style=" stroke:none;fill-rule:nonzero;fill:rgb(12.941177%,62.7451%,83.92157%);fill-opacity:1;" d="M 205.316406 188.039062 L 242.910156 225.65625 L 238.222656 230.339844 L 200.625 192.726562 Z M 205.316406 188.039062 "/>
<path style=" stroke:none;fill-rule:nonzero;fill:rgb(58.823532%,86.274511%,98.039216%);fill-opacity:1;" d="M 191.222656 202.109375 L 228.820312 239.726562 L 224.128906 244.410156 L 186.535156 206.796875 Z M 191.222656 202.109375 "/>
<path style=" stroke:none;fill-rule:nonzero;fill:rgb(25.098041%,16.078432%,26.274511%);fill-opacity:1;" d="M 224.148438 247.734375 C 223.328125 247.734375 222.441406 247.390625 221.828125 246.777344 L 184.226562 209.179688 C 182.929688 207.882812 182.929688 205.761719 184.226562 204.464844 L 203.027344 185.664062 C 204.324219 184.367188 206.445312 184.367188 207.742188 185.664062 L 245.339844 223.261719 C 246.640625 224.5625 246.640625 226.679688 245.339844 227.976562 L 226.476562 246.777344 C 225.859375 247.390625 224.972656 247.734375 224.152344 247.734375 Z M 191.203125 206.789062 L 224.148438 239.734375 L 238.234375 225.652344 L 205.28125 192.703125 Z M 191.203125 206.789062 "/>
<path style=" stroke:none;fill-rule:nonzero;fill:rgb(90.196079%,90.588236%,90.980393%);fill-opacity:1;" d="M 120.675781 187.957031 C 138.859375 206.136719 168.335938 206.140625 186.515625 187.957031 C 204.695312 169.777344 204.691406 140.300781 186.511719 122.121094 C 168.332031 103.941406 138.855469 103.941406 120.675781 122.121094 C 102.496094 140.300781 102.496094 169.777344 120.675781 187.957031 Z M 120.675781 187.957031 "/>
<path style=" stroke:none;fill-rule:nonzero;fill:rgb(73.725492%,74.509805%,75.294119%);fill-opacity:1;" d="M 186.550781 122.15625 C 175.957031 111.5625 161.53125 107.117188 147.722656 108.894531 C 157.566406 110.125 167.136719 114.570312 174.726562 122.15625 C 192.910156 140.34375 192.910156 169.804688 174.726562 187.988281 C 167.136719 195.578125 157.636719 199.953125 147.722656 201.25 C 161.53125 203.027344 175.957031 198.585938 186.550781 187.988281 C 204.667969 169.804688 204.667969 140.34375 186.550781 122.15625 Z M 186.550781 122.15625 "/>
<path style=" stroke:none;fill-rule:nonzero;fill:rgb(100%,100%,100%);fill-opacity:1;" d="M 120.65625 187.988281 C 131.25 198.585938 145.671875 203.027344 159.484375 201.25 C 149.640625 200.019531 140.070312 195.574219 132.480469 187.988281 C 114.296875 169.804688 114.296875 140.34375 132.480469 122.15625 C 140.070312 114.570312 149.570312 110.195312 159.484375 108.894531 C 145.675781 107.117188 131.25 111.5625 120.65625 122.15625 C 102.46875 140.34375 102.46875 169.804688 120.65625 187.988281 Z M 120.65625 187.988281 "/>
<path style=" stroke:none;fill-rule:nonzero;fill:rgb(25.098041%,16.078432%,26.274511%);fill-opacity:1;" d="M 153.601562 204.941406 C 140.273438 204.941406 127.761719 199.746094 118.328125 190.3125 C 108.894531 180.878906 103.699219 168.371094 103.699219 155.039062 C 103.699219 141.710938 108.894531 129.199219 118.328125 119.765625 C 127.765625 110.332031 140.273438 105.136719 153.601562 105.136719 C 166.933594 105.136719 179.445312 110.332031 188.875 119.765625 C 198.3125 129.199219 203.507812 141.710938 203.507812 155.039062 C 203.507812 168.371094 198.308594 180.878906 188.875 190.3125 C 179.445312 199.746094 166.933594 204.941406 153.601562 204.941406 Z M 153.601562 111.835938 C 142.53125 111.835938 131.453125 116.074219 123.046875 124.484375 C 106.164062 141.367188 106.164062 168.78125 123.046875 185.59375 C 139.929688 202.480469 167.34375 202.480469 184.160156 185.59375 C 201.042969 168.710938 201.042969 141.296875 184.160156 124.484375 C 175.75 116.074219 164.675781 111.835938 153.601562 111.835938 Z M 153.601562 111.835938 "/>
<path style=" stroke:none;fill-rule:nonzero;fill:rgb(34.901962%,76.47059%,94.117647%);fill-opacity:1;" d="M 131.648438 176.984375 C 143.769531 189.105469 163.421875 189.105469 175.539062 176.984375 C 187.660156 164.863281 187.660156 145.214844 175.539062 133.09375 C 163.417969 120.972656 143.769531 120.972656 131.648438 133.09375 C 119.527344 145.214844 119.53125 164.863281 131.648438 176.984375 Z M 131.648438 176.984375 "/>
<path style=" stroke:none;fill-rule:nonzero;fill:rgb(12.941177%,62.7451%,83.92157%);fill-opacity:1;" d="M 175.546875 133.09375 C 168.816406 126.359375 159.367188 123.085938 149.914062 124.207031 C 156.613281 125.027344 163.039062 127.96875 168.164062 133.09375 C 180.265625 145.195312 180.265625 164.882812 168.164062 176.980469 C 163.039062 182.109375 156.609375 185.046875 149.914062 185.867188 C 159.070312 186.960938 168.574219 184.023438 175.546875 176.980469 C 187.648438 164.882812 187.648438 145.195312 175.546875 133.09375 Z M 175.546875 133.09375 "/>
<path style=" stroke:none;fill-rule:nonzero;fill:rgb(58.823532%,86.274511%,98.039216%);fill-opacity:1;" d="M 131.660156 176.980469 C 138.632812 183.953125 148.203125 186.960938 157.296875 185.867188 C 150.59375 185.046875 144.171875 182.109375 139.042969 176.980469 C 126.945312 164.882812 126.945312 145.195312 139.042969 133.09375 C 144.171875 127.96875 150.59375 125.027344 157.296875 124.207031 C 148.132812 123.117188 138.632812 126.054688 131.660156 133.09375 C 119.5625 145.195312 119.5625 164.882812 131.660156 176.980469 Z M 131.660156 176.980469 "/>
<path style=" stroke:none;fill-rule:nonzero;fill:rgb(25.098041%,16.078432%,26.274511%);fill-opacity:1;" d="M 153.601562 189.425781 C 144.445312 189.425781 135.761719 185.871094 129.335938 179.375 C 122.839844 172.882812 119.289062 164.269531 119.289062 155.109375 C 119.289062 145.949219 122.839844 137.335938 129.335938 130.839844 C 135.828125 124.347656 144.445312 120.792969 153.601562 120.792969 C 162.765625 120.792969 171.445312 124.347656 177.871094 130.839844 C 184.367188 137.335938 187.917969 145.949219 187.917969 155.109375 C 187.917969 164.269531 184.367188 172.949219 177.871094 179.375 C 171.375 185.871094 162.765625 189.425781 153.601562 189.425781 Z M 153.601562 127.355469 C 146.21875 127.355469 139.25 130.226562 133.984375 135.488281 C 128.71875 140.75 125.851562 147.65625 125.851562 155.109375 C 125.851562 162.492188 128.71875 169.460938 133.984375 174.726562 C 139.25 179.992188 146.152344 182.859375 153.601562 182.859375 C 160.984375 182.859375 167.960938 179.992188 173.222656 174.726562 C 178.484375 169.460938 181.355469 162.558594 181.355469 155.109375 C 181.355469 147.726562 178.484375 140.75 173.222656 135.488281 C 167.957031 130.226562 160.984375 127.355469 153.601562 127.355469 Z M 153.601562 127.355469 "/>
<path style=" stroke:none;fill-rule:nonzero;fill:rgb(25.098041%,16.078432%,26.274511%);fill-opacity:1;" d="M 195.917969 217.859375 C 195.507812 217.859375 195.097656 217.726562 194.757812 217.382812 C 194.074219 216.699219 194.074219 215.671875 194.757812 215.058594 L 213.554688 196.261719 C 214.238281 195.578125 215.265625 195.578125 215.878906 196.261719 C 216.5625 196.945312 216.5625 197.96875 215.878906 198.585938 L 197.078125 217.382812 C 196.808594 217.65625 196.328125 217.859375 195.917969 217.859375 Z M 195.917969 217.859375 "/>
<path style=" stroke:none;fill-rule:nonzero;fill:rgb(25.098041%,16.078432%,26.274511%);fill-opacity:1;" d="M 85.382812 251.492188 L 72.597656 251.492188 C 70.75 251.492188 69.25 249.992188 69.25 248.144531 C 69.25 246.296875 70.75 244.796875 72.597656 244.796875 L 85.382812 244.796875 C 87.226562 244.796875 88.730469 246.296875 88.730469 248.144531 C 88.730469 249.992188 87.226562 251.492188 85.382812 251.492188 Z M 132.480469 251.492188 L 98.984375 251.492188 C 97.140625 251.492188 95.632812 249.992188 95.632812 248.144531 C 95.632812 246.296875 97.140625 244.796875 98.984375 244.796875 L 132.480469 244.796875 C 134.328125 244.796875 135.828125 246.296875 135.828125 248.144531 C 135.828125 249.992188 134.328125 251.492188 132.480469 251.492188 Z M 132.480469 251.492188 "/>
<path style=" stroke:none;fill-rule:nonzero;fill:rgb(29.019609%,70.980394%,67.450982%);fill-opacity:1;" d="M 165.703125 266.738281 C 155.449219 266.738281 147.179688 258.398438 147.179688 248.210938 C 147.179688 238.027344 155.515625 229.6875 165.703125 229.6875 C 175.957031 229.6875 184.226562 238.027344 184.226562 248.210938 C 184.226562 258.398438 175.957031 266.738281 165.703125 266.738281 Z M 165.703125 242.882812 C 162.832031 242.882812 160.4375 245.203125 160.4375 248.144531 C 160.4375 251.085938 162.765625 253.40625 165.703125 253.40625 C 168.574219 253.40625 170.96875 251.085938 170.96875 248.144531 C 170.96875 245.203125 168.640625 242.882812 165.703125 242.882812 Z M 165.703125 242.882812 "/>
<path style=" stroke:none;fill-rule:nonzero;fill:rgb(25.098041%,16.078432%,26.274511%);fill-opacity:1;" d="M 165.703125 270.019531 C 153.671875 270.019531 143.828125 260.175781 143.828125 248.144531 C 143.828125 236.113281 153.671875 226.269531 165.703125 226.269531 C 177.734375 226.269531 187.578125 236.113281 187.578125 248.144531 C 187.578125 260.242188 177.800781 270.019531 165.703125 270.019531 Z M 165.703125 232.96875 C 157.296875 232.96875 150.460938 239.804688 150.460938 248.214844 C 150.460938 256.621094 157.296875 263.457031 165.703125 263.457031 C 174.109375 263.457031 180.945312 256.621094 180.945312 248.214844 C 180.945312 239.804688 174.109375 232.96875 165.703125 232.96875 Z M 165.703125 256.757812 C 160.984375 256.757812 157.15625 252.929688 157.15625 248.214844 C 157.15625 243.496094 160.984375 239.667969 165.703125 239.667969 C 170.421875 239.667969 174.25 243.496094 174.25 248.214844 C 174.316406 252.863281 170.421875 256.757812 165.703125 256.757812 Z M 165.703125 246.230469 C 164.609375 246.230469 163.789062 247.121094 163.789062 248.144531 C 163.789062 249.238281 164.679688 250.058594 165.703125 250.058594 C 166.796875 250.058594 167.617188 249.171875 167.617188 248.144531 C 167.617188 247.121094 166.796875 246.230469 165.703125 246.230469 Z M 165.703125 246.230469 "/>
</g>
</svg>
