<svg xmlns="http://www.w3.org/2000/svg" viewBox="0 0 64 64" width="800" height="800">
  <style>
    .color1 { fill: #ff786e; }
    .color2 { fill: #be5652; }
    .color3 { fill: #e7a523; }
    .color4 { fill: #ffc865; }
    .color5 { fill: #018273; }
    .color6 { fill: #00b3aa; }
    .color7 { fill: #508d9b; }
    .color8 { fill: #6bc4d2; }
  </style>

  <!-- Background split (top half and bottom half) -->
  <path class="color4" d="M32 7C18.2 7 7 18.2 7 32h50C57 18.2 45.8 7 32 7z"/>
  <path class="color3" d="M32 57c13.8 0 25-11.2 25-25H7c0 13.8 11.2 25 25 25z"/>

  <!-- Stylized figure or object - simplified sample -->
  <path class="color8" d="M9 42l9 2c.5.1 1-.2 1.2-.6l3.7-8.8c.1-.2.1-.6 0-.9l-6.4-12.1c-.1-.2-.2-.3-.5-.3l-9.4-2c-.4-.1-1.1.2-1.3.7L2 28.5c-.1.3-.1.7 0 .9l6.2 11.8c.1.2.3.5.8.6z"/>
  <path class="color7" d="M23 34l-3.7 8.8c-.2.4-.7.7-1.2.6l-9-2 .7-1.8 3 .6c.3.1.6 0 .8-.1.2-.1.4-.3.5-.5l1.2-2.8c.1-.2.1-.6 0-.9l-2.2-4.3.6-1.5 6.4 12.1c.2.3.2.6 0 .9z"/>
  <path class="color6" d="M43 36l-8.9 3.6c-.3.1-.6.5-.6.7l-4 12.8c-.1.2 0 .6.1.9l5.3 8c.3.4.6.5 1.1.5l9.1-3.7c.3-.1.5-.4.6-.7l4-13.1c.1-.2.1-.4 0-.5l-5.3-8c-.3-.4-.9-.6-1.4-.4z"/>
  <path class="color5" d="M45.1 59l-8.9 3.6c-.4.2-1 .1-1.3-.4l-5.3-8c-.1-.1-.2-.4-.2-.5l6-2.7.2.3 1.7 2.6c.2.2.4.4.7.4.2.1.4 0 .7-.1l2.9-1.2c.3-.1.5-.4.6-.7l1.4-4.6.1-.3 6.1-2.7L46 58.3c-.1.3-.3.6-.7.7z"/>

  <!-- Add more shapes below if needed -->
</svg>
