<svg version="1.1" id="Uploaded to svgrepo.com" xmlns="http://www.w3.org/2000/svg" width="800" height="800" viewBox="0 0 64 64" xml:space="preserve">
    <style>
        .st0{fill:#6bc4d2}.st1{fill:#508d9b}.st2{fill:#8579a3}.st3{fill:#00b3aa}.st4{fill:#018273}.st5{fill:#685683}.st6{fill:#efeae0}.st7{fill:#aa9991}.st8{fill:#3a3a3a}.st9{fill:#666}.st10{fill:#4d4d4d}.st11{fill:#644638}.st12{fill:#4b322a}.st13{fill:snow}
    </style>
    <path d="M32 7C18.193 7 7 18.193 7 32h50C57 18.193 45.807 7 32 7z" style="fill:#ff786e"/>
    <path d="M32 57c13.807 0 25-11.193 25-25H7c0 13.807 11.193 25 25 25z" style="fill:#be5652"/>
    <path d="M8.334 50.511c-.04.065-.71 1.455.85 3.015 1.861 1.861 4.117 1.091 3.17-.944-.512-1.102-2.153-1.617-2.458-1.02-.334.658.44 1.33.795.975.4-.4 1.287.487.887.887-.941.941-3.354-.717-2.741-2.452.545-1.549 3.547-.489 4.469 1.495.895 1.924-.39 2.962.252 2.32l39.788-41.202c1.403-1.403 1.045-3.166-.016-4.227l-41.009 41.01c-2.152-1.251-3.374-.869-3.987.143z" style="fill:#be9148"/>
    <path d="M13.306 52.467c-.922-1.984-3.924-3.044-4.469-1.495-.613 1.734 1.8 3.393 2.741 2.452.4-.4-.487-1.287-.887-.887-.355.354-1.129-.317-.795-.975.305-.597 1.946-.081 2.458 1.02.947 2.035-1.31 2.805-3.17.944-1.56-1.56-.889-2.949-.85-3.015.613-1.013 1.834-1.395 3.987-.143L53.33 9.359c-1.945-1.945-3.671-.47-3.671-.47L7.502 49.53s-1.667 1.856 1.077 4.601c2.305 2.305 4.184 1.436 4.713.906.346-.346.543-1.432.014-2.57z" style="fill:#ffc865"/>
    <path d="M49.877 54.543 21.125 19.866C18.831 17.1 10.371 15.733 8.774 5.043c-5.281 3.72 2.182 20.136 12.459 18.447.462-.076 1.151.227 1.491.586l23.45 29.843c1.992 2.269 4.703-.011 3.703.624z" style="fill:gray"/>
    <path d="m49.574 49.748-24.105-26.29c-.884-1.042-1.128-2.133-.873-3.524C26.39 10.159 13.179 2.14 8.768 5.001c1.566 10.661 10.092 12.133 12.357 14.864l28.751 34.677c.86-.545 1.23-1.454 1.021-2.376-.196-.867-.706-1.765-1.323-2.418z" style="fill:#ccc"/>
</svg>
