<svg version="1.1" xmlns="http://www.w3.org/2000/svg" width="800" height="800" viewBox="0 0 64 64" xml:space="preserve" fill="#000">
  <style>
    .fandom_een{fill:#ff786e}
    .fandom_twee{fill:#be5652}
    .fandom_drie{fill:#e7a523}
    .fandom_vier{fill:#ffc865}
    .fandom_vijf{fill:#018273}
    .fandom_zes{fill:#00b3aa}
    .fandom_zeven{fill:#508d9b}
    .fandom_acht{fill:#6bc4d2}
  </style>
  <path class="fandom_vier" d="M32 7C18.193 7 7 18.193 7 32h50C57 18.193 45.807 7 32 7z"/>
  <path class="fandom_drie" d="M32 57c13.807 0 25-11.193 25-25H7c0 13.807 11.193 25 25 25z"/>
  <path class="fandom_acht" d="m8.799 41.774 9.386 1.94c.52.107 1.035-.21 1.216-.638l3.733-8.828a1.082 1.082 0 0 0-.039-.925c-.008-.015-6.431-12.124-6.425-12.14a1.069 1.069 0 0 0-.486-.259l-9.386-1.939c-.423-.087-1.054.19-1.252.657L1.813 28.47c-.125.296-.073.713.039.925L8.06 41.217s.269.46.739.557z"/>
  <path class="fandom_zeven" d="m23.135 34.247-3.733 8.828c-.181.428-.696.746-1.216.638L8.8 41.773a1.07 1.07 0 0 1-.49-.263l2.402-6.165s.253.267.558.33l3.024.625c.277.057.549-.005.777-.143a1.07 1.07 0 0 0 .439-.495l1.203-2.844a1.082 1.082 0 0 0-.039-.925l-2.255-4.295c-.044-.084-.116-.142-.179-.21l2.417-6.215 6.44 12.15c.15.286.164.626.038.924zM1.751 29.016l6.445 1.512a1.056 1.056 0 0 1 .041-.629l1.203-2.844c.097-.229.267-.406.472-.52l-3.883-7.396a1.037 1.037 0 0 0-.481.503L1.815 28.47a1.05 1.05 0 0 0-.064.546z"/>
  <path class="fandom_zes" d="m42.985 36.211-8.882 3.602c-.298.121-.556.453-.627.681l-3.971 12.75c-.069.223-.048.647.129.917L34.9 62.17c.292.444.63.482 1.1.465l9.093-3.659c.3-.122.53-.372.627-.681.005-.016 4.026-13.121 4.041-13.127a1.063 1.063 0 0 0-.161-.527l-5.266-8.008c-.317-.387-.884-.611-1.349-.422z"/>
  <path class="fandom_vijf" d="m45.094 58.975-8.882 3.602c-.431.175-1.02.035-1.311-.408l-5.266-8.009a1.064 1.064 0 0 1-.16-.533l6.058-2.661s-.01.368.161.628l1.697 2.58c.155.236.392.385.651.448.214.052.444.048.661-.04l2.862-1.161c.3-.122.53-.372.627-.681l1.442-4.631c.028-.09.018-.183.022-.275l6.104-2.686-4.038 13.145a1.085 1.085 0 0 1-.628.682zM33.672 40.156l3.488 5.626c.119-.179.27-.333.474-.416l2.862-1.161a1.08 1.08 0 0 1 .702-.034l2.484-7.976a1.04 1.04 0 0 0-.696.016l-8.882 3.602a1.069 1.069 0 0 0-.432.343z"/>
  <path class="fandom_een" d="M52.982 10.317a1.196 1.196 0 0 0-.182-.596L46.843.661c-.264-.401-.985-.695-1.527-.476L35.268 4.261c-.337.137-.629.512-.709.771l-4.492 14.423c-.078.252-.054.732.146 1.037l5.957 9.06c.33.502.996.66 1.484.462l10.047-4.075c.34-.138.6-.421.709-.771.006-.019 4.554-14.844 4.572-14.851z"/>
  <path class="fandom_twee" d="m47.701 25.938-10.047 4.075c-.487.198-1.154.04-1.484-.462l-5.957-9.06a1.196 1.196 0 0 1-.181-.602l6.853-3.01s-.012.416.182.71l1.919 2.919c.176.267.443.435.736.507.243.059.502.055.747-.045l3.237-1.313c.34-.138.6-.421.709-.771l1.632-5.239c.032-.102.021-.207.025-.311l6.905-3.039-4.568 14.87c-.108.35-.368.633-.708.771zM34.78 4.648l3.946 6.364c.135-.202.306-.377.536-.47l3.237-1.313c.261-.106.539-.111.794-.038l2.81-9.023a1.17 1.17 0 0 0-.787.018L35.268 4.261a1.21 1.21 0 0 0-.488.387z"/>
</svg>
