<svg data-name="Layer 1" xmlns="http://www.w3.org/2000/svg" viewBox="0 0 122.88 122.88">
    <path d="M61.44 0A61.44 61.44 0 1 1 0 61.44 61.44 61.44 0 0 1 61.44 0Z" style="fill-rule:evenodd;fill:#ef4136"/>
    <path d="M61.44 2.25a59.15 59.15 0 0 1 59.15 59.15v2.3a59.14 59.14 0 0 0-118.2 0v-2.3A59.15 59.15 0 0 1 61.44 2.25Z" style="fill:#ff7c73;fill-rule:evenodd"/>
    <path d="M81 44.75a7.08 7.08 0 0 1 10.71-9.27 40 40 0 1 1-60.87.39A7.07 7.07 0 0 1 41.67 45 25.85 25.85 0 1 0 81 44.75Zm-12.46 3.17a7.1 7.1 0 1 1-14.2 0V26.74a7.1 7.1 0 1 1 14.2 0v21.18Z" style="fill:#fff"/>
</svg>
