<svg width="192" height="108" viewBox="0 0 192 108" fill="none" xmlns="http://www.w3.org/2000/svg">
<g clip-path="url(#clip0_25424_44015)">
<path d="M117.236 58.883C116.066 57.7875 115.146 56.4524 114.539 54.9689C113.933 53.4853 113.654 51.8883 113.721 50.287C113.758 47.3174 114.934 44.4755 117.006 42.348C118.747 40.6069 121.386 39.2381 125.865 39.2381C127.277 39.2347 128.688 39.352 130.08 39.5885C131.056 39.7961 132.043 39.9423 133.037 40.0265C133.366 40.0265 133.42 40.1689 133.42 40.3441C133.42 40.5193 133.333 40.9245 133.278 41.9757C133.223 43.0269 133.212 44.5271 133.19 44.9651C133.168 45.4031 133.103 45.5783 132.928 45.5783C132.752 45.5783 132.698 45.3703 132.698 44.9651C132.706 44.413 132.602 43.865 132.391 43.3547C132.18 42.8444 131.867 42.3825 131.471 41.9976C129.758 40.8426 127.721 40.2635 125.657 40.3441C121.791 40.3441 119.995 41.4391 118.977 42.4685C116.853 44.5052 116.36 47.0895 116.36 50.057C116.342 51.4462 116.601 52.825 117.12 54.1135C117.639 55.4021 118.409 56.5748 119.385 57.5638C120.361 58.5527 121.523 59.3383 122.804 59.8749C124.086 60.4114 125.461 60.6884 126.85 60.6898C129.04 60.6898 130.748 60.427 131.909 59.2334C132.471 58.5225 132.847 57.6835 133.004 56.7915C133.004 56.4739 133.125 56.3534 133.3 56.3534C133.475 56.3534 133.497 56.5615 133.497 56.7915C133.361 58.0443 133.149 59.2876 132.862 60.5146C132.687 61.0621 132.632 61.1278 132.106 61.3577C130.407 61.8515 128.641 62.0769 126.872 62.0257C122.47 62.0257 119.535 60.9526 117.236 58.883Z" fill="#545454"/>
<path d="M138.688 48.0751C138.688 43.5417 138.688 42.7313 138.688 41.8006C138.688 40.8698 138.392 40.3442 137.428 40.1471C137.104 40.0839 136.773 40.0545 136.443 40.0595C136.333 40.0595 136.213 39.9938 136.213 39.8843C136.213 39.7748 136.355 39.6434 136.673 39.6434C137.987 39.6434 139.816 39.731 139.958 39.731C140.1 39.731 145.948 39.731 146.616 39.731C147.035 39.7135 147.452 39.6659 147.864 39.5886C148.006 39.5886 148.127 39.4353 148.269 39.4353C148.412 39.4353 148.39 39.5558 148.39 39.6981C148.39 39.8405 148.247 40.2566 148.16 41.0669C148.16 41.3516 148.072 42.6328 148.006 42.9832C148.006 43.1256 147.919 43.3008 147.809 43.3008C147.7 43.3008 147.579 43.1584 147.579 42.9285C147.585 42.5561 147.525 42.1855 147.404 41.8334C147.196 41.3735 146.911 41.0231 145.334 40.8479C144.842 40.7931 141.677 40.7603 141.36 40.7603C141.239 40.7603 141.184 40.8479 141.184 41.0559V49.0716C141.184 49.2796 141.184 49.3672 141.36 49.3672C141.732 49.3672 145.313 49.3672 145.981 49.3015C146.649 49.2358 147.076 49.192 147.338 48.8964C147.601 48.6007 147.667 48.5241 147.776 48.5241C147.886 48.5241 147.919 48.5241 147.919 48.754C147.919 48.984 147.776 49.422 147.689 50.3747C147.634 50.955 147.579 52.0391 147.579 52.2362C147.579 52.4333 147.579 52.7947 147.371 52.7947C147.163 52.7947 147.163 52.6742 147.163 52.5319C147.176 52.2069 147.139 51.8819 147.054 51.5682C146.933 51.1631 146.67 50.6703 145.543 50.5499C144.754 50.4623 141.874 50.4075 141.381 50.4075C141.354 50.4057 141.327 50.4099 141.301 50.4199C141.276 50.4299 141.253 50.4454 141.234 50.4652C141.215 50.4851 141.201 50.5089 141.192 50.5349C141.184 50.5608 141.181 50.5884 141.184 50.6156V53.167C141.184 54.1525 141.184 57.5471 141.184 58.1384C141.272 60.1423 141.71 60.5256 144.557 60.5256C145.496 60.579 146.438 60.4679 147.338 60.1971C148.094 59.8795 148.433 59.2992 148.652 58.1056C148.652 57.788 148.762 57.6785 148.915 57.6785C149.069 57.6785 149.09 57.9085 149.09 58.1056C149.09 58.3027 148.85 60.2956 148.707 60.9308C148.565 61.5659 148.269 61.6863 147.141 61.6863C142.761 61.6863 140.801 61.5111 139.958 61.5111C139.816 61.5111 137.987 61.5987 137.111 61.5987C136.793 61.5987 136.651 61.533 136.651 61.3688C136.651 61.2045 136.651 61.1936 136.881 61.1936C137.176 61.1804 137.469 61.14 137.757 61.0731C138.337 60.9527 138.48 60.3175 138.6 59.4744C138.742 58.2589 138.742 55.9593 138.742 53.167L138.688 48.0751Z" fill="#545454"/>
<path d="M105.639 61.0293C105.265 61.0491 104.891 60.9855 104.544 60.8431C103.607 60.4269 102.774 59.8101 102.102 59.0363C100.416 57.2295 98.4336 54.6562 96.0574 51.5901C98.6745 49.181 99.5724 47.0348 99.5724 44.8776C99.5571 44.1104 99.369 43.3565 99.022 42.6721C98.6751 41.9877 98.1783 41.3903 97.5685 40.9245C95.9692 39.9602 94.1085 39.5199 92.2467 39.6652C91.3487 39.6652 89.1368 39.7528 88.8192 39.7528C88.6769 39.7528 86.8482 39.6652 85.5341 39.6652C85.2166 39.6652 85.0742 39.7309 85.0742 39.9061C85.0742 40.0813 85.1837 40.0813 85.3042 40.0813C85.6348 40.0764 85.9651 40.1057 86.2897 40.1689C87.2533 40.366 87.4833 40.8369 87.538 41.8224C87.5928 42.808 87.6037 43.5635 87.6037 48.097V53.2107C87.6037 56.0031 87.6037 58.3026 87.4504 59.5181C87.3409 60.3613 87.1876 60.9964 86.6073 61.1169C86.3233 61.1838 86.0337 61.2241 85.7422 61.2373C85.567 61.2373 85.5122 61.3249 85.5122 61.4125C85.5122 61.5001 85.6546 61.6425 85.9721 61.6425C86.8482 61.6425 88.6769 61.5549 88.6988 61.5549C88.7207 61.5549 90.6808 61.6425 92.2795 61.6425C92.5971 61.6425 92.7394 61.5549 92.7394 61.4125C92.7394 61.2702 92.7394 61.2373 92.5095 61.2373C92.2795 61.2373 91.6116 61.1716 91.2064 61.1169C90.3304 60.9964 90.1114 60.3613 90.1114 59.5181C89.969 58.3026 89.969 56.0031 89.969 53.2107V52.5099C89.969 52.3676 89.969 52.28 90.1661 52.28L93.7469 52.3457C93.8174 52.3427 93.8876 52.3559 93.9522 52.3844C94.0167 52.4129 94.0739 52.4558 94.1192 52.5099C94.6995 53.2655 96.0683 55.2147 97.2948 56.8134C98.9483 59.0035 99.9666 60.416 101.215 61.084C102.18 61.5542 103.257 61.7475 104.325 61.6425H105.179C106.044 61.6425 107.884 61.5549 108.026 61.5549C108.168 61.5549 109.997 61.6425 111.596 61.6425C111.924 61.6425 112.067 61.5549 112.067 61.4125C112.067 61.2702 112.001 61.2373 111.837 61.2373C111.673 61.2373 110.928 61.1716 110.523 61.1169C109.658 60.9964 109.428 60.3613 109.428 59.5181C109.274 58.3026 109.274 56.0031 109.274 53.2107V48.075C109.274 43.5416 109.274 42.7313 109.34 41.8005C109.406 40.8697 109.625 40.2894 110.435 40.147C110.686 40.0878 110.944 40.0584 111.202 40.0594C111.227 40.0595 111.252 40.0543 111.276 40.0443C111.299 40.0342 111.32 40.0195 111.337 40.0011C111.355 39.9826 111.368 39.9608 111.377 39.9369C111.386 39.9131 111.389 39.8877 111.388 39.8623C111.388 39.6981 111.235 39.6433 110.928 39.6433C110.052 39.6433 108.223 39.7309 108.081 39.7309C107.938 39.7309 105.956 39.6652 105.004 39.6652C104.686 39.6652 104.533 39.7309 104.533 39.9061C104.533 40.0813 104.653 40.0813 104.774 40.0813C105.076 40.0813 105.378 40.1181 105.672 40.1908C106.307 40.3441 106.603 40.8369 106.657 41.8224C106.712 42.808 106.657 43.5635 106.657 48.097V53.2107C106.657 56.0031 106.657 58.3026 106.515 59.5181C106.481 59.8939 106.392 60.2628 106.252 60.6132C106.19 60.7372 106.094 60.8416 105.977 60.915C105.859 60.9884 105.723 61.028 105.584 61.0293H105.639ZM95.3128 50.8674C94.6553 51.2682 93.8914 51.4592 93.1227 51.4149C92.0805 51.4623 91.039 51.3061 90.0566 50.955C89.9945 50.9206 89.9432 50.8696 89.9084 50.8077C89.8736 50.7458 89.8567 50.6755 89.8595 50.6046V41.0997C89.8567 41.0246 89.8773 40.9506 89.9185 40.8878C89.9597 40.825 90.0195 40.7766 90.0895 40.7493C90.7306 40.6183 91.3844 40.5595 92.0386 40.5741C95.1485 40.5741 97.0648 42.7641 97.0648 46.3887C97.0867 48.6007 96.3311 50.1666 95.3128 50.8674Z" fill="#545454"/>
<path d="M74.147 50.6155C74.1491 55.2454 72.768 59.7703 70.1809 63.61C67.5938 67.4496 63.9187 70.4289 59.6269 72.1657C58.4721 72.6361 57.179 72.6361 56.0242 72.1657C51.7324 70.4289 48.0573 67.4496 45.4702 63.61C42.8831 59.7703 41.502 55.2454 41.5041 50.6155V36.5991C41.4991 36.3048 41.5906 36.0171 41.7647 35.7798C41.9387 35.5425 42.1856 35.3687 42.4677 35.285C46.4963 34.1007 50.6487 33.3878 54.8416 33.1607C55.8271 33.1607 56.8236 33.084 57.8201 33.084C63.0086 33.0783 68.1711 33.8158 73.1505 35.2741C73.4289 35.3604 73.6726 35.5333 73.8459 35.7677C74.0192 36.0021 74.1132 36.2857 74.1141 36.5772L74.147 50.6155Z" fill="#545454"/>
<path d="M57.5137 60.3722C57.4423 60.3722 57.3717 60.3864 57.3058 60.4141C57.24 60.4417 57.1804 60.4822 57.1304 60.5332C57.0804 60.5842 57.0411 60.6446 57.0148 60.711C56.9885 60.7774 56.9757 60.8483 56.9772 60.9197C56.9728 61 56.9918 61.0799 57.0319 61.1497L57.459 62.0476C57.459 62.0621 57.4648 62.076 57.475 62.0863C57.4853 62.0966 57.4992 62.1023 57.5137 62.1023C57.5283 62.1023 57.5422 62.0966 57.5525 62.0863C57.5627 62.076 57.5685 62.0621 57.5685 62.0476L57.9956 61.1497C58.0303 61.0779 58.049 60.9994 58.0503 60.9197C58.0518 60.8483 58.039 60.7774 58.0126 60.711C57.9863 60.6446 57.947 60.5842 57.8971 60.5332C57.8471 60.4822 57.7875 60.4417 57.7216 60.4141C57.6558 60.3864 57.5851 60.3722 57.5137 60.3722Z" fill="white"/>
<path d="M55.3111 62.3323C55.3116 62.2378 55.2877 62.1448 55.2416 62.0623C55.1956 61.9797 55.129 61.9106 55.0482 61.8614H54.9935C54.9798 61.852 54.9639 61.8461 54.9473 61.8445C54.9307 61.8428 54.914 61.8454 54.8987 61.852C54.8834 61.8585 54.87 61.8689 54.8598 61.882C54.8495 61.8952 54.8428 61.9107 54.8402 61.9271C54.8293 62.0912 54.8293 62.2558 54.8402 62.4199C54.8411 63.1937 55.0572 63.9519 55.4644 64.61C55.5723 64.783 55.6931 64.9477 55.8257 65.1027C55.8386 65.1117 55.8539 65.1165 55.8695 65.1165C55.8852 65.1165 55.9005 65.1117 55.9133 65.1027C55.9206 65.0956 55.9264 65.0871 55.9303 65.0777C55.9343 65.0683 55.9363 65.0582 55.9363 65.048C55.9363 65.0378 55.9343 65.0277 55.9303 65.0183C55.9264 65.0089 55.9206 65.0004 55.9133 64.9932C55.5038 64.2287 55.2894 63.3748 55.2892 62.5075C55.2906 62.4485 55.2979 62.3898 55.3111 62.3323Z" fill="white"/>
<path d="M57.8845 67.676L58.0488 67.4132C58.0761 67.3623 58.0822 67.3027 58.0658 67.2474C58.0494 67.192 58.0118 67.1453 57.9611 67.1176L57.8407 67.0409C57.8286 67.0301 57.8131 67.0242 57.7969 67.0242C57.7807 67.0242 57.7651 67.0301 57.7531 67.0409C57.6443 67.2858 57.5199 67.5236 57.3808 67.7527C57.3192 67.8507 57.2335 67.9313 57.1319 67.9869C57.0303 68.0425 56.9162 68.0712 56.8004 68.0702H56.6033C56.5486 68.0709 56.4954 68.088 56.4505 68.1192C56.4056 68.1505 56.3711 68.1944 56.3515 68.2454V68.3221C56.3478 68.3323 56.3468 68.3433 56.3484 68.354C56.35 68.3647 56.3543 68.3748 56.3608 68.3835C56.3673 68.3922 56.3759 68.3991 56.3857 68.4037C56.3955 68.4083 56.4063 68.4103 56.4172 68.4097H56.5267C56.5369 68.4146 56.5481 68.4171 56.5595 68.4171C56.5709 68.4171 56.5821 68.4146 56.5924 68.4097C56.6166 68.3525 56.6621 68.3068 56.7192 68.2823C56.7764 68.2578 56.8408 68.2564 56.899 68.2783C56.8922 68.2834 56.8866 68.29 56.8828 68.2976C56.879 68.3052 56.8771 68.3136 56.8771 68.3221C56.8771 68.3306 56.879 68.339 56.8828 68.3466C56.8866 68.3542 56.8922 68.3608 56.899 68.3659H57.2384C57.2487 68.3708 57.2599 68.3733 57.2713 68.3733C57.2826 68.3733 57.2939 68.3708 57.3041 68.3659V68.2673V68.1469C57.35 68.0303 57.4352 67.9335 57.545 67.8731C57.6747 67.8411 57.7924 67.7727 57.8845 67.676Z" fill="white"/>
<path d="M59.2099 66.9644C59.2037 66.9574 59.1961 66.9518 59.1876 66.948C59.1791 66.9441 59.1699 66.9421 59.1606 66.9421C59.1513 66.9421 59.142 66.9441 59.1335 66.948C59.125 66.9518 59.1175 66.9574 59.1113 66.9644C59.002 67.2377 58.8702 67.5014 58.7171 67.7528C58.654 67.8494 58.568 67.929 58.4667 67.9844C58.3655 68.0398 58.2521 68.0693 58.1367 68.0704H57.9396C57.8846 68.0695 57.8307 68.086 57.7855 68.1174C57.7403 68.1488 57.7061 68.1937 57.6878 68.2456V68.3222C57.6807 68.3311 57.6765 68.3419 57.6759 68.3532C57.6752 68.3646 57.6781 68.3758 57.6841 68.3854C57.6901 68.395 57.699 68.4025 57.7094 68.4069C57.7199 68.4113 57.7314 68.4123 57.7425 68.4098H57.852C57.864 68.4156 57.8771 68.4187 57.8903 68.4187C57.9036 68.4187 57.9167 68.4156 57.9287 68.4098C57.9395 68.3806 57.9562 68.3538 57.9777 68.3312C57.9992 68.3086 58.0251 68.2906 58.0537 68.2783C58.0824 68.266 58.1133 68.2596 58.1445 68.2597C58.1757 68.2597 58.2066 68.2661 58.2353 68.2784C58.2316 68.2886 58.2306 68.2996 58.2322 68.3103C58.2339 68.321 58.2381 68.3312 58.2446 68.3399C58.2511 68.3485 58.2597 68.3555 58.2695 68.36C58.2793 68.3646 58.2902 68.3667 58.301 68.366H58.7499H58.8485H58.9142C58.9365 68.35 58.9633 68.3414 58.9908 68.3414C59.0183 68.3414 59.0452 68.35 59.0675 68.366L59.188 68.4317H59.3303H59.396V68.2565C59.3844 68.2189 59.3613 68.1859 59.3298 68.1623C59.2983 68.1387 59.2601 68.1257 59.2208 68.1251H59.0675C59.0675 68.1251 58.9908 68.0594 59.0675 68.0156L59.1551 67.9061C59.2427 67.7747 59.3303 67.6433 59.407 67.5119L59.4946 67.3476C59.5095 67.3213 59.5188 67.2922 59.5218 67.2621C59.5249 67.232 59.5217 67.2016 59.5125 67.1727C59.5032 67.1439 59.4881 67.1174 59.468 67.0947C59.448 67.072 59.4235 67.0538 59.396 67.041L59.2099 66.9644Z" fill="white"/>
<path d="M59.5384 59.3758C59.6265 59.4555 59.6973 59.5524 59.7464 59.6606C59.7778 59.7167 59.8202 59.7659 59.871 59.8054C59.9218 59.8449 59.9799 59.8739 60.0421 59.8905C60.2538 59.9424 60.4518 60.0396 60.6224 60.1752C60.6214 59.8268 60.5144 59.4869 60.3158 59.2006C60.3013 59.1753 60.2806 59.1541 60.2558 59.1388C60.2309 59.1235 60.2026 59.1146 60.1735 59.113H60.1187C59.8807 59.1197 59.6524 59.2088 59.4727 59.3649C59.4727 59.3649 59.5384 59.3101 59.5384 59.3758Z" fill="white"/>
<path d="M59.9114 60.1642C59.8993 60.3096 59.8584 60.451 59.7909 60.5803C59.7641 60.6289 59.75 60.6836 59.75 60.7391C59.75 60.7946 59.7641 60.8493 59.7909 60.8979C59.8653 61.0934 59.8988 61.3021 59.8895 61.5111C60.1654 61.3465 60.3894 61.1074 60.5355 60.8212C60.5765 60.7372 60.588 60.6418 60.5682 60.5504C60.5483 60.459 60.4982 60.377 60.426 60.3175C60.2873 60.2038 60.1212 60.1283 59.9442 60.0985L59.9114 60.1642Z" fill="white"/>
<path d="M58.302 59.2006C58.4592 59.1114 58.636 59.0625 58.8167 59.0583H59.0357H59.1124C59.1991 59.0616 59.2844 59.0345 59.3533 58.9816C59.5119 58.8466 59.6991 58.7492 59.9008 58.6969C59.7525 58.5898 59.5853 58.5117 59.408 58.4669C59.3427 58.4565 59.2762 58.4565 59.2109 58.4669H59.0248C58.8478 58.5 58.6842 58.5837 58.5539 58.7078C58.4128 58.8422 58.3042 59.007 58.2363 59.1897L58.302 59.2006Z" fill="white"/>
<path d="M56.9878 58.872C57.0778 59.0486 57.1441 59.2364 57.1849 59.4305C57.2124 59.6413 57.2124 59.8548 57.1849 60.0656C57.335 60.0218 57.4946 60.0218 57.6448 60.0656C57.6173 59.8548 57.6173 59.6413 57.6448 59.4305C57.6756 59.2338 57.7424 59.0445 57.8419 58.872C57.8828 58.788 57.9304 58.7075 57.9842 58.6311C57.7964 58.7347 57.6294 58.872 57.4915 59.0363C57.4761 59.0528 57.4575 59.0661 57.4367 59.0751C57.416 59.0842 57.3936 59.0888 57.371 59.0888C57.3484 59.0888 57.326 59.0842 57.3053 59.0751C57.2846 59.0661 57.266 59.0528 57.2506 59.0363C57.1127 58.872 56.9456 58.7347 56.7578 58.6311C56.842 58.7039 56.919 58.7845 56.9878 58.872Z" fill="white"/>
<path d="M55.6522 59.0144C55.7211 59.0672 55.8063 59.0944 55.8931 59.091H55.9698H56.1888C56.3695 59.0953 56.5463 59.1442 56.7034 59.2334H56.7582C56.6904 59.0507 56.5818 58.8859 56.4406 58.7516C56.3103 58.6274 56.1467 58.5437 55.9698 58.5107H55.7836C55.7185 58.4982 55.6516 58.4982 55.5865 58.5107C55.4084 58.5533 55.2408 58.6315 55.0938 58.7406C55.2974 58.7906 55.4879 58.884 55.6522 59.0144Z" fill="white"/>
<path d="M55.257 59.6276C55.3139 59.5213 55.3879 59.4251 55.476 59.3429C55.2963 59.1868 55.068 59.0978 54.83 59.0911C54.8008 59.0927 54.7725 59.1015 54.7477 59.1168C54.7228 59.1321 54.7022 59.1534 54.6876 59.1787C54.4837 59.4623 54.3762 59.8039 54.381 60.1532C54.5505 60.0157 54.7489 59.9184 54.9614 59.8685C55.0256 59.8533 55.0856 59.8237 55.1368 59.782C55.188 59.7402 55.2291 59.6875 55.257 59.6276Z" fill="white"/>
<path d="M55.1818 61.5659C55.1724 61.3569 55.206 61.1482 55.2803 60.9527C55.3045 60.9032 55.3171 60.8489 55.3171 60.7939C55.3171 60.7388 55.3045 60.6845 55.2803 60.6351C55.2152 60.504 55.1709 60.3637 55.1489 60.219C54.967 60.2501 54.7968 60.3295 54.6561 60.4489C54.5863 60.5028 54.5394 60.581 54.5247 60.668C54.4918 60.7525 54.4918 60.8463 54.5247 60.9308C54.6638 61.2246 54.8892 61.4691 55.1708 61.6316C55.1708 61.6316 55.1708 61.5659 55.1818 61.5659Z" fill="white"/>
<path d="M59.5711 66.0007C59.1647 65.526 58.8425 64.9853 58.6185 64.4019C58.3986 63.7949 58.291 63.153 58.3009 62.5075C58.2954 62.4054 58.2954 62.303 58.3009 62.2009C58.2777 62.2009 58.2554 62.1917 58.239 62.1753C58.2225 62.1588 58.2133 62.1365 58.2133 62.1133C58.2118 62.0822 58.2167 62.0511 58.2276 62.0219C58.2385 61.9928 58.2552 61.9661 58.2767 61.9436C58.2982 61.9211 58.324 61.9031 58.3527 61.8909C58.3813 61.8787 58.4121 61.8724 58.4433 61.8724H59.0017H59.2645C59.332 61.8611 59.394 61.8284 59.4413 61.7791C59.4887 61.7298 59.5188 61.6665 59.5273 61.5986C59.5401 61.4225 59.51 61.246 59.4397 61.084C59.2861 61.1707 59.1125 61.216 58.936 61.2154C58.7844 61.2167 58.6345 61.1829 58.498 61.1168C58.4791 61.192 58.4534 61.2653 58.4214 61.3358L57.9286 62.4309C57.9037 62.4791 57.866 62.5196 57.8197 62.5479C57.7733 62.5761 57.7201 62.5911 57.6658 62.5911C57.6115 62.5911 57.5583 62.5761 57.5119 62.5479C57.4655 62.5196 57.4279 62.4791 57.403 62.4309L56.9102 61.3358C56.8782 61.2653 56.8525 61.192 56.8336 61.1168C56.6971 61.1829 56.5472 61.2167 56.3956 61.2154C56.2191 61.216 56.0455 61.1707 55.8918 61.084C55.8216 61.246 55.7915 61.4225 55.8042 61.5986C55.8127 61.6665 55.8429 61.7298 55.8903 61.7791C55.9376 61.8284 55.9996 61.8611 56.067 61.8724H56.3299H56.8883C56.9195 61.8724 56.9503 61.8787 56.9789 61.8909C57.0076 61.9031 57.0334 61.9211 57.0549 61.9436C57.0764 61.9661 57.0931 61.9928 57.104 62.0219C57.1149 62.0511 57.1198 62.0822 57.1183 62.1133C57.1183 62.1365 57.109 62.1588 57.0926 62.1753C57.0762 62.1917 57.0539 62.2009 57.0307 62.2009H56.1108H55.7823C55.7694 62.2009 55.7566 62.2035 55.7446 62.2084C55.7327 62.2134 55.7218 62.2206 55.7126 62.2298C55.7035 62.2389 55.6962 62.2498 55.6913 62.2618C55.6863 62.2737 55.6838 62.2865 55.6838 62.2995C55.6783 62.3906 55.6783 62.4821 55.6838 62.5732C55.6849 63.5229 55.9544 64.453 56.4613 65.2561C56.6853 65.6166 56.958 65.9445 57.2716 66.2306C57.5773 66.522 57.9196 66.7723 58.29 66.9753C58.2941 66.9425 58.2941 66.9094 58.29 66.8767C58.3228 66.7622 58.3228 66.6408 58.29 66.5263C58.2685 66.4118 58.2154 66.3056 58.1367 66.2197C57.9002 65.9621 57.6876 65.6835 57.5015 65.3875C57.497 65.3621 57.497 65.3362 57.5015 65.3108C57.494 65.2895 57.494 65.2664 57.5015 65.2451C57.5411 65.2354 57.5824 65.2354 57.622 65.2451C57.6615 65.2449 57.7004 65.2549 57.7349 65.274C57.7694 65.2932 57.7984 65.321 57.8191 65.3546C58.0567 65.7148 58.336 66.0456 58.6513 66.3401C58.7937 66.4606 58.936 66.581 59.0893 66.6905L59.4835 66.9533L59.5492 66.7672C59.5766 66.6594 59.5766 66.5465 59.5492 66.4387C59.5249 66.3284 59.472 66.2265 59.3959 66.143L59.5711 66.0007Z" fill="white"/>
<path d="M60.1296 66.5482C60.052 66.8007 59.9531 67.0461 59.834 67.2819C60.1688 67.4341 60.5125 67.5657 60.8633 67.6761C60.8733 67.6819 60.8846 67.6849 60.8962 67.6849C60.9077 67.6849 60.919 67.6819 60.929 67.6761L61.0823 67.4352V67.3257C61.1031 67.3034 61.1147 67.274 61.1147 67.2436C61.1147 67.2131 61.1031 67.1837 61.0823 67.1614C60.7432 66.9926 60.4238 66.7869 60.1296 66.5482Z" fill="white"/>
<path d="M62.0245 66.614C61.3565 66.3468 60.763 65.9223 60.2943 65.3766C59.912 64.9489 59.6247 64.4451 59.4511 63.8983C59.4454 63.8883 59.4423 63.877 59.4423 63.8654C59.4423 63.8539 59.4454 63.8426 59.4511 63.8326C59.4691 63.828 59.4879 63.828 59.5059 63.8326H59.5825C59.6313 63.8343 59.6787 63.8495 59.7193 63.8766C59.7599 63.9037 59.7922 63.9415 59.8125 63.9859C59.9717 64.415 60.2011 64.8147 60.4914 65.1685C60.7642 65.4872 61.0858 65.7607 61.4441 65.9789C61.7039 66.1347 61.9791 66.2631 62.2654 66.3621C62.2654 66.2855 62.2654 66.2198 62.2654 66.1431C62.2461 66.022 62.1997 65.9069 62.1295 65.8064C62.0593 65.7058 61.9672 65.6225 61.8602 65.5627C61.5196 65.3644 61.2128 65.113 60.9513 64.8181C60.591 64.3987 60.3358 63.8994 60.2067 63.3617C60.2016 63.3401 60.2016 63.3176 60.2067 63.296C60.2247 63.2914 60.2435 63.2914 60.2615 63.296C60.3155 63.294 60.3686 63.3102 60.4122 63.3419C60.4559 63.3737 60.4877 63.4192 60.5024 63.4712C60.5605 63.6888 60.6451 63.8984 60.7542 64.0954C60.859 64.2929 60.9878 64.4768 61.1375 64.6429C61.3773 64.9221 61.6623 65.159 61.9807 65.3437H62.0354C61.9205 64.7349 61.7631 64.1348 61.5646 63.5479C61.4499 63.2015 61.2798 62.8761 61.0608 62.5843C60.8579 62.3007 60.6057 62.0559 60.3162 61.8615C60.284 61.8521 60.2498 61.8521 60.2177 61.8615C60.2003 61.8543 60.1817 61.8506 60.1629 61.8506C60.1441 61.8506 60.1255 61.8543 60.1082 61.8615C59.9285 62.0033 59.7244 62.1109 59.5059 62.1791C59.2882 62.258 59.0585 62.2987 58.827 62.2995H58.5861C58.5588 62.2994 58.5325 62.3094 58.5123 62.3277C58.492 62.3459 58.4793 62.371 58.4766 62.3981V62.639C58.4761 63.2445 58.5836 63.8452 58.7941 64.413C59.1994 65.4667 59.9426 66.3563 60.9075 66.9425C61.3627 67.223 61.8628 67.4231 62.3858 67.5338C62.3809 67.4792 62.3809 67.4242 62.3858 67.3695C62.3966 67.223 62.369 67.0763 62.3056 66.9437C62.2422 66.8112 62.1453 66.6975 62.0245 66.614Z" fill="white"/>
<path d="M58.8605 66.9205C58.8605 66.9205 58.8605 66.8329 58.8605 66.7891L58.6634 66.6249H58.5977C58.5977 66.6796 58.5977 66.7234 58.5977 66.7782V66.8329L58.8057 66.9534C58.8057 66.9534 58.8495 66.9424 58.8605 66.9205Z" fill="white"/>
<path d="M58.8372 59.3757C58.6921 59.3757 58.5502 59.4188 58.4296 59.4994C58.3089 59.58 58.2149 59.6946 58.1594 59.8286C58.1038 59.9627 58.0893 60.1102 58.1176 60.2525C58.1459 60.3949 58.2158 60.5256 58.3184 60.6282C58.421 60.7308 58.5517 60.8007 58.6941 60.829C58.8364 60.8573 58.9839 60.8428 59.118 60.7872C59.252 60.7317 59.3666 60.6377 59.4472 60.517C59.5278 60.3964 59.5709 60.2545 59.5709 60.1094C59.5709 59.9148 59.4936 59.7282 59.356 59.5906C59.2184 59.453 59.0318 59.3757 58.8372 59.3757ZM58.8372 60.6131C58.7082 60.6077 58.586 60.5541 58.4947 60.4628C58.4034 60.3716 58.3498 60.2493 58.3444 60.1204C58.3424 60.0159 58.373 59.9134 58.4319 59.8271C58.4907 59.7408 58.575 59.6749 58.6729 59.6385C58.6729 59.6385 58.7496 59.6385 58.6729 59.7042C58.6418 59.7401 58.618 59.7818 58.6029 59.8269C58.5879 59.872 58.5819 59.9196 58.5853 59.9671C58.5903 60.0623 58.6297 60.1526 58.6961 60.221C58.7626 60.2895 58.8516 60.3315 58.9467 60.3394C58.9949 60.3419 59.0432 60.3345 59.0884 60.3175C59.1336 60.3006 59.1749 60.2745 59.2095 60.2408H59.2752C59.2478 60.3405 59.1896 60.4291 59.1091 60.494C59.0285 60.5588 58.9295 60.5967 58.8262 60.6022L58.8372 60.6131Z" fill="white"/>
<path d="M55.7811 59.4994C55.9018 59.4188 56.0436 59.3757 56.1888 59.3757C56.3833 59.3757 56.5699 59.453 56.7075 59.5906C56.8451 59.7282 56.9224 59.9148 56.9224 60.1094C56.9224 60.2545 56.8794 60.3964 56.7988 60.517C56.7182 60.6377 56.6036 60.7317 56.4695 60.7872C56.3355 60.8428 56.1879 60.8573 56.0456 60.829C55.9033 60.8007 55.7726 60.7308 55.67 60.6282C55.5674 60.5256 55.4975 60.3949 55.4692 60.2525C55.4409 60.1102 55.4554 59.9627 55.5109 59.8286C55.5665 59.6946 55.6605 59.58 55.7811 59.4994Z" fill="white"/>
<path d="M47.3514 38.3511C47.2597 38.3507 47.1694 38.3738 47.0891 38.4183C47.0088 38.4627 46.9413 38.527 46.893 38.605C46.8446 38.683 46.8171 38.7721 46.813 38.8637C46.8089 38.9554 46.8284 39.0466 46.8696 39.1286L47.2967 40.0265C47.3018 40.0382 47.3102 40.0482 47.3209 40.0552C47.3316 40.0622 47.3441 40.0659 47.3569 40.0659C47.3697 40.0659 47.3822 40.0622 47.3929 40.0552C47.4036 40.0482 47.412 40.0382 47.4171 40.0265L47.8442 39.1286C47.879 39.0568 47.8977 38.9783 47.899 38.8986C47.8962 38.7543 47.8376 38.6166 47.7355 38.5145C47.6334 38.4125 47.4958 38.3539 47.3514 38.3511Z" fill="white"/>
<path d="M45.1609 40.3113C45.165 40.2162 45.1425 40.1218 45.0961 40.0387C45.0497 39.9556 44.9812 39.8869 44.8981 39.8404H44.8434C44.8289 39.8307 44.8121 39.825 44.7947 39.8239C44.7774 39.8228 44.76 39.8263 44.7444 39.8341C44.7288 39.8419 44.7156 39.8537 44.706 39.8683C44.6965 39.8828 44.691 39.8997 44.6901 39.9171C44.6788 40.0775 44.6788 40.2385 44.6901 40.3989C44.691 41.1727 44.9071 41.9309 45.3142 42.589C45.4226 42.7645 45.5472 42.9295 45.6865 43.0817C45.6986 43.0925 45.7142 43.0984 45.7303 43.0984C45.7465 43.0984 45.7621 43.0925 45.7741 43.0817C45.7866 43.0662 45.7934 43.0469 45.7934 43.027C45.7934 43.0071 45.7866 42.9878 45.7741 42.9722C45.368 42.2069 45.1573 41.3529 45.1609 40.4865V40.3113Z" fill="white"/>
<path d="M47.7563 45.655C47.8111 45.5674 47.8658 45.4798 47.9096 45.3922C47.9352 45.342 47.9416 45.2842 47.9275 45.2298C47.9133 45.1753 47.8797 45.1278 47.833 45.0965L47.7125 45.0308C47.7063 45.0238 47.6988 45.0182 47.6903 45.0144C47.6818 45.0105 47.6726 45.0085 47.6632 45.0085C47.6539 45.0085 47.6447 45.0105 47.6362 45.0144C47.6277 45.0182 47.6201 45.0238 47.614 45.0308C47.5051 45.2757 47.3808 45.5135 47.2416 45.7426C47.18 45.8406 47.0943 45.9212 46.9928 45.9768C46.8912 46.0324 46.7771 46.0611 46.6613 46.0601H46.4751C46.4262 46.0669 46.38 46.0867 46.3415 46.1175C46.3029 46.1484 46.2734 46.1891 46.2561 46.2353V46.312C46.249 46.3208 46.2449 46.3317 46.2442 46.343C46.2436 46.3543 46.2465 46.3656 46.2525 46.3752C46.2585 46.3848 46.2673 46.3923 46.2778 46.3967C46.2882 46.401 46.2998 46.4021 46.3109 46.3996H46.4204C46.4306 46.4045 46.4419 46.407 46.4532 46.407C46.4646 46.407 46.4758 46.4045 46.4861 46.3996C46.5103 46.3423 46.5558 46.2967 46.613 46.2722C46.6701 46.2477 46.7345 46.2463 46.7927 46.2682C46.7891 46.2784 46.788 46.2893 46.7896 46.3001C46.7913 46.3108 46.7955 46.3209 46.802 46.3296C46.8085 46.3383 46.8171 46.3452 46.8269 46.3498C46.8367 46.3543 46.8476 46.3564 46.8584 46.3558H47.1978V46.2682V46.1368C47.2473 46.0224 47.3316 45.9266 47.4388 45.863C47.5585 45.8177 47.6669 45.7467 47.7563 45.655Z" fill="white"/>
<path d="M49.0818 44.9432C49.0818 44.9432 48.9942 44.9432 48.9832 44.9432C48.8702 45.2168 48.7347 45.4805 48.578 45.7317C48.5164 45.8297 48.4307 45.9103 48.3292 45.9659C48.2276 46.0215 48.1135 46.0502 47.9977 46.0492H47.8006C47.7459 46.0499 47.6927 46.067 47.6478 46.0982C47.6029 46.1295 47.5684 46.1734 47.5487 46.2244V46.3011C47.5451 46.3113 47.544 46.3222 47.5457 46.333C47.5473 46.3437 47.5516 46.3538 47.5581 46.3625C47.5646 46.3712 47.5731 46.3781 47.583 46.3827C47.5928 46.3872 47.6036 46.3893 47.6144 46.3887H47.7239C47.7342 46.3935 47.7454 46.3961 47.7568 46.3961C47.7681 46.3961 47.7794 46.3935 47.7896 46.3887C47.8139 46.3314 47.8594 46.2858 47.9165 46.2613C47.9736 46.2368 48.038 46.2354 48.0962 46.2573C48.0892 46.2661 48.085 46.277 48.0843 46.2883C48.0837 46.2996 48.0866 46.3109 48.0926 46.3205C48.0986 46.3301 48.1074 46.3376 48.1179 46.342C48.1284 46.3463 48.1399 46.3474 48.151 46.3449H48.5999H48.6985H48.7642C48.7865 46.3288 48.8134 46.3202 48.8409 46.3202C48.8684 46.3202 48.8952 46.3288 48.9175 46.3449L49.038 46.4106H49.1694H49.2898V46.2354C49.2782 46.1978 49.2551 46.1648 49.2236 46.1412C49.1921 46.1176 49.154 46.1045 49.1146 46.104H48.9723C48.9632 46.098 48.9558 46.0898 48.9507 46.0803C48.9456 46.0707 48.9429 46.0601 48.9429 46.0492C48.9429 46.0384 48.9456 46.0277 48.9507 46.0182C48.9558 46.0086 48.9632 46.0005 48.9723 45.9945L49.0489 45.885C49.1365 45.7536 49.2241 45.6222 49.3008 45.4908C49.3342 45.4384 49.3635 45.3834 49.3884 45.3265C49.4133 45.278 49.4193 45.222 49.4051 45.1693C49.391 45.1167 49.3576 45.0712 49.3117 45.0418L49.0818 44.9432Z" fill="white"/>
<path d="M49.3997 37.2999C49.4811 37.3854 49.5511 37.4811 49.6077 37.5846C49.6369 37.6404 49.6773 37.6896 49.7262 37.7291C49.7752 37.7687 49.8318 37.7978 49.8924 37.8146C50.1057 37.8622 50.3046 37.9598 50.4728 38.0993C50.4756 37.7519 50.3725 37.412 50.1772 37.1247C50.1596 37.0998 50.1367 37.079 50.1103 37.0638C50.0838 37.0487 50.0543 37.0396 50.0239 37.0371H49.9691C49.7343 37.0436 49.5094 37.1328 49.334 37.289C49.334 37.289 49.3997 37.289 49.3997 37.2999Z" fill="white"/>
<path d="M49.7712 38.1431C49.7594 38.2899 49.7145 38.4322 49.6398 38.5592C49.6184 38.6094 49.6074 38.6634 49.6074 38.718C49.6074 38.7726 49.6184 38.8266 49.6398 38.8768C49.7196 39.0708 49.7533 39.2807 49.7384 39.49C50.0114 39.3252 50.2318 39.0858 50.3735 38.8001C50.4062 38.7118 50.4062 38.6147 50.3735 38.5264C50.3662 38.4805 50.3498 38.4366 50.3254 38.3971C50.301 38.3576 50.2689 38.3234 50.2311 38.2964C50.0938 38.1804 49.9271 38.1046 49.7493 38.0774L49.7712 38.1431Z" fill="white"/>
<path d="M48.1626 37.1795C48.3198 37.0903 48.4966 37.0414 48.6773 37.0371H48.8963H48.9839C49.0671 37.0388 49.1483 37.0118 49.2138 36.9605C49.3753 36.8297 49.5615 36.7329 49.7613 36.6758C49.6131 36.5687 49.4459 36.4906 49.2686 36.4458C49.1997 36.4344 49.1294 36.4344 49.0605 36.4458H48.8744C48.6998 36.4765 48.539 36.5607 48.4145 36.6867C48.2688 36.8194 48.1562 36.9845 48.0859 37.1686L48.1626 37.1795Z" fill="white"/>
<path d="M46.858 36.851C46.9493 37.0261 47.0121 37.2146 47.0442 37.4095C47.09 37.6179 47.1084 37.8314 47.0989 38.0446C47.2491 38.0008 47.4087 38.0008 47.5588 38.0446C47.5313 37.8338 47.5313 37.6203 47.5588 37.4095C47.5996 37.2154 47.6659 37.0276 47.756 36.851C47.7969 36.767 47.8445 36.6865 47.8983 36.6101C47.7119 36.7112 47.548 36.849 47.4165 37.0153C47.3742 37.0312 47.3274 37.0312 47.2851 37.0153C47.2462 37.0295 47.2035 37.0295 47.1646 37.0153C47.0267 36.851 46.8597 36.7137 46.6719 36.6101C46.7406 36.685 46.8029 36.7656 46.858 36.851Z" fill="white"/>
<path d="M45.5109 36.9934C45.5798 37.0462 45.665 37.0733 45.7518 37.07H45.8284H46.0475C46.2281 37.0743 46.4049 37.1232 46.5621 37.2124C46.484 37.0325 46.3725 36.869 46.2336 36.7305C46.1059 36.6087 45.9465 36.5253 45.7737 36.4896H45.5766C45.5113 36.4792 45.4448 36.4792 45.3795 36.4896C45.2022 36.5344 45.0349 36.6125 44.8867 36.7196C45.1144 36.7572 45.329 36.8513 45.5109 36.9934Z" fill="white"/>
<path d="M45.1616 37.6065C45.2151 37.501 45.2854 37.4048 45.3697 37.3218C45.1914 37.1632 44.9621 37.0739 44.7236 37.07C44.6926 37.0697 44.662 37.0776 44.6351 37.093C44.6082 37.1084 44.5858 37.1307 44.5703 37.1576C44.3717 37.4438 44.2648 37.7837 44.2637 38.1321C44.4343 37.9965 44.6323 37.8994 44.844 37.8474C44.9117 37.8337 44.9753 37.8049 45.0303 37.7632C45.0852 37.7215 45.1301 37.6679 45.1616 37.6065Z" fill="white"/>
<path d="M45.0407 39.5666C45.0314 39.3577 45.0649 39.149 45.1393 38.9534C45.1786 38.8981 45.2014 38.8327 45.2053 38.7649C45.2092 38.6972 45.1939 38.6297 45.1612 38.5702C45.0865 38.4432 45.0416 38.3009 45.0298 38.1541C44.8509 38.1946 44.6829 38.273 44.537 38.384C44.4707 38.4409 44.4246 38.5178 44.4056 38.603C44.3726 38.6875 44.3726 38.7813 44.4056 38.8658C44.548 39.1574 44.7726 39.401 45.0517 39.5666H45.0407Z" fill="white"/>
<path d="M49.4433 43.9796C49.016 43.5122 48.6782 42.9703 48.4468 42.3808C48.215 41.7761 48.0963 41.134 48.0964 40.4864C48.0909 40.3843 48.0909 40.2819 48.0964 40.1798C48.074 40.1774 48.0531 40.1674 48.0371 40.1515C48.0212 40.1355 48.0112 40.1146 48.0088 40.0922C48.0088 40.0283 48.0342 39.967 48.0794 39.9218C48.1245 39.8767 48.1858 39.8513 48.2497 39.8513H48.8082H49.06C49.1282 39.8418 49.1912 39.8096 49.2389 39.76C49.2866 39.7103 49.3161 39.646 49.3228 39.5775C49.339 39.4023 49.3127 39.2258 49.2462 39.0629C49.0931 39.151 48.9191 39.1964 48.7425 39.1943C48.591 39.1944 48.4413 39.1607 48.3045 39.0957C48.2937 39.1696 48.2676 39.2405 48.2278 39.3038L47.735 40.3988C47.7118 40.4486 47.6746 40.4907 47.628 40.5198C47.5813 40.549 47.5272 40.564 47.4722 40.5631C47.4178 40.5615 47.3648 40.5454 47.3186 40.5166C47.2724 40.4877 47.2347 40.4471 47.2094 40.3988L46.7167 39.3038C46.685 39.2379 46.6628 39.1678 46.651 39.0957C46.51 39.16 46.3569 39.1936 46.202 39.1943C46.0256 39.1948 45.852 39.1496 45.6983 39.0629C45.6318 39.2258 45.6055 39.4023 45.6216 39.5775C45.6278 39.6445 45.6558 39.7075 45.7013 39.757C45.7468 39.8064 45.8073 39.8396 45.8735 39.8513H46.1363H46.6948C46.7587 39.8513 46.8199 39.8767 46.8651 39.9218C46.9103 39.967 46.9357 40.0283 46.9357 40.0922C46.9333 40.1146 46.9233 40.1355 46.9074 40.1515C46.8914 40.1674 46.8705 40.1774 46.8481 40.1798H45.9283H45.5997C45.5859 40.1783 45.5719 40.1796 45.5587 40.1839C45.5454 40.1882 45.5332 40.1952 45.5229 40.2045C45.5125 40.2138 45.5043 40.2252 45.4986 40.2379C45.493 40.2507 45.4902 40.2644 45.4902 40.2784C45.4902 40.3769 45.4902 40.4645 45.4902 40.5521C45.5002 41.4784 45.7655 42.3839 46.2568 43.1692C46.4843 43.5273 46.7566 43.8548 47.0671 44.1438C47.372 44.4361 47.7145 44.6865 48.0855 44.8884V44.7899C48.1183 44.6754 48.1183 44.554 48.0855 44.4395C48.0685 44.3235 48.0148 44.216 47.9322 44.1329C47.6991 43.8751 47.4902 43.5965 47.308 43.3006C47.3 43.2895 47.2957 43.2761 47.2957 43.2623C47.2957 43.2486 47.3 43.2352 47.308 43.224C47.3031 43.2137 47.3006 43.2025 47.3006 43.1911C47.3006 43.1798 47.3031 43.1685 47.308 43.1583C47.3473 43.147 47.3891 43.147 47.4284 43.1583C47.4677 43.1591 47.5062 43.1695 47.5406 43.1885C47.575 43.2076 47.6041 43.2348 47.6255 43.2678C47.8601 43.6302 48.1397 43.9614 48.4578 44.2533C48.5929 44.3786 48.7355 44.4957 48.8848 44.6037L49.279 44.8665L49.3447 44.6804C49.3721 44.5726 49.3721 44.4597 49.3447 44.3519C49.3199 44.244 49.2712 44.1429 49.2024 44.0562L49.4433 43.9796Z" fill="white"/>
<path d="M49.991 44.5271C49.9133 44.7796 49.8144 45.025 49.6953 45.2608C50.0308 45.4113 50.3744 45.5429 50.7246 45.655C50.7368 45.6601 50.7498 45.6627 50.763 45.6627C50.7761 45.6627 50.7892 45.6601 50.8013 45.655L50.9436 45.4141L51.0094 45.3046C51.028 45.2813 51.0382 45.2523 51.0382 45.2224C51.0382 45.1926 51.028 45.1636 51.0094 45.1403C50.6474 44.9758 50.3057 44.77 49.991 44.5271Z" fill="white"/>
<path d="M48.7206 44.8994V44.768L48.5235 44.6038H48.4688V44.7571C48.5342 44.8036 48.6039 44.8439 48.6768 44.8775L48.7206 44.8994Z" fill="white"/>
<path d="M48.2909 37.4674C48.4116 37.3868 48.5534 37.3438 48.6985 37.3438C48.7949 37.3438 48.8903 37.3627 48.9793 37.3996C49.0683 37.4365 49.1492 37.4905 49.2173 37.5586C49.2854 37.6268 49.3395 37.7076 49.3763 37.7967C49.4132 37.8857 49.4322 37.9811 49.4322 38.0774C49.4322 38.2225 49.3892 38.3644 49.3085 38.485C49.2279 38.6057 49.1133 38.6997 48.9793 38.7552C48.8452 38.8108 48.6977 38.8253 48.5554 38.797C48.4131 38.7687 48.2823 38.6988 48.1797 38.5962C48.0771 38.4936 48.0072 38.3629 47.9789 38.2206C47.9506 38.0782 47.9652 37.9307 48.0207 37.7967C48.0762 37.6626 48.1703 37.548 48.2909 37.4674Z" fill="white"/>
<path d="M45.6405 37.4674C45.7612 37.3868 45.903 37.3438 46.0481 37.3438C46.2427 37.3438 46.4293 37.421 46.5669 37.5586C46.7045 37.6962 46.7818 37.8828 46.7818 38.0774C46.7818 38.2225 46.7388 38.3644 46.6581 38.485C46.5775 38.6057 46.4629 38.6997 46.3289 38.7552C46.1948 38.8108 46.0473 38.8253 45.905 38.797C45.7627 38.7687 45.6319 38.6988 45.5293 38.5962C45.4267 38.4936 45.3569 38.3629 45.3286 38.2206C45.3002 38.0782 45.3148 37.9307 45.3703 37.7967C45.4258 37.6626 45.5199 37.548 45.6405 37.4674Z" fill="white"/>
<path d="M66.4276 38.3512C66.3359 38.3508 66.2455 38.374 66.1653 38.4184C66.085 38.4629 66.0175 38.5272 65.9691 38.6052C65.9208 38.6831 65.8933 38.7722 65.8892 38.8639C65.8851 38.9556 65.9046 39.0467 65.9458 39.1287L66.3729 40.0266C66.378 40.0384 66.3864 40.0483 66.3971 40.0553C66.4078 40.0624 66.4203 40.0661 66.4331 40.0661C66.4459 40.0661 66.4584 40.0624 66.4691 40.0553C66.4798 40.0483 66.4882 40.0384 66.4933 40.0266L66.9204 39.1287C66.962 39.0459 66.9815 38.9537 66.9769 38.8611C66.9723 38.7685 66.9438 38.6787 66.8942 38.6004C66.8446 38.5221 66.7755 38.458 66.6937 38.4143C66.612 38.3707 66.5203 38.3489 66.4276 38.3512Z" fill="white"/>
<path d="M64.2253 40.3113C64.2294 40.2162 64.2069 40.1218 64.1605 40.0387C64.1141 39.9556 64.0456 39.8869 63.9625 39.8404H63.9078C63.8933 39.8307 63.8765 39.825 63.8591 39.8239C63.8418 39.8228 63.8244 39.8263 63.8088 39.8341C63.7932 39.8419 63.78 39.8537 63.7704 39.8683C63.7609 39.8828 63.7554 39.8997 63.7545 39.9171C63.7433 40.0775 63.7433 40.2385 63.7545 40.3989C63.7326 41.3855 64.0846 42.3439 64.74 43.0817C64.752 43.0925 64.7676 43.0984 64.7838 43.0984C64.8 43.0984 64.8155 43.0925 64.8276 43.0817C64.8349 43.0746 64.8407 43.0661 64.8446 43.0567C64.8486 43.0473 64.8506 43.0372 64.8506 43.027C64.8506 43.0168 64.8486 43.0067 64.8446 42.9973C64.8407 42.9879 64.8349 42.9794 64.8276 42.9722C64.4214 42.2069 64.2108 41.3529 64.2144 40.4865L64.2253 40.3113Z" fill="white"/>
<path d="M66.81 45.655C66.81 45.5674 66.9195 45.4798 66.9633 45.3922C66.9916 45.3427 66.9994 45.2841 66.9851 45.2288C66.9707 45.1736 66.9355 45.1262 66.8867 45.0966L66.7662 45.0309C66.7524 45.0193 66.735 45.0129 66.717 45.0129C66.6989 45.0129 66.6815 45.0193 66.6677 45.0309C66.5632 45.2779 66.4387 45.516 66.2954 45.7426C66.2337 45.8407 66.1481 45.9213 66.0465 45.9769C65.9449 46.0325 65.8308 46.0612 65.715 46.0602H65.5288C65.4723 46.0587 65.4167 46.0747 65.3696 46.1061C65.3226 46.1375 65.2864 46.1826 65.266 46.2354V46.3121C65.2592 46.3172 65.2537 46.3238 65.2499 46.3314C65.2461 46.339 65.2441 46.3474 65.2441 46.3559C65.2441 46.3644 65.2461 46.3728 65.2499 46.3804C65.2537 46.388 65.2592 46.3946 65.266 46.3997H65.3755H65.4412C65.4633 46.3432 65.5067 46.2978 65.5621 46.2732C65.6174 46.2486 65.6803 46.2468 65.7369 46.2683C65.7333 46.2785 65.7322 46.2894 65.7339 46.3002C65.7355 46.3109 65.7397 46.321 65.7462 46.3297C65.7528 46.3384 65.7613 46.3453 65.7711 46.3499C65.781 46.3544 65.7918 46.3565 65.8026 46.3559H66.1421C66.1631 46.3644 66.1867 46.3644 66.2078 46.3559V46.2683L66.2625 46.1369C66.3078 46.0233 66.3884 45.9273 66.4925 45.8631C66.6171 45.8277 66.7279 45.7552 66.81 45.655Z" fill="white"/>
<path d="M68.1579 44.9433C68.1518 44.9363 68.1442 44.9307 68.1357 44.9268C68.1272 44.923 68.118 44.921 68.1087 44.921C68.0993 44.921 68.0901 44.923 68.0816 44.9268C68.0731 44.9307 68.0655 44.9363 68.0594 44.9433C67.9464 45.2168 67.8108 45.4805 67.6542 45.7317C67.5926 45.8297 67.5069 45.9104 67.4053 45.9659C67.3038 46.0215 67.1896 46.0502 67.0739 46.0492H66.8768C66.8221 46.05 66.7689 46.067 66.724 46.0983C66.6791 46.1295 66.6446 46.1734 66.6249 46.2245V46.3011C66.6213 46.3113 66.6202 46.3223 66.6218 46.333C66.6235 46.3437 66.6277 46.3539 66.6342 46.3625C66.6407 46.3712 66.6493 46.3781 66.6591 46.3827C66.669 46.3873 66.6798 46.3893 66.6906 46.3887H66.8001C66.8104 46.3936 66.8216 46.3961 66.8329 46.3961C66.8443 46.3961 66.8555 46.3936 66.8658 46.3887C66.8901 46.3315 66.9355 46.2858 66.9927 46.2613C67.0498 46.2369 67.1142 46.2354 67.1724 46.2573C67.1724 46.2573 67.1724 46.3449 67.2381 46.3449H67.6761H67.7747H67.8404C67.8649 46.3293 67.8934 46.3211 67.9225 46.3211C67.9516 46.3211 67.9801 46.3293 68.0046 46.3449L68.1251 46.4106H68.2565H68.3769V46.2354C68.367 46.1969 68.3442 46.1628 68.3124 46.1389C68.2806 46.1151 68.2415 46.1027 68.2017 46.104H68.0594C68.0503 46.098 68.0429 46.0899 68.0378 46.0803C68.0327 46.0708 68.03 46.0601 68.03 46.0492C68.03 46.0384 68.0327 46.0277 68.0378 46.0182C68.0429 46.0086 68.0503 46.0005 68.0594 45.9945L68.136 45.885C68.2236 45.7536 68.3112 45.6222 68.3879 45.4908L68.4864 45.3265C68.508 45.2764 68.511 45.2202 68.495 45.1681C68.4789 45.1159 68.4449 45.0712 68.3988 45.0418L68.1579 44.9433Z" fill="white"/>
<path d="M68.4634 37.2999C68.5476 37.383 68.6179 37.4791 68.6714 37.5846C68.7006 37.6404 68.741 37.6896 68.7899 37.7291C68.8389 37.7687 68.8955 37.7978 68.9561 37.8146C69.1694 37.8622 69.3683 37.9598 69.5365 38.0993C69.5354 37.7509 69.4285 37.411 69.2299 37.1247C69.2136 37.0986 69.191 37.0769 69.1643 37.0616C69.1375 37.0463 69.1074 37.0379 69.0766 37.0371H69.0218C68.7871 37.0436 68.5621 37.1328 68.3867 37.289L68.4634 37.2999Z" fill="white"/>
<path d="M68.8361 38.1431C68.8243 38.2899 68.7794 38.4322 68.7047 38.5592C68.6805 38.6086 68.668 38.663 68.668 38.718C68.668 38.773 68.6805 38.8273 68.7047 38.8768C68.7812 39.0716 68.8112 39.2815 68.7923 39.49C69.0654 39.3252 69.2857 39.0858 69.4274 38.8001C69.4546 38.7109 69.4546 38.6156 69.4274 38.5264C69.4041 38.4372 69.3545 38.3571 69.2851 38.2964C69.1435 38.1804 68.9733 38.1048 68.7923 38.0774L68.8361 38.1431Z" fill="white"/>
<path d="M67.2266 37.1795C67.3838 37.0903 67.5606 37.0414 67.7413 37.0371H67.9494H68.037C68.1204 37.0408 68.2023 37.0135 68.2669 36.9605C68.4309 36.8273 68.6212 36.7303 68.8254 36.6758C68.6771 36.5686 68.5099 36.4906 68.3326 36.4458C68.2778 36.4153 68.2188 36.3931 68.1574 36.3801H67.9603C67.7866 36.4134 67.6266 36.4972 67.5004 36.621C67.3615 36.7595 67.25 36.923 67.1719 37.1028L67.2266 37.1795Z" fill="white"/>
<path d="M65.9667 36.851C66.0568 37.0276 66.1231 37.2154 66.1638 37.4095C66.186 37.6206 66.186 37.8335 66.1638 38.0446C66.2364 38.0331 66.3103 38.0331 66.3828 38.0446C66.459 38.0323 66.5366 38.0323 66.6128 38.0446C66.5906 37.8335 66.5906 37.6206 66.6128 37.4095C66.6535 37.2154 66.7198 37.0276 66.8099 36.851C66.8508 36.767 66.8984 36.6865 66.9522 36.6101C66.7644 36.7137 66.5974 36.851 66.4595 37.0153C66.4171 37.0312 66.3704 37.0312 66.3281 37.0153C66.2892 37.0295 66.2465 37.0295 66.2076 37.0153C66.0697 36.851 65.9026 36.7137 65.7148 36.6101C65.8134 36.6868 65.8681 36.7634 65.9667 36.851Z" fill="white"/>
<path d="M64.5757 36.9934C64.6403 37.0463 64.7222 37.0736 64.8056 37.07H64.8714H65.0794C65.2601 37.0743 65.4369 37.1232 65.5941 37.2124C65.5159 37.0325 65.4045 36.869 65.2656 36.7306C65.1722 36.5769 65.0349 36.4549 64.8714 36.3801H64.6742C64.609 36.3697 64.5424 36.3697 64.4771 36.3801C64.2998 36.4249 64.1326 36.503 63.9844 36.6101C64.2091 36.6891 64.4118 36.8205 64.5757 36.9934Z" fill="white"/>
<path d="M64.1811 37.6065C64.2346 37.501 64.3049 37.4048 64.3892 37.3218C64.2109 37.1632 63.9817 37.0739 63.7431 37.07C63.7121 37.0697 63.6816 37.0776 63.6546 37.093C63.6277 37.1084 63.6053 37.1307 63.5898 37.1576C63.3912 37.4438 63.2843 37.7837 63.2832 38.1321C63.4567 37.9944 63.6587 37.8972 63.8745 37.8474C63.9402 37.8322 64.0016 37.8027 64.0546 37.7611C64.1076 37.7194 64.1508 37.6667 64.1811 37.6065Z" fill="white"/>
<path d="M64.0942 39.5666C64.0753 39.3582 64.1053 39.1482 64.1818 38.9534C64.206 38.904 64.2185 38.8497 64.2185 38.7946C64.2185 38.7396 64.206 38.6853 64.1818 38.6358C64.1071 38.5089 64.0622 38.3666 64.0504 38.2197C63.8694 38.2537 63.6999 38.3328 63.5576 38.4497C63.4853 38.5031 63.4347 38.5809 63.4152 38.6687C63.3876 38.7541 63.3876 38.8461 63.4152 38.9315C63.5612 39.2207 63.785 39.4634 64.0613 39.6323L64.0942 39.5666Z" fill="white"/>
<path d="M68.4962 43.9796C68.0845 43.5087 67.7617 42.967 67.5435 42.3808C67.3117 41.7761 67.1929 41.134 67.1931 40.4864C67.1876 40.3843 67.1876 40.2819 67.1931 40.1798C67.1707 40.1774 67.1498 40.1674 67.1338 40.1515C67.1179 40.1355 67.1079 40.1146 67.1055 40.0922C67.1055 40.0283 67.1309 39.967 67.1761 39.9218C67.2212 39.8767 67.2825 39.8513 67.3464 39.8513H67.9049H68.1567C68.2249 39.8418 68.2879 39.8096 68.3356 39.76C68.3832 39.7103 68.4128 39.646 68.4195 39.5775C68.4357 39.4023 68.4094 39.2258 68.3429 39.0629C68.1892 39.1496 68.0156 39.1948 67.8392 39.1943C67.6842 39.1936 67.5312 39.16 67.3902 39.0957C67.3783 39.1678 67.3562 39.2379 67.3245 39.3038L66.8208 40.3988C66.7975 40.4486 66.7603 40.4907 66.7137 40.5198C66.6671 40.549 66.613 40.564 66.558 40.5631C66.5046 40.5632 66.4522 40.5478 66.4075 40.5186C66.3627 40.4894 66.3275 40.4478 66.3061 40.3988L65.8024 39.3038C65.7707 39.2379 65.7486 39.1678 65.7367 39.0957C65.5957 39.16 65.4427 39.1936 65.2877 39.1943C65.1113 39.1948 64.9377 39.1496 64.784 39.0629C64.7175 39.2258 64.6912 39.4023 64.7074 39.5775C64.7141 39.646 64.7437 39.7103 64.7913 39.76C64.839 39.8096 64.902 39.8418 64.9702 39.8513H65.222H65.7805C65.8444 39.8513 65.9057 39.8767 65.9509 39.9218C65.996 39.967 66.0214 40.0283 66.0214 40.0922C66.019 40.1146 66.009 40.1355 65.9931 40.1515C65.9772 40.1674 65.9562 40.1774 65.9338 40.1798H64.9811H64.6526C64.6254 40.1797 64.5991 40.1897 64.5788 40.2079C64.5586 40.2261 64.5459 40.2512 64.5431 40.2784V40.5521C64.5376 41.2378 64.675 41.9171 64.9465 42.5468C65.218 43.1765 65.6176 43.7428 66.12 44.2095C66.4267 44.5045 66.7732 44.7551 67.1493 44.9541C67.1452 44.9214 67.1452 44.8883 67.1493 44.8556C67.1768 44.7404 67.1768 44.6204 67.1493 44.5052C67.1286 44.3881 67.071 44.2807 66.985 44.1986C66.752 43.9408 66.5431 43.6622 66.3609 43.3663C66.3609 43.3663 66.3609 43.3663 66.3609 43.2897C66.356 43.2794 66.3535 43.2682 66.3535 43.2568C66.3535 43.2455 66.356 43.2342 66.3609 43.224C66.4002 43.2127 66.442 43.2127 66.4813 43.224C66.5206 43.2248 66.5591 43.2352 66.5935 43.2543C66.6278 43.2733 66.657 43.3005 66.6784 43.3335C66.9129 43.6959 67.1926 44.0271 67.5107 44.319C67.6458 44.4443 67.7884 44.5614 67.9377 44.6694L68.3319 44.9322L68.3976 44.7461C68.425 44.6383 68.425 44.5254 68.3976 44.4176C68.3774 44.3081 68.3283 44.206 68.2553 44.1219L68.4962 43.9796Z" fill="white"/>
<path d="M69.0445 44.5271C68.9658 44.7776 68.8707 45.0227 68.7598 45.2608C69.0953 45.4113 69.4389 45.5429 69.7891 45.655C69.8104 45.6625 69.8335 45.6625 69.8548 45.655L69.9972 45.4141L70.0629 45.3046C70.0836 45.2823 70.0952 45.2529 70.0952 45.2224C70.0952 45.192 70.0836 45.1626 70.0629 45.1403C69.7041 44.9698 69.363 44.7644 69.0445 44.5271Z" fill="white"/>
<path d="M71.4411 45.1404C71.4136 45.0087 71.3529 44.8863 71.2648 44.7847C71.1766 44.6831 71.0639 44.6058 70.9374 44.56C70.6906 44.4594 70.4525 44.3386 70.2256 44.1987C69.8429 43.9655 69.4992 43.6736 69.2073 43.3336C68.836 42.898 68.55 42.3966 68.3641 41.8553C68.359 41.8337 68.359 41.8112 68.3641 41.7896H68.4298C68.4792 41.7885 68.5278 41.8026 68.5689 41.83C68.6101 41.8574 68.6418 41.8969 68.6597 41.9429C68.8281 42.396 69.0766 42.8152 69.3934 43.1803C69.6649 43.4961 69.9823 43.7693 70.3351 43.9906C70.5958 44.1447 70.8709 44.2731 71.1564 44.3739V44.1549C71.1324 44.0341 71.0828 43.9198 71.011 43.8198C70.9393 43.7197 70.847 43.6361 70.7403 43.5745C70.4011 43.3787 70.0975 43.127 69.8424 42.8299C69.478 42.4131 69.2223 41.9129 69.0977 41.3735C69.0929 41.3632 69.0904 41.352 69.0904 41.3406C69.0904 41.3293 69.0929 41.3181 69.0977 41.3078C69.1503 41.3063 69.2019 41.3229 69.2437 41.3547C69.2855 41.3866 69.3152 41.4319 69.3277 41.483C69.4505 41.9189 69.6673 42.3226 69.9628 42.6656C70.2068 42.9419 70.4956 43.1751 70.8169 43.3555H70.8717C70.7654 42.7458 70.6116 42.1454 70.4118 41.5597C70.2927 41.2152 70.1229 40.8904 69.9081 40.596C69.6997 40.3172 69.4484 40.0732 69.1634 39.8733C69.2002 39.8545 69.2292 39.8233 69.2452 39.7853C69.2613 39.7472 69.2633 39.7047 69.2511 39.6652C69.2124 39.65 69.1693 39.65 69.1306 39.6652C68.9541 39.8084 68.754 39.9196 68.5393 39.9938C68.3195 40.063 68.0908 40.0999 67.8604 40.1033H67.6085C67.5956 40.1033 67.5827 40.1058 67.5708 40.1108C67.5588 40.1157 67.548 40.123 67.5388 40.1321C67.5297 40.1413 67.5224 40.1521 67.5175 40.1641C67.5125 40.1761 67.51 40.1889 67.51 40.2018C67.5045 40.282 67.5045 40.3625 67.51 40.4427C67.5129 41.6472 67.9437 42.8115 68.7254 43.7278C69.4324 44.5553 70.383 45.1379 71.4411 45.3923C71.4528 45.3087 71.4528 45.2239 71.4411 45.1404Z" fill="white"/>
<path d="M67.7733 44.8994L67.828 44.768L67.6309 44.6038L67.5762 44.7571C67.6416 44.8036 67.7113 44.8439 67.7842 44.8775L67.7733 44.8994Z" fill="white"/>
<path d="M67.3554 37.4674C67.476 37.3868 67.6179 37.3438 67.763 37.3438C67.9576 37.3438 68.1442 37.421 68.2818 37.5586C68.4193 37.6962 68.4966 37.8828 68.4966 38.0774C68.4966 38.2225 68.4536 38.3644 68.373 38.485C68.2924 38.6057 68.1778 38.6997 68.0437 38.7552C67.9097 38.8108 67.7622 38.8253 67.6198 38.797C67.4775 38.7687 67.3468 38.6988 67.2442 38.5962C67.1416 38.4936 67.0717 38.3629 67.0434 38.2206C67.0151 38.0782 67.0296 37.9307 67.0851 37.7967C67.1407 37.6626 67.2347 37.548 67.3554 37.4674Z" fill="white"/>
<path d="M64.6933 37.4674C64.8139 37.3868 64.9558 37.3438 65.1009 37.3438C65.2954 37.3438 65.4821 37.421 65.6196 37.5586C65.7572 37.6962 65.8345 37.8828 65.8345 38.0774C65.8345 38.2225 65.7915 38.3644 65.7109 38.485C65.6303 38.6057 65.5157 38.6997 65.3816 38.7552C65.2476 38.8108 65.1 38.8253 64.9577 38.797C64.8154 38.7687 64.6847 38.6988 64.5821 38.5962C64.4795 38.4936 64.4096 38.3629 64.3813 38.2206C64.353 38.0782 64.3675 37.9307 64.423 37.7967C64.4786 37.6626 64.5726 37.548 64.6933 37.4674Z" fill="white"/>
<path d="M57.82 48.4254L45.041 61.2154C45.4243 61.9162 45.8404 62.5951 46.2894 63.2631L46.7493 63.8873L57.82 52.8055L68.9017 63.8873L69.3507 63.2631C69.8057 62.605 70.2225 61.9213 70.599 61.2154L57.82 48.4254Z" fill="white"/>
<path d="M57.8195 41.8552L43.168 56.5177C43.4487 57.639 43.8148 58.7373 44.263 59.8028L57.8195 46.2353L71.3212 59.748C71.7916 58.6843 72.1797 57.5861 72.4819 56.4629L57.8195 41.8552Z" fill="white"/>
</g>
<defs>
<clipPath id="clip0_25424_44015">
<rect width="115" height="44" fill="white" transform="translate(38 32)"/>
</clipPath>
</defs>
</svg>
