<svg width="192" height="108" viewBox="0 0 192 108" fill="none" xmlns="http://www.w3.org/2000/svg">
<g clip-path="url(#clip0_25424_44012)">
<path d="M97.0141 22C86.2201 22 76.6618 27.3761 70.8723 35.5967H68.6261V28.2454H67.5406L64.953 32.3836L63.5261 30.8396L63.2257 31.855L64.202 35.5967H62.188V39.0811H63.1916C57.9892 43.8591 44.0341 59.4379 44.0341 89.0446L44 92.0213C44 92.0213 44.512 92.5707 44.7169 92.7933C44.7032 93.2106 44.6418 94.692 44.6418 94.692L46.8606 98.4128C46.8606 98.4128 47.8369 98.9553 48.1988 99.15C48.2807 99.5534 48.5743 100.993 48.5743 100.993H50.4313C50.4313 100.993 51.1755 100.249 51.312 100.11C51.5169 100.019 53.0189 99.3587 53.0189 99.3587C53.0189 99.3587 53.8996 96.8201 54.0771 96.3124C54.4116 96.2012 55.2036 95.9438 55.2036 95.9438L56.3233 93.3288C56.3438 93.2732 57.5932 89.2672 57.9618 88.0779C58.0233 88.0571 58.0233 88.0571 58.0916 88.0431C58.4739 88.5091 59.3819 89.6288 59.3888 89.6288C59.3888 89.6288 60.2627 90.9085 60.4606 91.1798C60.5084 91.3954 60.8361 92.8698 60.8361 92.8698L62.9799 93.0367C62.9799 93.0367 64.7414 90.6999 64.7482 90.686C64.755 90.686 65.9771 89.5384 65.9771 89.5384L66.1888 89.3367V87.6884C66.1888 87.6884 65.7859 87.0764 65.5333 86.6939C65.5811 86.6522 65.588 86.6452 65.6357 86.6104C66.0112 86.7426 67.0285 87.1042 67.0285 87.1042L68.6671 84.7674C68.6671 84.7674 68.4622 84.2806 68.4076 84.1693C68.7149 83.8911 69.2474 83.4251 69.2474 83.4251C69.2474 83.4251 69.8482 81.13 69.9096 80.8797C70.0735 80.678 72.0398 78.209 72.0398 78.209L69.6639 75.288C69.3635 74.1891 68.4008 70.6143 68.3189 70.3292C68.353 70.2109 68.51 69.6128 68.708 68.8895C74.0675 79.0784 84.7522 86.0402 97.0277 86.0402C114.663 86.0402 129.007 71.6715 129.007 54.0201C129.007 36.3687 114.649 22 97.0141 22ZM67.6839 30.617V35.5898H65.6835L67.6839 30.617ZM55.0602 92.8489C55.0602 92.8489 54.4526 94.2538 54.2068 94.838C53.8791 94.9423 53.0257 95.2205 53.0257 95.2205C53.0257 95.2205 52.0972 97.8773 51.9402 98.3433C51.5715 98.5102 50.5406 98.9553 50.5406 98.9553C50.5406 98.9553 50.09 99.4073 49.8715 99.6229H49.6735C49.5779 99.1431 49.3936 98.2528 49.3936 98.2528C49.3936 98.2528 48.0827 97.5295 47.8301 97.3835C47.6663 97.1123 46.1779 94.6224 46.0004 94.3234C46.0141 93.9965 46.0755 92.2647 46.0755 92.2647L45.345 91.4788C45.345 91.2493 45.3518 90.6164 45.3586 90.0531C45.8365 90.2548 46.3213 90.4495 46.5602 90.5538C46.5739 91.0546 46.5944 92.223 46.5944 92.223L48.11 93.5166C48.11 93.5166 49.7349 92.2091 50.0831 91.9379C50.3904 92.3065 51.2643 93.3845 51.2643 93.3845L53.2442 93.6209C53.2442 93.6209 54.4867 91.5901 54.555 91.4719C54.596 91.4301 55.2173 90.7833 55.9205 90.0531C55.4767 91.4719 55.0534 92.8489 55.0534 92.8489H55.0602ZM69.3157 76.9989C69.6775 77.444 70.0735 77.9239 70.292 78.1951C69.8345 78.7723 68.6671 80.2398 68.6671 80.2398C68.6671 80.2398 68.1209 82.3332 68.0321 82.6671C67.8068 82.8687 66.7691 83.7798 66.7691 83.7798C66.7691 83.7798 67.0353 84.4127 67.1104 84.5935C66.9193 84.8648 66.7349 85.1291 66.496 85.4699C66.1205 85.3377 65.3353 85.0595 65.3353 85.0595L63.7378 86.4296C63.7378 86.4296 64.6663 87.8345 64.8301 88.0918V88.7525C64.5297 89.0307 63.7446 89.7819 63.7446 89.7819C63.6831 89.8444 62.7683 91.0615 62.3382 91.6249C62.1675 91.611 62.1197 91.604 61.9285 91.5971C61.8398 91.2076 61.71 90.6234 61.71 90.6234L60.4675 88.8151L58.5763 86.4922L58.194 86.6035L58.3373 85.0039L59.8189 86.2766L60.01 86.4435H61.3482C61.3482 86.4435 61.7237 84.4544 61.8602 83.7172C62.5498 83.7798 64.161 83.9259 64.161 83.9259C64.161 83.9259 65.1851 81.6934 65.4514 81.1092C65.9839 81.1161 67.5542 81.1439 67.5542 81.1439C67.5542 81.1439 68.0185 78.974 68.1618 78.2855C68.3052 78.2855 68.947 78.2507 68.947 78.2507L69.3157 77.0128V76.9989ZM65.0281 53.9992C65.0281 58.6311 66.0181 63.0405 67.7932 67.0187L66.9534 70.1344L66.9056 70.3083C66.9056 70.3083 68.2301 75.2184 68.3257 75.5662C68.2574 75.7887 68.0663 76.4355 67.9229 76.9154C67.7522 76.9224 67.0558 76.9571 67.0558 76.9571C67.0558 76.9571 66.612 79.0297 66.4618 79.746C65.8815 79.7391 64.5912 79.7112 64.5912 79.7112C64.5912 79.7112 63.6149 81.8464 63.3349 82.4654C62.7137 82.4028 60.761 82.2289 60.761 82.2289C60.761 82.2289 60.4197 84.0511 60.2695 84.8509L58.3305 83.2095C58.2076 82.9731 54.9647 76.4216 54.8213 76.1156C54.8349 75.8513 54.8896 74.7733 54.9032 74.509C55.0671 74.2517 56.5008 71.9149 56.5008 71.9149L56.4189 70.7117C56.4189 70.7117 55.8044 70.0232 55.5859 69.7728V68.9799H54.2341V70.2874C54.2341 70.2874 54.8964 71.0316 55.1012 71.2611C55.108 71.3933 55.1149 71.4419 55.1217 71.5671C54.9237 71.8801 53.5719 74.0917 53.5719 74.0917L53.4558 76.3938L57.1016 83.7659C57.0333 84.4544 56.8149 86.8608 56.7807 87.2155C56.4871 87.5285 53.5036 90.6373 53.5036 90.6373C53.5036 90.6373 52.855 91.7014 52.5614 92.1743C52.3088 92.1465 52.1791 92.1326 51.988 92.1117C51.7285 91.7988 50.7181 90.5469 50.7181 90.5469H49.6735C49.6735 90.5469 48.6494 91.3676 48.1578 91.757C48.0554 91.6666 48.0281 91.6527 47.9462 91.5832C47.9462 91.1659 47.9052 89.6358 47.9052 89.6358C47.9052 89.6358 45.9936 88.8429 45.3996 88.5926C45.5361 61.4548 57.559 46.481 63.1233 41.0006C62.8502 41.9882 62.6181 42.8297 62.5908 42.9062C62.502 43.0592 60.6928 46.022 60.6928 46.022C60.6382 46.1402 58.351 52.3161 58.351 52.3161L58.3169 52.4066C58.3169 52.4066 58.0506 56.0718 58.0301 56.4612C57.7775 56.7742 54.4116 60.8497 54.4116 60.8497V64.5288C54.4116 64.5288 55.0671 65.8781 55.19 66.1284C55.1763 66.3997 55.1217 67.4986 55.1217 67.4986L56.4735 67.5611L56.5554 65.8433C56.5554 65.8433 55.8727 64.4454 55.7566 64.2089V61.3366C56.0434 60.9888 59.341 56.9898 59.341 56.9898C59.341 56.9898 59.6345 52.8795 59.6482 52.6917C59.7165 52.5178 61.9012 46.6201 61.9012 46.6132C61.908 46.6132 63.7924 43.5322 63.7924 43.5322L63.8402 43.4487L65.0008 39.2689C65.0827 39.1993 65.1578 39.1367 65.2329 39.0741H68.7285C66.3663 43.5391 65.0281 48.6162 65.0281 54.0062V53.9992ZM97.0141 82.2567C81.4205 82.2567 68.7831 69.6059 68.7831 53.9992C68.7831 38.3926 81.4273 25.7626 97.0141 25.7626C112.601 25.7626 125.245 38.4134 125.245 54.0131C125.245 69.6128 112.601 82.2706 97.0141 82.2706V82.2567Z" fill="#545454"/>
<path d="M68.1612 78.2786C68.0179 78.9671 67.5536 81.137 67.5536 81.137C67.5536 81.137 65.9833 81.1092 65.4508 81.1023C65.1845 81.6934 64.1604 83.919 64.1604 83.919C64.1604 83.919 62.5424 83.766 61.8596 83.7103C61.7231 84.4475 61.3476 86.4366 61.3476 86.4366H60.0094L59.8183 86.2697L58.3367 84.997L58.1934 86.5966L58.5757 86.4853L60.4669 88.8082L61.7094 90.6165C61.7094 90.6165 61.8391 91.2007 61.9279 91.5901C62.1259 91.6041 62.1737 91.611 62.3375 91.618C62.7608 91.0546 63.6825 89.8375 63.744 89.7749C63.744 89.7749 64.5359 89.0238 64.8295 88.7456V88.0849C64.6588 87.8276 63.7371 86.4227 63.7371 86.4227L65.3347 85.0526C65.3347 85.0526 66.1267 85.3308 66.4954 85.4629C66.7343 85.1221 66.9187 84.8579 67.1098 84.5866C67.0347 84.4058 66.7685 83.7729 66.7685 83.7729C66.7685 83.7729 67.8062 82.8618 68.0315 82.6601C68.1203 82.3263 68.6665 80.2329 68.6665 80.2329C68.6665 80.2329 69.8339 78.7654 70.2913 78.1882C70.0729 77.9169 69.6769 77.4301 69.315 76.9919L68.9464 78.2299C68.9464 78.2299 68.3046 78.2577 68.1612 78.2647V78.2786Z" fill="#545454"/>
<path d="M53.2586 93.6348L51.2787 93.3984C51.2787 93.3984 50.4048 92.3204 50.0975 91.9518C49.7493 92.223 48.1244 93.5305 48.1244 93.5305L46.6088 92.2369C46.6088 92.2369 46.5815 91.0685 46.5746 90.5678C46.3357 90.4704 45.8509 90.2687 45.373 90.067C45.3662 90.6304 45.3594 91.2632 45.3594 91.4997L46.0899 92.2856C46.0899 92.2856 46.0216 94.0243 46.0148 94.3442C46.1923 94.6433 47.6807 97.1331 47.8445 97.4044C48.0971 97.5435 49.408 98.2737 49.408 98.2737C49.408 98.2737 49.5923 99.1639 49.6879 99.6438H49.8859C50.1044 99.4213 50.555 98.9762 50.555 98.9762C50.555 98.9762 51.5859 98.5311 51.9546 98.3641C52.1184 97.9051 53.0401 95.2414 53.0401 95.2414C53.0401 95.2414 53.8935 94.9563 54.2212 94.8589C54.467 94.2747 55.0746 92.8698 55.0746 92.8698C55.0746 92.8698 55.5048 91.4928 55.9417 90.074C55.2385 90.8112 54.624 91.451 54.5762 91.4928C54.508 91.611 53.2654 93.6418 53.2654 93.6418L53.2586 93.6348Z" fill="#545454"/>
<path d="M97.9894 46.4463H99.9898V65.7877H94.0364V46.4463H96.0368V36.2227H77.2617V46.4463H80.4091V69.4529L80.4296 69.4668L87.2774 77.0545H106.749L113.597 69.4668L113.617 69.4529V46.4463H116.771V36.2227H97.9894V46.4463Z" fill="#545454"/>
<path d="M62.9179 54.8686L61.573 54.7712L61.3477 57.894V57.9566L61.7641 61.1906L63.1091 61.0167C63.1091 61.0167 62.7199 58.0539 62.6995 57.9218C62.7131 57.7896 62.9179 54.8686 62.9179 54.8686Z" fill="#545454"/>
<path d="M60.5978 69.2998C60.748 68.9103 61.9086 65.9754 61.9086 65.9754V63.9237H60.5568V65.7181C60.4681 65.9406 59.1641 69.2442 59.1641 69.2442L60.3384 73.0554C60.352 73.1945 60.8163 78.3341 60.8163 78.3341L62.1613 78.2089L61.6629 72.7911C61.6629 72.7911 60.7139 69.6962 60.5841 69.2998H60.5978Z" fill="#545454"/>
<path d="M50.8077 78.3968L49.4559 78.369L49.3398 83.6756V83.9468C49.3398 83.9468 49.6607 84.3015 49.7904 84.4406V86.3949H51.1423V83.912C51.1423 83.912 50.8214 83.5712 50.6985 83.4252C50.7121 82.9383 50.8077 78.3899 50.8077 78.3899V78.3968Z" fill="#545454"/>
</g>
<defs>
<clipPath id="clip0_25424_44012">
<rect width="85" height="79" fill="white" transform="translate(44 22)"/>
</clipPath>
</defs>
</svg>
