<svg width="192" height="108" viewBox="0 0 192 108" fill="none" xmlns="http://www.w3.org/2000/svg">
<g clip-path="url(#clip0_25424_44020)">
<path d="M92.461 23.687C92.2237 23.687 92.2237 23.918 90.3048 24.6631C90.0442 24.7656 89.9722 24.8184 89.9722 24.9981C89.9722 25.1778 90.0909 25.2031 90.4708 25.2802C91.0393 25.3828 91.158 25.5369 91.158 25.9225V40.026C91.158 41.0289 90.9927 41.2594 90.2109 41.3632C89.9976 41.3882 89.879 41.5428 89.879 41.6717C89.879 41.8771 89.9976 41.9802 90.1869 41.9802C90.5188 41.9802 90.7074 41.8771 91.7978 41.8771C93.3854 41.8771 93.646 41.9802 93.7886 41.9802C93.9779 41.9802 94.1206 41.9029 94.1206 41.7232C94.1206 41.5171 94.0486 41.4405 93.598 41.3632C92.8155 41.2343 92.5789 40.9007 92.5789 40.3101V33.3987C92.5789 32.1138 93.8346 31.0866 95.0436 31.0866C96.1814 31.0866 96.9872 31.8575 96.9872 33.2448V40.4376C96.9872 41.0797 96.7972 41.2594 96.1581 41.3632C95.8734 41.414 95.7082 41.4669 95.7082 41.6981C95.7082 41.9036 95.8021 41.9802 96.0627 41.9802C96.324 41.9802 96.4893 41.8771 97.6983 41.8771C98.6454 41.8771 99.3573 41.9802 99.4519 41.9802C99.6172 41.9802 99.7838 41.9029 99.7838 41.7232C99.7838 41.492 99.6165 41.414 99.1433 41.3632C98.6221 41.3116 98.4081 40.9773 98.4081 40.1555V33.0387C98.3368 30.9828 97.0352 30.1102 95.7082 30.1102C94.0966 30.1102 92.9595 31.7551 92.7462 31.7551C92.6269 31.7551 92.5789 31.7029 92.5789 31.5748V24.0477C92.5789 23.7399 92.5323 23.687 92.461 23.687ZM62.6977 25.3821C60.4696 25.3821 58.6687 27.1046 58.6687 29.2108C58.6687 33.9903 64.9238 33.7069 64.9238 38.2282C64.9238 40.1546 63.8341 41.6714 62.2705 41.6714C60.8721 41.6714 59.8291 40.5404 59.2365 37.3807C59.1892 37.1237 59.1899 36.9955 58.9053 36.9955C58.6447 36.9955 58.5734 37.0471 58.5734 38.8453C58.5734 41.1574 58.6687 41.4151 59.0006 41.6463C59.4978 41.9792 60.4463 42.2871 61.7733 42.2871C64.4513 42.2871 66.3461 40.3858 66.3461 37.4573C66.3461 32.3183 60.091 33.014 60.091 28.4663C60.091 27.1309 61.1341 25.9994 62.3185 25.9994C63.3609 25.9994 64.2133 26.7703 64.8058 29.0308C64.9478 29.5706 64.8771 29.9817 65.2091 29.9817C65.4464 29.9817 65.4464 29.9295 65.4464 28.5938C65.4464 26.4613 65.4464 26.3086 65.3044 26.1543C64.9965 25.8195 63.6921 25.3821 62.6977 25.3821ZM87.2442 26.7701C87.0782 26.7701 87.0775 26.899 86.8409 27.3872C85.6319 29.8793 84.8988 30.3159 84.8988 30.6238C84.8988 30.9323 85.064 30.9323 85.2766 30.9323C85.6319 30.9323 86.0358 30.9316 86.0358 31.3432V39.9748C86.0358 41.594 86.723 42.1853 87.7894 42.1853C88.4285 42.1853 88.9511 42.0307 89.2823 41.4144C89.5902 40.8482 89.8262 40.0271 89.8262 39.8216C89.8262 39.667 89.7548 39.6162 89.6136 39.6162C89.2336 39.6162 89.069 41.1058 88.1679 41.1058C87.742 41.1058 87.4568 40.9519 87.4568 40.0779V31.6002C87.4568 31.2144 87.5288 31.1378 87.7647 31.1378H88.8325C89.3296 31.1378 89.4716 30.9845 89.4716 30.6502C89.4716 30.3417 89.3056 30.2637 88.8798 30.2637H87.9313C87.5761 30.2637 87.4568 30.1091 87.4568 29.6982V27.4124C87.4568 26.8462 87.3868 26.7701 87.2442 26.7701ZM71.0088 29.9566C68.5447 29.9566 66.9098 32.8078 66.9098 36.0706C66.9098 39.3334 68.5447 42.1853 71.0088 42.1853C73.4735 42.1853 75.1084 39.3334 75.1084 36.0706C75.1084 32.8078 73.4735 29.9566 71.0088 29.9566ZM103.412 29.9566C101.375 29.9566 99.3847 32.0111 99.3847 36.3276C99.3847 39.8216 100.9 42.1853 103.508 42.1853C105.378 42.1853 106.445 40.6949 106.445 39.0771C106.445 38.8201 106.374 38.7686 106.28 38.7686C106.114 38.7686 106.114 39.0242 105.83 39.6412C105.427 40.5139 104.763 41.1058 103.744 41.1058C102.086 41.1058 100.948 39.1537 100.948 36.0706C100.948 35.8129 101.09 35.6088 101.493 35.6088H105.83C106.398 35.6088 106.398 35.5302 106.398 34.0141C106.398 31.4449 105.118 29.9566 103.412 29.9566ZM75.3313 30.1614C74.9754 30.1614 74.8327 30.341 74.8327 30.5207C74.8327 30.7519 74.9747 30.8292 75.4493 30.8808C75.9705 30.9316 76.1117 31.1378 76.1117 31.6517V39.2575C76.1824 41.4659 77.4868 42.03 78.8138 42.03C80.662 42.03 81.5151 40.4386 81.8943 40.4386C82.0363 40.4386 82.0589 40.4888 82.0589 41.4394C82.0589 42.1331 82.1542 42.1853 82.2249 42.1853C82.3202 42.1853 83.0074 41.7995 84.0978 41.3377C84.4057 41.2089 84.5476 41.0814 84.5476 40.9526C84.5476 40.7465 84.4297 40.6956 83.9085 40.6434C83.4586 40.5926 83.364 40.3613 83.364 39.4358V30.7526C83.364 30.2122 83.2446 30.1614 83.0074 30.1614H80.8992C80.6153 30.1614 80.496 30.341 80.496 30.4956C80.496 30.855 80.662 30.8035 81.2785 30.8808C81.8703 30.9581 81.941 31.1893 81.941 31.7799V38.7421C81.941 40.0271 80.6846 41.0543 79.4769 41.0543C78.3392 41.0543 77.5348 40.2847 77.5348 38.8967V31.1628C77.5348 30.2637 77.5114 30.1614 77.1555 30.1614H75.3313ZM115.517 30.1614C115.346 30.1614 114.9 30.8299 113.645 31.4463C113.336 31.6002 113.192 31.7026 113.192 31.8314C113.192 32.0111 113.288 32.0382 113.666 32.0633C114.283 32.1142 114.379 32.1664 114.379 32.8858V40.2332C114.379 41.2347 114.214 41.4659 113.432 41.5696C113.22 41.5947 113.096 41.7493 113.096 41.8781C113.096 42.0829 113.213 42.1853 113.522 42.1853C113.734 42.1853 113.926 42.0829 115.017 42.0829C116.608 42.0829 116.868 42.1853 117.005 42.1853C117.197 42.1853 117.341 42.108 117.341 41.9283C117.341 41.6713 117.218 41.6971 116.464 41.5696C115.894 41.4659 115.798 41.2611 115.798 40.6698V33.6052C115.798 32.321 117.053 31.2923 118.26 31.2923C119.399 31.2923 120.208 32.0633 120.208 33.4499V40.6448C120.208 41.3126 120.016 41.4659 119.378 41.5696C119.09 41.6212 118.926 41.7486 118.926 41.9032C118.926 42.108 119.022 42.1853 119.282 42.1853C119.543 42.1853 119.707 42.0829 120.914 42.0829C122.245 42.0829 122.574 42.1853 122.67 42.1853C122.835 42.1853 123.006 42.108 123.006 41.9283C123.006 41.6971 122.835 41.6212 122.293 41.5696C121.82 41.5174 121.628 41.2103 121.628 40.3613V33.2445C121.559 31.1893 120.256 30.3166 118.926 30.3166C117.293 30.3166 116.224 31.9602 115.798 31.9602C115.682 31.9602 115.682 31.8829 115.682 30.4705C115.682 30.2909 115.606 30.1614 115.517 30.1614ZM109.043 30.1627C108.858 30.1627 108.762 30.3417 108.433 30.7269C107.624 31.6517 106.842 31.3961 106.842 31.9101C106.842 32.064 106.911 32.1148 107.075 32.1148C107.768 32.1148 108.001 32.2945 108.001 33.2194V40.1817C108.001 41.3642 107.884 41.4666 107.219 41.5696C106.911 41.6212 106.746 41.6727 106.725 41.8781C106.698 42.1094 106.869 42.1867 107.171 42.1867C107.343 42.1867 107.603 42.0829 108.687 42.0829C110.113 42.0829 110.326 42.1867 110.518 42.1867C110.943 42.1867 111.06 42.1344 111.06 41.9032C111.06 41.7235 110.799 41.6727 110.278 41.5696C109.475 41.415 109.427 41.1058 109.427 39.9247V34.5809C109.427 33.913 109.853 31.3961 110.895 31.3961C111.128 31.3961 111.128 31.8328 111.128 32.2437C111.128 32.8092 111.32 33.2696 111.958 33.2696C112.575 33.2696 112.836 32.6803 112.836 31.8578C112.836 30.8055 112.39 30.1627 111.608 30.1627C109.997 30.1627 109.709 32.3718 109.352 32.3718C109.119 32.3718 109.427 30.1627 109.043 30.1627ZM71.0088 30.5723C72.7383 30.5723 73.5442 33.5008 73.5442 36.0706C73.5442 38.6398 72.7383 41.5683 71.0088 41.5683C69.2785 41.5683 68.4748 38.6398 68.4748 36.0706C68.4748 33.5008 69.2785 30.5723 71.0088 30.5723ZM103.27 30.5723C104.313 30.5723 105.071 31.6002 105.071 33.3733C105.071 34.0663 104.976 34.349 104.763 34.5294C104.55 34.7091 103.626 34.8881 102.038 34.8881C101.043 34.8881 100.996 34.7857 100.996 34.3226C100.996 32.2165 101.991 30.5723 103.27 30.5723ZM125.921 36.668C125.687 36.668 125.687 36.9005 123.767 37.6457C123.507 37.7481 123.431 37.7996 123.431 37.9793C123.431 38.159 123.555 38.1841 123.932 38.2614C124.501 38.3645 124.618 38.5177 124.618 38.9035V43.8594V53.0091V57.963C124.618 58.9651 124.453 59.197 123.671 59.2994C123.459 59.3259 123.342 59.4777 123.342 59.6066C123.342 59.8127 123.459 59.9151 123.651 59.9151C123.98 59.9151 124.172 59.8134 125.255 59.8134C126.846 59.8134 127.107 59.9151 127.251 59.9151C127.443 59.9151 127.58 59.8391 127.58 59.6581C127.58 59.4533 127.512 59.3774 127.059 59.2994C126.277 59.1713 126.044 58.8377 126.044 58.2464V53.2912V51.335C126.044 50.0501 127.299 49.0228 128.506 49.0228C129.644 49.0228 130.447 49.7938 130.447 51.1811V58.3739C130.447 59.016 130.262 59.197 129.617 59.2994C129.336 59.3509 129.171 59.4025 129.171 59.633C129.171 59.8391 129.26 59.9151 129.528 59.9151C129.782 59.9151 129.953 59.8134 131.16 59.8134C132.106 59.8134 132.82 59.9151 132.916 59.9151C133.08 59.9151 133.245 59.8391 133.245 59.6581C133.245 59.4289 133.08 59.3509 132.607 59.2994C132.086 59.2486 131.873 58.9136 131.873 58.0918V50.9749C131.798 48.9204 130.495 48.0464 129.171 48.0464C127.56 48.0464 126.421 49.69 126.209 49.69C126.092 49.69 126.044 49.6392 126.044 49.5117V44.5558V41.9826V37.028C126.044 36.7209 125.996 36.668 125.921 36.668ZM135.508 43.6275C135.062 43.6275 134.63 44.0127 134.63 44.9118C134.63 45.8366 135.062 46.198 135.508 46.198C135.981 46.198 136.386 45.8366 136.386 44.9118C136.386 44.0127 135.981 43.6275 135.508 43.6275ZM73.0182 44.8657C72.5909 44.8657 72.5436 45.0087 72.5436 45.1504C72.5436 45.459 72.7575 45.3179 73.5634 45.5315C73.824 45.6027 73.9179 45.7688 73.9179 46.3621V58.2071C73.9179 58.8722 73.824 59.0614 72.8289 59.2743C72.6156 59.3225 72.5196 59.4418 72.5196 59.5605C72.5196 59.7971 72.6156 59.9164 72.8762 59.9164C73.2788 59.9164 73.3741 59.8215 74.7004 59.8215C76.0514 59.8215 76.0507 59.9164 76.4053 59.9164C76.7852 59.9164 76.8565 59.7971 76.8565 59.6079C76.8565 59.3469 76.5006 59.3225 76.1453 59.2506C75.7654 59.1801 75.4808 58.9428 75.4808 58.2545V52.5094C75.4808 52.3188 75.5062 52.2253 75.6728 52.2253H80.5536C80.6956 52.2253 80.7422 52.3188 80.7422 52.4619V58.2783C80.7422 58.919 80.6002 59.1319 80.079 59.2506C79.5112 59.3699 79.3926 59.4174 79.3926 59.5828C79.3926 59.8439 79.5112 59.9164 80.0324 59.9164C80.3643 59.9164 80.4823 59.8215 81.5487 59.8215C82.4491 59.8215 82.8997 59.9164 83.2549 59.9164C83.5622 59.9164 83.6342 59.8215 83.6342 59.6547C83.6342 59.3706 83.1596 59.4411 82.7084 59.2506C82.4478 59.1319 82.3072 58.8241 82.3072 58.2545V45.9817C82.3072 45.7681 82.4958 45.579 82.8037 45.5315C83.3249 45.4596 83.7055 45.364 83.7055 45.0799C83.7055 44.9613 83.6335 44.8657 83.3489 44.8657C82.9223 44.8657 82.757 44.9613 81.5953 44.9613C80.6956 44.9613 80.363 44.8657 79.8891 44.8657C79.5572 44.8657 79.3439 44.9382 79.3439 45.1755C79.3439 45.4366 79.6532 45.4366 80.221 45.5315C80.6482 45.6027 80.7422 45.8868 80.7422 46.5038V51.2529C80.7422 51.4903 80.7196 51.5614 80.5536 51.5614H75.6955C75.5302 51.5614 75.4808 51.4645 75.4808 51.299V46.1716C75.4808 45.7444 75.7435 45.579 76.0987 45.5315C76.5726 45.4596 76.8085 45.4834 76.8085 45.1504C76.8085 44.9613 76.7146 44.8657 76.3353 44.8657C75.9088 44.8657 75.3642 44.9613 74.6778 44.9613C74.0612 44.9613 73.3494 44.8657 73.0182 44.8657ZM39.4117 45.0725C39.2214 45.0725 38.8907 45.0955 38.8907 45.3545C38.8907 45.6583 39.1033 45.6366 39.6957 45.7302C40.1457 45.8007 40.2409 46.1987 40.2409 47.0205V57.9379C40.2409 58.6417 40.1457 59.1353 39.6957 59.2994C39.4351 59.3937 38.6777 59.4391 38.6777 59.7205C38.6777 59.8615 38.7473 59.9564 38.9376 59.9564C39.3165 59.9564 39.6482 59.8608 40.8329 59.8608C42.1599 59.8608 42.2078 59.9564 42.4924 59.9564C42.7059 59.9564 42.8474 59.909 42.8474 59.7205C42.8474 59.3211 42.3027 59.4404 41.6392 59.2994C41.0469 59.1828 40.9052 58.4071 40.9052 56.1065V47.843C40.9052 47.3968 40.9517 47.3263 41.07 47.3263C41.3074 47.3263 41.2836 47.7006 44.4828 53.5468C48.0851 60.1205 48.0371 60.3775 48.3217 60.3775C48.5823 60.3775 48.5816 60.3545 48.5816 59.6968V46.9737C48.5816 46.2001 48.725 45.8244 49.2702 45.7302C49.838 45.6366 50.0753 45.6359 50.0753 45.3545C50.0753 45.143 50.004 45.0725 49.696 45.0725C49.2462 45.0725 48.7716 45.166 48.2504 45.166C47.184 45.166 46.8514 45.0725 46.5908 45.0725C46.4255 45.0725 46.2842 45.1898 46.2842 45.3545C46.2842 45.5891 46.6155 45.659 47.0894 45.7302C47.6346 45.8007 47.9185 46.1526 47.9185 47.4667V56.1065C47.9185 56.3173 47.8952 56.4346 47.8005 56.4346C47.7052 56.4346 47.6099 56.3404 45.643 52.6077L42.2554 46.1757C41.9716 45.6115 41.8763 45.1674 41.5214 45.1437L41.0472 45.1199C40.6914 45.1199 39.8849 45.0725 39.4117 45.0725ZM120.65 47.8918C119.135 47.8918 117.427 48.7407 117.427 50.9749C117.427 54.829 121.864 54.1611 121.864 57.451C121.864 58.658 121.151 59.5049 120.033 59.5049C119.162 59.5049 118.614 58.7604 118.284 57.7073C117.9 56.4733 117.948 56.2163 117.715 56.2163C117.523 56.2163 117.455 56.4217 117.455 57.7318C117.455 59.5049 117.551 59.7361 117.784 59.8134C118.188 59.9415 118.662 60.1205 119.656 60.1205C121.789 60.1205 123.188 58.7604 123.188 56.4482C123.188 52.8518 118.614 52.7731 118.614 50.282C118.614 49.2798 119.375 48.5088 120.39 48.5088C121.124 48.5088 121.48 49.0228 121.741 49.7165C122.097 50.6942 122.097 51.078 122.337 51.078C122.571 51.078 122.571 50.6427 122.571 49.7429C122.571 48.7658 122.55 48.3807 122.433 48.3034C122.001 48.0729 121.412 47.8918 120.65 47.8918ZM54.0485 47.8932C52.0104 47.8932 50.0209 49.947 50.0209 54.2628C50.0209 57.7568 51.5365 60.1219 54.1432 60.1219C56.0154 60.1219 57.0818 58.6315 57.0818 57.0137C57.0818 56.756 57.0111 56.7038 56.9158 56.7038C56.7505 56.7038 56.7505 56.9615 56.4659 57.5778C56.0627 58.4518 55.3989 59.0424 54.3805 59.0424C52.7215 59.0424 51.5852 57.0903 51.5852 54.0072C51.5852 53.7509 51.7271 53.5454 52.1304 53.5454H56.4659C57.0351 53.5454 57.0351 53.4681 57.0351 51.952C57.0351 49.3829 55.7548 47.8932 54.0485 47.8932ZM88.4745 47.8932C87.3367 47.8932 86.0804 48.3292 85.1326 49.2533C84.0662 50.3064 83.7823 51.1309 83.7823 51.7466C83.7823 52.1568 83.9003 52.3107 84.2795 52.3107C85.0853 52.3107 85.5352 51.617 85.7018 50.9749C86.0564 49.5625 86.6263 48.5102 87.9053 48.5102C88.5924 48.5102 88.9003 48.9211 88.9003 50.282V51.7466C88.9003 52.6199 88.4752 52.748 86.3664 54.4167C84.5408 55.8569 83.8776 56.6028 83.8776 57.8613C83.8776 59.3516 84.6354 60.1219 85.6065 60.1219C87.6213 60.1219 88.4745 58.2464 88.8537 58.2464C89.2089 58.2464 88.9717 60.0188 90.3693 60.0188C91.7436 60.0188 92.2662 58.4518 92.2662 57.9379C92.2662 57.6551 92.1942 57.5778 92.0762 57.5778C91.7196 57.5778 91.8856 58.7339 90.9858 58.7339C90.5586 58.7339 90.3227 58.2206 90.3227 57.8097V49.6649C90.3227 48.2783 89.8968 47.8932 88.4745 47.8932ZM94.7069 47.8932C94.5403 47.8932 94.0897 48.5604 92.834 49.1774C92.5261 49.332 92.3841 49.4344 92.3841 49.5632C92.3841 49.7429 92.4788 49.768 92.858 49.7938C93.4739 49.8446 93.5685 49.8961 93.5685 50.6156V57.963C93.5685 58.9651 93.4025 59.197 92.6201 59.2994C92.4075 59.3259 92.2888 59.4791 92.2888 59.6079C92.2888 59.8141 92.4075 59.9164 92.7147 59.9164C92.9273 59.9164 93.1186 59.8134 93.9471 59.8134C95.5347 59.8134 95.796 59.9164 95.9379 59.9164C96.1272 59.9164 96.2698 59.8391 96.2698 59.6581C96.2698 59.4025 96.1519 59.4282 95.654 59.2994C95.0855 59.197 94.9895 58.9916 94.9895 58.4003V51.335C94.9895 50.0501 96.1985 49.0228 97.4556 49.0228C98.5679 49.0228 99.1858 49.8439 99.1858 51.5404V57.8613C99.1858 59.0431 99.0425 59.0946 98.118 59.2994C97.8814 59.3509 97.7635 59.5313 97.7635 59.6845C97.7635 59.8134 97.8348 59.9164 98.118 59.9164C98.474 59.9164 98.7339 59.8134 99.8716 59.8134C100.985 59.8134 101.293 59.9164 101.53 59.9164C101.79 59.9164 102.005 59.8656 102.005 59.6079C102.005 59.4032 101.886 59.3509 101.578 59.2994C100.678 59.1462 100.607 59.0418 100.607 58.2972V51.1811C100.607 49.8711 101.648 49.0228 102.833 49.0228C104.018 49.0228 104.8 49.7165 104.8 51.2848V57.8613C104.8 58.9658 104.54 59.0946 103.639 59.2994C103.402 59.3509 103.189 59.4791 103.189 59.633C103.189 59.89 103.402 59.9164 103.639 59.9164C103.9 59.9164 104.184 59.8134 105.344 59.8134C106.626 59.8134 106.907 59.9164 107.195 59.9164C107.476 59.9164 107.572 59.8391 107.572 59.633C107.572 59.5055 107.408 59.4282 106.983 59.2994C106.388 59.1197 106.222 58.9136 106.222 58.0918V50.6942C106.222 48.972 104.919 48.0464 103.615 48.0464C101.72 48.0464 100.748 49.768 100.369 49.768C99.9896 49.768 99.9422 48.0464 97.9281 48.0464C96.4824 48.0464 95.416 49.69 94.9895 49.69C94.8708 49.69 94.8715 49.6148 94.8715 48.2017C94.8715 48.022 94.8016 47.8932 94.7069 47.8932ZM110.226 47.8932C110.034 47.8932 109.87 48.3292 108.19 49.2533C107.95 49.3822 107.854 49.4093 107.854 49.6398C107.854 49.768 108.046 49.7931 108.45 49.9484C108.896 50.128 108.992 50.2569 108.992 50.6427V63.4871C108.992 64.5923 108.875 64.6181 107.929 64.8486C107.62 64.9252 107.593 65.0541 107.593 65.1822C107.593 65.3626 107.716 65.4656 108.094 65.4656C108.402 65.4656 108.944 65.3626 109.897 65.3626C110.94 65.3626 111.125 65.4656 111.481 65.4656C111.865 65.4656 112.03 65.3368 112.03 65.2073C112.03 64.9252 111.859 64.9002 111.577 64.8486C110.7 64.6947 110.418 64.515 110.418 63.6925V60.1219C110.418 59.8141 110.418 59.6079 110.556 59.6079C110.796 59.6079 111.317 60.1219 112.428 60.1219C114.705 60.1219 116.316 57.6545 116.316 54.2628C116.316 50.7179 114.773 48.2017 112.784 48.2017C111.625 48.2017 110.768 49.6398 110.535 49.6398C110.439 49.6398 110.391 49.5632 110.391 49.4846V48.2532C110.391 47.9691 110.322 47.8932 110.226 47.8932ZM136.033 47.8932C135.868 47.8932 135.395 48.4844 134.277 48.9204C133.756 49.1259 133.591 49.254 133.591 49.3829C133.591 49.5117 133.687 49.6148 133.804 49.6398C134.634 49.8195 134.805 49.9999 134.805 50.5905V58.1182C134.805 59.0173 134.682 59.1462 133.831 59.2994C133.523 59.3509 133.427 59.4791 133.427 59.633C133.427 59.8141 133.543 59.9164 133.715 59.9164C133.927 59.9164 134.208 59.8134 135.491 59.8134C136.718 59.8134 136.979 59.9164 137.288 59.9164C137.576 59.9164 137.644 59.8391 137.644 59.6581C137.644 59.4533 137.5 59.4032 137.054 59.2994C136.225 59.1197 136.225 58.7081 136.225 57.9894V48.1502C136.225 47.9698 136.149 47.8932 136.033 47.8932ZM140.408 47.8932C140.216 47.8932 140.12 48.0715 139.791 48.4573C138.981 49.3822 138.2 49.1266 138.2 49.6398C138.2 49.7931 138.275 49.8453 138.44 49.8453C139.125 49.8453 139.366 50.025 139.366 50.9498V57.9114C139.366 59.094 139.242 59.197 138.584 59.2994C138.275 59.3509 138.111 59.4032 138.083 59.6079C138.063 59.8391 138.227 59.9164 138.536 59.9164C138.7 59.9164 138.961 59.8134 140.051 59.8134C141.471 59.8134 141.683 59.9164 141.876 59.9164C142.301 59.9164 142.417 59.8649 142.417 59.633C142.417 59.4533 142.164 59.4032 141.642 59.2994C140.833 59.1455 140.785 58.837 140.785 57.6545V52.3107C140.785 51.6428 141.21 49.1259 142.253 49.1259C142.493 49.1259 142.493 49.5632 142.493 49.9734C142.493 50.5396 142.678 51.0014 143.323 51.0014C143.94 51.0014 144.2 50.4094 144.2 49.5883C144.2 48.5346 143.748 47.8932 142.966 47.8932C141.354 47.8932 141.073 50.1009 140.717 50.1009C140.476 50.1009 140.785 47.8932 140.408 47.8932ZM148.418 47.8932C146.374 47.8932 144.385 49.947 144.385 54.2628C144.385 57.7568 145.901 60.1219 148.507 60.1219C150.379 60.1219 151.449 58.6315 151.449 57.0137C151.449 56.756 151.381 56.7038 151.285 56.7038C151.12 56.7038 151.12 56.9615 150.832 57.5778C150.427 58.4518 149.769 59.0424 148.747 59.0424C147.088 59.0424 145.949 57.0903 145.949 54.0072C145.949 53.7509 146.093 53.5454 146.498 53.5454H150.832C151.401 53.5454 151.401 53.4681 151.401 51.952C151.401 49.3829 150.119 47.8932 148.418 47.8932ZM57.6057 48.0973C57.2978 48.0979 57.1558 48.1997 57.1558 48.4058C57.1558 48.8418 57.7477 48.3549 58.1736 49.7416L61.0175 59.3509C61.1129 59.6852 61.1842 60.1219 61.4448 60.1219C61.6821 60.1219 61.7513 59.7103 61.8466 59.3509L63.4823 53.4939C63.5529 53.2362 63.6016 52.9284 63.7429 52.9284C63.8615 52.9284 63.9088 53.1596 63.9801 53.3902L65.5204 59.3509C65.6151 59.6852 65.6857 60.1219 65.9463 60.1219C66.1829 60.1219 66.2542 59.7103 66.3495 59.3509L68.9096 49.6649C69.2168 48.5353 69.9499 49.0472 69.9499 48.4322C69.9499 48.1488 69.8087 48.0986 69.5954 48.0986C69.3588 48.0973 69.0275 48.2003 68.3404 48.2003C67.8658 48.2003 67.4626 48.0973 67.0833 48.0973C66.9414 48.0979 66.7994 48.2519 66.7994 48.4573C66.7994 48.5597 66.87 48.6885 67.0593 48.7143C67.9124 48.8167 68.1977 49.0743 68.1977 49.4595C68.1977 49.5368 68.173 49.8968 68.0791 50.2569L66.6808 55.5491C66.5614 56.0108 66.3969 56.6272 66.2549 56.6272C66.1603 56.6272 66.1356 56.4475 65.0932 52.7996C64.24 49.8195 64.1687 49.5368 64.1687 49.3049C64.1687 48.972 64.3587 48.8167 65.0465 48.7143C65.2358 48.6885 65.3785 48.6112 65.3785 48.4322C65.3785 48.2261 65.3298 48.0986 64.9272 48.0986C64.406 48.0973 64.3347 48.2003 63.6242 48.2003C63.245 48.2003 62.8657 48.0973 62.2252 48.0973C61.6814 48.0979 61.5387 48.2519 61.5387 48.4573C61.5387 48.894 62.5112 48.5861 62.8191 49.4595C63.269 50.7186 63.4109 51.1546 63.4109 51.3865C63.4109 51.5655 63.3403 51.8476 63.245 52.1825L62.1319 55.9593C62.0366 56.2936 61.918 56.6272 61.7753 56.6272C61.6574 56.6272 61.634 56.5248 61.5154 56.1648L59.7385 50.5389C59.5006 49.7924 59.4539 49.5639 59.4539 49.3578C59.4539 48.4329 60.5676 48.8689 60.5676 48.3807C60.5676 48.1746 60.4017 48.0986 60.1644 48.0986C59.7378 48.0973 59.4772 48.2003 58.8607 48.2003C58.2682 48.2003 58.1509 48.0973 57.6057 48.0973ZM53.9093 48.5102C54.9517 48.5102 55.7095 49.5368 55.7095 51.3099C55.7095 52.0022 55.6162 52.2856 55.4023 52.466C55.189 52.6457 54.2646 52.8247 52.677 52.8247C51.6812 52.8247 51.6346 52.723 51.6346 52.2605C51.6346 50.1538 52.629 48.5102 53.9093 48.5102ZM148.274 48.5102C149.316 48.5102 150.078 49.5368 150.078 51.3099C150.078 52.0022 149.982 52.2856 149.769 52.466C149.556 52.6457 148.631 52.8247 147.039 52.8247C146.045 52.8247 145.997 52.723 145.997 52.2605C145.997 50.1538 146.991 48.5102 148.274 48.5102ZM112.455 49.1774C114.039 49.1774 114.753 51.2841 114.753 54.1611C114.753 58.0667 113.614 59.6581 112.215 59.6581C111.269 59.6581 110.418 59.0946 110.418 57.2958V51.078C110.418 50.1016 111.385 49.1774 112.455 49.1774ZM88.7118 53.3902C88.8537 53.3902 88.9003 53.4675 88.9003 53.7238V56.5499C88.9003 57.27 88.7104 57.6551 88.1892 58.1684C87.668 58.6831 87.1708 59.0424 86.6256 59.0424C85.9624 59.0424 85.4405 58.5536 85.4405 57.5263C85.4405 56.0353 86.5543 54.8548 88.1179 53.6987C88.4978 53.4166 88.5691 53.3902 88.7118 53.3902ZM90.0319 62.5954C89.582 62.5954 89.1548 62.9813 89.1548 63.8817C89.1548 64.8066 89.582 65.1653 90.0319 65.1653C90.5065 65.1653 90.9083 64.8066 90.9083 63.8817C90.9083 62.9813 90.5065 62.5954 90.0319 62.5954ZM122.372 62.5954C121.919 62.5954 121.494 62.9813 121.494 63.8817C121.494 64.8066 121.919 65.1653 122.372 65.1653C122.845 65.1653 123.243 64.8066 123.243 63.8817C123.243 62.9813 122.845 62.5954 122.372 62.5954ZM67.9543 63.422C67.765 63.4227 67.5284 63.4952 67.5284 63.6417C67.5284 64.0072 67.6464 63.8858 68.5461 64.1055C68.7354 64.155 68.7121 64.4228 68.7121 65.0575V75.2629C68.7121 78.3385 70.9642 79.1922 72.8364 79.1922C75.2291 79.1922 76.9594 77.8747 76.9594 73.6511V65.7898C76.9594 64.4472 77.1013 64.2282 77.5992 64.1055C78.1204 63.9841 78.3803 64.0316 78.3803 63.7386C78.3803 63.519 78.3097 63.4233 78.0724 63.4233C77.7878 63.4227 77.5286 63.5203 76.4848 63.5203C75.6804 63.5203 75.4184 63.422 75.1105 63.422C74.8259 63.4227 74.6846 63.5684 74.6846 63.7386C74.6846 64.0553 74.8499 64.056 75.3478 64.1055C76.0343 64.1794 76.2949 64.5204 76.2949 66.0352V74.4322C76.2949 77.4835 74.7086 78.607 73.0737 78.607C71.8647 78.607 70.2771 77.8259 70.2771 75.6534V65.5212C70.2771 64.1048 70.7509 64.1055 71.2721 64.0329C71.77 63.9597 72.0059 63.9102 72.0059 63.6898C72.0059 63.4464 71.8166 63.4233 71.4381 63.4233C71.0582 63.4227 70.6323 63.5203 69.5659 63.5203C68.7128 63.5203 68.6174 63.422 67.9543 63.422ZM126.521 63.6749C126.349 63.6749 126.349 63.8037 126.116 64.2919C124.909 66.7851 124.168 67.2218 124.168 67.5303C124.168 67.8388 124.34 67.8388 124.552 67.8388C124.909 67.8388 125.307 67.8375 125.307 68.2477V76.8814C125.307 78.4992 125.999 79.0905 127.062 79.0905C127.7 79.0905 128.221 78.9359 128.557 78.3195C128.866 77.754 129.099 76.9316 129.099 76.7261C129.099 76.5722 129.031 76.5213 128.887 76.5213C128.509 76.5213 128.345 78.011 127.44 78.011C127.014 78.011 126.733 77.8571 126.733 76.9831V68.5047C126.733 68.1202 126.802 68.0429 127.042 68.0429H128.105C128.605 68.0429 128.743 67.889 128.743 67.5541C128.743 67.2462 128.578 67.1703 128.153 67.1703H127.206C126.85 67.1703 126.733 67.0157 126.733 66.6048V64.3177C126.733 63.7529 126.658 63.6749 126.521 63.6749ZM80.28 66.8604C80.114 66.8604 79.6628 67.5296 78.4071 68.146C78.0992 68.2999 77.9572 68.4023 77.9572 68.5298C77.9572 68.7108 78.0525 68.7366 78.4311 68.763C79.0476 68.8139 79.1409 68.8647 79.1409 69.5842V76.9316C79.1409 77.9344 78.9763 78.1649 78.1945 78.268C77.9805 78.2931 77.8633 78.4477 77.8633 78.5765C77.8633 78.7813 77.9812 78.885 78.2891 78.885C78.5024 78.885 78.691 78.782 79.7814 78.782C81.3683 78.782 81.631 78.885 81.7729 78.885C81.9629 78.885 82.1042 78.8071 82.1042 78.628C82.1042 78.3704 81.9855 78.3955 81.2277 78.268C80.6599 78.1649 80.5639 77.9595 80.5639 77.3689V70.3036C80.5639 69.0193 81.8203 67.9907 83.0279 67.9907C84.1656 67.9907 84.9701 68.763 84.9701 70.1496V77.3431C84.9701 78.0103 84.7822 78.1649 84.1423 78.268C83.8577 78.3189 83.6911 78.447 83.6911 78.6016C83.6911 78.8064 83.7857 78.885 84.0463 78.885C84.3069 78.885 84.4743 78.782 85.6826 78.782C87.0089 78.782 87.3409 78.885 87.4348 78.885C87.6015 78.885 87.7674 78.8071 87.7674 78.628C87.7674 78.3955 87.6021 78.3189 87.0569 78.268C86.5831 78.2171 86.3931 77.9086 86.3931 77.0597V69.9442C86.3211 67.889 85.0188 67.015 83.6911 67.015C82.0575 67.015 80.9898 68.66 80.5639 68.66C80.4446 68.66 80.4446 68.5813 80.4446 67.1689C80.4446 66.9892 80.3746 66.8604 80.28 66.8604ZM90.5531 66.8611C90.3878 66.8611 89.9126 67.4523 88.7995 67.889C88.2776 68.0945 88.1124 68.2233 88.1124 68.3514C88.1124 68.4789 88.207 68.5827 88.3256 68.6084C89.1548 68.7881 89.3207 68.9671 89.3207 69.5577V77.0868C89.3207 77.9859 89.2021 78.1134 88.3483 78.268C88.0404 78.3189 87.9464 78.447 87.9464 78.6016C87.9464 78.7813 88.065 78.8837 88.2303 78.8837C88.4443 78.8837 88.7289 78.782 90.0079 78.782C91.2409 78.782 91.5009 78.8837 91.8095 78.8837C92.0934 78.8837 92.1647 78.8077 92.1647 78.628C92.1647 78.4219 92.0227 78.3704 91.5722 78.268C90.7424 78.0883 90.7417 77.6774 90.7417 76.958V67.1181C90.7417 66.9384 90.6724 66.8611 90.5531 66.8611ZM103.611 66.8611C101.574 66.8611 99.5836 68.9169 99.5836 73.2328C99.5836 76.7275 101.099 79.0905 103.707 79.0905C105.579 79.0905 106.647 77.5994 106.647 75.9809C106.647 75.7246 106.573 75.6738 106.479 75.6738C106.313 75.6738 106.313 75.9294 106.029 76.5464C105.626 77.4198 104.962 78.011 103.943 78.011C102.286 78.011 101.148 76.0589 101.148 72.9744C101.148 72.7188 101.289 72.512 101.692 72.512H106.029C106.599 72.512 106.599 72.4361 106.599 70.922C106.599 68.3521 105.318 66.8611 103.611 66.8611ZM110.082 66.8611C109.89 66.8611 109.794 67.0414 109.465 67.4266C108.656 68.3514 107.874 68.0945 107.874 68.6084C107.874 68.7623 107.95 68.8132 108.114 68.8132C108.8 68.8132 109.04 68.9936 109.04 69.9178V76.88C109.04 78.0612 108.916 78.1649 108.258 78.268C107.95 78.3189 107.785 78.3704 107.757 78.5765C107.737 78.8077 107.902 78.8837 108.21 78.8837C108.375 78.8837 108.635 78.782 109.726 78.782C111.145 78.782 111.365 78.8837 111.55 78.8837C111.975 78.8837 112.099 78.8328 112.099 78.6016C112.099 78.4219 111.831 78.3704 111.31 78.268C110.507 78.1134 110.459 77.8042 110.459 76.623V71.2793C110.459 70.6114 110.885 68.0945 111.927 68.0945C112.167 68.0945 112.167 68.5311 112.167 68.942C112.167 69.5075 112.352 69.9693 112.997 69.9693C113.614 69.9693 113.868 69.378 113.868 68.5562C113.868 67.5018 113.422 66.8611 112.64 66.8611C111.029 66.8611 110.741 69.0702 110.391 69.0702C110.151 69.0702 110.459 66.8611 110.082 66.8611ZM117.4 66.8611C115.884 66.8611 114.176 67.7086 114.176 69.9442C114.176 73.7976 118.614 73.129 118.614 76.4176C118.614 77.6252 117.9 78.4728 116.789 78.4728C115.912 78.4728 115.363 77.7283 115.034 76.6746C114.657 75.4412 114.705 75.1849 114.465 75.1849C114.272 75.1849 114.204 75.3897 114.204 76.6997C114.204 78.4728 114.3 78.7047 114.533 78.782C114.938 78.9108 115.411 79.0905 116.405 79.0905C118.538 79.0905 119.937 77.7289 119.937 75.4168C119.937 71.8197 115.363 71.7424 115.363 69.2505C115.363 68.2484 116.124 67.4788 117.139 67.4788C117.88 67.4788 118.229 67.9914 118.49 68.685C118.847 69.6614 118.847 70.0466 119.087 70.0466C119.32 70.0466 119.32 69.6099 119.32 68.7115C119.32 67.7344 119.299 67.3486 119.183 67.2706C118.751 67.0408 118.161 66.8611 117.4 66.8611ZM122.893 66.8611C122.721 66.8611 122.248 67.4523 121.137 67.889C120.616 68.0945 120.445 68.2233 120.445 68.3514C120.445 68.4789 120.541 68.5827 120.664 68.6084C121.494 68.7881 121.658 68.9671 121.658 69.5577V77.0868C121.658 77.9859 121.542 78.1134 120.685 78.268C120.376 78.3189 120.28 78.447 120.28 78.6016C120.28 78.7813 120.403 78.8837 120.568 78.8837C120.781 78.8837 121.062 78.782 122.344 78.782C123.579 78.782 123.839 78.8837 124.148 78.8837C124.429 78.8837 124.498 78.8077 124.498 78.628C124.498 78.4219 124.36 78.3704 123.908 78.268C123.078 78.0883 123.078 77.6774 123.078 76.958V67.1181C123.078 66.9384 123.009 66.8611 122.893 66.8611ZM92.2717 67.0665C92.0351 67.0665 91.7978 67.1181 91.7978 67.3486C91.7978 67.5547 91.9884 67.6314 92.249 67.6822C92.7462 67.7853 92.7936 68.1724 93.2908 69.8927C93.812 71.7166 94.6644 74.9794 95.4236 77.729C95.6842 78.6789 95.6849 79.0905 95.9928 79.0905C96.3 79.0905 96.276 78.6796 96.4186 78.1656C96.9165 76.3416 98.1242 72.0767 98.9074 69.6872C99.3092 68.4545 99.4286 67.8375 99.9964 67.6822C100.352 67.5805 100.399 67.4523 100.399 67.2984C100.399 67.1438 100.258 67.0665 99.9025 67.0665C99.6659 67.0665 99.3319 67.1703 98.8347 67.1703C98.3608 67.1703 98.0069 67.0665 97.6277 67.0665C97.2725 67.0665 97.1538 67.1181 97.1538 67.3737C97.1538 67.5547 97.3198 67.6822 97.4617 67.6822C98.3622 67.7853 98.5041 67.8375 98.5041 68.4281C98.5041 68.7115 98.2675 69.6357 97.5331 72.0516C96.538 75.3388 96.5613 75.57 96.3713 75.57C96.2287 75.57 96.158 75.3137 95.2569 71.7166C94.4751 68.5827 94.4038 68.4281 94.4038 68.2226C94.4038 67.965 94.5238 67.8375 95.0683 67.6822C95.4243 67.5805 95.6135 67.529 95.6135 67.3737C95.6135 67.1432 95.5655 67.0665 95.115 67.0665C94.6171 67.0665 94.2392 67.1703 93.7653 67.1703C93.1961 67.1703 92.533 67.0665 92.2717 67.0665ZM129.703 67.0665C129.463 67.0665 129.346 67.1438 129.346 67.2984C129.346 67.5812 129.463 67.6327 129.847 67.6822C130.176 67.7344 130.416 67.9656 131.623 72.3852C133.043 77.5493 133.235 77.3689 133.235 78.4741C133.235 79.1929 132.384 81.7356 132.192 81.9417C131.767 82.4035 130.581 82.0197 130.581 83.0727C130.581 84.0742 130.677 84.3318 131.575 84.3318C132.761 84.3318 132.384 83.0978 134.558 75.9809C136.526 69.5577 136.739 67.8375 137.425 67.6822C137.644 67.6327 137.809 67.5812 137.809 67.375C137.809 67.1438 137.713 67.0665 137.5 67.0665C136.979 67.0665 136.787 67.1703 136.478 67.1703C135.793 67.1703 135.251 67.0665 135.079 67.0665C134.846 67.0665 134.73 67.1703 134.73 67.4266C134.73 67.6585 134.99 67.6578 135.175 67.6822C135.813 67.7602 136.053 67.889 136.053 68.2491C136.053 68.5833 136.033 68.8647 135.367 71.2542C134.181 75.4927 134.16 75.7002 134.016 75.7002C133.872 75.7002 133.776 75.3381 132.734 71.6393C132.124 69.4302 131.863 68.7115 131.863 68.2742C131.863 67.9921 131.952 67.7602 132.357 67.6822C132.857 67.5805 133.118 67.5812 133.118 67.375C133.118 67.1703 133.022 67.0665 132.713 67.0665C132.501 67.0665 131.815 67.1703 131.362 67.1703C130.814 67.1703 130.251 67.0665 129.703 67.0665ZM103.469 67.4788C104.512 67.4788 105.269 68.5054 105.269 70.2785C105.269 70.9721 105.175 71.2549 104.962 71.4346C104.749 71.6149 103.825 71.7933 102.237 71.7933C101.242 71.7933 101.195 71.6902 101.195 71.2278C101.195 69.1217 102.19 67.4788 103.469 67.4788Z" fill="#545454"/>
<path d="M129.598 46.1199C129.598 46.1199 130.234 42.8135 132.622 42.1617C135.857 41.2786 140.5 41.0658 142.444 40.6081C145.314 39.9318 147.668 37.8086 148.99 36.461C151.069 34.3412 152.832 29.2083 152.163 27.7446C151.494 26.2808 153.527 30.7323 145.206 31.2357C138.559 31.34 137.466 32.341 136.671 32.6605C133.297 33.9293 131.047 39.5555 131.496 40.5844C131.496 40.5844 134.282 36.1982 139.289 34.6718C142.284 34.1624 147.2 33.8937 148.066 32.5147C148.066 32.5147 145.623 34.3031 142.145 35.1311C137.464 36.1059 136.451 37.1424 136.451 37.1424C136.451 37.1424 130.832 40.5708 129.066 45.819" fill="#545454"/>
</g>
<defs>
<clipPath id="clip0_25424_44020">
<rect width="115" height="62" fill="white" transform="translate(38 23)"/>
</clipPath>
</defs>
</svg>
