<svg width="192" height="108" viewBox="0 0 192 108" fill="none" xmlns="http://www.w3.org/2000/svg">
<path d="M55.0898 68.5121L54.8381 68.6061C54.7216 68.3355 54.5225 68.2304 54.0491 68.2304H52.4111V73.6291C52.4111 73.9522 52.5802 74.0574 52.8319 74.0574V74.3505H50.4687V74.0574C50.5265 74.0651 50.5852 74.0592 50.6402 74.0402C50.6953 74.0213 50.7452 73.9898 50.786 73.9483C50.8268 73.9067 50.8574 73.8563 50.8754 73.8009C50.8933 73.7455 50.8982 73.6867 50.8895 73.6291V68.2304H49.289C48.7856 68.2304 48.6053 68.3243 48.4775 68.6061L48.207 68.5121L48.5414 66.9492C48.7496 66.9868 48.961 67.0044 49.1726 67.0018H54.1731C54.362 66.9984 54.5504 66.9808 54.7367 66.9492L55.0898 68.5121Z" fill="#545454"/>
<path d="M62.9573 74.3505H60.6167V74.0575C60.8684 74.0575 61.0149 73.9335 61.0149 73.6367V71.0631H58.0732V73.6367C58.0732 73.9222 58.2122 74.0575 58.4715 74.0575V74.3505H56.1421V74.0575C56.4239 74.0575 56.5404 73.9335 56.5404 73.6367V67.6819C56.5404 67.3888 56.3938 67.2836 56.1309 67.2836V67.0018H58.4715V67.2836C58.2197 67.2836 58.0732 67.3775 58.0732 67.6819V69.8346H61.0149V67.6819C61.0149 67.3775 60.8684 67.2836 60.6167 67.2836V67.0018H62.9573V67.2836C62.683 67.2836 62.5591 67.3775 62.5591 67.6819V73.6367C62.5591 73.9335 62.7056 74.0575 62.9573 74.0575V74.3505Z" fill="#545454"/>
<path d="M69.8389 72.7575L69.4632 74.4031C69.2654 74.3727 69.0659 74.3551 68.8658 74.3505H64.2598V74.0574C64.5228 74.0574 64.658 73.9109 64.658 73.6291V67.7269C64.658 67.4414 64.5115 67.2836 64.2598 67.2836V67.0018H68.8809C69.071 66.9979 69.2606 66.9803 69.4482 66.9492L69.7825 68.5234L69.5421 68.6061C69.4935 68.4807 69.4039 68.3754 69.288 68.3072C69.1721 68.239 69.0366 68.2119 68.9034 68.2304H66.1946V69.6805H68.6442C68.9147 69.6805 69.0199 69.5228 69.0199 69.3424H69.2941V71.266H69.0199C69.0199 71.0443 68.9147 70.9091 68.6442 70.9091H66.1946V73.1144H68.8733C69.0234 73.1386 69.1771 73.1068 69.3052 73.025C69.4334 72.9433 69.527 72.8174 69.5684 72.6711L69.8389 72.7575Z" fill="#545454"/>
<path d="M80.5099 67.2836C80.2694 67.2836 80.1116 67.4113 80.1116 67.7156V72.5133C80.1031 72.7573 80.1453 73.0004 80.2356 73.2271C79.2701 73.9785 78.282 74.5083 77.1812 74.5083C76.02 74.5094 74.9041 74.0579 74.0704 73.2497C74.1509 73.0204 74.1903 72.7788 74.1869 72.5359V67.7682C74.1869 67.4226 74.0403 67.2836 73.7773 67.2836V67.0018H76.1217V67.2836C75.8587 67.2836 75.7122 67.4113 75.7122 67.7682V72.209C75.7122 72.8101 76.2344 73.2196 77.215 73.2196C78.1317 73.2196 78.6652 72.735 78.6652 72.2315V67.7232C78.6652 67.4001 78.5187 67.2723 78.2669 67.2723V66.9905H80.5211L80.5099 67.2836Z" fill="#545454"/>
<path d="M88.5874 67.2836C88.5353 67.2789 88.4828 67.2851 88.4332 67.3019C88.3837 67.3186 88.3382 67.3455 88.2996 67.3809C88.261 67.4163 88.2303 67.4593 88.2094 67.5072C88.1884 67.5552 88.1777 67.607 88.1779 67.6593V74.3505H87.002C86.9449 74.174 86.8599 74.0079 86.7502 73.8583L83.6094 69.4288H83.5869V73.6366C83.5798 73.6926 83.5855 73.7494 83.6034 73.8029C83.6213 73.8564 83.651 73.9051 83.6904 73.9455C83.7297 73.986 83.7776 74.017 83.8306 74.0364C83.8836 74.0557 83.9402 74.0629 83.9964 74.0574V74.3505H81.791V74.0574C82.054 74.0574 82.193 73.941 82.193 73.6366V67.6818C82.1964 67.6283 82.1882 67.5747 82.1692 67.5246C82.1501 67.4746 82.1205 67.4291 82.0825 67.3914C82.0444 67.3537 81.9987 67.3245 81.9484 67.3059C81.8981 67.2873 81.8445 67.2797 81.791 67.2836V67.0018H83.6921C83.7523 67.1826 83.8411 67.3525 83.955 67.5052L86.7615 71.4125V67.6555C86.7615 67.4339 86.6676 67.2798 86.3633 67.2798V66.998H88.5686L88.5874 67.2836Z" fill="#545454"/>
<path d="M92.2312 74.3505H89.8906V74.0575C90.1311 74.0575 90.2889 73.941 90.2889 73.6367V67.7044C90.2889 67.4001 90.1423 67.2836 89.8906 67.2836V67.0018H92.2312V67.2836C92.176 67.2799 92.1206 67.2884 92.0691 67.3085C92.0175 67.3287 91.971 67.36 91.933 67.4002C91.8949 67.4404 91.8662 67.4885 91.849 67.5411C91.8317 67.5937 91.8262 67.6495 91.833 67.7044V73.6367C91.833 73.9335 91.9795 74.0575 92.2312 74.0575V74.3505Z" fill="#545454"/>
<path d="M100.449 67.2836C100.246 67.2836 100.073 67.4414 99.9755 67.7683L98.0218 73.4375C97.965 73.5754 97.9295 73.7211 97.9166 73.8696C97.9139 73.894 97.9164 73.9187 97.9242 73.9419C97.9319 73.9652 97.9446 73.9865 97.9614 74.0044C97.9782 74.0223 97.9987 74.0363 98.0215 74.0454C98.0442 74.0546 98.0687 74.0587 98.0932 74.0575V74.3505H95.6361V74.0575C95.6613 74.0613 95.6869 74.0596 95.7113 74.0525C95.7357 74.0453 95.7582 74.0328 95.7772 74.016C95.7962 73.9991 95.8113 73.9783 95.8213 73.9549C95.8313 73.9316 95.8361 73.9063 95.8353 73.8809C95.8042 73.6747 95.7487 73.4729 95.6699 73.2798L93.7576 67.881C93.6224 67.5053 93.4947 67.2836 93.2617 67.2836V67.0018H95.6173V67.2836C95.437 67.2836 95.3318 67.3888 95.3318 67.5165C95.3411 67.6238 95.3625 67.7297 95.3957 67.8321L96.9811 72.7162H97.0037L98.4539 67.9073C98.4929 67.7854 98.5169 67.6592 98.5253 67.5316C98.5253 67.3963 98.4539 67.2911 98.251 67.2911V67.0093H100.449V67.2836Z" fill="#545454"/>
<path d="M107.052 72.7575L106.676 74.4031C106.477 74.3725 106.276 74.355 106.075 74.3505H101.477V74.0574C101.74 74.0574 101.875 73.9109 101.875 73.6291V67.7269C101.875 67.4414 101.728 67.2836 101.477 67.2836V67.0018H106.098C106.288 66.9977 106.477 66.9801 106.665 66.9492L106.999 68.5234L106.759 68.6061C106.71 68.4804 106.619 68.375 106.503 68.3068C106.386 68.2387 106.25 68.2117 106.116 68.2304H103.419V69.6805H105.865C106.139 69.6805 106.24 69.5228 106.24 69.3424H106.515V71.266H106.24C106.24 71.0443 106.135 70.9091 105.865 70.9091H103.419V73.1144H106.098C106.247 73.1393 106.401 73.1077 106.529 73.0258C106.656 72.9439 106.749 72.8175 106.789 72.6711L107.052 72.7575Z" fill="#545454"/>
<path d="M114.333 74.3505H112.316C111.859 73.4689 111.482 72.5486 111.188 71.6004H110.865C110.614 71.6004 110.351 71.6004 110.114 71.6004V73.6367C110.114 73.941 110.26 74.0574 110.523 74.0574V74.3505H108.213V74.0574C108.268 74.0612 108.323 74.0527 108.375 74.0325C108.427 74.0123 108.473 73.981 108.511 73.9408C108.549 73.9006 108.578 73.8525 108.595 73.7999C108.612 73.7473 108.618 73.6916 108.611 73.6367V67.6818C108.614 67.6287 108.606 67.5754 108.588 67.5256C108.569 67.4758 108.539 67.4306 108.502 67.3929C108.464 67.3553 108.419 67.326 108.369 67.3072C108.319 67.2883 108.266 67.2803 108.213 67.2836V67.0018C108.964 66.968 110.26 66.9154 110.816 66.9154C112.928 66.9154 114.156 67.4752 114.156 69.1696C114.164 69.645 114.019 70.1105 113.744 70.4978C113.468 70.8851 113.075 71.1741 112.624 71.3223C112.932 72.1813 113.326 73.007 113.8 73.7869C113.862 73.8781 113.947 73.9513 114.047 73.9994C114.146 74.0475 114.257 74.0688 114.367 74.0612L114.333 74.3505ZM110.903 68.1439C110.659 68.1439 110.343 68.1665 110.073 68.1778V70.3606C110.291 70.3606 110.723 70.3831 110.986 70.3831C112.113 70.3831 112.594 69.9097 112.594 69.2147C112.594 68.5196 112.199 68.1439 110.903 68.1439Z" fill="#545454"/>
<path d="M117.926 74.5308C117.352 74.5034 116.78 74.4432 116.213 74.3505C116.017 74.3579 115.824 74.4052 115.646 74.4895L115.334 72.348L115.68 72.2616C115.867 72.735 116.393 73.291 117.757 73.3023C118.926 73.3023 119.26 72.859 119.26 72.348C119.26 71.9723 118.944 71.6642 118.377 71.4426L117.19 70.9805C116.3 70.6348 115.563 70.0563 115.563 68.8916C115.563 67.4752 116.792 66.8328 118.167 66.8328C118.67 66.8572 119.172 66.9099 119.67 66.9906C119.841 66.998 120.013 66.9698 120.173 66.9079L120.425 68.7563L120.049 68.8277C119.778 68.3994 119.241 68.0388 118.253 68.0388C117.329 68.0388 117.1 68.4408 117.1 68.7902C117.1 69.1396 117.318 69.3462 117.896 69.5678L119.159 70.0487C120.049 70.3981 120.815 71.018 120.815 72.2541C120.845 73.6817 119.763 74.5308 117.926 74.5308Z" fill="#545454"/>
<path d="M124.376 74.3505H122.031V74.0575C122.275 74.0575 122.433 73.941 122.433 73.6367V67.7044C122.433 67.4001 122.283 67.2836 122.031 67.2836V67.0018H124.376V67.2836C124.32 67.2799 124.265 67.2884 124.213 67.3085C124.162 67.3287 124.115 67.36 124.077 67.4002C124.039 67.4404 124.011 67.4885 123.993 67.5411C123.976 67.5937 123.971 67.6495 123.977 67.7044V73.6367C123.977 73.9335 124.124 74.0575 124.376 74.0575V74.3505Z" fill="#545454"/>
<path d="M132.284 68.5121L132.032 68.6061C131.916 68.3355 131.716 68.2304 131.243 68.2304H129.605V73.6291C129.605 73.9522 129.774 74.0574 130.026 74.0574V74.3505H127.663V74.0574C127.72 74.0651 127.779 74.0592 127.834 74.0402C127.889 74.0213 127.939 73.9898 127.98 73.9483C128.021 73.9067 128.051 73.8563 128.069 73.8009C128.087 73.7455 128.092 73.6867 128.083 73.6291V68.2304H126.498C125.991 68.2304 125.814 68.3243 125.687 68.6061L125.416 68.5121L125.75 66.9492C125.959 66.9868 126.17 67.0044 126.382 67.0018H131.378C131.569 66.9985 131.758 66.9809 131.946 66.9492L132.284 68.5121Z" fill="#545454"/>
<path d="M139.877 67.2836C139.637 67.2836 139.468 67.4226 139.269 67.7683L137.221 71.3261V73.6367C137.221 73.941 137.368 74.0575 137.619 74.0575V74.3505H135.29V74.0575C135.553 74.0575 135.688 73.9335 135.688 73.6367V71.3261L133.659 67.787C133.453 67.4113 133.314 67.2836 133.051 67.2836V67.0018H135.5V67.2836C135.474 67.2804 135.446 67.2829 135.421 67.2911C135.395 67.2994 135.371 67.313 135.351 67.3312C135.331 67.3494 135.315 67.3717 135.305 67.3965C135.294 67.4214 135.289 67.4482 135.29 67.4752C135.303 67.5415 135.327 67.605 135.361 67.6631L136.53 69.9173H136.549L137.706 67.742C137.753 67.6623 137.785 67.5743 137.8 67.4827C137.8 67.385 137.766 67.2911 137.6 67.2911V67.0093H139.877V67.2836Z" fill="#545454"/>
<path d="M40.7157 85.8018C38.6982 85.8018 37 84.4267 37 81.9471C37 79.4675 38.732 78.1037 40.7157 78.1037C42.7632 78.1037 44.4726 79.46 44.4726 81.9471C44.4539 84.3215 42.8571 85.8018 40.7157 85.8018ZM40.7157 79.3848C39.5886 79.3848 38.6155 80.2565 38.6155 81.9471C38.6155 83.6377 39.5698 84.5319 40.7157 84.5319C41.8615 84.5319 42.8496 83.6377 42.8496 81.9584C42.8496 80.279 41.8728 79.3848 40.7157 79.3848Z" fill="#545454"/>
<path d="M51.232 79.7718L50.9878 79.8582C50.9217 79.7311 50.817 79.6281 50.6888 79.564C50.5606 79.4999 50.4154 79.478 50.274 79.5013H47.6441V81.0454H50.0899C50.3755 81.0454 50.4656 80.8876 50.4656 80.7073H50.7399V82.6309H50.4656C50.4656 82.4317 50.3604 82.2739 50.0674 82.2739H47.6592V84.855C47.6592 85.1931 47.8282 85.3284 48.0799 85.3284V85.6214H45.7168V85.3284C45.9572 85.3284 46.115 85.1706 46.115 84.855V78.9979C46.1256 78.9412 46.123 78.8829 46.1074 78.8275C46.0918 78.772 46.0637 78.7209 46.0252 78.678C45.9867 78.6352 45.9388 78.6018 45.8854 78.5804C45.8319 78.5589 45.7742 78.5501 45.7168 78.5545V78.2728H50.2252C50.4541 78.273 50.6827 78.2554 50.9089 78.2202L51.232 79.7718Z" fill="#545454"/>
<path d="M61.7955 79.7831L61.5438 79.877C61.4273 79.6065 61.2282 79.5013 60.7548 79.5013H59.1168V84.9001C59.1168 85.2232 59.2858 85.3284 59.5376 85.3284V85.6214H57.1782V85.3284C57.2359 85.336 57.2946 85.3301 57.3497 85.3112C57.4047 85.2922 57.4546 85.2607 57.4954 85.2192C57.5362 85.1777 57.5668 85.1272 57.5848 85.0718C57.6028 85.0165 57.6076 84.9577 57.599 84.9001V79.5013H56.0097C55.5063 79.5013 55.326 79.5952 55.202 79.877L54.9277 79.7831L55.2621 78.2202C55.4704 78.2576 55.6817 78.2752 55.8933 78.2728H60.8938C61.084 78.2691 61.2736 78.2515 61.4611 78.2202L61.7955 79.7831Z" fill="#545454"/>
<path d="M68.4151 84.0285L68.0394 85.674C67.8416 85.6434 67.6421 85.6259 67.442 85.6214H62.8359V85.3284C63.0989 85.3284 63.2342 85.1818 63.2342 84.9001V78.9979C63.2342 78.7123 63.0877 78.5545 62.8359 78.5545V78.2728H67.457C67.6471 78.2688 67.8367 78.2512 68.0243 78.2202L68.3625 79.7943L68.1183 79.877C68.0696 79.7516 67.9801 79.6463 67.8642 79.5781C67.7483 79.51 67.6128 79.4829 67.4796 79.5013H64.7783V80.9515H67.2279C67.4984 80.9515 67.6036 80.7937 67.6036 80.6134H67.8778V82.5369H67.6036C67.6036 82.3153 67.4984 82.18 67.2279 82.18H64.7783V84.3854H67.457C67.6072 84.4104 67.7613 84.3789 67.8896 84.2971C68.018 84.2152 68.1114 84.0887 68.1521 83.942L68.4151 84.0285Z" fill="#545454"/>
<path d="M75.9044 85.6214H73.3346V85.3284C73.5112 85.3284 73.575 85.257 73.575 85.1593C73.5657 85.0757 73.5332 84.9963 73.4811 84.9301L72.4855 83.1568H72.463L71.4974 84.9414C71.4526 85.0038 71.423 85.0759 71.411 85.1518C71.411 85.2457 71.4636 85.3284 71.6214 85.3284V85.6214H69.2808V85.3284C69.5551 85.3284 69.7204 85.2457 69.9308 84.8888L71.6965 81.9358L69.9308 79.0693C69.6903 78.6936 69.5551 78.5545 69.2695 78.5545V78.2728H71.7905V78.5545C71.6214 78.5545 71.5688 78.6184 71.5688 78.7123C71.5917 78.8062 71.6311 78.8953 71.6853 78.9753L72.726 80.7712L73.714 78.934C73.7525 78.8654 73.778 78.7902 73.7892 78.7123C73.7892 78.6184 73.7253 78.5545 73.5788 78.5545V78.2728H75.8781V78.5545C75.6038 78.5545 75.4573 78.6485 75.2281 79.0392L73.4623 81.9997L75.2469 84.9301C75.2993 85.0527 75.3878 85.1564 75.5005 85.2275C75.6132 85.2986 75.7449 85.3338 75.8781 85.3284L75.9044 85.6214Z" fill="#545454"/>
<path d="M84.0232 85.6214H81.6826V85.3284C81.893 85.3284 81.9569 85.2345 81.9569 85.0992C81.9525 85.0091 81.9335 84.9202 81.9005 84.8362L81.754 84.4042C81.2867 84.4898 80.8126 84.5326 80.3376 84.5319C79.8654 84.5254 79.3944 84.4827 78.9287 84.4042L78.7822 84.8888C78.7654 84.968 78.7553 85.0484 78.7521 85.1293C78.7521 85.2457 78.8273 85.2983 79.0339 85.3284V85.6214H76.8398V85.3284C77.0202 85.3284 77.178 85.2457 77.3245 84.8249L79.2969 79.0693C79.3339 78.975 79.3592 78.8766 79.3721 78.7762C79.3721 78.6597 79.3307 78.5545 79.1917 78.5545V78.2728H81.6413V78.5545C81.6158 78.5506 81.5898 78.5524 81.5652 78.5597C81.5405 78.5671 81.5178 78.5799 81.4987 78.5972C81.4796 78.6145 81.4646 78.6358 81.4548 78.6596C81.4451 78.6835 81.4407 78.7092 81.4421 78.7349C81.4587 78.8536 81.4903 78.9697 81.5361 79.0805L83.5611 84.855C83.6888 85.2044 83.8466 85.3284 84.0232 85.3284V85.6214ZM80.3075 79.9108H80.285L79.3082 83.1982C79.655 83.2644 80.0071 83.2996 80.3601 83.3034C80.6983 83.3003 81.0355 83.2651 81.367 83.1982L80.3075 79.9108Z" fill="#545454"/>
<path d="M87.5318 85.8018C86.959 85.7746 86.3882 85.7144 85.8223 85.6214C85.6256 85.6278 85.4324 85.6752 85.255 85.7604L84.9395 83.619L85.2851 83.5325C85.4729 84.0059 85.9989 84.562 87.3665 84.5732C88.5311 84.5732 88.8693 84.1299 88.8693 83.619C88.8693 83.2433 88.5537 82.9352 87.9864 82.7135L86.7992 82.2514C85.9088 81.9058 85.1724 81.3272 85.1724 80.1625C85.1724 78.7461 86.4009 78.1037 87.776 78.1037C88.2795 78.1282 88.7812 78.1808 89.2788 78.2615C89.4505 78.2689 89.6219 78.2408 89.7822 78.1788L90.0339 80.0273L89.677 80.0987C89.4028 79.6704 88.8693 79.3097 87.8812 79.3097C86.957 79.3097 86.7278 79.7117 86.7278 80.0611C86.7278 80.4105 86.9457 80.6171 87.5243 80.8388L88.7866 81.3197C89.677 81.6691 90.4434 82.289 90.4434 83.525C90.4509 84.9527 89.3689 85.8018 87.5318 85.8018Z" fill="#545454"/>
<path d="M101.386 85.6214H99.0421V85.3284C99.2525 85.3284 99.3164 85.2345 99.3164 85.0992C99.3135 85.0092 99.2957 84.9204 99.2638 84.8362L99.1173 84.4042C98.65 84.4896 98.1759 84.5324 97.7009 84.5319C97.2287 84.5255 96.7577 84.4828 96.292 84.4042L96.1455 84.8888C96.1259 84.9676 96.1146 85.0482 96.1117 85.1293C96.1117 85.2457 96.1868 85.2983 96.3972 85.3284V85.6214H94.2031V85.3284C94.3797 85.3284 94.5375 85.2457 94.684 84.8249L96.6602 79.0693C96.6965 78.975 96.7205 78.8765 96.7316 78.7762C96.7316 78.6597 96.6902 78.5545 96.555 78.5545V78.2728H99.0008V78.5545C98.9755 78.5513 98.9497 78.5535 98.9254 78.5612C98.901 78.5688 98.8786 78.5816 98.8596 78.5988C98.8407 78.6159 98.8257 78.637 98.8157 78.6605C98.8057 78.684 98.8009 78.7094 98.8017 78.7349C98.8183 78.8536 98.8498 78.9697 98.8956 79.0805L100.924 84.855C101.048 85.2044 101.206 85.3284 101.386 85.3284V85.6214ZM97.6671 79.9108H97.6483L96.6715 83.1982C97.017 83.2646 97.3678 83.2998 97.7197 83.3034C98.0591 83.3003 98.3975 83.265 98.7303 83.1982L97.6671 79.9108Z" fill="#545454"/>
<path d="M107.868 79.7831L107.616 79.877C107.5 79.6065 107.3 79.5013 106.827 79.5013H105.189V84.9001C105.189 85.2232 105.358 85.3284 105.61 85.3284V85.6214H103.247V85.3284C103.304 85.336 103.363 85.3301 103.418 85.3112C103.473 85.2922 103.523 85.2607 103.564 85.2192C103.605 85.1777 103.635 85.1272 103.653 85.0718C103.671 85.0165 103.676 84.9577 103.667 84.9001V79.5013H102.082C101.575 79.5013 101.398 79.5952 101.271 79.877L101 79.7831L101.334 78.2202C101.543 78.2578 101.754 78.2754 101.966 78.2728H106.962C107.152 78.2695 107.342 78.2519 107.53 78.2202L107.868 79.7831Z" fill="#545454"/>
<path d="M114.477 85.7078C113.531 85.7078 112.377 85.6665 111.746 85.6214V85.3284C111.797 85.3315 111.849 85.324 111.897 85.3065C111.945 85.289 111.989 85.2618 112.026 85.2266C112.064 85.1915 112.093 85.149 112.114 85.1019C112.134 85.0548 112.144 85.004 112.144 84.9527V78.9753C112.144 78.6372 111.998 78.5545 111.746 78.5545V78.2728C112.449 78.239 113.414 78.1976 114.56 78.1976C117.333 78.1976 118.456 79.5013 118.456 81.8645C118.456 84.0285 117.415 85.7078 114.477 85.7078ZM114.477 79.4262C114.162 79.4262 113.888 79.4262 113.688 79.4487V84.4568C113.888 84.4568 114.192 84.4793 114.477 84.4793C116.052 84.4793 116.901 83.4499 116.901 81.8494C116.901 80.2489 115.988 79.4262 114.477 79.4262Z" fill="#545454"/>
<path d="M126.334 85.6214H123.994V85.3284C124.201 85.3284 124.264 85.2345 124.264 85.0992C124.261 85.0092 124.244 84.9204 124.212 84.8362L124.065 84.4042C123.598 84.4898 123.124 84.5326 122.649 84.5319C122.177 84.5254 121.706 84.4827 121.24 84.4042L121.093 84.8888C121.075 84.9677 121.065 85.0483 121.063 85.1293C121.063 85.2457 121.135 85.2983 121.345 85.3284V85.6214H119.17V85.3284C119.347 85.3284 119.504 85.2457 119.655 84.8249L121.627 79.0693C121.664 78.975 121.689 78.8766 121.702 78.7762C121.702 78.6597 121.657 78.5545 121.522 78.5545V78.2728H123.968V78.5545C123.942 78.5513 123.917 78.5535 123.892 78.5612C123.868 78.5688 123.845 78.5816 123.826 78.5988C123.808 78.6159 123.793 78.637 123.783 78.6605C123.773 78.684 123.768 78.7094 123.768 78.7349C123.785 78.854 123.818 78.9703 123.866 79.0805L125.891 84.855C126.019 85.2044 126.177 85.3284 126.353 85.3284L126.334 85.6214ZM122.615 79.9108L121.638 83.1982C121.984 83.2646 122.335 83.2998 122.686 83.3034C123.026 83.3005 123.364 83.2652 123.697 83.1982L122.615 79.9108Z" fill="#545454"/>
<path d="M132.943 84.0473L132.567 85.674C132.341 85.6423 132.112 85.6248 131.883 85.6214H127.375V85.3284C127.638 85.3284 127.777 85.2044 127.777 84.9001V78.9753C127.784 78.92 127.778 78.8639 127.761 78.8111C127.743 78.7582 127.714 78.7099 127.676 78.6696C127.637 78.6293 127.59 78.5981 127.538 78.5782C127.486 78.5583 127.431 78.5502 127.375 78.5545V78.2728H129.738V78.5545C129.68 78.552 129.621 78.5622 129.567 78.5844C129.513 78.6065 129.464 78.6402 129.424 78.6831C129.384 78.7259 129.354 78.7769 129.335 78.8325C129.317 78.8882 129.311 78.9471 129.317 79.0054V84.3854H132.03C132.172 84.4041 132.316 84.3737 132.438 84.2992C132.561 84.2248 132.654 84.1106 132.702 83.9759L132.943 84.0473Z" fill="#545454"/>
<path d="M139.64 84.0473L139.264 85.674C139.038 85.6425 138.809 85.6249 138.581 85.6214H134.072V85.3284C134.335 85.3284 134.471 85.2044 134.471 84.9001V78.9753C134.477 78.9204 134.472 78.8646 134.455 78.812C134.437 78.7595 134.409 78.7113 134.37 78.6711C134.332 78.6309 134.286 78.5996 134.234 78.5795C134.183 78.5593 134.127 78.5508 134.072 78.5545V78.2728H136.435V78.5545C136.377 78.552 136.318 78.5622 136.264 78.5844C136.21 78.6065 136.161 78.6402 136.121 78.6831C136.081 78.7259 136.051 78.7769 136.033 78.8325C136.014 78.8882 136.008 78.9471 136.015 79.0054V84.3854H138.705C138.846 84.4039 138.99 84.3734 139.111 84.2989C139.233 84.2244 139.326 84.1103 139.373 83.9759L139.64 84.0473Z" fill="#545454"/>
<path d="M147.572 85.6214H145.231V85.3284C145.442 85.3284 145.506 85.2345 145.506 85.0992C145.501 85.0095 145.483 84.9209 145.453 84.8362L145.303 84.4042C144.836 84.4898 144.361 84.5326 143.886 84.5319C143.414 84.5254 142.943 84.4827 142.478 84.4042L142.331 84.8888C142.314 84.968 142.304 85.0484 142.301 85.1293C142.301 85.2457 142.376 85.2983 142.583 85.3284V85.6214H140.389V85.3284C140.569 85.3284 140.727 85.2457 140.873 84.8249L142.838 79.0693C142.877 78.9756 142.902 78.877 142.913 78.7762C142.913 78.6597 142.872 78.5545 142.733 78.5545V78.2728H145.183V78.5545C145.157 78.5513 145.132 78.5535 145.107 78.5612C145.083 78.5688 145.06 78.5816 145.041 78.5988C145.022 78.6159 145.008 78.637 144.998 78.6605C144.987 78.684 144.983 78.7094 144.983 78.7349C145 78.8536 145.032 78.9697 145.077 79.0805L147.102 84.855C147.23 85.2044 147.388 85.3284 147.565 85.3284L147.572 85.6214ZM143.856 79.9108H143.834L142.857 83.1982C143.204 83.2644 143.556 83.2996 143.909 83.3034C144.247 83.3003 144.584 83.2651 144.916 83.1982L143.856 79.9108Z" fill="#545454"/>
<path d="M151.081 85.8018C150.508 85.7746 149.937 85.7144 149.371 85.6214C149.174 85.6278 148.981 85.6752 148.804 85.7604L148.488 83.619L148.834 83.5325C149.022 84.0059 149.548 84.562 150.915 84.5732C152.08 84.5732 152.418 84.1299 152.418 83.619C152.418 83.2433 152.102 82.9352 151.535 82.7135L150.352 82.2514C149.461 81.9058 148.725 81.3272 148.725 80.1625C148.725 78.7461 149.953 78.1037 151.332 78.1037C151.836 78.1282 152.338 78.1809 152.835 78.2615C153.007 78.2689 153.178 78.2408 153.339 78.1788L153.59 80.0273L153.233 80.0987C152.963 79.6704 152.426 79.3097 151.438 79.3097C150.513 79.3097 150.284 79.7117 150.284 80.0611C150.284 80.4105 150.506 80.6171 151.081 80.8388L152.343 81.3197C153.233 81.6691 154 82.289 154 83.525C154 84.9527 152.922 85.8018 151.081 85.8018Z" fill="#545454"/>
<path d="M111.512 27.8578L110.73 28.0682C110.354 27.2905 109.843 26.8659 108.604 26.8659H96.9232V58.5336C96.9232 59.8109 97.4905 60.2693 98.2719 60.2693L98.426 60.908H90.8481L91.0022 60.2693C91.7536 60.2693 92.3847 59.7734 92.3847 58.5336V26.8659H80.7381C79.5321 26.8659 78.8596 27.3619 78.5741 28.0682L77.7964 27.8578L78.9235 23C79.538 23.1484 80.1706 23.2079 80.802 23.1766H108.807C109.332 23.1844 109.856 23.125 110.366 23L111.512 27.8578ZM107.319 56.377C104.088 56.377 100.057 56.2606 99.0534 56.1479V55.4265C99.219 55.438 99.3853 55.4149 99.5416 55.359C99.6979 55.303 99.8409 55.2152 99.9616 55.1012C100.082 54.9872 100.178 54.8494 100.243 54.6965C100.308 54.5437 100.34 54.3791 100.338 54.213V31.6035C100.347 31.4335 100.319 31.2636 100.257 31.1053C100.194 30.947 100.098 30.8039 99.9759 30.6857C99.8535 30.5675 99.7071 30.4769 99.5466 30.4201C99.3862 30.3633 99.2154 30.3415 99.0459 30.3562V29.6048C100.289 29.4921 104.437 29.338 107.244 29.338C113.255 29.338 116.471 32.524 116.471 42.1118C116.471 51.9363 113.785 56.377 107.319 56.377ZM108.138 33.234C107.593 33.234 105.313 33.234 105.08 33.2716V52.4698C105.313 52.5074 107.631 52.5074 107.905 52.5074C110.396 52.5074 111.564 49.5844 111.564 42.1118C111.564 35.0937 110.084 33.234 108.138 33.234ZM90.2883 30.3862V29.6348C90.2883 29.6348 87.2151 29.6574 84.7581 29.6348C84.7581 29.6348 84.2246 30.2547 84.2246 31.7801V50.6739C84.2246 52.1767 83.1313 52.9281 81.8464 52.9281C80.6404 52.9281 79.5133 52.3195 79.5133 50.6739V31.7913C79.5133 30.8446 80.0581 30.3524 80.7982 30.3524V29.6311H75.5873C75.06 30.2242 74.7827 30.9983 74.8133 31.7913V51.1398C74.8626 51.8844 74.7695 52.6316 74.5391 53.3414C75.4211 54.4299 76.5371 55.3056 77.8041 55.9034C79.0712 56.5011 80.4567 56.8056 81.8577 56.7941C84.6801 56.7326 87.4976 56.5294 90.2996 56.1854V55.4641C90.1343 55.475 89.9685 55.4516 89.8126 55.3953C89.6567 55.3391 89.5142 55.2512 89.3939 55.1373C89.2736 55.0233 89.1781 54.8858 89.1135 54.7332C89.0489 54.5806 89.0166 54.4163 89.0185 54.2506V31.6373C89.0096 31.4691 89.0365 31.3008 89.0974 31.1438C89.1584 30.9867 89.2519 30.8443 89.3719 30.7261C89.492 30.6078 89.6357 30.5164 89.7937 30.4578C89.9516 30.3992 90.1202 30.3748 90.2883 30.3862Z" fill="#545454"/>
</svg>
