<svg width="192" height="109" viewBox="0 0 192 109" fill="none" xmlns="http://www.w3.org/2000/svg">
<g clip-path="url(#clip0_18672_46209)">
<path d="M33.252 83.0312H158.75V26.8057H33.252V83.0312Z" fill="#545454"/>
<path d="M155.831 80.106H36.1703V29.722H155.831V80.106ZM35.3164 28.8665V80.9691H156.69V28.8665" fill="#F5F5F5"/>
<path d="M55.7205 48.4852C55.7144 50.3443 54.8314 52.2752 51.6831 52.2797C49.6728 52.2691 49.0053 51.6657 48.993 49.8555V44.7839H51.5395C54.3273 44.7855 55.719 46.6598 55.7205 48.4852ZM51.564 44.2279H48.993V38.388C49.598 38.3635 50.5466 38.3192 51.0583 38.3192C53.9974 38.3238 54.9689 39.8285 54.975 41.4889C54.9689 43.3388 53.8614 44.2203 51.564 44.2279ZM54.558 44.3806C56.136 44.0537 57.2374 42.7859 57.2389 41.4171C57.2404 40.2486 56.7455 39.4099 55.751 38.7072C54.8666 38.0702 53.0106 37.7632 50.8903 37.7617C50.432 37.7617 48.6066 37.7861 47.2822 37.8335C46.5856 37.8579 44.9266 37.9541 44.2545 37.9786H44.2056V38.5346H45.0977C46.7597 38.5484 46.8835 39.2037 46.8987 40.5755V50.5521C46.8835 52.0567 46.5596 52.4585 44.5921 52.4737H43.9902V53.0298H52.838C56.7348 53.0252 58.0745 50.3321 58.0806 48.4119C58.0806 46.5391 56.773 45.0665 54.558 44.3806Z" fill="#F5F5F5"/>
<path d="M69.4667 38.3189C73.4048 38.3204 76.217 41.4382 76.2201 45.888C76.217 49.2869 74.358 52.7071 70.4764 52.7147C66.6345 52.7132 63.6038 49.5679 63.6023 45.0952C63.6038 42.2249 65.2735 38.325 69.4667 38.3189ZM70.0914 37.6177C64.9496 37.6269 61.2514 41.0303 61.2422 45.8406C61.2437 50.3684 65.2399 53.4067 69.9708 53.4144C74.6589 53.4052 78.5695 49.9804 78.5787 45.0952C78.5771 40.7355 74.6558 37.6253 70.0914 37.6177Z" fill="#F5F5F5"/>
<path d="M82.7333 53.03H82.7608L82.7745 53.0086C82.8631 52.8742 83.0174 52.7657 83.2144 52.7657C83.523 52.7626 85.2232 53.4149 86.5553 53.4149C89.3859 53.4103 91.5077 51.6445 91.5077 49.2553C91.4863 44.7765 83.7583 43.8508 83.7934 40.5038C83.7934 39.1886 84.8658 38.2965 86.4361 38.2934C88.0706 38.2934 89.5921 39.3857 90.2596 41.0996L90.2718 41.1301H90.7698L90.3498 37.9788H89.8945L89.8808 37.9971C89.7357 38.185 89.6715 38.2155 89.4882 38.2201C88.6771 38.2232 88.2478 37.6182 86.2192 37.6182C83.7476 37.6213 81.8916 39.1244 81.89 41.1531C81.9145 45.4165 89.6394 46.4828 89.6058 49.8801C89.6043 51.7437 87.9331 52.6633 86.3383 52.6664C84.4854 52.6649 82.8249 51.4352 82.3239 49.3149L82.3147 49.2767H81.7617L82.2811 53.03" fill="#F5F5F5"/>
<path d="M94.5066 41.6097L94.5143 41.5685C94.8794 39.4513 95.2888 38.9457 96.219 38.9426H100.351V50.7691C100.339 52.0538 99.9601 52.4601 98.5012 52.4739H97.5633V53.0299H105.235V52.4739H104.297C102.838 52.4601 102.459 52.0538 102.447 50.7691V38.9426H106.579C107.509 38.9457 107.919 39.4513 108.285 41.5685L108.291 41.6097H108.822L108.427 37.6182H107.882L107.876 37.6579C107.842 37.8993 107.517 37.9787 107.181 37.9772H95.6187C95.4553 37.9772 95.2903 37.9543 95.1543 37.9084C95.0214 37.8626 94.9435 37.7832 94.9221 37.6579L94.9145 37.6182H94.3707L93.9766 41.6097H94.4639" fill="#F5F5F5"/>
<path d="M119.748 52.7138C115.906 52.7138 112.877 49.5685 112.876 45.0957C112.877 42.2254 114.547 38.3255 118.739 38.3179C122.677 38.3194 125.489 41.4372 125.492 45.8885C125.489 49.2874 123.631 52.7076 119.748 52.7138ZM119.365 37.6167C114.22 37.6259 110.525 41.0293 110.516 45.8412C110.517 50.3689 114.512 53.4058 119.244 53.4149C123.931 53.4058 127.843 49.9794 127.852 45.0957C127.851 40.736 123.929 37.6259 119.365 37.6167Z" fill="#F5F5F5"/>
<path d="M135.903 52.5243V52.4739H135.855C133.812 52.4571 133.491 52.1546 133.476 50.433V40.2441L145.857 53.1995H146.554V39.7354C146.563 38.8234 146.884 38.5485 148.691 38.5363H148.74V37.9787H143.016V38.5332L143.065 38.5347C144.993 38.5989 145.358 38.8143 145.371 40.2655V49.7074L134.119 37.9787H130.276V38.5332L130.323 38.5347C131.147 38.5592 131.755 38.744 132.294 39.1122V50.9142C132.285 52.0003 131.855 52.4632 130.374 52.4739H130.229V53.0299H135.903" fill="#F5F5F5"/>
<path d="M52.4371 61.5398V61.9385L52.4845 61.9431C53.7951 62.021 53.9769 62.2257 53.9937 63.7517V67.453C53.9891 70.1248 52.2064 70.8427 50.4207 70.8488C48.0743 70.8442 46.8553 69.5916 46.8508 67.4683V63.0536C46.8614 62.1493 47.1868 61.9553 48.0545 61.9431H48.247V61.5398H44.0645V61.9415L44.1149 61.9431C45.1949 61.9736 45.4164 62.0805 45.4316 63.0842V67.7219C45.4362 70.0178 47.0188 71.77 50.0724 71.7761C53.5431 71.77 54.8201 69.6344 54.8232 67.6424V63.3545C54.8354 62.3494 55.1715 61.9675 56.2209 61.9431L56.2698 61.9415V61.5398H56.2194" fill="#F5F5F5"/>
<path d="M66.2509 61.8926V61.94L66.2998 61.9415C67.5738 61.9904 67.7938 62.1156 67.8075 63.0673V69.2647L60.3972 61.5413H57.8309V61.94L57.8798 61.9415C58.4175 61.9568 58.8131 62.0775 59.166 62.3158V70.1049C59.1568 70.8182 58.8895 71.1085 57.9119 71.1192H57.7988V71.5209H61.5842V71.1192H61.5353C60.1849 71.1024 59.9955 70.9221 59.9802 69.7871V63.0963L68.1375 71.6324H68.6217V62.719C68.6324 62.1248 68.8218 61.9552 70.0179 61.943H70.0668V61.5397H66.2509" fill="#F5F5F5"/>
<path d="M72.2344 61.8926V61.9384L72.2817 61.9415C73.1662 62.0011 73.4137 62.192 73.4259 63.0368V69.8039C73.4106 70.8641 73.2563 71.0581 72.2817 71.1192L72.2344 71.1222V71.5225H76.1939V71.1192H76.1434C75.0573 71.1054 74.8588 70.8427 74.845 69.9155V63.1788C74.8588 62.1263 75.149 61.9568 76.1434 61.9415H76.1939V61.5397H72.2344" fill="#F5F5F5"/>
<path d="M84.6863 61.8926V61.9431H84.7352C85.8198 61.9476 86.162 62.1279 86.1635 62.5602C86.1635 62.7679 86.0703 63.0842 85.8962 63.5256L83.4322 69.9689L80.6199 62.9711C80.5558 62.8153 80.5237 62.6824 80.5237 62.5709C80.516 62.1798 80.9331 61.969 82.0833 61.9415H82.1322V61.5398H77.6641V61.9415H77.7145C78.6738 61.9507 78.8174 62.1493 79.2252 63.1498L82.6837 71.7745H83.5468L86.8311 63.2766C87.216 62.299 87.6147 61.9461 88.4213 61.9415H88.4717V61.5398H84.6863" fill="#F5F5F5"/>
<path d="M97.6361 69.0554L97.6254 69.0921C97.2206 70.4562 96.9243 70.8427 95.8321 70.8488L93.3849 70.8503C92.8029 70.8366 92.589 70.7434 92.5768 70.0254V66.6923H95.2119C95.8534 66.7045 96.1009 66.7809 96.2414 67.9036L96.246 67.9464H96.6432V64.8301H96.246L96.2414 64.8744C96.1544 65.7925 95.9191 66.0125 95.3707 66.0201H92.5768V62.2134H95.8779C96.4248 62.218 96.7914 62.4593 97.0052 63.8067L97.0113 63.8494H97.3932L97.2603 61.5397H89.5384V61.943H89.9387C90.9881 61.9552 91.1454 62.2791 91.1577 63.1651V69.8666C91.1439 70.8121 90.9789 71.1054 89.7141 71.1207H89.2207V71.5225H97.7507L98.015 69.0554H97.6743" fill="#F5F5F5"/>
<path d="M113.255 63.2278C113.256 62.3693 113.951 61.7858 114.983 61.7842C116.055 61.7842 117.055 62.4992 117.495 63.6265L117.506 63.6586H117.868L117.584 61.5398H117.262L117.246 61.5612C117.15 61.6834 117.118 61.6956 117 61.7002C116.475 61.7048 116.183 61.3031 114.84 61.3031C113.201 61.3046 111.964 62.3036 111.962 63.6571C111.987 66.4922 117.095 67.201 117.062 69.4237C117.06 70.6411 115.969 71.2445 114.92 71.2461C113.702 71.2461 112.613 70.438 112.283 69.0463L112.274 69.0082H111.877L112.224 71.5225H112.563L112.578 71.4996C112.635 71.4156 112.731 71.3469 112.855 71.3469C113.049 71.3423 114.179 71.7746 115.062 71.7761C116.941 71.7715 118.352 70.5999 118.352 69.0097C118.329 66.034 113.22 65.4153 113.255 63.2278Z" fill="#F5F5F5"/>
<path d="M121.135 61.8926V61.94L121.182 61.9415C122.065 62.0011 122.314 62.1936 122.326 63.0368V69.8039C122.311 70.8641 122.158 71.0581 121.182 71.1192L121.135 71.1222V71.5225H125.094V71.1192H125.045C123.958 71.1054 123.758 70.8427 123.744 69.9155V63.1788C123.758 62.1263 124.048 61.9568 125.045 61.9415H125.094V61.5397H121.135" fill="#F5F5F5"/>
<path d="M136.331 61.3035H136.288L136.281 61.3447C136.265 61.4883 136.061 61.5418 135.839 61.5402H128.197C128.091 61.5402 127.983 61.5265 127.896 61.4959C127.812 61.4684 127.767 61.4196 127.754 61.3447L127.748 61.3035H127.358L127.094 63.9752H127.477L127.485 63.9355C127.729 62.5332 127.99 62.2154 128.595 62.2139H131.308V70.0106C131.296 70.8554 131.064 71.1074 130.103 71.1197L129.466 71.1212V71.5229H134.571V71.1212H133.933C132.972 71.1074 132.74 70.8554 132.727 70.0106V62.2124L135.442 62.2139C136.045 62.2154 136.305 62.5332 136.551 63.9355L136.559 63.9752H136.942L136.678 61.3035" fill="#F5F5F5"/>
<path d="M145.053 61.5398V61.9416H145.103C145.796 61.9446 146.104 62.0668 146.104 62.3708C146.105 62.522 146.03 62.7344 145.87 63.0093L143.669 66.7534L141.171 62.8963C141 62.6366 140.908 62.4334 140.91 62.2975C140.91 62.0714 141.173 61.9416 141.971 61.9416H142.022V61.5383H137.697V61.94L137.746 61.9416C138.77 61.9782 139.097 62.1753 139.882 63.3958L142.7 67.7998V70.024C142.689 70.7908 142.453 71.107 141.48 71.1192H141.128V71.521H145.596V71.1192H145.341C144.382 71.107 144.13 70.8229 144.119 69.9919L144.118 67.6104L146.75 63.1713C147.193 62.4319 147.628 62.0225 148.696 61.9416L148.742 61.9385V61.5398" fill="#F5F5F5"/>
<path d="M106.648 64.4011C106.642 66.2739 105.532 66.9858 103.789 66.9919C103.639 66.9919 103.512 66.995 103.39 66.995C103.22 66.995 103.058 66.9904 102.857 66.9675V61.8684C103.117 61.8425 103.312 61.8424 103.598 61.8424C106.017 61.8501 106.639 62.9469 106.648 64.4011ZM108.906 70.1066C108.906 70.1082 106.888 67.5388 106.566 67.1294C106.463 67.0087 106.393 66.9278 106.334 66.8773C107.507 66.4374 108.235 65.5392 108.235 64.3064C108.231 62.6597 106.882 61.4438 103.946 61.4407C102.918 61.4407 102.599 61.4575 101.951 61.4881C101.302 61.5201 100.336 61.5828 99.9606 61.5828H99.9102V61.983H100.309C101.215 61.9967 101.432 62.2259 101.445 63.1989L101.444 69.8576C101.432 70.9071 101.154 71.1072 100.229 71.121H99.9102V71.5196H104.487V71.121H104.071C103.193 71.1072 102.868 70.9163 102.857 69.986L102.864 67.3631C103.095 67.3784 103.306 67.3937 103.631 67.3921C104.061 67.3921 104.482 67.357 104.82 67.2974L104.826 67.273V67.2959C104.973 67.2699 105.544 68.0902 106.137 68.8388L107.067 69.986C108.326 71.4173 108.706 71.6938 110.855 71.6877C110.875 71.6877 110.895 71.6892 110.916 71.6892H110.965V71.3119L110.924 71.3043C109.955 71.1393 109.61 70.9468 108.906 70.1066Z" fill="#F5F5F5"/>
</g>
<defs>
<clipPath id="clip0_18672_46209">
<rect width="125.498" height="56.2255" fill="white" transform="translate(33.252 26.8057)"/>
</clipPath>
</defs>
</svg>
