<svg width="192" height="108" viewBox="0 0 192 108" fill="none" xmlns="http://www.w3.org/2000/svg">
<g clip-path="url(#clip0_25424_44022)">
<path d="M28.4277 32.952V33.6812L28.4995 33.6632C28.5444 33.6497 28.5938 33.6497 28.6431 33.6632L28.7149 33.6812V32.952C28.7149 32.8755 28.6521 32.8125 28.5713 32.8125C28.4906 32.8125 28.4277 32.8755 28.4277 32.952Z" fill="#545454"/>
<path d="M28.9205 33.0015V33.7307L29.2032 33.8027V33.0015C29.2032 32.925 29.1404 32.8619 29.0596 32.8619C28.9788 32.8619 28.916 32.925 28.916 33.0015H28.9205Z" fill="#545454"/>
<path d="M27.9381 33.0015V33.8027L28.2208 33.7307V33.0015C28.2208 32.925 28.158 32.8619 28.0772 32.8619C27.9964 32.8619 27.9336 32.925 27.9336 33.0015H27.9381Z" fill="#545454"/>
<path d="M28.2305 37.3136V39.033L28.3965 38.9925C28.5042 38.9655 28.6164 38.9655 28.7286 38.9925L28.8946 39.033V37.3136C28.8946 37.129 28.7465 36.985 28.5626 36.985C28.3786 36.985 28.2305 37.1335 28.2305 37.3136Z" fill="#545454"/>
<path d="M29.3691 37.4351V39.1546L30.0333 39.3211V37.4351C30.0333 37.2506 29.8852 37.1066 29.7012 37.1066C29.5172 37.1066 29.3691 37.2551 29.3691 37.4351Z" fill="#545454"/>
<path d="M27.0996 37.4351V39.3211L27.7638 39.1546V37.4351C27.7638 37.2506 27.6157 37.1066 27.4317 37.1066C27.2477 37.1066 27.0996 37.2551 27.0996 37.4351Z" fill="#545454"/>
<path d="M29.3872 35.4906L30.1366 35.8822C30.0962 35.0045 29.7103 34.0637 28.5615 34.0637C27.4126 34.0637 27.0312 35.0045 26.9863 35.8822L27.7358 35.4906H29.3872Z" fill="#545454"/>
<path d="M28.8978 32.0248L29.203 32.1958C29.1895 31.5656 29.1447 30.9625 28.7273 30.8455H28.7408L28.5702 29L28.3997 30.85H28.4132C27.9958 30.967 27.9555 31.5701 27.9375 32.2003L28.2427 32.0293H28.9068L28.8978 32.0248Z" fill="#545454"/>
<path d="M27.9067 32.7044L28.2568 32.5424H28.8761L29.2261 32.7044C29.2261 32.6414 29.2485 32.5019 29.3203 32.5019L28.9254 32.2948H28.2074L27.8125 32.5019C27.8843 32.5019 27.9067 32.6459 27.9067 32.7044Z" fill="#545454"/>
<path d="M27.0865 36.6699C27.0955 36.7014 27.1 36.7239 27.1 36.7509L27.8674 36.3954H29.2675L30.0349 36.7509C30.0349 36.7239 30.0349 36.6969 30.0483 36.6699C30.0798 36.5844 30.1471 36.5214 30.2189 36.5034L29.3797 36.0668H27.7552L26.916 36.5034C26.9878 36.5214 27.0596 36.5889 27.0865 36.6699Z" fill="#545454"/>
<path d="M25.9944 40.6488C26.0079 40.6894 26.0169 40.7299 26.0169 40.7704L28.5658 40.1897V41.117L31.1148 41.6976V40.7884C31.1148 40.7434 31.1238 40.6984 31.1417 40.6488C31.1911 40.5048 31.2943 40.3833 31.411 40.3158L28.5658 39.6676L25.7207 40.3158C25.8374 40.3833 25.9406 40.5048 25.99 40.6488H25.9944Z" fill="#545454"/>
<path d="M24.9277 43.1066C24.9502 43.1741 24.9636 43.2371 24.9681 43.3001V43.3901L25.8432 43.1876L28.5492 42.5709V45.5687H28.5672L32.1662 45.9198V43.3046C32.1662 43.2416 32.1797 43.1786 32.2066 43.1111C32.2784 42.904 32.4265 42.733 32.5925 42.6384L31.2777 42.3369L28.5717 41.7202L25.8656 42.3369L24.5508 42.6384C24.7168 42.733 24.8649 42.904 24.9367 43.1111L24.9277 43.1066ZM30.3622 43.4622C30.7885 43.4622 31.1296 43.8673 31.1296 44.3714C31.1296 44.8755 30.7885 45.2806 30.3622 45.2806C29.9359 45.2806 29.5948 44.8755 29.5948 44.3714C29.5948 43.8673 29.9359 43.4622 30.3622 43.4622Z" fill="#545454"/>
<path d="M32.1663 50.4478V47.4186C32.1663 47.27 32.1663 47.0585 32.2067 46.955C32.2606 46.7884 32.3727 46.6399 32.5029 46.5409L32.1663 46.5094L28.5538 46.1583L24.9413 46.5094L24.6047 46.5409C24.7349 46.6399 24.8426 46.7839 24.9009 46.955C24.9234 47.0135 24.9323 47.1125 24.9323 47.2115H24.9458L28.5538 46.8829V51.3481L25.2465 52.1718C25.2465 52.1313 25.2465 52.0907 25.2465 52.0502C25.2465 50.3308 23.2495 48.3278 20.7858 48.3278C20.1979 48.3278 19.6415 48.4448 19.1254 48.6384C18.9145 46.9955 17.0028 45.2175 14.6872 45.2175C14.4493 45.2175 14.2205 45.2355 13.9961 45.2715V65H34.6076V49.8312L32.1573 50.4433L32.1663 50.4478ZM24.6406 64.2168C24.4028 62.6189 23.2809 61.3046 21.8 60.8184C21.8673 60.8184 21.9346 60.8139 22.0019 60.8139C24.0124 60.8139 25.7042 62.2858 26.0812 64.2213H24.6362L24.6406 64.2168ZM33.8402 60.2918C33.3286 59.4096 32.5074 58.7254 31.5291 58.4013C31.5964 58.4013 31.6637 58.3968 31.731 58.3968C32.4984 58.3968 33.2209 58.6129 33.8357 58.982V60.2918H33.8402ZM33.8402 56.997C31.6188 57.078 29.8238 58.9505 29.8238 61.228V64.2168H28.4461V63.6406C28.4461 61.3091 26.5703 59.4051 24.2816 59.4051C21.993 59.4051 20.1172 61.3091 20.1172 63.6406V64.2168H18.3446C17.6804 62.8979 16.3341 61.9797 14.7814 61.9167V59.8282L33.8447 54.9985V56.9925H33.8402V56.997ZM33.8402 54.1883L14.7769 59.018V57.231L33.8402 52.4688V54.1883Z" fill="#545454"/>
<path d="M26.7713 45.2716C27.1931 45.2716 27.5387 44.8665 27.5387 44.3624C27.5387 43.8582 27.1976 43.4531 26.7713 43.4531C26.345 43.4531 26.0039 43.8582 26.0039 44.3624C26.0039 44.8665 26.345 45.2716 26.7713 45.2716Z" fill="#545454"/>
<path d="M48.0287 38.4883C47.9748 38.5333 47.9389 38.5873 47.921 38.6549C47.8985 38.7224 47.8896 38.7989 47.8896 38.8844C47.8896 38.9699 47.8896 39.051 47.8851 39.1365C47.8761 39.375 47.8716 39.6271 47.8671 39.8837C47.8671 40.1402 47.8671 40.3878 47.8671 40.6309C47.8671 40.9459 47.8357 41.2385 47.7774 41.5086C47.719 41.7786 47.6158 42.0127 47.4722 42.2107C47.3241 42.4088 47.1312 42.5663 46.8844 42.6744C46.642 42.7869 46.3324 42.8409 45.9599 42.8409C45.6233 42.8409 45.3317 42.7869 45.0893 42.6834C44.847 42.5798 44.6495 42.4358 44.4925 42.2513C44.3354 42.0667 44.2232 41.8462 44.1514 41.5896C44.0796 41.333 44.0437 41.054 44.0437 40.7479V39.1545C44.0437 39.06 44.0437 38.9699 44.0437 38.8844C44.0437 38.7944 44.0303 38.7179 44.0033 38.6504C43.9809 38.5828 43.9405 38.5243 43.8822 38.4748C43.8283 38.4298 43.7386 38.3983 43.6309 38.3893V38.2498C43.7655 38.2543 43.9091 38.2588 44.0617 38.2633C44.2098 38.2633 44.3623 38.2633 44.5104 38.2633C44.6585 38.2633 44.7976 38.2633 44.9367 38.2633C45.0714 38.2633 45.1881 38.2588 45.2913 38.2498V38.3983C45.1791 38.3893 45.0938 38.4118 45.04 38.4613C44.9861 38.5153 44.9412 38.5783 44.9188 38.6594C44.8964 38.7404 44.8829 38.8259 44.8829 38.9249V40.8199C44.8829 41.0224 44.9008 41.2205 44.9367 41.414C44.9771 41.6076 45.04 41.7786 45.1297 41.9272C45.2195 42.0757 45.3496 42.1972 45.5067 42.2873C45.6637 42.3773 45.8702 42.4268 46.1125 42.4268C46.4356 42.4268 46.6824 42.3638 46.8619 42.2333C47.0414 42.1072 47.1716 41.9407 47.2568 41.7426C47.3421 41.5401 47.3915 41.3195 47.4139 41.0765C47.4318 40.8334 47.4453 40.5948 47.4453 40.3563C47.4453 40.1177 47.4453 39.8972 47.4318 39.6586C47.4274 39.42 47.4184 39.186 47.4094 38.9654C47.4049 38.8754 47.3959 38.7989 47.387 38.7314C47.378 38.6639 47.3556 38.6053 47.3331 38.5558C47.3017 38.5108 47.2613 38.4748 47.203 38.4478C47.1446 38.4253 47.0639 38.4073 46.9651 38.4073V38.2498C47.185 38.2588 47.4049 38.2633 47.6248 38.2543C47.8447 38.2498 48.0646 38.2498 48.2845 38.2498V38.3983C48.1768 38.4073 48.096 38.4343 48.0466 38.4793H48.0377L48.0287 38.4883Z" fill="#545454"/>
<path d="M57.7984 38.4703C57.7445 38.5018 57.7086 38.5424 57.6907 38.5919C57.6682 38.6414 57.6593 38.7044 57.6548 38.7764C57.6548 38.8484 57.6503 38.9385 57.6458 39.0375C57.6279 39.6541 57.6234 40.2753 57.6279 40.9009C57.6323 41.5266 57.6413 42.1523 57.6413 42.7734H57.4304C56.865 42.2963 56.322 41.7832 55.7969 41.243C55.2719 40.6984 54.7558 40.1493 54.2397 39.5911C54.2397 39.9782 54.2397 40.3608 54.2532 40.7389C54.2577 41.117 54.2667 41.5041 54.2756 41.8867C54.2756 41.9767 54.2756 42.0532 54.2756 42.1298C54.2756 42.2063 54.2891 42.2693 54.316 42.3278C54.3429 42.3818 54.3788 42.4268 54.4327 42.4628C54.4865 42.4988 54.5673 42.5168 54.6705 42.5168V42.6609C54.5808 42.6564 54.4776 42.6564 54.3654 42.6564H53.6743C53.5621 42.6564 53.4589 42.6564 53.3691 42.6609V42.5168C53.4768 42.5123 53.5531 42.4853 53.6115 42.4448C53.6653 42.3998 53.7057 42.3458 53.7326 42.2783C53.7596 42.2108 53.773 42.1388 53.773 42.0577C53.773 41.9812 53.773 41.9047 53.773 41.8327C53.782 41.5131 53.7865 41.2115 53.7865 40.919C53.7865 40.6264 53.7865 40.3518 53.7865 40.0952C53.7865 39.7757 53.7865 39.4606 53.773 39.1455C53.7685 38.8259 53.7596 38.5108 53.7551 38.1868H53.9839C54.5 38.7539 55.0161 39.3211 55.5322 39.8792C56.0527 40.4373 56.6002 40.9685 57.1791 41.4681C57.1656 41.072 57.1567 40.6759 57.1611 40.2708C57.1611 39.8702 57.1611 39.4696 57.1432 39.0735C57.1387 38.9745 57.1387 38.8889 57.1387 38.8124C57.1387 38.7359 57.1252 38.6684 57.1028 38.6099C57.0804 38.5559 57.04 38.5063 56.9861 38.4748C56.9323 38.4433 56.847 38.4208 56.7393 38.4118V38.2678C57.1791 38.2903 57.6144 38.2903 58.0407 38.2678V38.4118C57.933 38.4208 57.8567 38.4433 57.8029 38.4703H57.7984Z" fill="#545454"/>
<path d="M64.037 42.823C63.7588 42.823 63.4806 42.8275 63.1934 42.8365V42.688C63.2831 42.679 63.3549 42.6565 63.4088 42.6295C63.4626 42.598 63.503 42.562 63.5344 42.5125C63.5658 42.4674 63.5838 42.4044 63.5972 42.3369C63.6062 42.2694 63.6152 42.1929 63.6197 42.1074C63.6242 41.8553 63.6242 41.6257 63.6242 41.4187V39.9243C63.6242 39.7803 63.6242 39.6407 63.6242 39.5012C63.6242 39.3617 63.6242 39.2401 63.6242 39.1276C63.6242 39.0286 63.6242 38.9341 63.6242 38.8485C63.6242 38.7675 63.6107 38.691 63.5838 38.6325C63.5613 38.5695 63.521 38.52 63.4626 38.484C63.4043 38.4434 63.319 38.4209 63.2023 38.4029V38.2544C63.7812 38.2994 64.3467 38.2994 64.8986 38.2544V38.4029C64.782 38.4119 64.6967 38.4389 64.6384 38.4795C64.5845 38.52 64.5396 38.574 64.5172 38.6415C64.4948 38.709 64.4768 38.781 64.4768 38.8665C64.4768 38.9521 64.4768 39.0376 64.4768 39.1276C64.4723 39.2356 64.4678 39.3707 64.4633 39.5237C64.4633 39.6767 64.4633 39.8298 64.4633 39.9783V40.9956C64.4633 41.1036 64.4633 41.2116 64.4633 41.3107C64.4633 41.4097 64.4678 41.5177 64.4678 41.6212C64.4678 41.7248 64.4678 41.8553 64.4678 41.9993C64.4678 42.0984 64.4678 42.1839 64.4723 42.2604C64.4768 42.3414 64.4903 42.4089 64.5172 42.4674C64.5396 42.526 64.58 42.5755 64.6384 42.616C64.6967 42.6565 64.782 42.679 64.8897 42.688V42.832C64.598 42.823 64.3108 42.8185 64.037 42.8185V42.823Z" fill="#545454"/>
<path d="M74.3231 38.4524C74.2647 38.4839 74.2064 38.5289 74.1525 38.5919C74.1121 38.6459 74.0673 38.7135 74.0314 38.7855C73.991 38.8575 73.9506 38.934 73.9147 39.015C73.8788 39.0961 73.8474 39.1771 73.816 39.2581C73.7845 39.3391 73.7576 39.4066 73.7352 39.4697C73.5871 39.8387 73.439 40.2078 73.2864 40.5679C73.1338 40.9325 72.9813 41.2971 72.8242 41.6662C72.7434 41.8597 72.6671 42.0578 72.5864 42.2558C72.5056 42.4584 72.4158 42.6429 72.3081 42.823H72.0793C71.81 42.2468 71.5497 41.6752 71.3074 41.1081C71.0606 40.5409 70.8227 39.9603 70.5804 39.3796C70.54 39.2851 70.4951 39.1771 70.4548 39.0691C70.4144 38.952 70.3605 38.853 70.2977 38.754C70.2349 38.6549 70.1631 38.5739 70.0778 38.5064C69.9925 38.4389 69.8893 38.3984 69.7637 38.3894V38.2408C70.0509 38.2588 70.3426 38.2679 70.6253 38.2634C70.9125 38.2588 71.2042 38.2498 71.5004 38.2408V38.3804C71.4286 38.3849 71.3613 38.4074 71.2984 38.4479C71.2311 38.4884 71.1997 38.5469 71.1997 38.6324C71.1997 38.6775 71.2266 38.7765 71.2805 38.925C71.3343 39.0736 71.4016 39.2536 71.4824 39.4561C71.5632 39.6632 71.6574 39.8793 71.7517 40.1133C71.8504 40.3474 71.9446 40.5679 72.0299 40.775C72.1197 40.982 72.2004 41.1666 72.2677 41.3241C72.3351 41.4817 72.3844 41.5942 72.4113 41.6482C72.4428 41.5627 72.4921 41.4411 72.5594 41.2791C72.6268 41.1171 72.6985 40.937 72.7793 40.739C72.8601 40.5364 72.9364 40.3339 73.0217 40.1133C73.1024 39.8973 73.1787 39.6902 73.2505 39.4922C73.3178 39.2941 73.3762 39.1231 73.4166 38.9655C73.4569 38.8125 73.4794 38.6955 73.4794 38.6189C73.4794 38.5244 73.448 38.4614 73.3807 38.4344C73.3134 38.4029 73.246 38.3894 73.1608 38.3804V38.2408C73.3941 38.2543 73.6275 38.2633 73.8653 38.2588C74.0987 38.2588 74.3186 38.2498 74.5205 38.2408V38.3804C74.4442 38.3939 74.3769 38.4164 74.3186 38.4479L74.3231 38.4524Z" fill="#545454"/>
<path d="M82.494 42.2018C82.4895 42.3324 82.4671 42.4449 82.4312 42.5394C82.3953 42.6384 82.3415 42.7149 82.2607 42.7735C82.1799 42.8275 82.0498 42.859 81.8703 42.859C81.4529 42.859 81.0401 42.8545 80.6317 42.841C80.2278 42.8275 79.797 42.823 79.3438 42.823V42.6744C79.5053 42.6564 79.613 42.6204 79.6624 42.5574C79.7162 42.5034 79.7431 42.3909 79.7566 42.2288C79.779 41.9363 79.7925 41.6392 79.7925 41.3511V40.2393C79.7925 40.1313 79.7925 40.0098 79.7925 39.8747C79.7925 39.7442 79.788 39.6002 79.788 39.4561C79.788 39.3121 79.7835 39.1771 79.7746 39.051C79.7701 38.961 79.7656 38.8755 79.7611 38.8035C79.7566 38.7315 79.7387 38.6639 79.7117 38.6099C79.6848 38.5559 79.6444 38.5109 79.5906 38.4794C79.5367 38.4479 79.4559 38.4254 79.3438 38.4164V38.2723H82.3818C82.3594 38.4029 82.3459 38.5379 82.3459 38.6639C82.3459 38.79 82.3459 38.925 82.3459 39.0555H82.2158C82.2023 38.871 82.153 38.754 82.0632 38.6999C81.9735 38.6504 81.8433 38.6279 81.6728 38.6279H80.6317C80.6362 38.79 80.6317 39.015 80.6182 39.2986C80.6048 39.5822 80.6048 39.9017 80.6048 40.2528H81.3407C81.435 40.2528 81.5247 40.2528 81.6145 40.2528C81.7042 40.2528 81.785 40.2393 81.8523 40.2123C81.9241 40.1898 81.9869 40.1493 82.0363 40.0908C82.0902 40.0368 82.126 39.9513 82.153 39.8387L82.2876 39.8612C82.2562 40.0548 82.2338 40.2573 82.2158 40.4644C82.2023 40.6714 82.2023 40.8695 82.2158 41.0585H82.0812C82.0722 40.9505 82.0498 40.874 82.0184 40.8155C81.9869 40.7615 81.9465 40.7164 81.8882 40.6849C81.8344 40.6534 81.767 40.6399 81.6908 40.6354C81.6145 40.6309 81.5337 40.6309 81.4395 40.6309H80.5958L80.6092 41.8687C80.6092 42.0308 80.6182 42.1523 80.6362 42.2378C80.6541 42.3189 80.6855 42.3819 80.7349 42.4224C80.7798 42.4629 80.8516 42.4809 80.9413 42.4854C81.0311 42.4899 81.1567 42.4899 81.3138 42.4899C81.4709 42.4899 81.6145 42.4854 81.7311 42.4674C81.8478 42.4539 81.9421 42.4224 82.0273 42.3684C82.1081 42.3189 82.1844 42.2468 82.2427 42.1523C82.3011 42.0578 82.3594 41.9318 82.4177 41.7742L82.5524 41.8102C82.521 41.9498 82.4985 42.0803 82.4895 42.2108L82.494 42.2018Z" fill="#545454"/>
<path d="M91.3883 43.0436C91.1101 43.0436 90.8768 42.994 90.6928 42.895C90.5088 42.796 90.3472 42.6655 90.2081 42.5034C90.069 42.3414 89.9478 42.1568 89.8446 41.9498C89.7414 41.7427 89.6382 41.5357 89.535 41.3241C89.4811 41.2206 89.4362 41.1441 89.3869 41.0991C89.3375 41.0541 89.2926 41.0181 89.2433 41.0046C89.1939 40.9865 89.1356 40.982 89.0772 40.982C89.0189 40.982 88.9426 40.9775 88.8663 40.9685C88.8708 41.1351 88.8753 41.2791 88.8798 41.4006C88.8798 41.5222 88.8798 41.6527 88.8798 41.7877V42.0758C88.8798 42.1703 88.8932 42.2559 88.9112 42.3279C88.9336 42.4044 88.974 42.4674 89.0324 42.5124C89.0907 42.5619 89.1804 42.5934 89.3016 42.6024V42.76C89.1939 42.7555 89.0683 42.751 88.9291 42.7465C88.79 42.7465 88.6464 42.7465 88.4983 42.7465C88.3502 42.7465 88.2022 42.7465 88.0541 42.7465C87.906 42.7465 87.7669 42.751 87.6367 42.76V42.5979C87.8028 42.5889 87.906 42.5439 87.9598 42.4584C88.0092 42.3774 88.0316 42.2559 88.0316 42.1028C88.0316 41.7922 88.0361 41.4862 88.0451 41.1846C88.0541 40.883 88.0586 40.5769 88.0586 40.2664C88.0586 40.0503 88.0586 39.8343 88.0586 39.6182C88.0586 39.4022 88.0541 39.1816 88.0451 38.961C88.0451 38.8575 88.0451 38.772 88.0316 38.709C88.0271 38.646 88.0092 38.5919 87.9823 38.5514C87.9553 38.5109 87.9194 38.4794 87.8611 38.4614C87.8072 38.4389 87.7354 38.4209 87.6412 38.4074V38.2589C87.731 38.2634 87.8072 38.2679 87.8701 38.2724C87.9329 38.2724 87.9823 38.2724 88.0271 38.2724C88.072 38.2724 88.1079 38.2724 88.1483 38.2724C88.1887 38.2724 88.2291 38.2724 88.2784 38.2724C88.4759 38.2724 88.6734 38.2679 88.8708 38.2589C89.0683 38.2499 89.2657 38.2454 89.4632 38.2454C89.6606 38.2454 89.8356 38.2769 90.0107 38.3309C90.1857 38.3849 90.3427 38.4704 90.4774 38.5739C90.612 38.682 90.7197 38.8125 90.805 38.97C90.8857 39.1276 90.9306 39.3121 90.9306 39.5102C90.9306 39.7082 90.8992 39.8793 90.8319 40.0278C90.7646 40.1718 90.6748 40.2979 90.5626 40.4014C90.4504 40.5049 90.3203 40.5904 90.1722 40.6535C90.0241 40.7165 89.876 40.7705 89.7145 40.802C89.8985 40.82 90.051 40.883 90.1767 40.9865C90.3023 41.0901 90.41 41.2116 90.4998 41.3601C90.5895 41.5042 90.6748 41.6617 90.7511 41.8328C90.8274 41.9993 90.9082 42.1613 91.0024 42.3099C91.0922 42.4584 91.1999 42.5889 91.3255 42.6925C91.4467 42.8005 91.6037 42.868 91.7922 42.895V43.0256C91.6576 43.0391 91.523 43.0481 91.3928 43.0481L91.3883 43.0436ZM89.9972 39.2356C89.9523 39.1006 89.8805 38.9835 89.7952 38.88C89.71 38.781 89.6023 38.7 89.4721 38.6415C89.3465 38.5829 89.2029 38.5514 89.0503 38.5514C88.9965 38.5514 88.9381 38.5559 88.8843 38.5739C88.8843 38.9205 88.8798 39.2671 88.8708 39.6137C88.8618 39.9603 88.8573 40.3069 88.8573 40.6535C88.8798 40.658 88.9022 40.658 88.9291 40.658H89.0009C89.149 40.658 89.2881 40.6355 89.4183 40.5859C89.5484 40.5409 89.6606 40.4689 89.7593 40.3879C89.8581 40.3024 89.9344 40.1943 89.9882 40.0728C90.0421 39.9513 90.0735 39.8118 90.0735 39.6587C90.0735 39.5057 90.051 39.3661 90.0017 39.2311L89.9972 39.2356Z" fill="#545454"/>
<path d="M98.9453 42.0937C98.8555 42.2558 98.7344 42.3863 98.5863 42.4943C98.4382 42.5979 98.2676 42.6789 98.0792 42.7284C97.8862 42.7779 97.6932 42.8049 97.4958 42.8049C97.2086 42.8049 96.9977 42.7914 96.863 42.7554C96.7284 42.7194 96.6342 42.6654 96.5758 42.5754C96.522 42.4853 96.4861 42.3683 96.4816 42.2153C96.4771 42.0622 96.4591 41.8642 96.4277 41.6211L96.5758 41.6076C96.6297 41.8777 96.7329 42.0847 96.8855 42.2288C97.038 42.3773 97.2579 42.4448 97.5407 42.4448C97.6439 42.4448 97.7426 42.4313 97.8413 42.3998C97.9401 42.3683 98.0253 42.3278 98.1061 42.2693C98.1869 42.2108 98.2497 42.1388 98.2991 42.0532C98.3484 41.9677 98.3709 41.8687 98.3709 41.7607C98.3709 41.6076 98.326 41.4771 98.2317 41.3736C98.142 41.2655 98.0208 41.1665 97.8862 41.072C97.7471 40.9775 97.599 40.8829 97.433 40.7884C97.2714 40.6984 97.1188 40.5904 96.9797 40.4688C96.8361 40.3473 96.7239 40.2078 96.6342 40.0457C96.5444 39.8837 96.4951 39.6856 96.4951 39.4516C96.4951 39.258 96.5265 39.0825 96.5938 38.9295C96.6611 38.7764 96.7508 38.6459 96.8675 38.5424C96.9842 38.4388 97.1233 38.3578 97.2849 38.3083C97.4464 38.2543 97.6214 38.2273 97.8099 38.2273C97.9445 38.2273 98.0792 38.2408 98.2093 38.2633C98.3394 38.2858 98.4696 38.2993 98.6087 38.2993C98.6626 38.2993 98.7209 38.2948 98.7747 38.2858C98.8286 38.2768 98.8824 38.2543 98.9318 38.2228L98.9542 38.2363C98.9139 38.4073 98.8959 38.5829 98.8914 38.7584C98.8869 38.934 98.8914 39.114 98.9049 39.2895H98.7388C98.7344 39.1725 98.7074 39.0735 98.6581 38.979C98.6087 38.8889 98.5459 38.8124 98.4696 38.7494C98.3933 38.6864 98.3035 38.6414 98.2048 38.6099C98.1061 38.5784 97.9984 38.5649 97.8862 38.5649C97.7964 38.5649 97.7112 38.5784 97.6259 38.6009C97.5407 38.6279 97.4644 38.6639 97.3971 38.7134C97.3297 38.7629 97.2759 38.8214 97.231 38.8934C97.1861 38.9655 97.1682 39.051 97.1682 39.1455C97.1682 39.3211 97.2131 39.4741 97.3118 39.6001C97.406 39.7262 97.5227 39.8387 97.6663 39.9377C97.8099 40.0367 97.9625 40.1358 98.124 40.2303C98.2901 40.3248 98.4427 40.4328 98.5818 40.5499C98.7254 40.6669 98.8421 40.8019 98.9363 40.955C99.0305 41.108 99.0799 41.297 99.0799 41.5176C99.0799 41.7382 99.035 41.9317 98.9453 42.0937Z" fill="#545454"/>
<path d="M105.084 42.7419C104.815 42.7419 104.537 42.7464 104.254 42.7554V42.6069C104.344 42.5979 104.411 42.5754 104.465 42.5529C104.519 42.5259 104.559 42.4898 104.59 42.4403C104.622 42.3953 104.64 42.3368 104.649 42.2738C104.658 42.2108 104.667 42.1343 104.671 42.0487C104.676 41.7967 104.676 41.5761 104.676 41.3691V39.9017C104.676 39.7622 104.676 39.6226 104.676 39.4876C104.676 39.3526 104.676 39.2265 104.676 39.1185C104.676 39.0195 104.676 38.9295 104.676 38.8484C104.676 38.7674 104.662 38.6954 104.635 38.6324C104.613 38.5694 104.568 38.5199 104.514 38.4838C104.46 38.4433 104.371 38.4208 104.258 38.4073V38.2588C104.828 38.2993 105.385 38.2993 105.923 38.2588V38.4073C105.811 38.4163 105.726 38.4433 105.672 38.4793C105.618 38.5199 105.573 38.5739 105.551 38.6369C105.528 38.6999 105.515 38.7764 105.51 38.8574C105.51 38.9385 105.51 39.024 105.51 39.114C105.506 39.222 105.501 39.3526 105.497 39.5011C105.497 39.6496 105.497 39.8027 105.497 39.9467V40.946C105.497 41.054 105.497 41.1575 105.497 41.2565C105.497 41.3556 105.501 41.4591 105.501 41.5626C105.501 41.6661 105.501 41.7922 105.501 41.9317C105.501 42.0262 105.501 42.1118 105.506 42.1883C105.51 42.2648 105.524 42.3368 105.546 42.3953C105.569 42.4538 105.609 42.5034 105.667 42.5394C105.726 42.5754 105.807 42.6024 105.914 42.6114V42.7509C105.627 42.7419 105.349 42.7374 105.075 42.7374L105.084 42.7419Z" fill="#545454"/>
<path d="M114.674 38.3759C114.661 38.4659 114.652 38.5514 114.643 38.6324C114.634 38.7135 114.629 38.799 114.62 38.88C114.62 38.961 114.607 39.0556 114.598 39.1501H114.472C114.472 38.9925 114.432 38.889 114.342 38.835C114.252 38.781 114.109 38.754 113.92 38.754H113.251V41.4502C113.251 41.6572 113.251 41.8192 113.26 41.9498C113.269 42.0803 113.283 42.1838 113.314 42.2559C113.346 42.3324 113.386 42.3864 113.44 42.4134C113.494 42.4449 113.575 42.4629 113.678 42.4719V42.6204H112.094V42.4674C112.192 42.4629 112.269 42.4449 112.323 42.4134C112.376 42.3819 112.412 42.3324 112.439 42.2649C112.466 42.1973 112.48 42.1073 112.484 41.9948C112.489 41.8823 112.493 41.7427 112.493 41.5717C112.498 41.0991 112.498 40.6309 112.493 40.1628C112.493 39.6992 112.493 39.2266 112.493 38.7495C112.43 38.7495 112.367 38.7495 112.296 38.7495C112.224 38.7495 112.161 38.7495 112.098 38.7495H111.878C111.775 38.7495 111.681 38.754 111.6 38.7675C111.515 38.781 111.434 38.8035 111.362 38.8395C111.29 38.8755 111.219 38.925 111.16 38.988C111.097 39.0511 111.044 39.1411 110.994 39.2536L110.873 39.1996C110.936 39.0195 110.981 38.8395 111.012 38.6595C111.044 38.4749 111.066 38.2904 111.088 38.1058H111.232C111.232 38.1733 111.25 38.2228 111.286 38.2589C111.322 38.2949 111.376 38.3219 111.438 38.3399C111.501 38.3579 111.578 38.3714 111.663 38.3714C111.748 38.3759 111.847 38.3759 111.946 38.3759H112.852C113.153 38.3759 113.458 38.3759 113.759 38.3714H114.037C114.118 38.3714 114.194 38.3624 114.261 38.3444C114.328 38.3264 114.391 38.2949 114.445 38.2454C114.499 38.2003 114.553 38.1283 114.611 38.0293L114.732 38.0698C114.71 38.1778 114.692 38.2769 114.679 38.3624L114.674 38.3759Z" fill="#545454"/>
<path d="M123.768 38.4929C123.678 38.5379 123.597 38.5964 123.53 38.6684C123.462 38.7405 123.4 38.8215 123.341 38.9115C123.283 39.0015 123.22 39.096 123.153 39.1906L122.21 40.5949V41.9363L122.215 42.2288C122.215 42.3188 122.228 42.3954 122.246 42.4629C122.269 42.5304 122.309 42.5844 122.372 42.6249C122.43 42.6654 122.524 42.6879 122.65 42.6924V42.85C122.376 42.841 122.094 42.8365 121.797 42.8365C121.501 42.8365 121.214 42.841 120.936 42.85V42.6924C121.057 42.6789 121.147 42.6519 121.205 42.6114C121.268 42.5709 121.304 42.5169 121.331 42.4539C121.353 42.3909 121.362 42.3143 121.362 42.2288V40.6399L120.245 39.1501C120.173 39.06 120.11 38.97 120.052 38.889C119.993 38.8035 119.935 38.7315 119.868 38.6639C119.805 38.6009 119.724 38.5469 119.639 38.5019C119.554 38.4569 119.446 38.4299 119.32 38.4209V38.2723C119.441 38.2768 119.581 38.2813 119.738 38.2858C119.895 38.2903 120.056 38.2903 120.227 38.2903C120.397 38.2903 120.568 38.2903 120.743 38.2903C120.918 38.2903 121.084 38.2813 121.245 38.2723V38.4209C121.183 38.4254 121.124 38.4389 121.057 38.4569C120.994 38.4794 120.963 38.5289 120.963 38.6054C120.963 38.6459 120.985 38.7044 121.035 38.7945C121.079 38.88 121.142 38.979 121.219 39.087C121.29 39.1951 121.376 39.3076 121.461 39.4291C121.551 39.5507 121.631 39.6632 121.708 39.7667C121.784 39.8702 121.851 39.9603 121.91 40.0278C121.968 40.0998 121.999 40.1448 122.008 40.1583C122.017 40.1403 122.044 40.0953 122.098 40.0278C122.147 39.9558 122.206 39.8702 122.273 39.7712C122.34 39.6722 122.408 39.5642 122.484 39.4471C122.556 39.3301 122.628 39.2221 122.69 39.1095C122.753 39.0015 122.807 38.9025 122.848 38.817C122.888 38.727 122.91 38.6594 122.91 38.6189C122.91 38.5379 122.879 38.4884 122.825 38.4614C122.767 38.4389 122.704 38.4254 122.637 38.4164V38.2723C122.726 38.2768 122.839 38.2813 122.96 38.2858C123.081 38.2858 123.211 38.2858 123.35 38.2858C123.489 38.2858 123.615 38.2858 123.745 38.2858C123.875 38.2858 123.992 38.2813 124.1 38.2723V38.4164C123.969 38.4254 123.862 38.4569 123.768 38.4974V38.4929Z" fill="#545454"/>
<path d="M135.83 41.4457C135.713 41.7337 135.551 41.9813 135.345 42.1928C135.138 42.3999 134.887 42.5619 134.595 42.6745C134.299 42.787 133.976 42.841 133.626 42.841C133.276 42.841 132.962 42.787 132.67 42.6745C132.383 42.5664 132.136 42.4044 131.925 42.2018C131.714 41.9993 131.557 41.7562 131.441 41.4682C131.324 41.1846 131.266 40.865 131.266 40.5094C131.266 40.1538 131.324 39.8388 131.445 39.5507C131.566 39.2671 131.732 39.0196 131.948 38.8125C132.163 38.6054 132.414 38.4479 132.711 38.3399C133.007 38.2274 133.325 38.1733 133.675 38.1733C134.025 38.1733 134.34 38.2274 134.627 38.3354C134.914 38.4434 135.161 38.5964 135.363 38.799C135.565 39.0015 135.726 39.2401 135.834 39.5282C135.946 39.8117 136 40.1313 136 40.4779C136 40.8245 135.942 41.1576 135.825 41.4457H135.83ZM135.017 39.8748C134.963 39.6317 134.874 39.4111 134.761 39.2131C134.645 39.0151 134.488 38.853 134.295 38.727C134.102 38.6009 133.873 38.5334 133.595 38.5334C133.343 38.5334 133.123 38.5874 132.939 38.7C132.76 38.8125 132.612 38.961 132.5 39.1366C132.388 39.3166 132.307 39.5147 132.253 39.7397C132.199 39.9648 132.177 40.1853 132.177 40.4014C132.177 40.6355 132.204 40.874 132.253 41.1216C132.307 41.3646 132.392 41.5897 132.509 41.7922C132.63 41.9948 132.782 42.1613 132.975 42.2919C133.168 42.4224 133.397 42.4854 133.675 42.4854C133.936 42.4854 134.151 42.4269 134.335 42.3099C134.515 42.1928 134.663 42.0443 134.775 41.8643C134.887 41.6797 134.968 41.4772 135.022 41.2521C135.071 41.0271 135.094 40.8065 135.094 40.5814C135.094 40.3564 135.067 40.1178 135.013 39.8703L135.017 39.8748Z" fill="#545454"/>
<path d="M144.221 38.655C144.221 38.781 144.216 38.916 144.198 39.0511H144.073C144.064 38.934 144.041 38.853 144.001 38.799C143.965 38.745 143.911 38.7 143.853 38.6775C143.794 38.6505 143.722 38.637 143.642 38.637C143.561 38.637 143.48 38.637 143.39 38.637H142.515C142.502 38.8665 142.493 39.1006 142.493 39.3391V40.2349H143.615C143.691 40.2349 143.754 40.2214 143.808 40.2034C143.862 40.1808 143.906 40.1448 143.947 40.0908C143.987 40.0368 144.019 39.9558 144.046 39.8478L144.18 39.8613C144.162 40.0413 144.144 40.2259 144.131 40.4194C144.117 40.613 144.117 40.7975 144.131 40.9865H143.987C143.978 40.8785 143.947 40.7975 143.889 40.7435C143.83 40.6895 143.763 40.6535 143.687 40.631C143.606 40.6085 143.521 40.5995 143.422 40.5995H142.493V41.2611C142.493 41.4772 142.497 41.6977 142.506 41.9228C142.511 42.0218 142.515 42.1163 142.52 42.1974C142.52 42.2784 142.533 42.3549 142.556 42.4134C142.578 42.4719 142.623 42.5214 142.681 42.5529C142.74 42.5889 142.829 42.607 142.946 42.6115V42.769C142.677 42.7645 142.403 42.7645 142.111 42.7645C141.82 42.7645 141.551 42.7645 141.286 42.769V42.6115C141.362 42.6025 141.425 42.5889 141.47 42.5709C141.519 42.5529 141.559 42.5259 141.582 42.4944C141.609 42.4629 141.627 42.4224 141.636 42.3729C141.645 42.3234 141.654 42.2604 141.658 42.1883C141.672 41.8823 141.681 41.5807 141.69 41.2746C141.694 40.973 141.694 40.667 141.694 40.3609V39.7442C141.694 39.6137 141.694 39.4742 141.69 39.3301C141.685 39.1906 141.676 39.0601 141.667 38.952C141.658 38.871 141.649 38.8035 141.645 38.7405C141.64 38.6775 141.622 38.628 141.6 38.5829C141.577 38.5424 141.542 38.5064 141.492 38.4794C141.443 38.4524 141.375 38.4344 141.281 38.4209V38.2814H144.252C144.23 38.4164 144.216 38.5514 144.216 38.6775L144.221 38.655Z" fill="#545454"/>
<path d="M155.75 38.2678C155.737 38.3623 155.723 38.4523 155.714 38.5379C155.705 38.6279 155.696 38.7134 155.692 38.7989C155.687 38.8889 155.678 38.9835 155.669 39.0825H155.535C155.539 38.916 155.494 38.8079 155.391 38.7494C155.292 38.6909 155.144 38.6639 154.947 38.6639H154.238V41.5086C154.238 41.7247 154.238 41.9002 154.251 42.0397C154.256 42.1748 154.278 42.2828 154.305 42.3638C154.336 42.4448 154.381 42.4988 154.44 42.5304C154.498 42.5619 154.583 42.5844 154.691 42.5934V42.7509H153.017V42.5889C153.12 42.5844 153.201 42.5664 153.255 42.5304C153.309 42.4943 153.354 42.4403 153.381 42.3728C153.407 42.3008 153.421 42.2063 153.43 42.0892C153.434 41.9722 153.443 41.8237 153.443 41.6436C153.448 41.144 153.448 40.6489 153.443 40.1583C153.443 39.6676 153.443 39.168 153.443 38.6684C153.381 38.6684 153.309 38.6684 153.232 38.6684C153.161 38.6684 153.089 38.6684 153.022 38.6684H152.788C152.68 38.6684 152.582 38.6729 152.492 38.6864C152.402 38.6999 152.317 38.7224 152.241 38.7584C152.164 38.7989 152.088 38.8484 152.025 38.916C151.962 38.9835 151.904 39.078 151.85 39.195L151.725 39.141C151.787 38.952 151.841 38.7629 151.868 38.5694C151.9 38.3758 151.927 38.1823 151.949 37.9842H152.097C152.097 38.0562 152.12 38.1057 152.155 38.1463C152.196 38.1868 152.25 38.2093 152.317 38.2318C152.384 38.2543 152.465 38.2633 152.555 38.2678C152.645 38.2723 152.748 38.2723 152.855 38.2723H153.811C154.13 38.2723 154.449 38.2723 154.767 38.2678H155.059C155.149 38.2678 155.225 38.2588 155.292 38.2363C155.364 38.2183 155.427 38.1823 155.485 38.1328C155.544 38.0832 155.602 38.0067 155.66 37.9032L155.786 37.9437C155.763 38.0562 155.745 38.1598 155.732 38.2543H155.737L155.75 38.2678Z" fill="#545454"/>
<path d="M165.11 42.742C164.962 42.742 164.814 42.742 164.666 42.742C164.518 42.742 164.374 42.742 164.235 42.742C164.091 42.742 163.966 42.7465 163.844 42.7555V42.5979C163.948 42.5889 164.028 42.5709 164.087 42.5439C164.145 42.5169 164.185 42.4809 164.212 42.4314C164.235 42.3864 164.248 42.3144 164.253 42.2334C164.253 42.1523 164.257 42.0488 164.257 41.9183V40.649H161.946V41.3601C161.946 41.4817 161.946 41.6707 161.951 41.9183V42.1973C161.951 42.2784 161.964 42.3459 161.987 42.4044C162.009 42.4629 162.049 42.5034 162.108 42.5349C162.162 42.5664 162.251 42.5889 162.368 42.5979V42.7465C162.072 42.7375 161.789 42.733 161.529 42.733C161.269 42.733 160.99 42.7375 160.703 42.7465V42.5979C160.806 42.5934 160.887 42.5754 160.95 42.5394C161.008 42.5034 161.053 42.4584 161.08 42.3999C161.107 42.3459 161.125 42.2784 161.129 42.2064C161.134 42.1343 161.134 42.0578 161.129 41.9723V41.1936C161.129 41.0631 161.129 40.9415 161.129 40.829C161.129 40.7165 161.129 40.6265 161.129 40.5544V40.2034C161.129 40.0728 161.129 39.9333 161.129 39.7937C161.129 39.6542 161.129 39.5192 161.129 39.3841V39.0331C161.129 38.9205 161.129 38.826 161.116 38.7495C161.111 38.673 161.094 38.61 161.067 38.5559C161.04 38.5064 160.999 38.4659 160.941 38.4434C160.883 38.4209 160.806 38.3984 160.708 38.3894V38.2499C160.968 38.2589 161.246 38.2679 161.529 38.2724C161.816 38.2769 162.09 38.2724 162.364 38.2499V38.3894C162.256 38.3984 162.171 38.4209 162.112 38.4524C162.054 38.4839 162.013 38.5289 161.987 38.5829C161.96 38.637 161.946 38.7045 161.946 38.7855C161.946 38.8665 161.946 38.952 161.946 39.0511V39.3211C161.946 39.4292 161.946 39.5372 161.946 39.6497C161.946 39.7622 161.946 39.8703 161.946 39.9783V40.2484H164.266V39.7127C164.266 39.5912 164.266 39.4697 164.266 39.3436C164.266 39.2221 164.266 39.1186 164.266 39.0331C164.266 38.9475 164.266 38.8665 164.266 38.7945C164.266 38.718 164.253 38.655 164.226 38.5919C164.203 38.5334 164.163 38.4839 164.105 38.4479C164.051 38.4119 163.961 38.3894 163.853 38.3849V38.2454C164.132 38.2589 164.405 38.2679 164.679 38.2679C164.953 38.2679 165.236 38.2634 165.532 38.2454V38.3849C165.429 38.3849 165.348 38.3984 165.294 38.4254C165.24 38.4524 165.195 38.4884 165.168 38.5379C165.137 38.5874 165.119 38.6505 165.114 38.7315C165.11 38.808 165.101 38.898 165.101 39.0015C165.101 39.0556 165.101 39.1501 165.101 39.2851C165.101 39.4202 165.101 39.5642 165.101 39.7172C165.101 39.8703 165.101 40.0143 165.101 40.1538C165.101 40.2934 165.101 40.3879 165.101 40.4329V40.8875C165.101 41 165.101 41.0991 165.101 41.1891C165.101 41.2791 165.105 41.3781 165.114 41.4817C165.119 41.5852 165.123 41.7247 165.128 41.8958C165.132 42.0218 165.137 42.1298 165.141 42.2154C165.146 42.3009 165.159 42.3684 165.182 42.4179C165.204 42.4719 165.249 42.5079 165.303 42.5349C165.357 42.5619 165.438 42.5799 165.541 42.5889V42.7375C165.415 42.733 165.276 42.7285 165.128 42.724V42.733L165.11 42.742Z" fill="#545454"/>
<path d="M173.659 42.1433C173.655 42.2693 173.632 42.3818 173.601 42.4809C173.57 42.5799 173.511 42.6564 173.43 42.7104C173.35 42.7644 173.22 42.7959 173.04 42.7959C172.623 42.7959 172.219 42.7914 171.819 42.7779C171.42 42.7644 170.998 42.7599 170.549 42.7599V42.6114C170.706 42.5934 170.814 42.5574 170.868 42.4989C170.922 42.4449 170.949 42.3323 170.958 42.1748C170.98 41.8822 170.994 41.5941 170.994 41.3061V40.2033C170.994 40.0953 170.994 39.9782 170.994 39.8432C170.994 39.7127 170.989 39.5731 170.989 39.4291C170.989 39.2851 170.985 39.15 170.976 39.033C170.971 38.943 170.967 38.862 170.962 38.7899C170.958 38.7179 170.94 38.6549 170.913 38.5964C170.886 38.5424 170.85 38.4974 170.792 38.4659C170.738 38.4343 170.657 38.4118 170.545 38.4028V38.2633H173.543C173.52 38.3938 173.507 38.5244 173.502 38.6504C173.502 38.7764 173.502 38.907 173.502 39.0375H173.377C173.363 38.853 173.314 38.7359 173.229 38.6864C173.139 38.6369 173.013 38.6144 172.843 38.6144H171.81C171.815 38.7719 171.81 38.9925 171.797 39.2761C171.783 39.5551 171.783 39.8702 171.783 40.2168H172.51C172.605 40.2168 172.694 40.2168 172.78 40.2168C172.869 40.2168 172.946 40.2033 173.018 40.1763C173.089 40.1538 173.148 40.1133 173.202 40.0548C173.255 40.0007 173.291 39.9152 173.314 39.8072L173.448 39.8297C173.417 40.0232 173.395 40.2168 173.377 40.4238C173.363 40.6264 173.363 40.8199 173.377 41.009H173.242C173.233 40.9055 173.211 40.8244 173.184 40.7704C173.157 40.7164 173.112 40.6714 173.058 40.6444C173.004 40.6129 172.941 40.5994 172.865 40.5949C172.789 40.5904 172.708 40.5904 172.618 40.5904H171.783L171.797 41.8102C171.797 41.9677 171.806 42.0893 171.819 42.1748C171.837 42.2558 171.864 42.3143 171.914 42.3548C171.959 42.3953 172.03 42.4133 172.116 42.4178C172.205 42.4223 172.326 42.4223 172.484 42.4223C172.641 42.4223 172.78 42.4178 172.892 42.3998C173.004 42.3863 173.103 42.3548 173.184 42.3053C173.264 42.2558 173.336 42.1838 173.395 42.0893C173.453 41.9947 173.511 41.8732 173.57 41.7157L173.704 41.7517C173.673 41.8867 173.65 42.0217 173.646 42.1478H173.65L173.659 42.1433Z" fill="#545454"/>
<path d="M50.3446 58.3699C50.3087 58.721 50.2863 59.0765 50.2728 59.4411C49.5458 59.8057 48.8323 60.0668 48.1367 60.2288C47.4411 60.3909 46.7186 60.4719 45.9602 60.4719C44.9236 60.4719 43.9767 60.3054 43.1196 59.9768C42.267 59.6482 41.531 59.1801 40.9207 58.5679C40.3104 57.9603 39.8347 57.2356 39.5026 56.3894C39.166 55.5477 39 54.6069 39 53.5717C39 52.5364 39.1616 51.5417 39.4847 50.6774C39.8078 49.8132 40.27 49.0795 40.8713 48.4674C41.4771 47.8597 42.1996 47.3826 43.0478 47.0495C43.896 46.712 44.8383 46.5454 45.875 46.5454C46.3686 46.5454 46.7949 46.5769 47.1674 46.6309C47.5399 46.6849 47.8675 46.748 48.1592 46.811C48.4464 46.874 48.6932 46.928 48.8951 46.9775C49.0971 47.027 49.2676 47.0495 49.4112 47.0495C49.7208 47.0495 49.9452 46.9235 50.0843 46.6714L50.3356 46.712C50.2504 47.1891 50.201 47.7067 50.1875 48.2603C50.1741 48.814 50.1831 49.3451 50.21 49.8492H49.7881C49.7478 49.5387 49.6042 49.2461 49.3663 48.967C49.1285 48.6879 48.8143 48.4449 48.4284 48.2288C48.0425 48.0218 47.6027 47.8552 47.1046 47.7337C46.6065 47.6167 46.0859 47.5537 45.5384 47.5537C44.8204 47.5537 44.1787 47.6797 43.6132 47.9318C43.0433 48.1838 42.5631 48.5394 42.1593 49.003C41.7599 49.4666 41.4547 50.0293 41.2438 50.6954C41.0329 51.3616 40.9297 52.1133 40.9297 52.9595C40.9297 53.8867 41.0643 54.7375 41.338 55.5117C41.6118 56.2903 41.9932 56.9565 42.4824 57.5192C42.976 58.0773 43.5594 58.5184 44.237 58.8335C44.9191 59.1486 45.673 59.3061 46.4987 59.3061C46.934 59.3061 47.3604 59.2656 47.7732 59.1891C48.1861 59.1126 48.5585 58.991 48.8861 58.82C49.2182 58.6534 49.492 58.4374 49.7074 58.1763C49.9273 57.9153 50.0619 57.6002 50.1157 57.2176C50.1875 57.2311 50.2504 57.2491 50.3042 57.2581C50.3446 57.2716 50.3895 57.2806 50.4299 57.2896C50.4703 57.2941 50.4927 57.2896 50.4927 57.2761C50.4209 57.6407 50.367 57.9963 50.3356 58.3474H50.3491L50.3446 58.3699Z" fill="#545454"/>
<path d="M64.3948 47.243C64.2467 47.2835 64.139 47.3781 64.0672 47.5266C63.9954 47.6751 63.946 47.8912 63.9191 48.1703C63.8877 48.4493 63.8787 48.8319 63.8787 49.3091C63.8652 49.8672 63.8518 50.4163 63.8383 50.952C63.8248 51.3976 63.8159 51.8792 63.8159 52.3788V53.6616C63.8159 54.5709 63.7396 55.4441 63.5825 56.2678C63.4299 57.096 63.1427 57.8252 62.7299 58.4553C62.317 59.0855 61.7561 59.5941 61.056 59.9677C60.3559 60.3458 59.4539 60.5349 58.3634 60.5349C57.273 60.5349 56.4383 60.3593 55.7337 60.0082C55.0337 59.6571 54.4727 59.18 54.0509 58.5814C53.629 57.9782 53.3284 57.276 53.1444 56.4793C52.9604 55.6826 52.8706 54.8229 52.8706 53.9137C52.8706 53.7157 52.8706 53.3736 52.8572 52.8829C52.8527 52.3923 52.8437 51.9017 52.8437 51.4111V49.5161C52.8437 48.967 52.8303 48.5439 52.8123 48.2423C52.7899 47.9407 52.7405 47.7112 52.6642 47.5491C52.5879 47.3871 52.4712 47.2835 52.3187 47.234C52.1661 47.1845 51.9462 47.144 51.668 47.117V46.7794C51.8116 46.7794 51.9372 46.7794 52.0584 46.7929C52.1751 46.7974 52.3052 46.8064 52.4488 46.8154C52.5924 46.8244 52.754 46.8289 52.9424 46.8289H54.4458C54.6971 46.8289 54.9304 46.8244 55.1414 46.8064C55.3927 46.8064 55.635 46.8019 55.8594 46.7839V47.1395C55.5811 47.171 55.3657 47.207 55.2176 47.2565C55.0696 47.3061 54.9619 47.4141 54.8901 47.5851C54.8183 47.7517 54.7779 47.9902 54.7644 48.3008C54.7509 48.6114 54.742 49.039 54.742 49.5836L54.7644 54.6114C54.7644 55.201 54.8362 55.7817 54.9843 56.3578C55.1324 56.934 55.3568 57.4516 55.6664 57.9152C55.976 58.3788 56.371 58.7479 56.8556 59.027C57.3403 59.3061 57.9192 59.4501 58.5923 59.4501C59.5571 59.4501 60.3155 59.2475 60.863 58.8424C61.4105 58.4373 61.8099 57.9152 62.0747 57.285C62.3349 56.6549 62.4965 55.9572 62.5593 55.192C62.6222 54.4268 62.6536 53.6886 62.6536 52.973C62.6536 52.4148 62.6536 51.8072 62.6401 51.1635C62.6356 50.5199 62.6177 49.9797 62.5863 49.5431C62.5548 48.994 62.5279 48.5664 62.492 48.2513C62.4561 47.9362 62.3978 47.7021 62.3125 47.5491C62.2273 47.3961 62.1061 47.2925 61.9445 47.2475C61.783 47.198 61.5631 47.1665 61.2804 47.153V46.7974C61.5586 46.8109 61.8772 46.8199 62.2272 46.8199H64.2915C64.5159 46.8199 64.7493 46.8154 64.9871 46.7974V47.153C64.7358 47.1845 64.5384 47.216 64.3903 47.261V47.252L64.3948 47.243Z" fill="#545454"/>
<path d="M80.6861 60.1793C80.52 60.1658 80.336 60.1568 80.1386 60.1478C79.9411 60.1433 79.7527 60.1342 79.5687 60.1342C79.3308 60.1342 79.084 60.1342 78.8237 60.1478C78.5635 60.1523 78.3211 60.1658 78.0967 60.1793C77.8454 60.1928 77.5941 60.2018 77.3383 60.2018V59.8642C77.5627 59.8237 77.7377 59.7742 77.8679 59.7291C77.9935 59.6796 78.0878 59.5716 78.1506 59.4006C78.2134 59.234 78.2403 58.9775 78.2359 58.6444C78.2314 58.3068 78.1955 57.8297 78.1416 57.213L77.5941 51.0285L72.9674 60.2423H72.8597L68.1029 51.114L67.4298 58.4553C67.4163 58.5409 67.4073 58.6219 67.4073 58.6984V58.9415C67.4073 59.2205 67.4791 59.4276 67.6182 59.5626C67.7618 59.6931 68.0042 59.7967 68.3542 59.8687V60.2063C68.1567 60.2063 67.9548 60.2018 67.7439 60.1838C67.5599 60.1838 67.3714 60.1838 67.165 60.1703C66.9631 60.1658 66.7701 60.1568 66.5861 60.1568C66.4021 60.1568 66.2136 60.1568 66.0162 60.1703C65.8187 60.1748 65.6302 60.1838 65.4462 60.1838C65.2353 60.1973 65.0334 60.2063 64.8359 60.2063V59.8687C65.1994 59.8147 65.4507 59.7021 65.5809 59.5401C65.7155 59.3781 65.8187 59.135 65.886 58.8154C65.9399 58.5048 65.9937 58.1988 66.0341 57.8882L66.1957 56.7314C66.2585 56.2678 66.3258 55.6961 66.4066 55.0075C66.4829 54.3233 66.5861 53.4591 66.7117 52.4193L67.1336 48.8004L67.3894 46.6354H67.8516L69.4088 49.8132L71.4058 53.7877L72.9181 56.6504L73.1918 57.1995L73.4431 56.6504L74.8747 53.8732C75.1933 53.243 75.5164 52.6084 75.8305 51.9692C76.1446 51.33 76.4633 50.6819 76.7864 50.0247C76.9838 49.6331 77.1768 49.2325 77.3742 48.8274C77.5717 48.4223 77.7467 48.0577 77.8993 47.7336C78.0833 47.3556 78.2628 46.991 78.4468 46.6399H78.909L79.0975 48.5123L79.6225 53.4771C79.7482 54.6699 79.8604 55.6376 79.9501 56.3803C80.0399 57.123 80.1027 57.6541 80.1296 57.9782C80.17 58.3833 80.2194 58.7074 80.2642 58.946C80.3136 59.1845 80.3809 59.3691 80.4662 59.4951C80.5515 59.6211 80.6547 59.7111 80.7803 59.7562C80.906 59.8057 81.0675 59.8462 81.265 59.8732V60.2108C81.0675 60.2108 80.8746 60.2063 80.6771 60.1883H80.6681L80.6861 60.1793Z" fill="#545454"/>
<path d="M91.5327 59.3285C90.7698 59.9812 89.6569 60.3053 88.1984 60.3053C88.1266 60.3053 87.9785 60.3053 87.7586 60.2918C87.5342 60.2873 87.3009 60.2738 87.063 60.2603C86.7848 60.2467 86.4662 60.2287 86.1161 60.2197C85.8918 60.2062 85.5776 60.1972 85.1693 60.1882C84.7609 60.1837 84.3256 60.1747 83.8634 60.1747C83.7916 60.1747 83.7018 60.1747 83.5896 60.1882C83.4775 60.1927 83.3653 60.2017 83.2531 60.2017H82.8716V59.8867C83.2755 59.8326 83.5627 59.7201 83.7243 59.5581C83.8858 59.396 83.9801 59.126 84.007 58.7479C84.0384 58.4103 84.0564 57.9827 84.0698 57.4651C84.0833 56.9474 84.0923 56.4118 84.0923 55.8582V52.9639C84.0923 52.7659 84.0923 52.4553 84.0788 52.0277C84.0743 51.6001 84.0653 51.1635 84.0653 50.7134V49.0705C84.0653 48.6338 84.0519 48.2918 84.0249 48.0397C83.9935 47.7876 83.9352 47.5941 83.8454 47.4636C83.7557 47.333 83.6255 47.243 83.464 47.2025C83.3024 47.162 83.0915 47.126 82.8223 47.0945V46.7569L84.9449 46.7794L87.1079 46.7389C88.4407 46.7074 89.4549 46.9549 90.1595 47.4771C90.8595 47.9947 91.2096 48.7374 91.2096 49.7051C91.2096 50.9249 90.6037 51.9917 89.4011 52.9009C90.4691 53.2385 91.2769 53.7246 91.8333 54.3638C92.3853 55.0029 92.6635 55.7636 92.6635 56.6459C92.6635 57.7846 92.2821 58.6759 91.5192 59.3285H91.5327ZM88.683 48.2963C88.1625 47.8056 87.4355 47.5581 86.4931 47.5581H86.2104C86.1341 47.5581 86.0264 47.5716 85.8828 47.5986V52.6894C86.2328 52.6579 86.5873 52.6489 86.9464 52.6579C87.3009 52.6624 87.7496 52.6894 88.2792 52.7299C89.0645 52.2933 89.4594 51.5056 89.4594 50.3533C89.4594 49.4711 89.1991 48.7824 88.683 48.2918V48.2963ZM90.3435 55.3315C90.1056 54.8904 89.7735 54.5213 89.3517 54.2287C88.9299 53.9362 88.4273 53.7201 87.8394 53.5851C87.2515 53.4546 86.6008 53.4275 85.8828 53.5131L85.9052 57.6991C85.9052 58.1042 85.9232 58.4013 85.9591 58.5903C85.995 58.7794 86.0623 58.9279 86.161 59.045C86.2732 59.1845 86.4617 59.288 86.731 59.36C86.9957 59.432 87.3143 59.4681 87.6778 59.4681C88.6337 59.4681 89.3741 59.234 89.9082 58.7659C90.4422 58.2978 90.7069 57.6406 90.7069 56.7989C90.7069 56.2678 90.5903 55.7816 90.3524 55.336L90.3435 55.3315Z" fill="#545454"/>
<path d="M103.141 58.1583C103.092 58.4239 103.047 58.6894 103.007 58.955C102.966 59.2476 102.903 59.4861 102.827 59.6707C102.751 59.8552 102.621 59.9903 102.437 60.0803C102.253 60.1703 102.001 60.2288 101.678 60.2603C101.355 60.2918 100.938 60.2963 100.417 60.2828L98.1061 60.2198C97.7561 60.2063 97.4016 60.1973 97.0426 60.1883C96.6881 60.1838 96.3246 60.1748 95.9566 60.1748C95.8309 60.1748 95.6783 60.1748 95.5033 60.1883C95.3283 60.1928 95.1578 60.2018 94.9873 60.2018H94.377V59.8642C94.6956 59.8237 94.9334 59.7607 95.0815 59.6842C95.2296 59.6077 95.3373 59.4771 95.4091 59.2971C95.4495 59.1711 95.4899 59 95.5258 58.7795C95.5617 58.5634 95.5841 58.2258 95.5976 57.7712C95.611 57.3166 95.62 56.6999 95.629 55.9213C95.6335 55.1426 95.6424 54.1298 95.6424 52.883C95.6424 51.9017 95.6424 51.096 95.629 50.4659C95.6245 49.8357 95.611 49.3271 95.5976 48.9535C95.5841 48.5754 95.5572 48.2918 95.5258 48.1028C95.4899 47.9137 95.454 47.7652 95.4091 47.6527C95.27 47.3151 94.9334 47.1396 94.3994 47.1306V46.793H102.751C102.719 46.919 102.701 47.0945 102.688 47.3196L102.648 47.9903C102.634 48.2423 102.616 48.5169 102.607 48.8095H102.293C102.262 48.6249 102.235 48.4629 102.199 48.3279C102.163 48.1883 102.091 48.0758 101.988 47.9903C101.88 47.9047 101.723 47.8417 101.503 47.8012C101.283 47.7607 100.987 47.7382 100.61 47.7382H97.5183L97.4554 52.7029L100.296 52.6804C100.646 52.6804 100.929 52.6669 101.149 52.6399C101.369 52.6084 101.539 52.5589 101.665 52.4824C101.79 52.4059 101.889 52.2933 101.961 52.1448C102.033 51.9963 102.096 51.8072 102.149 51.5687L102.464 51.6092C102.432 51.8072 102.414 52.0503 102.401 52.3474C102.387 52.6399 102.369 52.9415 102.36 53.2521C102.347 53.5627 102.329 53.8597 102.32 54.1433C102.307 54.4314 102.298 54.6654 102.298 54.8455H101.961C101.948 54.5934 101.921 54.3909 101.889 54.2378C101.853 54.0848 101.781 53.9633 101.669 53.8822C101.557 53.7967 101.391 53.7427 101.176 53.7157C100.956 53.6842 100.673 53.6752 100.323 53.6752H97.4644V57.4606C97.4644 57.8972 97.4779 58.2393 97.5048 58.4914C97.5362 58.7435 97.608 58.9325 97.7247 59.0585C97.8414 59.1846 98.0209 59.2611 98.2542 59.2926C98.4876 59.3196 98.8062 59.3286 99.2101 59.3151L100.516 59.2746C100.853 59.2611 101.144 59.2251 101.387 59.1666C101.629 59.1125 101.849 59.0135 102.037 58.874C102.226 58.7345 102.392 58.5454 102.531 58.3158C102.67 58.0863 102.809 57.7847 102.953 57.4246L103.267 57.5101C103.235 57.6947 103.2 57.9152 103.15 58.1808L103.137 58.1673L103.141 58.1583Z" fill="#545454"/>
<path d="M115.891 60.958H115.586C114.621 60.958 113.773 60.6699 113.05 60.0938C112.328 59.5176 111.632 58.6399 110.959 57.4651C110.815 57.2265 110.69 56.9565 110.568 56.6549C110.452 56.3533 110.308 56.0698 110.138 55.8132C109.967 55.5521 109.765 55.3361 109.527 55.1605C109.289 54.985 108.989 54.8995 108.621 54.8995H108.073L108.096 57.9062C108.096 58.3113 108.1 58.6309 108.118 58.865C108.132 59.099 108.177 59.2791 108.253 59.4141C108.329 59.5446 108.45 59.6436 108.607 59.7067C108.769 59.7697 109.002 59.8237 109.312 59.8642V60.2018C108.975 60.2018 108.666 60.1973 108.387 60.1793C108.15 60.1658 107.912 60.1568 107.683 60.1478C107.45 60.1433 107.292 60.1343 107.207 60.1343C107.135 60.1343 106.987 60.1343 106.763 60.1478C106.539 60.1523 106.301 60.1658 106.045 60.1793C105.749 60.1928 105.43 60.2018 105.08 60.2018V59.8642C105.358 59.8237 105.578 59.7742 105.731 59.7157C105.883 59.6616 105.996 59.5671 106.067 59.4411C106.139 59.3151 106.18 59.1395 106.193 58.9145C106.206 58.6894 106.215 58.3968 106.215 58.0322V57.096C106.215 56.6954 106.215 56.2633 106.229 55.7907C106.233 55.3226 106.242 54.8319 106.242 54.3188V52.8785C106.242 52.2168 106.242 51.6451 106.229 51.1635C106.224 50.6819 106.215 50.2543 106.215 49.8897C106.215 49.2596 106.215 48.7689 106.202 48.4178C106.197 48.0668 106.157 47.8012 106.085 47.6211C106.013 47.4411 105.906 47.3196 105.758 47.252C105.61 47.189 105.394 47.135 105.116 47.0945V46.7569C105.426 46.7704 105.713 46.7794 105.978 46.7794C106.215 46.7794 106.453 46.7794 106.682 46.7929C106.915 46.7974 107.091 46.7929 107.216 46.7794C107.526 46.7794 107.826 46.7749 108.123 46.7569C108.374 46.7434 108.634 46.7344 108.89 46.7254C109.15 46.7209 109.375 46.7119 109.572 46.7119C110.259 46.7119 110.878 46.8019 111.421 46.9865C111.969 47.171 112.435 47.4276 112.83 47.7652C113.221 48.1028 113.526 48.5034 113.737 48.976C113.948 49.4441 114.051 49.9752 114.051 50.5649C114.051 51.1545 113.948 51.7127 113.746 52.1538C113.544 52.5949 113.27 52.982 112.929 53.3106C112.583 53.6391 112.188 53.9137 111.731 54.1298C111.273 54.3458 110.788 54.5259 110.268 54.6654C110.649 54.6924 110.981 54.7959 111.268 54.9805C111.556 55.165 111.811 55.3856 112.036 55.6511C112.26 55.9167 112.467 56.2048 112.655 56.5154C112.844 56.8259 113.023 57.123 113.194 57.4201C113.391 57.7397 113.584 58.0818 113.781 58.4283C113.979 58.7794 114.19 59.108 114.423 59.4051C114.657 59.7067 114.921 59.9722 115.222 60.1928C115.523 60.4178 115.877 60.5574 116.286 60.6159V60.9085C116.102 60.94 115.967 60.949 115.877 60.949L115.891 60.958ZM111.874 49.5971C111.713 49.1605 111.484 48.7914 111.192 48.4854C110.896 48.1748 110.546 47.9362 110.129 47.7697C109.716 47.6031 109.258 47.5176 108.751 47.5176C108.639 47.5176 108.54 47.5221 108.455 47.5401C108.369 47.5536 108.257 47.5761 108.118 47.6031L108.078 50.7359L108.055 54.1208C108.181 54.1523 108.284 54.1658 108.36 54.1748C108.437 54.1793 108.531 54.1883 108.643 54.1883C109.693 54.1883 110.537 53.9047 111.17 53.3376C111.798 52.7704 112.117 52.0052 112.117 51.033C112.117 50.5154 112.036 50.0382 111.874 49.6061V49.5971Z" fill="#545454"/>
<path d="M125.53 57.8567C125.516 57.9738 125.489 58.1898 125.444 58.5004C125.373 58.946 125.319 59.2611 125.287 59.4366C125.252 59.6122 125.198 59.7652 125.13 59.8913C125.032 60.0443 124.888 60.1523 124.686 60.2198C124.489 60.2829 124.188 60.3144 123.784 60.3144H123.205C122.945 60.3144 122.667 60.3144 122.362 60.3009L121.455 60.2784C121.154 60.2739 120.899 60.2603 120.688 60.2468C120.154 60.2153 119.705 60.2018 119.341 60.1928C118.978 60.1883 118.619 60.1793 118.269 60.1793C118.184 60.1793 118.071 60.1793 117.932 60.1928C117.789 60.1973 117.654 60.2063 117.51 60.2063H117.008V59.8688C117.286 59.8282 117.51 59.7607 117.672 59.6662C117.834 59.5762 117.955 59.4456 118.04 59.2791C118.125 59.1126 118.184 58.8965 118.206 58.6354C118.237 58.3744 118.246 58.0593 118.246 57.6767L118.287 53.4682V52.0683C118.287 51.5687 118.287 51.0916 118.273 50.6279C118.269 50.1643 118.26 49.7457 118.251 49.3676C118.246 48.9895 118.237 48.7015 118.237 48.5034C118.237 48.2513 118.233 48.0398 118.215 47.8733C118.202 47.7067 118.161 47.5717 118.089 47.4727C118.018 47.3736 117.905 47.3016 117.744 47.2521C117.582 47.2026 117.353 47.1576 117.062 47.1171V46.7615C117.326 46.775 117.591 46.784 117.838 46.784H120.531C120.795 46.784 121.069 46.7795 121.347 46.7615V47.0991C121.051 47.1396 120.831 47.1936 120.674 47.2566C120.522 47.3196 120.409 47.4006 120.338 47.4997C120.266 47.5987 120.225 47.7247 120.212 47.8778C120.198 48.0308 120.19 48.2288 120.19 48.4674C120.19 48.5934 120.19 48.7465 120.176 48.922C120.172 49.0976 120.163 49.3406 120.154 49.6467C120.149 49.9573 120.14 50.3534 120.14 50.844V55.0841C120.14 55.7097 120.14 56.2273 120.154 56.6414C120.158 57.0555 120.172 57.3931 120.185 57.6497C120.198 57.9108 120.216 58.1448 120.225 58.3519C120.239 58.5589 120.275 58.73 120.333 58.856C120.387 58.982 120.486 59.0811 120.629 59.1486C120.773 59.2206 120.952 59.2656 121.177 59.2971C121.401 59.3286 121.697 59.3376 122.061 59.3376C122.563 59.3376 122.999 59.3016 123.353 59.2296C123.708 59.1576 124.017 59.045 124.269 58.883C124.52 58.721 124.726 58.5139 124.879 58.2528C125.032 57.9918 125.166 57.6677 125.278 57.2761L125.593 57.3391C125.552 57.5642 125.521 57.7352 125.507 57.8567H125.512H125.53Z" fill="#545454"/>
<path d="M153.926 47.2116C153.774 47.2611 153.657 47.3421 153.59 47.4636C153.518 47.5807 153.473 47.7472 153.455 47.9587C153.433 48.1658 153.424 48.4494 153.424 48.8005C153.41 49.4441 153.401 50.0923 153.401 50.7359V60.4089H152.957L143.43 50.4614L143.156 50.1688V50.3578C143.156 50.4119 143.156 50.4749 143.17 50.5469C143.179 50.6189 143.183 50.6774 143.183 50.7359C143.197 51.4381 143.206 52.1808 143.215 52.973C143.219 53.7652 143.228 54.5079 143.237 55.2011C143.241 55.8942 143.25 56.4884 143.25 56.979V57.8432C143.25 58.2798 143.264 58.6219 143.282 58.874C143.304 59.126 143.354 59.3196 143.43 59.4636C143.506 59.6032 143.623 59.6977 143.775 59.7472C143.928 59.7967 144.148 59.8372 144.426 59.8642V60.2018C144.229 60.2018 144.027 60.1973 143.816 60.1793C143.632 60.1658 143.43 60.1568 143.206 60.1478C142.981 60.1433 142.77 60.1343 142.577 60.1343C142.452 60.1343 142.299 60.1343 142.124 60.1478C141.949 60.1523 141.77 60.1613 141.586 60.1703C141.402 60.1748 141.231 60.1838 141.069 60.1928C140.908 60.1973 140.764 60.2063 140.639 60.2063V59.8507C140.935 59.8237 141.155 59.7787 141.312 59.7247C141.464 59.6707 141.581 59.5761 141.657 59.4411C141.734 59.3106 141.779 59.1125 141.792 58.865C141.805 58.6129 141.814 58.2708 141.814 57.8342V52.2618L141.752 46.5409H142.214C142.788 47.1846 143.376 47.8462 143.982 48.5169C144.485 49.093 145.045 49.7142 145.656 50.3894C146.266 51.06 146.854 51.6947 147.41 52.2843C148.335 53.2791 149.165 54.1343 149.901 54.85C150.637 55.5656 151.243 56.1913 151.723 56.7224L152.078 57.123L152.055 56.3668C152.024 55.7637 152.015 55.2011 152.015 54.6834V53.2296C152.015 52.865 152.015 52.4509 152.001 51.9873C151.997 51.5236 151.983 51.087 151.97 50.6819C151.956 50.2048 151.947 49.7142 151.947 49.2101C151.947 48.7644 151.934 48.4044 151.907 48.1388C151.876 47.8732 151.826 47.6707 151.75 47.5311C151.674 47.3916 151.552 47.2971 151.395 47.2476C151.234 47.1981 151.023 47.153 150.754 47.1125V46.7975C150.897 46.7975 151.05 46.7975 151.229 46.811C151.404 46.8155 151.584 46.8245 151.768 46.8335C151.952 46.838 152.122 46.847 152.284 46.847H153.155C153.365 46.847 153.576 46.8425 153.783 46.8245C154.034 46.8245 154.299 46.82 154.582 46.802V47.117C154.303 47.1485 154.083 47.1846 153.931 47.2341H153.922L153.926 47.2116Z" fill="#545454"/>
<path d="M168.781 56.2993C168.484 57.1456 168.018 57.8702 167.371 58.4644C166.725 59.0585 165.895 59.5176 164.881 59.8417C163.862 60.1613 162.633 60.3098 161.188 60.2828L158.517 60.2198L155.699 60.1973V59.8597C156.193 59.8462 156.52 59.7427 156.691 59.5447C156.857 59.3466 156.956 58.9775 156.987 58.4329L157.028 57.4651C157.041 57.1861 157.054 56.6954 157.068 55.9933C157.081 55.2911 157.081 54.3729 157.068 53.2386L157.028 48.6114C157.028 48.0533 156.938 47.6662 156.754 47.4546C156.57 47.2476 156.233 47.126 155.744 47.099V46.7615C155.87 46.7615 155.982 46.7615 156.081 46.775L156.377 46.7975C156.476 46.802 156.588 46.811 156.713 46.811H157.176C157.485 46.811 157.84 46.811 158.248 46.7975C158.657 46.793 159.06 46.7795 159.469 46.766C159.877 46.7525 160.272 46.7435 160.658 46.7345C161.044 46.73 161.372 46.7209 161.636 46.7209C164.078 46.7209 165.953 47.3151 167.264 48.4989C168.574 49.6827 169.234 51.3571 169.234 53.5176C169.234 54.5259 169.086 55.4576 168.794 56.3038L168.781 56.2993ZM166.752 51.2311C166.465 50.4659 166.034 49.8177 165.46 49.2866C164.885 48.7555 164.167 48.3459 163.315 48.0533C162.462 47.7652 161.466 47.6212 160.326 47.6212C159.989 47.6212 159.743 47.6347 159.59 47.6527C159.437 47.6752 159.24 47.6977 159.002 47.7247L158.939 49.7412C158.926 49.9933 158.917 50.2993 158.917 50.6684V54.5799C158.917 55.6467 158.921 56.7585 158.939 57.9242C158.939 58.2168 158.975 58.4644 159.047 58.6624C159.119 58.8605 159.249 59.0135 159.437 59.126C159.626 59.2386 159.877 59.3151 160.196 59.3601C160.51 59.4006 160.918 59.4231 161.425 59.4231C162.309 59.4231 163.108 59.2926 163.822 59.0225C164.54 58.757 165.146 58.3789 165.644 57.8972C166.142 57.4156 166.523 56.826 166.788 56.1283C167.053 55.4351 167.187 54.6519 167.187 53.7832C167.187 52.8425 167.044 51.9918 166.757 51.2311H166.752Z" fill="#545454"/>
<path d="M177.919 58.1583C177.699 58.6219 177.398 59.018 177.003 59.3466C176.613 59.6752 176.137 59.9317 175.581 60.1163C175.029 60.3008 174.405 60.3909 173.718 60.3909C173.202 60.3909 172.771 60.3729 172.426 60.3368C172.08 60.3008 171.802 60.2288 171.596 60.1298C171.385 60.0218 171.228 59.8777 171.12 59.6977C171.012 59.5176 170.949 59.2701 170.918 58.9595C170.905 58.8875 170.887 58.7569 170.878 58.5589C170.864 58.3609 170.842 58.1673 170.815 57.9693C170.783 57.7307 170.765 57.4876 170.752 57.2311L171.133 57.1681C171.174 57.3346 171.205 57.4741 171.228 57.5777C171.25 57.6857 171.273 57.7757 171.299 57.8522C171.331 57.9287 171.353 58.0008 171.385 58.0728C171.416 58.1448 171.457 58.2258 171.51 58.3248C171.708 58.6759 172.008 58.946 172.417 59.135C172.825 59.3241 173.314 59.4186 173.889 59.4186C174.674 59.4186 175.316 59.2116 175.823 58.7885C176.326 58.3654 176.581 57.8297 176.581 57.1681C176.581 56.7314 176.433 56.3353 176.137 55.9708C175.841 55.6062 175.329 55.1786 174.602 54.6879C174.154 54.3954 173.772 54.1478 173.467 53.9407C173.162 53.7337 172.915 53.5717 172.731 53.4456C172.116 53.0225 171.663 52.5544 171.371 52.0368C171.084 51.5191 170.94 50.907 170.94 50.2093C170.94 49.102 171.277 48.2243 171.95 47.5807C172.623 46.937 173.525 46.6129 174.665 46.6129C175.199 46.6129 175.67 46.6489 176.083 46.7209C176.496 46.793 176.788 46.829 176.954 46.829C177.29 46.829 177.578 46.757 177.815 46.6219L177.878 46.6624C177.806 46.982 177.762 47.3331 177.73 47.7022C177.699 48.0713 177.69 48.4584 177.69 48.85C177.69 48.9895 177.69 49.1065 177.703 49.1966C177.708 49.2866 177.721 49.4126 177.735 49.5657H177.313C177.281 48.9355 177.053 48.4449 176.608 48.0938C176.168 47.7427 175.567 47.5672 174.813 47.5672C174.095 47.5672 173.534 47.7292 173.121 48.0488C172.709 48.3684 172.498 48.8275 172.498 49.4171C172.498 49.9663 172.659 50.4524 172.982 50.88C173.305 51.3076 173.817 51.7622 174.517 52.2393L176.559 53.6257C177.093 53.9903 177.506 54.4314 177.797 54.94C178.094 55.4531 178.242 56.0158 178.242 56.6324C178.242 57.1906 178.134 57.7037 177.914 58.1673L177.919 58.1583Z" fill="#545454"/>
<path d="M139.038 59.8372C138.899 59.7651 138.783 59.6751 138.688 59.5671C138.594 59.4591 138.513 59.3375 138.446 59.198C138.379 59.0585 138.307 58.8874 138.226 58.6894L133.501 46.7479L132.832 46.7344L128.255 57.1815C128.08 57.5956 127.923 57.9512 127.788 58.2483C127.653 58.5453 127.519 58.7929 127.371 58.9909C127.227 59.1935 127.066 59.3465 126.886 59.4636C126.711 59.5806 126.487 59.6526 126.222 59.6886L126.213 60.0262L126.76 60.0397C126.913 60.0397 127.079 60.0397 127.263 60.0397H127.766C127.95 60.0397 128.138 60.0532 128.34 60.0622C128.542 60.0757 128.739 60.0847 128.937 60.0847L129.583 60.0982L129.592 59.7606C129.314 59.7156 129.125 59.6391 129.022 59.5356C128.919 59.4365 128.874 59.279 128.874 59.072C128.879 58.8199 128.964 58.5138 129.125 58.1537L129.359 57.6271C130.306 55.7051 131.576 55.246 132.437 54.9309C133.11 54.6879 133.9 54.6564 133.909 54.6564C133.994 54.6564 134.066 54.5843 134.071 54.4988C134.075 54.4133 134.017 54.3368 133.927 54.3233C133.496 54.2513 133.088 54.2107 132.706 54.2017C131.89 54.1837 131.234 54.3098 130.709 54.5213L132.464 50.3848C132.522 50.2633 132.572 50.1417 132.608 50.0202C132.644 49.8987 132.693 49.7546 132.756 49.5746C132.81 49.7591 132.85 49.9077 132.881 50.0292C132.913 50.1507 132.953 50.2723 133.007 50.3983L134.623 54.7104L135.022 55.6826L136.09 58.4733C136.144 58.5858 136.184 58.7029 136.22 58.8199C136.252 58.9414 136.265 59.072 136.265 59.207C136.252 59.6526 135.951 59.8912 135.35 59.9182V60.2332C135.682 60.2423 135.987 60.2423 136.265 60.2332C136.498 60.2378 136.736 60.2423 136.965 60.2378H137.459C137.531 60.2378 137.679 60.2468 137.908 60.2603C138.136 60.2738 138.379 60.2828 138.63 60.2873C138.908 60.3098 139.222 60.3233 139.568 60.3323V60.0172C139.348 59.9722 139.169 59.9092 139.034 59.8372H139.038Z" fill="#545454"/>
</g>
<defs>
<clipPath id="clip0_25424_44022">
<rect width="164.25" height="36" fill="white" transform="translate(14 29)"/>
</clipPath>
</defs>
</svg>
