<svg width="192" height="108" viewBox="0 0 192 108" fill="none" xmlns="http://www.w3.org/2000/svg">
<g clip-path="url(#clip0_25424_44024)">
<path d="M71.5332 42.5308C71.5332 39.8263 69.7392 38.0298 67.0478 38.0298H64.9571V47.0617H67.0478C69.7392 47.0617 71.5332 45.2204 71.5332 42.5308ZM76.6666 42.5308C76.6666 47.8507 72.7716 51.6613 67.2838 51.6613H59.9277V33.4305H67.2838C72.7865 33.4305 76.6666 37.2035 76.6666 42.5308Z" fill="#545454"/>
<path d="M85.5857 39.1206L83.5938 44.7696H87.5949L85.5857 39.1206ZM88.817 48.7003H82.3747L81.3678 51.6613H76.002L83.1416 33.4305H88.0362L95.3322 51.6613H89.8182L88.817 48.7003Z" fill="#545454"/>
<path d="M108.903 47.0617V51.6613H97.3613V33.4305H102.435V47.0617H108.903Z" fill="#545454"/>
<path d="M122.235 47.0617V51.6613H110.693V33.4305H115.767V47.0617H122.235Z" fill="#545454"/>
<path d="M132.874 39.1206L130.883 44.7696H134.884L132.874 39.1206ZM136.106 48.7003H129.663L128.657 51.6613H123.291L130.43 33.4305H135.325L142.621 51.6613H137.107L136.106 48.7003Z" fill="#545454"/>
<path d="M142.109 45.7743H147.274C147.274 47.0766 148.276 47.7105 149.418 47.7105C150.467 47.7105 151.469 47.1511 151.469 46.1547C151.469 45.0113 150.053 44.6797 148.324 44.2588C145.697 43.6041 142.343 42.7968 142.343 38.6463C142.343 35.0562 144.972 32.9994 149.258 32.9994C153.616 32.9994 156.114 35.2433 156.114 38.9525H151.093C151.093 37.7995 150.236 37.2588 149.198 37.2588C148.306 37.2588 147.45 37.6461 147.45 38.4971C147.45 39.5328 148.819 39.875 150.531 40.3066C153.205 40.9989 156.704 41.8954 156.704 46.0584C156.704 50.0403 153.653 52.1069 149.433 52.1069C144.984 52.1069 142.109 49.7481 142.109 45.7743Z" fill="#545454"/>
<path d="M68.6436 74C63.1116 74 58.9805 69.8919 58.9805 64.4388C58.9805 58.9553 63.1116 54.8474 68.6436 54.8474C73.4066 54.8474 77.0962 58.001 77.8348 62.6235H72.7616C72.1378 60.754 70.5674 59.54 68.6547 59.54C66.0809 59.54 64.1933 61.6155 64.1933 64.4382C64.1933 67.2505 66.0809 69.2964 68.6547 69.2964C70.6712 69.2964 72.2565 67.9783 72.7657 65.9523H77.887C77.1959 70.7457 73.4847 73.9997 68.6436 73.9997V74Z" fill="#545454"/>
<path d="M89.5079 69.3268C92.2741 69.3268 94.2766 67.277 94.2766 64.4241C94.2766 61.5712 92.2741 59.5214 89.5079 59.5214C86.742 59.5214 84.7096 61.5862 84.7096 64.4239C84.7096 67.2618 86.742 69.3265 89.5079 69.3265V69.3268ZM89.5079 74C83.6654 74 79.4961 69.9957 79.4961 64.4239C79.4961 58.852 83.6654 54.8474 89.5079 54.8474C95.3357 54.8474 99.4903 58.8368 99.4903 64.4239C99.4903 70.0103 95.3357 73.9997 89.5079 73.9997V74Z" fill="#545454"/>
<path d="M112.909 68.9393V73.5388H101.367V55.3084H106.44V68.9393H112.909Z" fill="#545454"/>
<path d="M126.298 68.9393V73.5388H114.756V55.3084H119.83V68.9393H126.298Z" fill="#545454"/>
<path d="M139.994 69.1826V73.5388H128.145V55.3084H139.774V59.6497H133.129V62.3337H139.099V66.4535H133.129V69.1826H139.994Z" fill="#545454"/>
<path d="M160.306 63.7954C160.306 69.7612 156.423 73.9991 150.731 73.9991C145.162 73.9991 141.049 69.9846 141.049 64.4379C141.049 58.8913 145.088 54.8466 150.686 54.8466C155.45 54.8466 159.348 57.8373 160.116 62.0737H154.869C154.212 60.538 152.585 59.5505 150.731 59.5505C148.009 59.5505 146.174 61.5252 146.174 64.4382C146.174 67.3213 147.979 69.2961 150.731 69.2961C152.642 69.2961 154.281 68.3681 154.852 66.9625H150.338V63.7959L160.306 63.7954Z" fill="#545454"/>
<path d="M174.002 69.1826V73.5388H162.152V55.3084H173.782V59.6497H167.137V62.3337H173.107V66.4535H167.137V69.1826H174.002Z" fill="#545454"/>
<path d="M32.9351 63.418H28.3374V55.2793H17V73.5382H33.4562C44.891 73.5382 53.1822 66.0163 54.0276 55.2793H42.6706C41.9378 60.1856 38.2266 63.418 32.9351 63.418Z" fill="#545454"/>
<path d="M28.3319 43.5465H32.9301C38.2454 43.5465 41.9671 46.7302 42.6759 51.6853H54.0276C53.2129 40.9021 44.9391 33.4264 33.4509 33.4264H17V51.6853H28.3319V43.5465Z" fill="#545454"/>
<path d="M35.4495 47.7551L36.7214 51.6808H40.8366L37.5071 54.1074L38.779 58.0331L35.4495 55.6068L32.1201 58.0331L33.3916 54.1074L30.0625 51.6808H34.1777L35.4495 47.7551Z" fill="#545454"/>
</g>
<defs>
<clipPath id="clip0_25424_44024">
<rect width="157" height="41" fill="white" transform="translate(17 33)"/>
</clipPath>
</defs>
</svg>
