<svg width="192" height="108" viewBox="0 0 192 108" fill="none" xmlns="http://www.w3.org/2000/svg">
<g clip-path="url(#clip0_24293_8967)">
<path d="M96.1892 45.91C96.1892 44.85 96.5392 44.67 97.7292 44.46L98.5492 44.33V42.14C97.2592 42.27 96.6592 42.64 96.1192 43.1V42.22H93.6992V50.64H96.1792V45.91H96.1892Z" fill="#545454"/>
<path d="M75.06 64.26C74.17 63.3 74.22 62.29 74.22 62.29V39.27H65.51V57.67C65.4 59.41 63.7 59.85 62.76 59.82C61.41 59.78 60.62 59.02 60.62 57.72V39.27H52.14C52.14 39.27 48.6 39.27 46.16 39.27C41.52 39.27 37.14 39.98 35.66 43.85L34.78 40.43C34.57 39.75 33.83 39.27 33.11 39.27H17.95C17.73 39.27 17.65 39.34 17.76 39.5C17.76 39.5 18.17 39.89 18.92 40.75C19.96 41.94 19.55 43.52 19.55 43.52L14 65.74H22.08L23.24 60.86H31.04L32.26 65.74H42.9C47.27 65.74 50.82 65.3 52.57 62.57C53.88 65.06 56.7 66.22 61.68 65.8C63.41 65.65 65.11 64.84 65.84 63.55L66.18 64.62C66.47 65.27 67.06 65.74 67.91 65.74H76.04C76.26 65.74 76.33 65.67 76.22 65.52C76.22 65.52 75.78 65.04 75.06 64.26ZM33.86 43.99C33.86 43.99 33.94 43.99 33.98 44.01L35.44 44.9C35.39 45.14 35.33 45.46 35.3 45.69L33.78 44.28C33.67 44.18 33.74 44.02 33.86 43.99ZM32.37 45.87C32.37 45.87 32.45 45.85 32.49 45.87L35.23 46.97C35.23 47.3 35.24 47.74 35.28 48.07L32.35 46.16C32.23 46.08 32.27 45.92 32.38 45.87H32.37ZM31.38 47.93L35.41 48.84C35.52 49.32 35.7 49.85 35.91 50.25L31.29 48.23C31.11 48.15 31.2 47.88 31.39 47.93H31.38ZM24.46 56.03L27.15 45.16L29.85 56.03H24.46ZM46.76 59.62C45.98 60.33 44.56 60.67 42.99 60.52C42.11 60.44 41.18 59.98 41.18 59.98L37.92 64.02C37.79 64.18 37.54 64.02 37.63 63.84L39.86 59.35C39.89 59.3 39.82 59.25 39.78 59.29L35.82 62.74C35.67 62.87 35.45 62.68 35.57 62.51L38.64 58.43C38.64 58.43 38.62 58.33 38.57 58.35L33.98 61.14C33.81 61.24 33.64 61.01 33.78 60.88L37.62 57.32C37.62 57.32 37.62 57.22 37.57 57.24L32.5 59.28C32.32 59.35 32.19 59.1 32.35 58.99L36.82 56.08C36.82 56.08 36.83 55.98 36.78 55.99L31.39 57.2C31.2 57.24 31.12 56.97 31.29 56.9L36.28 54.72C36.28 54.72 36.31 54.63 36.26 54.64L30.71 55C30.52 55.01 30.47 54.74 30.66 54.69L35.99 53.32C35.99 53.32 36.03 53.24 35.99 53.23L30.46 52.71C30.27 52.69 30.27 52.41 30.46 52.4L36.01 51.88C36.01 51.88 36.06 51.81 36.01 51.8L30.67 50.43C30.48 50.38 30.53 50.11 30.72 50.12L36.04 50.46C37.4 52.95 40.28 53.94 42.8 54.82C45.26 55.67 47.37 56.4 47.37 58.29C47.37 58.8 47.17 59.24 46.76 59.61V59.62ZM54.35 62.74L53.09 61.64C53.09 61.64 53.27 61.19 53.37 60.88L54.6 62.51C54.72 62.67 54.51 62.87 54.35 62.74ZM56.18 61.14L53.66 59.61C53.66 59.61 53.76 58.87 53.78 58.47L56.38 60.88C56.53 61.02 56.35 61.24 56.18 61.14ZM57.66 59.28L53.81 57.73C53.81 57.73 53.81 56.83 53.72 56.32L57.81 58.99C57.97 59.1 57.84 59.35 57.66 59.28ZM59.7 52.73L54.18 53.25C54.18 53.25 54.13 53.32 54.18 53.34L59.5 54.7C59.69 54.75 59.64 55.03 59.45 55.02L53.91 54.66C53.91 54.66 53.84 54.73 53.89 54.74L58.88 56.92C59.06 57 58.97 57.27 58.78 57.22L53.68 56.07C53.68 56.07 53.47 53.78 50.83 51.96C49.45 51.01 47.76 50.37 46.28 49.81C45.14 49.38 44.07 48.97 43.3 48.49C42.44 47.94 42.03 47.35 42.03 46.64C42.03 46.12 42.2 45.68 42.55 45.34C43.15 44.76 44.23 44.5 45.69 44.51C47.26 44.52 48.93 45.23 48.93 45.23L52.25 41.12C52.25 41.12 52.32 41.06 52.36 41.05C52.48 41.04 52.6 41.16 52.53 41.3L50.27 45.84C50.27 45.84 50.3 45.92 50.34 45.89L54.35 42.4C54.5 42.27 54.72 42.47 54.6 42.63L51.5 46.75C51.5 46.75 51.52 46.84 51.56 46.81L56.17 44C56.34 43.9 56.52 44.13 56.37 44.27L52.53 47.83C52.53 47.83 52.53 47.92 52.58 47.9L57.67 45.86C57.85 45.79 57.98 46.04 57.82 46.15L53.34 49.07C53.34 49.07 53.33 49.16 53.37 49.15L58.78 47.93C58.97 47.89 59.05 48.15 58.88 48.23L53.89 50.41C53.89 50.41 53.86 50.49 53.91 50.49L59.45 50.14C59.64 50.13 59.69 50.41 59.5 50.45L54.18 51.81C54.18 51.81 54.14 51.89 54.18 51.89L59.7 52.41C59.89 52.43 59.89 52.71 59.7 52.72V52.73Z" fill="#545454"/>
<path d="M167.879 39.8H165.419V42.41H164.189V43.92H165.419V47.98C165.419 48.79 165.429 49.38 165.769 49.88C166.299 50.65 167.239 50.7 168.089 50.7C168.539 50.7 168.859 50.65 169.389 50.57V48.64L168.509 48.67C167.849 48.67 167.849 48.23 167.859 47.72V43.93H169.499V42.42H167.879V39.8Z" fill="#545454"/>
<path d="M88.9395 61.44C88.9195 62.33 88.9195 63.65 86.9895 63.65C86.2795 63.65 85.5095 63.47 85.1495 62.88C84.9595 62.53 84.9395 62.04 84.9395 61.46V54.37H82.0795V60.71C82.0595 62.26 82.0595 64.25 84.2495 65.38C85.0195 65.78 86.0395 65.99 86.8895 65.99C87.3695 65.99 89.8995 65.89 91.1295 63.93C91.7595 62.9 91.7695 61.8 91.7895 60.71V54.37H88.9395V61.44Z" fill="#545454"/>
<path d="M163.68 44.43C163.68 42.26 161.19 42.01 160.16 42.01C159.13 42.01 158.17 42.14 157.4 42.75C156.64 43.35 156.56 44.04 156.52 44.62H158.99C159.06 44.31 159.2 43.64 160.3 43.64C161.18 43.64 161.22 44.28 161.25 44.67V45.12C160.2 45.31 158.61 45.6 157.93 45.89C157.24 46.18 156.16 46.95 156.16 48.31C156.16 49.48 156.98 50.87 158.91 50.87C160.15 50.87 160.86 50.34 161.49 49.87V50.64H163.92C163.73 50.35 163.68 50.22 163.68 49.32V44.43ZM160.38 48.78C160.12 48.94 159.83 49.05 159.53 49.05C158.95 49.05 158.59 48.6 158.59 48.2C158.59 47.56 159.24 47.31 159.66 47.15L161.25 46.62C161.23 47.49 161.2 48.26 160.38 48.78Z" fill="#545454"/>
<path d="M101.86 42.22H99.4102V50.64H101.86V42.22Z" fill="#545454"/>
<path d="M131.01 45.89C130.32 46.18 129.24 46.95 129.24 48.31C129.24 49.48 130.06 50.87 132 50.87C133.24 50.87 133.95 50.34 134.57 49.87V50.64H137C136.81 50.35 136.76 50.22 136.76 49.32V44.43C136.76 42.26 134.27 42.01 133.24 42.01C132.21 42.01 131.26 42.14 130.48 42.75C129.73 43.35 129.65 44.04 129.6 44.62H132.08C132.14 44.31 132.29 43.64 133.38 43.64C134.27 43.64 134.3 44.28 134.33 44.67V45.12C133.29 45.31 131.69 45.6 131.01 45.89ZM134.33 46.61C134.32 47.48 134.28 48.25 133.46 48.77C133.2 48.93 132.91 49.04 132.61 49.04C132.03 49.04 131.67 48.59 131.67 48.19C131.67 47.55 132.32 47.3 132.74 47.14L134.33 46.61Z" fill="#545454"/>
<path d="M174.26 49.03C172.93 49.03 172.33 47.98 172.35 46.94H178.35C178.32 45.99 178.26 44.35 177.16 43.17C176.08 42.01 174.63 41.96 174.13 41.96C170.82 41.96 169.82 44.57 169.82 46.6C169.82 49.35 171.57 50.95 174.07 50.95C175.42 50.95 176.52 50.44 177.24 49.76C177.68 49.36 177.97 48.94 178.26 48.5L176.39 47.55C176.08 48.15 175.61 49.03 174.26 49.03ZM172.86 44.28C173.1 44.02 173.52 43.73 174.12 43.73C174.55 43.73 175.02 43.89 175.33 44.2C175.68 44.57 175.75 45.04 175.79 45.39H172.36C172.44 45.04 172.52 44.65 172.86 44.28Z" fill="#545454"/>
<path d="M123.38 46.1C123.38 45.05 123.38 44.01 124.68 44.01C125.17 44.01 125.6 44.2 125.8 44.65C125.89 44.88 125.91 45.15 125.91 45.91V50.64H128.37V44.89C128.37 43.59 128.15 42.83 127.26 42.36C126.83 42.12 126.26 42.02 125.76 42.02C125.17 42.02 124.62 42.17 124.23 42.33C123.8 42.54 123.64 42.73 123.4 42.99V42.25H120.9V50.64H123.38V46.1Z" fill="#545454"/>
<path d="M154.129 39.8H151.669V42.41H150.439V43.92H151.669V47.98C151.669 48.79 151.679 49.38 152.019 49.88C152.549 50.65 153.489 50.7 154.339 50.7C154.789 50.7 155.109 50.65 155.649 50.57V48.64L154.759 48.67C154.099 48.67 154.099 48.23 154.119 47.72V43.93H155.759V42.42H154.129V39.8Z" fill="#545454"/>
<path d="M110.571 48.71H106.101L110.571 44.14V42.24H103.371V44.14H107.431L102.891 48.77V50.64H110.571V48.71Z" fill="#545454"/>
<path d="M101.86 39.26H99.4102V41.18H101.86V39.26Z" fill="#545454"/>
<path d="M115.54 50.88C118.83 50.88 120.05 48.54 120.05 46.42C120.05 44.89 119.3 42.17 115.87 41.97C115.66 41.96 115.47 41.96 115.28 41.97C112.45 42.06 111.02 44.01 111.02 46.42C111.02 49.53 113.18 50.88 115.54 50.88ZM113.93 44.76C114.27 44.23 114.69 43.99 115.4 43.94C115.49 43.94 115.59 43.93 115.7 43.94C116.04 43.95 116.46 44.05 116.85 44.41C117.32 44.86 117.54 45.59 117.54 46.52C117.54 47.84 116.88 48.92 115.54 48.92C114.2 48.92 113.51 47.75 113.51 46.41C113.51 45.83 113.63 45.25 113.93 44.77V44.76Z" fill="#545454"/>
<path d="M127.401 57.24C126.111 57.37 125.521 57.74 124.971 58.21V57.32H122.561V65.74H125.041V61.01C125.041 59.95 125.391 59.77 126.581 59.56L127.401 59.43V57.24Z" fill="#545454"/>
<path d="M138.61 57.32H136.17V65.74H138.61V57.32Z" fill="#545454"/>
<path d="M131.74 60.25C130.93 60.1 130.4 60.01 130.4 59.53C130.4 59.29 130.62 58.9 131.59 58.9C132.17 58.9 132.91 59.12 133.7 59.74L135.23 58.32C134.65 57.92 133.46 57.06 131.48 57.06C129.13 57.06 127.94 58.49 127.94 59.88C127.94 60.51 128.19 61.09 128.56 61.46C128.93 61.83 129.45 62.04 129.96 62.19C130.33 62.3 130.72 62.38 131.09 62.45C131.57 62.53 132.15 62.58 132.52 62.77C132.67 62.85 132.85 62.96 132.85 63.25C132.85 63.88 131.94 64.07 131.35 64.07C130.41 64.07 129.58 63.57 128.9 62.91L127.34 64.33C127.87 64.83 129.08 65.96 131.41 65.96C133.39 65.96 135.39 64.99 135.39 63.01C135.39 61.03 133.43 60.56 131.74 60.26V60.25Z" fill="#545454"/>
<path d="M120.37 58.27C119.29 57.11 117.84 57.06 117.34 57.06C114.02 57.06 113.02 59.67 113.02 61.7C113.02 64.45 114.78 66.05 117.27 66.05C118.63 66.05 119.72 65.54 120.45 64.86C120.88 64.46 121.17 64.04 121.46 63.6L119.59 62.65C119.29 63.25 118.82 64.13 117.47 64.13C116.12 64.13 115.53 63.08 115.55 62.04H121.56C121.53 61.09 121.46 59.45 120.37 58.27ZM115.57 60.49C115.65 60.14 115.73 59.75 116.07 59.38C116.31 59.12 116.73 58.83 117.32 58.83C117.76 58.83 118.22 58.99 118.53 59.3C118.88 59.67 118.95 60.14 119 60.49H115.57Z" fill="#545454"/>
<path d="M138.61 54.36H136.17V56.28H138.61V54.36Z" fill="#545454"/>
<path d="M149.401 63.36L148.021 57.34H145.381L147.891 65.46C147.941 65.64 148.001 65.85 148.001 66.05C148.001 66.65 147.371 66.65 146.971 66.66H146.101V68.63H147.891C148.531 68.61 149.101 68.58 149.681 67.95C150.101 67.48 150.271 66.97 150.471 66.42L153.431 57.34H150.791L149.401 63.36Z" fill="#545454"/>
<path d="M110.51 57.34L109.99 59.4C109.49 61.38 109.44 61.59 109.1 63.46C108.83 61.85 108.65 61.08 107.62 57.34H105.01L107.73 65.75H110.32L113.04 57.34H110.5H110.51Z" fill="#545454"/>
<path d="M150.45 46.95C150.45 45.66 149.79 44.65 148.49 44.16C147.85 43.93 146.22 43.63 145.01 43.48C144.53 43.42 143.56 43.29 143.56 42.42C143.56 41.87 144.12 41.23 145.25 41.23C145.98 41.23 146.7 41.5 147.1 41.73C147.55 41.99 147.88 42.29 148.23 42.65L150.33 41.15C149.34 40.26 147.92 38.99 145.3 38.99C143.34 38.99 140.73 39.86 140.73 42.79C140.73 45.24 143.09 45.74 143.79 45.88C144.4 46.01 145.03 46.09 145.65 46.17C146.49 46.28 147.64 46.43 147.64 47.33C147.64 48.12 146.67 48.65 145.54 48.65C144.88 48.65 144.11 48.51 143.35 48.1C142.79 47.79 142.55 47.54 142.26 47.21L140.1 48.58C140.81 49.4 142.08 50.88 145.28 50.88C146.88 50.88 148.52 50.54 149.55 49.35C150.15 48.66 150.45 47.76 150.45 46.93V46.95Z" fill="#545454"/>
<path d="M143.17 54.9H140.71V57.51H139.48V59.02H140.71V63.08C140.71 63.89 140.71 64.48 141.06 64.98C141.59 65.75 142.53 65.8 143.38 65.8C143.83 65.8 144.15 65.75 144.68 65.67V63.74L143.8 63.77C143.14 63.77 143.14 63.34 143.16 62.82V59.04H144.8V57.53H143.17V54.91V54.9Z" fill="#545454"/>
<path d="M99.4403 57.46C99.0103 57.22 98.4403 57.12 97.9403 57.12C97.3403 57.12 96.8003 57.26 96.4103 57.42C95.9803 57.63 95.8203 57.82 95.5703 58.08V57.34H93.0703V65.73H95.5503V61.19C95.5503 60.14 95.5503 59.1 96.8503 59.1C97.3303 59.1 97.7703 59.29 97.9603 59.75C98.0603 59.98 98.0703 60.25 98.0703 61.01V65.74H100.53V59.99C100.53 58.69 100.3 57.93 99.4203 57.46H99.4403Z" fill="#545454"/>
<path d="M104.29 57.32H101.84V65.74H104.29V57.32Z" fill="#545454"/>
<path d="M104.29 54.36H101.84V56.28H104.29V54.36Z" fill="#545454"/>
<path d="M85.9309 39.27L81.7109 50.64H84.7409L85.3109 48.82H89.5009L90.0609 50.64H93.0909L88.8909 39.27H85.9309ZM85.9609 46.77C86.2209 45.92 86.6509 44.58 86.8909 43.73C87.0509 43.15 87.2109 42.55 87.3609 41.97L88.8409 46.77H85.9609Z" fill="#545454"/>
</g>
<defs>
<clipPath id="clip0_24293_8967">
<rect width="164.35" height="29.62" fill="white" transform="translate(14 39)"/>
</clipPath>
</defs>
</svg>
