<svg width="192" height="108" viewBox="0 0 192 108" fill="none" xmlns="http://www.w3.org/2000/svg">
<g clip-path="url(#clip0_25424_44013)">
<path d="M133.681 54.0312C133.681 33.2139 116.804 16.3352 95.9851 16.3352C75.1664 16.3352 58.2891 33.2109 58.2891 54.0312C58.2891 74.8515 75.1664 91.7272 95.9851 91.7272C116.804 91.7272 133.681 74.8515 133.681 54.0312Z" fill="#545454"/>
<path d="M116.465 42.4468C108.798 42.4468 104.098 47.6201 104.098 55.169C104.098 62.6905 108.546 67.9015 116.319 67.9015C121.922 67.9015 125.43 65.1896 127.166 61.2434L120.478 58.8629C119.791 60.7782 118.526 61.9335 116.355 61.9335C113.209 61.9335 111.616 59.401 111.616 55.169C111.616 50.9096 113.209 48.3041 116.355 48.3041C118.669 48.3041 120.006 49.7148 120.624 52.0983L127.02 49.0246C125.788 45.8062 122.32 42.4468 116.465 42.4468ZM66.4629 42.8791V57.4157C66.4629 60.8512 66.8253 62.5112 67.8029 64.1772C69.4293 66.8891 73.7665 67.938 77.5647 67.938C81.3601 67.938 85.7006 66.8891 87.3273 64.1772C88.3019 62.5112 88.6655 60.8512 88.6655 57.4157V42.8791H81.2871V57.5586C81.2871 59.2216 81.071 60.31 80.4557 61.0306C79.8772 61.7177 78.9384 62.043 77.5647 62.043C76.1882 62.043 75.2503 61.7177 74.6715 61.0306C74.0592 60.31 73.8401 59.2216 73.8401 57.5586V42.8791H66.4629ZM93.1434 42.8791V67.4668H100.522V42.8791H93.1434Z" fill="white"/>
</g>
<defs>
<clipPath id="clip0_25424_44013">
<rect width="76" height="76" fill="white" transform="translate(58 16)"/>
</clipPath>
</defs>
</svg>
