<svg width="192" height="108" viewBox="0 0 192 108" fill="none" xmlns="http://www.w3.org/2000/svg">
<g clip-path="url(#clip0_25424_44017)">
<path d="M100.945 47.8998C100.883 47.9854 100.811 48.0647 100.76 48.1564C100.247 49.0786 99.7057 49.9883 99.2314 50.9307C98.4709 52.436 97.7525 53.963 97.0201 55.4839C96.6484 56.2552 96.2923 57.0327 95.9238 57.8056C95.6003 58.4851 95.2582 59.1569 94.9441 59.8412C94.4884 60.8348 94.0608 61.841 93.6005 62.8315C93.2786 63.5266 92.9256 64.2078 92.5804 64.8904C92.5197 65.0102 92.4389 65.1221 92.3518 65.2248C92.1683 65.4394 91.9164 65.4596 91.7298 65.2497C91.5727 65.0739 91.4312 64.8733 91.327 64.6634C90.5992 63.1783 89.8746 61.6901 89.1655 60.1957C88.2495 58.2643 87.3476 56.3267 86.4457 54.3876C85.8703 53.1497 85.312 51.9041 84.7398 50.6647C84.4598 50.0567 84.1691 49.4533 83.8783 48.8484C83.8316 48.7505 83.7585 48.6649 83.6963 48.5732C83.6761 48.5794 83.6559 48.5841 83.6357 48.5903C83.617 48.8158 83.5906 49.0428 83.5812 49.2683C83.5548 49.9245 83.5393 50.5808 83.5128 51.237C83.4739 52.2011 83.4786 53.1699 83.3744 54.1279C83.2796 55.0127 83.3075 55.8975 83.2516 56.7808C83.2345 57.0436 83.2671 57.308 83.2609 57.5723C83.2593 57.6687 83.208 57.7651 83.1816 57.8616C83.1598 57.9471 83.1256 58.0342 83.1272 58.1197C83.1318 59.073 83.1443 60.0262 83.1505 60.9795C83.1505 61.1925 83.1194 61.4055 83.1365 61.617C83.1645 61.9871 83.2096 62.3572 83.2625 62.7242C83.3464 63.3012 83.5688 63.8268 83.9373 64.2793C84.1022 64.4815 84.309 64.6541 84.5158 64.8158C84.6449 64.9153 84.8331 65.0522 84.9606 65.0242C85.2607 64.9573 85.5033 65.1019 85.7661 65.1548C85.9636 65.1952 86.1642 65.2761 86.3321 65.3865C86.5374 65.5202 86.5094 65.6835 86.273 65.7302C85.9527 65.7939 85.6246 65.8188 85.298 65.8406C85.1316 65.8515 84.9637 65.8172 84.7957 65.8141C83.7554 65.7893 82.7151 65.7535 81.6732 65.7504C80.9361 65.7473 80.2005 65.7939 79.4634 65.8095C79.3173 65.8126 79.168 65.7861 79.0234 65.7566C78.9207 65.7364 78.7683 65.7224 78.7979 65.5762C78.8212 65.4658 78.8974 65.3243 78.9907 65.2792C79.1975 65.1781 79.4354 65.1439 79.65 65.0568C79.8538 64.9744 80.0606 64.8811 80.2394 64.7567C80.7759 64.3819 81.1429 63.8859 81.2891 63.2358C81.3715 62.8673 81.4912 62.5081 81.5737 62.1395C81.6032 62.0074 81.5597 61.8596 81.569 61.7212C81.5954 61.334 81.6343 60.9468 81.6654 60.5596C81.6841 60.3294 81.7043 60.0993 81.7043 59.8676C81.7043 59.5939 81.6825 59.3202 81.6794 59.045C81.6778 58.9035 81.7012 58.7635 81.7074 58.622C81.7556 57.5816 81.8038 56.5398 81.852 55.4994C81.8707 55.1075 81.8893 54.7157 81.9033 54.3222C81.9329 53.467 81.9578 52.6117 81.9842 51.7564C82.0215 50.5155 82.0915 49.2745 82.0868 48.0336C82.0822 46.9404 81.9344 45.858 81.6094 44.8022C81.2953 43.7852 80.6702 43.0512 79.7278 42.5831C79.367 42.4043 78.972 42.2923 78.5942 42.1461C78.4278 42.0824 78.2489 42.0295 78.1043 41.93C78.0312 41.8802 77.9846 41.7294 77.9986 41.6345C78.0188 41.5039 78.109 41.3919 78.28 41.3919C78.5739 41.3919 78.857 41.3639 79.1447 41.5054C79.3173 41.591 79.5505 41.5754 79.7558 41.5707C80.3825 41.5583 81.0076 41.5365 81.6327 41.5023C81.964 41.4837 82.2936 41.423 82.6249 41.3997C82.9981 41.3733 83.2998 41.5365 83.5019 41.8367C83.7243 42.1679 83.9405 42.5069 84.1115 42.8661C84.5687 43.8318 84.9948 44.813 85.4442 45.7818C85.8641 46.6869 86.3026 47.5826 86.724 48.4861C87.3134 49.7519 87.8919 51.024 88.4797 52.2913C88.9509 53.3068 89.4298 54.3207 89.9072 55.3346C90.6443 56.9005 91.3814 58.468 92.1216 60.0324C92.2585 60.3232 92.4015 60.6125 92.5648 60.8893C92.6892 61.0992 92.7421 61.051 92.9272 60.9079C93.2164 60.684 93.2008 60.3419 93.3377 60.062C93.7653 59.188 94.1821 58.3094 94.5926 57.4293C94.8321 56.9176 95.0467 56.3951 95.2862 55.8851C95.4106 55.6223 95.5785 55.3797 95.7029 55.1184C95.7916 54.9334 95.8227 54.7219 95.9098 54.5353C96.3701 53.5494 96.835 52.5635 97.3093 51.5838C97.4788 51.2323 97.6903 50.8996 97.8598 50.5466C97.9609 50.3351 97.9951 50.0925 98.0946 49.8794C98.488 49.0335 98.8986 48.1953 99.2951 47.3493C99.8472 46.1737 100.388 44.9934 100.937 43.8163C101.228 43.1927 101.527 42.5722 101.821 41.9502C101.875 41.8367 101.92 41.7185 101.982 41.6096C102.135 41.3406 102.362 41.2457 102.688 41.2831C102.981 41.3157 103.273 41.3468 103.567 41.353C104.026 41.3639 104.486 41.3624 104.946 41.3499C105.379 41.3375 105.812 41.3064 106.245 41.2799C106.399 41.2706 106.54 41.2846 106.568 41.4697C106.595 41.6438 106.539 41.7993 106.371 41.8724C106.189 41.9517 105.997 42.0217 105.803 42.0606C105.349 42.1492 104.946 42.3141 104.612 42.6484C104.335 42.9252 104.192 43.2689 104.08 43.6219C103.9 44.191 103.823 44.7835 103.795 45.3775C103.774 45.8332 103.816 46.2904 103.816 46.7475C103.816 47.127 103.791 47.508 103.794 47.8874C103.794 48.0025 103.855 48.116 103.883 48.2295C103.903 48.3088 103.929 48.3897 103.929 48.4705C103.935 49.4689 103.939 50.4688 103.942 51.4671C103.943 51.9166 103.879 52.38 103.968 52.8123C104.046 53.1917 104.043 53.5603 104.057 53.935C104.075 54.4622 104.072 54.9909 104.092 55.5181C104.125 56.4169 104.173 57.3157 104.206 58.2161C104.228 58.821 104.226 59.4259 104.248 60.0309C104.281 60.9312 104.312 61.8301 104.369 62.7289C104.408 63.3463 104.537 63.945 105.008 64.4021C105.161 64.5499 105.333 64.6758 105.497 64.8096C105.515 64.8251 105.542 64.8376 105.567 64.8422C106.029 64.9449 106.492 65.0428 106.952 65.1486C107.103 65.1828 107.255 65.2248 107.392 65.2947C107.479 65.3383 107.604 65.4549 107.591 65.5125C107.568 65.6135 107.47 65.7286 107.374 65.7722C107.257 65.825 107.108 65.8266 106.974 65.8188C106.298 65.7784 105.621 65.7255 104.945 65.6835C104.648 65.6649 104.351 65.654 104.052 65.6571C102.648 65.6664 101.244 65.682 99.841 65.6913C99.7461 65.6913 99.645 65.6835 99.5548 65.654C99.39 65.5995 99.3527 65.4642 99.4926 65.3678C99.7026 65.2248 99.9311 65.1004 100.166 65.0024C100.71 64.7754 101.147 64.4286 101.334 63.8656C101.446 63.5298 101.5 63.1612 101.506 62.8051C101.527 61.7679 101.528 60.7291 101.503 59.6934C101.472 58.426 101.407 57.1602 101.356 55.8944C101.332 55.3221 101.306 54.7499 101.282 54.1776C101.242 53.1684 101.203 52.1607 101.16 51.1515C101.125 50.3491 101.087 49.5451 101.046 48.7427C101.032 48.469 101.009 48.1953 100.99 47.9201C100.973 47.9123 100.957 47.9045 100.94 47.8967L100.945 47.8998Z" fill="#545454"/>
<path d="M128.732 60.2999C128.628 59.978 128.483 59.6623 128.43 59.3327C128.388 59.073 128.239 58.9221 128.069 58.776C127.957 58.678 127.881 58.6065 127.976 58.4587C127.995 58.4292 127.99 58.3701 127.974 58.3343C127.9 58.1726 127.95 58.0529 128.111 57.9704C128.175 57.9378 128.217 57.8647 128.27 57.8103C128.202 57.7605 128.138 57.6999 128.063 57.6625C128.006 57.633 127.933 57.6299 127.867 57.6159C127.901 57.5444 127.925 57.4619 127.974 57.4044C128.074 57.2878 128.189 57.1851 128.313 57.0607C128.237 56.9907 128.169 56.9254 128.1 56.8617C127.856 56.6346 127.861 56.3407 128.121 56.1308C128.312 55.9769 128.509 55.8291 128.707 55.6829C128.816 55.6021 128.87 55.529 128.719 55.4372C128.606 55.3688 128.609 55.2833 128.704 55.2055C128.883 55.0578 129.063 54.9116 129.251 54.7763C129.285 54.753 129.362 54.7888 129.419 54.7981C129.388 54.8385 129.36 54.8805 129.326 54.9163C129.309 54.9334 129.27 54.9303 129.257 54.9474C129.214 55.0112 129.178 55.0796 129.139 55.1449C129.205 55.1542 129.281 55.1884 129.33 55.1651C129.427 55.1231 129.509 55.0485 129.598 54.9878C129.668 54.9396 129.738 54.8914 129.808 54.8432C129.848 54.9132 129.889 54.9816 129.94 55.0687C130.072 55.0718 130.162 55.0049 130.186 54.8432C130.198 54.7546 130.225 54.6659 130.264 54.5866C130.285 54.5415 130.34 54.4964 130.39 54.484C130.414 54.4778 130.458 54.5415 130.494 54.5742C130.567 54.6442 130.634 54.7219 130.716 54.7779C130.747 54.7981 130.831 54.7779 130.861 54.7484C130.887 54.7219 130.87 54.6535 130.872 54.6037C130.873 54.5524 130.859 54.4653 130.882 54.4544C131.1 54.3518 131.318 54.2025 131.545 54.1823C131.791 54.1605 131.997 54.1092 132.182 53.9568C132.274 53.8822 132.361 53.8293 132.469 53.9397C132.49 53.9615 132.559 53.9397 132.605 53.9351C132.598 53.8884 132.595 53.8402 132.579 53.7982C132.553 53.7282 132.518 53.6598 132.487 53.5914C132.576 53.5665 132.671 53.509 132.753 53.5214C132.974 53.5556 133.221 53.5525 133.338 53.8526C133.378 53.7702 133.394 53.7376 133.409 53.7065C133.459 53.6116 133.509 53.5478 133.598 53.68C133.621 53.7142 133.699 53.7469 133.733 53.7329C133.871 53.6816 134.008 53.6225 134.133 53.5432C134.203 53.4981 134.244 53.4094 134.307 53.3317C134.335 53.3612 134.36 53.3877 134.383 53.4157C134.551 53.6069 134.546 53.6007 134.713 53.4157C134.75 53.3737 134.843 53.3799 134.91 53.3659C134.96 53.355 135.011 53.3488 135.062 53.341C135.033 53.3006 135.005 53.257 134.972 53.2197C134.933 53.1762 134.89 53.1358 134.848 53.0938C134.907 53.0533 134.964 52.9802 135.027 52.9771C135.125 52.9725 135.237 52.9927 135.322 53.0393C135.459 53.114 135.512 53.0969 135.552 52.9429C135.573 52.8652 135.655 52.8014 135.736 52.7625C135.747 52.6895 135.756 52.6164 135.767 52.5433C135.782 52.5277 135.798 52.5122 135.815 52.4951C135.971 52.8045 136.143 52.7299 136.325 52.5759C136.352 52.5542 136.409 52.5619 136.451 52.5697C136.521 52.5822 136.591 52.6257 136.656 52.6164C136.764 52.6008 136.869 52.5604 136.966 52.5106C136.978 52.5044 136.927 52.3769 136.93 52.2665C136.988 52.3162 137.064 52.3567 137.101 52.4189C137.171 52.5339 137.229 52.5946 137.35 52.4717C137.462 52.3567 137.596 52.3536 137.714 52.4593C137.837 52.5682 137.922 52.5324 137.991 52.408C138.056 52.2898 138.118 52.1701 138.169 52.0472C138.267 51.8077 138.342 51.7673 138.58 51.8777C138.703 51.9352 138.796 51.9352 138.922 51.8699C139.155 51.7486 139.404 51.8699 139.487 52.1234C139.536 52.2758 139.608 52.3038 139.718 52.1809C139.799 52.0908 139.841 51.9663 139.897 51.8559C139.93 51.7906 139.959 51.7253 139.99 51.6584C140.042 51.7067 140.113 51.7471 140.14 51.8062C140.197 51.9306 140.264 51.9555 140.381 51.8839C140.429 51.8544 140.491 51.8451 140.574 51.8171C140.525 51.9492 140.451 52.0534 140.469 52.1343C140.487 52.2043 140.612 52.2463 140.728 52.3271C140.752 52.4018 140.782 52.5355 140.841 52.6537C140.88 52.7314 140.964 52.7874 141.028 52.8527C141.085 52.7781 141.143 52.7034 141.197 52.6272C141.208 52.6133 141.211 52.593 141.222 52.5635C141.44 52.5371 141.617 52.8356 141.841 52.6272C141.829 52.7936 141.804 52.9305 141.815 53.0658C141.821 53.1373 141.875 53.2446 141.934 53.2648C142.048 53.3068 142.11 53.2228 142.118 53.1062C142.118 53.0907 142.136 53.0751 142.172 53.0191C142.331 53.1311 142.522 53.2135 142.632 53.3566C142.78 53.5463 142.71 53.6411 142.44 53.6614C142.424 53.5914 142.421 53.5121 142.388 53.4499C142.368 53.411 142.301 53.397 142.255 53.3706C142.236 53.4157 142.192 53.4701 142.205 53.5027C142.265 53.6567 142.346 53.8029 142.412 53.9553C142.44 54.0206 142.48 54.1014 142.465 54.1637C142.433 54.2787 142.36 54.3814 142.317 54.4949C142.273 54.6068 142.216 54.725 142.217 54.8401C142.219 54.9878 142.242 55.0936 142.121 55.2413C142.014 55.3704 142.049 55.6332 142.059 55.8353C142.065 55.9862 142.074 56.1572 142.264 56.2381C142.297 56.2521 142.312 56.4092 142.278 56.4527C142.177 56.5755 142.211 56.6471 142.328 56.7155C142.539 56.8384 142.592 57.0561 142.648 57.266C142.657 57.2971 142.595 57.3811 142.556 57.3873C142.44 57.4075 142.276 57.3593 142.247 57.5133C142.21 57.6999 142.119 57.9222 142.407 58.042C142.154 58.2379 142.247 58.4727 142.248 58.6935C142.265 58.7013 142.283 58.7091 142.3 58.7169C142.331 58.678 142.37 58.6438 142.39 58.6002C142.449 58.4727 142.491 58.3374 142.558 58.2146C142.577 58.1819 142.665 58.1586 142.707 58.1726C142.874 58.227 143.007 58.3172 142.934 58.5287C142.933 58.5349 142.931 58.5427 142.934 58.5474C143.093 58.7589 142.934 58.9672 142.923 59.1756C142.922 59.2223 142.849 59.2969 142.802 59.3031C142.682 59.3171 142.65 59.3809 142.614 59.4835C142.549 59.6748 142.46 59.8583 142.373 60.0418C142.312 60.1693 142.387 60.2875 142.552 60.2626C142.724 60.2362 142.755 60.3139 142.762 60.4476C142.765 60.499 142.758 60.5612 142.785 60.5985C142.853 60.698 142.937 60.7851 143.015 60.8784C143.111 60.7944 143.222 60.7213 143.301 60.6249C143.348 60.5658 143.292 60.4181 143.432 60.4399C143.471 60.4461 143.513 60.5705 143.514 60.6405C143.516 60.7804 143.583 60.8224 143.707 60.8193C143.777 60.8178 143.847 60.8193 143.973 60.8193C143.934 61.0432 143.925 61.2547 143.858 61.4476C143.794 61.6342 143.85 61.7757 143.947 61.9141C143.993 61.9809 144.063 62.0136 144.135 61.9156C144.158 61.8845 144.237 61.869 144.276 61.8845C144.304 61.8954 144.32 61.9701 144.318 62.0152C144.298 62.3448 144.262 62.6745 144.251 63.0042C144.247 63.141 144.242 63.225 144.071 63.1675C144.037 63.1566 143.985 63.1986 143.942 63.2157C143.959 63.253 143.965 63.3043 143.995 63.3261C144.166 63.4536 144.108 63.578 143.998 63.7024C143.825 63.8937 143.632 64.0336 143.352 63.9325C143.331 63.9248 143.301 63.9325 143.278 63.9388C143.267 63.9403 143.258 63.9543 143.237 63.9714C143.43 64.2187 143.171 64.4286 143.178 64.6681C143.181 64.7692 143.08 64.7832 142.985 64.7396C142.909 64.7039 142.827 64.6805 142.746 64.651C142.732 64.6681 142.72 64.6836 142.706 64.7007C142.738 64.7552 142.776 64.8065 142.802 64.8625C142.833 64.9324 142.855 65.0071 142.88 65.0786C142.808 65.0864 142.738 65.0988 142.667 65.1019C142.623 65.1035 142.578 65.0895 142.533 65.0848C142.43 65.0708 142.37 65.0942 142.346 65.2155C142.304 65.4207 142.253 65.4316 142.063 65.357C142.003 65.3337 141.902 65.329 141.857 65.3632C141.659 65.5125 141.441 65.556 141.2 65.5529C141.127 65.5529 141.034 65.598 140.981 65.6524C140.846 65.7971 140.717 65.7753 140.589 65.668C140.563 65.6789 140.55 65.6804 140.539 65.6882C140.462 65.738 140.384 65.7893 140.306 65.8406C140.303 65.7426 140.297 65.6447 140.295 65.5467C140.294 65.371 140.295 65.1953 140.295 65.0024C140.361 64.9558 140.455 64.8796 140.561 64.8174C140.588 64.8018 140.661 64.822 140.684 64.85C140.83 65.0226 141.053 65.0522 141.256 64.9091C141.203 64.8423 141.151 64.7738 141.126 64.7412C141.169 64.6308 141.244 64.511 141.22 64.4861C141.138 64.3991 141.04 64.3011 140.885 64.3695C140.801 64.4068 140.687 64.4348 140.605 64.4099C140.389 64.34 140.242 64.441 140.098 64.5686C140.04 64.6199 139.992 64.6821 139.944 64.7412C139.836 64.8718 139.74 65.0382 139.539 64.8578C139.529 64.8485 139.496 64.864 139.452 64.8702C139.561 65.0491 139.86 65.0024 139.877 65.2652C139.843 65.2683 139.818 65.2746 139.795 65.2714C139.563 65.2326 139.558 65.2372 139.586 65.4581C139.613 65.6602 139.578 65.6898 139.381 65.71C139.157 65.7317 138.935 65.7768 138.711 65.8033C138.658 65.8095 138.578 65.8079 138.55 65.7768C138.432 65.6462 138.303 65.6587 138.165 65.724C138.031 65.7862 137.928 65.7862 137.838 65.6431C137.807 65.5933 137.708 65.5856 137.641 65.5576C137.621 65.612 137.582 65.6664 137.582 65.7209C137.582 65.8515 137.523 65.8639 137.409 65.8561C137.25 65.8453 137.09 65.853 136.932 65.8624C136.768 65.8717 136.622 65.8733 136.566 65.668C136.552 65.6182 136.456 65.5638 136.395 65.5591C136.142 65.5405 135.93 65.4721 135.809 65.2232C135.786 65.1766 135.709 65.1439 135.65 65.1299C135.47 65.0864 135.282 65.0646 135.104 65.0133C135.033 64.9931 134.98 64.9138 134.887 64.8345C134.867 64.8454 134.806 64.8702 134.75 64.906C134.489 65.0755 134.252 65.0304 134.055 64.7972C133.933 64.6556 133.822 64.4955 133.587 64.4955C133.507 64.4955 133.381 64.3788 133.358 64.2949C133.24 63.8595 132.932 63.763 132.532 63.7724C132.266 63.7786 132.142 63.564 132.039 63.3634C131.985 63.2576 131.924 63.2374 131.819 63.225C131.697 63.2125 131.582 63.1535 131.462 63.1239C131.365 63.1006 131.262 63.0788 131.162 63.0819C131.035 63.085 130.971 63.043 130.91 62.9233C130.814 62.7305 130.691 62.547 130.559 62.3775C130.519 62.3246 130.407 62.3277 130.298 62.2951C130.31 62.2562 130.329 62.1971 130.338 62.1722C130.127 61.925 129.931 61.6901 129.73 61.46C129.634 61.3496 129.528 61.2454 129.425 61.1381C129.404 61.1148 129.366 61.093 129.362 61.0666C129.323 60.8038 129.1 60.7073 128.922 60.5643C128.841 60.499 128.792 60.3917 128.73 60.3046C128.803 60.3295 128.878 60.3543 128.951 60.3792C128.967 60.3606 128.982 60.3419 128.996 60.3248C128.951 60.2719 128.906 60.2191 128.861 60.1662C128.819 60.2144 128.777 60.2626 128.735 60.3108L128.732 60.2999ZM141.982 53.638C141.853 53.8573 141.923 54.0221 142.116 54.0346C142.149 54.0361 142.224 53.9444 142.217 53.9366C142.149 53.8371 142.07 53.7438 141.982 53.638ZM143.491 61.2641C143.393 61.2205 143.346 61.1816 143.303 61.1863C143.259 61.191 143.222 61.2392 143.18 61.2687C143.222 61.3014 143.262 61.3542 143.307 61.3589C143.348 61.3636 143.394 61.3154 143.489 61.2625L143.491 61.2641Z" fill="#545454"/>
<path d="M158.139 47.8609C157.744 48.0678 157.727 48.3881 157.729 48.7193C157.73 53.0751 157.724 57.4323 157.738 61.7881C157.74 62.351 157.814 62.9155 157.9 63.4737C157.979 63.9885 158.271 64.3912 158.733 64.6478C158.9 64.7411 159.093 64.7878 159.273 64.8577C159.309 64.8717 159.358 64.8811 159.372 64.9075C159.463 65.0832 159.598 65.0615 159.753 65.0179C160.005 64.9464 160.598 65.1625 160.758 65.3725C160.889 65.5451 160.848 65.7255 160.629 65.7706C160.405 65.8172 160.167 65.8157 159.937 65.8017C159.267 65.7628 158.598 65.6975 157.928 65.6633C157.424 65.6368 156.919 65.6275 156.415 65.6353C155.698 65.6446 154.981 65.6835 154.264 65.6913C154.001 65.6944 153.735 65.6539 153.476 65.6088C153.273 65.5731 153.233 65.4222 153.399 65.2978C153.557 65.1796 153.742 65.0926 153.927 65.021C154.41 64.8329 154.867 64.6089 155.276 64.2808C155.858 63.8143 156.135 63.1861 156.239 62.4847C156.32 61.9405 156.357 61.3837 156.359 60.8317C156.368 56.7979 156.376 52.7625 156.359 48.7287C156.353 47.4737 156.269 46.2203 155.819 45.0245C155.533 44.261 155.205 43.5192 154.575 42.9578C154.006 42.4493 153.361 42.0932 152.602 41.947C152.448 41.9175 152.278 41.846 152.168 41.7387C152.02 41.5956 152.137 41.3592 152.347 41.3312C152.392 41.325 152.437 41.3281 152.482 41.3297C153.553 41.3406 154.623 41.3499 155.695 41.3701C155.8 41.3717 155.931 41.4183 156.007 41.4914C156.404 41.8693 156.805 42.2456 157.172 42.6499C157.856 43.4057 158.517 44.1817 159.194 44.9468C159.929 45.7787 160.671 46.6044 161.406 47.4348C162.061 48.1735 162.713 48.9137 163.367 49.6539C164.146 50.5325 164.926 51.4111 165.703 52.2897C166.51 53.2041 167.316 54.1201 168.123 55.0344C168.981 56.0063 169.84 56.9798 170.701 57.9502C171.433 58.7759 172.171 59.597 172.906 60.4181C172.97 60.4896 173.037 60.5642 173.116 60.6171C173.184 60.6622 173.304 60.726 173.346 60.6995C173.427 60.6435 173.48 60.5362 173.525 60.4414C173.548 60.3947 173.531 60.3279 173.531 60.2688C173.531 56.4666 173.531 52.6645 173.531 48.8608C173.531 48.4503 173.534 48.0413 173.539 47.6308C173.539 47.5484 173.539 47.4566 173.572 47.3835C173.643 47.2203 173.649 47.0912 173.474 46.987C173.433 46.9637 173.415 46.875 173.415 46.8175C173.405 46.2701 173.432 45.7212 173.385 45.1785C173.348 44.7415 173.247 44.3107 173.071 43.8971C172.62 42.8428 171.696 42.454 170.684 42.185C170.41 42.1119 170.13 42.0574 169.855 41.989C169.768 41.9673 169.668 41.9424 169.608 41.8848C169.533 41.8117 169.449 41.7013 169.454 41.6111C169.457 41.5412 169.588 41.4276 169.668 41.4199C170.034 41.3888 170.402 41.3872 170.769 41.381C170.872 41.3794 170.975 41.395 171.077 41.4028C171.129 41.4074 171.202 41.395 171.227 41.4245C171.416 41.6345 171.654 41.5536 171.881 41.5505C172.825 41.5396 173.769 41.5303 174.715 41.5194C174.934 41.5163 175.175 41.5661 175.365 41.4914C175.652 41.3779 175.938 41.367 176.231 41.3686C176.399 41.3686 176.565 41.3888 176.732 41.4074C176.847 41.4214 176.976 41.4323 176.993 41.5847C177.011 41.7495 176.929 41.8475 176.774 41.9035C176.508 42.0015 176.239 42.0932 175.985 42.2161C175.61 42.3965 175.306 42.6717 175.128 43.0511C174.984 43.3606 174.928 43.6934 174.923 44.0386C174.92 44.2781 174.852 44.516 174.825 44.7555C174.811 44.8877 174.822 45.0245 174.822 45.1582C174.822 46.0026 174.817 46.847 174.819 47.6914C174.828 51.2354 174.847 54.7794 174.848 58.3234C174.848 60.4429 174.828 62.564 174.81 64.6836C174.806 64.965 174.786 65.2512 174.733 65.5264C174.659 65.9121 174.427 66.0194 174.086 65.8219C173.901 65.7146 173.735 65.5591 173.593 65.3974C171.842 63.4053 170.099 61.4055 168.351 59.4104C167.263 58.1679 166.168 56.93 165.076 55.6891C163.725 54.1527 162.374 52.6163 161.025 51.0768C160.239 50.178 159.463 49.2714 158.674 48.3741C158.506 48.1828 158.304 48.0211 158.131 47.8594L158.139 47.8609Z" fill="#545454"/>
<path d="M63.6548 58.7184C63.6548 59.9049 63.6486 61.0899 63.6579 62.2764C63.661 62.5765 63.6843 62.8829 63.7434 63.1768C63.8414 63.6728 64.1897 64.2218 65.0015 64.2513C65.2425 64.2607 65.4742 64.284 65.7152 64.3742C65.9563 64.4644 66.2502 64.4193 66.5208 64.4224C66.7649 64.4255 67.009 64.4099 67.2547 64.4084C67.6808 64.4053 68.124 64.4799 68.5268 64.3851C69.012 64.27 69.508 64.3384 69.9761 64.2264C70.5344 64.0927 71.1035 64.0352 71.6587 63.8734C72.4922 63.6309 73.3164 63.3712 74.0675 62.9389C74.7361 62.5548 75.3473 62.0882 75.7843 61.4304C75.8838 61.2812 76.0035 61.1412 76.1357 61.0199C76.341 60.8333 76.5493 60.8971 76.5696 61.1661C76.5882 61.4056 76.5633 61.6559 76.5074 61.8892C76.2585 62.9295 75.6101 63.7304 74.8839 64.4768C74.3272 65.0491 73.6803 65.4954 72.9058 65.7224C72.2869 65.9044 71.6431 65.9075 71.0024 65.8857C70.525 65.8701 70.0476 65.8437 69.5702 65.8157C68.8222 65.7722 68.0758 65.7131 67.3278 65.6773C66.6887 65.6462 66.048 65.626 65.4073 65.6213C64.1835 65.6151 62.9597 65.6058 61.7374 65.6338C61.1325 65.6478 60.5307 65.7473 59.9257 65.7924C59.5541 65.8204 59.1809 65.8266 58.8092 65.8157C58.7252 65.8142 58.6086 65.7178 58.5728 65.6353C58.5169 65.5109 58.5682 65.3601 58.6988 65.3041C58.9694 65.1875 59.2446 65.06 59.5308 65.0086C60.0097 64.9231 60.3238 64.6354 60.6022 64.2793C60.8557 63.9543 60.9303 63.5811 60.9256 63.1768C60.9241 62.9948 60.9832 62.8129 61.0065 62.631C61.0252 62.491 61.0423 62.3495 61.0423 62.208C61.0423 60.6234 61.0345 59.0372 61.0345 57.4526C61.0345 53.7733 61.0345 50.0956 61.0376 46.4163C61.0376 46.2235 61.0376 46.0276 61.0718 45.8394C61.1402 45.4771 60.9272 45.1692 60.9085 44.8255C60.8961 44.5954 60.9008 44.3637 60.8697 44.1366C60.8417 43.9298 60.7826 43.7261 60.7219 43.5255C60.6815 43.3933 60.6193 43.2658 60.5602 43.1398C60.2756 42.5349 59.7578 42.2286 59.1373 42.0824C58.8248 42.0093 58.4998 41.9969 58.1794 41.9564C58.1545 41.9533 58.1281 41.9564 58.1017 41.9533C57.9011 41.9284 57.7129 41.7838 57.7129 41.6563C57.7129 41.5428 57.9555 41.294 58.1001 41.2924C58.5184 41.2862 58.9383 41.2831 59.3566 41.3017C59.8138 41.322 60.271 41.3639 60.7266 41.4059C60.823 41.4153 60.9116 41.479 61.0081 41.4946C61.1947 41.5257 61.3859 41.563 61.5741 41.5614C62.4403 41.5568 63.3049 41.5381 64.1711 41.5272C64.2084 41.5272 64.2581 41.535 64.2799 41.5583C64.4307 41.7247 64.6282 41.7045 64.8211 41.7045C65.4291 41.7045 66.0387 41.7092 66.6467 41.7029C66.9919 41.6983 67.3263 41.689 67.6668 41.5537C67.9016 41.4604 68.2033 41.5288 68.4739 41.5272C68.6714 41.5272 68.8689 41.5303 69.0648 41.5288C69.55 41.5241 70.0352 41.5117 70.5204 41.5179C70.6992 41.5195 70.8765 41.5879 71.0538 41.5801C71.371 41.5677 71.6882 41.5366 71.9899 41.4059C72.0925 41.3608 72.2294 41.3966 72.3507 41.3904C72.9447 41.3577 73.5372 41.322 74.1312 41.2924C74.2136 41.2877 74.2992 41.3033 74.3785 41.3266C74.5573 41.3779 74.6693 41.4852 74.6506 41.6905C74.618 42.0357 74.59 42.381 74.562 42.7277C74.5107 43.356 74.4671 43.9842 74.4111 44.6109C74.3816 44.9437 74.3334 45.2734 74.2867 45.6046C74.2774 45.673 74.2463 45.7414 74.2136 45.8036C74.139 45.9498 74.0892 46.1349 73.8746 46.1193C73.7238 46.1084 73.6072 45.9078 73.5916 45.6808C73.5667 45.3216 73.5698 44.9577 73.5061 44.6062C73.3755 43.88 72.9556 43.3824 72.2527 43.1103C71.7147 42.9019 71.1595 42.8226 70.5888 42.8039C70.2467 42.7915 69.9046 42.7635 69.5625 42.7526C69.3821 42.7464 69.2017 42.7666 69.0197 42.7666C67.6855 42.7666 66.3528 42.7651 65.0201 42.7697C64.8413 42.7697 64.6578 42.7915 64.4821 42.8273C63.9969 42.9252 63.759 43.1974 63.6968 43.7261C63.6703 43.9547 63.6532 44.1879 63.6532 44.4181C63.6501 46.7833 63.6501 49.1486 63.6548 51.5138C63.6548 51.73 63.6843 51.9508 63.7294 52.1623C63.7823 52.408 63.9471 52.5277 64.2022 52.5386C64.3825 52.5464 64.5645 52.5464 64.7464 52.5464C65.7432 52.5464 66.74 52.5308 67.7353 52.5526C68.4195 52.5666 69.1006 52.5557 69.7755 52.4577C70.2373 52.3909 70.6961 52.2758 71.1439 52.1421C71.7333 51.9663 71.9821 51.4952 72.1065 50.9385C72.161 50.699 72.2107 50.4579 72.2729 50.22C72.3227 50.0319 72.4813 49.923 72.6415 49.9494C72.8125 49.9774 72.9432 50.1298 72.9323 50.3242C72.8981 50.9727 72.8436 51.6211 72.8219 52.2696C72.7954 53.0549 72.7721 53.8418 72.7892 54.6255C72.8032 55.2351 72.8778 55.8431 72.9307 56.4511C72.9478 56.6533 72.8296 56.9161 72.6866 56.9565C72.5124 57.0063 72.3056 56.8881 72.2216 56.6657C72.1656 56.518 72.1345 56.3578 72.1096 56.2008C71.9977 55.4683 71.7395 54.7981 71.0491 54.442C70.6805 54.2523 70.242 54.1263 69.8284 54.1108C68.4521 54.0595 67.0728 54.0657 65.695 54.0595C65.2751 54.0579 64.8537 54.0657 64.437 54.1046C64.2441 54.1232 64.0078 54.1776 63.8865 54.3052C63.7512 54.4482 63.6765 54.6893 63.6625 54.893C63.6299 55.361 63.6517 55.8338 63.6517 56.3034C63.6517 57.1089 63.6517 57.9145 63.6517 58.72L63.6548 58.7184Z" fill="#545454"/>
<path d="M15.0035 53.8916C14.9818 52.9866 15.0611 52.0878 15.2275 51.2029C15.4203 50.1797 15.7173 49.1829 16.1605 48.2297C16.9816 46.4616 18.1432 44.9671 19.6625 43.7386C20.5287 43.0389 21.4648 42.4651 22.488 42.0327C22.8146 41.8943 23.1909 41.8524 23.4911 41.6751C23.7741 41.5087 24.0913 41.5351 24.3774 41.4045C24.6325 41.2879 24.9404 41.2816 25.2249 41.2319C26.0398 41.0919 26.864 41.0002 27.6913 41.0251C28.4377 41.0468 29.1872 41.1121 29.929 41.207C30.5153 41.2816 31.0953 41.4169 31.6738 41.5491C31.9288 41.6082 32.1699 41.7295 32.4187 41.8166C32.6877 41.9114 32.9692 41.9783 33.2273 42.0934C33.91 42.3997 34.5833 42.7279 35.2613 43.0451C35.4246 43.1213 35.5863 43.2099 35.7605 43.2519C35.8647 43.2768 35.9953 43.241 36.0995 43.1975C36.2161 43.1493 36.3125 43.0529 36.4276 42.9938C36.7013 42.8523 36.9314 42.9673 36.9688 43.2737C37.0854 44.216 37.1865 45.16 37.3062 46.1008C37.356 46.4942 37.4462 46.8814 37.5068 47.2733C37.5535 47.5719 37.6001 47.872 37.611 48.1721C37.6157 48.2732 37.5379 48.4147 37.4524 48.4738C37.3373 48.5547 37.2098 48.4645 37.1383 48.3603C36.9081 48.0275 36.6733 47.6947 36.4649 47.3479C35.7558 46.1739 34.8943 45.1211 33.8524 44.2285C32.7841 43.3141 31.5743 42.6501 30.1871 42.3375C29.8295 42.2567 29.4749 42.14 29.1126 42.0981C28.6476 42.0436 28.1749 42.0359 27.7053 42.0296C27.3118 42.025 26.9169 42.0452 26.5234 42.0685C25.707 42.1183 24.9062 42.2582 24.1442 42.5584C23.5501 42.7916 22.9732 43.0669 22.3994 43.3468C21.8007 43.6391 21.2813 44.0559 20.8319 44.5364C20.3358 45.0667 19.8662 45.6296 19.4463 46.2221C19.1711 46.6108 19.0047 47.0774 18.7886 47.5066C18.6999 47.6823 18.5864 47.8487 18.5195 48.0322C18.4464 48.2374 18.4122 48.4567 18.3656 48.6697C18.3469 48.7568 18.3516 48.8501 18.3283 48.9357C18.011 50.0475 17.9131 51.1843 17.9442 52.3335C17.9675 53.2074 18.0017 54.0814 18.0717 54.9537C18.1059 55.3798 18.2272 55.7997 18.3111 56.2211C18.3796 56.5663 18.4356 56.9162 18.5273 57.2552C18.5848 57.4667 18.6984 57.6642 18.7808 57.8695C18.899 58.1603 19.0047 58.4542 19.1276 58.7419C19.5847 59.8195 20.2332 60.7806 20.9921 61.6654C21.9111 62.7353 23.0121 63.5812 24.2935 64.1861C24.5423 64.3043 24.7942 64.4178 25.0461 64.5298C25.0974 64.5531 25.1596 64.5531 25.2156 64.5609C25.2607 64.5671 25.326 64.55 25.3478 64.5733C25.508 64.76 25.7226 64.7055 25.9232 64.718C25.9418 64.718 25.9714 64.718 25.9792 64.7289C26.1315 64.9574 26.357 64.8517 26.5592 64.8641C26.6603 64.8704 26.7551 64.945 26.8578 64.9574C27.0661 64.9839 27.2776 65.0025 27.4876 65.0041C27.9759 65.0072 28.4641 64.9948 28.9524 64.9932C29.1717 64.9932 29.391 65.0041 29.6102 65.0103C29.6289 65.0103 29.6553 65.0119 29.6662 65.001C29.8606 64.8035 30.111 64.8828 30.3411 64.8657C30.3598 64.8657 30.3815 64.8657 30.3986 64.8595C30.8963 64.634 31.4607 64.6231 31.9475 64.3339C32.4047 64.0633 32.9256 63.9016 33.3999 63.6528C34.3843 63.138 35.2971 62.5191 36.0513 61.6934C36.5629 61.1336 37.0014 60.524 37.3373 59.8413C37.4275 59.6578 37.5457 59.4836 37.681 59.3297C37.7447 59.2566 37.8863 59.1991 37.9749 59.2177C38.034 59.2302 38.104 59.395 38.0946 59.4836C38.0573 59.8413 37.9998 60.1959 37.9314 60.5488C37.8132 61.16 37.6732 61.768 37.5612 62.3807C37.4866 62.7881 37.2844 63.1023 36.9377 63.3169C36.3856 63.6605 35.8476 64.0384 35.2613 64.3121C34.4294 64.6993 33.5679 65.0259 32.7032 65.3353C32.159 65.5297 31.5929 65.6774 31.0238 65.7863C30.5013 65.8858 29.9632 65.9356 29.4314 65.9558C28.4875 65.9916 27.5435 65.9916 26.5981 65.9978C26.2171 65.9993 25.8361 65.9745 25.4551 65.9605C25.4364 65.9605 25.4084 65.9651 25.3976 65.9558C25.1254 65.6805 24.7771 65.878 24.4723 65.8065C24.2655 65.7568 24.0602 65.7085 23.8549 65.651C22.712 65.3307 21.6157 64.8984 20.5955 64.2903C18.5506 63.0743 17.0422 61.3839 16.0719 59.2146C15.694 58.3702 15.4141 57.4963 15.2415 56.5912C15.1466 56.0952 15.1077 55.5867 15.0642 55.0813C15.03 54.6847 15.0253 54.2851 15.0082 53.887L15.0035 53.8916Z" fill="#545454"/>
<path d="M117.95 41C118.54 41.0809 119.173 41.1291 119.787 41.2644C120.271 41.3701 120.753 41.5209 121.191 41.776C121.359 41.8739 121.583 41.8833 121.737 41.9937C121.966 42.1585 122.214 42.0839 122.451 42.1181C122.521 42.1274 122.605 42.0901 122.672 42.0528C122.822 41.9688 122.962 41.8631 123.115 41.7822C123.262 41.7044 123.379 41.7589 123.446 41.9097C123.485 41.9983 123.532 42.087 123.546 42.1803C123.656 42.9423 123.754 43.7058 123.867 44.4678C123.942 44.9685 124.048 45.4661 124.112 45.9684C124.158 46.337 124.172 46.7102 124.169 47.0803C124.169 47.1751 124.06 47.3244 123.975 47.3478C123.891 47.3711 123.731 47.2933 123.675 47.2109C123.535 47.0056 123.407 46.7817 123.323 46.5485C122.668 44.7213 121.344 43.5596 119.605 42.8023C118.806 42.4555 117.964 42.2394 117.103 42.1585C115.649 42.0217 114.287 42.2923 113.15 43.2751C112.472 43.8629 112.033 44.5984 111.898 45.5019C111.562 47.7536 112.873 49.4704 114.647 50.2122C115.31 50.489 115.994 50.7129 116.664 50.971C116.839 51.0379 116.991 51.1639 117.168 51.2276C117.356 51.2945 117.596 51.209 117.736 51.422C118.184 51.3567 118.554 51.6086 118.947 51.7392C119.932 52.0674 120.855 52.537 121.739 53.0719C122.77 53.6955 123.648 54.4886 124.247 55.5491C124.673 56.3034 124.919 57.1135 124.996 57.9813C125.079 58.905 124.986 59.8085 124.746 60.6948C124.402 61.9669 123.71 63.0181 122.715 63.8905C121.868 64.6338 120.928 65.203 119.855 65.5466C119.403 65.6913 118.95 65.8856 118.485 65.9307C117.622 66.0147 116.761 66.2215 115.884 66.0878C115.287 65.996 114.686 65.9152 114.089 65.8157C113.131 65.6586 112.204 65.4036 111.346 64.9339C110.909 64.6945 110.634 64.3601 110.511 63.8609C110.276 62.8999 109.984 61.9529 109.737 60.9934C109.617 60.5285 109.53 60.0526 109.455 59.5783C109.426 59.3917 109.458 59.1927 109.482 59.0014C109.503 58.8194 109.705 58.7292 109.849 58.8521C109.975 58.9594 110.077 59.1118 110.149 59.2626C110.236 59.4461 110.267 59.6545 110.343 59.8427C110.489 60.2081 110.604 60.5798 110.811 60.9281C111.111 61.4304 111.446 61.8985 111.85 62.3183C112.596 63.0912 113.447 63.7272 114.427 64.1797C114.649 64.2824 114.899 64.3275 115.13 64.4161C115.341 64.497 115.543 64.5996 115.748 64.6945C115.772 64.7053 115.794 64.7256 115.818 64.7271C116.24 64.7629 116.644 64.9293 117.084 64.8453C117.321 64.8002 117.577 64.8204 117.82 64.8453C118.185 64.8842 118.538 64.8764 118.894 64.7784C120.261 64.3974 121.431 63.7086 122.387 62.6527C122.906 62.0788 123.163 61.4055 123.267 60.6591C123.424 59.5332 123.28 58.4602 122.644 57.4914C122.287 56.9487 121.79 56.5506 121.232 56.2194C120.477 55.7731 119.672 55.445 118.852 55.1448C118.625 55.0624 118.387 55.008 118.16 54.9256C117.949 54.8494 117.75 54.7421 117.538 54.669C117.114 54.5213 116.678 54.4031 116.257 54.2445C114.565 53.6115 112.943 52.8465 111.598 51.6102C110.788 50.8653 110.32 49.9183 110.113 48.8499C110.024 48.3912 109.951 47.92 109.961 47.4566C109.999 45.7118 110.572 44.1894 111.903 42.9889C112.495 42.454 113.148 42.0232 113.879 41.72C114.679 41.3903 115.514 41.1617 116.381 41.0917C116.888 41.0513 117.398 41.0311 117.952 41L117.95 41Z" fill="#545454"/>
<path d="M48.4354 64.4084C49.3684 64.4084 50.0666 64.4115 50.7648 64.4037C50.8581 64.4037 50.9483 64.3291 51.0447 64.3089C51.1738 64.2824 51.306 64.2731 51.4382 64.2591C52.0524 64.1954 52.6542 64.0616 53.2405 63.8797C53.8361 63.6946 54.4286 63.494 55.0133 63.2748C55.9587 62.9202 56.7363 62.3464 57.2697 61.4725C57.3365 61.3636 57.4205 61.261 57.5169 61.177C57.6553 61.0557 57.8186 61.1101 57.8264 61.2874C57.8435 61.6248 57.8559 61.9654 57.7004 62.2873C57.6055 62.4832 57.548 62.6963 57.4531 62.8922C56.8358 64.1534 55.8468 65.0071 54.5281 65.4752C53.7879 65.738 53.015 65.8406 52.2266 65.8235C51.3542 65.8049 50.4803 65.8048 49.6079 65.7706C48.9376 65.7458 48.269 65.6711 47.5972 65.6385C47.1213 65.6151 46.6439 65.6198 46.1681 65.6198C45.1651 65.6198 44.1605 65.6027 43.159 65.6291C42.5277 65.6462 41.8994 65.7411 41.2696 65.7846C40.9026 65.8111 40.5341 65.8126 40.1655 65.8126C40.1111 65.8126 40.0069 65.7411 40.01 65.71C40.0194 65.5965 40.0302 65.4379 40.1049 65.3865C40.2853 65.259 40.4937 65.1284 40.7067 65.0926C41.0675 65.0304 41.3178 64.8018 41.5884 64.6059C41.9943 64.3135 42.2307 63.8875 42.3893 63.4241C42.439 63.2779 42.411 63.1084 42.4313 62.9513C42.4701 62.6387 42.5417 62.3277 42.5557 62.0136C42.5759 61.5642 42.5557 61.1148 42.5557 60.6638C42.5557 60.4321 42.5541 60.2004 42.5541 59.9687C42.5541 55.1745 42.5541 50.3802 42.5572 45.586C42.5572 45.2765 42.5805 44.9686 42.5899 44.6591C42.5914 44.6032 42.5992 44.5285 42.5697 44.4943C42.4468 44.3575 42.4593 44.1895 42.425 44.0278C42.2571 43.2207 41.761 42.6718 41.0099 42.3685C40.6352 42.2177 40.2293 42.1477 39.8405 42.0326C39.7255 41.9984 39.5995 41.958 39.5124 41.8818C39.4487 41.8258 39.4067 41.7014 39.4207 41.619C39.4331 41.5428 39.5202 41.451 39.5964 41.4184C39.699 41.3748 39.825 41.3609 39.9369 41.3702C40.3226 41.3997 40.7067 41.4588 41.0924 41.4821C41.5371 41.5086 41.9834 41.5179 42.4297 41.5195C43.6598 41.5226 44.8898 41.5226 46.1183 41.5117C46.5771 41.507 47.0342 41.465 47.4914 41.4479C47.5972 41.4433 47.7356 41.3982 47.7729 41.5708C47.8211 41.79 47.7589 41.9611 47.5847 42.028C47.4168 42.0917 47.2442 42.1555 47.0685 42.1897C46.0514 42.3919 45.5258 43.073 45.2972 44.0169C45.2133 44.3637 45.1744 44.7291 45.1744 45.0852C45.1682 50.7488 45.1682 56.4138 45.1744 62.0774C45.1744 62.6232 45.2242 63.1721 45.4123 63.6931C45.5305 64.0181 45.7669 64.1705 46.1136 64.2731C46.9627 64.5219 47.8227 64.3384 48.4385 64.4069L48.4354 64.4084Z" fill="#545454"/>
<path d="M150.632 59.6639C150.65 59.723 150.655 59.7478 150.664 59.7696C150.697 59.8365 150.731 59.9018 150.764 59.9671C150.686 59.9842 150.608 60.0138 150.531 60.0153C150.308 60.0169 150.176 60.149 150.073 60.3217C149.988 60.4647 149.787 60.5394 149.666 60.4414C149.495 60.2999 149.378 60.3434 149.271 60.5114C149.237 60.5642 149.189 60.6062 149.159 60.7073C149.388 60.6793 149.616 60.6529 149.846 60.6249L149.87 60.6871C149.709 60.8737 149.518 61.0261 149.259 61.0479C149.119 61.0603 149.056 61.1225 149.036 61.2391C148.982 61.5455 148.776 61.6699 148.49 61.6901C148.367 61.6994 148.325 61.7508 148.315 61.8689C148.308 61.9405 148.254 62.0073 148.221 62.0773C148.17 62.0229 148.125 61.9607 148.067 61.9156C147.951 61.8223 147.829 61.7305 147.7 61.6543C147.686 61.6466 147.562 61.7554 147.57 61.7912C147.637 62.0695 147.532 62.1955 147.251 62.1986C147.217 62.1986 147.183 62.2282 147.116 62.2593C147.172 62.1426 147.217 62.0524 147.262 61.956C146.851 61.7321 146.674 62.0944 146.417 62.2748C146.394 62.2188 146.368 62.1862 146.371 62.1551C146.383 62.012 146.371 61.9 146.183 61.8907C146.147 61.8892 146.086 61.7865 146.089 61.7336C146.106 61.4755 145.828 61.2298 145.556 61.2594C145.472 61.2687 145.358 61.2454 145.298 61.1909C144.935 60.8721 144.786 60.4274 144.634 59.992C144.579 59.838 144.674 59.7743 144.836 59.7883C144.906 59.7945 144.982 59.7556 145.049 59.723C145.061 59.7167 145.043 59.6125 145.038 59.6125C144.959 59.611 144.867 59.5954 144.8 59.6281C144.545 59.7494 144.452 59.7167 144.346 59.4602C144.285 59.3124 144.345 59.23 144.467 59.1616C144.488 59.1507 144.497 59.1243 144.491 59.132C144.284 58.8101 144.077 58.5116 143.895 58.199C143.808 58.0497 143.803 57.8709 143.951 57.7387C144.048 57.6532 144.041 57.5925 143.959 57.5008C143.783 57.3048 143.814 57.2131 144.038 57.0778C144.096 57.0436 144.128 56.9223 144.125 56.843C144.122 56.759 144.055 56.6781 144.03 56.5926C144.018 56.5506 144.021 56.4729 144.046 56.4589C144.088 56.434 144.156 56.4293 144.205 56.4449C144.273 56.4667 144.332 56.5133 144.438 56.5475C144.298 56.2334 144.503 56.0577 144.634 55.8337C144.76 55.6176 144.814 55.3657 145.08 55.2615C145.103 55.2522 145.117 55.2117 145.13 55.1837C145.225 54.9582 145.433 54.9194 145.612 55.0951C145.659 55.1402 145.693 55.2039 145.747 55.2288C145.799 55.2522 145.873 55.249 145.926 55.2288C145.952 55.2179 145.962 55.1449 145.966 55.0982C145.99 54.8992 146.008 54.7017 146.035 54.4482C146.145 54.5788 146.072 54.8214 146.285 54.7265C146.341 54.7017 146.34 54.5477 146.377 54.4046C146.592 54.3191 146.867 54.1994 147.151 54.103C147.214 54.0812 147.333 54.1216 147.377 54.1745C147.486 54.3082 147.574 54.3082 147.669 54.1761C147.769 54.0377 147.868 53.9272 148.069 53.9926C148.1 54.0019 148.175 53.8993 148.22 53.8402C148.299 53.7375 148.372 53.6287 148.448 53.5214C148.47 53.5354 148.49 53.5494 148.512 53.5634C148.503 53.5929 148.498 53.6271 148.481 53.652C148.419 53.7515 148.459 53.7966 148.56 53.8075C148.708 53.8231 148.856 53.8339 149.002 53.8479C149.143 53.8619 149.201 53.7842 149.212 53.6551C149.224 53.512 149.283 53.4125 149.444 53.4047C149.47 53.54 149.495 53.666 149.52 53.792C149.551 53.792 149.582 53.792 149.613 53.792C149.633 53.7204 149.674 53.6473 149.672 53.5758C149.668 53.411 149.742 53.3799 149.89 53.4016C150.069 53.4265 150.255 53.3799 150.406 53.5463C150.453 53.5976 150.59 53.5727 150.686 53.5758C150.843 53.5805 150.779 53.4358 150.826 53.3643C150.947 53.1793 151.075 52.9973 151.241 52.7532C151.261 52.82 151.271 52.8449 151.277 52.8698C151.327 53.1171 151.509 53.2181 151.761 53.1513C151.829 53.1326 151.905 53.1482 151.978 53.1482C151.981 53.1684 151.986 53.1886 151.989 53.2088C151.88 53.2803 151.771 53.3519 151.658 53.4265C151.537 53.3643 151.415 53.2912 151.286 53.243C151.235 53.2244 151.162 53.2601 151.1 53.271C151.126 53.3239 151.139 53.3954 151.181 53.425C151.317 53.5183 151.465 53.596 151.596 53.6722C151.566 53.8013 151.54 53.921 151.515 54.0345C151.818 53.9366 152.079 53.8573 152.334 53.7655C152.442 53.7266 152.504 53.7235 152.526 53.8557C152.543 53.963 152.613 53.9521 152.701 53.9226C152.795 53.893 152.899 53.8977 152.995 53.8744C153.048 53.8619 153.109 53.8355 153.143 53.7966C153.188 53.7453 153.21 53.6753 153.272 53.6349C153.392 53.8246 153.491 53.9661 153.333 54.1372C153.303 54.1698 153.313 54.2725 153.342 54.316C153.403 54.4062 153.414 54.4746 153.334 54.5555C153.233 54.6581 153.266 54.7359 153.383 54.7981C153.428 54.8214 153.473 54.8494 153.518 54.8727C153.614 54.9256 153.619 54.9925 153.53 55.0469C153.378 55.1402 153.387 55.2086 153.527 55.3144C153.644 55.403 153.591 55.5305 153.51 55.6207C153.434 55.7062 153.339 55.7778 153.249 55.8509C152.967 56.0748 152.96 56.1976 153.233 56.4356C153.351 56.5382 153.355 56.633 153.278 56.7559C153.208 56.8679 153.132 56.8912 153.028 56.801C152.97 56.7512 152.907 56.7077 152.848 56.6626C152.649 56.8896 152.649 56.9036 152.848 57.1027C152.961 57.2162 152.955 57.3344 152.818 57.3437C152.53 57.3624 152.456 57.6034 152.305 57.7636C152.168 57.9082 152.065 58.0948 151.812 58.0155C151.793 58.0093 151.719 58.0933 151.72 58.1337C151.723 58.241 151.753 58.3498 151.773 58.4571C151.821 58.7091 151.722 58.8164 151.479 58.7666C151.339 58.7386 151.266 58.8148 151.243 58.9314C151.21 59.0947 151.17 59.2456 150.999 59.3186C150.982 59.3264 150.961 59.3435 150.96 59.3591C150.94 59.5519 150.815 59.6452 150.627 59.6608L150.632 59.6639ZM148.946 60.2361C148.965 60.2703 148.983 60.3045 149 60.3403C149.067 60.2968 149.134 60.2548 149.198 60.2066C149.206 60.2004 149.182 60.1553 149.175 60.1288C149.098 60.1646 149.022 60.2004 148.946 60.2361Z" fill="#545454"/>
<path d="M142.903 41.9875C142.954 41.8833 142.97 41.8366 142.998 41.7977C143.027 41.7542 143.078 41.6796 143.1 41.6858C143.153 41.7013 143.211 41.748 143.235 41.7962C143.316 41.961 143.383 42.1336 143.472 42.3405C143.571 42.2269 143.638 42.143 143.714 42.0668C143.825 41.9564 143.931 41.9719 143.949 42.1212C143.98 42.384 143.974 42.653 143.974 42.9189C143.974 43.0325 143.927 43.1475 143.934 43.2595C143.945 43.4632 143.951 43.4663 143.736 43.4414C143.736 43.4663 143.728 43.4943 143.736 43.513C143.99 44.051 143.73 44.4973 143.461 44.9296C143.386 45.0494 143.355 45.1271 143.422 45.2562C143.543 45.4848 143.509 45.5672 143.273 45.6574C143.113 45.718 143.085 45.8471 143.094 45.9855C143.106 46.1535 143.055 46.267 142.893 46.3401C142.778 46.3929 142.73 46.6729 142.795 46.8299C142.85 46.959 142.91 47.0849 142.968 47.2125C143.016 47.3198 142.985 47.3851 142.864 47.4053C142.8 47.4146 142.735 47.4224 142.676 47.4457C142.551 47.4939 142.539 47.5966 142.645 47.679C142.68 47.707 142.73 47.7179 142.76 47.749C142.809 47.8003 142.85 47.864 142.893 47.9216C142.841 47.9589 142.775 47.9869 142.736 48.0366C142.679 48.1113 142.626 48.1953 142.595 48.2823C142.548 48.4114 142.52 48.5483 142.484 48.682C142.464 48.7566 142.43 48.8297 142.43 48.9044C142.436 49.2263 142.245 49.4673 141.923 49.5264C141.879 49.5342 141.836 49.5404 141.768 49.5513C141.768 49.6228 141.758 49.6943 141.769 49.7612C141.802 49.9634 141.693 50.0722 141.53 50.1546C141.45 50.1951 141.379 50.2542 141.298 50.2899C141.251 50.3101 141.172 50.3288 141.142 50.3055C141.029 50.2137 140.942 50.2666 140.848 50.3319C140.659 50.4641 140.474 50.6087 140.27 50.7176C140.169 50.772 140.032 50.758 139.911 50.7735C139.796 50.7875 139.656 50.7627 139.57 50.8202C139.435 50.9104 139.349 50.8933 139.256 50.7844C139.231 50.7549 139.209 50.716 139.177 50.7005C139.13 50.6771 139.074 50.6694 139.023 50.6554C139.018 50.7129 138.993 50.7813 139.015 50.8264C139.055 50.9088 139.125 50.9773 139.163 51.0877C139.059 51.0488 138.956 51.0021 138.849 50.971C138.723 50.9353 138.592 50.898 138.463 50.8902C138.27 50.8777 138.161 50.7735 138.14 50.5589C138.133 50.5014 138.099 50.4454 138.076 50.3894C138.018 50.4128 137.951 50.4237 137.903 50.4594C137.731 50.5885 137.476 50.5076 137.406 50.293C137.342 50.0955 137.23 50.0287 137.017 50.0551C136.759 50.0862 136.737 50.0738 136.718 49.8218C136.71 49.699 136.754 49.5637 136.715 49.4533C136.67 49.3242 136.566 49.2138 136.479 49.1034C136.441 49.0568 136.379 49.0303 136.314 48.9852C136.354 48.9479 136.379 48.9308 136.398 48.9075C136.441 48.8515 136.51 48.7955 136.511 48.7364C136.511 48.696 136.429 48.6338 136.37 48.612C136.123 48.5156 136.123 48.5047 136.287 48.2979C136.404 48.1517 136.242 48.0926 136.16 48.0366C136 47.9278 135.97 47.8065 136.068 47.6432C136.092 47.6043 136.099 47.5561 136.123 47.4846C136.046 47.5001 136.003 47.5219 135.964 47.5141C135.924 47.5064 135.871 47.4815 135.855 47.4488C135.843 47.4208 135.865 47.3633 135.889 47.3338C135.933 47.2793 135.994 47.2373 136.042 47.1845C136.151 47.0678 136.277 46.9543 136.177 46.7568C136.233 46.7522 136.281 46.7319 136.305 46.749C136.497 46.8828 136.678 46.7755 136.86 46.7273C136.945 46.704 137.021 46.6075 136.92 46.5718C136.676 46.4862 136.763 46.2172 136.58 46.1006C136.653 46.0493 136.703 46.0135 136.782 45.956C136.72 45.8798 136.668 45.8005 136.602 45.7414C136.488 45.6434 136.469 45.5485 136.557 45.4226C136.7 45.2158 136.835 45.0058 136.972 44.7943C136.992 44.7632 137.02 44.7244 137.017 44.6901C136.992 44.4025 137.118 44.2485 137.395 44.2516C137.387 44.1257 137.331 43.9826 137.381 43.908C137.539 43.6685 137.479 43.3217 137.799 43.1537C137.791 43.2548 137.783 43.3559 137.776 43.457C138.18 43.4959 138.426 43.3264 138.349 43.034C138.27 43.0729 138.194 43.1087 138.11 43.1506C138.04 43.0216 138.042 42.922 138.164 42.8303C138.278 42.7448 138.376 42.6406 138.488 42.5535C138.681 42.4058 138.886 42.4633 138.979 42.6655C139.009 42.7292 139.113 42.821 139.152 42.807C139.264 42.7696 139.293 42.681 139.255 42.5442C139.175 42.2643 139.166 41.9797 139.366 41.7324C139.388 41.7044 139.424 41.6889 139.497 41.6345C139.497 41.734 139.497 41.79 139.497 41.8475C139.496 42.0326 139.488 42.2192 139.497 42.4042C139.497 42.4338 139.589 42.4928 139.615 42.482C139.81 42.4011 139.824 42.2363 139.668 42.101C139.632 42.0699 139.609 41.9641 139.631 41.9424C139.73 41.8428 139.819 41.7153 140.006 41.7869C140.205 41.8646 140.315 41.8055 140.366 41.5971C140.399 41.465 140.472 41.4012 140.593 41.3654C140.777 41.3126 140.96 41.2597 141.141 41.1975C141.183 41.1835 141.212 41.1322 141.248 41.0995C141.284 41.0684 141.334 41.0062 141.354 41.0155C141.399 41.0342 141.438 41.0824 141.464 41.1275C141.559 41.2908 141.638 41.465 141.744 41.622C141.825 41.7449 141.909 41.7246 141.962 41.5816C141.984 41.5225 141.993 41.4572 141.995 41.3934C142.004 41.1866 142.105 41.0575 142.301 41.014C142.446 40.9813 142.665 41.1928 142.615 41.367C142.531 41.6624 142.791 41.7433 142.909 41.9828L142.903 41.9875ZM136.645 47.1954C136.634 47.2093 136.623 47.2233 136.612 47.2373C136.645 47.3042 136.67 47.3757 136.712 47.4364C136.738 47.4737 136.799 47.5235 136.829 47.5157C136.882 47.5001 136.937 47.4504 136.961 47.4006C136.97 47.3788 136.91 47.3089 136.866 47.284C136.798 47.2436 136.718 47.2249 136.644 47.1954H136.645ZM136.667 45.5408C136.682 45.5594 136.698 45.5796 136.715 45.5983C136.794 45.5439 136.878 45.4957 136.95 45.4319C136.97 45.4133 136.955 45.3542 136.955 45.3122C136.914 45.3153 136.857 45.3013 136.836 45.3231C136.773 45.3884 136.723 45.4677 136.668 45.5408H136.667ZM137.18 46.2265C137.091 46.1706 137.045 46.1177 136.995 46.1146C136.958 46.113 136.917 46.1752 136.877 46.2094C136.925 46.2437 136.97 46.2934 137.023 46.309C137.053 46.3183 137.099 46.2716 137.18 46.2265Z" fill="#545454"/>
<path d="M151.244 48.3866C150.98 48.1036 150.754 48.4037 150.515 48.5001C150.386 48.5514 150.341 48.6883 150.364 48.8593C150.389 49.0304 150.404 49.2341 150.215 49.3554C150.268 49.4285 150.365 49.5031 150.358 49.5653C150.328 49.7908 150.268 50.0116 150.205 50.2309C150.196 50.2651 150.112 50.2915 150.061 50.2962C149.958 50.3071 149.852 50.2993 149.739 50.2993C149.705 50.2184 149.661 50.1127 149.617 50.0085L149.548 50.0007C149.423 50.2153 149.294 50.4299 149.177 50.6492C149.16 50.6803 149.188 50.7472 149.213 50.786C149.235 50.8218 149.288 50.8374 149.317 50.87C149.38 50.9384 149.436 51.0115 149.493 51.0831C149.409 51.1204 149.327 51.1733 149.238 51.1919C148.994 51.2448 148.967 51.3179 149.07 51.5434C149.112 51.6351 149.084 51.7688 149.053 51.873C149.042 51.9072 148.926 51.915 148.856 51.9259C148.789 51.9368 148.72 51.9368 148.652 51.9415L148.628 52.0037C148.716 52.0565 148.803 52.1094 148.866 52.1483C148.798 52.2633 148.74 52.4017 148.646 52.5075C148.577 52.5821 148.461 52.6506 148.364 52.6552C148.153 52.663 148.122 52.6785 148.212 52.8574C148.286 53.0051 148.179 53.0455 148.089 53.0455C147.89 53.0455 147.722 53.0829 147.621 53.2726C147.613 53.2881 147.59 53.3068 147.576 53.3068C147.286 53.3006 147.108 53.5354 146.862 53.6256C146.482 53.7671 146.165 53.6209 145.859 53.4296C145.735 53.3519 145.64 53.341 145.506 53.411C145.343 53.4965 145.162 53.5572 144.982 53.5991C144.924 53.6131 144.828 53.5494 144.778 53.495C144.683 53.3923 144.595 53.3472 144.456 53.4125C144.396 53.4421 144.318 53.4421 144.248 53.4421C144.012 53.4452 144.002 53.4359 144.069 53.215C144.106 53.0953 144.03 53.0766 143.951 53.072C143.825 53.0658 143.705 53.0735 143.673 52.9025C143.668 52.8776 143.523 52.8496 143.461 52.8714C143.351 52.9103 143.316 52.8745 143.27 52.7827C143.234 52.7081 143.169 52.6428 143.102 52.5915C142.932 52.4608 142.713 52.3738 142.8 52.0799C142.817 52.0239 142.702 51.9088 142.624 51.8513C142.505 51.7626 142.483 51.6771 142.53 51.5371C142.558 51.4501 142.564 51.3194 142.517 51.2526C142.374 51.0457 142.425 50.8529 142.494 50.6461C142.526 50.5481 142.509 50.4346 142.544 50.3382C142.578 50.2387 142.626 50.1205 142.705 50.0676C142.844 49.9743 142.876 49.8934 142.823 49.7333C142.795 49.6493 142.844 49.5327 142.872 49.4362C142.909 49.3118 142.96 49.1921 143.005 49.0724C143.026 49.0195 143.038 48.9573 143.074 48.9153C143.17 48.7971 143.254 48.6805 143.197 48.5141C143.187 48.4861 143.209 48.4161 143.226 48.4115C143.428 48.3633 143.537 48.1207 143.789 48.1627C143.893 48.1798 144.063 48.1533 144.111 48.0833C144.201 47.9543 144.061 47.861 143.97 47.7677C143.643 47.4364 143.648 47.4411 144.043 47.1907C144.117 47.1441 144.155 47.0368 144.207 46.9544C144.24 46.9031 144.257 46.8346 144.301 46.7958C144.466 46.6542 144.64 46.5205 144.811 46.3852C144.82 46.3774 144.837 46.3728 144.842 46.3634C145.052 45.9296 145.56 45.9731 145.881 45.715C145.932 45.673 145.999 45.6341 146.025 45.5781C146.083 45.46 146.147 45.4584 146.259 45.5051C146.371 45.5517 146.496 45.5735 146.618 45.5859C146.752 45.5984 146.888 45.5968 147.022 45.5844C147.095 45.5781 147.167 45.5362 147.238 45.5097C147.235 45.4864 147.232 45.4631 147.229 45.4397C147.159 45.4164 147.087 45.3978 147.019 45.3713C146.986 45.3589 146.933 45.334 146.933 45.3153C146.933 45.2765 146.954 45.2205 146.983 45.2018C147.091 45.1349 147.209 45.1116 147.29 45.236C147.384 45.3822 147.509 45.362 147.629 45.2998C147.795 45.2111 147.95 45.1038 148.122 44.9981C148.111 44.995 148.122 44.995 148.122 44.9981C148.288 45.3511 148.302 45.3511 148.545 45.051C148.58 45.0059 148.647 44.9717 148.705 44.9623C148.969 44.9188 149.233 44.8799 149.499 44.8535C149.534 44.8504 149.6 44.9281 149.608 44.9763C149.631 45.121 149.663 45.2485 149.801 45.3356C149.939 45.4226 150.058 45.4771 150.191 45.3262C150.28 45.2251 150.365 45.3013 150.414 45.376C150.574 45.6357 150.832 45.7508 151.101 45.8503C151.41 45.9638 151.521 46.3572 151.291 46.592C151.191 46.6947 151.166 46.7786 151.199 46.9139C151.247 47.1177 151.295 47.326 151.187 47.536C151.168 47.5717 151.233 47.6744 151.285 47.7164C151.334 47.7583 151.429 47.749 151.477 47.7925C151.512 47.8236 151.532 47.9154 151.51 47.9574C151.438 48.0973 151.347 48.228 151.246 48.3881L151.244 48.3866ZM144.231 47.4846C144.162 47.4209 144.117 47.3773 144.072 47.3338C144.036 47.3727 143.962 47.4318 143.971 47.4489C143.999 47.5049 144.053 47.55 144.106 47.5857C144.117 47.5935 144.17 47.5344 144.231 47.4846ZM143.461 48.5561C143.561 48.5779 143.635 48.5934 143.708 48.609C143.716 48.5654 143.747 48.4985 143.728 48.4799C143.645 48.3975 143.561 48.4099 143.461 48.5561Z" fill="#545454"/>
<path d="M133.627 44.9825C133.765 45.1162 133.898 45.2453 134.033 45.3759C134.249 45.264 134.258 45.2235 134.154 44.9996C134.128 44.9436 134.14 44.8705 134.134 44.8037C134.216 44.8239 134.303 44.8317 134.375 44.8705C134.398 44.883 134.4 44.984 134.375 45.0276C134.227 45.3044 134.282 45.407 134.588 45.4101C134.722 45.4101 134.857 45.4101 134.989 45.4101C134.999 45.4428 135.009 45.4615 135.008 45.4786C134.981 45.718 134.98 45.7165 135.216 45.6356C135.247 45.6247 135.313 45.6325 135.32 45.6496C135.339 45.6916 135.353 45.7569 135.333 45.788C135.26 45.9031 135.286 45.9606 135.4 46.0337C135.563 46.1379 135.544 46.3121 135.409 46.4536C135.362 46.5033 135.355 46.6169 135.369 46.6931C135.431 47.015 135.392 47.0554 135.084 46.9683C135.047 46.9574 134.997 46.9916 134.953 47.0041C134.977 47.0834 134.98 47.1813 135.03 47.2358C135.111 47.3229 135.23 47.3726 135.319 47.455C135.359 47.4924 135.39 47.5717 135.381 47.6245C135.341 47.8578 135.319 48.1035 135.224 48.315C135.132 48.5203 135.193 48.668 135.275 48.8375C135.414 49.1252 135.381 49.1858 135.065 49.2589C135.034 49.2667 135.005 49.2713 134.95 49.2822C135.013 49.4828 135.157 49.6632 135.017 49.884C134.897 50.0707 134.772 50.223 134.537 50.1982C134.531 50.2479 134.523 50.2635 134.527 50.2713C134.579 50.349 134.633 50.4268 134.688 50.503C134.604 50.5372 134.51 50.5574 134.437 50.6071C134.299 50.7005 134.167 50.8046 134.041 50.915C134.013 50.9399 134.02 51.0052 134.013 51.0519C134.064 51.0597 134.117 51.0783 134.167 51.0737C134.235 51.0674 134.303 51.0426 134.37 51.027C134.373 51.1048 134.394 51.1856 134.378 51.2587C134.344 51.4344 134.327 51.6117 134.122 51.7144C134.016 51.7688 133.977 51.9429 133.876 52.0238C133.736 52.1373 133.565 52.2089 133.412 52.3068C133.313 52.369 133.213 52.4343 133.129 52.5168C133.053 52.5898 132.999 52.6023 132.915 52.5354C132.865 52.495 132.767 52.439 132.741 52.4577C132.503 52.6287 132.324 52.5743 132.176 52.2913C132.083 52.6007 131.857 52.736 131.646 52.8775C131.591 52.9149 131.501 52.9164 131.43 52.9117C131.175 52.8931 130.918 52.8558 130.691 53.0019C130.69 53.033 130.683 53.0486 130.69 53.0579C130.822 53.2787 130.805 53.3176 130.545 53.3518C130.211 53.3954 129.876 53.4389 129.54 53.4762C129.427 53.4887 129.344 53.4514 129.32 53.3161C129.312 53.2741 129.225 53.2399 129.169 53.215C129.094 53.1808 129.012 53.159 128.934 53.1326C128.939 53.1108 128.943 53.089 128.946 53.0673C129.005 53.0501 129.071 53.0439 129.122 53.0128C129.175 52.9802 129.215 52.9242 129.26 52.8791C129.194 52.8371 129.131 52.7718 129.061 52.7625C129.002 52.7547 128.935 52.82 128.869 52.8418C128.791 52.8666 128.705 52.9009 128.631 52.89C128.565 52.8806 128.511 52.8107 128.452 52.7671C128.497 52.7298 128.542 52.6909 128.589 52.6552C128.623 52.6287 128.659 52.6054 128.719 52.5619C128.654 52.5214 128.612 52.4857 128.562 52.4654C128.282 52.3519 128.226 52.268 128.226 51.974C128.226 51.9165 128.2 51.859 128.184 51.8014C128.135 51.8232 128.072 51.8341 128.037 51.8699C127.931 51.9772 127.817 51.9694 127.702 51.9041C127.657 51.8776 127.59 51.8185 127.596 51.7905C127.609 51.7392 127.662 51.6739 127.712 51.6599C127.852 51.6195 127.861 51.5386 127.817 51.4236C127.796 51.3629 127.777 51.3007 127.757 51.2401C127.719 51.1312 127.67 51.0892 127.541 51.1421C127.307 51.2385 127.248 51.1934 127.264 50.9368C127.279 50.7005 127.313 50.4656 127.345 50.1935C127.236 50.1064 127.214 49.9369 127.34 49.7021C127.396 49.5979 127.441 49.5217 127.346 49.3942C127.29 49.3196 127.32 49.1594 127.352 49.049C127.407 48.8717 127.508 48.71 127.564 48.5327C127.593 48.4363 127.569 48.3212 127.569 48.1937C127.615 48.1968 127.673 48.2155 127.722 48.203C127.777 48.1875 127.864 48.1455 127.866 48.1128C127.873 47.9713 127.971 47.9216 128.068 47.8562C128.27 47.7194 128.278 47.6401 128.161 47.4317C128.13 47.3757 128.127 47.2653 128.161 47.2156C128.257 47.0834 128.38 46.9699 128.503 46.8377C128.6 46.9139 128.66 46.8906 128.767 46.7848C129.008 46.5469 129.287 46.3463 129.557 46.1395C129.711 46.0213 129.881 45.9777 130.052 46.1208C130.067 46.1332 130.099 46.127 130.156 46.1348C130.108 46.0555 130.074 46.0011 130.039 45.9435C130.148 45.8518 130.26 45.7662 130.361 45.6698C130.484 45.5501 130.606 45.4272 130.716 45.2951C130.806 45.1862 130.885 45.1022 131.038 45.2033C131.145 45.2748 131.228 45.2033 131.273 45.1085C131.427 44.7959 131.696 44.7057 132.013 44.7352C132.106 44.743 132.195 44.8208 132.279 44.8752C132.319 44.9016 132.336 44.9654 132.378 44.9887C132.434 45.0214 132.503 45.0307 132.565 45.0509C132.562 44.9887 132.573 44.9203 132.551 44.8643C132.504 44.7368 132.593 44.5891 132.742 44.5673C132.767 44.5642 132.794 44.5657 132.82 44.5688C133.017 44.6015 133.21 44.6233 133.322 44.3542C133.47 44.5922 133.677 44.5953 133.891 44.5751C133.899 44.5906 133.907 44.6062 133.915 44.6202C133.818 44.7399 133.723 44.8596 133.625 44.9809L133.627 44.9825ZM130.41 52.9988C130.299 52.9786 130.215 52.9397 130.148 52.9584C130.047 52.9879 129.945 53.0455 129.867 53.1155C129.817 53.159 129.809 53.2492 129.783 53.3192C129.862 53.3192 129.957 53.3472 130.016 53.313C130.137 53.2414 130.24 53.1372 130.41 52.9988Z" fill="#545454"/>
<path d="M143.326 60.1164C143.244 60.1646 143.186 60.2144 143.174 60.2051C143.095 60.1444 143.023 60.0744 142.958 59.9982C142.95 59.9889 143.001 59.9298 143.025 59.894C143.112 59.9594 143.2 60.0231 143.325 60.1164H143.326Z" fill="#545454"/>
<path d="M150.164 44.9048C150.033 44.8472 149.934 44.8083 149.842 44.7586C149.818 44.7461 149.797 44.6824 149.808 44.6637C149.828 44.6326 149.881 44.5953 149.91 44.6015C150.045 44.6342 150.143 44.7088 150.164 44.9048Z" fill="#545454"/>
<path d="M129.639 61.9359C129.909 61.7881 129.965 61.8068 129.975 62.0463C129.866 62.0105 129.772 61.9794 129.639 61.9359Z" fill="#545454"/>
<path d="M141.984 53.6365C142.071 53.7438 142.15 53.8355 142.219 53.935C142.223 53.9428 142.15 54.0346 142.118 54.033C141.923 54.019 141.855 53.8542 141.984 53.6365Z" fill="white"/>
<path d="M143.493 61.2625C143.398 61.3154 143.352 61.3636 143.311 61.3589C143.266 61.3527 143.226 61.2998 143.184 61.2687C143.224 61.2392 143.263 61.191 143.306 61.1863C143.348 61.1816 143.397 61.2205 143.495 61.264L143.493 61.2625Z" fill="white"/>
<path d="M128.733 60.2999C128.775 60.2517 128.817 60.2035 128.859 60.1553C128.904 60.2081 128.949 60.261 128.994 60.3139C128.979 60.3325 128.963 60.3512 128.949 60.3683C128.876 60.3434 128.802 60.3186 128.729 60.2937L128.733 60.2983V60.2999Z" fill="white"/>
<path d="M148.945 60.2361C149.022 60.2003 149.098 60.1646 149.174 60.1288C149.183 60.1552 149.205 60.2003 149.197 60.2065C149.135 60.2547 149.067 60.2967 149 60.3403C148.981 60.3061 148.962 60.2718 148.945 60.2361Z" fill="white"/>
<path d="M136.644 47.1954C136.719 47.2234 136.798 47.2436 136.867 47.2841C136.909 47.309 136.971 47.3789 136.962 47.4007C136.938 47.4505 136.882 47.4987 136.829 47.5158C136.8 47.5251 136.739 47.4753 136.713 47.4365C136.671 47.3758 136.646 47.3043 136.613 47.2374C136.624 47.2234 136.635 47.2094 136.646 47.1954H136.644Z" fill="white"/>
<path d="M136.668 45.5393C136.722 45.4662 136.772 45.3869 136.836 45.3216C136.856 45.2998 136.913 45.3138 136.954 45.3107C136.954 45.3511 136.969 45.4118 136.949 45.4304C136.878 45.4942 136.794 45.5424 136.714 45.5968C136.699 45.5782 136.683 45.5579 136.666 45.5393H136.668Z" fill="white"/>
<path d="M137.18 46.225C137.099 46.2701 137.054 46.3168 137.023 46.3074C136.969 46.2919 136.925 46.2437 136.877 46.2079C136.916 46.1737 136.956 46.1115 136.995 46.1131C137.045 46.1162 137.093 46.169 137.18 46.225Z" fill="white"/>
<path d="M144.229 47.4862C144.169 47.5359 144.116 47.5935 144.105 47.5872C144.05 47.553 143.996 47.5064 143.97 47.4504C143.96 47.4333 144.035 47.3742 144.071 47.3353C144.116 47.3789 144.162 47.4224 144.229 47.4862Z" fill="white"/>
<path d="M143.459 48.5561C143.56 48.4115 143.642 48.3975 143.726 48.4799C143.745 48.497 143.714 48.5639 143.706 48.6089C143.632 48.5934 143.559 48.5778 143.459 48.5561Z" fill="white"/>
<path d="M130.41 53.0004C130.242 53.1388 130.139 53.243 130.016 53.3146C129.957 53.3488 129.863 53.3208 129.783 53.3208C129.81 53.2508 129.817 53.1606 129.867 53.1171C129.946 53.0471 130.048 52.9896 130.149 52.96C130.216 52.9413 130.299 52.9802 130.41 53.0004Z" fill="white"/>
</g>
<defs>
<clipPath id="clip0_25424_44017">
<rect width="162" height="25.1344" fill="white" transform="translate(15 41)"/>
</clipPath>
</defs>
</svg>
