<svg width="192" height="108" viewBox="0 0 192 108" fill="none" xmlns="http://www.w3.org/2000/svg">
<g clip-path="url(#clip0_25424_44011)">
<path d="M93.1254 52.8162C89.4585 52.8162 89.1587 50.0618 89.1587 49.2422C89.1587 48.2861 89.3893 46.4878 91.7647 45.6227C94.1632 44.7577 94.6706 44.6666 96.3772 44.1203V43.7105C96.3772 42.891 96.3772 42.7544 96.1927 42.2081C95.8929 41.2748 94.9704 40.6374 93.6789 40.6374C92.4566 40.6374 91.4188 41.3203 90.9345 42.3219L90.2426 41.9122C90.6577 40.4097 92.226 38.9301 94.9012 38.9301C96.7462 38.9301 98.0377 39.4536 98.7988 40.6146C99.3753 41.5479 99.4445 42.8 99.4445 44.0748C99.4445 45.2357 99.3753 46.5105 99.3753 47.5349C99.3753 48.2179 99.3062 48.878 99.3062 49.2422C99.3062 50.1756 99.4906 50.9268 100.252 50.9268C100.598 50.9268 100.667 50.813 100.944 50.6309L101.359 51.1544C100.667 52.0878 99.8366 52.839 98.499 52.839C97.4612 52.839 96.7001 52.3154 96.3772 51.4731C95.916 52.065 94.809 52.8162 93.1254 52.8162ZM96.3542 45.7593C94.5553 46.2829 93.8865 46.5788 93.3791 46.852C92.5489 47.2618 92.2029 48.013 92.2029 48.9691C92.2029 49.7203 92.5027 50.9268 94.2555 50.9268C94.832 50.9268 95.6392 50.813 96.4003 50.2894V45.7366L96.3542 45.7593ZM66.004 52.0878C66.004 50.7447 66.004 49.6065 65.8887 48.2406H66.7189C66.7189 49.1057 66.9495 49.7431 67.3647 50.1301C67.9412 50.7675 69.2789 51.1544 70.5012 51.1544C73.0611 51.1544 74.2834 50.1983 74.2834 48.104C74.2834 46.3284 73.1764 45.5772 71.6773 44.5301L71.4467 44.3479L69.8093 43.2553C67.5492 41.7528 66.373 40.6146 66.373 38.2471C66.373 37.0862 66.8342 33.2845 72.4845 33.2845C73.9375 33.2845 75.8055 33.4666 76.9125 33.626C76.9125 33.8081 76.8433 34.6504 76.8433 35.4016C76.8433 36.2666 76.8433 36.4943 76.9125 37.5187H76.2206C76.2206 36.5853 75.9208 36.0162 75.5288 35.6292C74.9983 35.1057 73.7991 34.8097 72.5076 34.8097C69.4864 34.8097 69.1405 36.3122 69.1405 37.4504C69.1405 39.0211 69.9707 39.5675 71.7465 40.7284L73.7991 42.0715C75.5288 43.2325 77.1662 44.3024 77.1662 47.1935C77.1662 52.0195 72.5537 52.5431 70.6395 52.5431C68.8637 52.8162 67.3877 52.5431 66.004 52.0878ZM102.604 39.7951C103.296 39.8634 104.334 39.7951 105.349 39.613C106.225 39.4309 106.525 39.317 107.147 39.0439L107.447 39.226V40.2504C108.139 39.7268 109.5 38.9756 111.414 38.9756C113.882 38.9756 115.45 40.1366 115.888 42.1398C116.003 42.6634 116.073 43.8471 116.073 44.5756V48.491C116.073 50.6764 116.188 51.3138 116.603 51.7235C116.834 51.9057 117.295 52.1333 117.964 52.1333V52.7707C117.087 52.7024 115.496 52.6569 114.597 52.6569C113.374 52.6569 111.99 52.7252 111.229 52.7707V52.1333C111.921 52.065 112.336 51.8374 112.59 51.678C113.005 51.2683 113.051 50.517 113.121 48.8553C113.121 48.3317 113.19 47.2845 113.19 46.5561C113.19 45.6 113.19 44.5301 113.074 43.5057C112.89 41.7983 111.967 40.9788 110.215 40.9788C108.992 40.9788 108.231 41.2748 107.655 41.5479V48.5593C107.655 50.7447 107.77 51.3821 108.185 51.7918C108.416 51.974 108.946 52.2016 109.477 52.2016V52.839C108.37 52.7707 107.009 52.7252 106.156 52.7252C104.357 52.7252 103.757 52.7935 102.719 52.839V52.1788C103.296 52.1788 103.896 51.9512 104.172 51.6097C104.587 51.1544 104.634 49.9935 104.634 47.7626V43.7561C104.634 42.0715 104.564 41.3886 104.334 41.0471C104.149 40.7512 103.688 40.5236 102.742 40.5236V39.7723H102.627V39.7951H102.604ZM119.463 52.065C120.039 52.065 120.639 51.8829 120.916 51.4959C121.331 51.0406 121.377 49.8796 121.377 47.6488V40.9561H119.647V40.2049C120.408 39.9089 121.031 39.5675 121.377 39.2715C121.377 38.065 121.446 36.5626 121.608 35.6975C122.138 32.9431 123.937 31.5544 127.027 31.5544C128.388 31.5544 129.633 32.0097 130.464 32.6471L130.533 32.9431L129.172 34.7642H128.826C128.365 33.6715 127.65 33.0569 126.428 33.0569C126.012 33.0569 125.459 33.1707 125.067 33.5122C124.49 34.0813 124.375 34.9463 124.375 36.6764V39.2488H127.396V40.9333H124.398V48.3544C124.398 50.1301 124.467 50.9951 124.698 51.3366C125.044 51.9057 126.289 51.974 126.843 51.974V52.6569C125.874 52.5886 124.283 52.5431 123.176 52.5431C121.469 52.5431 120.385 52.6114 119.509 52.6569L119.463 52.065ZM135.076 52.9073C130.948 52.9073 128.503 50.3805 128.503 46.1235C128.503 42.8 130.302 38.9301 135.376 38.9301C139.504 38.9301 141.949 41.4569 141.949 45.7138C141.949 49.0374 140.127 52.9073 135.076 52.9073ZM135.26 40.478C134.43 40.478 133.808 40.7057 133.346 41.1154C132.239 42.0488 131.709 43.6422 131.709 46.0097C131.709 46.9431 131.893 51.4276 135.214 51.4276C136.045 51.4276 136.667 51.2 137.129 50.7902C138.236 49.8569 138.766 48.2634 138.766 45.8959C138.743 44.9626 138.581 40.478 135.26 40.478ZM143.332 39.7268C144.278 39.7951 145.247 39.6585 146.307 39.4992C147.138 39.3853 147.668 39.2032 147.945 39.0439L148.175 39.1577V40.3187C148.821 39.6813 149.882 39.0439 151.312 39.0439C152.35 39.0439 153.042 39.3398 153.71 39.8634V40.2731L152.534 42.3675H151.958C151.612 41.7301 150.92 41.1609 149.698 41.1609C149.121 41.1609 148.66 41.2748 148.245 41.5707V48.4227C148.245 50.1983 148.314 50.9951 148.544 51.3593C148.89 51.9284 150.067 51.9967 150.689 51.9284V52.6796C149.744 52.6114 148.129 52.5658 147.022 52.5658C145.731 52.5658 144.416 52.5658 143.355 52.6796V51.9967C144.116 51.9284 144.532 51.7691 144.808 51.4276C145.223 50.9723 145.27 49.8569 145.27 47.5805V43.8244C145.27 42.1398 145.27 41.4569 144.97 41.1154C144.739 40.8195 144.278 40.6601 143.378 40.6601V39.7951L143.332 39.7268ZM162.405 32.374C163.235 32.374 164.25 32.1918 165.611 31.9642C166.372 31.8504 166.833 31.6683 167.064 31.6227L167.294 31.7366C167.179 32.8292 167.179 35.3105 167.179 37.0862V48.013C167.179 49.6292 167.179 50.6536 167.41 50.9951C167.64 51.291 168.101 51.5187 169.001 51.5187V52.2016C168.124 52.2016 167.156 52.3154 166.095 52.4975C165.403 52.6114 164.873 52.7252 164.573 52.839L164.227 52.7252V51.5642C163.535 52.0878 162.244 52.839 160.445 52.839C156.709 52.839 154.333 50.3122 154.333 46.3512C154.333 45.0081 154.564 43.8244 155.025 42.7317C156.201 40.2959 158.53 38.9301 161.482 38.9301C162.589 38.9301 163.535 39.0439 164.089 39.1577V36.2894C164.089 34.6049 164.089 33.7626 163.789 33.3528C163.604 33.0569 163.327 32.9431 162.336 32.8975V32.3512L162.405 32.374ZM161.944 50.9496C162.889 50.9496 163.535 50.8357 164.158 50.426V41.4569C163.927 41.2292 163.12 40.5236 161.482 40.5236C158.876 40.5236 157.585 42.2992 157.585 46.0097C157.516 47.5577 157.977 50.9496 161.944 50.9496ZM87.798 51.3593C87.3829 51.8829 86.3451 52.9301 84.1311 52.9301C82.0093 52.9301 80.8562 52.1788 80.3488 50.4943C80.1182 49.8569 80.1182 48.5366 80.1182 47.7853C80.1182 45.6683 80.1182 43.9382 80.1874 41.9122V40.9788H78.3654V40.4553C79.0573 40.1593 79.5878 39.8862 80.0721 39.5219C81.1099 38.7024 81.8018 37.7463 82.5859 36.2894H83.1624V39.2715H87.7749V40.9561H83.1624V47.9675C83.1624 50.0845 83.5776 51.2455 85.5609 51.2455C86.5065 51.2455 87.1522 50.9496 87.4751 50.7219L87.798 51.3593Z" fill="#545454"/>
<path d="M141.441 63.4926C141.21 63.4926 140.91 63.5609 140.749 63.7203C140.564 63.8341 140.564 64.0162 140.564 64.13C140.564 64.3577 140.634 64.5398 140.795 64.9951L142.087 68.3186C142.271 68.8422 142.433 69.252 142.502 69.5251L144.093 64.9723C144.278 64.4487 144.324 64.3349 144.324 64.1073C144.324 63.9934 144.254 63.8796 144.139 63.7658C143.955 63.652 143.724 63.5382 143.447 63.5382V63.0146C143.632 63.0146 144.024 63.0146 144.208 63.0829C144.393 63.0829 144.739 63.1512 145.039 63.1512C145.615 63.1512 146.422 63.0829 146.768 63.0829V63.6064C146.538 63.6747 146.007 63.5382 145.546 64.8812L142.225 73.6227C141.764 74.8975 141.118 76.4455 138.858 76.4455C137.912 76.4455 137.267 76.2178 136.736 75.7625V75.5349L137.566 74.5788H137.797C138.028 75.1024 138.489 75.33 139.158 75.33C140.195 75.33 140.68 74.3967 141.372 72.5756L141.556 72.052L138.766 64.8812C138.766 64.813 138.696 64.6991 138.65 64.5853C138.581 64.4032 138.42 64.0617 138.42 64.0617C138.235 63.7203 137.958 63.6064 137.589 63.6064V63.0829C138.12 63.1512 139.042 63.1512 139.504 63.1512C139.803 63.1512 140.265 63.1512 140.726 63.0829C140.957 63.0829 141.372 63.0146 141.556 63.0146V63.4699H141.464V63.4926H141.441ZM110.583 63.3788C111.16 63.4471 111.806 63.3105 112.428 63.1967C112.959 63.0829 113.259 63.0146 113.466 62.9008L113.651 62.969V63.7203C114.066 63.3105 114.688 62.9008 115.634 62.9008C116.326 62.9008 116.741 63.0829 117.156 63.4243V63.7203L116.464 65.0634H116.118C115.888 64.6536 115.473 64.3121 114.665 64.3121C114.319 64.3121 114.02 64.426 113.72 64.6081V68.9333C113.72 70.0943 113.789 70.6178 113.904 70.8227C114.135 71.1642 114.85 71.2325 115.265 71.2325V71.6877C114.688 71.6195 113.628 71.6195 112.936 71.6195C112.105 71.6195 111.229 71.6195 110.606 71.7333V71.278C111.068 71.278 111.367 71.0959 111.552 70.9365C111.852 70.6406 111.852 69.9804 111.852 68.4552V66.0195C111.852 64.9951 111.852 64.517 111.667 64.3121C111.552 64.13 111.206 64.0162 110.699 64.0162V63.3788H110.606H110.583ZM71.7692 71.7105C69.3015 71.7105 67.8717 70.9593 67.3412 69.343C67.0414 68.5235 67.0414 67.5219 67.0414 66.7024V62.104C67.0414 60.7382 66.9722 60.4878 66.6955 60.2829C66.5802 60.1691 66.2804 60.0552 65.8652 59.9869V59.5317C66.4418 59.5999 67.4565 59.6455 68.01 59.6455C68.9787 59.6455 69.6014 59.6455 70.224 59.5317V60.0552C69.8089 60.0552 69.5322 60.1691 69.2785 60.3967C68.9787 60.6926 68.9787 61.2162 68.9787 62.6959V66.7707C68.9787 69.2065 69.2093 70.7544 71.9537 70.7544C74.7443 70.7544 74.9288 69.1382 74.9288 66.6796V62.1951C74.9288 60.8292 74.8596 60.5788 74.5828 60.3739C74.3983 60.2601 74.1216 60.1463 73.7526 60.078V59.6227C74.283 59.6227 74.9749 59.691 75.6668 59.691C76.3125 59.691 76.9583 59.691 77.7193 59.5772V60.1008C77.3042 60.1008 77.0275 60.2146 76.7738 60.4422C76.474 60.7382 76.474 61.2617 76.474 62.7414V66.2016C76.474 67.2943 76.474 68.5008 76.128 69.4796C75.6206 70.9821 74.2138 71.7105 71.7692 71.7105ZM88.3972 71.1869C88.8585 71.1186 89.1583 71.0731 89.3659 70.8455C89.6657 70.5495 89.6657 69.8894 89.6657 68.3642V65.9284C89.6657 64.904 89.6657 64.3577 89.4812 64.1528C89.3659 63.9707 89.1352 63.8569 88.5126 63.8113V63.2878C88.8585 63.356 89.804 63.2195 90.4959 63.1056C90.8419 63.0373 91.1878 62.9235 91.4415 62.8097L91.626 62.9918C91.5568 63.5609 91.5568 64.7674 91.5568 66.3837V68.865C91.5568 70.026 91.626 70.5495 91.7413 70.7544C91.9258 70.9821 92.2717 71.1642 92.7791 71.1642V71.5739C92.3179 71.5056 91.4184 71.5056 90.6574 71.5056C89.781 71.5056 88.8585 71.5739 88.3972 71.6195V71.1869ZM90.542 61.3528C89.8502 61.3528 89.435 60.943 89.435 60.3284C89.435 59.7138 89.8963 59.2357 90.6112 59.2357C91.3031 59.2357 91.7182 59.6455 91.7182 60.2601C91.6952 60.943 91.2339 61.3528 90.542 61.3528ZM125.228 71.1869C125.689 71.1186 125.989 71.0731 126.197 70.8455C126.496 70.5495 126.496 69.8894 126.496 68.3642V65.9284C126.496 64.904 126.496 64.3577 126.312 64.1528C126.197 63.9707 125.966 63.8569 125.343 63.8113V63.2878C125.689 63.356 126.635 63.2195 127.327 63.1056C127.673 63.0373 128.088 62.9235 128.272 62.8097L128.457 62.9918C128.388 63.5609 128.388 64.7674 128.388 66.3837V68.865C128.388 70.026 128.457 70.5495 128.572 70.7544C128.757 70.9821 129.102 71.1642 129.61 71.1642V71.5739C129.079 71.5056 128.226 71.5056 127.465 71.5056C126.589 71.5056 125.666 71.5739 125.205 71.6195V71.1642H125.228V71.1869ZM127.373 61.3528C126.681 61.3528 126.266 60.943 126.266 60.3284C126.266 59.7138 126.727 59.2357 127.442 59.2357C128.134 59.2357 128.549 59.6455 128.549 60.2601C128.549 60.943 128.065 61.3528 127.373 61.3528ZM118.171 71.3008C118.171 70.4357 118.102 69.5251 118.056 69.0699H118.632C118.632 69.5251 118.747 69.9349 118.978 70.1625C119.324 70.5723 119.739 70.7317 120.5 70.7317H120.615C121.561 70.7317 122.068 70.3219 122.068 69.5251C122.068 68.8877 121.653 68.5918 120.961 68.1821L119.739 67.4308C119.093 67.0211 118.355 66.4747 118.355 65.2455C118.355 64.2894 118.77 63.5382 119.578 63.1284C120.108 62.8325 120.938 62.8325 121.307 62.8325C121.999 62.8325 123.014 62.9463 123.567 63.0601C123.498 63.2878 123.498 63.8796 123.498 64.0845C123.498 64.2666 123.498 65.0406 123.567 65.2455H122.991C122.991 64.904 122.876 64.5625 122.645 64.2894C122.414 63.9934 121.884 63.8341 121.261 63.8341C120.385 63.8341 119.901 64.1756 119.901 64.9268C119.901 65.4959 120.362 65.7918 120.777 66.0878H120.846L122.022 66.7707C122.783 67.226 123.752 67.7951 123.752 69.1382C123.752 71.3691 121.63 71.7105 120.431 71.7105C119.739 71.6422 119.001 71.5967 118.171 71.3008ZM136.459 70.7544C136.16 71.0504 135.514 71.7105 134.13 71.7105C132.769 71.7105 132.008 71.2552 131.732 70.1398C131.616 69.73 131.616 68.865 131.616 68.4325C131.616 67.0666 131.616 65.9512 131.616 64.6991V64.13H130.44V63.7886C130.901 63.6064 131.201 63.4471 131.547 63.2195C132.193 62.6959 132.654 62.0585 133.185 61.1251H133.6V63.0146H136.505V64.039H133.6V68.5691C133.6 69.9121 133.83 70.6861 135.122 70.6861C135.698 70.6861 136.09 70.504 136.344 70.3447L136.459 70.7544ZM97.0457 63.0373C96.8612 63.0373 96.4691 63.0373 96.2154 63.1056C95.7542 63.1056 95.2698 63.1739 94.9239 63.1739C94.2782 63.1739 93.3326 63.1056 93.0789 63.1056V63.6292C93.1942 63.6292 93.6555 63.5609 93.9553 64.1528C94.0706 64.3804 94.1398 64.5625 94.1859 64.6764C94.2551 64.7902 94.3012 64.904 94.3012 64.9723L97.0918 71.8699L97.9682 71.6877L101.059 64.904C101.059 64.8357 101.128 64.7902 101.174 64.6764C101.243 64.6081 101.243 64.4943 101.474 64.1528C101.658 63.8113 102.05 63.6292 102.35 63.6292V63.1056C102.004 63.1056 101.243 63.1739 100.643 63.1739C100.344 63.1739 100.067 63.1739 99.767 63.1056C99.5364 63.1056 99.1905 63.0373 98.9368 63.0373V63.4926C99.2366 63.4926 99.5133 63.6064 99.6287 63.7203C99.6978 63.7886 99.8131 63.9479 99.8131 64.0617C99.8131 64.2438 99.744 64.4032 99.5825 64.9268L97.8759 69.0016C97.8067 68.7739 97.6914 68.4325 97.53 67.9772L96.3538 64.9268C96.1693 64.4715 96.1232 64.2894 96.1232 64.0617C96.1232 63.9479 96.1232 63.8341 96.2385 63.7658C96.423 63.5837 96.6997 63.4699 96.9995 63.4699V63.0146V63.0373H97.0457ZM78.0191 63.3788C78.4804 63.4471 79.1261 63.3788 79.7488 63.265C80.2793 63.1512 80.5099 63.0829 80.925 62.9235L81.1095 63.0373V63.7203C81.5246 63.3788 82.4702 62.9008 83.6233 62.9008C85.2146 62.9008 86.1832 63.652 86.4831 64.9268C86.5522 65.2682 86.5984 66.0195 86.5984 66.4975V68.9788C86.5984 70.3447 86.6676 70.7544 86.9443 71.0731C87.0596 71.1869 87.4056 71.3008 87.7746 71.3008V71.7105C87.198 71.7105 86.1832 71.6422 85.6297 71.6422C84.7995 71.6422 83.9231 71.7105 83.4849 71.756V71.3008C83.9001 71.2325 84.1768 71.1186 84.3613 71.0048C84.5919 70.7772 84.6611 70.2536 84.7072 69.2292C84.7072 68.8877 84.7072 68.2731 84.7072 67.7268C84.7072 67.0894 84.7073 66.3837 84.6381 65.7691C84.5228 64.6764 83.9462 64.1528 82.8392 64.1528C82.0781 64.1528 81.5477 64.3349 81.2018 64.4943V69.0016C81.2018 70.3674 81.2709 70.7772 81.5477 71.0959C81.663 71.2097 82.0089 71.3235 82.3779 71.3235V71.7333C81.6169 71.5512 80.7405 71.5512 80.1639 71.5512C78.9878 71.5512 78.6418 71.5512 78.0191 71.665V71.2552C78.3651 71.2552 78.7802 71.1414 78.9647 70.9138C79.1953 70.6178 79.2645 69.8894 79.2645 68.4325V65.9967C79.2645 64.9723 79.2645 64.4943 79.08 64.2894C78.9647 64.1073 78.6649 63.9479 78.1114 63.9934V63.356L78.0191 63.3788ZM106.34 71.7105C103.734 71.7105 102.304 70.2081 102.304 67.4991C102.304 67.0438 102.419 62.8325 106.386 62.8325C107.562 62.8325 108.6 63.2877 109.061 64.1073C109.592 64.9268 109.638 65.7235 109.638 66.4064V66.93H104.218C104.218 67.3853 104.287 67.7495 104.333 68.0227C104.633 69.7073 105.556 70.504 107.193 70.504C108.139 70.504 108.715 70.3219 109.246 69.9804L109.476 70.3902C108.9 71.1642 107.747 71.7105 106.34 71.7105ZM104.241 65.9739H107.608C107.608 64.9495 107.424 63.7886 105.902 63.7886C104.587 63.8569 104.31 65.0861 104.241 65.9739Z" fill="#545454"/>
<path d="M29.9796 26L22 33.6943V54.387L28.9187 61.3756H32.1013C32.0322 61.5805 31.9168 61.8992 32.1475 62.2179C32.3781 62.5594 32.7932 62.5594 32.9547 62.5594C33.1392 62.5594 33.3928 62.5366 33.808 62.4911C33.808 62.4911 33.9694 62.6276 33.462 62.8098C33.0469 62.9463 32.6779 63.1967 32.5626 63.6065C32.5626 63.6293 32.5626 63.6748 32.5395 63.6976H22V74.2829L29.9796 82.0228H50.9434L58.923 74.3057V54.4553L52.0042 47.4894H46.1233C45.8696 47.3301 45.5929 47.1707 45.3623 47.0114L45.27 46.9659H45.2469C45.1086 46.8748 44.9702 46.7837 44.8318 46.6472C44.6934 46.5333 44.6012 46.4423 44.5089 46.3512L44.4859 46.3285C44.3244 46.1691 44.1861 46.0098 44.0938 45.8732C45.0163 46.1236 46.008 46.1919 46.4923 46.2146H46.5384C46.5615 46.2146 46.6076 46.2146 46.6307 46.2146H46.6768C46.7921 46.2146 46.8844 46.2374 46.9305 46.2602C46.9997 46.2829 47.0458 46.3057 47.0919 46.3285L47.3456 46.4195C47.4148 46.4423 47.4609 46.4423 47.5301 46.4423C47.8991 46.4423 48.222 46.2374 48.3834 45.8959C48.4296 45.7821 48.5218 45.5545 48.4526 45.2585H58.923V33.7171L50.9203 26H29.9796Z" fill="#545454"/>
<path d="M57.9541 34.1268L50.5511 26.9561H30.3484L22.9453 34.104V54L29.3105 60.4195H33.4157C32.9544 60.8292 32.816 61.2617 32.7469 61.4666C32.5854 61.9219 32.424 62.0585 33.8538 61.8536C34.3151 61.7853 35.1453 61.4894 35.5374 61.239C35.9295 60.9886 36.6675 61.1935 36.6213 61.7398C36.2754 62.6048 35.3529 63.1284 34.4765 63.2422C32.4701 63.4926 33.3465 64.2211 33.3465 64.2211C33.5771 64.3804 33.7155 64.517 33.8308 64.6536H32.8622H22.9453V73.8731L30.3484 81.0439H50.5511L57.9541 73.8731V54.865L51.5889 48.4683H46.4459C46.0308 48.1951 45.4773 47.8991 44.9699 47.5804C44.7854 47.4666 44.5779 47.33 44.4164 47.1707C44.255 47.0569 44.1397 46.9203 44.0244 46.8065C43.5862 46.3512 43.2403 45.8731 43.148 45.6455C42.9866 45.2357 43.0096 44.7349 43.4017 44.9398C44.3473 45.4861 45.9155 45.5772 46.4921 45.6C46.5613 45.6 47.0225 45.6455 47.1378 45.691C47.2531 45.7365 47.4376 45.8276 47.4376 45.8276C47.6682 45.9187 48.1064 45.6 47.5991 45.0081C47.4607 44.8032 47.2762 44.5756 47.0456 44.3252H57.9772L57.9541 34.1268Z" fill="white"/>
<path d="M30.7405 27.9122L23.9141 34.5139V53.5903L29.7258 59.4635H35.1916C36.1141 59.0537 36.3217 59.0992 36.5753 58.5756C36.6215 58.4846 36.6445 58.2569 36.6676 58.0293C36.6907 57.961 36.806 57.2781 36.46 57.4374C35.8835 57.7334 34.7073 56.9594 33.8078 57.4147C32.9315 57.87 33.5772 56.8228 33.6925 56.6407C33.6925 56.6407 34.1538 56.0261 34.8687 55.6163C34.8918 55.5935 34.9148 55.5935 34.9379 55.5708C35.0071 55.5252 35.0763 55.5025 35.1455 55.4569C35.6759 55.2065 37.2211 54.1821 37.4978 53.8862C37.6593 53.7041 37.9591 53.2716 37.9591 53.0439C38.0052 52.8391 38.0513 52.5204 37.8438 52.4065C37.544 52.2244 37.3133 52.5887 36.8521 52.7935C36.3908 52.9984 36.0449 53.0895 35.6298 53.0895C35.2377 53.1122 34.8457 52.9529 34.615 52.9984C34.3844 53.0439 34.246 52.8618 34.6842 52.4293C34.8918 52.2244 34.961 52.1561 35.0532 52.0878C36.091 51.4277 37.0135 51.4277 37.5209 50.2667C37.5209 50.2667 37.913 49.2195 37.1519 49.6748C36.7368 49.9252 36.4831 50.2667 35.2838 50.2667C34.0615 50.2667 33.6003 50.8358 33.3927 51.0862C33.3927 51.0862 32.5625 52.2244 32.77 50.6309C32.9776 49.0374 33.3005 48.2179 34.0615 47.6033C34.7303 47.0797 36.3447 46.3513 36.9443 45.5545C37.2442 45.2586 38.0052 44.3935 37.567 43.6878C37.3825 43.3919 36.9213 44.1659 36.46 44.2797C35.9296 44.4163 35.2377 44.5984 34.7303 44.4846C34.0846 44.348 33.6695 44.5984 33.4388 44.7122C33.2082 44.8261 32.747 44.4846 33.3005 43.8472C34.0385 43.0049 35.8373 41.9122 37.0366 41.2748C37.198 41.2065 37.6132 41.0244 37.9822 40.7968H38.0052C38.0975 40.7513 38.2358 40.683 38.305 40.5691C38.5587 40.3415 38.7432 40.1139 38.6971 39.8635C38.651 39.6358 38.5356 39.5675 38.1666 39.522C37.8899 39.4992 37.4056 39.8179 37.0135 39.7952C36.4139 39.7496 35.5145 39.8862 35.8143 39.4537C36.091 39.0667 36.5292 38.8163 36.6676 38.748C36.9213 38.6342 37.2442 38.4976 37.7285 38.27C38.4895 37.9285 38.3973 37.0635 38.0975 37.0407C37.6362 36.9952 36.3908 37.3822 37.2672 36.4033C37.2672 36.4033 37.6823 35.9935 38.0975 35.7204C38.4203 35.5382 38.6971 35.4472 39.043 35.3334C39.2506 35.2651 39.781 34.787 38.5126 34.7415C38.5126 34.7415 37.7977 34.7643 37.936 34.4456C38.0513 34.2407 38.674 33.8309 38.674 33.8309C38.674 33.8309 39.1814 33.4895 39.389 33.2846C39.5965 33.1025 39.7349 32.9431 39.7118 32.7838C39.7118 32.6017 39.2045 32.3513 38.9969 32.0781C38.8355 31.896 38.9738 31.8277 39.0661 31.8049C39.1122 31.8049 39.1583 31.7822 39.2275 31.7822C39.7349 31.7822 39.8963 31.2813 40.1961 29.9382C40.2884 29.5513 40.2884 29.4602 40.4268 29.4602C40.4498 29.4602 40.4498 29.4602 40.4498 29.4602C40.4498 29.4602 40.5882 30.1431 40.7727 30.8943C40.9341 31.3041 41.0956 31.4862 41.4185 31.4862C41.4876 31.4862 41.5338 31.4862 41.5799 31.509C41.6721 31.5317 41.7875 31.6 41.6491 31.7822C41.5338 31.9415 41.1878 32.1691 41.1648 32.3057C41.0725 32.7155 41.4646 32.8748 41.8797 32.8976C42.4563 32.9431 42.2256 33.2846 41.603 33.7399C41.0033 34.1724 42.5485 35.1285 42.5485 35.1285C43.4249 35.7887 42.8022 35.9708 42.6177 36.0618C42.4332 36.1529 41.9489 36.4488 42.4332 36.6309C42.9406 36.813 43.6094 37.496 43.6094 37.496C44.4858 38.4976 43.2404 38.0878 42.7791 38.1334C42.4793 38.1561 42.364 39.0212 43.1481 39.3626C44.3243 39.8862 44.578 39.9773 44.9931 40.2732C45.7773 40.8423 45.3621 41.3204 44.3935 41.161C44.3935 41.161 43.7708 41.0017 43.3326 41.0927C43.0559 41.1382 42.8714 41.2065 42.7561 41.2748C42.6869 41.3659 42.5254 41.7756 43.8861 42.1854C44.5319 42.3903 45.316 42.8683 46.0309 43.4147H57.0548V34.5822L50.1591 27.9122H30.7405ZM47.3916 49.4017C47.7145 49.9252 47.899 50.6082 48.0374 51.587C48.0374 52.1789 47.2302 51.9057 46.9765 51.7464C46.792 51.6326 46.5614 51.5187 46.2385 51.4277C45.6619 51.2911 44.2551 50.6765 43.8861 50.5626C43.4941 50.4261 43.2173 50.6992 43.1712 50.813C43.0789 50.9952 43.2865 51.3594 43.2865 51.3594C43.84 52.5887 44.8317 52.5204 45.9387 53.2943C47.4608 54.3643 46.6536 54.5919 46.3308 54.4326C46.0309 54.2732 45.5005 54.3643 45.5005 54.3643C44.2782 54.7057 43.9092 54.1821 43.1943 54C42.4793 53.8179 43.0559 54.683 43.3326 54.9789C43.6094 55.2976 45.1546 56.322 45.685 56.5496C46.8612 57.096 47.4608 57.961 47.8298 59.0765C48.1757 60.1236 47.8067 59.896 47.53 59.7594C47.2533 59.6228 47.161 59.3496 46.4691 59.3724C45.7773 59.3952 45.3852 59.3269 44.8778 58.9626C44.7394 58.8716 44.6472 58.7578 44.5549 58.6439C44.5549 58.6439 44.5549 58.6439 44.5319 58.6439C44.0476 58.2797 44.1398 59.4862 44.2551 59.6683C44.6011 60.3513 44.8317 60.0781 46.8151 61.1252C47.7606 61.6261 47.9682 62.2862 48.0835 62.5594C48.2449 63.0147 48.4064 63.1513 46.9765 62.9464C46.5153 62.8781 45.685 62.6049 45.2929 62.3317C44.9239 62.0813 44.1629 62.2862 44.2321 62.8326C44.578 63.6976 45.5005 64.2212 46.3769 64.335C47.1379 64.4261 47.4839 64.5854 47.6222 64.7675C48.0374 65.2456 47.2763 65.9285 47.2763 65.9285C46.8843 66.361 47.2994 66.8846 47.5992 67.0439C48.0604 67.2716 48.9599 67.8179 49.2597 68.5691C50.8279 72.5301 49.3058 71.3919 48.5678 70.9366C47.8298 70.4813 46.423 69.3204 45.1315 69.4114C43.84 69.5025 43.4249 69.5708 42.6408 68.9789C41.8797 68.387 41.9489 69.3431 41.9489 69.3431V74.1236C41.995 75.1935 42.2026 76.2179 43.0559 77.083C43.7708 77.7887 44.3013 77.6748 45.2929 78.8586C45.7542 79.4049 47.2533 79.9968 48.2449 80.0196H50.1591L56.9856 73.3952V55.1838L51.1739 49.3334L47.3916 49.4017ZM23.9141 65.6098V73.4635L30.7405 80.0878H32.9315C35.0071 79.9968 35.7682 78.4033 36.3908 77.4244C36.8521 76.696 37.7054 76.0586 38.2358 75.535C38.7893 74.9659 38.9046 73.6911 38.9046 72.3025V69.4114V69.4342V68.7513V68.296V68.1822V66.9301C38.9046 66.6342 38.5587 66.6114 37.8207 67.4082C37.0827 68.2049 35.8143 68.1366 35.0993 68.2049C34.3844 68.2732 32.2857 69.3431 31.7092 70.1171C31.3402 70.5952 30.8097 70.2082 31.0404 69.2521C31.1326 68.8195 31.3171 68.2504 31.6169 67.4992C32.032 66.4521 33.5772 65.8374 33.5772 65.8374C33.5772 65.8374 33.7387 65.7691 33.877 65.6326L23.9141 65.6098Z" fill="#545454"/>
</g>
<defs>
<clipPath id="clip0_25424_44011">
<rect width="147" height="56" fill="white" transform="translate(22 26)"/>
</clipPath>
</defs>
</svg>
