<svg width="192" height="109" viewBox="0 0 192 109" fill="none" xmlns="http://www.w3.org/2000/svg">
<g clip-path="url(#clip0_18672_46158)">
<path d="M122.689 46.5079C122.689 46.5079 123.92 46.5404 124.252 46.5404C124.584 46.5404 126.004 46.4926 126.004 46.4926V46.7357C125.231 46.8489 124.981 47.0596 125.421 48.1457L127.962 54.4166L130.425 47.6103C130.518 47.189 130.567 46.9459 129.809 46.7353V46.5084C129.809 46.5084 130.993 46.5409 131.435 46.5409C132.004 46.5246 132.683 46.5084 132.683 46.5084V46.7353C131.767 46.7353 131.562 46.9459 131.104 48.1615L127.693 56.5885H127.409C127.409 56.5885 124.268 48.728 123.999 48.193C123.51 47.1565 123.526 46.8475 122.689 46.7348V46.5079H122.689ZM16.2495 48.3387V52.4712C16.2495 55.8744 16.2495 55.8744 15.1443 56.0683V56.3764C15.1443 56.3764 16.2178 56.2952 17.0522 56.2952C17.8865 56.2952 18.9469 56.3764 18.9469 56.3764V56.0678C17.8427 55.8744 17.8427 55.8744 17.8427 52.4707V48.3387C17.8427 44.936 17.8427 44.936 18.9479 44.7564V44.4474C18.9479 44.4474 17.8893 44.4951 17.0517 44.4951C16.2141 44.4951 15.1439 44.4474 15.1439 44.4474V44.7555C16.2644 44.9336 16.249 44.9336 16.249 48.3377M61.1336 44.7077C60.263 44.4287 59.3611 44.2656 58.4501 44.2224C56.1924 44.2224 54.4558 45.8755 54.4558 47.6093C54.4558 51.515 60.3444 50.4274 60.3444 53.459C60.3444 55.8901 57.1872 56.8139 55.1659 55.1608C54.7396 54.8207 54.6764 54.1243 54.5814 53.6863H54.2185L54.3451 55.9064C55.3557 56.3223 56.4297 56.5527 57.5181 56.587C60.3444 56.5708 61.7492 54.6287 61.7492 52.8438C61.7492 48.9219 55.8136 50.008 55.829 47.0261C55.8448 44.8706 58.3552 44.3199 60.2029 45.3893C60.6608 45.6162 60.8656 46.8155 60.8656 46.8155H61.2127L61.134 44.7086L61.1336 44.7077ZM61.812 48.3377L61.9698 46.4902C61.9698 46.4902 65.2377 46.538 65.964 46.538C66.6904 46.538 70.0221 46.4902 70.0221 46.4902L70.1012 48.3377H69.8485C69.5959 47.2196 69.2641 47.0414 67.7327 47.0414H66.6592V54.6593C66.6592 55.8419 66.6909 56.0048 67.7327 56.1017V56.3773C67.7327 56.3773 66.6909 56.3296 65.9645 56.3296C65.2382 56.3296 64.1805 56.3773 64.1805 56.3773V56.1017C65.2377 56.0062 65.2693 55.8261 65.2693 54.6593V47.0405H64.1805C62.6487 47.0405 62.3332 47.2186 62.0489 48.3368L61.812 48.3377ZM86.2668 46.441C86.2668 46.441 88.2565 46.4735 89.2034 46.4735C90.1806 46.4735 91.9344 46.441 92.187 46.441C92.2033 46.7654 92.3453 47.7541 92.3769 48.0459L92.1559 48.1109C91.8087 47.1871 91.4774 46.7816 88.4459 47.009V50.9308C91.2559 50.9471 91.6347 51.012 91.7133 49.9426H91.966C91.8981 50.7671 91.8771 51.595 91.9032 52.422H91.6505C91.604 51.4013 91.2406 51.4667 88.4459 51.4667V55.6967C91.1135 55.8749 92.235 55.7779 92.6454 54.4329L92.9139 54.5284L92.4402 56.3434C92.4402 56.3434 89.1099 56.2957 88.525 56.2957C87.5781 56.2957 86.2673 56.3434 86.2673 56.3434V56.0841C87.0411 55.9709 87.1514 55.9542 87.183 54.6736V48.1605C87.1672 46.8313 86.8829 46.7993 86.2673 46.7018V46.4425L86.2668 46.441ZM97.145 44.4015C97.145 44.4015 98.2813 44.4493 99.0868 44.4493C99.8922 44.4493 101.013 44.4015 101.013 44.4015V44.7096C100.492 44.8715 99.8601 44.7574 99.8601 46.719V51.7915C99.8601 53.8172 100.334 54.271 100.334 54.271C100.618 54.7306 101.016 55.1038 101.488 55.3519C101.96 55.5999 102.488 55.7137 103.017 55.6814C103.518 55.694 104.014 55.5721 104.454 55.3276C104.895 55.0831 105.266 54.7246 105.53 54.2877C105.53 54.2877 105.94 53.8826 105.972 51.9052V46.7348C105.94 44.9198 105.782 44.936 104.535 44.7091V44.4015C104.535 44.4015 105.23 44.4493 106.35 44.4493C107.202 44.4493 107.913 44.4015 107.913 44.4015V44.7096C107.187 44.8715 106.745 44.969 106.761 46.6679V52.3561C106.777 54.3335 105.784 55.2086 105.784 55.2086C105.784 55.2086 104.695 56.5373 102.358 56.5373C101.684 56.5679 101.013 56.4323 100.4 56.142C99.7876 55.8517 99.2518 55.415 98.8374 54.8685C98.8374 54.8685 98.2031 54.205 98.2031 51.8059V46.7348C98.2031 44.9198 97.9663 44.8386 97.1455 44.7091V44.4015H97.145ZM108.164 46.4917C108.164 46.4917 108.732 46.5241 109.364 46.5241C109.669 46.5293 109.975 46.5185 110.279 46.4917L116.862 54.1573V48.161C116.862 47.0266 116.642 46.848 115.71 46.7348V46.4917C115.71 46.4917 116.501 46.5394 117.131 46.5394C117.778 46.5394 118.489 46.4917 118.489 46.4917V46.7348C117.731 46.9941 117.526 47.0429 117.526 48.1448V56.5388L117.037 56.491L110.185 48.5016V54.6273C110.185 55.5505 110.311 55.9403 111.274 56.1022V56.3453C111.274 56.3453 110.501 56.2976 109.837 56.2976C109.238 56.2976 108.464 56.3453 108.464 56.3453V56.1022C109.395 55.9403 109.553 55.551 109.553 54.6273V48.161C109.553 47.0916 108.843 46.9134 108.163 46.7348L108.164 46.4917ZM167.652 46.5084C167.652 46.5084 168.521 46.5409 169.184 46.5409C169.847 46.5409 170.778 46.5084 170.778 46.5084V46.7677C170.179 46.9459 169.831 46.9779 170.242 47.6585L172.279 51.0617L174.205 47.6748C174.442 47.1723 174.568 46.8809 173.621 46.7353V46.5084C173.621 46.5084 174.268 46.5409 174.884 46.5409C175.437 46.5409 176.005 46.5084 176.005 46.5084V46.7353C175.389 46.8809 175.373 47.0433 174.963 47.6585L172.484 51.5971L172.516 54.6435C172.516 55.9728 172.848 55.9241 173.621 56.1022V56.3453C173.621 56.3453 172.627 56.2976 171.899 56.2976C171.172 56.2976 170.146 56.3453 170.146 56.3453V56.1022C171.031 55.9241 171.141 55.989 171.173 54.6598L171.188 51.5971L168.742 47.6915C168.158 46.9139 168.205 46.8977 167.652 46.7677V46.5084ZM33.3955 46.4425C33.3955 46.4425 34.2954 46.4592 35.0707 46.4592C35.8282 46.4592 36.7458 46.4425 36.7458 46.4425V46.7018C36.0353 46.783 35.7514 47.0581 35.925 47.6251L38.6704 54.4152L41.0398 47.6251C41.2133 46.9287 41.0551 46.783 40.0924 46.7018V46.4425C40.0924 46.4425 40.8187 46.4592 41.4185 46.4592C42.0341 46.4592 42.8401 46.4425 42.8401 46.4425V46.7018C42.1612 46.783 42.0346 47.0581 41.8136 47.6093L38.481 56.5225H38.1338L35.8445 50.8864L33.5393 56.5225H33.2708L29.7474 47.6098C29.4948 47.0266 29.4161 46.9292 28.6111 46.7023C28.6111 46.4105 28.5953 46.443 28.5953 46.443C28.5953 46.443 29.4794 46.4597 30.2374 46.4597C31.0108 46.4597 31.9423 46.443 31.9423 46.443V46.7023C31.169 46.7835 30.9479 47.0586 31.1378 47.6423L33.7738 54.4162L35.5248 50.1217L34.5476 47.6256C34.2163 46.9292 34.1684 46.8805 33.3955 46.7023V46.443V46.4425ZM77.3159 48.3392L77.4737 46.4917C77.4737 46.4917 80.7416 46.5394 81.4684 46.5394C82.1953 46.5394 85.526 46.4917 85.526 46.4917L85.6051 48.3392H85.3506C85.0979 47.221 84.7666 47.0429 83.2348 47.0429H82.1613V54.6593C82.1613 55.8419 82.1929 56.0048 83.2348 56.1017V56.3773C83.2348 56.3773 82.1929 56.3296 81.4666 56.3296C80.7402 56.3296 79.6826 56.3773 79.6826 56.3773V56.1017C80.7398 56.0062 80.7714 55.8261 80.7714 54.6593V47.0405H79.6835C78.1517 47.0405 77.8362 47.2186 77.5519 48.3368L77.3159 48.3392ZM156.522 49.7009V53.1203C156.522 55.9384 156.538 55.9384 155.622 56.1022V56.3611C155.622 56.3611 156.522 56.2966 157.201 56.2966C157.896 56.2966 158.78 56.3611 158.78 56.3611V56.1022C157.864 55.9403 157.864 55.9403 157.864 53.1203V49.7004C157.864 46.8967 157.864 46.8967 158.78 46.751V46.4917C158.78 46.4917 157.896 46.5241 157.201 46.5241C156.522 46.5241 155.622 46.4917 155.622 46.4917V46.751C156.553 46.8967 156.522 46.8967 156.522 49.7004M120.447 49.7004V53.1199C120.447 55.9379 120.463 55.9379 119.547 56.1017V56.3606C119.547 56.3606 120.447 56.2961 121.126 56.2961C121.821 56.2961 122.705 56.3606 122.705 56.3606V56.1017C121.789 55.9398 121.789 55.9398 121.789 53.1199V49.7004C121.789 46.8967 121.789 46.8967 122.705 46.751V46.4917C122.705 46.4917 121.821 46.5241 121.126 46.5241C120.447 46.5241 119.547 46.4917 119.547 46.4917V46.751C120.478 46.8967 120.447 46.8967 120.447 49.7004ZM132.665 46.4917C132.665 46.4917 134.654 46.5241 135.601 46.5241C136.578 46.5241 138.332 46.4917 138.585 46.4917C138.601 46.8155 138.743 47.8047 138.774 48.0961L138.553 48.161C138.206 47.2373 137.874 46.8317 134.843 47.0591V50.981C137.653 50.9972 138.032 51.0622 138.111 49.9928H138.363C138.295 50.8173 138.274 51.6451 138.3 52.4722H138.047C138.001 51.4515 137.636 51.5169 134.843 51.5169V55.7469C137.51 55.925 138.632 55.8281 139.042 54.483L139.311 54.5786C139.185 55.0648 138.837 56.3936 138.837 56.3936C138.837 56.3936 135.506 56.3458 134.921 56.3458C133.974 56.3458 132.664 56.3936 132.664 56.3936V56.1342C133.437 56.021 133.548 56.0053 133.579 54.7242V48.2097C133.564 46.8805 133.39 46.7835 132.664 46.751V46.4917H132.665ZM159.192 48.3392L159.35 46.4917C159.35 46.4917 162.618 46.5394 163.344 46.5394C164.071 46.5394 167.402 46.4917 167.402 46.4917L167.481 48.3392H167.228C166.976 47.221 166.644 47.0429 165.113 47.0429H164.037V54.6593C164.037 55.8419 164.069 56.0048 165.111 56.1017V56.3773C165.111 56.3773 164.069 56.3296 163.343 56.3296C162.616 56.3296 161.558 56.3773 161.558 56.3773V56.1017C162.616 56.0062 162.647 55.8261 162.647 54.6593V47.0405H161.558C160.027 47.0405 159.711 47.2186 159.427 48.3368L159.192 48.3392ZM154.027 46.7181C153.314 46.4949 152.577 46.3643 151.832 46.3293C149.971 46.3293 148.533 47.6905 148.533 49.1163C148.533 52.3251 153.38 51.4338 153.38 53.9299C153.38 55.9231 150.791 56.6849 149.117 55.3237C148.77 55.0481 148.722 54.4639 148.643 54.1086H148.343L148.453 55.9403C149.282 56.2871 150.165 56.4791 151.059 56.5073C153.38 56.491 154.549 54.8866 154.549 53.4122C154.549 50.1872 149.655 51.0784 149.671 48.6315C149.687 46.8642 151.755 46.4109 153.27 47.286C153.649 47.4641 153.807 48.4524 153.807 48.4524H154.107L154.028 46.7181H154.027ZM43.6883 46.4425C43.6883 46.4425 44.304 46.4587 44.9038 46.4587C45.5194 46.4587 46.0559 46.4425 46.0559 46.4425L49.3243 55.2081C49.4061 55.4602 49.5595 55.6813 49.7649 55.8431C49.9702 56.0048 50.218 56.0997 50.4764 56.1156V56.375C50.4764 56.375 49.5765 56.3272 48.8185 56.3272C48.0605 56.3272 47.1289 56.375 47.1289 56.375V56.1156C47.7282 56.0201 48.1233 56.0024 47.8236 55.2081L46.7976 52.2945H43.6246L42.5046 55.2081C42.2044 56.0024 42.8201 56.0344 43.3254 56.1156V56.375C43.3254 56.375 42.6623 56.3272 42.0462 56.3272C41.446 56.3272 40.7513 56.375 40.7513 56.375C40.7513 56.375 40.7354 56.4399 40.7354 56.1318C41.272 55.9217 41.3515 55.9217 41.6512 55.2086L44.8084 47.6261C45.061 46.9134 44.4138 46.8647 43.6879 46.6865V46.4425H43.6883ZM46.5617 51.5637L45.2965 47.9169L43.8931 51.5637H46.5617ZM43.6883 46.4425C43.6883 46.4425 44.304 46.4587 44.9038 46.4587C45.5194 46.4587 46.0559 46.4425 46.0559 46.4425L49.3243 55.2081C49.4061 55.4602 49.5595 55.6813 49.7649 55.8431C49.9702 56.0048 50.218 56.0997 50.4764 56.1156V56.375C50.4764 56.375 49.5765 56.3272 48.8185 56.3272C48.0605 56.3272 47.1289 56.375 47.1289 56.375V56.1156C47.7282 56.0201 48.1233 56.0024 47.8236 55.2081L46.7976 52.2945H43.6246L42.5046 55.2081C42.2044 56.0024 42.8201 56.0344 43.3254 56.1156V56.375C43.3254 56.375 42.6623 56.3272 42.0462 56.3272C41.446 56.3272 40.7513 56.375 40.7513 56.375C40.7513 56.375 40.7354 56.4399 40.7354 56.1318C41.272 55.9217 41.3515 55.9217 41.6512 55.2086L44.8084 47.6261C45.061 46.9134 44.4138 46.8647 43.6879 46.6865V46.4425H43.6883ZM46.5617 51.5637L45.2965 47.9169L43.8931 51.5637H46.5617ZM71.7898 46.4917C71.7898 46.4917 72.405 46.5079 73.0052 46.5079C73.6209 46.5079 74.1574 46.4917 74.1574 46.4917L77.4253 55.2587C77.5071 55.5108 77.6605 55.7319 77.8659 55.8937C78.0712 56.0554 78.319 56.1504 78.5774 56.1662V56.4251C78.5774 56.4251 77.678 56.3773 76.92 56.3773C76.162 56.3773 75.2304 56.4251 75.2304 56.4251V56.1662C75.8302 56.0707 76.2248 56.053 75.9246 55.2587L74.9019 52.3423H71.7265L70.6098 55.2587C70.3097 56.053 70.9253 56.085 71.4306 56.1662V56.4251C71.4306 56.4251 70.7675 56.3773 70.1514 56.3773C69.5517 56.3773 68.8565 56.4251 68.8565 56.4251C68.8565 56.4251 68.8411 56.4901 68.8411 56.1825C69.3776 55.9718 69.4567 55.9718 69.7564 55.2587L72.9136 47.6743C73.1662 46.9612 72.519 46.9129 71.7931 46.7348V46.4917H71.7898ZM74.6632 51.6124L73.4017 47.9657L71.9964 51.6119L74.6632 51.6124ZM71.7898 46.4917C71.7898 46.4917 72.405 46.5079 73.0052 46.5079C73.6209 46.5079 74.1574 46.4917 74.1574 46.4917L77.4253 55.2587C77.5071 55.5108 77.6605 55.7319 77.8659 55.8937C78.0712 56.0554 78.319 56.1504 78.5774 56.1662V56.4251C78.5774 56.4251 77.678 56.3773 76.92 56.3773C76.162 56.3773 75.2304 56.4251 75.2304 56.4251V56.1662C75.8302 56.0707 76.2248 56.053 75.9246 55.2587L74.9019 52.3423H71.7265L70.6098 55.2587C70.3097 56.053 70.9253 56.085 71.4306 56.1662V56.4251C71.4306 56.4251 70.7675 56.3773 70.1514 56.3773C69.5517 56.3773 68.8565 56.4251 68.8565 56.4251C68.8565 56.4251 68.8411 56.4901 68.8411 56.1825C69.3776 55.9718 69.4567 55.9718 69.7564 55.2587L72.9136 47.6743C73.1662 46.9612 72.519 46.9129 71.7931 46.7348V46.4917H71.7898ZM74.6632 51.6124L73.4017 47.9657L71.9964 51.6119L74.6632 51.6124ZM175.255 55.4335C175.255 55.542 175.224 55.6481 175.166 55.7384C175.107 55.8287 175.024 55.8991 174.926 55.9408C174.828 55.9824 174.721 55.9934 174.617 55.9724C174.514 55.9513 174.418 55.8992 174.344 55.8225C174.269 55.7459 174.218 55.6482 174.197 55.5418C174.176 55.4354 174.187 55.3251 174.227 55.2249C174.268 55.1246 174.336 55.0389 174.424 54.9786C174.512 54.9183 174.615 54.8862 174.721 54.8862C174.791 54.886 174.861 54.9 174.925 54.9274C174.99 54.9548 175.049 54.9951 175.099 55.046C175.148 55.0969 175.188 55.1573 175.215 55.2238C175.241 55.2903 175.255 55.3615 175.255 55.4335ZM174.282 55.4335C174.284 55.5223 174.311 55.6087 174.36 55.6817C174.41 55.7547 174.479 55.8112 174.559 55.844C174.64 55.8768 174.728 55.8844 174.812 55.866C174.897 55.8477 174.974 55.804 175.035 55.7406C175.096 55.6771 175.137 55.5967 175.153 55.5095C175.169 55.4222 175.16 55.332 175.126 55.2501C175.093 55.1682 175.036 55.0984 174.964 55.0492C174.892 55.0001 174.807 54.974 174.721 54.974C174.604 54.9758 174.492 55.0251 174.409 55.1111C174.327 55.1972 174.282 55.313 174.282 55.4335ZM174.614 55.7478H174.54V55.1221H174.73C174.753 55.1184 174.777 55.1204 174.8 55.1279C174.823 55.1354 174.844 55.1483 174.861 55.1654C174.878 55.1826 174.89 55.2036 174.898 55.2267C174.906 55.2499 174.908 55.2746 174.905 55.2988C174.908 55.319 174.907 55.3396 174.902 55.3594C174.898 55.3792 174.889 55.3978 174.877 55.414C174.865 55.4303 174.85 55.444 174.833 55.4542C174.816 55.4645 174.797 55.4711 174.777 55.4736L174.916 55.7478H174.832L174.7 55.4779H174.613L174.614 55.7478ZM174.707 55.3963C174.797 55.3963 174.828 55.37 174.828 55.3007C174.828 55.2315 174.794 55.2052 174.72 55.2052H174.616V55.3963H174.707ZM41.5739 61.96C41.5739 61.96 42.4115 61.9757 42.8052 61.9757C43.2156 61.9757 43.9415 61.96 44.0527 61.96C44.0527 62.1057 44.116 62.5107 44.1318 62.6406L44.0387 62.6731C43.8968 62.2843 43.7544 62.1061 42.4916 62.2031V63.84C43.6595 63.8562 43.8177 63.8877 43.8493 63.4349H43.9596C43.928 63.84 43.928 64.0831 43.928 64.4723H43.8349C43.8191 64.0511 43.6614 64.0673 42.4929 64.0673V65.8499C43.6134 65.9148 44.0718 65.8823 44.2453 65.3154L44.3556 65.3479C44.3091 65.5585 44.1662 66.1092 44.1662 66.1092C44.1662 66.1092 42.761 66.0935 42.5241 66.0935C42.1295 66.0935 41.5772 66.1092 41.5772 66.1092V66.0137C41.8927 65.9659 41.9401 65.9487 41.956 65.4142V62.6917C41.956 62.1248 41.8299 62.1248 41.5772 62.076V61.9619L41.5739 61.96ZM57.8354 61.96C57.8354 61.96 58.673 61.9757 59.0666 61.9757C59.4771 61.9757 60.2029 61.96 60.3142 61.96C60.3142 62.1057 60.3774 62.5107 60.3933 62.6406L60.3002 62.6731C60.1583 62.2843 60.0159 62.1061 58.753 62.2031V63.84C59.921 63.8562 60.0792 63.8877 60.1108 63.4349H60.2211C60.1895 63.84 60.1895 64.0831 60.1895 64.4723H60.0964C60.0806 64.0511 59.9228 64.0673 58.7544 64.0673V65.8499C59.8749 65.9148 60.3332 65.8823 60.5068 65.3154L60.6171 65.3479C60.5705 65.5585 60.4277 66.1092 60.4277 66.1092C60.4277 66.1092 59.0224 66.0935 58.7856 66.0935C58.391 66.0935 57.8387 66.1092 57.8387 66.1092V66.0137C58.1542 65.9659 58.2016 65.9487 58.2174 65.4142V62.6917C58.2174 62.1248 58.0913 62.1248 57.8387 62.076V61.9619L57.8354 61.96ZM90.3286 61.9757C90.3286 61.9757 91.1661 61.992 91.5598 61.992C91.9702 61.992 92.6961 61.9757 92.8068 61.9757C92.8068 62.1219 92.8701 62.5269 92.8859 62.6564L92.7929 62.6888C92.651 62.2996 92.5086 62.1219 91.2457 62.2189V63.8533C92.4137 63.8696 92.5719 63.9011 92.6035 63.4483H92.7138C92.6821 63.8533 92.6821 64.0964 92.6821 64.4848H92.5891C92.5733 64.064 92.4155 64.0797 91.2471 64.0797V65.8623C92.368 65.9272 92.8259 65.8948 92.9995 65.3278L93.1098 65.3603C93.0632 65.5709 92.9204 66.1216 92.9204 66.1216C92.9204 66.1216 91.5151 66.1054 91.2783 66.1054C90.8837 66.1054 90.3314 66.1216 90.3314 66.1216V66.0261C90.6468 65.9783 90.6943 65.9616 90.7101 65.4267V62.7041C90.7101 62.1372 90.584 62.1372 90.3314 62.0889V61.9753L90.3286 61.9757ZM46.2313 61.96C46.2313 61.96 46.484 61.9757 46.7366 61.9757C47.0051 61.9757 47.1471 61.96 47.1471 61.96L49.8785 65.1687V62.6592C49.8785 62.1892 49.7854 62.1085 49.4048 62.0593V61.9638C49.4048 61.9638 49.7361 61.9796 49.9888 61.9796C50.2731 61.9796 50.5569 61.9638 50.5569 61.9638V62.0593C50.2414 62.173 50.1623 62.1892 50.1623 62.6592V66.1756L49.9571 66.1594L47.0847 62.8025V65.3631C47.0847 65.7519 47.1312 65.9139 47.5426 65.9951V66.0906C47.5426 66.0906 47.2113 66.0743 46.9428 66.0743C46.6901 66.0743 46.3588 66.0906 46.3588 66.0906V65.9951C46.7534 65.9139 46.8167 65.7519 46.8167 65.3631V62.6592C46.8167 62.2217 46.5166 62.1405 46.2327 62.0593V61.9638L46.2313 61.96ZM70.0868 61.96C70.0868 61.96 70.3394 61.9757 70.5921 61.9757C70.7238 61.9776 70.8555 61.9724 70.9867 61.96L73.7321 65.1687V62.6592C73.7321 62.1892 73.639 62.1085 73.2584 62.0593V61.9638C73.2584 61.9638 73.5897 61.9796 73.8423 61.9796C74.1267 61.9796 74.4105 61.9638 74.4105 61.9638V62.0593C74.095 62.173 74.0159 62.1892 74.0159 62.6592V66.1756L73.8107 66.1594L70.9388 62.8025V65.3631C70.9388 65.7519 70.9853 65.9139 71.3966 65.9951V66.0906C71.3966 66.0906 71.0653 66.0743 70.7968 66.0743C70.5442 66.0743 70.2129 66.0906 70.2129 66.0906V65.9951C70.6075 65.9139 70.6707 65.7519 70.6707 65.3631V62.6592C70.6707 62.2217 70.3706 62.1405 70.0868 62.0593V61.9638V61.96ZM106.669 61.96C106.669 61.96 106.922 61.9757 107.174 61.9757C107.301 61.9781 107.427 61.9729 107.553 61.96L110.316 65.1687V62.6592C110.316 62.1892 110.223 62.1085 109.842 62.0593V61.9638C109.842 61.9638 110.173 61.9796 110.426 61.9796C110.71 61.9796 110.994 61.9638 110.994 61.9638V62.0593C110.679 62.173 110.6 62.1892 110.6 62.6592V66.1756L110.394 66.1575L107.522 62.8025V65.3631C107.522 65.7519 107.568 65.9139 107.979 65.9951V66.0906C107.979 66.0906 107.648 66.0743 107.38 66.0743C107.127 66.0743 106.796 66.0906 106.796 66.0906V65.9951C107.19 65.9139 107.254 65.7519 107.254 65.3631V62.6592C107.254 62.2217 106.953 62.1405 106.67 62.0593V61.9638L106.669 61.96ZM135.842 61.9757C135.842 61.9757 136.205 61.992 136.489 61.992C136.774 61.992 137.168 61.9757 137.168 61.9757V62.0894C136.916 62.1544 136.774 62.1706 136.947 62.462L137.8 63.9049L138.621 62.4787C138.731 62.2518 138.778 62.1381 138.384 62.0737V61.9781C138.384 61.9781 138.652 61.9944 138.92 61.9944C139.141 61.9944 139.394 61.9781 139.394 61.9781V62.0737C139.126 62.1381 139.126 62.2031 138.952 62.4624L137.894 64.1342L137.91 65.431C137.91 65.9979 138.052 65.9817 138.384 66.0629V66.1584C138.384 66.1584 137.958 66.1422 137.642 66.1422C137.342 66.1422 136.9 66.1584 136.9 66.1584V66.0629C137.279 65.9817 137.327 66.0151 137.342 65.4472V64.1323L136.301 62.4792C136.048 62.1553 136.08 62.1386 135.843 62.0904V61.9757H135.842ZM84.7857 62.7194L84.8648 61.9581C84.8648 61.9581 86.2226 61.9738 86.5399 61.9738C86.8401 61.9738 88.2295 61.9581 88.2295 61.9581L88.2612 62.7194H88.1681C88.0578 62.2657 87.9154 62.1849 87.284 62.1849H86.8261V65.377C86.8261 65.8632 86.8419 65.9439 87.284 65.9769V66.0901C87.284 66.0901 86.8419 66.0739 86.5423 66.0739C86.2268 66.0739 85.7847 66.0901 85.7847 66.0901V65.9769C86.2268 65.9444 86.2426 65.8632 86.2426 65.377V62.1849H85.7847C85.1533 62.1849 85.0114 62.2661 84.9006 62.7194H84.7857ZM30.2551 62.0407C29.9539 61.9393 29.641 61.8794 29.3244 61.8625C28.987 61.8363 28.6526 61.9445 28.3909 62.1647C28.1292 62.385 27.9602 62.7003 27.9192 63.0452C27.9192 64.4227 29.9875 64.0334 29.9875 65.1033C29.9875 65.9454 28.8824 66.2697 28.1728 65.6865C28.015 65.5733 27.9992 65.3302 27.9676 65.184H27.8415L27.888 65.9616C28.241 66.1015 28.6149 66.1781 28.9931 66.188C29.3468 66.2273 29.7012 66.1207 29.9784 65.8917C30.2555 65.6628 30.4327 65.3302 30.471 64.9672C30.4741 64.9368 30.4763 64.9064 30.4775 64.876C30.4775 63.5142 28.3933 63.8877 28.3933 62.8503C28.4092 62.0889 29.2775 61.895 29.9247 62.2671C30.0983 62.3483 30.1616 62.7696 30.1616 62.7696H30.2877L30.2556 62.0383L30.2551 62.0407ZM38.3539 63.3055V64.7317C38.3539 65.9148 38.3539 65.9148 37.9752 65.996V66.0915C37.9752 66.0915 38.3381 66.0591 38.6383 66.0591C38.9226 66.0591 39.2855 66.0915 39.2855 66.0915V65.996C38.9067 65.9148 38.9067 65.9148 38.9067 64.7317V63.3055C38.9067 62.1066 38.9067 62.1066 39.2855 62.0574V61.9428C39.2855 61.9428 38.9226 61.959 38.6383 61.959C38.3381 61.959 37.9752 61.9428 37.9752 61.9428V62.056C38.3539 62.1037 38.3539 62.1037 38.3539 63.304M36.0334 62.0722C35.6096 61.961 35.1755 61.8959 34.7384 61.8778C34.1651 61.8606 33.6086 62.0778 33.1912 62.4816C32.7739 62.8855 32.5298 63.443 32.5128 64.0315V64.0654C32.5128 65.4267 33.4597 66.221 34.7547 66.221C35.1586 66.2271 35.5601 66.1556 35.9385 66.0103L36.1595 65.3297L36.0334 65.2972C35.9817 65.4853 35.8707 65.6506 35.7179 65.7672C35.4449 65.9136 35.1419 65.9914 34.8338 65.9941C34.6061 65.9915 34.3812 65.9429 34.1718 65.851C33.9624 65.7591 33.7727 65.6258 33.6135 65.4587C33.4544 65.2916 33.3288 65.0939 33.2441 64.877C33.1593 64.66 33.117 64.4281 33.1196 64.1944C33.1196 64.1413 33.1233 64.0883 33.1284 64.0353C33.1284 62.4629 34.1703 62.0904 34.7864 62.0904C35.102 62.0685 35.4164 62.1477 35.6863 62.3172C35.7692 62.3792 35.8377 62.4593 35.8869 62.5517C35.9361 62.6441 35.9646 62.7466 35.9706 62.8517L36.0967 62.8192L36.0334 62.0741V62.0722ZM55.6573 62.056C55.2334 61.9449 54.7994 61.8799 54.3623 61.8621C53.7888 61.8448 53.2321 62.0622 52.8147 62.4662C52.3974 62.8703 52.1534 63.428 52.1367 64.0167V64.0506C52.1367 65.4119 53.0836 66.2062 54.3786 66.2062C54.7825 66.2123 55.184 66.1408 55.5623 65.9955L55.7834 65.3149L55.6573 65.2824C55.6052 65.4704 55.4944 65.6356 55.3418 65.7524C55.0688 65.899 54.7657 65.9768 54.4577 65.9793C54.2298 65.9769 54.0047 65.9285 53.7951 65.8367C53.5855 65.745 53.3956 65.6117 53.2362 65.4446C53.0768 65.2774 52.9511 65.0796 52.8662 64.8626C52.7813 64.6455 52.739 64.4134 52.7416 64.1796C52.7416 64.1265 52.7453 64.0735 52.7504 64.0205C52.7504 62.4486 53.7923 62.0756 54.4083 62.0756C54.7239 62.0535 55.0384 62.1326 55.3083 62.302C55.3912 62.364 55.4597 62.4442 55.5089 62.5367C55.5581 62.6292 55.5866 62.7317 55.5926 62.8369L55.7196 62.8025L55.6563 62.0569L55.6573 62.056ZM98.4102 62.0722C97.9864 61.961 97.5523 61.8959 97.1152 61.8778C96.5418 61.8606 95.9852 62.0779 95.5679 62.4818C95.1505 62.8858 94.9065 63.4434 94.8896 64.032V64.0654C94.8896 65.4267 95.8365 66.221 97.1315 66.221C97.5354 66.2271 97.9369 66.1556 98.3153 66.0103L98.5363 65.3297L98.4102 65.2972C98.3585 65.4853 98.2475 65.6506 98.0947 65.7672C97.8217 65.9136 97.5187 65.9914 97.2106 65.9941C96.9829 65.9915 96.758 65.9429 96.5486 65.851C96.3392 65.7591 96.1495 65.6258 95.9903 65.4587C95.8312 65.2916 95.7056 65.0939 95.6208 64.877C95.5361 64.66 95.4938 64.4281 95.4964 64.1944C95.4964 64.1413 95.5001 64.0883 95.5052 64.0353C95.5052 62.4629 96.5471 62.0904 97.1632 62.0904C97.4788 62.0684 97.7933 62.1477 98.0631 62.3172C98.146 62.3792 98.2145 62.4593 98.2637 62.5517C98.3129 62.6441 98.3414 62.7466 98.3474 62.8517L98.4735 62.8192L98.4102 62.0741V62.0722ZM21.0665 61.9767C21.0665 61.9767 21.7295 61.9929 22.1241 61.9929H23.561L23.6541 62.6898L23.575 62.7056C23.3856 62.3005 23.2907 62.1711 22.6443 62.1711C22.4386 62.1664 22.2329 62.1772 22.0287 62.2036V63.9541H22.5341C23.2916 63.9541 23.3251 63.9063 23.4023 63.5166H23.4954C23.4954 63.5166 23.4796 63.9383 23.4796 64.1003C23.4796 64.3759 23.4954 64.5865 23.4954 64.5865H23.4023C23.3232 64.1977 23.2921 64.1647 22.5341 64.1647H22.0306V65.2342C22.0306 65.9793 22.0306 65.9955 22.4726 66.0462V66.1274C22.4726 66.1274 21.9203 66.1111 21.7621 66.1111C21.6039 66.1111 21.0674 66.1274 21.0674 66.1274V66.0462C21.4303 65.9812 21.462 65.965 21.462 65.2342V62.867C21.462 62.1219 21.4462 62.1377 21.0674 62.0732V61.9776L21.0665 61.9767ZM119.142 61.9767V62.0579C119.363 62.1057 119.521 62.1057 119.521 62.6578V65.4611C119.521 65.9311 119.457 65.996 119.142 66.0447V66.1403C119.142 66.1403 119.852 66.1078 120.136 66.124C120.421 66.124 121.699 66.1403 121.699 66.1403C121.754 65.8758 121.828 65.6158 121.92 65.3627L121.794 65.3302C121.701 65.6215 121.589 65.8647 121.053 65.8647H120.087V62.6554C120.087 62.1047 120.261 62.1047 120.497 62.0555V61.9743H119.142L119.142 61.9767ZM101.522 63.8247H103.606V62.835C103.606 62.1706 103.575 62.0899 103.243 62.0569V61.9614H104.538V62.0569C104.223 62.0894 104.191 62.1706 104.191 62.835V65.2012C104.191 65.8331 104.223 65.9463 104.538 65.9788V66.092C104.538 66.092 104.128 66.0758 103.923 66.0758C103.733 66.0758 103.244 66.092 103.244 66.092V65.9788C103.575 65.9463 103.607 65.8331 103.607 65.2012V64.1156H101.523V65.2012C101.523 65.8331 101.554 65.9463 101.886 65.9788V66.092C101.886 66.092 101.396 66.0758 101.191 66.0758C101.002 66.0758 100.591 66.092 100.591 66.092V65.9788C100.907 65.9463 100.938 65.8331 100.938 65.2012V62.835C100.938 62.1706 100.907 62.0899 100.591 62.0569V61.9614H101.886V62.0569C101.555 62.0894 101.523 62.1706 101.523 62.835L101.522 63.8247ZM133.459 62.1553C133.068 61.9934 132.65 61.9108 132.228 61.9122C131.947 61.9049 131.667 61.9545 131.404 62.0582C131.142 62.162 130.902 62.3177 130.698 62.5167C130.494 62.7156 130.331 62.9538 130.217 63.2177C130.103 63.4815 130.041 63.7659 130.034 64.0544V64.116C130.034 65.3966 131.057 66.1255 132.181 66.1255C132.683 66.1278 133.181 66.0344 133.649 65.8499V64.5846C133.637 64.4988 133.659 64.4117 133.71 64.3424C133.76 64.2731 133.836 64.2272 133.919 64.2149C133.929 64.2149 133.939 64.2149 133.949 64.212V64.0988C133.949 64.0988 133.554 64.1151 133.349 64.1151C133.144 64.1151 132.686 64.0988 132.686 64.0988V64.212C132.86 64.2598 133.128 64.244 133.128 64.5846V65.7023C132.867 65.8657 132.565 65.9448 132.26 65.9291C131.486 65.9291 130.665 65.4104 130.665 64.1141C130.665 62.2829 131.881 62.1047 132.196 62.1047C132.607 62.1047 133.364 62.3153 133.38 62.8823H133.506L133.46 62.1534L133.459 62.1553ZM15.0043 64.0668C14.9962 63.6302 15.1151 63.201 15.3458 62.8341C15.5764 62.4672 15.9084 62.1791 16.2992 62.0067C16.6901 61.8343 17.1221 61.7853 17.5402 61.8661C17.9583 61.9468 18.3435 62.1536 18.6465 62.4601C18.9496 62.7666 19.1568 63.1588 19.2418 63.5867C19.3267 64.0146 19.2854 64.4588 19.1233 64.8625C18.9612 65.2663 18.6856 65.6113 18.3316 65.8535C17.9776 66.0957 17.5613 66.2241 17.1359 66.2224C16.8594 66.2259 16.5849 66.1735 16.3281 66.0682C16.0714 65.9628 15.8373 65.8066 15.6394 65.6083C15.4414 65.4101 15.2835 65.1738 15.1745 64.9129C15.0655 64.652 15.0077 64.3717 15.0043 64.0878V64.0668ZM18.6193 64.0668C18.6193 62.7051 17.9088 62.1219 17.135 62.1219C16.3612 62.1219 15.6511 62.707 15.6511 64.0668C15.6511 65.4267 16.3616 66.0118 17.1354 66.0118C17.9093 66.0118 18.6198 65.4286 18.6198 64.0668M65.8249 61.9562C65.8249 61.9562 66.0813 61.9628 66.3307 61.9628C66.5801 61.9628 66.81 61.9562 66.81 61.9562L68.1697 65.6029C68.2037 65.7078 68.2675 65.7997 68.3529 65.867C68.4384 65.9342 68.5415 65.9737 68.6489 65.9802V66.0882C68.6489 66.0882 68.2767 66.0681 67.9593 66.0681C67.642 66.0681 67.2567 66.0882 67.2567 66.0882V65.9802C67.5066 65.9397 67.6704 65.9325 67.5457 65.6029L67.1199 64.3897H65.7998L65.3345 65.6029C65.2093 65.933 65.4657 65.9468 65.676 65.9802V66.0882C65.676 66.0882 65.4001 66.0681 65.1442 66.0681C64.8882 66.0681 64.6058 66.0882 64.6058 66.0882C64.6058 66.0882 64.5993 66.1149 64.5993 65.9869C64.8226 65.8991 64.8557 65.899 64.9804 65.6048L66.294 62.4524C66.3991 62.1558 66.1297 62.1357 65.8286 62.0612V61.9604L65.8249 61.9562ZM67.0199 64.0864L66.4945 62.5694L65.9101 64.0864H67.0199ZM76.6864 61.96V62.0732C77.0493 62.1057 77.0493 62.1687 77.0651 62.8508V65.2007C77.0651 65.9139 77.0651 65.9459 76.6864 65.9946V66.0901C76.6864 66.0901 77.0019 66.0739 77.2071 66.0739C77.4123 66.0739 77.9018 66.1216 78.3122 66.1216C80.0962 66.1216 80.6644 64.9872 80.6644 64.0148C80.6713 63.4628 80.4645 62.9305 80.0893 62.535C79.7141 62.1395 79.2013 61.9131 78.6635 61.9055C78.6207 61.9055 78.5779 61.9055 78.5351 61.9079C78.2824 61.9079 77.7775 61.9724 77.2089 61.9724C77.0354 61.9724 76.6882 61.9566 76.6882 61.9566L76.6864 61.96ZM77.6333 62.2356C77.8597 62.1721 78.0933 62.14 78.328 62.14C78.9436 62.14 80.0334 62.3994 80.0334 64.0506C80.0334 65.6387 79.1958 65.8981 78.4388 65.8981C78.168 65.8943 77.8983 65.8623 77.6338 65.8026V62.2356H77.6333ZM112.827 64.0506C112.819 63.614 112.938 63.1848 113.168 62.8179C113.399 62.4509 113.731 62.1629 114.122 61.9904C114.512 61.818 114.945 61.7691 115.363 61.8498C115.781 61.9306 116.166 62.1374 116.469 62.4439C116.772 62.7503 116.979 63.1426 117.064 63.5705C117.149 63.9984 117.108 64.4425 116.946 64.8463C116.784 65.25 116.508 65.595 116.154 65.8372C115.8 66.0795 115.384 66.2079 114.958 66.2062C114.682 66.2097 114.407 66.1573 114.151 66.0519C113.894 65.9466 113.66 65.7903 113.462 65.5921C113.264 65.3939 113.106 65.1576 112.997 64.8967C112.888 64.6358 112.83 64.3554 112.827 64.0716V64.0506ZM116.442 64.0506C116.442 62.6893 115.731 62.1057 114.957 62.1057C114.184 62.1057 113.473 62.6888 113.473 64.0506C113.473 65.4123 114.183 65.9955 114.957 65.9955C115.732 65.9955 116.444 65.4114 116.444 64.0501M123.688 64.0501C123.68 63.6135 123.799 63.1843 124.029 62.8174C124.26 62.4504 124.592 62.1624 124.983 61.99C125.373 61.8175 125.806 61.7686 126.224 61.8493C126.642 61.9301 127.027 62.1369 127.33 62.4434C127.633 62.7499 127.84 63.1421 127.925 63.57C128.01 63.9979 127.969 64.4421 127.807 64.8458C127.645 65.2495 127.369 65.5945 127.015 65.8368C126.661 66.079 126.245 66.2074 125.819 66.2057C125.543 66.2092 125.268 66.1568 125.012 66.0515C124.755 65.9461 124.521 65.7898 124.323 65.5916C124.125 65.3934 123.967 65.1571 123.858 64.8962C123.749 64.6353 123.691 64.355 123.688 64.0711V64.0501ZM127.303 64.0501C127.303 62.6888 126.593 62.1052 125.818 62.1052C125.044 62.1052 124.334 62.6884 124.334 64.0501C124.334 65.4119 125.045 65.9951 125.818 65.9951C126.592 65.9951 127.303 65.4119 127.303 64.0501ZM19.3117 51.4018C19.296 50.3761 19.577 49.3687 20.1191 48.5069C20.6611 47.6451 21.44 46.9677 22.3571 46.5602C23.2743 46.1528 24.2886 46.0337 25.2716 46.218C26.2547 46.4022 27.1625 46.8816 27.8802 47.5955C28.5979 48.3093 29.0933 49.2256 29.3037 50.2284C29.514 51.2312 29.43 52.2756 29.0622 53.2294C28.6943 54.1831 28.0592 55.0036 27.2371 55.5869C26.4151 56.1701 25.443 56.4901 24.4437 56.5063H24.3637C23.0413 56.524 21.7662 56.0018 20.8189 55.0546C19.8716 54.1074 19.3296 52.8127 19.3122 51.4553V51.4018M27.8531 51.4018C27.8531 48.2093 26.178 46.7993 24.3632 46.7993C22.5317 46.7993 20.8585 48.2093 20.8585 51.4018C20.8585 54.6268 22.5336 56.0201 24.3632 56.0201C26.178 56.0201 27.8531 54.6263 27.8531 51.4018ZM146.513 54.3202C146.119 53.672 145.061 51.9702 144.382 51.4032C144.982 51.1276 146.592 50.917 146.592 49.0695C146.592 47.1408 144.714 46.4902 143.102 46.4764C142.408 46.4764 141.46 46.5896 141.003 46.5896C140.623 46.5896 139.787 46.5571 139.787 46.5571V46.784C140.419 46.8652 140.703 47.0916 140.703 48.1615V54.6273C140.703 55.8586 140.45 56.086 139.787 56.1672V56.3941C139.787 56.3941 140.829 56.3616 141.35 56.3616C142.234 56.3778 142.976 56.3778 142.976 56.3778V56.1672C142.266 56.021 142.124 55.989 142.061 54.6273V51.6616C143.118 51.5661 143.813 52.3905 144.571 53.5903C145.115 54.5595 145.721 55.4907 146.385 56.3778C146.606 56.3778 147.176 56.3616 147.459 56.3616C147.774 56.3616 148.359 56.3941 148.359 56.3941V56.1672C147.493 56.0368 147.508 55.9398 146.514 54.3202M142.062 51.1926V47.2057C143.072 46.7845 145.109 46.8977 145.156 49.102C145.203 51.3373 142.945 51.418 142.062 51.1911V51.1926Z" fill="#545454"/>
</g>
<defs>
<clipPath id="clip0_18672_46158">
<rect width="161" height="22" fill="white" transform="translate(15.0039 44.2224)"/>
</clipPath>
</defs>
</svg>
