<svg width="192" height="109" viewBox="0 0 192 109" fill="none" xmlns="http://www.w3.org/2000/svg">
<g clip-path="url(#clip0_18672_45928)">
<path d="M97.3164 33.7841H99.9922V38.0369C100.407 37.2288 101.263 36.5712 102.563 36.5712C104.073 36.5712 105.12 37.513 105.12 39.5181V44.6007H103.516C103.468 44.6007 102.521 44.6007 102.444 43.5292V40.0544C102.444 39.1716 102.1 38.7381 101.322 38.7381C100.545 38.7381 99.9922 39.2162 99.9922 40.2193V44.6018H97.3164V33.7841Z" fill="#545454"/>
<path d="M63.4277 41.2036H66.343C66.4176 41.966 66.7577 42.5946 68.0328 42.5946C68.9151 42.5946 69.4085 42.161 69.4085 41.5325C69.4085 40.8738 69.0053 40.6943 67.7197 40.4952C64.6977 40.1415 63.6817 39.2484 63.6817 37.0898C63.6817 35.1605 65.2658 33.7509 67.8182 33.7509C70.3706 33.7509 71.8396 34.8275 72.0335 37.0867H69.1929C69.0892 36.3243 68.6548 35.9353 67.8172 35.9353C66.9795 35.9353 66.5731 36.3098 66.5731 36.8481C66.5731 37.4467 66.9018 37.7153 68.2319 37.8948C70.9377 38.1935 72.3279 38.8968 72.3279 41.214C72.3279 43.1734 70.7729 44.7739 68.0225 44.7739C65.0419 44.7781 63.5169 43.5219 63.4277 41.2036Z" fill="#545454"/>
<path d="M73.0039 40.7846V40.6653C73.0039 38.152 74.87 36.567 77.2949 36.567C79.7197 36.567 81.5558 38.1074 81.5558 40.5906V40.7099C81.5558 43.2522 79.6897 44.7781 77.2804 44.7781C74.871 44.7781 73.0039 43.3124 73.0039 40.7846ZM78.8344 40.74V40.6207C78.8344 39.3044 78.316 38.571 77.2949 38.571C76.2737 38.571 75.7398 39.2743 75.7398 40.5906V40.7099C75.7398 42.0583 76.2582 42.7844 77.2949 42.7844C78.2963 42.7886 78.8344 42.0407 78.8344 40.74Z" fill="#545454"/>
<path d="M106.016 40.7846V40.6653C106.016 38.152 107.882 36.567 110.246 36.567C112.384 36.567 114.223 37.7931 114.223 40.6051V41.3084H108.721C108.796 42.3405 109.394 42.939 110.351 42.939C111.233 42.939 111.607 42.5355 111.711 42.0117H114.222C113.983 43.775 112.623 44.7791 110.261 44.7791C107.809 44.7781 106.016 43.3425 106.016 40.7846ZM111.621 39.7971C111.577 38.8552 111.113 38.3314 110.245 38.3314C109.438 38.3314 108.885 38.85 108.75 39.7971H111.621Z" fill="#545454"/>
<path d="M115.246 36.7766H117.922V38.3325C118.415 37.1655 119.237 36.6573 120.448 36.6728V39.1706C118.819 39.126 117.922 39.6342 117.922 40.8904V43.5271C117.92 43.8103 117.807 44.0814 117.607 44.2819C117.408 44.4824 117.137 44.5962 116.854 44.5986H115.246V36.7766Z" fill="#545454"/>
<path d="M121.197 36.7765H123.873V38.0327C124.288 37.2246 125.144 36.567 126.444 36.567C127.954 36.567 129.001 37.5089 129.001 39.5139V44.5965H127.397C127.349 44.5965 126.402 44.5965 126.325 43.525V40.0502C126.325 39.1675 125.981 38.7339 125.203 38.7339C124.426 38.7339 123.873 39.2121 123.873 40.2151V44.5976H121.197V36.7765Z" fill="#545454"/>
<path d="M133.158 39.3189V39.1996C133.158 35.9094 135.49 33.7405 138.614 33.7405C141.395 33.7405 143.323 35.0267 143.577 37.8533H140.422C140.303 36.761 139.705 36.1635 138.629 36.1635C137.253 36.1635 136.387 37.2402 136.387 39.1851V39.3044C136.387 41.2337 137.209 42.326 138.674 42.326C139.75 42.326 140.513 41.7575 140.662 40.5761H143.712C143.505 43.3435 141.5 44.7791 138.736 44.7791C134.994 44.7781 133.158 42.5946 133.158 39.3189Z" fill="#545454"/>
<path d="M150.377 40.7846V40.6653C150.377 38.152 152.243 36.567 154.668 36.567C157.093 36.567 158.929 38.1074 158.929 40.5906V40.7099C158.929 43.2522 157.063 44.7781 154.653 44.7781C152.244 44.7781 150.377 43.3124 150.377 40.7846ZM156.207 40.74V40.6207C156.207 39.3044 155.689 38.571 154.668 38.571C153.647 38.571 153.113 39.2743 153.113 40.5906V40.7099C153.113 42.0583 153.631 42.7844 154.668 42.7844C155.669 42.7886 156.207 42.0407 156.207 40.74Z" fill="#545454"/>
<path d="M159.408 42.1164H161.875C161.965 42.6848 162.219 42.9991 162.981 42.9991C163.639 42.9991 163.938 42.745 163.938 42.356C163.938 41.967 163.564 41.8021 162.486 41.6528C160.393 41.3831 159.511 40.77 159.511 39.1394C159.511 37.4041 161.05 36.567 162.859 36.567C164.788 36.567 166.133 37.2257 166.313 39.0948H163.891C163.787 38.5762 163.502 38.3169 162.889 38.3169C162.307 38.3169 162.007 38.571 162.007 38.9299C162.007 39.2888 162.366 39.4486 163.323 39.573C165.491 39.8427 166.537 40.4111 166.537 42.0863C166.537 43.941 165.161 44.7832 162.993 44.7832C160.768 44.7781 159.467 43.8507 159.408 42.1164Z" fill="#545454"/>
<path d="M167.055 42.1165H169.518C169.608 42.6849 169.862 42.9992 170.624 42.9992C171.282 42.9992 171.581 42.7451 171.581 42.3561C171.581 41.9671 171.208 41.8022 170.13 41.6528C168.036 41.3831 167.154 40.7701 167.154 39.1395C167.154 37.4042 168.694 36.5671 170.503 36.5671C172.431 36.5671 173.777 37.2257 173.956 39.0949H171.54C171.436 38.5763 171.151 38.317 170.538 38.317C169.955 38.317 169.656 38.5711 169.656 38.93C169.656 39.2889 170.015 39.4486 170.971 39.5731C173.139 39.8428 174.185 40.4112 174.185 42.0864C174.185 43.941 172.809 44.7833 170.642 44.7833C168.416 44.7781 167.115 43.8508 167.055 42.1165Z" fill="#545454"/>
<path d="M64.0391 55.2224V48.8629H67.1036V55.0865C67.1036 56.5968 67.4778 57.3302 68.7779 57.3302C70.0489 57.3302 70.4522 56.6424 70.4522 55.0419V48.8629H73.5468V55.1747C73.5468 58.2865 71.7232 59.7387 68.7779 59.7387C65.7579 59.7366 64.0391 58.2108 64.0391 55.2224Z" fill="#545454"/>
<path d="M84.082 49.6107C84.082 48.8182 84.7103 48.2197 85.5469 48.2197C86.3835 48.2197 87.0273 48.8182 87.0273 49.6107C87.0273 50.4032 86.3846 50.9872 85.5469 50.9872C84.7092 50.9872 84.082 50.4032 84.082 49.6107ZM84.2168 51.735H86.8926V59.5581H84.2168V51.735Z" fill="#545454"/>
<path d="M87.5039 51.734H90.359L91.9887 56.7783L93.5884 51.7382H96.1449L93.2898 59.5613H90.3746L87.5039 51.734Z" fill="#545454"/>
<path d="M95.9922 55.741V55.6217C95.9922 53.1084 97.8583 51.5234 100.223 51.5234C102.361 51.5234 104.2 52.7495 104.2 55.5615V56.2648H98.698C98.7727 57.3021 99.3708 57.8954 100.328 57.8954C101.21 57.8954 101.583 57.4919 101.688 56.9681H104.199C103.959 58.7314 102.599 59.7355 100.238 59.7355C97.7857 59.7366 95.9922 58.301 95.9922 55.741ZM101.598 54.7535C101.553 53.8117 101.09 53.2878 100.222 53.2878C99.4144 53.2878 98.8618 53.8065 98.727 54.7535H101.598Z" fill="#545454"/>
<path d="M110.842 57.0739H113.308C113.398 57.6424 113.652 57.9567 114.414 57.9567C115.073 57.9567 115.371 57.7025 115.371 57.3135C115.371 56.9246 114.997 56.7596 113.92 56.6103C111.827 56.3406 110.944 55.7276 110.944 54.097C110.944 52.3616 112.484 51.5245 114.293 51.5245C116.221 51.5245 117.567 52.1832 117.746 54.0524H115.33C115.226 53.5337 114.941 53.2744 114.328 53.2744C113.746 53.2744 113.446 53.5285 113.446 53.8874C113.446 54.2463 113.805 54.4061 114.762 54.5305C116.929 54.8002 117.975 55.3687 117.975 57.0439C117.975 58.8985 116.6 59.7408 114.432 59.7408C112.206 59.7366 110.905 58.8093 110.842 57.0739Z" fill="#545454"/>
<path d="M118.799 49.6107C118.799 48.8182 119.427 48.2197 120.264 48.2197C121.1 48.2197 121.744 48.8182 121.744 49.6107C121.744 50.4032 121.101 50.9872 120.264 50.9872C119.426 50.9872 118.799 50.4032 118.799 49.6107ZM118.934 51.735H121.609V59.5581H118.933L118.934 51.735Z" fill="#545454"/>
<path d="M123.315 57.0438V53.5628H122.373V51.734H123.315V50.1045H125.991V51.7351H127.532V53.5628H125.992V56.7939C125.992 57.3623 126.276 57.6164 126.784 57.6164C127.045 57.6206 127.303 57.5748 127.546 57.4816V59.5157C127.065 59.6562 126.567 59.7315 126.066 59.7397C124.302 59.7366 123.315 58.884 123.315 57.0438Z" fill="#545454"/>
<path d="M131.086 58.7647L127.961 51.7351H130.864L132.478 55.908L133.973 51.7351H136.529L132.341 62.1721H129.785L131.086 58.7647Z" fill="#545454"/>
<path d="M92.0029 42.0864V38.6011H91.0605V36.7766H92.0029V35.146H94.6787V36.7766H96.2234V38.6011H94.6787V41.8312C94.6787 42.3996 94.9627 42.6538 95.4707 42.6538C95.731 42.6579 95.9897 42.6122 96.2327 42.5189V44.553C95.7515 44.6935 95.2535 44.7689 94.7523 44.7771C92.9899 44.7781 92.0029 43.9255 92.0029 42.0864Z" fill="#545454"/>
<path d="M90.2506 44.5997H87.5749V43.3436C87.1602 44.1516 86.3038 44.8092 85.0038 44.8092C83.4944 44.8092 82.4473 43.8674 82.4473 41.8624V36.7797H84.0511C84.0988 36.7797 85.0463 36.7797 85.123 37.8512V41.323C85.123 42.2057 85.4672 42.6393 86.2447 42.6393C87.0223 42.6393 87.5749 42.1611 87.5749 41.158V36.7766H90.2506V44.5997Z" fill="#545454"/>
<path d="M144.74 36.7766H147.416V38.3325C147.909 37.1655 148.732 36.6573 149.942 36.6728V39.1706C148.313 39.126 147.416 39.6342 147.416 40.8904V43.5271C147.415 43.8112 147.301 44.0832 147.101 44.284C146.9 44.4849 146.628 44.5983 146.344 44.5997H144.74V36.7766Z" fill="#545454"/>
<path d="M105.119 51.734H107.795V53.2899C108.288 52.123 109.11 51.6147 110.321 51.6303V54.128C108.692 54.0834 107.795 54.5917 107.795 55.8478V58.4846C107.794 58.7686 107.68 59.0406 107.479 59.2415C107.279 59.4423 107.007 59.5558 106.723 59.5571H105.119V51.734Z" fill="#545454"/>
<path d="M75.0527 51.7341H77.7285V52.9902C78.1432 52.1822 78.9995 51.5245 80.2995 51.5245C81.809 51.5245 82.8561 52.4664 82.8561 54.4714V59.5541H81.2523C81.2046 59.5541 80.257 59.554 80.1803 58.4825V55.015C80.1803 54.1322 79.8361 53.6987 79.0586 53.6987C78.2811 53.6987 77.7285 54.1768 77.7285 55.1799V59.5623H75.0527V51.7341Z" fill="#545454"/>
<path d="M35.5101 48.5402C37.3399 50.4446 37.3182 53.4745 37.3182 53.4745V64.0547C37.3182 64.0547 37.3275 62.84 35.5122 61.2644C31.469 57.7522 25.7485 54.6622 23.5506 52.9797C23.0157 53.4299 22.5015 53.8956 22.0163 54.3769C25.4758 56.8322 33.8649 62.0351 35.5101 64.2652C37.1025 66.4248 37.3192 69.018 37.3192 69.018V79.9177C37.3192 79.9177 36.8641 78.2518 35.1732 76.5185C34.772 76.1036 32.8271 74.3693 32.0631 73.7718C28.7 71.1538 22.122 66.7298 21.2284 66.124C20.3482 65.482 17.9275 64.3327 17.8259 60.0581C17.8259 60.0581 17.8259 60.0259 17.8259 59.9637C17.8259 59.9014 17.8259 59.8402 17.8259 59.7759V48.4261C17.8207 47.7565 17.9258 47.0907 18.1369 46.4553C17.9337 45.8251 17.8287 45.1674 17.8259 44.5052C17.8259 44.4112 17.8259 44.3164 17.8259 44.221C17.8259 44.0395 17.8197 41.7004 17.8186 39.2815C17.8176 36.8626 17.8186 34.8005 17.8394 34.0205C17.8394 33.8929 17.8456 33.813 17.8497 33.7871C21.5394 32.9376 27.6125 31.8163 34.0328 31.5259C32.5638 32.9687 31.5105 33.728 27.996 35.7683C25.1845 37.3999 23.2603 38.5803 21.9344 39.4962H21.9271L21.9551 39.5211C22.3615 39.8697 22.8177 40.2286 23.3101 40.5937C26.3694 38.3781 31.3229 35.5992 33.7581 33.8514C36.6277 31.5539 37.3244 29.9098 37.3244 29.9098V40.4931C37.3244 40.4931 37.3462 43.2024 35.5164 45.1079C35.1183 45.5228 34.2194 46.0808 33.0283 46.7769C34.2174 47.5268 35.1245 48.1388 35.5101 48.5402ZM56.8239 39.2836C56.8239 41.6921 56.8177 44.0219 56.8167 44.22C56.8167 44.3161 56.8167 44.4119 56.8167 44.5073C56.8138 45.1695 56.7089 45.8272 56.5057 46.4574C56.7168 47.0928 56.8219 47.7586 56.8167 48.4282C56.8167 48.6356 56.8167 48.8466 56.8167 49.0609C56.8167 50.0069 56.8167 55.6663 56.8167 59.7822C56.8167 59.8465 56.8167 59.9066 56.8167 59.9699C56.8167 60.0332 56.8167 60.0643 56.8167 60.0633C56.713 64.3378 54.2944 65.4871 53.4142 66.1292C52.5205 66.735 45.9436 71.1579 42.5836 73.777C41.8165 74.3755 39.8706 76.1129 39.4735 76.5237C37.7837 78.257 37.3275 79.9228 37.3275 79.9228V69.018C37.3275 69.018 37.5431 66.4248 39.1355 64.2642C40.7798 62.0341 49.1699 56.8311 52.6294 54.3759C52.1453 53.8946 51.63 53.4289 51.0951 52.9787C48.8972 54.6601 43.1798 57.7501 39.1335 61.2634C37.3182 62.839 37.3275 64.0536 37.3275 64.0536V53.4735C37.3275 53.4735 37.3057 50.4436 39.1355 48.5392C39.5212 48.1378 40.4294 47.5258 41.6236 46.7758C40.4345 46.0798 39.5357 45.5207 39.1355 45.1068C37.2974 43.2076 37.3192 40.4931 37.3192 40.4931V29.9129C37.3192 29.9129 38.0159 31.5549 40.8855 33.8545C43.3207 35.6054 48.2742 38.3853 51.3345 40.5968C51.827 40.2317 52.2831 39.8707 52.6895 39.5243L52.7175 39.4994H52.7103C51.3843 38.5845 49.4602 37.403 46.6486 35.7714C43.1331 33.7311 42.0798 32.9708 40.6118 31.529C47.0322 31.8215 53.1053 32.9397 56.7949 33.7902C56.7949 33.8151 56.8022 33.8939 56.8053 34.0226C56.8291 34.8016 56.8291 36.8771 56.8239 39.2836Z" fill="#F5F5F5"/>
<g style="mix-blend-mode:multiply">
<path d="M17.8471 33.7892C17.7921 34.5838 17.8232 40.1353 17.8232 44.5074C17.8232 48.8795 22.6502 52.3419 23.549 52.9788C25.7468 54.6602 31.4643 57.7502 35.5106 61.2634C37.3259 62.8391 37.3166 64.0537 37.3166 64.0537V53.4735C37.3166 53.4735 37.3383 50.4437 35.5085 48.5392C34.1058 47.0808 25.7976 42.827 21.9483 39.5285C19.0973 37.0131 17.8668 33.8546 17.8471 33.7892Z" fill="#545454"/>
</g>
<g style="mix-blend-mode:multiply">
<path d="M17.8191 44.2356C17.8191 44.2356 18.5096 41.8416 21.9276 39.4984C23.2536 38.5835 25.1777 37.4021 27.9893 35.7705C31.5048 33.7301 32.5581 32.9698 34.0261 31.528C27.6057 31.8205 21.5326 32.9397 17.8471 33.7893C17.7922 34.117 17.8191 44.2356 17.8191 44.2356Z" fill="#545454"/>
</g>
<g style="mix-blend-mode:multiply">
<path d="M17.8224 60.0612C17.8224 60.0685 17.8224 52.8003 17.8224 48.4251C17.8176 47.7452 17.9266 47.0692 18.1448 46.4253C19.5123 43.0469 22.8888 40.9008 23.3025 40.5969C26.3618 38.3812 31.3153 35.6024 33.7505 33.8546C36.6201 31.557 37.3168 29.913 37.3168 29.913V40.4931C37.3168 40.4931 37.3386 43.2025 35.5088 45.1079C34.1061 46.5674 26.4893 49.8192 21.8438 54.5471C19.9342 56.4899 17.8224 60.055 17.8224 60.0612Z" fill="#545454"/>
</g>
<g style="mix-blend-mode:multiply">
<path d="M17.8184 48.9209C17.8184 48.9209 17.8184 55.2752 17.8184 59.7801C17.8184 64.285 20.3272 65.4685 21.226 66.124C22.1197 66.7298 28.6966 71.1527 32.0566 73.7718C32.8238 74.3703 34.7697 76.1078 35.1667 76.5185C36.8566 78.2518 37.3127 79.9177 37.3127 79.9177V69.018C37.3127 69.018 37.0971 66.4248 35.5047 64.2642C33.8605 62.0341 25.4703 56.8301 22.0108 54.3759C18.6208 51.9674 17.8184 48.9209 17.8184 48.9209Z" fill="#545454"/>
</g>
<g style="mix-blend-mode:multiply">
<path d="M56.792 33.7892C56.8469 34.5838 56.8158 40.1353 56.8158 44.5074C56.8158 48.8795 51.9848 52.3419 51.0859 52.9788C48.8881 54.6602 43.1706 57.7502 39.1243 61.2634C37.309 62.8391 37.3184 64.0537 37.3184 64.0537V53.4735C37.3184 53.4735 37.2966 50.4437 39.1264 48.5392C40.5291 47.0798 48.8383 42.826 52.6877 39.5274C55.5386 37.0131 56.7682 33.8546 56.792 33.7892Z" fill="#545454"/>
</g>
<g style="mix-blend-mode:multiply">
<path d="M56.8144 44.2356C56.8144 44.2356 56.1239 41.8364 52.7059 39.4983C51.3799 38.5835 49.4558 37.402 46.6442 35.7704C43.1287 33.7301 42.0754 32.9698 40.6074 31.528C47.0278 31.8205 53.1009 32.9386 56.7905 33.7892C56.8413 34.117 56.8144 44.2356 56.8144 44.2356Z" fill="#545454"/>
</g>
<g style="mix-blend-mode:multiply">
<path d="M56.8117 60.0612C56.8117 60.0685 56.8117 52.8003 56.8117 48.4251C56.8165 47.7452 56.7076 47.0692 56.4893 46.4253C55.1229 43.0469 51.7474 40.9008 51.3327 40.5969C48.2733 38.3812 43.3199 35.6024 40.8847 33.8546C38.015 31.557 37.3184 29.913 37.3184 29.913V40.4931C37.3184 40.4931 37.2966 43.2025 39.1264 45.1079C40.5291 46.5674 48.1458 49.8192 52.7913 54.5471C54.701 56.4899 56.8117 60.055 56.8117 60.0612Z" fill="#545454"/>
</g>
<g style="mix-blend-mode:multiply">
<path d="M56.8138 48.921C56.8138 48.921 56.8138 55.2753 56.8138 59.7801C56.8138 64.285 54.3049 65.4685 53.405 66.1241C52.5114 66.7299 45.9345 71.1528 42.5745 73.7719C41.8073 74.3704 39.8614 76.1078 39.4644 76.5186C37.7745 78.2519 37.3184 79.9177 37.3184 79.9177V69.0181C37.3184 69.0181 37.534 66.4249 39.1264 64.2643C40.7706 62.0341 49.1607 56.8301 52.6203 54.376C56.0113 51.9674 56.8138 48.921 56.8138 48.921Z" fill="#545454"/>
</g>
</g>
<defs>
<clipPath id="clip0_18672_45928">
<rect width="156.376" height="50" fill="white" transform="translate(17.8125 29.9185)"/>
</clipPath>
</defs>
</svg>
