<svg width="192" height="108" viewBox="0 0 192 108" fill="none" xmlns="http://www.w3.org/2000/svg">
<path fill-rule="evenodd" clip-rule="evenodd" d="M58.6523 22.4504V21.257C60.5495 21.3305 62.153 21.3672 63.481 21.3672C64.4113 21.3672 66.0881 21.3427 68.5117 21.2938C70.9291 21.2448 78.6158 21.2203 79.4665 21.2203C80.3722 21.2203 81.2045 21.2326 81.9512 21.257C82.7101 21.2693 83.3955 21.2999 84.0075 21.3488C83.6954 22.4076 83.4934 24.2987 83.4077 27.016H82.2327C82.1225 25.5104 81.9634 24.3476 81.7676 23.5398C81.1189 23.3195 80.311 23.1542 79.3563 23.0502C78.4077 22.94 71.2534 22.885 69.9927 22.885C68.732 22.885 67.4345 22.9584 66.082 23.1114C66.0086 23.7846 65.9596 24.415 65.9351 25.0025C65.9229 25.3391 65.8862 26.765 65.8433 29.2865V33.4358C67.2387 33.4726 68.4749 33.4909 69.5459 33.4909C71.131 33.4909 77.1225 33.4114 78.0711 33.2461C78.4322 33.1849 78.6586 33.087 78.7627 32.9462C78.8728 32.7994 78.9891 32.2669 79.1176 31.355L79.2706 30.1984H80.4518L80.3233 34.464L80.4518 39.0479H79.2706L79.1421 37.8484C79.0075 36.4897 78.9034 35.7614 78.8422 35.6574C78.7382 35.486 78.5056 35.3514 78.1323 35.2657C77.4224 35.1066 71.0821 35.0209 68.579 35.0209C67.6916 35.0209 66.7858 35.0454 65.8495 35.0944V38.8704C65.8495 40.5656 65.8739 42.218 65.9229 43.8276C65.9535 45.0149 66.0269 45.7187 66.1677 45.939C66.3207 46.1654 66.5533 46.3307 66.8776 46.447C67.202 46.5449 68.1016 46.6061 69.5704 46.6306V47.8301C67.9853 47.7322 66.4125 47.6832 64.8397 47.6832C63.4321 47.6832 61.3757 47.7322 58.6646 47.8301V46.6306C60.1395 46.6061 61.033 46.5449 61.3574 46.447C61.6817 46.3368 61.9082 46.1838 62.0306 46.0002C62.1775 45.7493 62.2754 45.1434 62.3121 44.1887C62.3243 43.9255 62.3488 42.1568 62.3855 38.8765V30.2106C62.3855 28.5154 62.3672 26.8568 62.3305 25.235C62.2937 24.0478 62.2019 23.3501 62.0489 23.142C61.9143 22.9156 61.6817 22.7564 61.3574 22.6524C61.033 22.5484 60.1334 22.481 58.6523 22.4504ZM103.842 22.3464C105.33 22.3709 106.223 22.4382 106.535 22.5484C106.86 22.6463 107.092 22.8115 107.227 23.038C107.38 23.2522 107.472 23.9498 107.508 25.131C107.545 26.7528 107.563 28.4113 107.563 30.1066V38.3686C107.563 40.7737 107.735 42.4873 108.09 43.5094C108.365 44.2805 108.867 45.0394 109.607 45.7921C110.342 46.5265 111.413 47.1263 112.82 47.5853C114.228 48.032 115.893 48.2585 117.814 48.2585C119.461 48.2585 120.954 48.0626 122.3 47.6771C123.659 47.2915 124.767 46.7468 125.63 46.0492C126.774 45.1128 127.564 44.0357 127.986 42.8117C128.42 41.5877 128.641 39.4396 128.641 36.3612V30.1066C128.677 26.814 128.702 25.0453 128.714 24.7944C128.757 23.8336 128.849 23.2277 128.996 22.9829C129.118 22.7993 129.338 22.6524 129.65 22.5545C129.975 22.4443 130.881 22.377 132.362 22.3525V21.1469C130.116 21.2448 128.567 21.2938 127.704 21.2938C126.756 21.2938 125.256 21.2448 123.2 21.1469V22.3464C124.669 22.3709 125.568 22.4382 125.893 22.5484C126.217 22.6463 126.45 22.8115 126.59 23.038C126.737 23.2522 126.823 23.9498 126.848 25.131C126.896 26.7528 126.921 28.4113 126.921 30.1066V35.8655C126.921 37.4934 126.854 38.852 126.731 39.923C126.621 40.9818 126.425 41.8202 126.15 42.4261C125.887 43.0381 125.483 43.5889 124.932 44.0908C124.4 44.5804 123.586 44.9965 122.502 45.3454C121.419 45.682 120.177 45.8472 118.781 45.8472C117.582 45.8472 116.505 45.7248 115.526 45.4739C114.552 45.2107 113.781 44.868 113.206 44.4457C112.459 43.8827 111.909 43.1789 111.56 42.3282C111.223 41.4714 111.052 39.6966 111.052 37.016V30.1004C111.089 26.8079 111.113 25.0392 111.125 24.7883C111.168 23.8274 111.266 23.2216 111.425 22.9768C111.535 22.7932 111.756 22.6463 112.08 22.5484C112.404 22.4382 113.298 22.3709 114.773 22.3464V21.1469C113.029 21.2448 111.266 21.2938 109.497 21.2938C107.753 21.2938 105.862 21.2448 103.83 21.1469V22.3464M85.3845 34.262C86.278 33.7051 87.2756 33.2155 88.3588 32.8177L91.5351 26.1592L94.3503 32.1996C86.7799 32.7565 82.3 36.7345 81.1923 40.3208C79.4665 45.8839 83.6036 49.7824 89.4298 49.6967C89.4298 49.6967 83.9279 47.6893 83.9279 42.7994C83.9279 37.8606 88.0345 34.5986 93.6465 33.7969C95.2805 33.5644 98.1631 33.595 99.4666 33.8214C101.676 34.207 105.048 35.1188 105.623 37.2792C105.923 38.4114 105.311 39.0601 105.311 39.0601C105.311 39.0601 106.676 38.9561 106.443 37.0895C106.26 35.584 104.607 33.289 98.7506 32.4322C95.8925 26.5141 93.2303 21 93.2303 21H91.8533C89.9561 25.0453 88.7138 27.6524 88.1324 28.8214L85.3845 34.262ZM76.1984 48.1116C77.8263 47.9953 79.3257 47.9402 80.7027 47.9402C81.1189 47.9402 81.6391 47.9341 82.2388 47.9341C81.2413 47.0161 80.5313 45.8594 80.207 44.5069C80.1335 44.6599 80.0846 44.7517 80.0662 44.7823C79.6256 45.6024 79.289 46.1104 79.0442 46.3123C78.8177 46.502 78.5607 46.6367 78.2792 46.7101C78.0099 46.7713 77.3183 46.808 76.1984 46.8203V48.1116ZM98.2977 49.8619C98.2977 49.8619 88.5853 48.3809 89.1055 41.9732C89.4604 37.6403 93.4323 36.2388 96.0761 35.9206L100.25 44.8986C100.446 45.3392 100.544 45.7003 100.544 45.9757C100.544 46.1532 100.483 46.3001 100.36 46.4286C100.244 46.5449 100.017 46.6306 99.6808 46.6918C99.3381 46.753 99.485 46.8019 97.8999 46.8264V48.1116L103.628 47.9219C104.503 47.9219 106.052 47.9831 108.261 48.1116V46.8264C107.141 46.8142 106.419 46.7407 106.095 46.6C105.782 46.4592 105.495 46.1716 105.226 45.7309C105.024 45.4004 102.857 40.9573 100.427 35.9267C101.462 36.0246 103.732 36.6305 104.271 38.0993C104.534 38.8092 104.155 39.2804 104.155 39.2804C104.155 39.2804 105.085 39.1886 105.122 37.983C105.146 37.0528 104.002 35.2351 99.8583 34.5436C98.4629 34.311 96.9819 34.2498 95.4641 34.3477C91.2291 34.6109 85.3049 36.9854 85.3049 42.5852C85.2927 48.1667 92.0614 50.8166 98.2977 49.8619Z" fill="#545454"/>
<path fill-rule="evenodd" clip-rule="evenodd" d="M91.5159 71.3002V70.7066C91.9749 70.7005 92.2564 70.6821 92.3666 70.6515C92.4828 70.6148 92.5869 70.5536 92.6787 70.4679C92.7766 70.3761 92.9174 70.1374 93.0948 69.7641C93.1989 69.5499 93.5783 68.736 94.227 67.3222L96.3996 62.414C96.6383 61.8754 97.1402 60.6759 97.9235 58.8154H98.4865L102.201 67.5426C102.807 68.9563 103.205 69.8437 103.401 70.2048C103.511 70.4067 103.627 70.5414 103.756 70.6026C103.891 70.6699 104.184 70.7005 104.643 70.7066V71.3002C103.738 71.2452 103.107 71.2146 102.746 71.2146L99.9492 71.3002V70.7066C100.598 70.6943 100.99 70.676 101.124 70.6454C101.265 70.6148 101.357 70.5719 101.406 70.523C101.461 70.4618 101.485 70.3945 101.485 70.3149C101.485 70.1864 101.443 70.0212 101.363 69.8192L100.292 67.157H95.2552L94.3066 69.3908C94.1414 69.7947 94.0557 70.0823 94.0557 70.2721C94.0557 70.3516 94.0802 70.419 94.123 70.474C94.1903 70.5475 94.2882 70.6026 94.4229 70.627C94.6371 70.676 95.0104 70.7005 95.5551 70.7066V71.3002C94.5698 71.2513 93.8415 71.2207 93.3519 71.2207C92.795 71.2207 92.183 71.2452 91.5159 71.3002ZM95.5612 66.4165H99.9554L97.7766 61.1716L95.5612 66.4165ZM103.805 62.1569C103.848 61.6857 103.903 61.4103 103.958 61.3246C103.995 61.2695 104.074 61.239 104.197 61.2267C104.582 61.1716 105.108 61.1471 105.769 61.1471H106.914L106.963 62.4446C106.975 62.7016 106.981 62.9403 106.981 63.1545V67.6282C106.963 68.9746 106.951 69.7029 106.951 69.8069C106.938 70.1986 106.895 70.4495 106.828 70.5536C106.779 70.6332 106.693 70.6944 106.559 70.7372C106.43 70.78 106.057 70.8045 105.451 70.8106V71.3002C106.846 71.2574 107.642 71.239 107.844 71.239C108.303 71.239 108.995 71.2574 109.913 71.3002V70.8106C109.301 70.7984 108.933 70.7739 108.799 70.7372C108.67 70.6882 108.578 70.6209 108.511 70.5291C108.45 70.4373 108.419 70.1497 108.407 69.6601C108.389 68.9991 108.383 68.3198 108.383 67.6282V63.1361C108.383 62.3038 108.407 61.6429 108.456 61.1471H109.392C109.643 61.1471 109.998 61.1594 110.433 61.1839C110.873 61.2084 111.13 61.2328 111.204 61.2451C111.259 61.2634 111.302 61.2818 111.326 61.3063C111.357 61.3307 111.381 61.3736 111.4 61.4348C111.412 61.496 111.443 61.753 111.485 62.1937L111.547 62.9342H112.042C112.061 61.8142 112.104 60.9697 112.165 60.3944C111.742 60.4189 111.082 60.4372 110.164 60.4556C108.897 60.4862 108.095 60.5046 107.746 60.5046C107.422 60.5046 106.779 60.4923 105.812 60.4739C104.619 60.4433 103.75 60.4189 103.187 60.3944C103.236 60.8656 103.254 61.7102 103.26 62.9342H103.738L103.805 62.1569ZM113.67 71.3002C114.178 71.2574 114.674 71.239 115.164 71.239L119.705 71.3002C120.255 71.3002 120.665 71.2941 120.935 71.2758C121.057 71.2635 121.222 71.239 121.43 71.1962C121.541 70.168 121.645 69.2745 121.761 68.5095H121.247L120.941 69.7825C120.886 69.9783 120.831 70.1619 120.763 70.3088C120.188 70.4924 119.178 70.5903 117.734 70.5903C117.159 70.5903 116.583 70.5719 115.996 70.5352C115.971 70.1986 115.965 69.758 115.965 69.2256V64.0664C115.984 62.7139 115.99 61.9917 115.996 61.8877C116.008 61.496 116.051 61.2451 116.112 61.1471C116.161 61.0676 116.253 61.0125 116.381 60.9697C116.516 60.9207 116.889 60.8962 117.495 60.884V60.3944C116.351 60.4372 115.623 60.4556 115.292 60.4556C114.992 60.4556 114.221 60.4311 112.979 60.3944V60.884C113.585 60.8962 113.958 60.9207 114.08 60.9697C114.215 61.0125 114.307 61.0798 114.368 61.1655C114.429 61.2512 114.472 61.5388 114.484 62.0223C114.503 62.6894 114.509 63.3687 114.509 64.0664V68.1974C114.509 68.332 114.496 68.7482 114.478 69.4459C114.46 69.9171 114.429 70.2231 114.38 70.3639C114.362 70.4373 114.325 70.4924 114.276 70.5414C114.19 70.627 113.982 70.7494 113.67 70.8963V71.3002ZM147.159 62.1569C147.202 61.6857 147.251 61.4103 147.312 61.3246C147.349 61.2695 147.428 61.239 147.551 61.2267C147.942 61.1716 148.462 61.1471 149.123 61.1471H150.268L150.317 62.4446C150.329 62.7016 150.329 62.9403 150.329 63.1545V67.6282C150.311 68.9746 150.298 69.7029 150.298 69.8069C150.28 70.1986 150.243 70.4495 150.176 70.5536C150.127 70.6332 150.041 70.6944 149.907 70.7372C149.772 70.78 149.405 70.8045 148.793 70.8106V71.3002C150.188 71.2574 150.99 71.239 151.186 71.239C151.645 71.239 152.336 71.2574 153.254 71.3002V70.8106C152.642 70.7984 152.269 70.7739 152.141 70.7372C152.012 70.6882 151.92 70.6209 151.859 70.5291C151.804 70.4373 151.767 70.1497 151.755 69.6601C151.737 68.9991 151.731 68.3198 151.731 67.6282V63.1361C151.731 62.3038 151.755 61.6429 151.81 61.1471H152.746C153.004 61.1471 153.352 61.1594 153.787 61.1839C154.228 61.2084 154.485 61.2328 154.558 61.2451C154.619 61.2634 154.656 61.2818 154.68 61.3063C154.711 61.3307 154.735 61.3736 154.748 61.4348C154.76 61.496 154.791 61.753 154.833 62.1937L154.895 62.9342H155.384C155.409 61.8142 155.445 60.9697 155.507 60.3944C155.09 60.4189 154.417 60.4372 153.505 60.4556C152.239 60.4862 151.437 60.5046 151.088 60.5046C150.764 60.5046 150.115 60.4923 149.148 60.4739C147.955 60.4433 147.079 60.4189 146.522 60.3944C146.571 60.8656 146.59 61.7102 146.602 62.9342H147.079L147.159 62.1569ZM160.923 70.8045C160.317 70.7923 159.944 70.7678 159.809 70.7249C159.68 70.676 159.589 70.6087 159.527 70.5169C159.472 70.4251 159.436 70.1374 159.417 69.6478C159.399 68.9869 159.399 68.3137 159.399 67.616V64.0664C159.417 62.7139 159.423 61.9917 159.43 61.8877C159.448 61.496 159.478 61.2451 159.546 61.1471C159.595 61.0676 159.687 61.0125 159.815 60.9697C159.95 60.9207 160.317 60.8962 160.929 60.884V60.3944C159.937 60.4311 159.185 60.4495 158.677 60.4495C158.144 60.4495 157.392 60.4311 156.412 60.3944V60.884C157.018 60.8962 157.392 60.9207 157.514 60.9697C157.649 61.0125 157.74 61.0798 157.795 61.1655C157.863 61.2512 157.893 61.5388 157.912 62.0223C157.924 62.6894 157.936 63.3687 157.936 64.0664V67.6221C157.924 68.9685 157.912 69.6907 157.906 69.8008C157.887 70.1925 157.851 70.4434 157.789 70.5475C157.74 70.627 157.642 70.6882 157.514 70.7311C157.379 70.7739 157.012 70.7984 156.412 70.8106V71.3002L158.787 71.239C159.13 71.239 159.846 71.2635 160.935 71.3002V70.8045M171.468 69.7764C171.064 70.064 170.66 70.2721 170.244 70.4067C169.644 70.6026 168.995 70.7005 168.291 70.7005C166.737 70.7005 165.482 70.2292 164.54 69.2867C163.591 68.3443 163.12 67.0958 163.12 65.5413C163.126 64.6539 163.248 63.9256 163.499 63.3381C163.744 62.7506 164.056 62.2671 164.442 61.8877C164.833 61.5082 165.28 61.2267 165.788 61.0554C166.296 60.8779 166.908 60.7799 167.636 60.7738C168.61 60.7738 169.344 60.8962 169.846 61.141C170.354 61.3858 170.629 61.7591 170.678 62.261L170.69 63.1667H171.174C171.204 62.5915 171.259 62.0896 171.345 61.6551C171.4 61.3858 171.486 61.1104 171.596 60.8289C171.468 60.8044 171.119 60.7188 170.543 60.5658C169.974 60.4128 169.491 60.3087 169.093 60.2598C168.701 60.2047 168.267 60.1741 167.802 60.1741C165.831 60.1741 164.277 60.7126 163.138 61.7836C162 62.8546 161.437 64.201 161.437 65.8351C161.437 66.4777 161.523 67.0713 161.688 67.616C161.859 68.1545 162.104 68.6503 162.428 69.1154C162.753 69.5744 163.169 69.9906 163.671 70.3639C164.185 70.7311 164.772 71.0187 165.458 71.2146C166.143 71.4165 166.878 71.5144 167.667 71.5144C168.34 71.5144 168.964 71.4471 169.54 71.3064C170.115 71.1717 170.703 70.9575 171.296 70.6576L171.602 69.9416L171.468 69.7764ZM121.865 71.3002V70.78C122.269 70.7739 122.52 70.7617 122.618 70.7311C122.722 70.7005 122.814 70.6454 122.893 70.5719C122.979 70.4924 123.101 70.2843 123.26 69.9477C123.352 69.758 123.683 69.0419 124.258 67.7935L126.18 63.4666C126.388 62.9893 126.834 61.9305 127.52 60.2904H128.022L131.296 67.9893C131.828 69.2378 132.177 70.0212 132.355 70.3394C132.453 70.5169 132.557 70.6393 132.673 70.6944C132.789 70.7494 133.205 70.8229 133.493 70.8229C134.001 70.8168 134.374 70.7739 134.533 70.7005C134.607 70.6699 134.656 70.6209 134.686 70.5536C134.735 70.4495 134.772 70.1803 134.79 69.7519C134.821 69.0726 134.839 68.4912 134.839 68.0016V61.7347C134.839 61.5694 134.827 61.4532 134.809 61.4042C134.766 61.3124 134.674 61.2022 134.533 61.0737C134.442 60.988 134.331 60.9391 134.209 60.9207C134.093 60.8962 133.83 60.8779 133.413 60.8718V60.3944C134.264 60.4189 134.803 60.425 135.023 60.425C135.396 60.425 135.77 60.4128 136.137 60.3944C136.571 60.9636 136.89 61.3858 137.098 61.6551L138.689 63.6135L141.002 66.4042C141.743 67.2916 142.342 67.9954 142.789 68.5095C143.077 68.8461 143.316 69.1154 143.511 69.3051V63.6931C143.511 63.1912 143.493 62.6037 143.456 61.9305C143.432 61.5082 143.401 61.2451 143.358 61.141C143.322 61.0737 143.267 61.0247 143.193 60.9941C143.028 60.9207 142.673 60.884 142.141 60.8779V60.3944C142.746 60.4189 143.352 60.425 143.977 60.425C144.564 60.425 145.09 60.4128 145.562 60.3944V60.8779C145.029 60.884 144.68 60.9207 144.509 60.9941C144.436 61.0247 144.387 61.0737 144.356 61.1471C144.301 61.2451 144.27 61.5143 144.246 61.955C144.215 62.6282 144.203 63.2096 144.203 63.6931V67.3834C144.203 68.1301 144.215 69.5254 144.246 71.5634L143.456 71.3308L143.273 71.2941C143.242 71.2819 143.212 71.2696 143.187 71.2451C143.15 71.2207 143.052 71.1166 142.893 70.9391C142.471 70.4557 142.153 70.0946 141.963 69.8498L140.972 68.5952L135.531 62.0958V67.9832C135.531 68.485 135.549 69.0726 135.586 69.7519C135.61 70.1742 135.641 70.4373 135.684 70.5352C135.721 70.6087 135.776 70.6576 135.843 70.6882C136.008 70.7617 136.363 70.7984 136.89 70.8045V71.288C136.443 71.2513 135.947 71.2329 135.402 71.2329C134.827 71.2329 132.085 71.2084 131.773 71.2084L129.301 71.2819V70.7617C129.876 70.7494 130.219 70.7311 130.341 70.7066C130.464 70.6821 130.543 70.6454 130.592 70.5964C130.635 70.5475 130.659 70.4863 130.659 70.4128C130.659 70.2965 130.629 70.1497 130.555 69.9783L129.613 67.6282H125.17L124.331 69.5989C124.184 69.9538 124.111 70.2109 124.111 70.3761C124.111 70.4495 124.129 70.5046 124.172 70.5536C124.227 70.6209 124.313 70.6638 124.435 70.6882C124.625 70.7311 124.956 70.7556 125.433 70.7556V71.2758C124.564 71.2268 123.921 71.2084 123.493 71.2084C122.997 71.2268 122.452 71.2513 121.865 71.3002ZM125.439 66.9917H129.313L127.397 62.365L125.439 66.9917ZM19 59.4948C19.6854 59.507 20.1077 59.5376 20.2485 59.5927C20.4015 59.6416 20.5055 59.7151 20.5728 59.8191C20.6402 59.917 20.6891 60.2414 20.7014 60.7922C20.7197 61.545 20.7258 62.3161 20.7258 63.1056V67.1325C20.7075 68.6564 20.6952 69.4826 20.6891 69.605C20.6708 70.0517 20.6279 70.3333 20.5606 70.4496C20.5055 70.5352 20.3954 70.6025 20.2485 70.6576C20.1016 70.7066 19.6793 70.7311 19 70.7433V71.3002C20.2546 71.2513 21.2154 71.2268 21.8703 71.2268C22.6047 71.2268 23.333 71.2513 24.0735 71.3002V70.7433C23.388 70.7311 22.9719 70.7005 22.8189 70.6576C22.6659 70.6025 22.5618 70.5291 22.4884 70.4251C22.4211 70.321 22.3844 69.9967 22.3782 69.4397C22.3538 68.6931 22.3476 67.922 22.3476 67.1325V65.3761C22.7822 65.3516 23.2044 65.3394 23.6145 65.3394C24.7834 65.3394 25.9707 65.3761 26.3012 65.4556C26.4725 65.4985 26.5888 65.5597 26.6316 65.6392C26.6622 65.6882 26.7051 66.0248 26.7724 66.6551L26.8336 67.2121H27.3844L27.3232 65.0823L27.3844 63.0994H26.8336L26.7663 63.638C26.7051 64.0603 26.6561 64.3112 26.601 64.3785C26.5521 64.4397 26.448 64.4887 26.2767 64.5193C25.836 64.5927 24.8079 64.6294 24.0674 64.6294C23.5655 64.6294 22.9902 64.6233 22.3476 64.6049V62.6771C22.366 61.5082 22.3782 60.8412 22.3905 60.682C22.4027 60.4066 22.4272 60.119 22.4578 59.8008C23.082 59.7334 23.6879 59.6967 24.2754 59.6967C24.8568 59.6967 25.8177 59.7212 26.2583 59.7763C26.7051 59.8252 27.0784 59.8987 27.3844 60.0027C27.4762 60.376 27.5496 60.9146 27.5986 61.6184H28.1494C28.1922 60.3577 28.284 59.4764 28.4248 58.9807C28.1433 58.9562 27.825 58.944 27.4701 58.9378C27.1212 58.9256 26.7357 58.9195 26.3134 58.9195C25.9217 58.9195 24.7161 58.9317 23.59 58.9562C22.4639 58.9807 21.6867 58.9929 21.2522 58.9929C20.6402 58.9929 19.8874 58.9746 19.0061 58.9378V59.4948M29.9426 71.3002C30.4505 71.2574 30.9462 71.239 31.4358 71.239L35.9769 71.3002C36.5338 71.3002 36.9377 71.2941 37.207 71.2758C37.3294 71.2635 37.4946 71.239 37.7088 71.1962C37.8129 70.168 37.923 69.2745 38.0393 68.5095H37.5252L37.2192 69.7825C37.1642 69.9783 37.1091 70.1619 37.0418 70.3088C36.4665 70.4924 35.4567 70.5903 34.0124 70.5903C33.4371 70.5903 32.8618 70.5719 32.2804 70.5352C32.2559 70.1986 32.2437 69.758 32.2437 69.2256V64.0664C32.262 62.7139 32.2743 61.9917 32.2804 61.8877C32.2926 61.496 32.3294 61.2451 32.3967 61.1471C32.4456 61.0676 32.5374 61.0125 32.6598 60.9697C32.7945 60.9207 33.1678 60.8962 33.7737 60.884V60.3944C32.6292 60.4372 31.901 60.4556 31.5705 60.4556C31.2706 60.4556 30.4995 60.4311 29.2571 60.3944V60.884C29.863 60.8962 30.2363 60.9207 30.3648 60.9697C30.4995 61.0125 30.5913 61.0798 30.6464 61.1655C30.7076 61.2512 30.7443 61.5388 30.7626 62.0223C30.7749 62.6894 30.7871 63.3687 30.7871 64.0664V68.1974C30.781 68.332 30.7749 68.7482 30.7565 69.4459C30.7443 69.9171 30.7076 70.2231 30.6647 70.3639C30.6464 70.4373 30.6096 70.4924 30.5607 70.5414C30.475 70.627 30.2669 70.7494 29.9548 70.8963V71.3002M38.382 65.9146C38.382 65.1068 38.5044 64.3602 38.7431 63.6747C38.9879 62.9893 39.3918 62.3711 39.9549 61.8265C40.5179 61.2757 41.1544 60.8656 41.8643 60.5902C42.5804 60.3087 43.3882 60.1679 44.3062 60.1679C45.1508 60.1679 45.9158 60.2842 46.6073 60.529C47.2989 60.7616 47.8619 61.0798 48.3026 61.4715C48.7493 61.8571 49.0982 62.2855 49.3552 62.7506C49.551 63.0994 49.704 63.5095 49.8142 63.9807C49.9305 64.452 49.9917 64.9538 49.9917 65.4924C49.9917 67.2182 49.4103 68.6503 48.2475 69.7947C47.0908 70.9392 45.6281 71.5144 43.8656 71.5144C43.0638 71.5144 42.3172 71.3859 41.6195 71.1228C40.9218 70.8596 40.3343 70.474 39.857 69.9661C39.3735 69.4459 39.0063 68.8278 38.7615 68.0934C38.5044 67.359 38.382 66.6307 38.382 65.9146ZM39.9794 65.2843C39.9794 65.7677 40.0283 66.2635 40.1262 66.7653C40.2242 67.2671 40.3466 67.7017 40.4934 68.0627C40.7382 68.6748 41.0565 69.1949 41.4543 69.6111C41.8521 70.0273 42.2927 70.3333 42.7762 70.5291C43.2719 70.7249 43.8105 70.8229 44.4041 70.8229C45.2242 70.8229 45.9464 70.627 46.5522 70.2231C47.1581 69.8192 47.611 69.2562 47.9109 68.5279C48.2108 67.7935 48.3638 66.955 48.3638 66.0064C48.3638 65.1925 48.2597 64.4458 48.0394 63.7604C47.9048 63.3381 47.7334 62.9587 47.5131 62.6221C47.2928 62.2794 47.0296 61.9856 46.7236 61.7347C46.4237 61.4776 46.032 61.2634 45.5424 61.0921C45.059 60.9207 44.5326 60.8289 43.9696 60.8289C43.1556 60.8289 42.4396 61.0125 41.8276 61.3736C41.2156 61.7347 40.7505 62.261 40.4384 62.9526C40.1324 63.638 39.9794 64.4152 39.9794 65.2843ZM66.4606 71.3002V70.933C66.7605 70.7617 67.0053 70.6087 67.2072 70.474C67.2378 70.1252 67.2684 69.6417 67.2868 69.0236C67.3235 67.971 67.3419 67.2366 67.3419 66.8265V63.6931C67.3419 63.1912 67.3235 62.6037 67.2929 61.9305C67.2684 61.5082 67.2378 61.2451 67.1889 61.141C67.146 61.0737 67.0971 61.0247 67.0236 60.9941C66.8584 60.9207 66.5034 60.884 65.971 60.8779V60.3944C66.7176 60.425 67.3786 60.4434 67.9539 60.4434C68.3884 60.4434 68.9882 60.4311 69.747 60.4128C70.5059 60.3883 71.0996 60.3821 71.5157 60.3821C72.7703 60.3821 73.7801 60.5474 74.539 60.8656C75.304 61.1839 75.9527 61.7163 76.4852 62.4691C77.0176 63.2218 77.2808 64.1398 77.2808 65.2231C77.2808 66.0003 77.1522 66.7286 76.9013 67.414C76.6504 68.0934 76.3077 68.6931 75.8793 69.2011C75.4509 69.709 74.9919 70.1068 74.5023 70.4067C74.0127 70.7066 73.4925 70.9269 72.9539 71.0799C72.4154 71.2268 71.6748 71.3002 70.7385 71.3002C70.4264 71.3002 70.0041 71.288 69.4716 71.2696C68.774 71.2513 68.3211 71.239 68.1069 71.239C67.7948 71.2329 67.2501 71.2574 66.4606 71.3002ZM68.8413 70.4618C69.4043 70.5597 69.998 70.6087 70.6222 70.6087C71.2648 70.6087 71.834 70.5536 72.3297 70.4373C72.8254 70.3271 73.2477 70.168 73.5965 69.9599C73.9454 69.7519 74.2881 69.452 74.6186 69.0542C74.949 68.6564 75.1938 68.1484 75.3713 67.5242C75.5549 66.9 75.6406 66.2573 75.6406 65.5903C75.6406 64.6355 75.4692 63.8216 75.1265 63.1423C74.7899 62.4568 74.2758 61.9305 73.5904 61.5694C72.905 61.2083 71.9625 61.0247 70.7691 61.0247C70.1387 61.0247 69.5022 61.0737 68.8474 61.1716C68.8352 61.4225 68.8229 61.8632 68.8107 62.5058L68.774 63.6196V66.6796L68.7984 69.0603C68.8046 69.4275 68.8168 69.8926 68.8413 70.4618ZM75.7446 71.3002V70.78C76.1486 70.7739 76.3995 70.7617 76.4974 70.7311C76.6014 70.7005 76.6871 70.6454 76.7728 70.5719C76.8585 70.4924 76.9809 70.2843 77.14 69.9477C77.2257 69.758 77.5623 69.0419 78.1376 67.7935L80.0592 63.4666C80.2673 62.9893 80.7141 61.9305 81.3995 60.2904H81.9014L85.1756 67.9893C85.708 69.2378 86.063 70.0212 86.2343 70.3394C86.3322 70.5169 86.4363 70.6393 86.5526 70.6944C86.6688 70.7494 86.932 70.78 87.3359 70.7861V71.3064C86.5403 71.2574 85.9773 71.2329 85.6652 71.2329L83.1927 71.3064V70.7861C83.768 70.7739 84.1107 70.7556 84.2392 70.7311C84.3616 70.7066 84.4412 70.6699 84.484 70.6209C84.5268 70.5719 84.5513 70.5107 84.5513 70.4373C84.5513 70.321 84.5146 70.1741 84.4412 70.0028L83.4987 67.6527H79.0556L78.2171 69.6234C78.0702 69.9783 77.9968 70.2353 77.9968 70.4006C77.9968 70.474 78.0152 70.5291 78.058 70.5781C78.1131 70.6454 78.1988 70.6882 78.3212 70.7127C78.5109 70.7556 78.8414 70.78 79.3187 70.78V71.3002C78.4558 71.2513 77.8071 71.2329 77.3787 71.2329C76.8768 71.2268 76.3322 71.2513 75.7446 71.3002ZM79.3126 66.9917H83.1866L81.271 62.365L79.3126 66.9917ZM49.9182 60.884C50.5302 60.8962 50.8974 60.9207 51.026 60.9697C51.1606 61.0125 51.2524 61.0798 51.3075 61.1716C51.3687 61.2573 51.4054 61.5449 51.4238 62.0284C51.4421 62.6894 51.4482 63.3748 51.4482 64.0664V67.6221C51.4299 68.9685 51.4176 69.6968 51.4176 69.8008C51.3993 70.1925 51.3626 70.4434 51.3014 70.5475C51.2524 70.627 51.1606 70.6882 51.026 70.7311C50.8974 70.7739 50.5241 70.7984 49.9182 70.8045V71.2941C51.081 71.2513 51.9072 71.2329 52.3968 71.2329C53.0088 71.2329 53.6759 71.2513 54.3981 71.2941V70.8045C53.7983 70.7923 53.425 70.7678 53.2965 70.7311C53.1618 70.6821 53.0639 70.6148 53.0027 70.523C52.9476 70.4312 52.9109 70.1435 52.9048 69.6539C52.8864 68.993 52.8742 68.3137 52.8742 67.6221V64.2133C52.9048 62.7934 52.9232 62.0529 52.9293 61.9795C52.9415 61.7408 52.9538 61.4838 52.9782 61.2022C53.4862 61.0431 54.0003 60.9636 54.5266 60.9636C55.365 60.9636 55.9893 61.1471 56.4054 61.5205C56.8155 61.8877 57.0236 62.3895 57.0236 63.0199C57.0236 63.742 56.7788 64.3234 56.3014 64.7579C55.8179 65.1986 55.1141 65.4189 54.1839 65.4189C54.0492 65.4189 53.8412 65.4128 53.578 65.3944L53.4984 65.627C53.988 66.1839 54.496 66.8081 55.0346 67.4875C55.365 67.9036 55.7506 68.4177 56.1851 69.0358C56.9685 70.1497 57.5254 70.9024 57.862 71.2819C58.3026 71.2513 58.676 71.2329 58.9758 71.2329C59.2145 71.2329 62.5805 71.2146 62.5805 71.2146C62.9232 71.2146 63.6393 71.2329 64.7286 71.2758V70.7861C64.1228 70.7739 63.7494 70.7494 63.6209 70.7127C63.4924 70.6638 63.4006 70.5964 63.3333 70.5046C63.2782 70.4128 63.2415 70.1252 63.2292 69.6356C63.217 68.9746 63.2048 68.2953 63.2048 67.6038V64.0664C63.217 62.7139 63.2292 61.9917 63.2354 61.8877C63.2537 61.496 63.2904 61.2451 63.3516 61.1471C63.4006 61.0676 63.4924 61.0125 63.6209 60.9697C63.7494 60.9207 64.1228 60.8962 64.7286 60.884V60.3944C63.7372 60.4311 62.9844 60.4495 62.4704 60.4495C61.9379 60.4495 61.1852 60.4311 60.206 60.3944V60.884C60.8118 60.8962 61.1852 60.9207 61.3137 60.9697C61.4483 61.0125 61.5401 61.0798 61.5952 61.1716C61.6564 61.2573 61.6931 61.5449 61.7115 62.0284C61.7298 62.6894 61.736 63.3748 61.736 64.0664V67.6221C61.7176 68.9685 61.7054 69.6968 61.7054 69.8008C61.6931 70.1925 61.6503 70.4434 61.5891 70.5475C61.5401 70.627 61.4422 70.6882 61.3137 70.7311C61.1852 70.7678 60.8363 70.7984 60.2733 70.8045C59.9244 70.7984 59.5511 70.7861 59.4899 70.7678C59.441 70.7555 59.392 70.725 59.3492 70.6944C59.2574 70.6148 58.933 70.217 58.3822 69.5009L56.4483 66.955C55.9709 66.3369 55.671 65.9391 55.5425 65.7555C56.2463 65.6025 56.8155 65.3822 57.25 65.1068C57.6906 64.8253 58.0272 64.4703 58.2537 64.048C58.4862 63.6258 58.6025 63.1973 58.6025 62.7689C58.6025 62.3099 58.4801 61.8815 58.2292 61.496C57.9844 61.1043 57.6356 60.8167 57.1888 60.6453C56.742 60.4739 56.0321 60.3821 55.0529 60.3821C54.9305 60.3821 54.4654 60.4005 53.6698 60.4311C53.0517 60.4556 52.5988 60.4617 52.3112 60.4617L50.8362 60.425L49.9244 60.4005V60.884M47.8619 74.3664C48.5474 74.3786 48.9696 74.4092 49.1165 74.4643C49.2634 74.5071 49.3736 74.5867 49.4348 74.6907C49.5021 74.7886 49.5449 75.113 49.5633 75.6638C49.5816 76.4227 49.5878 77.1877 49.5878 77.9771V81.8205C49.5878 82.9405 49.6734 83.7361 49.8326 84.2134C49.9611 84.5745 50.1936 84.9295 50.5364 85.2722C50.8791 85.6149 51.3809 85.8903 52.0358 86.1106C52.6906 86.3187 53.4678 86.4228 54.3552 86.4228C55.1202 86.4228 55.8179 86.3309 56.4422 86.1535C57.0725 85.976 57.5927 85.719 57.9905 85.3946C58.523 84.9601 58.8902 84.4582 59.086 83.8891C59.288 83.3199 59.3859 82.3223 59.3859 80.8903V77.9771C59.4042 76.4471 59.4165 75.6209 59.4226 75.5047C59.441 75.0579 59.4838 74.7764 59.5511 74.6601C59.6062 74.5744 59.7102 74.5071 59.8571 74.4643C60.004 74.4092 60.4263 74.3786 61.1178 74.3664V73.8094C60.0774 73.8523 59.3553 73.8767 58.9514 73.8767C58.5107 73.8767 57.813 73.8523 56.8583 73.8094V74.3664C57.5438 74.3786 57.9599 74.4092 58.1129 74.4643C58.2598 74.5071 58.37 74.5867 58.4373 74.6907C58.5046 74.7886 58.5474 75.113 58.5597 75.6638C58.5842 76.4227 58.5964 77.1877 58.5964 77.9771V80.6577C58.5964 81.4166 58.5658 82.0469 58.5107 82.5427C58.4556 83.0384 58.37 83.4239 58.2414 83.7055C58.119 83.9931 57.9293 84.2501 57.6784 84.4766C57.4275 84.703 57.048 84.8989 56.5462 85.058C56.0444 85.211 55.463 85.2906 54.8204 85.2906C54.2634 85.2906 53.7555 85.2355 53.3026 85.1192C52.8497 84.9968 52.4948 84.8377 52.2255 84.6418C51.8766 84.3787 51.6196 84.0543 51.4605 83.6565C51.3014 83.2587 51.2218 82.4325 51.2218 81.184V77.9649C51.2402 76.4349 51.2524 75.6087 51.2585 75.4924C51.2769 75.0457 51.3258 74.7642 51.3993 74.6479C51.4544 74.5622 51.5523 74.4949 51.7053 74.452C51.8583 74.397 52.2744 74.3663 52.9599 74.3541V73.7972C52.1459 73.84 51.332 73.8645 50.5058 73.8645C49.6918 73.8645 48.8166 73.84 47.868 73.7972V74.3664M60.9159 86.1718C61.6074 86.1351 62.2562 86.1167 62.8498 86.1167C63.3945 86.1167 63.8902 86.1351 64.337 86.1718V85.6884C63.7984 85.6822 63.4557 85.6455 63.2843 85.5721C63.2109 85.5415 63.1619 85.4925 63.1252 85.4191C63.0762 85.3211 63.0456 85.0641 63.0212 84.6357C62.9844 83.9564 62.9661 83.3627 62.9661 82.8609V76.9796L68.4129 83.479L69.3982 84.7336C69.6002 84.9784 69.9123 85.3395 70.3346 85.823C70.4937 86.0005 70.5916 86.1045 70.6283 86.129C70.6528 86.1473 70.6773 86.1657 70.714 86.1779L70.8976 86.2147L71.6871 86.4472C71.6626 84.4093 71.6504 83.0139 71.6504 82.2673V78.5769C71.6504 78.0873 71.6626 77.512 71.6932 76.8327C71.7177 76.3921 71.7483 76.1228 71.8034 76.0249C71.8401 75.9514 71.8829 75.9025 71.9564 75.8719C72.1277 75.7984 72.4766 75.7617 73.009 75.7556V75.266C72.5316 75.2905 72.0053 75.2966 71.4239 75.2966C70.8058 75.2966 70.1877 75.2843 69.5879 75.266V75.7495C70.1204 75.7556 70.4692 75.7923 70.6406 75.8657C70.714 75.8963 70.763 75.9453 70.7997 76.0126C70.8425 76.1167 70.8792 76.3798 70.8976 76.8021C70.9343 77.4753 70.9527 78.0628 70.9527 78.5647V84.1706C70.7568 83.9747 70.5182 83.7116 70.2305 83.375C69.7776 82.8609 69.1779 82.1632 68.4374 81.2758L66.124 78.4851L64.5328 76.5267C64.3308 76.2574 64.0065 75.8413 63.572 75.266C63.2048 75.2905 62.8314 75.2966 62.4642 75.2966C62.2439 75.2966 61.7054 75.2843 60.8486 75.266V75.7495C61.2647 75.7556 61.5279 75.7739 61.6503 75.7984C61.7727 75.8168 61.8828 75.8719 61.9746 75.9514C62.1154 76.0799 62.2072 76.1901 62.25 76.2819C62.2745 76.3309 62.2868 76.441 62.2868 76.6124V82.867C62.2868 83.3566 62.2684 83.9442 62.2378 84.6174C62.2133 85.0519 62.1827 85.3211 62.1276 85.4191C62.097 85.4864 62.042 85.5353 61.9746 85.5659C61.8033 85.6455 61.4544 85.6822 60.9159 85.6884V86.1718ZM78.4191 85.6761C77.8071 85.6639 77.4338 85.6394 77.3052 85.5965C77.1767 85.5476 77.0849 85.4803 77.0237 85.3885C76.9625 85.2967 76.9319 85.009 76.9136 84.5194C76.9013 83.8585 76.8952 83.1791 76.8952 82.4876V78.9319C76.9136 77.5794 76.9197 76.8572 76.9197 76.7531C76.938 76.3615 76.9748 76.1105 77.036 76.0126C77.0849 75.9331 77.1706 75.878 77.3052 75.8351C77.4399 75.7923 77.8132 75.7617 78.4191 75.7495V75.2599C77.4215 75.2966 76.6749 75.3149 76.1608 75.3149C75.6284 75.3149 74.8756 75.2966 73.8964 75.2599V75.7495C74.5084 75.7617 74.8756 75.7862 74.998 75.8351C75.1326 75.878 75.2244 75.9453 75.2795 76.0371C75.3407 76.1228 75.3774 76.4104 75.3958 76.8939C75.4142 77.561 75.4203 78.2403 75.4203 78.938V82.4937C75.4019 83.8401 75.3958 84.5623 75.3897 84.6724C75.3713 85.0641 75.3346 85.315 75.2734 85.4191C75.2244 85.4986 75.1326 85.5598 74.998 85.6027C74.8634 85.6455 74.4962 85.67 73.8964 85.6822V86.1718L76.2648 86.1106C76.6076 86.1106 77.3236 86.129 78.413 86.1718V85.6761M84.8879 86.2453C84.9797 85.9515 85.0654 85.7006 85.145 85.4741C85.2245 85.2538 85.3224 84.9968 85.4448 84.6908L86.0324 83.1791L88.4253 77.2856C88.7619 76.5328 88.9516 76.1167 88.9944 76.0432C89.0618 75.9331 89.1352 75.8658 89.2086 75.829C89.2821 75.7923 89.5146 75.7678 89.9063 75.7495V75.2599C89.2086 75.2905 88.6517 75.3027 88.2539 75.3027C87.8622 75.3027 87.2808 75.2844 86.5097 75.2599V75.7495C87.1952 75.8045 87.5868 75.8474 87.6909 75.878C87.8255 75.9208 87.8867 76.0004 87.8867 76.1289C87.8867 76.2146 87.8316 76.441 87.7215 76.8021C87.4522 77.6467 87.1768 78.4361 86.883 79.1583L84.8757 84.1889L82.4766 78.1301C82.3114 77.714 82.1217 77.1693 81.9014 76.4839C81.8279 76.2758 81.7912 76.1411 81.7912 76.0861C81.7912 76.031 81.8096 75.982 81.8463 75.9392C81.8891 75.8902 81.9564 75.8596 82.0544 75.8474C82.1584 75.8351 82.5195 75.8168 83.1437 75.8107V75.266C82.1462 75.3088 81.4485 75.3272 81.0323 75.3272C80.5917 75.3272 79.9062 75.3088 78.9821 75.266V75.7556C79.435 75.7862 79.7165 75.829 79.8267 75.878C79.9062 75.9086 79.9674 75.9576 80.0164 76.0249C80.0837 76.135 80.2551 76.5267 80.5305 77.2121L83.1437 83.6687C83.6272 84.9417 83.9454 85.8046 84.1046 86.2453H84.8879ZM90.7264 86.1718C91.9994 86.129 92.6726 86.1106 92.7399 86.1106L97.3176 86.1718C97.948 86.1718 98.4866 86.1412 98.9211 86.0739C98.9211 85.3946 98.9884 84.5378 99.1169 83.5035H98.609C98.5722 83.73 98.4988 84.0727 98.3886 84.5317C98.3274 84.8009 98.2662 85.0213 98.205 85.1804C97.9725 85.2783 97.7154 85.3456 97.44 85.3824C97.1646 85.4252 96.6995 85.4436 96.0508 85.4436C95.1328 85.4436 94.3066 85.413 93.5722 85.3579C93.5477 84.8683 93.5355 84.1461 93.5355 83.2036C93.5355 82.1938 93.5477 81.435 93.5722 80.9209C94.2026 80.8964 94.686 80.8841 95.0349 80.8841C95.8733 80.8841 96.4364 80.9147 96.7301 80.9759C96.8954 81.0127 97.0055 81.0739 97.0606 81.1657C97.1218 81.2575 97.1585 81.4961 97.1708 81.8695L97.1952 82.3897H97.7338L97.6971 80.6026L97.7338 79.0053V78.8584H97.2748L97.232 79.397C97.1891 79.7581 97.1524 79.9662 97.1096 80.0274C97.0606 80.0886 96.9566 80.1314 96.7913 80.1497C96.3629 80.2048 95.8427 80.2354 95.2368 80.2354C94.735 80.2354 94.1842 80.2171 93.5844 80.1865L93.6212 77.5916C93.6334 77.0959 93.6456 76.5634 93.664 75.9943C93.8476 75.9759 94.1536 75.9637 94.5759 75.9392C95.0043 75.9208 95.2736 75.9086 95.396 75.9086C95.9712 75.9086 96.5404 75.9453 97.1157 76.0187C97.4523 76.0616 97.7644 76.1411 98.0398 76.2574C98.1132 76.6858 98.1438 77.1632 98.1438 77.6834H98.6273C98.7069 76.6675 98.7558 76.135 98.7681 76.0861C98.7926 75.8719 98.8538 75.6148 98.9333 75.3272C98.4804 75.2721 98.0031 75.2415 97.4951 75.2415C96.9933 75.2415 96.1916 75.2476 95.0777 75.266L92.7644 75.3088L90.5795 75.2599V75.7495C91.1854 75.7617 91.5587 75.7862 91.6872 75.8351C91.8158 75.878 91.9137 75.9453 91.9688 76.0371C92.03 76.1228 92.0667 76.4104 92.085 76.8939C92.1034 77.561 92.1095 78.2403 92.1095 78.938V82.8609C92.1095 83.3505 92.0912 83.938 92.0606 84.6112C92.0422 85.0457 92.0055 85.315 91.9565 85.4129C91.9259 85.4803 91.8708 85.5292 91.8035 85.5598C91.6322 85.6394 91.2833 85.6761 90.7448 85.6822V86.1718M100.133 75.7556C100.745 75.7678 101.112 75.7923 101.234 75.8413C101.369 75.8841 101.461 75.9514 101.522 76.0432C101.583 76.1289 101.62 76.4166 101.638 76.9C101.651 77.561 101.663 78.2464 101.663 78.938V82.4937C101.644 83.8401 101.632 84.5623 101.632 84.6724C101.614 85.0641 101.577 85.315 101.516 85.4191C101.467 85.4986 101.375 85.5598 101.241 85.6027C101.106 85.6455 100.739 85.67 100.139 85.6822V86.1718C101.302 86.129 102.128 86.1106 102.611 86.1106C103.223 86.1106 103.891 86.1351 104.619 86.1718V85.6822C104.013 85.67 103.646 85.6455 103.511 85.6027C103.376 85.5537 103.285 85.4864 103.223 85.3946C103.168 85.3028 103.132 85.0152 103.119 84.5256C103.101 83.8646 103.089 83.1914 103.089 82.4937V79.0849C103.119 77.665 103.138 76.9245 103.144 76.8511C103.156 76.6124 103.168 76.3492 103.187 76.0738C103.695 75.9147 104.209 75.8351 104.735 75.8351C105.574 75.8351 106.204 76.0187 106.62 76.3921C107.03 76.7593 107.238 77.2611 107.238 77.8915C107.238 78.6136 106.999 79.195 106.516 79.6296C106.033 80.0702 105.329 80.2905 104.398 80.2905C104.258 80.2905 104.056 80.2783 103.793 80.266L103.713 80.4986C104.203 81.0555 104.711 81.6798 105.249 82.3591C105.586 82.7752 105.965 83.2893 106.4 83.9074C107.183 85.0213 107.74 85.774 108.077 86.1535C108.511 86.1229 108.891 86.1045 109.184 86.1045C109.478 86.1045 109.821 86.1229 110.206 86.1535V85.6639C109.943 85.6639 109.778 85.6516 109.698 85.6271C109.656 85.6149 109.607 85.5843 109.564 85.5476C109.472 85.468 109.148 85.0702 108.591 84.3603L106.657 81.8144C106.186 81.1963 105.88 80.7985 105.751 80.6149C106.455 80.4619 107.018 80.2416 107.458 79.96C107.899 79.6785 108.236 79.3297 108.462 78.9013C108.695 78.479 108.811 78.0506 108.811 77.6222C108.811 77.1632 108.689 76.7348 108.438 76.3492C108.193 75.9576 107.844 75.6699 107.391 75.4986C106.944 75.3272 106.234 75.2354 105.255 75.2354C105.127 75.2354 104.668 75.2538 103.872 75.2844C103.26 75.3088 102.807 75.3149 102.514 75.3149L101.045 75.2782C100.635 75.266 100.329 75.2599 100.133 75.2537V75.7556ZM110.708 85.7924C111.528 86.1902 112.446 86.3921 113.462 86.3921C114.802 86.3921 115.892 86.0127 116.736 85.2538C117.581 84.4949 118.003 83.6075 118.003 82.5916C118.003 82.1632 117.93 81.7899 117.783 81.4717C117.636 81.1473 117.446 80.8903 117.214 80.6944C116.981 80.4986 116.626 80.3272 116.149 80.1804C115.635 80.0824 115.06 79.9967 114.423 79.9111C113.78 79.8254 113.321 79.7336 113.04 79.6357C112.63 79.4949 112.348 79.3052 112.189 79.0665C112.03 78.8278 111.951 78.4912 111.951 78.0506C111.951 77.3284 112.171 76.7409 112.605 76.2941C113.052 75.8413 113.646 75.6148 114.386 75.6148C114.955 75.6148 115.506 75.7617 116.039 76.0555C116.259 76.2023 116.43 76.3737 116.559 76.5573C116.59 76.6307 116.614 77.0591 116.626 77.8486H117.146C117.165 77.3101 117.183 76.9 117.22 76.6185C117.25 76.337 117.299 76.0371 117.373 75.7127C116.926 75.4924 116.449 75.3272 115.929 75.2109C115.414 75.0946 114.943 75.0334 114.509 75.0334C113.787 75.0334 113.119 75.1803 112.495 75.4802C111.883 75.7801 111.418 76.1962 111.106 76.7287C110.788 77.2611 110.635 77.8303 110.635 78.4361C110.635 78.8523 110.714 79.2379 110.867 79.5928C111.026 79.9478 111.228 80.2416 111.479 80.4619C111.73 80.6822 112.122 80.8719 112.654 81.0371C113.052 81.1228 113.536 81.2024 114.105 81.2758C114.668 81.3493 115.053 81.3982 115.237 81.4288C115.543 81.49 115.794 81.6002 116.002 81.7532C116.204 81.9001 116.357 82.0959 116.449 82.3468C116.553 82.5916 116.602 82.8854 116.602 83.222C116.602 83.6626 116.504 84.0788 116.302 84.4644C116.1 84.8499 115.782 85.1559 115.353 85.4007C114.913 85.6333 114.441 85.7557 113.921 85.7557C113.566 85.7557 113.199 85.6945 112.826 85.5782C112.446 85.4558 112.146 85.315 111.92 85.162C111.694 85.009 111.553 84.8683 111.492 84.7336C111.436 84.599 111.394 84.1522 111.369 83.4056H110.849C110.837 84.5072 110.788 85.3028 110.708 85.7924ZM123.193 85.6761C122.587 85.6639 122.214 85.6394 122.085 85.5965C121.957 85.5476 121.865 85.4803 121.804 85.3885C121.743 85.2967 121.712 85.009 121.694 84.5194C121.675 83.8585 121.669 83.1791 121.669 82.4876V78.9319C121.687 77.5794 121.694 76.8572 121.7 76.7531C121.718 76.3615 121.755 76.1105 121.816 76.0126C121.871 75.9331 121.957 75.878 122.085 75.8351C122.214 75.7923 122.587 75.7617 123.193 75.7495V75.2599C122.202 75.2966 121.449 75.3149 120.941 75.3149C120.408 75.3149 119.65 75.2966 118.676 75.2599V75.7495C119.282 75.7617 119.65 75.7862 119.778 75.8351C119.913 75.878 120.004 75.9453 120.066 76.0371C120.127 76.1228 120.164 76.4104 120.182 76.8939C120.2 77.561 120.206 78.2403 120.206 78.938V82.4937C120.194 83.8401 120.182 84.5623 120.176 84.6724C120.157 85.0641 120.121 85.315 120.06 85.4191C120.011 85.4986 119.919 85.5598 119.784 85.6027C119.65 85.6455 119.282 85.67 118.683 85.6822V86.1718L121.051 86.1106C121.394 86.1106 122.11 86.129 123.199 86.1718V85.6761M124.576 77.0286C124.619 76.5573 124.674 76.2819 124.729 76.1901C124.766 76.1411 124.845 76.1044 124.968 76.0922C125.353 76.0371 125.88 76.0126 126.541 76.0126H127.685L127.734 77.3101C127.746 77.5671 127.746 77.7997 127.746 78.02V82.4937C127.728 83.8401 127.716 84.5623 127.716 84.6724C127.697 85.0702 127.661 85.315 127.593 85.4191C127.544 85.4986 127.459 85.5598 127.324 85.6027C127.189 85.6455 126.822 85.67 126.21 85.6822V86.1718C127.606 86.129 128.407 86.1106 128.603 86.1106C129.062 86.1106 129.754 86.129 130.672 86.1718V85.6822C130.06 85.67 129.686 85.6455 129.558 85.6027C129.429 85.5537 129.337 85.4864 129.276 85.3946C129.221 85.3028 129.184 85.0152 129.172 84.5256C129.154 83.8646 129.148 83.1853 129.148 82.4937V78.0016C129.148 77.1693 129.172 76.5022 129.227 76.0126H130.164C130.421 76.0126 130.763 76.0249 131.204 76.0494C131.645 76.0738 131.902 76.0983 131.975 76.1105C132.036 76.1289 132.073 76.1473 132.098 76.1717C132.128 76.1962 132.153 76.2391 132.165 76.3003C132.183 76.3615 132.208 76.6124 132.251 77.0591L132.312 77.7936H132.801C132.82 76.6736 132.863 75.829 132.924 75.2537C132.508 75.2721 131.834 75.2966 130.923 75.3149C129.662 75.3455 128.854 75.3578 128.505 75.3578C128.181 75.3578 127.538 75.3456 126.565 75.3272C125.372 75.2966 124.503 75.2721 123.94 75.2476C123.982 75.7189 124.007 76.5634 124.019 77.7874H124.497L124.576 77.0286ZM133.413 75.9392C133.719 75.9392 133.946 75.9637 134.087 76.0187C134.233 76.0677 134.374 76.1595 134.509 76.288C134.754 76.5145 135.06 76.9 135.433 77.4325C135.629 77.7079 135.929 78.173 136.327 78.8278L136.834 79.654C137.287 80.4068 137.544 80.8474 137.618 80.9759C137.722 81.1595 137.826 81.3676 137.93 81.6002V82.4998C137.918 83.8462 137.905 84.5684 137.899 84.6786C137.881 85.0764 137.844 85.3212 137.777 85.4252C137.728 85.5048 137.642 85.5659 137.508 85.6088C137.373 85.6516 137.006 85.6761 136.4 85.6884V86.1779C137.355 86.1351 138.126 86.1167 138.707 86.1167C139.319 86.1167 140.041 86.1351 140.874 86.1779V85.6884C140.262 85.6761 139.894 85.6516 139.76 85.6088C139.631 85.5659 139.54 85.4925 139.478 85.4007C139.423 85.3089 139.387 85.0213 139.368 84.5317C139.35 83.8707 139.344 83.1914 139.344 82.4998V81.9062C139.344 81.7654 139.374 81.6124 139.429 81.4533C139.484 81.2881 139.729 80.8535 140.17 80.1436C140.868 78.9931 141.431 78.1179 141.865 77.512C142.618 76.4655 143.132 75.7923 143.42 75.4802V75.266H142.245L140.611 78.0506C140.041 79.0298 139.484 79.9356 138.946 80.7679C138.407 79.6908 137.905 78.7299 137.422 77.8915C136.945 77.053 136.528 76.3921 136.161 75.9025C135.916 75.5781 135.757 75.3823 135.678 75.3211C135.604 75.2537 135.464 75.1864 135.256 75.113L133.413 75.4741V75.9392Z" fill="#545454"/>
<path fill-rule="evenodd" clip-rule="evenodd" d="M19.0122 53.4727H171.994L172 54.6538H19L19.0122 53.4727Z" fill="#545454"/>
</svg>
