<svg width="192" height="108" viewBox="0 0 192 108" fill="none" xmlns="http://www.w3.org/2000/svg">
<path fill-rule="evenodd" clip-rule="evenodd" d="M54.6628 39.4596H49.6836V40.5335H51.5458V45.2124H52.8006V40.5335H54.6628V39.4596ZM60.7451 39.4596H59.4522V41.7609H56.9054V39.4596H55.6134V45.2124H56.9054V42.8729H59.4522V45.2124H60.7451V39.4596ZM65.8387 44.1385H63.3301V42.7585H65.6861V41.7228H63.3301V40.5335H65.8006V39.4596H62.0753V45.2124H65.8387V44.1385ZM73.0986 39.4596V42.6802C73.0986 43.6778 72.4522 44.0994 71.7685 44.0994C71.0467 44.0994 70.5147 43.6006 70.5147 42.7575V39.4596H69.2217V42.7194C69.2217 44.5219 70.324 45.2887 71.8067 45.2887C73.2131 45.2887 74.3535 44.6363 74.3535 42.7194V39.4596H73.0986ZM80.8535 39.4596H79.5605V42.9883L76.824 39.4596H75.6454V45.2124H76.9374V41.5301L79.7502 45.2124H80.8535V39.4596ZM83.5518 39.4596H82.297V45.2124H83.5518V39.4596ZM89.824 39.4596H88.4557L87.1627 42.7585L85.8326 39.4596H84.4262L86.8967 45.2887H87.4669L89.824 39.4596ZM94.5371 44.1385H92.0284V42.7585H94.3855V41.7228H92.0284V40.5335H94.4608V39.4596H90.7736V45.2124H94.5371V44.1385ZM95.6775 39.4596V45.2114H96.9704V42.8729H97.3509C98.0345 42.8729 98.2243 43.9849 98.7954 45.2124H100.202C99.4801 43.5253 99.2903 42.8348 98.7954 42.5286C99.3666 42.2215 99.6708 41.7609 99.6708 41.1095C99.6708 40.2665 99.0233 39.4606 97.9974 39.4606L95.6775 39.4596ZM96.9704 40.5335H97.6159C98.1108 40.5335 98.3377 40.7252 98.3377 41.1848C98.3377 41.6455 97.9954 41.8372 97.6541 41.8372H96.9704V40.5335ZM104.535 39.843C103.887 39.5369 103.394 39.3823 102.823 39.3823C101.644 39.3823 100.847 40.0347 100.847 41.0323C100.847 43.1028 103.47 42.7585 103.47 43.717C103.47 44.0231 103.203 44.2158 102.711 44.2158C102.139 44.2158 101.721 44.0241 100.961 43.4871V44.7136C101.494 45.0207 101.912 45.2887 102.823 45.2887C103.963 45.2887 104.8 44.6363 104.8 43.5243C104.8 41.5301 102.176 41.799 102.176 40.9169C102.176 40.6098 102.481 40.4562 102.936 40.4562C103.355 40.4562 103.812 40.5716 104.534 40.955L104.535 39.843ZM107.308 39.4596H106.017V45.2124H107.308V39.4596ZM113.429 39.4596H108.449V40.5335H110.311V45.2124H111.605V40.5335H113.429V39.4596ZM115.862 45.2124H117.115V42.5277L119.131 39.4596H117.61L116.508 41.2621L115.367 39.4596H113.847L115.862 42.5277V45.2124ZM127.835 42.336C127.835 40.955 126.807 39.3823 124.909 39.3823C122.97 39.3823 121.944 40.955 121.944 42.336C121.944 43.7932 123.009 45.2887 124.909 45.2887C126.733 45.2887 127.835 43.7932 127.835 42.336ZM126.504 42.336C126.504 43.3717 125.859 44.1003 124.909 44.1003C123.919 44.1003 123.274 43.3717 123.274 42.336C123.274 41.3002 123.919 40.5716 124.909 40.5716C125.859 40.5716 126.504 41.3002 126.504 42.336ZM132.32 39.4596H128.785V45.2124H130.078V42.8348H132.32V41.799H130.078V40.5335H132.32V39.4596ZM138.022 39.4596H136.54L134.486 45.2114H135.817L136.197 44.0612H138.514L138.933 45.2114H140.302L138.022 39.4596ZM138.136 43.0646H136.541L137.301 40.8406L138.136 43.0646ZM144.712 39.4596V42.6802C144.712 43.6778 144.105 44.0994 143.419 44.0994C142.697 44.0994 142.166 43.6006 142.166 42.7575V39.4596H140.873V42.7194C140.873 44.5219 141.937 45.2887 143.458 45.2887C144.865 45.2887 146.006 44.6363 146.006 42.7194V39.4596H144.712ZM152.047 43.448C151.326 43.8695 150.869 44.1003 150.223 44.1003C149.159 44.1003 148.399 43.3717 148.399 42.336C148.399 41.3002 149.159 40.5716 150.223 40.5716C150.869 40.5716 151.44 40.8396 152.011 41.1848V39.8811C151.516 39.575 150.869 39.3823 150.147 39.3823C148.21 39.3823 147.07 40.8396 147.07 42.336C147.07 43.8324 148.058 45.2887 150.073 45.2887C150.794 45.2887 151.364 45.1351 152.048 44.7136L152.047 43.448ZM157.711 39.4596H156.306L154.709 42.068H154.67V39.4596H153.418V45.2124H154.67V42.5277L156.723 45.2124H158.32L156.04 42.1443L157.711 39.4596ZM162.995 44.1385H160.334V39.4596H159.081V45.2124H162.995V44.1385ZM166.872 39.4596H165.39L163.336 45.2114H164.667L165.047 44.0612H167.366L167.785 45.2114H169.152L166.872 39.4596ZM166.988 43.0646H165.391L166.151 40.8406L166.988 43.0646ZM175.121 39.4596H173.828V42.9883L171.093 39.4596H169.952V45.2124H171.207V41.5301L174.057 45.2124H175.121V39.4596ZM176.452 39.4596V45.2114H178.542C180.594 45.2114 181.545 43.9849 181.545 42.336C181.545 40.7643 180.557 39.4596 178.695 39.4596H176.452ZM177.706 40.5335H178.542C179.759 40.5335 180.214 41.3384 180.214 42.336C180.214 43.179 179.835 44.1385 178.542 44.1385H177.706V40.5335Z" fill="#545454"/>
<path fill-rule="evenodd" clip-rule="evenodd" d="M181.886 47.7426V58.673H49.4551V47.7426H181.886Z" fill="#545454"/>
<path fill-rule="evenodd" clip-rule="evenodd" d="M91.6862 50.9643H90.4705V54.2622L87.9227 50.9643H86.8205V56.3337H88.0371V52.9203L90.6602 56.3337H91.6862V50.9643ZM96.4756 55.3742H94.1567V54.0705H96.324V53.0739H94.1567V51.9618H96.4375V50.9643H92.941V56.3337H96.4756V55.3742ZM101.152 52.9203L102.634 56.4099H103.127L105.256 50.9643H103.963L102.861 53.9551L101.608 50.9643H100.657L99.44 53.9551L98.2996 50.9643H97.0468L99.1368 56.4099H99.6698L101.152 52.9203ZM112.25 50.9643H107.765V51.9618H110.198L107.575 56.3337H112.25V55.3742H109.627L112.25 50.9643ZM116.736 55.3742H114.38V54.0705H116.546V53.0739H114.38V51.9618H116.661V50.9643H113.163V56.3337H116.736V55.3742ZM120.613 50.9643H119.246L117.308 56.3327H118.561L118.905 55.2969H121.071L121.452 56.3327H122.743L120.613 50.9643ZM120.728 54.3394H119.245L119.929 52.269L120.728 54.3394ZM127.113 55.3742H124.68V50.9643H123.463V56.3337H127.113V55.3742ZM130.762 50.9643H129.395L127.457 56.3327H128.712L129.092 55.2969H131.22L131.639 56.3327H132.892L130.762 50.9643ZM130.877 54.3394H129.394L130.116 52.269L130.877 54.3394ZM138.515 50.9643H137.301V54.2622L134.753 50.9643H133.651V56.3337H134.829V52.9203L137.489 56.3337H138.515V50.9643ZM139.732 50.9643V56.3327H141.709C143.647 56.3327 144.52 55.2206 144.52 53.6861C144.52 52.1907 143.609 50.9633 141.861 50.9633L139.732 50.9643ZM140.95 51.9618H141.71C142.85 51.9618 143.269 52.7286 143.269 53.649C143.269 54.4539 142.926 55.3742 141.71 55.3742H140.95V51.9618ZM26.8769 78C42.2711 71.4804 43.7538 58.2124 43.7538 56.2182V39H10V56.2182C10 58.2124 11.4827 71.4804 26.8769 78Z" fill="white"/>
<path d="M26.8769 78C42.2711 71.4804 43.7538 58.2124 43.7538 56.2182V39H10V56.2182C10 58.2124 11.4827 71.4804 26.8769 78Z" stroke="#545454" stroke-width="0.5" stroke-miterlimit="2.613"/>
<path fill-rule="evenodd" clip-rule="evenodd" d="M43.7538 49.2771H43.3734C42.3856 49.2771 41.4349 49.5451 40.6368 50.0058C39.814 50.5124 38.8656 50.778 37.8993 50.7725C36.9214 50.7779 35.961 50.5125 35.1247 50.0058C34.3266 49.5451 33.3759 49.239 32.3881 49.239C31.3622 49.239 30.4497 49.5451 29.6516 50.0058H29.6134C28.8154 50.5046 27.8657 50.7725 26.8769 50.7725C25.8881 50.7725 24.9385 50.5046 24.1404 50.0058C23.304 49.499 22.3436 49.2336 21.3657 49.239C20.3998 49.2335 19.4516 49.4992 18.6292 50.0058C17.7962 50.4832 16.8528 50.7344 15.8926 50.7344C14.9204 50.7344 13.9647 50.4834 13.118 50.0058C12.2955 49.4993 11.3474 49.2336 10.3814 49.239C10.267 49.239 10.2298 49.239 10.0773 49.2771H10V56.2182C10 58.2124 11.4827 71.4804 26.8769 78C42.2711 71.4804 43.7538 58.2124 43.7538 56.2182V49.2771Z" fill="#545454"/>
<path d="M43.7538 49.2771H43.3734C42.3856 49.2771 41.4349 49.5451 40.6368 50.0058C39.814 50.5124 38.8656 50.778 37.8993 50.7725C36.9214 50.7779 35.961 50.5125 35.1247 50.0058C34.3266 49.5451 33.3759 49.239 32.3881 49.239C31.3622 49.239 30.4497 49.5451 29.6516 50.0058H29.6134C28.8154 50.5045 27.8657 50.7725 26.8769 50.7725C25.8881 50.7725 24.9385 50.5045 24.1404 50.0058C23.304 49.499 22.3436 49.2336 21.3657 49.239C20.3998 49.2336 19.4517 49.4992 18.6292 50.0058C17.7962 50.4832 16.8528 50.7344 15.8926 50.7344C14.9204 50.7344 13.9647 50.4834 13.118 50.0058C12.2955 49.4992 11.3474 49.2336 10.3814 49.239C10.267 49.239 10.2298 49.239 10.0773 49.2771H10V56.2182C10 58.2124 11.4827 71.4804 26.8769 77.9999C42.2711 71.4804 43.7538 58.2124 43.7538 56.2182V49.2771Z" stroke="#545454" stroke-width="0.5" stroke-miterlimit="2.613"/>
<path fill-rule="evenodd" clip-rule="evenodd" d="M26.8771 58.2124C28.5877 57.0241 30.2983 56.8314 31.8944 57.5219C33.2245 58.097 34.1752 58.1361 35.43 57.8671L37.1406 58.7112H37.52C37.6547 58.5875 37.8311 58.5194 38.0139 58.5205C38.3181 58.5205 38.5841 58.7493 38.5841 59.0574C38.5859 59.133 38.5723 59.2081 38.5443 59.2784C38.5163 59.3486 38.4745 59.4124 38.4213 59.4661C38.368 59.5198 38.3045 59.5622 38.2345 59.5908C38.1646 59.6194 38.0895 59.6336 38.0139 59.6325C37.8307 59.6341 37.6538 59.5651 37.52 59.4398H37.1406V59.9005H37.52C37.5792 59.8269 37.6546 59.768 37.7403 59.7283C37.8259 59.6886 37.9196 59.6692 38.0139 59.6716C38.3181 59.6716 38.5841 59.9386 38.5841 60.2467C38.5841 60.5548 38.3181 60.8218 38.0139 60.8218C37.9195 60.8244 37.8258 60.8051 37.7401 60.7654C37.6544 60.7256 37.5791 60.6666 37.52 60.5929H37.1406V61.0536H37.52C37.654 60.9285 37.8307 60.8595 38.0139 60.8609C38.3181 60.8609 38.5841 61.0917 38.5841 61.436C38.5841 61.7431 38.3181 61.9729 38.0139 61.9729C37.8242 61.9729 37.6335 61.8966 37.5582 61.7822H37.1406V62.2429H37.5582C37.6122 62.1729 37.6811 62.1158 37.76 62.0759C37.8388 62.036 37.9256 62.0142 38.0139 62.012C38.3181 62.012 38.5841 62.281 38.5841 62.5891C38.5809 62.7398 38.52 62.8835 38.4139 62.9905C38.3078 63.0975 38.1646 63.1597 38.0139 63.1642C37.8242 63.1642 37.6335 63.0879 37.5582 62.9333H37.1406V63.4321H37.5582C37.6345 63.2796 37.8242 63.2033 38.0139 63.2033C38.3563 63.2033 38.6223 63.4321 38.6223 63.7784C38.6223 64.0855 38.3563 64.3153 38.0139 64.3153C37.929 64.316 37.8448 64.2995 37.7665 64.2667C37.6881 64.2339 37.6173 64.1856 37.5582 64.1246H37.1406V64.5852H37.5582C37.6726 64.4689 37.8242 64.3544 38.0139 64.3544C38.3563 64.3544 38.6223 64.6234 38.6223 64.9295C38.6223 65.2366 38.3563 65.5046 38.0139 65.5046C37.925 65.507 37.8369 65.4873 37.7573 65.4474C37.6778 65.4074 37.6094 65.3485 37.5582 65.2757H37.1406V65.7745H37.5582C37.6094 65.7016 37.6777 65.6424 37.7572 65.6021C37.8367 65.5619 37.9249 65.5418 38.0139 65.5437C38.3563 65.5437 38.6223 65.8127 38.6223 66.1207C38.6223 66.4259 38.3563 66.6958 38.0139 66.6958C37.8242 66.6958 37.6716 66.5794 37.5582 66.465H37.1406C36.1518 67.3091 35.1258 67.6553 33.9473 67.6553C32.9213 67.6553 32.3511 67.5008 31.7047 67.0782C30.6406 66.3506 29.3858 66.3506 28.3217 67.0782C28.436 67.1353 28.5321 67.2231 28.5993 67.3318C28.6665 67.4404 28.7021 67.5657 28.7021 67.6934C28.7028 67.7837 28.6856 67.8731 28.6515 67.9567C28.6174 68.0403 28.5672 68.1163 28.5037 68.1803C28.4401 68.2444 28.3646 68.2953 28.2813 68.3301C28.198 68.3648 28.1087 68.3828 28.0185 68.3829H25.7377C25.6475 68.3828 25.5581 68.3648 25.4749 68.3301C25.3916 68.2953 25.316 68.2444 25.2525 68.1803C25.189 68.1163 25.1387 68.0403 25.1047 67.9567C25.0706 67.8731 25.0534 67.7837 25.0541 67.6934C25.0541 67.4245 25.2056 67.1946 25.4335 67.0782C24.4076 66.3506 23.1146 66.3506 22.0505 67.0782C21.404 67.5008 20.8338 67.6553 19.8079 67.6553C18.6294 67.6553 17.6034 67.3091 16.6146 66.465H16.197C16.0826 66.5794 15.931 66.6958 15.7403 66.6958C15.5895 66.6916 15.4462 66.6295 15.3401 66.5224C15.2339 66.4153 15.173 66.2715 15.1701 66.1207C15.1701 65.8136 15.4361 65.5437 15.7403 65.5437C15.93 65.5437 16.1207 65.622 16.197 65.7745H16.6146V65.2757H16.197C16.1207 65.4283 15.931 65.5046 15.7403 65.5046C15.5895 65.5003 15.4462 65.4382 15.3401 65.3312C15.2339 65.2241 15.173 65.0803 15.1701 64.9295C15.1701 64.6244 15.4361 64.3544 15.7403 64.3544C15.93 64.3544 16.1207 64.4689 16.197 64.5852H16.6146V64.1246H16.197C16.1207 64.239 15.931 64.3153 15.7403 64.3153C15.4361 64.3153 15.1701 64.0864 15.1701 63.7784C15.1701 63.4321 15.4361 63.2033 15.7403 63.2033C15.93 63.2033 16.1207 63.2796 16.2342 63.4321H16.6146V62.9333H16.2342C16.1755 63.0076 16.1003 63.0671 16.0145 63.1072C15.9288 63.1472 15.8349 63.1668 15.7403 63.1642C15.5895 63.1599 15.4462 63.0978 15.3401 62.9907C15.2339 62.8837 15.173 62.7398 15.1701 62.5891C15.1701 62.282 15.4361 62.012 15.7403 62.012C15.93 62.012 16.1207 62.1284 16.2342 62.2429H16.6146V61.7783H16.2342C16.0996 61.9021 15.9231 61.9703 15.7403 61.969C15.4361 61.969 15.1701 61.7401 15.1701 61.4321C15.1701 61.0878 15.4361 60.857 15.7403 60.857C15.93 60.857 16.1207 60.9333 16.2342 61.0497H16.6146V60.589H16.2342C16.1751 60.6627 16.0997 60.7216 16.014 60.7613C15.9284 60.801 15.8347 60.8204 15.7403 60.8179C15.4361 60.8179 15.1701 60.5509 15.1701 60.2428C15.1701 59.9347 15.4361 59.6677 15.7403 59.6677C15.93 59.6677 16.1207 59.744 16.2342 59.8966H16.6146V59.4359H16.2342C16.1004 59.5611 15.9235 59.6301 15.7403 59.6286C15.6647 59.6296 15.5896 59.6155 15.5197 59.5869C15.4497 59.5583 15.3862 59.5159 15.3329 59.4622C15.2797 59.4085 15.2379 59.3447 15.2099 59.2744C15.1819 59.2042 15.1684 59.1291 15.1701 59.0535C15.1701 58.7464 15.4361 58.5165 15.7403 58.5165C15.93 58.5165 16.1207 58.5928 16.2342 58.7073H16.6146L18.3633 57.8632C19.6182 58.1322 20.5307 58.0931 21.8608 57.518C23.4559 56.8314 25.1665 57.0241 26.8771 58.2124Z" fill="white"/>
<path d="M26.8761 58.2124C28.5867 57.0231 30.2973 56.8314 31.8934 57.5219C33.2235 58.097 34.1742 58.1361 35.429 57.8672L37.1396 58.7112H37.52C37.6544 58.5869 37.8309 58.5184 38.0139 58.5195C38.3181 58.5195 38.5841 58.7493 38.5841 59.0574C38.5859 59.133 38.5723 59.2081 38.5443 59.2784C38.5163 59.3486 38.4745 59.4125 38.4213 59.4661C38.368 59.5198 38.3045 59.5622 38.2345 59.5908C38.1646 59.6194 38.0895 59.6336 38.0139 59.6325C37.8307 59.6342 37.6538 59.5652 37.52 59.4398H37.1396V59.9005H37.52C37.5791 59.8268 37.6544 59.7677 37.7401 59.728C37.8258 59.6883 37.9195 59.669 38.0139 59.6716C38.3181 59.6716 38.5841 59.9386 38.5841 60.2467C38.5841 60.5548 38.3181 60.8218 38.0139 60.8218C37.9195 60.8244 37.8258 60.8051 37.7401 60.7654C37.6544 60.7257 37.5791 60.6666 37.52 60.5929H37.1396V61.0536H37.52C37.6538 60.9283 37.8307 60.8593 38.0139 60.8609C38.3181 60.8609 38.5841 61.0917 38.5841 61.436C38.5841 61.7431 38.3181 61.9729 38.0139 61.9729C37.8242 61.9729 37.6335 61.8966 37.5582 61.7822H37.1406V62.2429H37.5582C37.6122 62.1729 37.6811 62.1159 37.76 62.0759C37.8388 62.036 37.9256 62.0142 38.0139 62.0121C38.3181 62.0121 38.5841 62.281 38.5841 62.5891C38.5809 62.7398 38.52 62.8835 38.4139 62.9905C38.3078 63.0975 38.1646 63.1597 38.0139 63.1642C37.8242 63.1642 37.6335 63.0879 37.5582 62.9334H37.1406V63.4322H37.5582C37.6345 63.2796 37.8242 63.2033 38.0139 63.2033C38.3563 63.2033 38.6223 63.4322 38.6223 63.7784C38.6223 64.0855 38.3563 64.3153 38.0139 64.3153C37.929 64.3161 37.8448 64.2995 37.7665 64.2667C37.6881 64.234 37.6173 64.1856 37.5582 64.1246H37.1406V64.5853H37.5582C37.6726 64.4689 37.8242 64.3544 38.0139 64.3544C38.3563 64.3544 38.6223 64.6234 38.6223 64.9295C38.6223 65.2366 38.3563 65.5046 38.0139 65.5046C37.925 65.507 37.8369 65.4873 37.7573 65.4474C37.6778 65.4075 37.6094 65.3485 37.5582 65.2757H37.1406V65.7745H37.5582C37.6094 65.7016 37.6777 65.6424 37.7572 65.6022C37.8367 65.5619 37.9249 65.5418 38.0139 65.5437C38.3563 65.5437 38.6223 65.8127 38.6223 66.1208C38.6223 66.4259 38.3563 66.6959 38.0139 66.6959C37.8242 66.6959 37.6716 66.5795 37.5582 66.465H37.1406C36.1518 67.3091 35.1258 67.6553 33.9473 67.6553C32.9213 67.6553 32.3511 67.5008 31.7047 67.0783C30.6406 66.3506 29.3858 66.3506 28.3217 67.0783C28.436 67.1353 28.5321 67.2231 28.5993 67.3318C28.6665 67.4404 28.7021 67.5657 28.7021 67.6934C28.7028 67.7837 28.6856 67.8731 28.6515 67.9567C28.6174 68.0403 28.5672 68.1163 28.5037 68.1804C28.4401 68.2444 28.3646 68.2953 28.2813 68.3301C28.198 68.3649 28.1087 68.3828 28.0185 68.383H25.7377C25.6475 68.3828 25.5581 68.3649 25.4749 68.3301C25.3916 68.2953 25.316 68.2444 25.2525 68.1804C25.189 68.1163 25.1387 68.0403 25.1047 67.9567C25.0706 67.8731 25.0534 67.7837 25.0541 67.6934C25.0541 67.4245 25.2056 67.1946 25.4335 67.0783C24.4076 66.3506 23.1146 66.3506 22.0505 67.0783C21.404 67.5008 20.8338 67.6553 19.8079 67.6553C18.6294 67.6553 17.6034 67.3091 16.6146 66.465H16.197C16.0826 66.5795 15.931 66.6959 15.7403 66.6959C15.5895 66.6916 15.4462 66.6295 15.3401 66.5224C15.2339 66.4154 15.173 66.2715 15.1701 66.1208C15.1701 65.8137 15.4361 65.5437 15.7403 65.5437C15.93 65.5437 16.1207 65.622 16.197 65.7745H16.6146V65.2757H16.197C16.1207 65.4283 15.931 65.5046 15.7403 65.5046C15.5895 65.5004 15.4462 65.4383 15.3401 65.3312C15.2339 65.2241 15.173 65.0803 15.1701 64.9295C15.1701 64.6244 15.4361 64.3544 15.7403 64.3544C15.93 64.3544 16.1207 64.4689 16.197 64.5853H16.6146V64.1246H16.197C16.1207 64.239 15.931 64.3153 15.7403 64.3153C15.4361 64.3153 15.1701 64.0865 15.1701 63.7784C15.1701 63.4322 15.4361 63.2033 15.7403 63.2033C15.93 63.2033 16.1207 63.2796 16.2342 63.4322H16.6146V62.9334H16.2342C16.1755 63.0076 16.1003 63.0671 16.0145 63.1072C15.9288 63.1473 15.8349 63.1668 15.7403 63.1642C15.5895 63.1599 15.4462 63.0978 15.3401 62.9908C15.2339 62.8837 15.173 62.7398 15.1701 62.5891C15.1701 62.282 15.4361 62.0121 15.7403 62.0121C15.93 62.0121 16.1207 62.1284 16.2342 62.2429H16.6146V61.7783H16.2342C16.0996 61.9021 15.9231 61.9703 15.7403 61.969C15.4361 61.969 15.1701 61.7402 15.1701 61.4321C15.1701 61.0878 15.4361 60.857 15.7403 60.857C15.93 60.857 16.1207 60.9333 16.2342 61.0497H16.6146V60.589H16.2342C16.1751 60.6627 16.0997 60.7217 16.014 60.7614C15.9284 60.8011 15.8347 60.8204 15.7403 60.8179C15.4361 60.8179 15.1701 60.5509 15.1701 60.2428C15.1701 59.9347 15.4361 59.6677 15.7403 59.6677C15.93 59.6677 16.1207 59.744 16.2342 59.8966H16.6146V59.4359H16.2342C16.1004 59.5612 15.9235 59.6301 15.7403 59.6286C15.6647 59.6297 15.5896 59.6155 15.5197 59.5869C15.4497 59.5583 15.3862 59.5159 15.3329 59.4622C15.2797 59.4086 15.2379 59.3447 15.2099 59.2745C15.1819 59.2042 15.1684 59.1291 15.1701 59.0535C15.1701 58.7464 15.4361 58.5156 15.7403 58.5156C15.93 58.5156 16.1207 58.5929 16.2342 58.7073H16.6146L18.3633 57.8632C19.6182 58.1322 20.5307 58.0931 21.8608 57.518C23.455 56.8314 25.1655 57.0231 26.8761 58.2124ZM26.8761 58.2124V67.6465M25.9646 67.6465H27.7886M35.6187 58.0589V65.7286C34.5547 66.3037 33.6813 66.4944 32.0079 65.6141C30.0694 64.6166 28.0547 65.2298 26.8761 66.4181C25.6976 65.2298 23.6829 64.6166 21.7444 65.6141C20.072 66.4944 19.1976 66.3037 18.1335 65.7286V58.0589" stroke="#545454" stroke-width="0.5" stroke-miterlimit="2.613" stroke-linecap="round"/>
<path d="M36.3419 58.365V66.1511C34.8211 67.1086 33.3394 67.1467 32.0464 66.4181C30.3749 65.4596 28.0932 65.5359 26.8775 67.6465C25.6608 65.5359 23.3801 65.4596 21.7076 66.4181C20.4528 67.1458 18.9329 67.1076 17.4121 66.1511V58.365" stroke="#545454" stroke-width="0.5" stroke-miterlimit="2.613" stroke-linecap="round" stroke-linejoin="bevel"/>
<path fill-rule="evenodd" clip-rule="evenodd" d="M20.2631 50.7726L20.9086 52.8822H23.114L21.289 54.1859L21.9355 56.2564L20.2631 54.9527L18.5525 56.2564L19.198 54.1859L17.4121 52.8822H19.5784L20.2631 50.7726Z" fill="white"/>
<path d="M20.2631 50.7726L20.9086 52.8822H23.114L21.289 54.1859L21.9355 56.2564L20.2631 54.9527L18.5525 56.2564L19.198 54.1859L17.4121 52.8822H19.5784L20.2631 50.7726Z" stroke="#545454" stroke-width="0.5" stroke-miterlimit="2.613"/>
<path fill-rule="evenodd" clip-rule="evenodd" d="M33.4906 50.7726L34.1752 52.8431H36.3425L34.5557 54.1478L35.2012 56.2183L33.4906 54.9145L31.8182 56.2183L32.4647 54.1478L30.6406 52.8431H32.8451L33.4906 50.7726Z" fill="white"/>
<path d="M33.4906 50.7726L34.1752 52.8431H36.3425L34.5557 54.1478L35.2012 56.2183L33.4906 54.9145L31.8182 56.2183L32.4647 54.1478L30.6406 52.8431H32.8451L33.4906 50.7726Z" stroke="#545454" stroke-width="0.5" stroke-miterlimit="2.613"/>
<path fill-rule="evenodd" clip-rule="evenodd" d="M26.8764 70.0613L27.5228 72.1699H29.7273L27.9405 73.4746L28.5869 75.5461L26.8764 74.2414L25.1658 75.5461L25.8123 73.4746L24.0254 72.1699H26.2299L26.8764 70.0613Z" fill="white"/>
<path d="M26.8764 70.0613L27.5228 72.1699H29.7273L27.9405 73.4746L28.5869 75.5461L26.8764 74.2414L25.1658 75.5461L25.8123 73.4746L24.0254 72.1699H26.2309L26.8764 70.0613Z" stroke="#545454" stroke-width="0.5" stroke-miterlimit="2.613"/>
<path fill-rule="evenodd" clip-rule="evenodd" d="M15.017 41.5693C15.2402 41.3155 15.5151 41.1123 15.8233 40.9734C16.1315 40.8346 16.4658 40.7633 16.8039 40.7644C19.4269 40.6872 20.7189 42.6432 20.6808 44.2159C20.6045 45.9793 19.2744 46.4018 19.0846 46.4781C19.0846 46.4781 19.0465 46.8615 19.3507 47.3603C19.3888 47.3984 19.4269 47.4747 19.3888 47.552C19.3486 47.5943 19.322 47.6478 19.3125 47.7055C19.2744 47.7055 19.2744 47.7828 19.2744 47.8209C19.3125 47.9363 19.2744 48.0899 19.1981 48.2425C19.1218 48.396 19.1981 48.7413 19.2362 49.0092C19.2362 49.0484 19.1981 49.0484 19.1599 49.0092C19.0074 48.8938 18.8939 48.5877 18.8558 48.396C18.5135 48.4723 18.1712 48.9329 18.0196 49.2009C18.0196 49.2391 17.9433 49.2772 17.9433 49.2009C17.9433 49.2009 17.868 48.664 18.4 48.2806C18.134 48.2043 17.868 48.3197 17.6782 48.4341C17.6782 48.4341 17.6019 48.4723 17.6401 48.396C17.6782 48.3569 17.7917 48.0498 18.4763 47.9353C18.4763 47.8972 18.6279 47.7055 18.7042 47.5138C18.666 47.2458 18.5516 46.9387 18.4 46.6316C18.3619 46.6316 17.868 46.6698 17.5257 46.9378C17.5257 46.9759 17.4875 47.015 17.4875 47.0913V47.2067C17.4875 47.2458 17.4494 47.3984 17.2596 47.4366C17.2596 47.4366 16.6894 47.6282 16.4234 47.7427C16.4234 47.7818 16.1574 47.8962 15.9677 48.127C15.9295 48.1652 15.8151 48.395 15.5872 48.4723C15.5491 48.4723 15.4346 48.5496 15.3593 48.6258C15.283 48.7031 15.2077 48.7794 15.1314 48.8175C15.0551 48.8557 14.9036 49.0474 14.7891 49.2772C14.7891 49.2772 14.751 49.3163 14.751 49.2772V49.0474C14.8273 48.7403 14.9417 48.6249 15.0551 48.4723C15.017 48.4723 15.017 48.4723 14.9789 48.4341C14.7891 48.4723 14.1045 48.4341 13.725 48.6258C13.6869 48.6258 13.6869 48.6258 13.6869 48.5877C13.7632 48.4723 13.9148 48.0899 14.7891 48.0899C14.7891 47.9745 14.4087 47.7828 14.1808 47.7828C14.1426 47.7828 14.1808 47.7437 14.1808 47.7437C14.2571 47.7437 14.6366 47.552 15.0933 47.8591C15.0933 47.8591 15.4356 47.7437 15.5872 47.7055C15.8151 47.552 16.2718 47.0923 16.4616 47.015V46.7852C16.1965 46.4399 16.1574 45.903 16.1574 45.635C15.6635 45.5578 15.1314 45.1362 14.8273 44.7528C14.485 44.7137 13.7632 44.4076 13.3446 43.6027C12.0526 44.5611 11.1782 46.2874 11.1401 46.3637C11.1019 46.4018 11.0638 46.4018 11.0638 46.3637C10.9122 46.0957 10.8741 45.7113 10.9122 45.5969C11.1773 44.8682 11.7866 43.9088 12.4702 43.0276C12.2042 41.5703 13.5343 41.0715 14.0664 41.1106C14.5994 41.1087 14.9789 41.4539 15.017 41.5693Z" fill="#545454"/>
<path fill-rule="evenodd" clip-rule="evenodd" d="M14.9412 42.2207C14.9412 42.2207 15.5495 41.1849 16.3858 41.1849C16.1579 41.3766 16.0816 41.5302 16.0816 41.5302V41.6074C16.0816 41.6074 16.462 41.1849 17.1838 41.1849C16.9188 41.3766 16.8415 41.5693 16.8415 41.5693V41.6074C16.8034 41.6456 17.3354 41.2622 18.0963 41.5693C17.9066 41.5693 17.6406 41.6847 17.6406 41.761C17.6024 41.8001 17.6406 41.8001 17.6406 41.8001C18.5531 41.6847 19.3893 42.6813 19.3893 43.6408C19.3511 44.3313 18.8944 45.0218 18.021 45.2125C17.9066 45.366 17.7169 45.9411 17.7169 45.9411C17.2992 46.0565 16.8044 46.4399 16.729 46.5162H16.6909L16.6528 46.478C16.5012 46.2101 16.5012 45.4042 16.5012 45.2897C15.5887 45.367 15.0948 44.523 14.9803 44.4457C13.9544 44.3694 13.4976 43.2192 13.4223 43.142C12.6624 43.6026 11.9015 44.5611 11.4076 45.3279C11.4076 45.2897 11.3694 45.3279 11.4076 45.2897C11.9778 44.0633 12.6624 43.4872 12.8521 43.1038C12.3964 42.1062 13.5739 41.4157 14.0688 41.493C14.7886 41.492 14.9412 42.2207 14.9412 42.2207Z" fill="white"/>
<path fill-rule="evenodd" clip-rule="evenodd" d="M13.041 42.6814C13.041 42.5669 13.1554 42.4897 13.2689 42.4897C13.3833 42.4897 13.4968 42.5669 13.4968 42.6814C13.4968 42.8349 13.3833 42.9112 13.2689 42.9112C13.1554 42.9112 13.041 42.8349 13.041 42.6814ZM26.0029 41.5693C26.6112 40.8407 27.4093 40.7644 27.7897 40.7644C30.3747 40.6872 31.6666 42.6432 31.6285 44.2159C31.5522 45.9793 30.2221 46.4018 30.0324 46.4781C30.0324 46.4781 29.9942 46.8615 30.2984 47.3603C30.3365 47.3984 30.3747 47.4747 30.3365 47.552C30.3365 47.5901 30.2612 47.6674 30.2612 47.7055C30.2612 47.7055 30.2231 47.7828 30.2612 47.8209C30.2612 47.9363 30.2231 48.0899 30.1468 48.2425C30.0705 48.396 30.1468 48.7413 30.1849 49.0092C30.1849 49.0484 30.1468 49.0484 30.1468 49.0092C29.957 48.8938 29.8426 48.5877 29.8045 48.396C29.5003 48.4723 29.1208 48.9329 29.0064 49.2009C28.9683 49.2391 28.9301 49.2772 28.892 49.2009C28.892 49.2009 28.8538 48.664 29.3487 48.2806C29.0827 48.2043 28.8167 48.3197 28.6259 48.4341C28.6259 48.4341 28.5497 48.4723 28.6259 48.396C28.6259 48.3569 28.7785 48.0498 29.424 47.9353C29.4622 47.8972 29.5756 47.7055 29.6519 47.5138C29.6519 47.2458 29.5003 46.9387 29.3477 46.6316C29.3096 46.6316 28.8528 46.6698 28.5115 46.9378C28.4734 46.9759 28.4352 47.015 28.4352 47.0913V47.2067C28.4352 47.2458 28.3971 47.3984 28.2455 47.4366C28.2064 47.4366 27.6372 47.6282 27.3702 47.7427C27.3702 47.7818 27.1041 47.8962 26.9525 48.127C26.9144 48.1652 26.7628 48.395 26.5721 48.4723C26.4958 48.4723 26.3823 48.5496 26.3061 48.6258C26.2298 48.7031 26.1545 48.7794 26.0782 48.8175C25.9451 48.9473 25.8414 49.104 25.774 49.2772C25.7359 49.2772 25.6977 49.3163 25.6977 49.2772V49.0474C25.774 48.7403 25.8875 48.6249 26.0019 48.4723C25.9637 48.4723 25.9637 48.4723 25.9256 48.4341C25.7359 48.4723 25.0894 48.4341 24.6708 48.6258C24.6708 48.6258 24.6326 48.6258 24.6708 48.5877C24.7089 48.4723 24.8605 48.0899 25.7349 48.0899C25.773 47.9745 25.3544 47.7828 25.1647 47.7828C25.0884 47.7828 25.1266 47.7437 25.1647 47.7437C25.2028 47.7437 25.5833 47.552 26.0391 47.8591C26.0772 47.8591 26.3814 47.7437 26.5339 47.7055C26.7618 47.552 27.2176 47.0923 27.4083 47.015V46.7852C27.1423 46.4399 27.1041 45.903 27.1423 45.635C26.6102 45.5578 26.0782 45.1362 25.8122 44.7528C25.4317 44.7137 24.7099 44.4076 24.3295 43.6027C22.9993 44.5611 22.125 46.2874 22.0868 46.3637C22.0487 46.4018 22.0487 46.4018 22.0115 46.3637C21.8599 46.0957 21.8208 45.7113 21.8971 45.5969C22.125 44.8682 22.7715 43.9088 23.417 43.0276C23.1509 41.5703 24.481 41.0715 25.0131 41.1106C25.5471 41.1087 25.9276 41.4539 26.0029 41.5693Z" fill="#545454"/>
<path fill-rule="evenodd" clip-rule="evenodd" d="M25.8891 42.2207C25.8891 42.2207 26.5356 41.1849 27.3337 41.1849C27.1058 41.3766 27.0676 41.5302 27.0676 41.5302V41.6074C27.0676 41.6074 27.4099 41.1849 28.1317 41.1849C27.9038 41.3766 27.7894 41.5693 27.7894 41.5693V41.6074C27.7894 41.6456 28.2833 41.2622 29.0442 41.5693C28.8917 41.5693 28.6256 41.6847 28.5885 41.761C28.5503 41.8001 28.5885 41.8001 28.5885 41.8001C29.5381 41.6847 30.3753 42.6813 30.3362 43.6408C30.2981 44.3313 29.8804 45.0218 28.9689 45.2125C28.8545 45.366 28.6648 45.9411 28.6648 45.9411C28.2471 46.0565 27.7522 46.4399 27.676 46.5162L27.6378 46.478C27.4852 46.2101 27.4852 45.4042 27.4481 45.2897C26.5737 45.367 26.0417 44.523 25.9272 44.4457C24.9013 44.3694 24.4827 43.2192 24.4064 43.142C23.6083 43.6026 22.8856 44.5611 22.3535 45.3279V45.2897C22.9237 44.0633 23.6074 43.4872 23.7981 43.1038C23.3804 42.1062 24.5208 41.4157 25.0529 41.493C25.7365 41.492 25.8891 42.2207 25.8891 42.2207Z" fill="white"/>
<path fill-rule="evenodd" clip-rule="evenodd" d="M24.0254 42.6814C24.0254 42.5669 24.1017 42.4897 24.2151 42.4897C24.3667 42.4897 24.443 42.5669 24.443 42.6814C24.443 42.8349 24.3667 42.9112 24.2151 42.9112C24.1017 42.9112 24.0254 42.8349 24.0254 42.6814ZM36.8738 41.5693C37.4821 40.8407 38.2802 40.7644 38.6597 40.7644C41.2446 40.6872 42.5747 42.6432 42.4994 44.2159C42.4613 45.9793 41.093 46.4018 40.9404 46.4781C40.9404 46.4781 40.9023 46.8615 41.2065 47.3603C41.2065 47.3984 41.2828 47.4747 41.2065 47.552C41.197 47.6096 41.1704 47.6631 41.1302 47.7055V47.8209C41.1683 47.9363 41.1302 48.0899 41.0539 48.2425C40.9776 48.396 41.0539 48.7413 41.092 49.0092C41.092 49.0484 41.0539 49.0484 41.0167 49.0092C40.8642 48.8938 40.7116 48.5877 40.6744 48.396C40.3703 48.4723 39.9898 48.9329 39.8763 49.2009C39.8763 49.2391 39.8001 49.2772 39.8001 49.2009C39.8001 49.2009 39.7238 48.664 40.2187 48.2806C39.9908 48.2043 39.7248 48.3197 39.535 48.4341C39.535 48.4341 39.4587 48.4723 39.4959 48.396C39.4959 48.3569 39.6485 48.0498 40.3321 47.9353C40.3321 47.8972 40.4837 47.7055 40.5218 47.5138C40.5218 47.2458 40.4084 46.9387 40.2177 46.6316C40.2177 46.6316 39.7238 46.6698 39.3815 46.9378C39.3815 46.9759 39.3052 47.015 39.3052 47.0913V47.2067C39.3433 47.2458 39.3052 47.3984 39.1154 47.4366C39.1154 47.4366 38.5452 47.6282 38.2792 47.7427C38.2411 47.7818 38.0132 47.8962 37.8235 48.127C37.7853 48.1652 37.6327 48.395 37.443 48.4723C37.4049 48.4723 37.2904 48.5496 37.2151 48.6258C37.1388 48.7031 37.0635 48.7794 36.9872 48.8175C36.911 48.8557 36.7594 49.0474 36.6449 49.2772C36.6449 49.2772 36.6068 49.3163 36.6068 49.2772V49.0474C36.6831 48.7403 36.7965 48.6249 36.911 48.4723C36.8728 48.4723 36.8728 48.4723 36.8347 48.4341C36.6068 48.4723 35.9603 48.4341 35.5799 48.6258C35.5417 48.6258 35.5036 48.6258 35.5417 48.5877C35.617 48.4723 35.7696 48.0899 36.644 48.0899C36.644 47.9745 36.2635 47.7828 36.0356 47.7828C35.9975 47.7828 36.0356 47.7437 36.0356 47.7437C36.0738 47.7437 36.4924 47.552 36.9481 47.8591C36.9481 47.8591 37.2523 47.7437 37.443 47.7055C37.6327 47.552 38.1266 47.0923 38.3174 47.015C38.3174 46.9759 38.2792 46.8615 38.3174 46.7852H38.2792C38.0513 46.4399 38.0132 45.903 38.0132 45.635C37.5193 45.5578 36.9872 45.1362 36.6831 44.7528C36.3408 44.7137 35.5808 44.4076 35.2004 43.6027C33.8703 44.5611 33.034 46.2874 32.9578 46.3637C32.9578 46.4018 32.9196 46.4018 32.8815 46.3637C32.767 46.0957 32.7289 45.7113 32.767 45.5969C33.0331 44.8682 33.6414 43.9088 34.325 43.0276C34.059 41.5703 35.3891 41.0715 35.884 41.1106C36.4552 41.1087 36.7975 41.4539 36.8738 41.5693Z" fill="#545454"/>
<path fill-rule="evenodd" clip-rule="evenodd" d="M36.7592 42.2207C36.7592 42.2207 37.4057 41.1849 38.2038 41.1849C37.9759 41.3766 37.9377 41.5302 37.9377 41.5302V41.6074C37.9377 41.6074 38.3182 41.1849 39.04 41.1849C38.774 41.3766 38.6595 41.5693 38.6595 41.5693V41.6074C38.6595 41.6456 39.1534 41.2622 39.9525 41.5693C39.7618 41.5693 39.4957 41.6847 39.4586 41.761V41.8001C40.4092 41.6847 41.2454 42.6813 41.2454 43.6408C41.2073 44.3313 40.7515 45.0218 39.8772 45.2125C39.7628 45.366 39.573 45.9411 39.573 45.9411C39.1544 46.0565 38.6224 46.4399 38.5471 46.5162L38.5089 46.478C38.3573 46.2101 38.3573 45.4042 38.3573 45.2897C37.4448 45.367 36.9509 44.523 36.8365 44.4457C35.8105 44.3694 35.3538 43.2192 35.2775 43.142C34.5176 43.6026 33.7567 44.5611 33.2246 45.3279C33.2628 45.2897 33.2246 45.3279 33.2246 45.2897C33.8329 44.0633 34.4794 43.4872 34.7073 43.1038C34.2515 42.1062 35.4301 41.4157 35.924 41.493C36.6458 41.492 36.7592 42.2207 36.7592 42.2207Z" fill="white"/>
<path fill-rule="evenodd" clip-rule="evenodd" d="M34.8965 42.6813C34.8965 42.5669 35.0109 42.4896 35.1244 42.4896C35.2378 42.4896 35.3522 42.5669 35.3522 42.6813C35.3522 42.8349 35.2378 42.9112 35.1244 42.9112C35.0109 42.9112 34.8965 42.8349 34.8965 42.6813Z" fill="#545454"/>
</svg>
