<svg width="192" height="108" viewBox="0 0 192 108" fill="none" xmlns="http://www.w3.org/2000/svg">
<g clip-path="url(#clip0_25424_44019)">
<path d="M34.7066 50.1475L23 61.8541V50.1475H34.7066ZM23 49.337V37.6304L34.7066 49.337H23ZM47.764 37.0901L36.0574 48.7967V37.0901H47.764ZM35.2469 48.7967L23.5403 37.0901H35.2469V48.7967ZM36.5977 49.337L48.3043 37.6304V49.337H36.5977ZM48.3043 50.1475V61.8541L36.5977 50.1475H48.3043ZM35.2469 50.6878L23.5403 62.3944H35.2469V50.6878ZM36.0574 50.6878V62.3944H47.764L36.0574 50.6878Z" fill="#545454"/>
<path d="M66.2243 40.602C65.5939 38.3508 64.3332 37.7204 62.4421 37.7204C58.9302 37.7204 57.3092 40.4219 57.3092 43.4837C57.3092 47.2658 59.2904 49.7872 62.4421 49.7872C64.6934 49.7872 65.684 48.7066 66.6745 46.6354L67.1248 46.7255C66.8546 47.536 66.4044 49.1569 66.1342 49.8773C64.9276 50.1925 63.6848 50.3726 62.4421 50.4176C57.4893 50.4176 55.3281 46.9957 55.3281 43.9339C55.3281 39.8816 58.4799 37 62.8024 37C64.027 37 65.2337 37.1891 66.4044 37.5403C66.5845 38.6209 66.6745 39.5214 66.7646 40.512L66.2243 40.602ZM78.5613 43.0334V40.2418C78.5613 38.0806 78.3812 37.9906 76.8503 37.8105V37.3602H82.0732V37.8105C80.4523 37.9005 80.2722 38.0806 80.2722 40.2418V47.3559C80.2722 49.5171 80.4523 49.6071 82.0732 49.7872V50.2375H76.6702V49.7872C78.3812 49.6972 78.5613 49.5171 78.5613 47.3559V43.8439H71.7174V47.3559C71.7174 49.5171 71.8975 49.6071 73.5184 49.7872V50.2375H68.2955V49.7872C69.9164 49.6972 70.0965 49.5171 70.0965 47.3559V40.2418C70.0965 38.0806 69.9164 37.9906 68.2054 37.8105V37.3602H73.4284V37.8105C71.8975 37.9005 71.7174 38.0806 71.7174 40.2418V43.0334H78.5613ZM90.8082 49.7872L91.4385 49.6972C92.159 49.6071 92.249 49.427 92.0689 48.7967C91.8888 48.3464 91.3485 46.8156 90.8082 45.3747H86.8459C86.6658 45.915 86.1255 47.4459 85.8554 48.2564C85.4952 49.427 85.6753 49.6972 86.5758 49.6972L87.2062 49.7872V50.2375H82.9738V49.7872C84.2345 49.6972 84.4146 49.5171 85.135 47.8061L89.1873 37.2702L89.6375 37.0901L91.0783 40.8722C91.9788 43.3936 92.8794 45.915 93.5998 47.8962C94.2301 49.5171 94.5003 49.6972 95.6709 49.7872V50.2375H90.8982L90.8082 49.7872ZM87.026 44.5643H90.538L88.737 39.7015L87.026 44.5643ZM99.7232 47.3559C99.7232 49.5171 99.9033 49.6071 101.794 49.7872V50.2375H96.3013V49.7872C97.9222 49.6972 98.1023 49.5171 98.1023 47.3559V40.2418C98.1023 38.0806 97.9222 37.9906 96.3913 37.8105V37.3602H101.344C102.488 37.2521 103.631 37.5403 104.586 38.1707C105.432 38.801 105.91 39.8186 105.847 40.8722C105.802 43.0064 104.109 44.7444 101.974 44.8344H101.074L99.6332 44.4742V47.3559H99.7232ZM99.7232 43.9339C100.182 44.114 100.669 44.2041 101.164 44.2041C102.425 44.2041 104.046 43.5737 104.046 40.9622C104.046 38.801 102.965 37.9906 100.894 37.9906C100.561 37.9725 100.228 37.9996 99.9033 38.0806C99.8133 38.0806 99.7232 38.2607 99.7232 38.6209V43.9339ZM110.799 37.3602L115.572 47.536L120.255 37.3602H123.497V37.8105C121.786 37.9906 121.696 37.9906 121.696 40.2418L121.876 47.3559C121.936 48.8567 122.566 49.6672 123.767 49.7872V50.2375H118.544V49.7872C119.685 49.6672 120.255 48.8567 120.255 47.3559L120.165 39.4314H120.075L115.212 50.0574H114.672L110.259 39.7015L110.079 45.1946C109.989 46.3653 109.989 47.536 110.079 48.7066C110.169 49.427 110.619 49.6071 111.97 49.6972V50.2375H107.288V49.7872C108.368 49.6972 108.818 49.5171 108.908 48.7967C109.089 47.536 109.179 46.2752 109.269 45.0145L109.539 40.8722C109.719 38.2607 109.539 37.9906 107.648 37.9005V37.3602H110.799ZM132.502 49.7872L133.132 49.6972C133.853 49.6071 133.943 49.427 133.762 48.7967C133.582 48.3464 133.042 46.8156 132.502 45.3747H128.54C128.359 45.915 127.819 47.4459 127.549 48.2564C127.189 49.427 127.369 49.6972 128.269 49.6972L128.9 49.7872V50.2375H124.667V49.7872C125.928 49.6972 126.108 49.5171 126.829 47.8061L130.881 37.2702L131.331 37.0901L132.772 40.8722C133.672 43.3936 134.573 45.915 135.293 47.8962C135.924 49.5171 136.194 49.6972 137.365 49.7872V50.2375H132.592L132.502 49.7872ZM128.72 44.5643H132.232L130.521 39.7015L128.72 44.5643ZM149.701 50.3275H149.161L140.606 39.8816V44.9245C140.579 46.1852 140.633 47.4549 140.786 48.7066C140.876 49.427 141.417 49.6972 142.678 49.6972V50.2375H137.905V49.7872C138.985 49.7872 139.526 49.427 139.616 48.7967C139.706 47.536 139.796 46.2752 139.796 45.0145V40.6921C139.796 39.2513 139.796 38.9811 139.436 38.5309C138.985 38.0806 138.364 37.8195 137.725 37.8105V37.3602H140.606L148.891 47.2658V42.5832C148.918 41.3224 148.864 40.0527 148.711 38.801C148.621 38.0806 148.081 37.8105 146.82 37.8105V37.3602H151.593V37.8105C150.512 37.8105 149.972 38.1707 149.882 38.801C149.792 40.0617 149.701 41.3224 149.701 42.5832V50.3275Z" fill="#545454"/>
<path d="M60.9298 57.1443V57.5945C59.3089 57.6846 59.2188 57.8647 59.2188 60.0259V64.1683C59.1108 65.483 59.3899 66.7977 60.0293 67.9504C60.6866 68.8779 61.7763 69.3912 62.9109 69.3012C64.0455 69.3192 65.1262 68.7789 65.7925 67.8603C66.4949 66.5006 66.8011 64.9697 66.693 63.4479V62.3672C66.693 61.1065 66.603 59.8458 66.5129 58.5851C66.4229 57.8647 65.8826 57.5945 64.6219 57.5945V57.1443H69.3946V57.5945C68.314 57.5945 67.7736 57.9547 67.6836 58.5851C67.5935 59.8458 67.5035 61.1065 67.5035 62.3672V63.718C67.5035 65.9693 67.1433 67.5902 65.9726 68.8509C64.0636 70.5619 61.245 70.742 59.1288 69.3012C58.0481 68.4907 57.5979 67.1399 57.5979 64.8887V60.0259C57.5979 57.8647 57.4178 57.7746 55.7969 57.5945V57.1443H60.9298Z" fill="#545454"/>
<path d="M82.092 70.1116H81.5517L72.9969 59.6657V64.7086C72.9698 65.9693 73.0239 67.239 73.177 68.4907C73.267 69.2111 73.8073 69.4813 75.068 69.4813V70.0216H70.2953V69.5713C71.3759 69.5713 71.9163 69.2111 72.0063 68.5808C72.0964 67.32 72.1864 66.0593 72.1864 64.7986V60.4762C72.1864 59.0354 72.1864 58.7652 71.8262 58.3149C71.385 57.8467 70.7546 57.6126 70.1152 57.6846V57.1443H72.9969L81.2816 67.0499V62.3672C81.3086 61.1065 81.2545 59.8368 81.1014 58.5851C81.0114 57.8647 80.4711 57.5945 79.2104 57.5945V57.1443H83.9831V57.5945C82.9025 57.5945 82.3622 57.9547 82.2721 58.5851C82.1821 59.8458 82.092 61.1065 82.092 62.3672V70.1116Z" fill="#545454"/>
<path d="M88.5762 67.1399C88.5762 69.3012 88.7563 69.3912 90.3773 69.5713V70.0216H85.1543V69.5713C86.7752 69.4813 86.9553 69.3012 86.9553 67.1399V60.0259C86.9553 57.8647 86.7752 57.7746 85.1543 57.5945V57.1443H90.3773V57.5945C88.7563 57.6846 88.5762 57.8647 88.5762 60.0259V67.1399Z" fill="#545454"/>
<path d="M97.311 70.1116C95.9602 66.5996 94.0691 61.7369 93.2587 59.4856C92.6283 57.8647 92.3582 57.6846 91.1875 57.5945V57.1443H95.9602V57.5945L95.3298 57.6846C94.6094 57.7746 94.5194 57.9547 94.6995 58.5851C95.2398 60.0259 96.7707 63.8981 98.2115 67.5902C99.202 64.8887 100.913 60.3861 101.363 59.1254C101.723 58.0448 101.543 57.7746 100.643 57.6846L100.012 57.5945V57.1443H104.335V57.5945C102.984 57.7746 102.804 57.8647 102.084 59.5757C101.814 60.206 99.3821 66.0593 97.9413 70.0216L97.311 70.1116Z" fill="#545454"/>
<path d="M106.946 60.0259C106.946 57.8647 106.766 57.7746 105.235 57.5945V57.1443H113.88C113.88 57.5045 113.97 58.9453 114.06 60.0259L113.519 60.116C113.456 59.4586 113.204 58.8372 112.799 58.3149C112.439 57.9547 111.809 57.8647 110.638 57.8647H109.107C108.567 57.8647 108.477 57.8647 108.477 58.4951V62.9976H110.548C112.259 62.9976 112.349 62.9075 112.529 61.3767H113.069V65.2489H112.529C112.565 64.7536 112.403 64.2763 112.079 63.8981C111.619 63.628 111.07 63.5289 110.548 63.628H108.567V67.1399C108.567 68.2206 108.657 68.8509 109.107 69.1211C109.746 69.3462 110.413 69.4362 111.088 69.3912C111.962 69.4993 112.853 69.3102 113.61 68.8509C114.024 68.2746 114.357 67.6352 114.6 66.9598L115.14 67.0499C114.951 68.0855 114.717 69.103 114.42 70.1116H105.055V69.6614C106.856 69.5713 106.946 69.3912 106.946 67.23V60.0259Z" fill="#545454"/>
<path d="M126.577 68.761C126.036 68.1306 125.496 67.3201 124.956 66.5997C124.298 65.7082 123.704 64.7717 123.155 63.8081C124.685 63.3669 125.748 61.9801 125.766 60.3862C125.829 59.3776 125.343 58.4231 124.505 57.8648C123.551 57.3245 122.452 57.0723 121.354 57.1444H116.311V57.5946C117.842 57.7747 118.022 57.8648 118.022 60.026V67.14C118.022 69.3013 117.842 69.4814 116.221 69.5714V70.0217H121.444V69.5714C119.823 69.3913 119.643 69.3013 119.643 67.14V64.3485H120.813C121.336 64.3485 121.813 64.6186 122.074 65.0689C122.614 65.9694 123.425 67.4102 124.055 68.3107C124.776 69.3913 125.496 70.0217 127.747 70.1117H128.017V69.7515C127.441 69.5984 126.928 69.2472 126.577 68.761ZM120.813 63.8081H119.643L119.733 58.4051C119.733 58.0449 119.823 57.8648 119.913 57.8648C120.264 57.7927 120.633 57.7567 120.993 57.7747H121.354C121.354 57.7747 121.417 57.7747 121.453 57.7747C122.939 57.8738 124.064 59.1615 123.965 60.6474C124.001 61.6559 123.569 62.6195 122.794 63.2588C122.236 63.7091 121.516 63.8982 120.813 63.7991V63.8081Z" fill="#545454"/>
<path d="M129.189 66.5096C129.549 67.4101 130.54 69.6614 132.611 69.6614C133.881 69.7335 134.961 68.7699 135.042 67.5002V67.14C135.042 65.429 133.782 64.7987 132.521 64.1683C131.89 63.8081 129.189 62.9076 129.189 60.5663C129.189 58.5852 130.63 56.9642 133.241 56.9642C133.791 56.9642 134.34 57.0543 134.862 57.2344C135.087 57.3334 135.33 57.3965 135.583 57.4145C135.673 58.1349 135.763 58.8553 135.943 60.116L135.402 60.2061C135.042 59.0354 134.502 57.6846 132.701 57.6846C131.575 57.6126 130.612 58.4681 130.54 59.5847C130.54 59.6117 130.54 59.6387 130.54 59.6658V59.8459C130.54 61.2867 131.62 61.917 133.061 62.6374C134.322 63.1777 136.483 63.9882 136.483 66.5096C136.483 68.7609 134.592 70.4719 132.071 70.4719C131.431 70.4719 130.792 70.3818 130.18 70.2017C129.639 70.0216 129.369 69.8415 129.099 69.7515C128.919 69.2112 128.739 67.8604 128.559 66.7798L129.189 66.5096Z" fill="#545454"/>
<path d="M141.525 67.1399C141.525 69.3012 141.706 69.3912 143.326 69.5713V70.0216H138.104V69.5713C139.724 69.4813 139.905 69.3012 139.905 67.1399V60.0259C139.905 57.8647 139.724 57.7746 138.104 57.5945V57.1443H143.326V57.5945C141.706 57.6846 141.525 57.8647 141.525 60.0259V67.1399Z" fill="#545454"/>
<path d="M150.89 67.14C150.89 69.3012 151.07 69.3913 152.961 69.5714V70.0216H147.198V69.5714C149.089 69.4813 149.179 69.3012 149.179 67.14V57.8648H148.278C146.477 57.8648 146.027 58.1349 145.667 58.4951C145.334 59.0264 145.091 59.6027 144.947 60.2061H144.406C144.496 59.0354 144.586 57.7747 144.676 56.6941H144.947C145.127 57.0633 145.523 57.2794 145.937 57.2344H154.042C154.42 57.2344 154.771 57.0273 154.942 56.6941H155.212C155.212 57.5046 155.302 58.9454 155.392 60.116H154.852C154.744 59.4677 154.501 58.8553 154.132 58.315C153.772 57.9548 153.231 57.7747 151.971 57.7747H150.62L150.89 67.14Z" fill="#545454"/>
<path d="M162.867 67.1399C162.867 69.3012 163.047 69.3912 164.938 69.5713V70.0216H159.265V69.5713C161.066 69.4813 161.246 69.3012 161.246 67.1399V64.8887C161.237 64.4564 161.075 64.0422 160.796 63.718C159.895 62.1871 159.175 60.7463 158.274 59.3055C157.374 57.8647 157.374 57.7746 156.203 57.6846V57.1443H160.976V57.5945L160.075 57.6846C159.625 57.7746 159.445 57.9547 159.805 58.5851C160.706 60.206 161.606 61.917 162.597 63.5379C163.407 61.917 164.308 60.2961 165.028 58.6752C165.388 57.9547 165.208 57.7746 164.488 57.6846L163.677 57.5945V57.1443H168V57.5945C166.649 57.6846 166.559 57.9547 165.749 59.3055C164.938 60.6563 164.128 62.007 163.227 63.628C162.975 63.9341 162.849 64.3123 162.867 64.7086V67.1399Z" fill="#545454"/>
</g>
<defs>
<clipPath id="clip0_25424_44019">
<rect width="145" height="33.4719" fill="white" transform="translate(23 37)"/>
</clipPath>
</defs>
</svg>
