<svg width="192" height="108" viewBox="0 0 192 108" fill="none" xmlns="http://www.w3.org/2000/svg">
<g clip-path="url(#clip0_25424_44021)">
<path d="M17.5928 39.8381C17.5148 39.8381 17.452 39.9021 17.4037 40.0445L17.2466 40.583C15.6405 40.7899 14.1763 40.8853 12.8543 40.8853H11.1863C10.0367 40.8853 9.39142 40.7728 9.23448 40.7728C9.0611 40.7728 8.98242 40.8208 8.98242 40.9317C8.98242 41.1378 9.48642 41.233 10.4937 41.3455C10.5878 42.3113 10.6044 43.326 10.6044 44.3877V48.54C10.6044 49.6175 10.5878 50.633 10.4937 51.5988C9.48646 51.7105 8.98242 51.8054 8.98242 52.0115C8.98242 52.1215 9.0611 52.1539 9.23448 52.1539C9.39145 52.1539 10.0367 52.0424 11.1863 52.0424C12.5868 52.0424 13.3116 52.1539 13.4373 52.1539C13.6106 52.1539 13.6893 52.1215 13.6893 52.0115C13.6893 51.7897 13.0904 51.6931 11.8789 51.5988C11.7848 50.585 11.7682 49.5696 11.7682 48.54V46.5273H13.5161C14.7749 46.5273 15.8454 46.6531 16.6953 46.8915L16.7742 47.4465C16.8539 48.0499 16.8686 48.3193 17.0416 48.3193C17.1201 48.3193 17.1676 48.239 17.1676 48.1273C17.1676 47.8898 17.0734 47.3193 17.0734 46.4313C17.0734 45.4655 17.2148 44.8791 17.2148 44.7044C17.2148 44.5778 17.1837 44.5146 17.1205 44.5146C16.9319 44.5146 16.9157 44.7842 16.7896 45.3709L16.6953 45.7979C15.8138 46.0355 14.7436 46.1466 13.5161 46.1466H11.7682V44.3877C11.7682 43.3581 11.7848 42.3593 11.8788 41.3454C12.4461 41.2817 12.9328 41.2494 13.343 41.2494C14.9637 41.2494 16.2865 41.455 17.1512 41.7405L17.2937 42.7711C17.3415 43.0872 17.3718 43.261 17.514 43.261C17.5921 43.261 17.6389 43.1846 17.6389 43.0878C17.6389 42.9777 17.5776 42.4696 17.5776 41.5816C17.5776 40.7416 17.7025 40.2199 17.7025 40.0445C17.7025 39.9021 17.6877 39.8381 17.5928 39.8381ZM139.116 39.9926C139.04 39.9926 138.977 40.0538 138.93 40.1946L138.779 40.7242C137.201 40.927 135.761 41.02 134.462 41.02H132.823C131.693 41.02 131.059 40.9118 130.905 40.9118C130.734 40.9118 130.657 40.9581 130.657 41.0674C130.657 41.2694 131.15 41.3632 132.142 41.4724C132.234 42.4209 132.249 43.4191 132.249 44.4628V48.5434C132.249 49.6018 132.234 50.5974 132.142 51.5492C131.15 51.6576 130.657 51.751 130.657 51.953C130.657 52.0631 130.734 52.0954 130.905 52.0954C131.121 52.0954 131.708 51.9861 132.654 51.9861H133.874C135.699 51.9861 137.356 52.078 138.868 52.2344L138.995 52.5147C139.04 52.6546 139.088 52.7332 139.164 52.7332C139.257 52.7332 139.273 52.6546 139.273 52.5147C139.273 52.422 139.164 51.9853 139.164 51.1751C139.164 50.3028 139.241 49.8054 139.241 49.6954C139.241 49.5869 139.181 49.5243 139.117 49.5243C138.978 49.5243 138.947 49.6799 138.902 49.9911L138.763 50.8959C137.633 51.332 136.195 51.5801 134.523 51.5801C134.182 51.5801 133.844 51.5648 133.504 51.5492C133.41 50.5527 133.396 49.5554 133.396 48.5434V46.5648H135.113C136.348 46.5648 137.4 46.6892 138.236 46.9235L138.313 47.4686C138.391 48.0611 138.407 48.3238 138.577 48.3238C138.654 48.3238 138.701 48.2469 138.701 48.1384C138.701 47.9043 138.607 47.3444 138.607 46.4722C138.607 45.5205 138.746 44.9454 138.746 44.7739C138.746 44.6482 138.717 44.5864 138.654 44.5864C138.47 44.5864 138.452 44.8512 138.328 45.4272L138.236 45.8476C137.369 46.0819 136.318 46.1908 135.113 46.1908H133.396V44.4628C133.396 43.4506 133.41 42.468 133.504 41.4724C134.061 41.4087 134.54 41.3786 134.942 41.3786C136.536 41.3786 137.835 41.5803 138.687 41.8608L138.824 42.8727C138.869 43.1846 138.903 43.356 139.041 43.356C139.117 43.356 139.164 43.2794 139.164 43.1849C139.164 43.075 139.103 42.5777 139.103 41.7063C139.103 40.8804 139.225 40.3659 139.225 40.1946C139.225 40.0539 139.212 39.9926 139.117 39.9926L139.116 39.9926ZM163.482 39.9926C163.419 39.9926 163.358 40.0545 163.358 40.1637C163.358 40.3822 163.482 40.8953 163.482 41.7063C163.482 42.5935 163.419 43.075 163.419 43.1849C163.419 43.2794 163.467 43.356 163.545 43.356C163.684 43.356 163.714 43.1846 163.76 42.8727L163.9 41.8608C164.766 41.5803 165.893 41.4084 167.256 41.4084H167.442C167.535 42.3593 167.552 43.3728 167.552 44.4627V48.5433C167.552 49.6018 167.535 50.5974 167.442 51.5491C166.283 51.6426 165.694 51.7362 165.694 51.953C165.694 52.063 165.771 52.0953 165.942 52.0953C166.158 52.0953 166.885 51.9695 168.122 51.9695C169.361 51.9695 170.089 52.0953 170.305 52.0953C170.474 52.0953 170.553 52.063 170.553 51.953C170.553 51.7362 169.964 51.6426 168.803 51.5491C168.71 50.5526 168.695 49.5554 168.695 48.5433V44.4627C168.695 43.4191 168.71 42.4056 168.803 41.4084H168.99C170.365 41.4084 171.495 41.5803 172.361 41.8608L172.486 42.8727C172.53 43.1846 172.563 43.356 172.702 43.356C172.777 43.356 172.827 43.2794 172.827 43.1849C172.827 43.075 172.765 42.5777 172.765 41.7063C172.765 40.8804 172.888 40.3659 172.888 40.1946C172.888 40.0539 172.873 39.9926 172.777 39.9926C172.701 39.9926 172.657 40.0539 172.606 40.1946L172.439 40.7242C170.845 40.927 169.391 41.0199 168.122 41.0199C166.853 41.0199 165.401 40.927 163.807 40.7242L163.656 40.1947C163.611 40.054 163.566 39.9928 163.487 39.9928L163.482 39.9926ZM67.4041 40.2983L66.0968 40.8533C66.411 41.4234 66.6747 42.0094 66.944 42.6277L64.521 48.5875C64.0639 49.6965 63.6233 50.6951 63.1511 51.5989C62.1888 51.7056 61.69 51.7977 61.6462 51.9853C61.6025 51.7977 61.1053 51.7056 60.1441 51.5989C60.0504 50.5853 60.0342 49.5701 60.0342 48.5401V44.3878C60.0342 43.3582 60.0504 42.3594 60.1438 41.3456C61.1512 41.2331 61.655 41.1379 61.655 40.9318C61.655 40.8209 61.5922 40.7729 61.4205 40.7729C61.136 40.7729 60.4586 40.9163 59.4511 40.9163C58.4428 40.9163 57.7819 40.7729 57.4982 40.7729C57.3265 40.7729 57.2473 40.8209 57.2473 40.9318C57.2473 41.1379 57.7519 41.2331 58.7585 41.3456C58.8536 42.2013 58.8681 43.2002 58.8681 44.3878V46.3377H53.0753V44.3878C53.0753 43.3582 53.0915 42.3594 53.186 41.3456C54.1937 41.2331 54.6973 41.1379 54.6973 40.9318C54.6973 40.8209 54.6191 40.7729 54.4452 40.7729C54.1612 40.7729 53.5015 40.9163 52.4934 40.9163C51.4866 40.9163 50.8256 40.7729 50.5416 40.7729C50.3682 40.7729 50.2907 40.8209 50.2907 40.9318C50.2907 41.1379 50.7936 41.2331 51.8008 41.3456C51.8962 42.3115 51.9115 43.3261 51.9115 44.3878V48.5401C51.9115 49.6176 51.8962 50.6331 51.8008 51.5989C50.7936 51.7106 50.2907 51.8055 50.2907 52.0116C50.2907 52.1216 50.3682 52.154 50.5416 52.154C50.8417 52.154 51.4866 52.0271 52.4934 52.0271C53.5015 52.0271 54.146 52.154 54.4452 52.154C54.6191 52.154 54.6973 52.1216 54.6973 52.0116C54.6973 51.8055 54.1938 51.7106 53.186 51.5989C53.0915 50.5851 53.0753 49.5697 53.0753 48.5401V46.7018H58.8681V48.5401C58.8681 49.5862 58.8537 50.5999 58.7585 51.5989C57.7519 51.7106 57.2473 51.8055 57.2473 52.0116C57.2473 52.1216 57.3265 52.154 57.4982 52.154C57.797 52.154 58.4428 52.0271 59.4511 52.0271C60.4586 52.0271 61.12 52.154 61.4205 52.154C61.5638 52.154 61.6278 52.1283 61.6463 52.0569C61.665 52.1283 61.7306 52.154 61.8753 52.154C62.1741 52.154 62.8344 52.0271 63.8435 52.0271C64.7407 52.0271 65.3539 52.154 65.6846 52.154C65.858 52.154 65.9367 52.1216 65.9367 52.0116C65.9367 51.7898 65.3218 51.6783 64.1098 51.5989C64.3631 50.5537 64.5832 49.7758 64.7717 49.2684L65.072 48.4441H69.3208L69.6989 49.3479C69.9657 50.0298 70.2659 50.7737 70.4704 51.5989C69.2585 51.6932 68.6436 51.7898 68.6436 52.0116C68.6436 52.1216 68.7233 52.154 68.8967 52.154C69.1324 52.154 69.8555 52.0271 71.0523 52.0271C72.151 52.0271 72.7789 52.1127 73.0875 52.1374C73.1211 52.1431 73.1453 52.154 73.1927 52.154C73.2028 52.154 73.2217 52.1514 73.2321 52.1506C73.2391 52.1508 73.2665 52.154 73.2727 52.154C73.3228 52.154 73.3488 52.1429 73.3834 52.1363C73.748 52.1107 74.2423 52.0271 74.9089 52.0271C75.9332 52.0271 76.5787 52.154 76.8607 52.154C77.0341 52.154 77.1128 52.1216 77.1128 52.0116C77.1128 51.8055 76.5619 51.6932 75.413 51.5989C75.397 51.1867 75.3966 50.791 75.3966 50.3796C75.3966 49.1581 75.4449 47.9382 75.5544 46.7018L75.8536 43.3407L79.2531 50.3796C79.3322 50.536 79.3631 50.6323 79.4591 50.6323C79.5685 50.6323 79.616 50.5534 79.6783 50.3631L82.8092 41.6456L83.3423 48.7145C83.4062 49.5072 83.4398 50.2365 83.4398 50.8861C83.4398 51.1403 83.4393 51.3796 83.4234 51.5989C82.3216 51.6932 81.7861 51.8055 81.7861 52.0116C81.7861 52.1217 81.8483 52.154 82.0217 52.154C82.3213 52.154 82.9827 52.0271 83.9911 52.0271C84.9977 52.0271 85.6415 52.154 85.9428 52.154C86.1154 52.154 86.1938 52.1216 86.1938 52.0116C86.1938 51.822 85.7539 51.7438 84.8711 51.5989C84.6657 50.4262 84.5565 49.3174 84.4765 48.3018L83.9715 41.3454C84.7905 41.1858 85.2 41.1071 85.2 40.9316C85.2 40.8207 85.1222 40.7727 84.948 40.7727C84.8234 40.7727 84.3828 40.8532 83.611 40.8532C83.4224 40.8532 83.124 40.8525 82.6981 40.8367L79.784 48.8564L77.1735 43.4848C76.937 42.9931 76.5434 42.1044 76.0393 40.8365C75.8036 40.8523 75.5996 40.8531 75.4102 40.8531C74.6393 40.8531 74.1977 40.7725 74.0875 40.7725C73.9149 40.7725 73.8354 40.8205 73.8354 40.9314C73.8354 41.1217 74.0872 41.09 74.402 41.1852C74.9053 41.3448 75.1909 41.8343 75.5352 42.6594L75.1275 46.858C74.9061 49.0628 74.6225 50.6641 74.3549 51.5985C73.832 51.6695 73.4684 51.7313 73.2348 51.8037C72.9896 51.7251 72.5955 51.6633 72.0107 51.5985C71.5706 50.8064 71.1606 49.8857 70.7516 48.8884L68.9247 44.5298C68.1529 42.6916 67.6337 41.2811 67.3981 40.298L67.4041 40.2983ZM157.663 40.3347C157.523 40.3347 157.493 40.4276 157.43 40.6006L157.167 41.3786C156.207 40.9425 155.279 40.7397 154.443 40.7397C152.218 40.7397 150.672 42.2194 150.672 44.3546C150.672 45.9576 151.632 46.8591 153.607 47.1562C155.019 47.3747 156.1 47.4374 156.874 47.9662C157.228 48.2153 157.413 48.6048 157.413 49.1336C157.413 50.4743 156.162 51.6738 154.49 51.6738C153.424 51.6738 152.325 51.1898 151.213 50.2249C151.01 48.6814 150.933 47.9198 150.717 47.9198C150.609 47.9198 150.579 48.0133 150.579 48.2012C150.579 48.466 150.656 48.9956 150.656 49.7736C150.656 51.3791 150.407 52.2798 150.407 52.4991C150.407 52.5918 150.453 52.6393 150.549 52.6393C150.656 52.6393 150.702 52.5457 150.762 52.3744L151.025 51.5954C152.017 52.0465 152.943 52.2652 153.825 52.2652C156.224 52.2652 157.91 50.6295 157.91 48.4803C157.91 47.4682 157.461 46.6594 156.734 46.3308C155.948 45.9724 155.078 45.8941 154.229 45.7393C152.107 45.3661 151.104 45.1164 151.104 43.7774C151.104 42.4995 152.325 41.3487 153.995 41.3487C155.125 41.3487 156.146 41.7828 156.997 42.6088C157.074 43.7923 157.103 44.3368 157.336 44.3368C157.445 44.3368 157.492 44.2433 157.492 44.072C157.492 43.9008 157.46 43.6364 157.46 43.2798C157.46 41.6594 157.769 40.7399 157.769 40.4759C157.769 40.3823 157.754 40.3347 157.663 40.3347ZM24.2554 40.5995C22.1302 40.5995 20.2251 41.6942 19.2504 43.3725C18.6685 44.3872 18.3846 45.4492 18.3846 46.6377C18.3846 48.2869 18.9351 49.6655 19.9736 50.695C21.0759 51.775 22.4617 52.3447 24.0822 52.3447C25.9718 52.3447 27.5614 51.6153 28.6631 50.2514C29.5611 49.1574 30.0165 47.8269 30.0165 46.3529C30.0165 44.61 29.3882 43.1043 28.2379 42.0582C27.1693 41.0908 25.8298 40.5995 24.2554 40.5995ZM44.7025 40.7573C43.8525 40.7573 42.9717 40.9162 42.0274 40.9162C41.0045 40.9162 40.3564 40.7728 40.0745 40.7728C39.9023 40.7728 39.8224 40.8208 39.8224 40.9317C39.8224 41.1378 40.3277 41.233 41.3337 41.3455C41.4291 42.3114 41.4433 43.3258 41.4433 44.4031V48.54C41.4433 49.6175 41.429 50.633 41.3337 51.5988C40.3277 51.7105 39.8224 51.8054 39.8224 52.0115C39.8224 52.1215 39.9023 52.1539 40.0745 52.1539C40.3564 52.1539 41.0193 52.027 42.0274 52.027C42.8764 52.027 43.7274 52.1539 44.5765 52.1539C48.0252 52.1539 50.307 49.8391 50.307 46.4002C50.307 42.945 48.1344 40.7573 44.7025 40.7573ZM30.0325 40.7728C29.8586 40.7728 29.7804 40.8208 29.7804 40.9317C29.7804 41.1378 30.2844 41.233 31.2917 41.3455C31.386 42.3114 31.4017 43.326 31.4017 44.3877V48.5245C31.4017 49.6013 31.3862 50.6158 31.2921 51.5833C30.2848 51.6925 29.7808 51.7889 29.7808 51.9949C29.7808 52.1059 29.859 52.1373 30.0329 52.1373C30.3312 52.1373 30.977 52.0115 31.9847 52.0115C33.1021 52.0115 33.8114 52.1373 34.0625 52.1373C34.2207 52.1373 34.2981 52.1058 34.2981 51.9949C34.2981 51.7889 33.7642 51.6776 32.6772 51.5833C32.5832 50.5678 32.5665 49.5533 32.5665 48.5245V44.3877C32.5665 43.3581 32.5832 42.3593 32.6772 41.3454C33.3068 41.2329 33.8256 41.17 34.251 41.17C36.1865 41.17 37.4313 42.3735 37.4313 44.0544C37.4313 45.7344 36.3134 46.5736 34.0942 46.5736C33.7157 46.5736 33.4486 46.5107 33.2756 46.5107C33.1498 46.5107 33.0389 46.5907 33.0389 46.7016C33.0389 46.8439 33.1652 46.9552 33.2909 47.1298L36.0603 51.0448C36.6434 51.8525 37.0375 52.3282 37.7929 52.3282C38.6908 52.3282 39.4926 51.7269 39.4926 51.5359C39.4926 51.4555 39.4454 51.409 39.3677 51.409C39.209 51.409 38.9411 51.5988 38.5951 51.5988C38.1072 51.5988 37.8234 51.25 37.3676 50.6642L34.4712 46.908C37.0858 46.7327 38.5951 45.3231 38.5951 43.548C38.5951 41.916 37.2106 40.7904 34.8175 40.7904C33.8106 40.7904 32.8509 40.9162 31.9846 40.9162C30.9769 40.9162 30.3144 40.7728 30.0325 40.7728ZM91.8323 40.9118C91.6631 40.9118 91.5846 40.9582 91.5846 41.0674C91.5846 41.2694 92.0954 41.3632 93.086 41.4724V47.1089C93.086 48.6524 93.1014 49.7735 93.5803 50.63C94.1678 51.6735 95.3589 52.2808 96.9984 52.2808C98.7625 52.2808 99.9996 51.6118 100.604 50.4126C101.068 49.4774 101.067 48.3711 101.13 47.0162L101.207 45.2562C101.284 43.4661 101.331 42.2041 101.454 41.4724C102.29 41.3309 102.708 41.2529 102.708 41.0675C102.708 40.9582 102.646 40.9119 102.476 40.9119C102.259 40.9119 101.701 41.02 100.805 41.02C99.9065 41.02 99.3506 40.9119 99.1343 40.9119C98.9626 40.9119 98.8867 40.9582 98.8867 41.0675C98.8867 41.2694 99.4121 41.3633 100.466 41.4724C100.666 42.655 100.757 43.9169 100.757 45.2253V46.8143C100.757 48.2774 100.681 49.3679 100.326 50.1632C99.8147 51.3004 98.7478 51.9222 97.2 51.9222C94.973 51.9222 94.2148 50.7857 94.2148 48.0612C94.2148 47.8741 94.2301 47.6705 94.2301 47.4686L94.4471 41.4726C95.4369 41.3634 95.9331 41.2696 95.9331 41.0676C95.9331 40.9584 95.8546 40.9121 95.6855 40.9121C95.406 40.9121 94.7555 41.0522 93.7665 41.0522C92.7768 41.0522 92.1117 40.9118 91.8323 40.9118ZM103.31 40.9118C103.156 40.9118 103.063 40.9582 103.063 41.0674C103.063 41.2694 103.775 41.1752 104.578 42.2967V47.9199C104.578 49.6181 104.44 50.8465 104.27 51.5491C103.404 51.6881 102.986 51.7676 102.986 51.953C102.986 52.063 103.063 52.0953 103.218 52.0953C103.557 52.0953 104.115 51.9695 104.857 51.9695C105.817 51.9695 106.42 52.0953 106.698 52.0953C106.853 52.0953 106.946 52.063 106.946 51.953C106.946 51.7362 106.373 51.6425 105.244 51.5491C105.074 50.5212 104.966 49.1814 104.966 47.5602V42.748L111.959 52.0157C112.097 52.202 112.206 52.2806 112.283 52.2806C112.359 52.2806 112.359 52.235 112.359 52.1415V52.0312V46.5801C112.359 44.3365 112.437 42.64 112.637 41.4722C113.566 41.3631 114.03 41.2693 114.03 41.0673C114.03 40.958 113.953 40.9117 113.799 40.9117C113.474 40.9117 112.917 41.0518 112.174 41.0518C111.215 41.0518 110.611 40.9117 110.35 40.9117C110.194 40.9117 110.116 40.958 110.116 41.0673C110.116 41.2693 110.642 41.378 111.71 41.4722C111.865 42.3595 111.959 43.7001 111.959 45.5208V49.9743L105.134 40.988C104.949 40.988 104.781 41.0045 104.626 41.0045C103.804 41.0045 103.387 40.9118 103.31 40.9118ZM114.696 40.9118C114.525 40.9118 114.448 40.9582 114.448 41.0674C114.448 41.2694 114.944 41.3632 115.933 41.4724C116.026 42.4209 116.041 43.4191 116.041 44.4628V48.5434C116.041 49.6018 116.026 50.5974 115.933 51.5492C114.944 51.6576 114.448 51.7511 114.448 51.953C114.448 52.0631 114.525 52.0954 114.696 52.0954C114.99 52.0954 115.623 51.9696 116.613 51.9696C117.603 51.9696 118.239 52.0954 118.531 52.0954C118.702 52.0954 118.778 52.063 118.778 51.953C118.778 51.7511 118.284 51.6576 117.296 51.5492C117.203 50.5527 117.186 49.5555 117.186 48.5434V44.4628C117.186 43.4506 117.203 42.468 117.296 41.4724C118.284 41.3632 118.778 41.2694 118.778 41.0674C118.778 40.9582 118.702 40.9118 118.531 40.9118C118.253 40.9118 117.603 41.052 116.613 41.052C115.623 41.052 114.975 40.9118 114.696 40.9118ZM119.258 40.9118C119.089 40.9118 119.012 40.9582 119.012 41.0674C119.012 41.2388 119.397 41.316 120.155 41.4724L124.424 52.0469C124.488 52.1877 124.517 52.2808 124.626 52.2808C124.673 52.2808 124.78 52.1565 124.874 51.9388L127.581 45.445C128.138 44.105 128.695 42.7645 129.281 41.4726C130.01 41.2997 130.365 41.239 130.365 41.0676C130.365 40.9584 130.287 40.912 130.117 40.912C129.901 40.912 129.421 41.0047 128.68 41.0047C127.937 41.0047 127.457 40.912 127.241 40.912C127.07 40.912 126.992 40.9584 126.992 41.0676C126.992 41.2531 127.411 41.3311 128.262 41.4726C127.752 43.684 127.1 45.7397 126.343 47.5308L124.982 50.7859L121.424 41.473C122.275 41.3315 122.694 41.2535 122.694 41.068C122.694 40.9588 122.616 40.9124 122.446 40.9124C122.075 40.9124 121.548 41.0526 120.884 41.0526C120.172 41.0526 119.614 40.9124 119.258 40.9124L119.258 40.9118ZM140.477 40.9118C140.306 40.9118 140.23 40.9582 140.23 41.0674C140.23 41.2694 140.725 41.3632 141.714 41.4724C141.808 42.4209 141.823 43.4191 141.823 44.4628V48.5268C141.823 49.5861 141.808 50.5828 141.714 51.5337C140.724 51.643 140.23 51.7369 140.23 51.9387C140.23 52.0472 140.306 52.0789 140.477 52.0789C140.771 52.0789 141.406 51.9531 142.395 51.9531C143.494 51.9531 144.19 52.0789 144.437 52.0789C144.591 52.0789 144.669 52.0472 144.669 51.9387C144.669 51.7369 144.142 51.6273 143.077 51.5337C142.982 50.5357 142.968 49.5398 142.968 48.5268V44.4628C142.968 43.4506 142.982 42.468 143.077 41.4724C143.693 41.3632 144.202 41.2991 144.621 41.2991C146.525 41.2991 147.747 42.4849 147.747 44.135C147.747 45.7869 146.649 46.6134 144.469 46.6134C144.095 46.6134 143.834 46.5494 143.664 46.5494C143.539 46.5494 143.432 46.6271 143.432 46.7347C143.432 46.8763 143.556 46.9858 143.678 47.1562L146.402 51.004C146.973 51.7984 147.36 52.2652 148.102 52.2652C148.986 52.2652 149.771 51.6734 149.771 51.4872C149.771 51.4086 149.729 51.3614 149.65 51.3614C149.495 51.3614 149.232 51.549 148.892 51.549C148.412 51.549 148.132 51.2068 147.686 50.6298L144.84 46.9376C147.407 46.7663 148.892 45.3814 148.892 43.6361C148.892 42.0338 147.53 40.9272 145.178 40.9272C144.189 40.9272 143.247 41.0519 142.395 41.0519C141.406 41.0519 140.756 40.9118 140.477 40.9118ZM158.891 40.9118C158.721 40.9118 158.644 40.9582 158.644 41.0674C158.644 41.2694 159.138 41.3632 160.126 41.4724C160.221 42.4209 160.235 43.4191 160.235 44.4628V48.5434C160.235 49.6018 160.221 50.5974 160.126 51.5492C159.138 51.6576 158.644 51.7511 158.644 51.953C158.644 52.0631 158.721 52.0954 158.891 52.0954C159.185 52.0954 159.817 51.9696 160.808 51.9696C161.798 51.9696 162.434 52.0954 162.726 52.0954C162.896 52.0954 162.975 52.063 162.975 51.953C162.975 51.7511 162.478 51.6576 161.489 51.5492C161.396 50.5527 161.381 49.5555 161.381 48.5434V44.4628C161.381 43.4506 161.396 42.468 161.489 41.4724C162.478 41.3632 162.975 41.2694 162.975 41.0674C162.975 40.9582 162.896 40.9118 162.726 40.9118C162.448 40.9118 161.798 41.052 160.808 41.052C159.817 41.052 159.171 40.9118 158.891 40.9118ZM173.674 40.9118C173.505 40.9118 173.426 40.9582 173.426 41.0674C173.426 41.2388 173.816 41.316 174.571 41.4724L177.712 46.6421V48.5433C177.712 49.6018 177.697 50.5974 177.604 51.5491C176.613 51.6575 176.12 51.751 176.12 51.953C176.12 52.063 176.193 52.0953 176.367 52.0953C176.659 52.0953 177.294 51.9695 178.286 51.9695C179.275 51.9695 179.908 52.0953 180.201 52.0953C180.372 52.0953 180.45 52.063 180.45 51.953C180.45 51.751 179.955 51.6575 178.965 51.5491C178.873 50.5526 178.856 49.5554 178.856 48.5433V46.5339L180.728 43.6672C181.285 42.8263 181.795 42.0783 182.305 41.4724C183.029 41.299 183.383 41.2384 183.383 41.067C183.383 40.9577 183.305 40.9114 183.137 40.9114C182.918 40.9114 182.441 41.0041 181.698 41.0041C180.954 41.0041 180.475 40.9114 180.258 40.9114C180.088 40.9114 180.011 40.9577 180.011 41.067C180.011 41.2524 180.444 41.3304 181.31 41.4719C181 42.3119 180.599 43.1218 180.104 43.9006L178.697 46.113L175.944 41.4719C176.794 41.3304 177.212 41.2524 177.212 41.067C177.212 40.9577 177.133 40.9114 176.964 40.9114C176.637 40.9114 176.097 41.0339 175.353 41.0339C174.535 41.0339 173.978 40.9114 173.669 40.9114L173.674 40.9118ZM44.2726 41.1082C47.2324 41.1082 48.9489 43.0718 48.9489 46.4964C48.9489 49.7935 47.1844 51.8217 44.3515 51.8217C43.8473 51.8217 43.2972 51.7436 42.7154 51.5988C42.6195 50.5849 42.6047 49.5695 42.6047 48.54V44.4031C42.6047 43.3728 42.6195 42.3593 42.7154 41.3454C43.218 41.1858 43.7387 41.1082 44.2726 41.1082ZM23.4636 41.3124C25.0531 41.3124 26.6284 42.1205 27.7935 43.5944C28.7215 44.7837 29.2094 46.1461 29.2094 47.5414C29.2094 48.9202 28.5799 50.0935 27.3836 50.9334C26.6915 51.4084 25.8562 51.6771 24.943 51.6771C23.4471 51.6771 21.8907 50.8702 20.6931 49.4129C19.7019 48.1905 19.1819 46.7964 19.1819 45.5441C19.1819 43.1036 20.9123 41.3124 23.4636 41.3124ZM67.1594 43.121L69.1912 48.0799H65.2241L67.1594 43.121Z" fill="#545454"/>
<path d="M180.51 57.0414H8.88281" stroke="#545454" stroke-width="0.616966"/>
<path d="M9.37939 62.1221C9.35471 62.1221 9.33008 62.1462 9.33008 62.1916C9.33008 62.2794 9.37939 62.4829 9.37939 62.8073C9.37939 63.1648 9.35419 63.358 9.35419 63.401C9.35419 63.4391 9.37339 63.4694 9.4046 63.4694C9.46008 63.4694 9.47224 63.4007 9.49118 63.2774L9.54707 62.8714C9.89432 62.7589 10.3455 62.6893 10.8918 62.6893H10.9663C11.0032 63.0699 11.009 63.4761 11.009 63.913V65.5483C11.009 65.9729 11.0033 66.3713 10.9663 66.7511C10.5011 66.79 10.2649 66.8267 10.2649 66.9144C10.2649 66.9583 10.2971 66.9707 10.3657 66.9707C10.452 66.9707 10.7426 66.9199 11.2391 66.9199C11.7347 66.9199 12.0258 66.9707 12.1125 66.9707C12.1807 66.9707 12.2112 66.9583 12.2112 66.9144C12.2112 66.8267 11.9764 66.79 11.512 66.7511C11.4743 66.3539 11.4681 65.9531 11.4681 65.5483V63.913C11.4681 63.4951 11.4745 63.0898 11.512 62.6893H11.5854C12.1368 62.6893 12.5894 62.7589 12.9367 62.8714L12.986 63.2774C13.0045 63.4007 13.017 63.4694 13.0725 63.4694C13.1033 63.4694 13.1219 63.4391 13.1219 63.401C13.1219 63.358 13.0978 63.1566 13.0978 62.8073C13.0978 62.4779 13.1471 62.2725 13.1471 62.2037C13.1471 62.1459 13.1413 62.1221 13.1043 62.1221C13.0735 62.1221 13.0542 62.1459 13.0353 62.2037L12.9673 62.4167C12.3291 62.4978 11.7471 62.5348 11.2391 62.5348C10.7307 62.5348 10.1484 62.4978 9.50977 62.4167L9.44839 62.2031C9.42953 62.1455 9.41056 62.1212 9.37936 62.1212L9.37939 62.1221ZM25.0027 62.1221C24.9719 62.1221 24.9467 62.1459 24.9282 62.2038L24.8657 62.4167C24.2337 62.4978 23.6574 62.5348 23.1375 62.5348H22.4799C22.0274 62.5348 21.7747 62.4896 21.7117 62.4896C21.644 62.4896 21.6131 62.5094 21.6131 62.5525C21.6131 62.6342 21.8109 62.6717 22.2071 62.7147C22.2444 63.0955 22.2509 63.4951 22.2509 63.913V65.5483C22.2509 65.9729 22.2445 66.3713 22.2071 66.7511C21.8109 66.795 21.6131 66.8333 21.6131 66.9144C21.6131 66.9583 21.644 66.9707 21.7117 66.9707C21.7986 66.9707 22.0339 66.9265 22.412 66.9265H22.9019C23.6334 66.9265 24.2956 66.9641 24.903 67.027L24.9523 67.1384C24.9712 67.1946 24.9905 67.2267 25.0213 67.2267C25.0585 67.2267 25.0641 67.1946 25.0641 67.1384C25.0641 67.102 25.0213 66.9269 25.0213 66.6032C25.0213 66.254 25.052 66.0535 25.052 66.0096C25.052 65.9666 25.0277 65.9411 25.0027 65.9411C24.9468 65.9411 24.935 66.0035 24.9161 66.1276L24.8591 66.4896C24.4067 66.6642 23.831 66.7643 23.1616 66.7643C23.0256 66.7643 22.8892 66.7586 22.7528 66.7511C22.7156 66.3539 22.709 65.9531 22.709 65.5483V64.7561H23.3972C23.8924 64.7561 24.3142 64.8048 24.6488 64.8984L24.6805 65.1169C24.7118 65.3552 24.7179 65.4612 24.7857 65.4612C24.8169 65.4612 24.8351 65.43 24.8351 65.3861C24.8351 65.2926 24.7978 65.0675 24.7978 64.7174C24.7978 64.3376 24.8537 64.1072 24.8537 64.0377C24.8537 63.9881 24.8411 63.9616 24.8164 63.9616C24.7421 63.9616 24.7357 64.0692 24.686 64.2992L24.6487 64.4692C24.3023 64.5619 23.881 64.6071 23.3972 64.6071H22.709V63.913C22.709 63.5084 22.7153 63.1144 22.7528 62.7147C22.9759 62.6891 23.1681 62.6772 23.3292 62.6772C23.9679 62.6772 24.4873 62.7589 24.8284 62.8714L24.8843 63.2774C24.9027 63.4008 24.9161 63.4694 24.972 63.4694C25.0028 63.4694 25.0213 63.4391 25.0213 63.401C25.0213 63.358 24.9961 63.1566 24.9961 62.8074C24.9961 62.4779 25.0454 62.2725 25.0454 62.2038C25.0454 62.1459 25.0393 62.1221 25.0027 62.1221ZM37.5826 62.1221C37.5514 62.1221 37.5263 62.1459 37.5081 62.2038L37.4457 62.4167C36.814 62.4978 36.2381 62.5348 35.7174 62.5348H35.0599C34.607 62.5348 34.354 62.4896 34.2916 62.4896C34.2243 62.4896 34.1919 62.5094 34.1919 62.5525C34.1919 62.6342 34.3904 62.6717 34.787 62.7147C34.8237 63.0955 34.8308 63.4951 34.8308 63.913V65.5483C34.8308 65.9729 34.8239 66.3713 34.787 66.7511C34.3903 66.795 34.1919 66.8333 34.1919 66.9144C34.1919 66.9583 34.2243 66.9707 34.2916 66.9707C34.3784 66.9707 34.6138 66.9265 34.9919 66.9265H35.4807C36.2121 66.9265 36.8764 66.9641 37.4829 67.027L37.5322 67.1384C37.5516 67.1946 37.57 67.2267 37.6013 67.2267C37.6388 67.2267 37.644 67.1946 37.644 67.1384C37.644 67.102 37.6013 66.9269 37.6013 66.6032C37.6013 66.254 37.632 66.0535 37.632 66.0096C37.632 65.9666 37.6069 65.9411 37.5826 65.9411C37.5264 65.9411 37.5145 66.0035 37.4961 66.1276L37.4402 66.4896C36.9876 66.6642 36.4105 66.7643 35.7415 66.7643C35.6055 66.7643 35.4693 66.7586 35.3328 66.7511C35.296 66.3539 35.29 65.9531 35.29 65.5483V64.7561H35.9772C36.4732 64.7561 36.8941 64.8048 37.2287 64.8984L37.2594 65.1169C37.2906 65.3552 37.2974 65.4612 37.3657 65.4612C37.3969 65.4612 37.415 65.43 37.415 65.3861C37.415 65.2926 37.3777 65.0675 37.3777 64.7174C37.3777 64.3376 37.4336 64.1072 37.4336 64.0377C37.4336 63.9881 37.4211 63.9616 37.3964 63.9616C37.3215 63.9616 37.3153 64.0692 37.266 64.2992L37.2287 64.4692C36.8818 64.5619 36.4608 64.6071 35.9772 64.6071H35.29V63.913C35.29 63.5084 35.2959 63.1144 35.3328 62.7147C35.556 62.6891 35.7481 62.6772 35.9092 62.6772C36.5478 62.6772 37.0678 62.7589 37.4084 62.8714L37.4643 63.2774C37.4824 63.4008 37.4961 63.4694 37.552 63.4694C37.5832 63.4694 37.6013 63.4391 37.6013 63.401C37.6013 63.358 37.5761 63.1566 37.5761 62.8074C37.5761 62.4779 37.6254 62.2725 37.6254 62.2038C37.6254 62.1459 37.6196 62.1221 37.5826 62.1221ZM55.6412 62.1221C55.6161 62.1221 55.5908 62.1462 55.5908 62.1916C55.5908 62.2794 55.6412 62.4829 55.6412 62.8073C55.6412 63.1648 55.616 63.358 55.616 63.401C55.616 63.4391 55.6348 63.4694 55.6653 63.4694C55.7215 63.4694 55.7338 63.4007 55.7519 63.2774L55.8088 62.8714C56.1556 62.7589 56.6073 62.6893 57.1535 62.6893H57.2269C57.2637 63.0699 57.2708 63.4761 57.2708 63.913V65.5483C57.2708 65.9729 57.264 66.3713 57.2269 66.7511C56.7624 66.79 56.5267 66.8267 56.5267 66.9144C56.5267 66.9583 56.558 66.9707 56.6253 66.9707C56.7129 66.9707 57.0041 66.9199 57.4999 66.9199C57.9956 66.9199 58.2866 66.9707 58.3733 66.9707C58.4406 66.9707 58.473 66.9583 58.473 66.9144C58.473 66.8267 58.237 66.79 57.7716 66.7511C57.7343 66.3539 57.7289 65.9531 57.7289 65.5483V63.913C57.7289 63.4951 57.7346 63.0898 57.7716 62.6893H57.8472C58.3985 62.6893 58.8506 62.7589 59.1974 62.8714L59.2478 63.2774C59.2663 63.4007 59.2788 63.4694 59.3343 63.4694C59.3655 63.4694 59.3837 63.4391 59.3837 63.401C59.3837 63.358 59.3596 63.1566 59.3596 62.8073C59.3596 62.4779 59.4078 62.2725 59.4078 62.2037C59.4078 62.1459 59.4021 62.1221 59.365 62.1221C59.3339 62.1221 59.3156 62.1459 59.2971 62.2037L59.228 62.4167C58.5909 62.4978 58.0073 62.5348 57.4998 62.5348C56.9914 62.5348 56.4095 62.4978 55.7715 62.4167L55.708 62.2037C55.6898 62.1459 55.6715 62.1221 55.6412 62.1221ZM90.6113 62.1221C90.5793 62.1221 90.5545 62.1459 90.5368 62.2038L90.4721 62.4167C89.8409 62.4978 89.2662 62.5348 88.7461 62.5348H88.0875C87.6355 62.5348 87.3826 62.4896 87.3203 62.4896C87.2513 62.4896 87.2206 62.5094 87.2206 62.5525C87.2206 62.6342 87.4192 62.6717 87.8157 62.7147C87.8524 63.0955 87.8595 63.4951 87.8595 63.913V65.5483C87.8595 65.9729 87.8527 66.3713 87.8157 66.7511C87.4193 66.795 87.2206 66.8333 87.2206 66.9144C87.2206 66.9583 87.2513 66.9707 87.3203 66.9707C87.4062 66.9707 87.6416 66.9265 88.0195 66.9265H88.5094C89.2416 66.9265 89.9045 66.9641 90.5105 67.027L90.5609 67.1384C90.5794 67.1946 90.5977 67.2267 90.6288 67.2267C90.6656 67.2267 90.6726 67.1946 90.6726 67.1384C90.6726 67.102 90.6288 66.9269 90.6288 66.6032C90.6288 66.254 90.6606 66.0535 90.6606 66.0096C90.6606 65.9666 90.6348 65.9411 90.6113 65.9411C90.554 65.9411 90.5421 66.0035 90.5236 66.1276L90.4688 66.4896C90.0151 66.6642 89.4393 66.7643 88.7701 66.7643C88.6338 66.7643 88.4977 66.7586 88.3614 66.7511C88.3241 66.3539 88.3175 65.9531 88.3175 65.5483V64.7561H89.0047C89.5013 64.7561 89.9223 64.8048 90.2573 64.8984L90.288 65.1169C90.3191 65.3552 90.3258 65.4612 90.3932 65.4612C90.4243 65.4612 90.4425 65.43 90.4425 65.3861C90.4425 65.2926 90.4064 65.0675 90.4064 64.7174C90.4064 64.3376 90.4611 64.1072 90.4611 64.0377C90.4611 63.9881 90.4494 63.9616 90.425 63.9616C90.3501 63.9616 90.3434 64.0692 90.2946 64.2992L90.2573 64.4692C89.9106 64.5619 89.4895 64.6071 89.0047 64.6071H88.3176V63.913C88.3176 63.5084 88.3244 63.1144 88.3614 62.7147C88.5844 62.6891 88.7768 62.6772 88.9368 62.6772C89.5756 62.6772 90.0951 62.7589 90.436 62.8714L90.4919 63.2774C90.5104 63.4008 90.5231 63.4694 90.5795 63.4694C90.6115 63.4694 90.6289 63.4391 90.6289 63.401C90.6289 63.358 90.6047 63.1566 90.6047 62.8074C90.6047 62.4779 90.6541 62.2725 90.6541 62.2038C90.6541 62.1459 90.6467 62.1221 90.6113 62.1221ZM107.863 62.1221C107.838 62.1221 107.814 62.1462 107.814 62.1916C107.814 62.2794 107.863 62.4829 107.863 62.8073C107.863 63.1648 107.838 63.358 107.838 63.401C107.838 63.4391 107.857 63.4694 107.888 63.4694C107.943 63.4694 107.956 63.4007 107.974 63.2774L108.031 62.8714C108.378 62.7589 108.829 62.6893 109.375 62.6893H109.45C109.486 63.0699 109.493 63.4761 109.493 63.913V65.5483C109.493 65.9729 109.486 66.3713 109.45 66.7511C108.984 66.79 108.749 66.8267 108.749 66.9144C108.749 66.9583 108.778 66.9707 108.847 66.9707C108.935 66.9707 109.226 66.9199 109.723 66.9199C110.217 66.9199 110.51 66.9707 110.596 66.9707C110.664 66.9707 110.695 66.9583 110.695 66.9144C110.695 66.8267 110.459 66.79 109.995 66.7511C109.958 66.3539 109.951 65.9531 109.951 65.5483V63.913C109.951 63.4951 109.958 63.0898 109.995 62.6893H110.07C110.621 62.6893 111.073 62.7589 111.419 62.8714L111.47 63.2774C111.488 63.4007 111.501 63.4694 111.556 63.4694C111.587 63.4694 111.606 63.4391 111.606 63.401C111.606 63.358 111.581 63.1566 111.581 62.8073C111.581 62.4779 111.63 62.2725 111.63 62.2037C111.63 62.1459 111.623 62.1221 111.587 62.1221C111.556 62.1221 111.538 62.1459 111.518 62.2037L111.45 62.4167C110.812 62.4978 110.229 62.5348 109.723 62.5348C109.214 62.5348 108.632 62.4978 107.992 62.4167L107.931 62.2037C107.912 62.1459 107.893 62.1221 107.863 62.1221ZM131.882 62.1221C131.852 62.1221 131.826 62.1459 131.808 62.2038L131.746 62.4167C131.114 62.4978 130.537 62.5348 130.016 62.5348H129.359C128.907 62.5348 128.653 62.4896 128.591 62.4896C128.523 62.4896 128.492 62.5094 128.492 62.5525C128.492 62.6342 128.692 62.6717 129.088 62.7147C129.125 63.0955 129.13 63.4951 129.13 63.913V65.5483C129.13 65.9729 129.125 66.3713 129.088 66.7511C128.692 66.795 128.492 66.8333 128.492 66.9144C128.492 66.9583 128.523 66.9707 128.591 66.9707C128.653 66.9707 128.907 66.9265 129.359 66.9265C129.911 66.9265 130.195 66.9707 130.246 66.9707C130.313 66.9707 130.346 66.9583 130.346 66.9144C130.346 66.8267 130.109 66.79 129.632 66.7511C129.595 66.3539 129.589 65.9531 129.589 65.5483V64.7561H130.277C130.772 64.7561 131.194 64.8048 131.529 64.8984L131.56 65.1169C131.591 65.3553 131.598 65.4612 131.665 65.4612C131.696 65.4612 131.714 65.43 131.714 65.3861C131.714 65.2926 131.677 65.0675 131.677 64.7175C131.677 64.3376 131.733 64.1072 131.733 64.0377C131.733 63.9881 131.72 63.9616 131.696 63.9616C131.621 63.9616 131.615 64.0692 131.565 64.2993L131.529 64.4692C131.182 64.5619 130.761 64.6071 130.277 64.6071H129.59V63.9131C129.59 63.5084 129.595 63.1144 129.632 62.7147C129.854 62.6891 130.048 62.6772 130.209 62.6772C130.847 62.6772 131.367 62.7589 131.708 62.8714L131.753 63.277C131.771 63.4003 131.783 63.469 131.839 63.469C131.87 63.469 131.889 63.4387 131.889 63.4006C131.889 63.3576 131.865 63.1562 131.865 62.807C131.865 62.4775 131.912 62.2721 131.912 62.2033C131.912 62.1455 131.907 62.1217 131.87 62.1217L131.882 62.1221ZM146.879 62.1221C146.848 62.1221 146.824 62.1459 146.804 62.2038L146.744 62.4167C146.112 62.4978 145.534 62.5348 145.013 62.5348H144.357C143.904 62.5348 143.649 62.4896 143.589 62.4896C143.52 62.4896 143.489 62.5094 143.489 62.5525C143.489 62.6342 143.688 62.6717 144.084 62.7147C144.121 63.0955 144.128 63.4951 144.128 63.913V65.5483C144.128 65.9729 144.121 66.3713 144.084 66.7511C143.688 66.795 143.489 66.8333 143.489 66.9144C143.489 66.9583 143.52 66.9707 143.589 66.9707C143.675 66.9707 143.911 66.9265 144.29 66.9265H144.778C145.508 66.9265 146.172 66.9641 146.779 67.027L146.829 67.1384C146.848 67.1946 146.866 67.2267 146.898 67.2267C146.935 67.2267 146.94 67.1946 146.94 67.1384C146.94 67.102 146.898 66.9269 146.898 66.6032C146.898 66.254 146.929 66.0535 146.929 66.0096C146.929 65.9666 146.904 65.9411 146.879 65.9411C146.824 65.9411 146.811 66.0035 146.793 66.1276L146.737 66.4896C146.285 66.6642 145.708 66.7643 145.039 66.7643C144.902 66.7643 144.766 66.7586 144.629 66.7511C144.592 66.3539 144.585 65.9531 144.585 65.5483V64.7561H145.274C145.769 64.7561 146.193 64.8048 146.527 64.8984L146.557 65.1169C146.587 65.3552 146.594 65.4612 146.662 65.4612C146.692 65.4612 146.711 65.43 146.711 65.3861C146.711 65.2926 146.675 65.0675 146.675 64.7174C146.675 64.3376 146.73 64.1072 146.73 64.0377C146.73 63.9881 146.718 63.9616 146.692 63.9616C146.619 63.9616 146.614 64.0692 146.563 64.2992L146.527 64.4692C146.178 64.5619 145.757 64.6071 145.274 64.6071H144.585V63.913C144.585 63.5084 144.592 63.1144 144.629 62.7147C144.854 62.6891 145.045 62.6772 145.206 62.6772C145.844 62.6772 146.366 62.7589 146.706 62.8714L146.76 63.2774C146.779 63.4008 146.793 63.4694 146.848 63.4694C146.879 63.4694 146.898 63.4391 146.898 63.401C146.898 63.358 146.873 63.1566 146.873 62.8074C146.873 62.4779 146.923 62.2725 146.923 62.2038C146.923 62.1459 146.916 62.1221 146.879 62.1221ZM43.0747 62.2605C43.0188 62.2605 43.0067 62.2972 42.9816 62.3676L42.8764 62.6776C42.4921 62.503 42.1194 62.4227 41.7848 62.4227C40.8919 62.4227 40.2736 63.0145 40.2736 63.8693C40.2736 64.5117 40.6571 64.8744 41.4506 64.9927C42.0148 65.0796 42.4485 65.1061 42.758 65.3171C42.9006 65.4189 42.975 65.5722 42.975 65.785C42.975 66.3221 42.4734 66.8024 41.8035 66.8024C41.3766 66.8024 40.9363 66.6103 40.4895 66.223C40.4094 65.6047 40.3782 65.2994 40.2911 65.2994C40.2479 65.2994 40.2363 65.3362 40.2363 65.4098C40.2363 65.5166 40.267 65.7289 40.267 66.0409C40.267 66.6856 40.1673 67.0465 40.1673 67.1334C40.1673 67.1707 40.1862 67.1908 40.2232 67.1908C40.2672 67.1908 40.2852 67.1521 40.3098 67.0826L40.415 66.7725C40.812 66.9529 41.1841 67.0396 41.5372 67.0396C42.4976 67.0396 43.1734 66.3841 43.1734 65.5234C43.1734 65.1171 42.9935 64.7932 42.7021 64.6616C42.3857 64.5192 42.0392 64.4883 41.6994 64.4255C40.8495 64.2765 40.4468 64.1758 40.4468 63.6387C40.4468 63.1273 40.9361 62.6654 41.6052 62.6654C42.0576 62.6654 42.467 62.8398 42.8084 63.1708C42.8389 63.645 42.8508 63.8627 42.9432 63.8627C42.9868 63.8627 43.0068 63.8257 43.0068 63.7578C43.0068 63.6891 42.9937 63.5822 42.9937 63.439C42.9937 62.7901 43.1175 62.4223 43.1175 62.3156C43.1175 62.2792 43.1118 62.2605 43.0747 62.2605ZM101.727 62.2605C101.67 62.2605 101.658 62.2972 101.634 62.3676L101.528 62.6776C101.145 62.503 100.773 62.4227 100.438 62.4227C99.5466 62.4227 98.9256 63.0145 98.9256 63.8693C98.9256 64.5117 99.31 64.8744 100.104 64.9927C100.668 65.0796 101.101 65.1061 101.411 65.3171C101.553 65.4189 101.627 65.5722 101.627 65.785C101.627 66.3221 101.127 66.8024 100.457 66.8024C100.029 66.8024 99.5887 66.6103 99.1426 66.223C99.0618 65.6047 99.031 65.2994 98.9443 65.2994C98.9005 65.2994 98.8884 65.3362 98.8884 65.4098C98.8884 65.5166 98.9191 65.7289 98.9191 66.0409C98.9191 66.6856 98.8204 67.0465 98.8204 67.1334C98.8204 67.1707 98.8393 67.1908 98.8763 67.1908C98.9192 67.1908 98.9376 67.1521 98.9629 67.0826L99.0681 66.7725C99.4654 66.9529 99.8368 67.0396 100.19 67.0396C101.151 67.0396 101.826 66.3841 101.826 65.5234C101.826 65.1171 101.647 64.7932 101.355 64.6616C101.039 64.5192 100.692 64.4883 100.351 64.4255C99.503 64.2765 99.0988 64.1758 99.0988 63.6387C99.0988 63.1273 99.5883 62.6654 100.258 62.6654C100.709 62.6654 101.12 62.8398 101.46 63.1708C101.492 63.645 101.504 63.8627 101.596 63.8627C101.64 63.8627 101.658 63.8257 101.658 63.7578C101.658 63.6891 101.647 63.5822 101.647 63.439C101.647 62.7901 101.77 62.4223 101.77 62.3156C101.77 62.2792 101.764 62.2605 101.727 62.2605ZM124.451 62.4227C123.614 62.4227 122.865 62.8531 122.481 63.5152C122.25 63.914 122.139 64.3321 122.139 64.7996C122.139 65.4484 122.356 65.991 122.764 66.3974C123.199 66.8211 123.745 67.0462 124.382 67.0462C125.126 67.0462 125.752 66.7592 126.186 66.223C126.54 65.7926 126.719 65.2681 126.719 64.687C126.719 64.0017 126.471 63.4073 126.019 62.9976C125.597 62.6161 125.072 62.4227 124.451 62.4227ZM167.161 62.4227C166.323 62.4227 165.574 62.8531 165.189 63.5152C164.959 63.914 164.848 64.3321 164.848 64.7996C164.848 65.4484 165.065 65.991 165.474 66.3974C165.908 66.8211 166.455 67.0462 167.092 67.0462C167.836 67.0462 168.461 66.7592 168.896 66.223C169.249 65.7926 169.429 65.2681 169.429 64.687C169.429 64.0017 169.18 63.4073 168.729 62.9976C168.307 62.6161 167.779 62.4227 167.161 62.4227ZM15.1582 62.49C15.0904 62.49 15.0596 62.5098 15.0596 62.5529C15.0596 62.6347 15.2577 62.6721 15.6546 62.7151C15.6912 63.0959 15.6984 63.4955 15.6984 63.9134V65.5487C15.6984 65.9733 15.6916 66.3717 15.6546 66.7515C15.2576 66.7954 15.0596 66.8337 15.0596 66.9148C15.0596 66.9587 15.0904 66.9711 15.1582 66.9711C15.2757 66.9711 15.5309 66.9203 15.9275 66.9203C16.3245 66.9203 16.5774 66.9711 16.6957 66.9711C16.7631 66.9711 16.7944 66.9587 16.7944 66.9148C16.7944 66.8337 16.597 66.7954 16.2004 66.7515C16.1629 66.3543 16.1565 65.9535 16.1565 65.5487V64.8238H18.4371V65.5487C18.4371 65.96 18.4299 66.3593 18.3933 66.7515C17.9963 66.7954 17.7982 66.8337 17.7982 66.9148C17.7982 66.9587 17.8298 66.9711 17.898 66.9711C18.0156 66.9711 18.2696 66.9203 18.6662 66.9203C19.0632 66.9203 19.3231 66.9711 19.441 66.9711C19.5085 66.9711 19.5342 66.9587 19.5342 66.9148C19.5342 66.8337 19.3356 66.7954 18.9391 66.7515C18.9017 66.3543 18.8964 65.9535 18.8964 65.5487V63.9134C18.8964 63.5088 18.9017 63.1148 18.9391 62.7151C19.3357 62.6721 19.5342 62.6347 19.5342 62.5529C19.5342 62.5098 19.5085 62.49 19.441 62.49C19.3293 62.49 19.0632 62.5474 18.6662 62.5474C18.2695 62.5474 18.0094 62.49 17.898 62.49C17.8298 62.49 17.7982 62.5098 17.7982 62.5529C17.7982 62.6347 17.9963 62.6721 18.3933 62.7151C18.4302 63.0519 18.4371 63.4451 18.4371 63.9134V64.6815H16.1565V63.9134C16.1565 63.5088 16.163 63.1148 16.2004 62.7151C16.597 62.6721 16.7944 62.6347 16.7944 62.5529C16.7944 62.5098 16.7631 62.49 16.6957 62.49C16.5835 62.49 16.3245 62.5474 15.9275 62.5474C15.5309 62.5474 15.2696 62.49 15.1582 62.49ZM30.6138 62.49C30.5456 62.49 30.5151 62.5098 30.5151 62.5529C30.5151 62.6347 30.7136 62.6721 31.1102 62.7151C31.1478 63.0959 31.1529 63.4881 31.1529 63.9134V65.6415V65.8975C31.1529 66.4147 31.1475 66.8332 31.0115 67.1642C30.912 67.4076 30.7566 67.6266 30.5458 67.8318C30.2483 68.1189 30.0691 68.1882 30.0691 68.2809C30.0691 68.3065 30.094 68.3317 30.1129 68.3317C30.1622 68.3317 30.2613 68.2753 30.4285 68.1628C30.6455 68.0138 30.8741 67.8628 31.0784 67.6442C31.3702 67.3264 31.5433 66.959 31.5803 66.5783C31.6052 66.3035 31.6121 65.9227 31.6121 65.4428V63.9134C31.6121 63.5088 31.6179 63.1148 31.6548 62.7151C32.0518 62.6721 32.2499 62.6346 32.2499 62.5529C32.2499 62.5098 32.22 62.49 32.1512 62.49C32.0399 62.49 31.779 62.5473 31.3819 62.5473C30.9858 62.5473 30.7255 62.49 30.6138 62.49ZM45.5806 62.49C45.5119 62.49 45.4809 62.5098 45.4809 62.5529C45.4809 62.6347 45.6855 62.6721 46.0825 62.7151V64.9738C46.0825 65.5921 46.0879 66.0407 46.2798 66.384C46.5153 66.8021 46.9934 67.0461 47.6497 67.0461C48.356 67.0461 48.8525 66.7777 49.0941 66.2969C49.2803 65.9228 49.2799 65.4793 49.3045 64.9363L49.3352 64.2323C49.3664 63.5148 49.3847 63.0089 49.4349 62.7151C49.769 62.6596 49.9357 62.6281 49.9357 62.5529C49.9357 62.5098 49.9123 62.49 49.8437 62.49C49.757 62.49 49.5336 62.5352 49.174 62.5352C48.8148 62.5352 48.5918 62.49 48.5056 62.49C48.4369 62.49 48.4058 62.5098 48.4058 62.5529C48.4058 62.6347 48.6169 62.6721 49.0382 62.7151C49.1187 63.1893 49.1554 63.6949 49.1554 64.218V64.8547C49.1554 65.4432 49.1253 65.8787 48.9823 66.1965C48.7784 66.6525 48.3501 66.9027 47.7308 66.9027C46.8385 66.9027 46.534 66.4474 46.534 65.3557C46.534 65.2804 46.5406 65.1993 46.5406 65.1173L46.6272 62.7151C47.0238 62.6722 47.2222 62.6347 47.2222 62.5529C47.2222 62.5098 47.1914 62.49 47.1236 62.49C47.0118 62.49 46.7513 62.5474 46.3543 62.5474C45.9577 62.5474 45.6919 62.49 45.5806 62.49ZM52.031 62.49C51.9633 62.49 51.9324 62.5098 51.9324 62.5529C51.9324 62.6347 52.1304 62.6721 52.5275 62.7151C52.565 63.0959 52.5702 63.4955 52.5702 63.9134V65.5487C52.5702 65.9733 52.5648 66.3717 52.5275 66.7515C52.1304 66.7954 51.9324 66.8337 51.9324 66.9148C51.9324 66.9587 51.9633 66.9711 52.031 66.9711C52.149 66.9711 52.4027 66.9203 52.7992 66.9203C53.1962 66.9203 53.4496 66.9711 53.5674 66.9711C53.6357 66.9711 53.6672 66.9587 53.6672 66.9148C53.6672 66.8337 53.4691 66.7954 53.0721 66.7515C53.0347 66.3543 53.0294 65.9535 53.0294 65.5487V63.9134C53.0294 63.5088 53.0348 63.1148 53.0721 62.7151C53.4692 62.6721 53.6672 62.6347 53.6672 62.5529C53.6672 62.5098 53.6357 62.49 53.5674 62.49C53.4556 62.49 53.1962 62.5474 52.7992 62.5474C52.4027 62.5474 52.1427 62.49 52.031 62.49ZM64.6177 62.49C64.5495 62.49 64.518 62.5098 64.518 62.5529H64.5191C64.5191 62.6347 64.7235 62.6721 65.1208 62.7151V64.9738C65.1208 65.5921 65.1258 66.0407 65.3191 66.384C65.5539 66.8021 66.0314 67.0461 66.6879 67.0461C67.3949 67.0461 67.8908 66.7777 68.1323 66.2969C68.3175 65.9228 68.3175 65.4793 68.3427 64.9363L68.3734 64.2323C68.4046 63.5148 68.4235 63.0089 68.4731 62.7151C68.8081 62.6596 68.974 62.6281 68.974 62.5529C68.974 62.5098 68.9501 62.49 68.8819 62.49C68.7952 62.49 68.5717 62.5352 68.2123 62.5352C67.8529 62.5352 67.6305 62.49 67.5438 62.49C67.4756 62.49 67.443 62.5098 67.443 62.5529C67.443 62.6347 67.6545 62.6721 68.0753 62.7151C68.1561 63.1893 68.1937 63.6949 68.1937 64.218V64.8547C68.1937 65.4432 68.1626 65.8787 68.0194 66.1965C67.8149 66.6525 67.3874 66.9027 66.7679 66.9027C65.8758 66.9027 65.5723 66.4474 65.5723 65.3557C65.5723 65.2804 65.5779 65.1993 65.5779 65.1173L65.6645 62.7151C66.0618 62.6722 66.2607 62.6347 66.2607 62.5529C66.2607 62.5098 66.23 62.49 66.1609 62.49C66.0498 62.49 65.79 62.5474 65.3927 62.5474C64.9963 62.5474 64.7296 62.49 64.6177 62.49ZM71.1001 62.49C71.0378 62.49 71.0004 62.5098 71.0004 62.5529C71.0004 62.6347 71.2862 62.5968 71.6086 63.0461V65.2994C71.6086 65.9788 71.5518 66.4711 71.4837 66.7515C71.1369 66.8087 70.9697 66.8403 70.9697 66.9148C70.9697 66.9588 71.0014 66.9711 71.0628 66.9711C71.1992 66.9711 71.4213 66.9204 71.7193 66.9204C72.1039 66.9204 72.3449 66.9711 72.4568 66.9711C72.5183 66.9711 72.5566 66.9588 72.5566 66.9148C72.5566 66.8271 72.3277 66.7904 71.8749 66.7515C71.8068 66.3419 71.7632 65.8037 71.7632 65.1548V63.2271L74.5632 66.9391C74.6196 67.0145 74.6624 67.0461 74.6936 67.0461C74.7247 67.0461 74.7254 67.0271 74.7254 66.9899V66.9457V64.762C74.7254 63.8632 74.7553 63.1836 74.8361 62.7151C75.2081 62.6722 75.395 62.6347 75.395 62.5529C75.395 62.5098 75.3641 62.49 75.3018 62.49C75.1714 62.49 74.948 62.5474 74.6508 62.5474C74.2662 62.5474 74.0243 62.49 73.9199 62.49C73.8585 62.49 73.8268 62.5098 73.8268 62.5529C73.8268 62.6347 74.0373 62.6779 74.4657 62.7151C74.5271 63.0702 74.5632 63.6076 74.5632 64.3383V66.1214L71.8312 62.5219C71.7571 62.5219 71.6893 62.5297 71.6262 62.5297C71.298 62.5297 71.1312 62.49 71.1001 62.49ZM77.5449 62.49C77.4767 62.49 77.4452 62.5098 77.4452 62.5529C77.4452 62.6347 77.6439 62.6721 78.0403 62.7151C78.077 63.0959 78.0841 63.4955 78.0841 63.9134V65.5487C78.0841 65.9733 78.0773 66.3717 78.0403 66.7515C77.6439 66.7954 77.4452 66.8337 77.4452 66.9148C77.4452 66.9587 77.4767 66.9711 77.5449 66.9711C77.6628 66.9711 77.9165 66.9203 78.3121 66.9203C78.7093 66.9203 78.9638 66.9711 79.0825 66.9711C79.1498 66.9711 79.18 66.9587 79.18 66.9148C79.18 66.8337 78.9824 66.7954 78.586 66.7515C78.5479 66.3543 78.5422 65.9535 78.5422 65.5487V63.9134C78.5422 63.5088 78.5481 63.1148 78.586 62.7151C78.9824 62.6721 79.18 62.6347 79.18 62.5529C79.18 62.5098 79.1498 62.49 79.0825 62.49C78.9705 62.49 78.7093 62.5474 78.3121 62.5474C77.9165 62.5474 77.656 62.49 77.5449 62.49ZM81.0091 62.49C80.9409 62.49 80.9093 62.5098 80.9093 62.5529C80.9093 62.6232 81.0647 62.6522 81.3685 62.7151L83.0781 66.9524C83.1034 67.0079 83.1155 67.0461 83.1592 67.0461C83.1769 67.0461 83.2208 66.9961 83.2579 66.9093L84.3408 64.3065C84.5647 63.7711 84.7859 63.2326 85.0224 62.7153C85.3136 62.6467 85.4553 62.6235 85.4553 62.5531C85.4553 62.51 85.4249 62.4902 85.3567 62.4902C85.2708 62.4902 85.079 62.5299 84.7802 62.5299C84.4831 62.5299 84.2905 62.4902 84.2038 62.4902C84.1356 62.4902 84.1052 62.51 84.1052 62.5531C84.1052 62.6283 84.2725 62.6599 84.6126 62.7153C84.4089 63.6017 84.1482 64.4251 83.8443 65.1418L83.2985 66.4472L81.875 62.7153C82.215 62.6598 82.3824 62.6283 82.3824 62.5531C82.3824 62.51 82.3511 62.4902 82.2837 62.4902C82.1339 62.4902 81.9229 62.5475 81.6569 62.5475C81.3716 62.5475 81.1492 62.4902 81.007 62.4902L81.0091 62.49ZM93.0554 62.49C92.9872 62.49 92.9567 62.5098 92.9567 62.5529C92.9567 62.6347 93.1543 62.6721 93.5507 62.7151C93.588 63.0959 93.5946 63.4955 93.5946 63.9134V65.5421C93.5946 65.9667 93.5878 66.3662 93.5507 66.746C93.1543 66.7907 92.9567 66.8273 92.9567 66.9093C92.9567 66.9531 92.9872 66.9645 93.0554 66.9645C93.1732 66.9645 93.4274 66.9149 93.8247 66.9149C94.264 66.9149 94.5429 66.9645 94.6422 66.9645C94.7045 66.9645 94.7343 66.9531 94.7343 66.9093C94.7343 66.8273 94.5249 66.7841 94.0965 66.746C94.0597 66.3479 94.0527 65.9477 94.0527 65.5421V63.9134C94.0527 63.5088 94.0594 63.1148 94.0965 62.7151C94.3448 62.6721 94.549 62.6467 94.7156 62.6467C95.4773 62.6467 95.9683 63.1209 95.9683 63.7821C95.9683 64.4442 95.5287 64.7742 94.6543 64.7742C94.5061 64.7742 94.3994 64.7499 94.3321 64.7499C94.2824 64.7499 94.2389 64.7808 94.2389 64.8238C94.2389 64.88 94.2881 64.9249 94.3386 64.9927L95.4291 66.5353C95.658 66.8531 95.8134 67.0396 96.1097 67.0396C96.464 67.0396 96.7803 66.8016 96.7803 66.7262C96.7803 66.6965 96.7611 66.6765 96.7299 66.6765C96.6693 66.6765 96.5635 66.7516 96.4263 66.7516C96.2344 66.7516 96.1223 66.6151 95.943 66.3841L94.8033 64.9066C95.8318 64.8379 96.4264 64.2818 96.4264 63.5825C96.4264 62.9394 95.8819 62.4978 94.9392 62.4978C94.5428 62.4978 94.1647 62.5474 93.8247 62.5474C93.4275 62.5474 93.1656 62.49 93.0554 62.49ZM104.253 62.49C104.185 62.49 104.154 62.5098 104.154 62.5529C104.154 62.6347 104.354 62.6721 104.751 62.7151C104.787 63.0959 104.794 63.4955 104.794 63.9134V65.5487C104.794 65.9733 104.787 66.3717 104.751 66.7515C104.354 66.7954 104.154 66.8337 104.154 66.9148C104.154 66.9587 104.185 66.9711 104.253 66.9711C104.372 66.9711 104.626 66.9203 105.023 66.9203C105.419 66.9203 105.673 66.9711 105.791 66.9711C105.858 66.9711 105.889 66.9587 105.889 66.9148C105.889 66.8337 105.691 66.7954 105.294 66.7515C105.257 66.3543 105.252 65.9535 105.252 65.5487V63.9134C105.252 63.5088 105.257 63.1148 105.294 62.7151C105.691 62.6721 105.889 62.6347 105.889 62.5529C105.889 62.5098 105.858 62.49 105.791 62.49C105.68 62.49 105.419 62.5474 105.023 62.5474C104.626 62.5474 104.364 62.49 104.253 62.49ZM113.326 62.49C113.258 62.49 113.227 62.5098 113.227 62.5529C113.227 62.6232 113.382 62.6522 113.686 62.7151L114.944 64.7874V65.5488C114.944 65.9734 114.938 66.3718 114.9 66.7516C114.504 66.7955 114.306 66.8338 114.306 66.9149C114.306 66.9588 114.336 66.9711 114.405 66.9711C114.522 66.9711 114.776 66.9204 115.173 66.9204C115.568 66.9204 115.823 66.9711 115.941 66.9711C116.009 66.9711 116.04 66.9588 116.04 66.9149C116.04 66.8338 115.842 66.7955 115.445 66.7516C115.407 66.3544 115.402 65.9535 115.402 65.5488V64.7433L116.153 63.5957C116.376 63.2588 116.58 62.9585 116.784 62.7151C117.075 62.6465 117.219 62.6233 117.219 62.5529C117.219 62.5099 117.186 62.49 117.117 62.49C117.031 62.49 116.84 62.5298 116.543 62.5298C116.244 62.5298 116.053 62.49 115.965 62.49C115.897 62.49 115.867 62.5099 115.867 62.5529C115.867 62.6281 116.04 62.6597 116.387 62.7151C116.264 63.052 116.103 63.3767 115.904 63.6895L115.339 64.5756L114.237 62.7151C114.578 62.6597 114.746 62.6281 114.746 62.5529C114.746 62.5099 114.715 62.49 114.646 62.49C114.516 62.49 114.299 62.5408 114.001 62.5408C113.673 62.5408 113.45 62.49 113.326 62.49ZM137.134 62.49C137.072 62.49 137.034 62.5098 137.034 62.5529C137.034 62.6347 137.32 62.5968 137.643 63.0461V65.2994C137.643 65.9788 137.587 66.4711 137.52 66.7515C137.173 66.8087 137.006 66.8403 137.006 66.9148C137.006 66.9588 137.035 66.9711 137.098 66.9711C137.234 66.9711 137.455 66.9204 137.754 66.9204C138.138 66.9204 138.38 66.9711 138.492 66.9711C138.553 66.9711 138.59 66.9588 138.59 66.9148C138.59 66.8271 138.361 66.7904 137.909 66.7515C137.841 66.3419 137.797 65.8037 137.797 65.1548V63.2271L140.599 66.9391C140.654 67.0145 140.697 67.0461 140.729 67.0461C140.76 67.0461 140.76 67.0271 140.76 66.9899V66.9457V64.762C140.76 63.8632 140.79 63.1836 140.871 62.7151C141.243 62.6722 141.43 62.6347 141.43 62.5529C141.43 62.5098 141.398 62.49 141.336 62.49C141.206 62.49 140.983 62.5474 140.685 62.5474C140.301 62.5474 140.059 62.49 139.955 62.49C139.892 62.49 139.86 62.5098 139.86 62.5529C139.86 62.6347 140.071 62.6779 140.5 62.7151C140.561 63.0702 140.599 63.6076 140.599 64.3383V66.1214L137.866 62.5219C137.791 62.5219 137.724 62.5297 137.662 62.5297C137.333 62.5297 137.165 62.49 137.134 62.49ZM148.984 62.49C148.915 62.49 148.885 62.5098 148.885 62.5529C148.885 62.6232 149.039 62.6522 149.343 62.7151L151.052 66.9524C151.077 67.0079 151.09 67.0461 151.133 67.0461C151.152 67.0461 151.195 66.9961 151.234 66.9093L151.889 65.3303L152.54 66.9524C152.565 67.0079 152.585 67.0462 152.62 67.0462C152.64 67.0462 152.676 66.9961 152.712 66.9093L153.803 64.3063C154.027 63.7708 154.25 63.2391 154.486 62.7151C154.777 62.6465 154.919 62.6232 154.919 62.5529C154.919 62.5098 154.888 62.49 154.821 62.49C154.777 62.49 154.522 62.5353 154.045 62.5353H152.968C152.484 62.5353 152.224 62.49 152.181 62.49C152.112 62.49 152.08 62.5098 152.08 62.5529C152.08 62.6281 152.248 62.6597 152.589 62.7151C152.503 63.1836 152.311 63.7968 152.039 64.5689L151.338 62.7151C151.678 62.6597 151.845 62.6281 151.845 62.5529C151.845 62.5098 151.814 62.49 151.748 62.49C151.696 62.49 151.412 62.5353 150.86 62.5353H149.633C149.293 62.5353 149.076 62.49 148.984 62.49ZM159.561 62.49C159.492 62.49 159.462 62.5098 159.462 62.5529C159.462 62.6232 159.618 62.6522 159.922 62.7151L161.179 64.7874V65.5488C161.179 65.9734 161.172 66.3718 161.135 66.7516C160.738 66.7955 160.539 66.8338 160.539 66.9149C160.539 66.9588 160.57 66.9711 160.639 66.9711C160.758 66.9711 161.012 66.9204 161.407 66.9204C161.804 66.9204 162.059 66.9711 162.176 66.9711C162.245 66.9711 162.276 66.9588 162.276 66.9149C162.276 66.8338 162.078 66.7955 161.682 66.7516C161.644 66.3544 161.638 65.9535 161.638 65.5488V64.7433L162.388 63.5957C162.611 63.2588 162.815 62.9585 163.02 62.7151C163.31 62.6465 163.452 62.6233 163.452 62.5529C163.452 62.5099 163.423 62.49 163.354 62.49C163.267 62.49 163.075 62.5298 162.777 62.5298C162.48 62.5298 162.286 62.49 162.201 62.49C162.132 62.49 162.103 62.5099 162.103 62.5529C162.103 62.6281 162.276 62.6597 162.623 62.7151C162.498 63.052 162.337 63.3767 162.139 63.6895L161.576 64.5756L160.472 62.7151C160.812 62.6597 160.981 62.6281 160.981 62.5529C160.981 62.5099 160.95 62.49 160.882 62.49C160.752 62.49 160.534 62.5408 160.236 62.5408C159.907 62.5408 159.685 62.49 159.561 62.49ZM171.137 62.49C171.07 62.49 171.039 62.5098 171.039 62.5529C171.039 62.6347 171.238 62.6721 171.633 62.7151C171.671 63.0959 171.677 63.4955 171.677 63.9134V65.5421C171.677 65.9667 171.671 66.3662 171.633 66.746C171.238 66.7907 171.039 66.8273 171.039 66.9093C171.039 66.9531 171.07 66.9645 171.137 66.9645C171.255 66.9645 171.508 66.9149 171.905 66.9149C172.345 66.9149 172.625 66.9645 172.725 66.9645C172.786 66.9645 172.817 66.9531 172.817 66.9093C172.817 66.8273 172.606 66.7841 172.179 66.746C172.141 66.3479 172.135 65.9477 172.135 65.5421V63.9134C172.135 63.5088 172.141 63.1148 172.179 62.7151C172.426 62.6721 172.631 62.6467 172.798 62.6467C173.561 62.6467 174.05 63.1209 174.05 63.7821C174.05 64.4442 173.611 64.7742 172.736 64.7742C172.588 64.7742 172.482 64.7499 172.416 64.7499C172.363 64.7499 172.32 64.7808 172.32 64.8238C172.32 64.88 172.371 64.9249 172.42 64.9927L173.508 66.5353C173.74 66.8531 173.895 67.0396 174.194 67.0396C174.546 67.0396 174.863 66.8016 174.863 66.7262C174.863 66.6965 174.842 66.6765 174.811 66.6765C174.75 66.6765 174.645 66.7516 174.509 66.7516C174.316 66.7516 174.206 66.6151 174.025 66.3841L172.885 64.9066C173.912 64.8379 174.509 64.2818 174.509 63.5825C174.509 62.9394 173.962 62.4978 173.021 62.4978C172.625 62.4978 172.245 62.5474 171.905 62.5474C171.508 62.5474 171.249 62.49 171.137 62.49ZM176.759 62.49C176.692 62.49 176.659 62.5098 176.659 62.5529C176.659 62.6347 176.857 62.6721 177.253 62.7151C177.291 63.0959 177.296 63.4955 177.296 63.9134V65.5477C177.296 65.9722 177.29 66.3717 177.253 66.7516C176.857 66.7955 176.659 66.8338 176.659 66.9149C176.659 66.9588 176.692 66.9711 176.759 66.9711C176.875 66.9711 177.129 66.9204 177.528 66.9204C177.923 66.9204 178.176 66.9711 178.294 66.9711C178.364 66.9711 178.394 66.9588 178.394 66.9149C178.394 66.8338 178.197 66.7955 177.798 66.7516C177.761 66.3544 177.754 65.9524 177.754 65.5477V64.9121C177.813 64.9064 177.868 64.9065 177.917 64.9065C178.474 64.9065 178.666 65.2117 178.984 65.68L179.592 66.5782C179.801 66.8902 179.986 67.0461 180.204 67.0461C180.445 67.0461 180.731 66.8151 180.731 66.7151C180.731 66.6645 180.712 66.6466 180.676 66.6466C180.644 66.6466 180.58 66.7261 180.471 66.7261C180.34 66.7261 180.186 66.5829 179.986 66.3024L179.417 65.4847C179.218 65.2041 179.065 64.9502 178.748 64.8127C178.619 64.7564 178.418 64.731 178.146 64.731H177.979L178.575 64.1693C179.293 63.4956 179.882 63.0204 180.309 62.715C180.557 62.6338 180.688 62.6231 180.688 62.5528C180.688 62.5097 180.662 62.4899 180.595 62.4899C180.509 62.4899 180.314 62.5296 180.018 62.5296C179.72 62.5296 179.53 62.4899 179.442 62.4899C179.374 62.4899 179.343 62.5097 179.343 62.5528C179.343 62.6231 179.485 62.6406 179.744 62.715L178.226 64.3062C178.066 64.475 177.911 64.6298 177.754 64.7431V63.9133C177.754 63.5087 177.761 63.1147 177.798 62.715C178.197 62.672 178.394 62.6345 178.394 62.5528C178.394 62.5097 178.364 62.4899 178.294 62.4899C178.185 62.4899 177.923 62.5472 177.528 62.5472C177.129 62.5472 176.871 62.49 176.759 62.49ZM150.333 62.6776C150.502 62.6776 150.662 62.6895 150.83 62.7151L151.808 65.1548L151.274 66.447L149.851 62.7151C150.011 62.6895 150.173 62.6776 150.333 62.6776ZM153.538 62.6776C153.717 62.6776 153.899 62.6895 154.078 62.7151C153.873 63.6015 153.613 64.4249 153.309 65.1416L152.764 66.4469L152.12 64.7807L152.317 64.3062C152.466 63.957 152.682 63.421 152.997 62.7151C153.178 62.6895 153.358 62.6776 153.538 62.6776ZM124.14 62.7029C124.766 62.7029 125.386 63.0202 125.844 63.6011C126.209 64.0687 126.402 64.607 126.402 65.1548C126.402 65.6969 126.154 66.159 125.683 66.49C125.409 66.677 125.081 66.7835 124.723 66.7835C124.134 66.7835 123.521 66.4662 123.049 65.8919C122.659 65.4102 122.454 64.8616 122.454 64.3692C122.454 63.4075 123.136 62.7029 124.14 62.7029ZM166.848 62.7029C167.474 62.7029 168.095 63.0202 168.553 63.6011C168.918 64.0687 169.111 64.607 169.111 65.1548C169.111 65.6969 168.862 66.159 168.392 66.49C168.118 66.677 167.791 66.7835 167.431 66.7835C166.843 66.7835 166.228 66.4662 165.757 65.8919C165.367 65.4102 165.163 64.8616 165.163 64.3692C165.163 63.4075 165.844 62.7029 166.848 62.7029Z" fill="#545454"/>
</g>
<defs>
<clipPath id="clip0_25424_44021">
<rect width="176" height="30" fill="white" transform="translate(8 39)"/>
</clipPath>
</defs>
</svg>
