<svg width="192" height="109" viewBox="0 0 192 109" fill="none" xmlns="http://www.w3.org/2000/svg">
<g clip-path="url(#clip0_18659_45267)">
<path d="M126.343 37.618C126.247 37.6206 126.151 37.6368 126.119 37.6576C125.959 38.5117 125.607 39.8753 125.245 40.8388C125.341 41.0054 125.661 41.1149 125.842 40.9846C126.098 40.4533 126.322 39.9846 126.877 39.5159C127.453 39.0262 128.711 38.9805 129.703 38.9805H130.962C131.655 38.9805 131.655 39.0003 131.655 39.6618V49.1931C131.655 51.4331 131.549 51.7552 130.237 51.8597L129.405 51.9227C129.223 52.0315 129.266 52.3899 129.405 52.4571C130.877 52.4155 131.677 52.3909 132.605 52.3909C133.522 52.3909 134.301 52.4155 135.613 52.4571C135.751 52.3899 135.794 52.0112 135.655 51.9227L134.919 51.8597C133.586 51.7552 133.543 51.4331 133.543 49.1931V39.7097C133.543 39.0013 133.522 38.9805 134.205 38.9805H135.837C137.106 38.9805 137.981 39.1514 138.503 39.5159C138.855 39.7503 139.015 40.5367 139.079 41.0679C139.197 41.1983 139.581 41.1993 139.677 41.0325C139.602 40.3867 139.773 38.6618 140.029 37.7868C139.975 37.7034 139.719 37.6826 139.613 37.7242C139.261 38.2764 139.058 38.318 137.821 38.318H128.509C127.453 38.318 126.695 38.3398 126.557 37.6576C126.525 37.6263 126.429 37.6154 126.343 37.618V37.618ZM152.711 37.618C152.615 37.6206 152.519 37.6368 152.487 37.6576C152.327 38.5117 151.986 39.8753 151.613 40.8388C151.709 41.0054 152.029 41.1149 152.21 40.9846C152.466 40.4533 152.69 39.9846 153.245 39.5159C153.821 39.0262 155.079 38.9805 156.071 38.9805H157.33C158.023 38.9805 158.023 39.0003 158.023 39.6618V49.1931C158.023 51.4331 157.917 51.7552 156.605 51.8597L155.773 51.9227C155.591 52.0315 155.634 52.3899 155.773 52.4571C157.245 52.4155 158.045 52.3909 158.973 52.3909C159.89 52.3909 160.669 52.4155 161.981 52.4571C162.119 52.3899 162.162 52.0112 162.023 51.9227L161.287 51.8597C159.954 51.7552 159.911 51.4331 159.911 49.1931V39.7097C159.911 39.0013 159.89 38.9805 160.583 38.9805H162.205C163.474 38.9805 164.349 39.1514 164.871 39.5159C165.223 39.7503 165.383 40.5367 165.447 41.0679C165.565 41.1983 165.949 41.1993 166.045 41.0325C165.981 40.3867 166.141 38.6618 166.386 37.7868C166.343 37.7034 166.098 37.6826 165.981 37.7242C165.629 38.2764 165.426 38.318 164.178 38.318H154.877C153.821 38.318 153.063 38.3398 152.925 37.6576C152.893 37.6263 152.797 37.6154 152.711 37.618V37.618ZM45.5433 37.9805C40.8083 37.9805 37.3619 41.2399 37.3619 45.5055C37.3619 49.3435 40.4435 52.7344 45.5433 52.7344C49.9753 52.7344 53.5177 49.6006 53.5177 45.293C53.5177 41.5378 50.8499 37.9805 45.5433 37.9805ZM100.949 37.9805C100.7 38.2566 100.309 38.642 99.7577 38.793C99.8249 39.1316 99.6883 39.5378 99.3662 40.3034L97.0217 46.0638C96.0585 48.4496 95.4121 49.8342 95.0014 50.8176C94.6782 51.5835 94.1737 51.8182 93.6222 51.8598L92.8659 51.9227C92.7251 52.0315 92.7721 52.3707 92.9075 52.4592C93.5273 52.439 94.355 52.391 95.1155 52.391C96.1939 52.4166 96.9086 52.4176 97.507 52.4592C97.7107 52.3707 97.7107 52.0315 97.5486 51.9227L96.7923 51.8598C96.2409 51.8182 96.1257 51.688 96.1257 51.4331C96.1257 51.1984 96.2889 50.6256 96.6323 49.6614L97.4345 47.4222C97.5955 46.9794 97.7363 46.9117 98.3091 46.9117H101.778C102.466 46.9117 102.559 46.9805 102.72 47.4493L103.73 50.3494C103.912 50.8592 104.033 51.2411 104.033 51.48C104.033 51.6891 103.711 51.8182 103.226 51.8598L102.56 51.9227C102.398 52.0315 102.423 52.3707 102.606 52.4592C103.272 52.439 104.143 52.391 105.247 52.391C106.284 52.391 107.086 52.4176 108.029 52.4592C108.143 52.3707 108.19 52.0315 108.029 51.9227L107.408 51.8598C106.418 51.7552 106.122 51.4331 105.456 49.5995L102.309 41.0326C101.96 40.09 101.594 39.1097 101.293 38.1722C101.251 38.021 101.09 37.9805 100.949 37.9805ZM120.297 37.9805C117.317 37.9805 115.614 39.6213 115.614 41.6472C115.614 43.3972 116.948 44.6107 118.099 45.3138L120.276 46.6367C121.961 47.6422 122.164 48.6822 122.164 49.6198C122.164 50.9008 121.215 52.0742 119.295 52.0742C116.624 52.0742 115.682 49.9856 115.338 48.8976C115.245 48.7718 114.901 48.8091 114.787 48.9595C114.834 49.9654 115.129 51.479 115.406 51.943C115.843 52.1776 117.062 52.7344 118.996 52.7344C121.983 52.7344 123.881 51.1355 123.881 48.7867C123.881 46.766 122.463 45.5263 121.012 44.693L119.177 43.6305C118.324 43.1409 117.224 42.245 117.224 41.0055C117.224 40.0265 117.702 38.6409 119.956 38.6409C122.164 38.6409 122.783 40.0264 123.081 41.0472C123.199 41.1773 123.561 41.1149 123.657 40.9847C123.657 40.089 123.444 38.8972 123.241 38.3868C123.06 38.3868 122.729 38.3388 122.441 38.2555C121.844 38.1096 121.012 37.9805 120.297 37.9805ZM146.335 37.9805C146.089 38.2566 145.695 38.642 145.14 38.793C145.215 39.1316 145.076 39.5378 144.756 40.3034L142.409 46.0638C141.439 48.4496 140.799 49.8342 140.383 50.8176C140.063 51.5835 139.561 51.8182 139.007 51.8598L138.249 51.9227C138.111 52.0315 138.164 52.3707 138.292 52.4592C138.911 52.439 139.743 52.391 140.5 52.391C141.577 52.4166 142.292 52.4176 142.889 52.4592C143.092 52.3707 143.092 52.0315 142.932 51.9227L142.185 51.8598C141.631 51.8182 141.513 51.688 141.513 51.4331C141.513 51.1984 141.673 50.6256 142.015 49.6614L142.815 47.4222C142.985 46.9794 143.124 46.9117 143.7 46.9117H147.167C147.849 46.9117 147.945 46.9805 148.105 47.4493L149.119 50.3494C149.3 50.8592 149.417 51.2411 149.417 51.48C149.417 51.6891 149.087 51.8182 148.607 51.8598L147.945 51.9227C147.785 52.0315 147.807 52.3707 147.988 52.4592C148.66 52.439 149.524 52.391 150.633 52.391C151.668 52.391 152.468 52.4176 153.417 52.4592C153.524 52.3707 153.577 52.0315 153.417 51.9227L152.788 51.8598C151.807 51.7552 151.508 51.4331 150.836 49.5995L147.7 41.0326C147.348 40.09 146.985 39.1097 146.676 38.1722C146.633 38.021 146.473 37.9805 146.335 37.9805ZM12.7561 38.2555C12.6208 38.3232 12.5738 38.7045 12.7144 38.793L13.079 38.8347C14.4124 38.9805 14.4603 39.2815 14.4603 41.516V49.1931C14.4603 51.4331 14.4124 51.7083 13.079 51.8598L12.5061 51.9227C12.3707 52.0528 12.4134 52.392 12.554 52.4592C13.6321 52.4176 14.4134 52.391 15.429 52.391C16.3457 52.391 17.1269 52.4176 18.4811 52.4592C18.6218 52.392 18.6623 52.0112 18.5269 51.9227L17.7457 51.8598C16.3862 51.7552 16.3457 51.4331 16.3457 49.1931V46.2305C16.3457 45.6784 16.4124 45.6576 17.0998 45.6576H18.6624C19.5373 45.6576 20.1103 45.6784 20.4332 45.7617C20.8707 45.892 21.0541 46.1888 21.1686 46.5742L21.4019 47.4076C21.5582 47.5325 21.902 47.5325 21.9957 47.4076C21.9957 46.9128 21.902 46.1055 21.902 45.3346C21.902 44.5482 21.9957 43.693 21.9957 43.1826C21.902 43.0523 21.5165 43.0523 21.4019 43.1826L21.1936 44.0367C21.053 44.5888 20.8717 44.6941 20.6165 44.7826C20.3405 44.8713 19.605 44.9117 18.6624 44.9117H17.0998C16.4124 44.9117 16.3457 44.9128 16.3457 44.3346V39.8347C16.3457 39.0273 16.3457 38.9805 17.0332 38.9805H18.4332C19.4019 38.9805 20.1571 38.9796 20.6624 39.1097C21.8133 39.3856 22.0905 40.1785 22.2727 41.1368C22.4347 41.2617 22.7568 41.1983 22.8251 41.068C22.7781 40.2607 22.7557 39.2347 22.7557 38.2555C22.4539 38.3232 21.1259 38.3243 19.6519 38.3243H15.429C14.5072 38.3243 13.7248 38.3023 12.7561 38.2555H12.7561ZM24.8019 38.2555C24.6611 38.318 24.6163 38.7045 24.7561 38.793L25.3289 38.8347C26.7774 38.9388 26.8233 39.2826 26.8233 41.5222V49.1931C26.8233 51.4331 26.7774 51.735 25.4441 51.8598L24.7561 51.9227C24.6163 52.0528 24.6611 52.3974 24.8019 52.4592C26.0883 52.4176 26.8243 52.3974 27.7875 52.3974H29.9027C32.2665 52.3974 34.4478 52.4176 35.6254 52.4592C35.9433 51.8811 36.5875 49.7083 36.5875 49.4747C36.5875 49.3232 36.1513 49.2411 36.0105 49.3456C35.5518 50.4336 34.9598 51.1984 34.4958 51.4534C34.131 51.6464 33.6467 51.735 31.6937 51.735C29.8814 51.735 29.443 51.48 29.1881 51.2411C28.7763 50.84 28.7049 50.2822 28.7049 48.9392V41.5222C28.7049 39.2827 28.7518 38.9388 30.1107 38.8347L30.6622 38.793C30.7977 38.7045 30.7497 38.318 30.6153 38.2555C29.4633 38.3024 28.6835 38.318 27.7875 38.318C26.8713 38.318 26.0883 38.3023 24.8019 38.2555ZM59.219 38.2555C56.9683 38.2555 55.3801 38.3191 54.0937 38.4284C53.9113 38.5117 53.9113 38.8555 54.0734 38.9597L54.8062 39.0472C55.7491 39.1513 55.8163 39.516 55.8163 41.5368V49.1931C55.8163 51.4331 55.7705 51.7083 54.4414 51.8598L53.8643 51.9227C53.7299 52.0731 53.7705 52.392 53.9102 52.4592C54.9886 52.4176 55.8163 52.391 56.7859 52.391C57.7022 52.391 58.483 52.4176 59.5145 52.4592C59.6553 52.392 59.7033 52.0315 59.5625 51.9227L59.0835 51.8598C57.7502 51.688 57.7022 51.4331 57.7022 49.1931V46.5055C57.7022 46.0628 57.7491 46.0367 58.7859 46.0367C59.7022 46.0367 60.0681 46.2566 60.4169 46.7201C61.1251 47.6838 62.0681 49.1515 62.6665 49.943C64.2974 52.0944 65.4675 52.631 67.4206 52.631C67.859 52.631 68.2281 52.5851 68.4318 52.5222C68.5459 52.439 68.5246 52.2662 68.4105 52.2246C67.7907 52.183 67.2137 51.944 66.8233 51.6262C65.2606 50.4134 64.0414 48.7035 62.2089 45.9534C62.0937 45.7868 61.9795 45.5733 62.0937 45.443C63.2393 45.0159 64.963 43.9065 64.963 41.8806C64.963 40.3857 64.1609 39.4284 63.0569 38.8972C61.9987 38.3659 60.6462 38.2555 59.219 38.2555ZM70.3955 38.2555C70.2611 38.3232 70.2142 38.7045 70.3539 38.793L70.9267 38.8347C72.2814 38.9388 72.3273 39.3035 72.3273 41.5639V49.1515C72.3273 51.4118 72.2814 51.7083 70.9267 51.8598L70.3539 51.9227C70.2131 52.0528 70.2611 52.392 70.3955 52.4592C71.5475 52.4176 72.3273 52.391 73.2958 52.391C74.2131 52.391 74.995 52.4176 76.1459 52.4592C76.2814 52.392 76.3273 52.0112 76.1918 51.9227L75.6147 51.8598C74.2611 51.7083 74.2131 51.4118 74.2131 49.1515V41.5639C74.2131 39.3034 74.2611 38.9388 75.6147 38.8347L76.1918 38.793C76.3273 38.7045 76.2814 38.3232 76.1459 38.2555C74.995 38.3024 74.2131 38.3243 73.2958 38.3243C72.3273 38.3243 71.5475 38.3023 70.3955 38.2555ZM84.2963 38.2555C82.3486 38.2555 80.4841 38.3191 78.531 38.4284C78.3027 38.5117 78.3283 38.8555 78.5107 38.9597L79.0153 39.0264C79.9785 39.1514 80.0937 39.6004 80.0937 41.0951L80.0915 49.1931C80.0915 51.4331 80.0446 51.688 78.7166 51.8598L78.1854 51.9227C78.0499 52.0528 78.0926 52.392 78.2334 52.4592C79.3118 52.4176 80.1406 52.391 81.1049 52.391C81.9113 52.391 83.379 52.5638 84.8478 52.5638C86.6195 52.5638 88.5033 52.2875 89.9977 51.543C92.6174 50.2203 94.0147 47.8971 94.0147 45.1888C94.0147 42.3711 92.4563 39.944 89.3523 38.8972C87.8579 38.3867 86.2281 38.2555 84.2963 38.2555ZM167.831 38.2555C167.703 38.318 167.65 38.7045 167.789 38.793L168.151 38.8347C169.506 38.9805 169.559 39.3034 169.559 41.5222V49.1931C169.559 51.4331 169.442 51.7552 168.141 51.8598L167.373 51.9227C167.245 52.0528 167.277 52.3974 167.426 52.4592C168.781 52.4176 169.559 52.3974 170.551 52.3974H172.61C174.658 52.3974 176.706 52.4176 178.775 52.4592C179.063 51.8811 179.65 50.2395 179.81 49.495C179.714 49.303 179.394 49.2411 179.234 49.3456C178.637 50.455 178.007 51.1984 177.602 51.4118C177.09 51.6464 176.429 51.735 174.658 51.735C172.631 51.735 172.151 51.5014 171.885 51.2411C171.511 50.8816 171.437 50.151 171.437 49.0267V46.0222C171.437 45.4649 171.511 45.443 172.194 45.443H173.527C174.423 45.443 174.978 45.4638 175.298 45.5472C175.757 45.6513 175.917 45.9743 176.013 46.3597L176.215 47.1888C176.333 47.3191 176.727 47.318 176.813 47.1722C176.813 46.6982 176.727 45.8909 176.727 45.1201C176.727 44.3128 176.813 43.4806 176.813 42.9701C176.727 42.819 176.333 42.819 176.215 42.9493L176.034 43.8242C175.917 44.3556 175.757 44.4847 175.479 44.568C175.213 44.6513 174.498 44.693 173.527 44.693H172.194C171.511 44.693 171.437 44.693 171.437 44.0992V39.8347C171.437 39.0273 171.437 38.9805 172.13 38.9805H173.783C174.797 38.9805 175.533 39.0004 176.013 39.1097C177.207 39.3856 177.421 40.1368 177.762 41.1368C177.879 41.2618 178.242 41.2253 178.338 41.0951C178.242 40.1577 178.103 38.6201 177.965 38.2555C177.698 38.318 176.333 38.318 174.861 38.318H170.551C169.602 38.318 168.823 38.3023 167.831 38.2555ZM45.1539 38.6409C49.5401 38.6409 51.2211 42.4379 51.2211 45.9534C51.2211 50.1563 48.5971 52.0742 45.8419 52.0742C41.3161 52.0742 39.6649 47.9803 39.6649 44.8242C39.6649 40.1577 42.7635 38.6409 45.1539 38.6409ZM59.1955 38.918C61.7481 38.918 62.8734 40.517 62.8734 42.1993C62.8734 43.6524 62.3411 44.3972 61.7214 44.8452C61.0547 45.3138 60.179 45.4013 59.3566 45.4013C58.1843 45.4013 57.8419 45.3556 57.7694 45.293C57.7011 45.2096 57.7001 44.9742 57.7001 44.5888V39.5993C57.7001 39.0004 57.7694 38.918 59.1955 38.918ZM84.4809 38.918C90.5022 38.918 91.715 42.8816 91.715 45.2305C91.715 49.1942 89.7203 51.9014 85.2627 51.9014C83.8153 51.9014 82.9406 51.688 82.4361 51.0267C82.0446 50.5158 81.9774 49.8331 81.9774 48.7035V40.8389C81.9774 39.8752 82.0243 39.344 82.2067 39.2139C82.3891 39.0889 83.1219 38.918 84.4809 38.918ZM100.169 40.5785H100.216C100.352 40.8389 100.56 41.417 100.742 41.9222L101.988 45.4013C102.196 45.9743 102.148 46.0638 101.481 46.0638H98.6547C98.0137 46.0638 97.987 46.0367 98.1694 45.5472L99.6169 41.8389C99.8718 41.1982 100.101 40.6877 100.169 40.5785ZM145.557 40.5785H145.6C145.738 40.8389 145.952 41.417 146.133 41.9222L147.37 45.4013C147.573 45.9743 147.53 46.0638 146.869 46.0638H144.042C143.402 46.0638 143.37 46.0367 143.552 45.5472L145.002 41.8389C145.258 41.1982 145.493 40.6877 145.557 40.5785ZM133.269 57.2473C133.184 57.2494 133.088 57.2654 133.056 57.2868C132.896 58.1412 132.544 59.5065 132.181 60.4697C132.277 60.6361 132.597 60.746 132.778 60.6158C133.034 60.0846 133.258 59.6153 133.813 59.147C134.389 58.6574 135.648 58.6094 136.64 58.6094H137.898C138.592 58.6094 138.592 58.6318 138.592 59.2932V68.8238C138.592 71.0638 138.485 71.387 137.173 71.4905L136.341 71.5534C136.16 71.6622 136.202 72.0206 136.341 72.0889C137.813 72.0473 138.613 72.0217 139.53 72.0217C140.458 72.0217 141.237 72.0473 142.549 72.0889C142.688 72.0206 142.73 71.642 142.592 71.5534L141.856 71.4905C140.522 71.387 140.48 71.0638 140.48 68.8238V59.339C140.48 58.6308 140.458 58.6094 141.141 58.6094H142.773C144.042 58.6094 144.917 58.7822 145.44 59.147C145.781 59.3817 145.941 60.1678 146.016 60.699C146.133 60.8292 146.517 60.8281 146.613 60.6617C146.538 60.0153 146.709 58.2926 146.965 57.418C146.912 57.3348 146.656 57.3134 146.549 57.355C146.197 57.9076 145.994 57.9492 144.757 57.9492H135.445C134.389 57.9492 133.632 57.9684 133.493 57.2868C133.461 57.2558 133.365 57.2441 133.269 57.2473ZM119.477 57.61C116.492 57.61 114.793 59.2505 114.793 61.2761C114.793 63.0265 116.127 64.2393 117.273 64.9433L119.456 66.266C121.141 67.2708 121.344 68.3118 121.344 69.2494C121.344 70.5305 120.394 71.7028 118.474 71.7028C115.805 71.7028 114.863 69.6142 114.519 68.5262C114.425 68.4014 114.081 68.4377 113.967 68.5892C114.014 69.594 114.314 71.1086 114.585 71.5716C115.023 71.8062 116.242 72.3641 118.169 72.3641C121.162 72.3641 123.061 70.7652 123.061 68.4153C123.061 66.395 121.642 65.1556 120.192 64.3225L118.357 63.259C117.503 62.7694 116.404 61.8745 116.404 60.634C116.404 59.6558 116.882 58.2702 119.136 58.2702C121.344 58.2702 121.962 59.6558 122.261 60.6766C122.378 60.8068 122.741 60.7438 122.837 60.6137C122.837 59.7177 122.634 58.5262 122.421 58.0153C122.24 58.0153 121.909 57.9673 121.621 57.8841C121.024 57.739 120.192 57.61 119.477 57.61ZM27.2275 57.8841C27.0867 57.9524 27.0462 58.3129 27.1817 58.4014L27.7545 58.4366C29.0878 58.5454 29.1337 58.9113 29.1337 61.13V66.155C29.1337 68.6969 29.7065 70.2553 30.9246 71.1929C32.0499 72.0889 33.6393 72.3641 35.2233 72.3641C36.9267 72.3641 38.6238 71.8073 39.6083 70.8078C40.9001 69.531 41.2169 67.5662 41.2169 65.707V63.3006C41.2169 62.1081 41.2169 59.6558 41.5401 58.9529C41.6755 58.6777 42.1139 58.4836 42.6921 58.4366L43.2435 58.4014C43.3587 58.2713 43.3779 57.994 43.1955 57.8841C42.3678 57.9257 41.7491 57.9534 40.7859 57.9534C39.8846 57.9534 39.0345 57.9257 38.1651 57.8841C38.0243 57.9726 37.9785 58.2446 38.1193 58.4014L38.6921 58.4366C39.2702 58.4836 39.6809 58.6308 39.8419 58.891C40.2323 59.5257 40.2793 61.978 40.2793 63.3006V65.755C40.2793 68.9945 39.0121 71.4265 35.6798 71.4265C32.1641 71.4265 31.0185 69.1662 31.0185 65.7348V61.13C31.0185 58.9113 31.0643 58.5454 32.3977 58.4366L32.9459 58.4014C33.0867 58.3129 33.0398 57.9524 32.9043 57.8841C31.7737 57.9257 31.0174 57.9534 30.0755 57.9534C29.1529 57.9534 28.3731 57.9257 27.2275 57.8841ZM44.1331 57.8841C43.9507 57.9726 43.9497 58.2916 44.0851 58.4217L44.4777 58.4633C45.0291 58.5262 45.5817 58.6777 45.9038 58.9742C46.3838 59.4638 46.4083 59.9108 46.4083 60.5092V66.6724C46.4083 67.6932 46.4297 70.2958 46.1065 71.0617C45.9913 71.2964 45.6275 71.4265 45.0963 71.4884L44.4777 71.5513C44.3422 71.6814 44.3614 71.979 44.5235 72.0889C45.3257 72.0473 45.9465 72.0196 46.915 72.0196C47.7641 72.0196 48.5662 72.0473 49.6019 72.0889C49.7641 71.979 49.7833 71.723 49.6478 71.5513L48.9353 71.4884C48.3625 71.4468 47.8985 71.3166 47.763 71.082C47.3715 70.4473 47.3459 67.6718 47.3459 66.6724V62.0196C47.3459 61.3849 47.3726 60.89 47.4665 60.634H47.5081C47.9923 61.1033 49.555 62.8548 50.1747 63.5161L55.5027 69.1449C57.5017 71.2548 58.1747 71.9993 58.4457 72.3641C58.7017 72.3641 58.8371 72.2606 58.883 72.1305C58.8158 71.5726 58.8147 69.0361 58.8147 68.4014V63.3006C58.8147 62.3214 58.7678 59.6772 59.1582 58.9113C59.2521 58.7396 59.7118 58.5678 60.4457 58.4633L60.7689 58.4217C60.9043 58.2916 60.9033 57.994 60.7209 57.8841C59.9401 57.931 59.3406 57.947 58.3561 57.947C57.4814 57.947 56.7017 57.931 55.6435 57.8841C55.4622 57.947 55.4345 58.2916 55.5955 58.4217L55.9881 58.4633C56.9097 58.5678 57.2745 58.698 57.4142 58.891C57.8526 59.5257 57.8729 62.3012 57.8729 63.3006V67.8638C57.8729 68.3118 57.8718 68.6553 57.7833 68.7598H57.7374C56.6537 67.739 55.5294 66.5422 53.9465 64.9006L51.7171 62.5785C50.9566 61.787 48.2473 58.9732 47.7833 57.8841C47.4867 57.931 47.0974 57.947 46.7273 57.947C46.3155 57.947 45.0974 57.947 44.1331 57.8841ZM62.5086 57.8841C62.3731 57.9524 62.3262 58.3332 62.467 58.4217L63.0398 58.4633C64.3934 58.5678 64.4393 58.9326 64.4393 61.1929V68.7801C64.4393 71.0404 64.3934 71.338 63.0398 71.4884L62.467 71.5513C62.3262 71.6814 62.3731 72.0206 62.5086 72.0889C63.6595 72.0473 64.4393 72.0196 65.4089 72.0196C66.3251 72.0196 67.107 72.0473 68.2579 72.0889C68.3934 72.0206 68.4361 71.6398 68.3006 71.5513L67.7267 71.4884C66.3731 71.338 66.3251 71.0404 66.3251 68.7801V61.1929C66.3251 58.9326 66.3731 58.5678 67.7267 58.4633L68.3006 58.4217C68.4361 58.3332 68.3934 57.9524 68.2579 57.8841C67.107 57.931 66.3251 57.9534 65.4089 57.9534C64.4393 57.9534 63.6595 57.931 62.5086 57.8841ZM125.258 57.8841C125.13 57.9524 125.077 58.3332 125.216 58.4217L125.792 58.4633C127.146 58.5678 127.2 58.9326 127.2 61.1929V68.7801C127.2 71.0404 127.146 71.338 125.792 71.4884L125.216 71.5513C125.077 71.6814 125.13 72.0206 125.258 72.0889C126.41 72.0473 127.2 72.0196 128.16 72.0196C129.077 72.0196 129.866 72.0473 131.008 72.0889C131.146 72.0206 131.189 71.6398 131.05 71.5513L130.485 71.4884C129.13 71.338 129.077 71.0404 129.077 68.7801V61.1929C129.077 58.9326 129.13 58.5678 130.485 58.4633L131.05 58.4217C131.189 58.3332 131.146 57.9524 131.008 57.8841C129.866 57.931 129.077 57.9534 128.16 57.9534C127.2 57.9534 126.41 57.931 125.258 57.8841ZM69.331 57.8862C69.1497 57.9961 69.1283 58.2916 69.2894 58.4217L69.7001 58.4633C70.6899 58.5678 71.0345 59.0169 71.5603 60.2094L75.6062 69.4638C75.9966 70.3598 76.4147 71.4052 76.6643 72.3012C76.7795 72.3428 76.8937 72.3641 77.0089 72.3641C77.0974 72.3641 77.1902 72.3428 77.2627 72.3012C77.6531 71.1705 78.7315 68.698 79.6478 66.7342L80.8873 64.1156C81.9241 61.9385 82.8211 60.2094 83.4665 59.21C83.7641 58.762 84.1065 58.5049 84.659 58.4633L85.3459 58.4217C85.4611 58.3129 85.4601 57.9748 85.3043 57.8862C84.5438 57.9278 83.8302 57.9534 83.075 57.9534C82.2003 57.9534 81.3257 57.9278 80.6857 57.8862C80.5246 57.9748 80.4766 58.2916 80.6377 58.4217L81.0547 58.4633C81.8569 58.5465 82.0851 58.7204 82.0851 58.8654C82.0851 59.0169 82.0595 59.2516 81.8771 59.6996C81.4867 60.6158 80.4083 63.0265 79.7417 64.474C79.2105 65.6046 78.2473 67.8009 77.5337 69.2078C76.3881 66.7801 75.3299 64.3236 74.2729 61.8553C73.5593 60.2361 73.1699 59.0841 73.123 58.8654C73.1486 58.699 73.331 58.5678 74.2067 58.4633L74.5502 58.4217C74.7113 58.2916 74.6633 57.9748 74.5022 57.8862C73.539 57.9278 72.7315 57.9534 71.7214 57.9534C70.7315 57.9534 69.9977 57.9278 69.331 57.8862ZM86.0083 57.8862C85.8729 57.9492 85.8259 58.3332 85.9667 58.4217L86.3315 58.4633C87.6851 58.6094 87.731 58.9326 87.731 61.1513V68.8238C87.731 71.0638 87.6179 71.387 86.3102 71.4905L85.5497 71.5534C85.4153 71.6836 85.4601 72.026 85.5955 72.0889C86.9502 72.0473 87.731 72.026 88.7209 72.026H90.7902C92.8318 72.026 94.8787 72.0473 96.9459 72.0889C97.2478 71.5108 97.8195 69.8713 97.9817 69.1257C97.8878 68.9337 97.5657 68.8697 97.4046 68.9742C96.8105 70.0836 96.1897 70.8292 95.7726 71.0425C95.2681 71.2772 94.6025 71.3657 92.8318 71.3657C90.8105 71.3657 90.3305 71.13 90.0542 70.8697C89.6841 70.5102 89.6169 69.7828 89.6169 68.6574V65.6516C89.6169 65.0937 89.6841 65.0745 90.3774 65.0745H91.7107C92.6067 65.0745 93.1539 65.0948 93.4771 65.178C93.9411 65.2825 94.0958 65.6057 94.1897 65.9908L94.3977 66.8174C94.5075 66.9476 94.9033 66.9486 94.9918 66.8036C94.9918 66.3289 94.9043 65.5225 94.9043 64.7513C94.9043 63.9438 94.9918 63.1097 94.9918 62.5988C94.9033 62.4484 94.5075 62.4484 94.3977 62.5785L94.211 63.4532C94.0958 63.9844 93.9411 64.1156 93.6649 64.1988C93.3886 64.282 92.6739 64.3236 91.7107 64.3236H90.3774C89.6841 64.3236 89.6169 64.3236 89.6169 63.7305V59.4638C89.6169 58.6564 89.6169 58.6094 90.3038 58.6094H91.9603C92.9705 58.6094 93.7054 58.6318 94.1897 58.7406C95.3822 59.0169 95.5923 59.7657 95.9358 60.7662C96.0499 60.891 96.4201 60.8548 96.5086 60.7236C96.4201 59.787 96.2793 58.251 96.1438 57.8862C95.8675 57.9492 94.5075 57.9492 93.0441 57.9492H88.7209C87.7779 57.9492 86.9982 57.9332 86.0083 57.8862ZM104.552 57.8862C102.302 57.8862 100.713 57.9481 99.427 58.0569C99.2446 58.1412 99.2446 58.4846 99.4067 58.5892L100.14 58.6788C101.082 58.7822 101.15 59.147 101.15 61.1673V68.8238C101.15 71.0638 101.104 71.3401 99.7705 71.4905L99.1977 71.5534C99.0622 71.7038 99.1027 72.0206 99.2435 72.0889C100.327 72.0473 101.151 72.0217 102.115 72.0217C103.037 72.0217 103.817 72.0473 104.854 72.0889C104.99 72.0206 105.037 71.6622 104.896 71.5534L104.417 71.4905C103.084 71.3188 103.036 71.0638 103.036 68.8238V66.1369C103.036 65.6942 103.082 65.6676 104.119 65.6676C105.036 65.6676 105.401 65.8852 105.75 66.3492C106.458 67.3124 107.401 68.7822 108 69.5737C109.631 71.7252 110.801 72.2617 112.754 72.2617C113.191 72.2617 113.556 72.2137 113.765 72.1507C113.879 72.0676 113.858 71.8969 113.744 71.8553C113.124 71.8137 112.552 71.5726 112.157 71.2558C110.594 70.042 109.375 68.3342 107.542 65.5844C107.427 65.418 107.308 65.2046 107.427 65.0745C108.573 64.6468 110.296 63.5374 110.296 61.5118C110.296 60.0164 109.494 59.0574 108.39 58.5262C107.332 57.995 105.974 57.8862 104.552 57.8862ZM147.434 57.8905C147.274 57.979 147.253 58.2777 147.392 58.4281L148.032 58.5326C148.725 58.6361 149.077 58.7449 149.845 60.1508L152.565 65.0574C153.226 66.25 153.301 66.5273 153.301 67.6996V68.7865C153.301 71.0681 153.248 71.37 151.914 71.4948L151.21 71.5577C151.072 71.6878 151.114 72.027 151.253 72.0953C152.469 72.0484 153.301 72.026 154.261 72.026C155.178 72.026 155.968 72.0484 157.386 72.0953C157.525 72.027 157.568 71.6878 157.429 71.5577L156.554 71.4948C155.317 71.4116 155.178 71.0681 155.178 68.7865V67.6782C155.178 66.0377 155.253 65.8436 156.256 64.2244L157.706 61.9012C158.858 60.0676 159.541 58.7246 160.746 58.5326L161.386 58.4281C161.546 58.298 161.525 58.0004 161.333 57.8905C160.565 57.9321 159.914 57.9598 159.2 57.9598C158.496 57.9598 157.824 57.9321 156.992 57.8905C156.81 57.979 156.789 58.2777 156.949 58.4281L157.365 58.4697C157.92 58.5326 158.325 58.682 158.325 58.8078C158.325 59.0628 157.482 60.5166 156.842 61.626C156.149 62.8601 155.392 64.0953 154.677 65.2302C153.781 63.7561 152.928 62.0729 152.074 60.4953C151.968 60.2809 151.37 59.0638 151.37 58.8558C151.37 58.683 151.53 58.5742 152.33 58.4697L152.64 58.4281C152.768 58.298 152.768 57.9588 152.565 57.8905C151.989 57.9321 151.157 57.9598 150.101 57.9598C149.002 57.9598 148.17 57.9321 147.434 57.8905ZM104.531 58.5465C107.084 58.5465 108.202 60.1465 108.202 61.8286C108.202 63.2814 107.677 64.026 107.057 64.474C106.39 64.9433 105.516 65.0329 104.688 65.0329C103.521 65.0329 103.172 64.9849 103.104 64.922C103.037 64.8388 103.036 64.6052 103.036 64.2201V59.2302C103.036 58.6318 103.105 58.5465 104.531 58.5465Z" fill="#545454"/>
</g>
<defs>
<clipPath id="clip0_18659_45267">
<rect width="168.693" height="36.08" fill="white" transform="translate(11.6543 36.8784)"/>
</clipPath>
</defs>
</svg>
