<svg width="192" height="108" viewBox="0 0 192 108" fill="none" xmlns="http://www.w3.org/2000/svg">
<g clip-path="url(#clip0_2083_12104)">
<path d="M96 12C72.8068 12 54 30.8068 54 54C54 77.1932 72.8068 96 96 96C119.193 96 138 77.1987 138 54C138 30.8013 119.199 12 96 12ZM125.221 83.2266C117.742 90.7058 107.409 95.3314 96 95.3314C84.5909 95.3314 74.2581 90.7058 66.7788 83.2266C59.2996 75.7474 54.674 65.4145 54.674 54C54.674 42.5855 59.2996 32.2526 66.7788 24.7788C74.2581 17.2996 84.5909 12.674 96 12.674C107.409 12.674 117.742 17.2996 125.221 24.7788C132.7 32.2581 137.326 42.5909 137.326 54C137.326 65.4091 132.7 75.7419 125.221 83.2212V83.2266Z" fill="#545454"/>
<path d="M96.0053 84.7377C112.98 84.7377 126.743 70.975 126.743 54C126.743 37.025 112.98 23.2623 96.0053 23.2623C79.0302 23.2623 65.2676 37.025 65.2676 54C65.2676 70.975 79.0302 84.7377 96.0053 84.7377ZM75.4646 31.97L75.1928 31.8232L75.5298 31.9102C76.3505 31.1492 77.2148 30.4317 78.1171 29.7686L78.0518 29.7306L78.3834 29.5294L78.4215 29.5458C79.2476 28.9478 80.1065 28.3934 80.9924 27.8825L80.9598 27.8553L81.449 27.5944L81.4708 27.6107C82.1611 27.2302 82.8677 26.8769 83.5852 26.5508H83.5797L84.1559 26.2845L84.1668 26.2953C84.7592 26.0453 85.3571 25.8116 85.9659 25.5942L85.9496 25.567L86.6073 25.3278L86.6399 25.3659C87.1998 25.1811 87.7705 25.0126 88.3467 24.8604V24.8441C88.3467 24.8441 88.7598 24.6973 89.0859 24.6321C89.0859 24.6321 89.0967 24.6484 89.1076 24.6701C89.6403 24.5451 90.1784 24.4364 90.7165 24.3386L90.7057 24.3059L91.4612 24.1646L91.4775 24.2135C91.9884 24.1374 92.5102 24.0722 93.032 24.0233L93.0212 23.9363L93.8311 23.9255V23.9526C94.3583 23.9146 94.8801 23.8928 95.4019 23.882V23.8439L95.8096 23.8222H95.815H95.8204L96.2281 23.8439V23.8765C96.7554 23.8765 97.2826 23.8983 97.799 23.9309L97.8153 23.8657L98.636 23.9635V23.9907C99.147 24.0342 99.6525 24.094 100.158 24.1646L100.18 24.1048L100.946 24.2353L100.93 24.2842C101.484 24.3766 102.028 24.4799 102.571 24.5995C102.593 24.5668 102.604 24.5451 102.604 24.5451C102.93 24.6103 103.343 24.7571 103.343 24.7571L103.332 24.7788C103.919 24.9256 104.495 25.0887 105.066 25.268L105.115 25.2082L105.751 25.4474L105.729 25.4854C106.354 25.6974 106.974 25.9312 107.577 26.1866L107.626 26.1431L108.197 26.3986L108.164 26.4367C108.893 26.7573 109.605 27.1107 110.306 27.4857L110.426 27.4042L110.85 27.7031L110.79 27.7575C111.703 28.2738 112.589 28.8391 113.442 29.4425L113.589 29.3773L113.79 29.649L113.752 29.6708C114.671 30.3393 115.546 31.0623 116.383 31.8341L116.448 31.8178L116.394 31.8504C122.362 37.3565 126.102 45.238 126.102 54C126.102 70.6326 112.616 84.118 95.9835 84.118C79.3509 84.118 65.8655 70.6326 65.8655 54C65.8655 45.3032 69.5507 37.4707 75.4482 31.97H75.4646Z" fill="#545454"/>
<path d="M96.2447 23.882V23.8494L95.837 23.8276H95.8316H95.8261L95.4185 23.8494V23.8874C95.6141 23.8874 95.8044 23.882 96.0001 23.882C96.0816 23.882 96.1631 23.882 96.2392 23.882H96.2447Z" fill="#545454"/>
<path d="M105.773 25.4583L105.137 25.2191L105.088 25.2789C105.311 25.3496 105.534 25.4202 105.752 25.4963L105.773 25.4583Z" fill="#545454"/>
<path d="M86.6128 25.3278L85.9551 25.567L85.9714 25.5942C86.1942 25.5181 86.4171 25.442 86.6399 25.3659L86.6073 25.3278H86.6128Z" fill="#545454"/>
<path d="M81.4496 27.5998L80.9604 27.8607L80.9931 27.8879C81.1507 27.7955 81.3138 27.7086 81.4768 27.6162L81.4551 27.5998H81.4496Z" fill="#545454"/>
<path d="M89.0913 24.6375C88.7652 24.7027 88.3467 24.8495 88.3467 24.8495V24.8658C88.6076 24.8006 88.8631 24.7353 89.1185 24.6756C89.1076 24.6538 89.0968 24.6375 89.0968 24.6375H89.0913Z" fill="#545454"/>
<path d="M78.3833 29.5294L78.0518 29.7306L78.117 29.7686C78.2148 29.6925 78.3181 29.6219 78.4214 29.5512L78.3833 29.5349V29.5294Z" fill="#545454"/>
<path d="M91.4723 24.1701L90.7168 24.3114L90.7277 24.344C90.9831 24.3005 91.2386 24.257 91.4941 24.219L91.4778 24.1701H91.4723Z" fill="#545454"/>
<path d="M75.1929 31.8232L75.4646 31.97C75.4646 31.97 75.5081 31.9265 75.5299 31.9102L75.1929 31.8232Z" fill="#545454"/>
<path d="M84.1616 26.2845L83.5854 26.5454H83.5909C83.7866 26.4638 83.9768 26.3823 84.1725 26.2953L84.1616 26.2845Z" fill="#545454"/>
<path d="M108.213 26.4095L107.643 26.154L107.594 26.1975C107.789 26.279 107.98 26.3606 108.175 26.4475L108.208 26.4095H108.213Z" fill="#545454"/>
<path d="M98.652 23.9689L97.8312 23.8711L97.8149 23.9363C98.0922 23.9526 98.3748 23.9744 98.652 23.9961V23.9689Z" fill="#545454"/>
<path d="M110.866 27.714L110.442 27.415L110.323 27.4966C110.486 27.5835 110.649 27.6759 110.807 27.7683L110.866 27.714Z" fill="#545454"/>
<path d="M116.465 31.8233L116.399 31.8398L116.41 31.8508L116.465 31.8178V31.8233Z" fill="#545454"/>
<path d="M103.365 24.7625C103.365 24.7625 102.952 24.6158 102.626 24.5505C102.626 24.5505 102.615 24.5723 102.593 24.6049C102.849 24.6592 103.104 24.719 103.354 24.7843L103.365 24.7625Z" fill="#545454"/>
<path d="M100.962 24.2407L100.196 24.1103L100.174 24.17C100.435 24.2081 100.691 24.2461 100.952 24.2896L100.968 24.2407H100.962Z" fill="#545454"/>
<path d="M113.807 29.6599L113.606 29.3881L113.459 29.4533C113.562 29.5294 113.666 29.6055 113.769 29.6816L113.807 29.6599Z" fill="#545454"/>
<path d="M93.8421 23.9309L93.0322 23.9418L93.0431 24.0287C93.3094 24.0016 93.5812 23.9798 93.8475 23.9635V23.9363L93.8421 23.9309Z" fill="#545454"/>
<path d="M77.3184 35.3074C77.5466 35.4759 77.7912 35.6552 78.0521 35.8455L81.9548 36.6608C82.4929 36.3945 83.0202 36.139 83.4876 35.9053L77.3184 35.3019V35.3074Z" fill="#545454"/>
<path d="M115.1 39.9275C115.1 39.9275 109.115 36.1227 107.708 35.1987L106.827 35.5302C109.186 36.9761 112.611 38.9274 115.1 39.9275Z" fill="#545454"/>
<path d="M90.9722 30.7633L86.6402 25.3659C86.4173 25.442 86.1944 25.5126 85.9716 25.5941L89.8254 31.4808L84.1724 26.2899C83.9768 26.3714 83.7811 26.4584 83.5909 26.5454L88.7709 32.3885L81.471 27.6107C81.3079 27.6977 81.1503 27.7901 80.9873 27.8825L87.8088 33.6332L78.4108 29.5457C78.3076 29.6164 78.2097 29.6925 78.1064 29.7632L86.8087 34.7312C87.6457 34.2583 88.4121 33.7854 89.059 33.3288C89.059 33.3288 96.7502 38.4328 101.147 39.085C101.147 39.085 100.435 37.8566 99.5929 37.5957C98.7559 37.3348 92.8149 35.5139 92.043 33.7039C92.043 33.7039 95.2663 32.7472 99.0766 29.9643C99.0766 29.9643 99.1581 30.0295 99.3048 30.1545L100.941 24.2842C100.685 24.2407 100.425 24.2027 100.164 24.1646L97.9514 29.8991L98.6363 23.9907C98.3591 23.9689 98.0819 23.9472 97.7992 23.9309L96.4621 29.8501L96.2284 23.8765C96.1468 23.8765 96.0653 23.8765 95.9892 23.8765C95.7935 23.8765 95.5978 23.8765 95.4022 23.882L95.1684 29.8501L93.8367 23.9526C93.565 23.9744 93.2986 23.9961 93.0323 24.0179L93.69 29.8936L91.4832 24.2081C91.2277 24.2461 90.9722 24.2896 90.7168 24.3331L92.3963 30.3719C92.3963 30.3719 89.3851 25.1376 89.1024 24.6647C88.847 24.7245 88.5915 24.7897 88.3415 24.8549" fill="#545454"/>
<path d="M73.8989 34.9704L74.1163 35.0138C74.1163 35.0138 74.1435 35.003 74.1598 34.9921L73.9044 34.9649L73.8989 34.9704Z" fill="#545454"/>
<path d="M84.5094 35.4052C84.8682 35.2313 85.0856 35.1226 85.0856 35.1226C85.0856 35.1226 86.1292 34.6986 85.1345 35.6389C85.6726 35.3617 86.1944 35.0845 86.6945 34.8073L75.5354 31.9102C75.5354 31.9102 75.492 31.9537 75.4702 31.97L75.6822 32.0841L84.5149 35.3998L84.5094 35.4052Z" fill="#545454"/>
<path d="M83.493 35.9053L84.4225 35.9977C83.8627 36.2749 83.2919 36.5521 82.7158 36.8184L81.9602 36.6608C80.3839 37.4326 78.737 38.2371 78.3946 38.3839L74.106 40.4439C75.3507 40.0525 82.4712 37.0902 85.1346 35.6389L84.5149 35.4052C84.2431 35.5411 83.8953 35.7096 83.4985 35.9053H83.493Z" fill="#545454"/>
<path d="M84.4227 35.9977L83.4933 35.9053C83.0258 36.1336 82.4986 36.3945 81.9604 36.6608L82.716 36.8184C83.2921 36.5521 83.8629 36.2749 84.4227 35.9977Z" fill="#545454"/>
<path d="M85.0854 35.1226C85.0854 35.1226 84.868 35.2313 84.5093 35.4052L85.1289 35.6389C86.1236 34.6986 85.08 35.1226 85.08 35.1226H85.0854Z" fill="#545454"/>
<path d="M105.24 34.5138L113.769 29.6816C113.665 29.6055 113.562 29.5294 113.459 29.4533L103.914 33.6061C104.338 33.8996 104.778 34.204 105.24 34.5138Z" fill="#545454"/>
<path d="M103.893 33.5952L110.807 27.7683C110.644 27.6759 110.486 27.589 110.323 27.4966L102.887 32.3885L108.181 26.4475C107.991 26.3606 107.795 26.279 107.6 26.1975L101.833 31.4808L105.746 25.4909C105.529 25.4148 105.306 25.3441 105.083 25.2735L100.68 30.7633L103.344 24.7843C103.094 24.719 102.838 24.6593 102.583 24.6049C102.278 25.1213 99.8867 29.274 99.354 30.198C99.9791 30.7035 101.642 32.0243 103.887 33.5952H103.893Z" fill="#545454"/>
<path d="M106.806 35.5357L106.827 35.5248C106.713 35.4541 106.599 35.3835 106.49 35.3182L107.599 35.1226C107.632 35.1443 107.67 35.1715 107.708 35.1932L115.981 32.0841L116.41 31.8504L116.399 31.8395L105.485 34.6714C105.914 34.9541 106.355 35.2421 106.811 35.5302L106.806 35.5357Z" fill="#545454"/>
<path d="M106.491 35.3182C106.599 35.3835 106.714 35.4541 106.828 35.5248L107.708 35.1932C107.67 35.166 107.632 35.1443 107.6 35.1226L106.491 35.3182Z" fill="#545454"/>
<path d="M99.2559 30.3828C99.2559 30.3828 99.2939 30.3122 99.3646 30.198C99.3483 30.1871 99.332 30.1708 99.3211 30.16L99.2613 30.3828H99.2559Z" fill="#545454"/>
<path d="M103.844 33.6337L103.915 33.6062C103.915 33.6062 103.904 33.5952 103.899 33.5952L103.849 33.6392L103.844 33.6337Z" fill="#545454"/>
<path d="M76.0078 35.1769L74.1543 34.9975C74.1543 34.9975 74.1271 35.0084 74.1108 35.0193L78.0516 35.8455C77.7852 35.6607 77.5406 35.4759 77.3178 35.3074L76.0078 35.1769Z" fill="#545454"/>
<path d="M93.4838 20.7294C93.8154 20.7294 94.0871 20.7294 94.3481 20.7403C94.4133 20.7077 94.4187 20.5609 94.3589 20.5011L94.1252 20.4631C93.8208 20.4196 93.7882 20.4033 93.9458 19.9195L94.2611 18.9357C94.3317 18.7128 94.3209 18.7128 94.5329 18.7128L95.6145 18.6965C95.8428 18.6965 95.8754 18.6965 95.9515 18.9085L96.3537 20.0065C96.4788 20.3435 96.4407 20.3978 96.1526 20.4413L95.9733 20.4685C95.9243 20.5174 95.9352 20.6642 96.0004 20.7022C96.2831 20.6913 96.6418 20.6696 96.9951 20.6587C97.4191 20.6533 97.7181 20.6587 98.0551 20.6642C98.1094 20.6207 98.1094 20.4848 98.0442 20.4304L97.9192 20.4087C97.5006 20.3326 97.4626 20.2837 97.2669 19.7456L96.0385 16.3593C95.9026 15.9951 95.7885 15.6146 95.6526 15.2504C95.62 15.2124 95.5765 15.1852 95.5112 15.1906C95.5112 15.1906 95.234 15.5276 94.946 15.5929C94.9731 15.7287 94.897 15.9299 94.8046 16.1908L93.7393 19.1042C93.5762 19.5445 93.4512 19.8923 93.3588 20.1043C93.2392 20.3761 93.1522 20.4413 92.9185 20.4848L92.6739 20.5283C92.6196 20.6044 92.6304 20.724 92.6848 20.762C92.9674 20.7403 93.2229 20.7294 93.4892 20.724L93.4838 20.7294ZM94.522 18.1149L94.8481 17.1583C94.9786 16.7724 95.0492 16.5712 95.0818 16.5115H95.0981C95.1416 16.5658 95.1851 16.7234 95.3373 17.1474L95.696 18.1149C95.7667 18.3106 95.7341 18.3269 95.5058 18.3323L94.6579 18.3487C94.4622 18.3487 94.4459 18.3487 94.522 18.1149Z" fill="#545454"/>
<path d="M84.2917 20.213L84.683 20.2891C85.3679 20.4196 85.6995 20.7022 85.8462 21.1425C86.0039 21.6099 85.7919 22.0774 85.2048 22.2731C84.4493 22.5285 83.7536 21.8437 83.4818 21.4958C83.4003 21.4632 83.2752 21.5121 83.2535 21.6099C83.4057 22.0883 83.6829 22.5883 83.8786 22.7025C84.0634 22.746 84.5417 22.8384 85.2538 22.5992C86.3735 22.2242 86.83 21.3762 86.5365 20.4957C86.2756 19.7184 85.5581 19.4249 84.9711 19.3325L84.4058 19.2401C83.8079 19.1422 83.4655 18.8705 83.3568 18.5443C83.2209 18.1367 83.3405 17.6475 83.9547 17.4409C84.6124 17.2181 85.0526 17.6475 85.3027 18.0062C85.3896 18.0388 85.5255 17.9845 85.5418 17.9029C85.4223 17.5388 85.1722 17.055 85.0309 16.9137C84.645 16.968 84.3243 16.9735 83.9221 17.1094C82.7969 17.4898 82.4436 18.3269 82.6991 19.0879C82.9328 19.7836 83.6014 20.0826 84.2862 20.2076L84.2917 20.213Z" fill="#545454"/>
<path d="M98.6797 16.4136C99.0656 15.7994 99.2939 15.7396 100.039 15.8429L100.49 15.9027C100.696 15.9299 100.707 15.9462 100.658 16.2886L100.191 19.7727C100.077 20.6261 100.001 20.6261 99.6146 20.6207H99.2722C99.2124 20.6479 99.1961 20.8109 99.2559 20.8544C99.7723 20.9088 100.153 20.9522 100.506 20.9957C100.859 21.0446 101.224 21.099 101.686 21.1805C101.756 21.1588 101.783 21.012 101.734 20.9468L101.446 20.8761C101.071 20.7837 101.006 20.7511 101.12 19.8978L101.588 16.4136C101.631 16.0766 101.642 16.0603 101.854 16.0875L102.316 16.1473C103.18 16.2614 103.311 16.4354 103.332 17.0822C103.398 17.1474 103.539 17.1528 103.588 17.0931C103.599 16.8321 103.756 16.1473 103.881 15.8266C103.871 15.7994 103.833 15.7777 103.784 15.7722C103.751 15.7722 103.718 15.7777 103.68 15.794C103.561 15.9679 103.436 15.9733 103.039 15.9244L99.7505 15.4841C99.2015 15.4135 99.0928 15.3863 99.0765 15.1798C99.0656 15.1526 99.033 15.1417 99.0004 15.1363C98.9787 15.1363 98.9624 15.1363 98.9461 15.1363C98.9461 15.1363 98.9189 15.1471 98.908 15.158C98.8156 15.4352 98.6254 15.9136 98.4297 16.3321C98.4514 16.4191 98.6199 16.4625 98.6797 16.4245V16.4136Z" fill="#545454"/>
<path d="M87.3792 17.3105C87.5694 16.6093 87.7706 16.4843 88.5098 16.3593L88.9555 16.2832C89.162 16.2505 89.1729 16.2614 89.2327 16.5984L89.8143 20.0663C89.9556 20.9196 89.885 20.9359 89.5153 21.0501L89.1838 21.1479C89.1349 21.1968 89.1675 21.3545 89.2381 21.3762C89.7491 21.2729 90.1241 21.2023 90.4774 21.1425C90.8307 21.0827 91.1949 21.0283 91.6624 20.9686C91.7222 20.9251 91.7058 20.7783 91.6406 20.7348L91.3471 20.7511C90.9666 20.7729 90.8905 20.762 90.7438 19.9141L90.1622 16.4462C90.1078 16.1092 90.1132 16.0929 90.3198 16.0549L90.7764 15.9788C91.6352 15.8375 91.8146 15.9625 92.0211 16.5712C92.1026 16.6147 92.2385 16.5712 92.2657 16.506C92.2005 16.256 92.1461 15.5548 92.1733 15.2124C92.1516 15.1906 92.1081 15.1798 92.0591 15.1906C92.0265 15.1961 91.9994 15.2178 91.9667 15.2395C91.9015 15.4407 91.7874 15.4841 91.3906 15.5494L88.1184 16.0984C87.5749 16.1908 87.4607 16.2016 87.3846 16.006C87.3629 15.9842 87.3303 15.9842 87.2977 15.9896C87.2596 15.9951 87.227 16.0114 87.2161 16.0386C87.2053 16.3266 87.1726 16.8485 87.1074 17.305C87.1509 17.3811 87.3248 17.3757 87.3738 17.3159L87.3792 17.3105Z" fill="#545454"/>
<path d="M103.832 21.5719C104.186 21.6643 104.664 21.8056 105.007 21.9089L105.893 22.1861C106.8 22.4687 107.469 22.6807 107.806 22.8057C107.98 22.6318 108.333 22.0937 108.48 21.7784C108.458 21.686 108.333 21.6208 108.246 21.6534C107.779 22.197 107.539 22.3655 106.556 22.0502C105.903 21.8382 105.789 21.7458 105.729 21.6045C105.653 21.436 105.729 21.1534 105.849 20.7566L106.153 19.7673C106.213 19.5716 106.224 19.5608 106.403 19.6151L106.779 19.7293C107.453 19.9358 107.583 19.9956 107.534 20.338L107.491 20.6642C107.539 20.7294 107.686 20.7729 107.741 20.7348C107.811 20.4848 107.876 20.2076 107.969 19.9141C108.056 19.626 108.159 19.3488 108.23 19.1422C108.213 19.0661 108.061 19.0226 107.985 19.0553L107.849 19.3053C107.675 19.6151 107.556 19.5879 106.882 19.3814L106.507 19.2672C106.327 19.2129 106.322 19.202 106.387 19.0009L106.795 17.6855C106.931 17.2398 106.936 17.2289 107.268 17.3322L107.79 17.4953C108.001 17.5605 108.224 17.6583 108.387 17.7562C108.616 17.9029 108.675 18.1258 108.659 18.615C108.708 18.6802 108.866 18.7128 108.92 18.6585C108.974 18.3106 109.121 17.6801 109.132 17.5388C109.023 17.5225 108.572 17.392 108.078 17.2398L106.594 16.7778C106.251 16.6745 105.887 16.5495 105.599 16.4462C105.528 16.4571 105.474 16.593 105.512 16.6691L105.632 16.7234C105.985 16.8811 106.045 16.9354 105.789 17.7616L104.892 20.6533C104.637 21.4795 104.561 21.4795 104.18 21.4034L103.881 21.3436C103.811 21.3816 103.773 21.523 103.827 21.5719H103.832Z" fill="#545454"/>
<path d="M118.345 26.5182C117.91 26.9911 117.427 27.5129 117.182 27.6216C117.052 27.6814 116.927 27.5998 116.791 27.5183L116.639 27.4259C116.552 27.4259 116.47 27.5346 116.492 27.6107C116.709 27.7901 116.878 27.9368 117.128 28.1651C117.356 28.3771 117.584 28.5945 117.791 28.812C117.867 28.85 117.976 28.7413 117.965 28.6489L117.851 28.5076C117.72 28.3499 117.655 28.2141 117.682 28.0782C117.747 27.8064 118.247 27.252 118.661 26.8008L119.737 25.6322C120.03 25.3169 120.09 25.2517 120.106 25.268C120.123 25.4528 120.117 25.8551 120.09 26.6486L120.014 29.5349C119.992 30.4209 119.976 30.785 119.96 30.997C120.025 31.0677 120.134 31.122 120.242 31.1003C120.351 30.9481 121.03 30.2089 121.194 30.0295L122.514 28.6C122.949 28.1271 123.433 27.6053 123.688 27.502C123.819 27.4477 123.938 27.5183 124.074 27.5998L124.237 27.6977C124.324 27.6977 124.406 27.589 124.384 27.5129C124.156 27.3281 123.998 27.1867 123.743 26.953C123.509 26.7356 123.292 26.5291 123.069 26.3008C122.993 26.2627 122.884 26.3714 122.895 26.4638L123.014 26.6106C123.145 26.7682 123.205 26.8932 123.177 27.0346C123.118 27.3118 122.618 27.8662 122.205 28.3173L121.128 29.4805C121.041 29.5784 121.014 29.6055 120.976 29.6055C120.949 29.5131 120.976 28.3663 120.982 27.8607V26.6649C120.982 26.2464 121.025 24.893 121.161 24.5397C121.003 24.4201 120.857 24.2951 120.732 24.1755C120.585 24.0396 120.248 23.7407 120.041 23.5069C120.019 23.4961 120.003 23.4961 119.981 23.5069H119.976C119.911 23.5287 119.846 23.6048 119.856 23.6591L119.927 23.7624C119.992 23.8602 120.117 24.0613 120.134 24.1755C120.177 24.5342 120.085 24.6266 119.65 25.0941L118.34 26.5127L118.345 26.5182Z" fill="#545454"/>
<path d="M76.4155 25.0289C76.497 25.4909 76.5677 25.8551 76.5949 26.0833C76.6275 26.3769 76.5894 26.4801 76.4101 26.6378L76.2253 26.8008C76.2144 26.8932 76.285 26.9911 76.3557 26.9965C76.5894 26.8334 76.8014 26.6976 77.0297 26.5562C77.3178 26.3877 77.5461 26.2518 77.7798 26.1268C77.8179 26.067 77.7472 25.9366 77.6711 25.9148L77.4482 26.0018C77.1656 26.116 77.1275 26.1214 77.0188 25.6268L76.796 24.6212C76.7416 24.3983 76.7362 24.3983 76.9156 24.2896L77.8396 23.7243C78.0353 23.6048 78.0624 23.5885 78.2418 23.7407L79.1441 24.4853C79.4268 24.7136 79.4159 24.7788 79.1876 24.9636L79.0463 25.0778C79.03 25.143 79.1115 25.2626 79.1876 25.268C79.4268 25.1104 79.7257 24.9147 80.0247 24.7299C80.3834 24.5125 80.6497 24.3603 80.9378 24.2027C80.965 24.1374 80.8943 24.0179 80.8074 24.007L80.6878 24.0505C80.291 24.1972 80.2312 24.1755 79.7855 23.8113L77.008 21.5121C76.7036 21.2675 76.4155 20.9957 76.1165 20.7511C76.0894 20.7403 76.0676 20.7403 76.0404 20.7403C76.0404 20.7403 75.9915 20.7511 75.9589 20.7674C75.948 20.7783 75.8883 21.2023 75.6763 21.398C75.7687 21.5012 75.8013 21.7132 75.8556 21.985L76.4101 25.0397L76.4155 25.0289ZM76.2796 22.1046C76.3448 22.1317 76.459 22.2405 76.8068 22.534L77.6059 23.1917C77.7635 23.3221 77.7472 23.3547 77.5515 23.4743L76.8286 23.9146C76.6601 24.0179 76.6492 24.0233 76.5949 23.7787L76.3883 22.7894C76.3068 22.3927 76.2633 22.1807 76.2633 22.1154L76.2796 22.1046Z" fill="#545454"/>
<path d="M113.345 25.7083C113.823 26.0018 114.426 26.1866 115.024 26.0181C115.622 25.8496 116.073 25.3278 116.459 24.6919L116.965 23.8657C117.302 23.3167 117.671 22.7079 117.894 22.5557C118.014 22.4742 118.155 22.5231 118.302 22.5775L118.476 22.6372C118.563 22.6209 118.617 22.5014 118.579 22.4361C118.313 22.2948 118.123 22.1861 117.829 22.0067C117.557 21.8437 117.296 21.6752 117.068 21.5175C116.986 21.4958 116.905 21.6154 116.938 21.7023L117.063 21.8056C117.22 21.9415 117.302 22.0557 117.302 22.197C117.302 22.4742 116.916 23.1264 116.601 23.6482L116.073 24.5179C115.427 25.5724 114.633 26.0344 113.725 25.4746C112.763 24.8875 112.959 23.9037 113.546 22.9416L114.513 21.349C114.964 20.6152 115.041 20.6261 115.394 20.7837L115.557 20.8544C115.633 20.8327 115.698 20.7131 115.66 20.6533C115.345 20.4794 115.03 20.2946 114.72 20.1043C114.416 19.9195 114.106 19.7184 113.834 19.539C113.763 19.5336 113.682 19.6477 113.703 19.7238L113.807 19.8162C114.1 20.0717 114.155 20.1206 113.703 20.8598L112.627 22.6209C112.198 23.3221 112.046 23.8983 112.182 24.3875C112.312 24.8875 112.687 25.3061 113.339 25.7029L113.345 25.7083Z" fill="#545454"/>
<path d="M63.6099 38.0686C63.2675 37.9327 62.9087 37.8566 62.55 37.8457C61.4846 37.8131 60.4464 38.3675 59.9301 39.6775C59.2996 41.2647 60.0007 42.8355 61.5444 43.4497C62.8924 43.9824 64.4796 43.4769 65.159 41.7702C65.7623 40.2428 65.1047 38.6665 63.6153 38.074L63.6099 38.0686ZM64.8818 41.569C64.3709 42.8627 62.7728 42.7431 61.7292 42.33C60.1149 41.6886 59.892 40.6504 60.191 39.8895C60.4899 39.1394 61.1965 38.8622 61.9629 38.8676C62.425 38.8676 62.9087 38.9817 63.3327 39.1502C64.8546 39.7536 65.2188 40.7048 64.8764 41.5636L64.8818 41.569Z" fill="#545454"/>
<path d="M63.0552 62.387C63.3433 62.4576 63.4194 62.5337 63.5064 62.7566L63.5933 62.9903C63.6749 63.0338 63.7944 63.0012 63.8216 62.9359C63.751 62.6587 63.6966 62.4141 63.6477 62.1478C63.5933 61.8162 63.5444 61.5553 63.5118 61.2944C63.4683 61.2346 63.3216 61.2564 63.2781 61.3216V61.5608C63.2889 61.8652 63.2781 61.8978 62.778 61.8325L61.7561 61.6858C61.5278 61.6532 61.5278 61.664 61.4898 61.4521L61.2887 60.3921C61.2452 60.1693 61.2398 60.1367 61.4409 60.0225L62.4573 59.4409C62.7726 59.2561 62.8269 59.2887 62.9193 59.5659L62.9791 59.7344C63.0389 59.7725 63.1802 59.7344 63.2074 59.6692C63.1476 59.392 63.0606 59.0441 62.9954 58.6963C62.9193 58.2832 62.8704 57.9842 62.8215 57.6527C62.8106 57.6418 62.7889 57.6309 62.7726 57.6309C62.7128 57.62 62.6258 57.6527 62.5932 57.707V57.832C62.5932 58.256 62.5497 58.3049 62.0496 58.5876L58.9188 60.3758C58.5818 60.5715 58.2285 60.7454 57.8915 60.9411C57.8589 60.9792 57.8426 61.0281 57.8535 61.0879C57.8535 61.1042 58.2339 61.3053 58.3426 61.5771C58.4731 61.5282 58.6796 61.5716 58.9514 61.6151L62.0062 62.1695C62.4682 62.2565 62.8269 62.3217 63.0552 62.3761V62.387ZM60.8973 61.5716L59.8972 61.414C59.495 61.3488 59.283 61.3162 59.2178 61.2944V61.2781C59.2612 61.2292 59.408 61.1585 59.8048 60.9357L60.7016 60.4193C60.7669 60.3813 60.8158 60.365 60.8484 60.365C60.9028 60.365 60.9191 60.4302 60.9462 60.5715L61.1039 61.4031C61.1419 61.5934 61.1419 61.6097 60.8973 61.5771V61.5716Z" fill="#545454"/>
<path d="M61.5823 56.3807C62.4302 56.3536 62.4411 56.4297 62.5172 56.8047L62.5661 57.0493C62.6096 57.12 62.7727 57.0928 62.7998 57.0276C62.7727 56.6851 62.7509 56.2775 62.74 55.8644L62.7129 55.0164C62.6857 54.1087 62.6694 53.4075 62.6748 53.0651C62.452 52.9727 61.8269 52.8151 61.4844 52.7607V52.7716C61.4192 52.8151 61.3975 52.9455 61.441 53.027C62.2889 53.3749 62.3378 53.5054 62.365 54.4077C62.3867 55.0599 62.3215 55.1904 62.2128 55.2936C62.0769 55.4187 61.7834 55.4458 61.3812 55.4567L58.5275 55.5437C57.6796 55.5709 57.6633 55.4948 57.5872 55.1197L57.5492 54.9403C57.5057 54.8751 57.3426 54.8914 57.3154 54.9621C57.3426 55.3208 57.3643 55.685 57.3752 56.0437C57.3861 56.4188 57.3915 56.783 57.3861 57.1906C57.4187 57.2613 57.5818 57.2559 57.6253 57.1961L57.6524 56.9678C57.6959 56.5873 57.7177 56.5112 58.5656 56.484L61.5932 56.3807H61.5823Z" fill="#545454"/>
<path d="M70.9858 24.7571L71.1379 24.6647C71.4695 24.4636 71.5402 24.4364 72.0783 25.105L73.9807 27.4585C74.5243 28.1271 74.4808 28.1923 74.2144 28.475L74.0894 28.6054C74.0785 28.6869 74.1764 28.7957 74.2525 28.7793C74.5188 28.5402 74.8123 28.2956 75.0895 28.0727C75.3668 27.8499 75.6603 27.6216 75.9484 27.4096C75.9755 27.3444 75.894 27.2248 75.8125 27.2139L75.6548 27.3063C75.3287 27.5074 75.2526 27.5346 74.7145 26.8661L72.8121 24.5125C72.2685 23.8439 72.312 23.7787 72.5784 23.4961L72.7034 23.3656C72.7142 23.2841 72.611 23.1754 72.5403 23.1917C72.274 23.4308 71.9913 23.6646 71.7141 23.8928C71.4206 24.1266 71.1325 24.3494 70.8444 24.5614C70.8118 24.6266 70.8988 24.7462 70.9803 24.7571H70.9858Z" fill="#545454"/>
<path d="M58.0276 47.6024L58.0657 47.5046C58.2015 47.1404 58.2396 47.0752 59.0821 47.26L62.039 47.8959C62.8815 48.0753 62.8924 48.1514 62.8598 48.5373L62.8434 48.7167C62.8869 48.7819 63.0337 48.8091 63.0772 48.7493C63.1424 48.3797 63.2076 48.021 63.2837 47.6731C63.3598 47.3252 63.4468 46.9665 63.5718 46.461C63.5555 46.3903 63.4142 46.3523 63.3435 46.3958L63.2294 46.7219C63.0989 47.0861 63.0772 47.1567 62.2347 46.9719L61.1204 46.7328C60.9193 46.6893 60.9084 46.6784 60.9465 46.4936L61.0497 46.0261C61.1965 45.3358 61.24 45.2108 61.5933 45.2108H61.9194C61.9846 45.1782 62.0173 45.026 61.9629 44.9717C61.7129 44.9282 61.4248 44.8793 61.1313 44.8195C60.8378 44.7542 60.5497 44.6781 60.3431 44.6238C60.2725 44.651 60.2398 44.8032 60.2833 44.8629L60.5388 44.988C60.8541 45.1402 60.8432 45.2597 60.6964 45.9555L60.5986 46.4229C60.5605 46.6077 60.5388 46.6132 60.3431 46.5697L58.919 46.2653C58.4733 46.1675 58.457 46.1675 58.5277 45.8305L58.6146 45.4228C58.669 45.1673 58.7179 44.9717 58.8212 44.7705C58.9679 44.4879 59.2234 44.4064 59.7017 44.4281C59.767 44.3574 59.7833 44.2107 59.7235 44.1672C59.3484 44.102 58.7505 43.977 58.5766 43.9389C58.5548 44.1074 58.4679 44.5586 58.3592 45.0641L58.033 46.5643C57.9569 46.9121 57.8754 47.2709 57.7993 47.5426C57.8156 47.6133 57.9569 47.6514 58.0276 47.6079V47.6024Z" fill="#545454"/>
<path d="M64.0716 63.9252C64.0173 63.8491 63.9521 63.773 63.9031 63.686C63.8107 63.6589 63.6205 63.6426 63.3868 63.6534C63.153 63.6589 62.8758 63.6915 62.6095 63.7621C62.5551 63.8274 62.5714 63.9578 62.6639 64.0013C63.24 64.0285 64.039 64.2024 64.3978 65.1645C64.7674 66.1429 64.3597 67.4583 62.7399 68.0725C61.18 68.665 60.1255 67.9475 59.7613 66.9854C59.3808 65.9798 59.8809 65.3982 60.3103 65.0884C60.3429 65.0177 60.2831 64.8819 60.2016 64.8492C59.6689 65.1373 59.2232 65.3221 59.0547 65.4037C59.0656 65.4798 59.0764 65.5341 59.0927 65.6374C59.1362 66.0287 59.2612 66.5832 59.4243 67.018C59.7124 67.7898 60.2288 68.4693 60.8647 68.8715C61.5115 69.2683 62.354 69.4042 63.2454 69.0672C64.2401 68.6867 64.7565 67.9638 64.9304 67.1919C65.0826 66.5071 64.9902 65.8059 64.7022 65.0503C64.5174 64.5557 64.1858 64.0828 64.0716 63.9306V63.9252Z" fill="#545454"/>
<path d="M65.5885 30.2578L65.6863 30.1817C65.7787 30.1165 65.9798 29.9915 66.0994 29.9751C66.4581 29.9317 66.5505 30.0241 67.018 30.4535L68.4421 31.758C68.915 32.1928 69.4368 32.6711 69.5509 32.9212C69.6107 33.0516 69.5292 33.1766 69.4477 33.3125L69.3553 33.4702C69.3553 33.5571 69.464 33.6387 69.5401 33.6169C69.7194 33.3941 69.8608 33.2256 70.0945 32.9755C70.3065 32.7472 70.5239 32.519 70.7413 32.307C70.7794 32.2309 70.6706 32.1222 70.5782 32.133L70.4424 32.2472C70.2847 32.3831 70.1488 32.4429 70.0129 32.4157C69.7412 32.3559 69.1813 31.8504 68.7302 31.4427L67.5615 30.3719C67.2408 30.0839 67.1756 30.0186 67.1919 30.0023C67.3767 29.9806 67.779 29.986 68.5725 30.0132L71.4588 30.0784C72.3448 30.1002 72.7089 30.111 72.9209 30.1273C72.9916 30.0621 73.0459 29.9534 73.0242 29.8447C72.872 29.736 72.1328 29.062 71.9534 28.8989L70.5184 27.5835C70.0456 27.1487 69.5238 26.6704 69.415 26.4203C69.3553 26.2899 69.4314 26.1703 69.5129 26.0344L69.6107 25.8714C69.6107 25.7844 69.502 25.7029 69.4259 25.7246C69.2411 25.9529 69.1052 26.1105 68.8661 26.3714C68.6486 26.6051 68.4421 26.8226 68.2138 27.0454C68.1758 27.1215 68.2845 27.2302 68.3769 27.2194L68.5236 27.0998C68.6813 26.9639 68.8063 26.9095 68.9476 26.9367C69.2248 26.9965 69.7847 27.4911 70.2358 27.9042L71.4044 28.975C71.5023 29.062 71.5294 29.0892 71.5294 29.1272C71.437 29.1544 70.2902 29.1272 69.7847 29.1272H68.5888C68.1703 29.1326 66.8169 29.0946 66.4636 28.9641C66.344 29.1218 66.219 29.2685 66.1048 29.3935C65.9689 29.5457 65.67 29.8773 65.4363 30.0839C65.3982 30.16 65.5124 30.2741 65.5885 30.2687V30.2578Z" fill="#545454"/>
<path d="M62.1258 35.7585L62.2562 35.59C62.49 35.2856 62.5769 35.3291 63.2455 35.7422L65.7784 37.3076C66.5122 37.7588 66.4959 37.8349 66.3329 38.1882L66.2622 38.3512C66.2731 38.4436 66.409 38.498 66.4687 38.4599C66.6535 38.1338 66.8384 37.8186 67.0286 37.5142C67.2188 37.2098 67.4145 36.9054 67.6211 36.6064C67.6265 36.5358 67.5069 36.4488 67.4308 36.4706L67.3167 36.6119C67.0721 36.9108 67.0123 36.9598 66.2785 36.5086L65.3925 35.9596C65.2458 35.8672 65.2458 35.8563 65.3708 35.6498C65.5121 35.4215 65.5882 35.3617 65.8708 35.3672C66.2405 35.3672 66.746 35.4106 67.1482 35.4052C68.0505 35.3835 68.5451 35.1878 68.9582 34.5247C69.1104 34.2801 69.1702 34.1387 69.1974 34.0409C69.1756 33.9974 69.0995 33.9485 69.0506 33.9702C68.9908 34.0463 68.8277 34.2257 68.5397 34.3127C68.0668 34.4703 67.2678 34.454 65.9904 34.4268C65.9306 34.4268 65.8654 34.4105 65.8708 34.3562C65.9415 33.9322 65.9252 33.2419 65.2947 32.8505C65.0446 32.6983 64.8 32.6331 64.5663 32.6385C64.3326 32.6385 64.1097 32.7146 63.9086 32.8342C63.5553 33.0353 63.1911 33.4647 62.8596 34.0028C62.5063 34.5681 62.1638 35.1715 61.9355 35.6335C61.9355 35.7096 62.0443 35.7803 62.1258 35.7585ZM63.1857 34.0898C63.4194 33.7148 63.7782 33.5517 64.1478 33.5626C64.3706 33.568 64.5935 33.6441 64.8 33.7691C65.4577 34.1768 65.5936 34.6932 65.1751 35.3726C64.9685 35.7042 64.9577 35.6933 64.7348 35.5574L63.2944 34.666C62.9792 34.4703 62.9629 34.4486 63.1803 34.0898H63.1857Z" fill="#545454"/>
<path d="M57.5985 51.5595L57.6366 51.3855C57.7181 51.0105 57.7507 50.9398 58.6095 51.0159L61.6208 51.2931C62.4796 51.3692 62.4959 51.4453 62.5122 51.8312L62.5231 52.0106C62.572 52.0704 62.7188 52.0758 62.7622 52.0161C62.7786 51.6573 62.8057 51.2768 62.8383 50.9181C62.871 50.5593 62.9144 50.1952 62.9634 49.8419C62.9362 49.7766 62.7949 49.7549 62.7296 49.8038L62.6862 49.9777C62.6046 50.3528 62.572 50.4235 61.7132 50.3474L58.7019 50.0701C57.8431 49.9941 57.8268 49.918 57.8105 49.532L57.7996 49.3527C57.7725 49.3201 57.7236 49.3037 57.6746 49.3037C57.6257 49.3037 57.5822 49.3146 57.5605 49.3472C57.5442 49.706 57.517 50.0701 57.4844 50.4289C57.4518 50.8039 57.4083 51.1681 57.3594 51.5214C57.3866 51.5866 57.5333 51.6138 57.5931 51.5595H57.5985Z" fill="#545454"/>
<path d="M108.741 90.733L108.447 90.7874C108.061 90.8635 107.985 90.8635 107.724 90.021L106.664 86.5966C106.561 86.265 106.561 86.2433 106.768 86.1835L107.219 86.0422C108.067 85.7813 108.262 85.8846 108.561 86.4716C108.648 86.5042 108.779 86.4444 108.8 86.3738C108.697 86.1292 108.55 85.428 108.529 85.0747C108.518 85.0638 108.501 85.0584 108.48 85.0584C108.48 85.0584 108.436 85.0584 108.415 85.0692C108.382 85.0801 108.355 85.1073 108.328 85.129C108.289 85.341 108.175 85.4008 107.789 85.5204L104.555 86.5205C104.017 86.689 103.903 86.7162 103.8 86.5314C103.778 86.5096 103.74 86.5151 103.713 86.5205C103.675 86.5314 103.642 86.5531 103.637 86.5803C103.669 86.8738 103.702 87.4065 103.697 87.8739C103.751 87.9446 103.925 87.9174 103.968 87.8522C104.061 87.1184 104.251 86.9662 104.979 86.7379L105.42 86.602C105.626 86.5368 105.637 86.5531 105.74 86.8847L106.8 90.309C107.061 91.1515 106.99 91.1787 106.632 91.3418L106.311 91.4831C106.267 91.5375 106.327 91.6951 106.398 91.706C106.898 91.532 107.268 91.407 107.615 91.2983C107.963 91.1896 108.322 91.0863 108.79 90.9613C108.844 90.9069 108.806 90.7656 108.735 90.7276L108.741 90.733Z" fill="#545454"/>
<path d="M97.7011 91.869C97.4022 92.5376 97.2119 92.7659 96.1629 92.7387C95.4671 92.717 95.3258 92.6572 95.228 92.543C95.1084 92.4017 95.0921 92.1028 95.103 91.6788L95.1193 90.6243C95.1193 90.4178 95.1301 90.4015 95.3204 90.4015H95.7172C96.4401 90.4178 96.5814 90.4395 96.6303 90.7874L96.6847 91.1189C96.7499 91.1679 96.9075 91.1733 96.951 91.1189C96.951 90.8526 96.9347 90.5645 96.9402 90.2493C96.9402 89.9449 96.9673 89.6459 96.9782 89.4176C96.9402 89.3524 96.7825 89.347 96.7119 89.4068L96.6521 89.6894C96.5706 90.0427 96.4455 90.0482 95.7226 90.0373H95.3258C95.1356 90.0264 95.1247 90.021 95.1301 89.8036L95.1519 88.4012C95.1628 87.9283 95.1628 87.912 95.5161 87.9174L96.0705 87.9283C96.2933 87.9283 96.5434 87.9609 96.7336 88.0153C97 88.0914 97.1195 88.2925 97.2445 88.7763C97.3098 88.8252 97.4783 88.8143 97.5109 88.7436C97.4674 88.3849 97.4294 87.7326 97.3967 87.5913C97.288 87.6076 96.8097 87.6076 96.277 87.5968L94.6953 87.5696C94.3311 87.5641 93.9398 87.5478 93.6245 87.5261C93.5593 87.5587 93.5484 87.7055 93.6028 87.7653L93.7332 87.7816C94.1246 87.8414 94.1952 87.874 94.1844 88.7491L94.1355 91.8364C94.1191 92.717 94.0485 92.7387 93.6571 92.7768L93.3473 92.804C93.2875 92.8637 93.293 93.0105 93.3582 93.0431C93.7332 93.0322 94.2387 93.0322 94.6029 93.0377L95.5487 93.054C96.5216 93.0703 97.2337 93.092 97.5979 93.1138C97.7174 92.8909 97.9077 92.2658 97.9675 91.918C97.9186 91.8364 97.7772 91.8093 97.7011 91.8636V91.869Z" fill="#545454"/>
<path d="M119.911 80.5795C119.503 80.0632 119.057 79.4979 118.987 79.2261C118.949 79.0848 119.046 78.9815 119.15 78.8565L119.275 78.7043C119.291 78.6173 119.188 78.5141 119.112 78.5249C118.889 78.726 118.72 78.8619 118.443 79.0848C118.188 79.2859 117.943 79.4707 117.677 79.6555C117.628 79.7262 117.72 79.8566 117.813 79.8566L117.976 79.7588C118.155 79.6501 118.296 79.612 118.432 79.6664C118.704 79.7697 119.182 80.3621 119.568 80.8513L120.574 82.1232C120.655 82.2265 120.682 82.2591 120.677 82.2917C120.579 82.3026 119.432 82.0906 118.921 82.0091L117.715 81.8188C117.291 81.7482 115.937 81.4927 115.606 81.297C115.459 81.4329 115.307 81.5634 115.171 81.6721C115.008 81.8025 114.654 82.0906 114.388 82.2591C114.339 82.3298 114.437 82.4657 114.513 82.4711L114.627 82.4167C114.736 82.3624 114.959 82.27 115.073 82.2754C115.443 82.2863 115.519 82.395 115.921 82.9059L117.139 84.4496C117.546 84.966 117.992 85.5313 118.068 85.7976C118.106 85.9389 118.003 86.0531 117.899 86.1727L117.78 86.3194C117.764 86.4064 117.867 86.5097 117.943 86.4988C118.16 86.3031 118.329 86.1618 118.606 85.9444C118.856 85.7487 119.112 85.553 119.362 85.3791C119.411 85.3084 119.318 85.178 119.226 85.178L119.068 85.2704C118.889 85.3791 118.742 85.4226 118.606 85.3682C118.34 85.2595 117.861 84.667 117.476 84.1778L116.475 82.9059C116.204 82.5635 116.144 82.4874 116.166 82.4765C116.35 82.4874 116.758 82.5581 117.557 82.7103L120.454 83.2484C121.346 83.4114 121.71 83.4821 121.922 83.5364C122.003 83.4821 122.074 83.3843 122.074 83.2701C121.938 83.1342 121.302 82.3352 121.15 82.1395L119.921 80.585L119.911 80.5795Z" fill="#545454"/>
<path d="M125.172 74.6005C124.623 74.6005 124.177 75.0462 124.177 75.5952C124.177 76.1442 124.623 76.5899 125.172 76.5899C125.721 76.5899 126.167 76.1442 126.167 75.5952C126.167 75.0462 125.721 74.6005 125.172 74.6005Z" fill="#545454"/>
<path d="M112.866 83.3679C112.393 83.3516 111.877 83.4658 111.344 83.743C109.795 84.542 109.279 86.2161 110.056 87.7218C110.735 89.0317 112.295 89.7112 113.964 88.8523C115.453 88.0859 116.002 86.4281 115.252 84.9768C114.774 84.0528 113.915 83.4006 112.866 83.3679ZM113.883 88.5208C112.621 89.173 111.469 88.0099 110.947 86.9934C110.137 85.4226 110.665 84.4714 111.398 84.0909C111.616 83.9767 111.839 83.9224 112.056 83.9115C112.991 83.8734 113.85 84.7268 114.317 85.6291C115.084 87.113 114.725 88.0859 113.888 88.5208H113.883Z" fill="#545454"/>
<path d="M92.0974 91.6951C91.5865 92.4778 91.4506 92.4996 90.5375 92.3528C89.8798 92.2495 89.7602 92.1626 89.6841 92.0321C89.5808 91.8745 89.6134 91.5755 89.6787 91.1679L90.1352 88.2925C90.2711 87.4391 90.3472 87.4337 90.744 87.4337H90.9288C90.9995 87.4011 91.0158 87.2326 90.9506 87.1891C90.5864 87.151 90.2168 87.0967 89.858 87.0423C89.483 86.9825 89.1134 86.9173 88.7057 86.8358C88.6242 86.8575 88.6024 87.0206 88.6513 87.0695L88.8742 87.1402C89.2493 87.2598 89.3199 87.2978 89.184 88.1457L88.7003 91.195C88.5644 92.0484 88.4883 92.043 88.0969 92.0484H87.8469C87.7654 92.081 87.7654 92.2495 87.8252 92.293C88.173 92.3311 88.5807 92.3854 88.9992 92.4561L89.8526 92.592C90.7712 92.7387 91.4724 92.8583 91.8148 92.929C91.9507 92.7224 92.2279 92.13 92.3475 91.793C92.3149 91.7223 92.1898 91.6734 92.1029 91.706L92.0974 91.6951Z" fill="#545454"/>
<path d="M82.8243 85.4823C82.9385 85.3899 83.0852 85.428 83.2374 85.466L83.4168 85.5095C83.5037 85.4878 83.5472 85.3628 83.5092 85.2975C83.2265 85.1725 83.0254 85.0801 82.7102 84.9225C82.4221 84.7757 82.1449 84.629 81.9003 84.4876C81.8133 84.4713 81.7426 84.6018 81.7807 84.6888L81.9166 84.7866C82.0851 84.9116 82.1775 85.0203 82.1884 85.1671C82.2155 85.4497 81.8731 86.14 81.5905 86.6999L81.123 87.6239C80.5523 88.7491 79.7859 89.2817 78.8129 88.7925C77.7802 88.2707 77.9052 87.2543 78.4216 86.2324L79.2804 84.5366C79.6772 83.7539 79.7587 83.7539 80.1283 83.8897L80.3022 83.9495C80.3783 83.9224 80.4381 83.7919 80.3946 83.7375C80.0631 83.5854 79.7261 83.4277 79.3891 83.2592C79.063 83.0962 78.7368 82.9168 78.4433 82.7537C78.3672 82.7537 78.2965 82.8787 78.3237 82.9548L78.4379 83.0418C78.7586 83.2755 78.8129 83.3244 78.4161 84.1126L77.4649 85.9933C77.0844 86.7434 76.9812 87.3358 77.1551 87.825C77.329 88.3251 77.7476 88.7164 78.4433 89.0698C78.9542 89.3307 79.5793 89.4665 80.1772 89.2491C80.7697 89.0317 81.1882 88.461 81.5307 87.787L81.9764 86.9064C82.2699 86.3194 82.6015 85.6671 82.8189 85.4986L82.8243 85.4823Z" fill="#545454"/>
<path d="M86.7106 90.7493C86.091 91.4505 85.9551 91.4505 85.0745 91.1787C84.444 90.9831 84.3353 90.8798 84.2755 90.7385C84.1994 90.5645 84.2755 90.2764 84.3951 89.8796L85.2648 87.1021C85.5203 86.2814 85.5964 86.2868 85.9931 86.3357L86.1779 86.3575C86.254 86.3357 86.2975 86.1781 86.2323 86.1237C85.879 86.0313 85.5203 85.928 85.1724 85.8193C84.8082 85.7052 84.4549 85.5856 84.0635 85.4443C83.982 85.4552 83.9331 85.6128 83.9766 85.6726L84.1886 85.7759C84.5419 85.9498 84.6071 85.9933 84.3516 86.8195L83.433 89.7655C83.1776 90.5917 83.1015 90.5754 82.7101 90.521L82.4601 90.4884C82.3785 90.5047 82.3514 90.6732 82.4057 90.7222C82.7427 90.8091 83.1395 90.9287 83.5472 91.0537L84.3679 91.3092C85.2539 91.5864 85.9334 91.8092 86.2595 91.9288C86.4225 91.744 86.7813 91.195 86.9498 90.8852C86.928 90.8091 86.8085 90.7493 86.7161 90.7602L86.7106 90.7493Z" fill="#545454"/>
<path d="M132.836 65.3982L132.717 65.5776C132.51 65.8874 132.402 65.92 132.01 65.9635L129.863 66.1864C129.385 66.2353 129.254 66.2298 128.83 66.0668L128.385 65.8928C127.58 65.583 127.591 65.5124 127.683 65.1373L127.749 64.8818C127.722 64.8275 127.64 64.7894 127.575 64.7894C127.575 64.7894 127.537 64.8003 127.52 64.8112C127.379 65.2297 127.254 65.5722 127.124 65.92C126.999 66.257 126.857 66.594 126.662 67.056C126.667 67.1267 126.803 67.1865 126.874 67.1539L127.015 66.8767C127.194 66.5179 127.243 66.4581 128.048 66.768L128.504 66.9419C129.021 67.1376 129.162 67.2517 129.466 67.6322C129.803 68.029 130.135 68.4203 130.466 68.8443C130.983 69.4966 131.086 69.6379 131.021 70.0075L130.983 70.2467C131.021 70.3228 131.146 70.3717 131.211 70.3173C131.287 70.0673 131.374 69.8227 131.467 69.589C131.554 69.3607 131.651 69.127 131.793 68.8008C131.782 68.7084 131.657 68.6595 131.581 68.6921L131.439 68.8987C131.385 69.0019 131.336 69.0563 131.26 69.0291C131.179 68.9965 131.037 68.8552 130.831 68.6323C130.374 68.116 129.95 67.6322 129.494 67.0995C130.162 67.0071 130.885 66.9636 131.651 66.9147C131.945 66.8984 132.037 66.9038 132.097 66.931C132.157 66.9528 132.157 66.9962 132.135 67.1267L132.086 67.3713C132.119 67.4528 132.26 67.4909 132.315 67.442C132.363 67.2626 132.537 66.7951 132.662 66.4636C132.782 66.1537 132.912 65.8385 133.054 65.5124C133.054 65.4417 132.918 65.371 132.847 65.3982H132.836Z" fill="#545454"/>
<path d="M132.244 44.352L129.336 44.9825C128.493 45.1673 128.455 45.1021 128.325 44.7379L128.265 44.5694C128.194 44.5096 128.058 44.5694 128.037 44.6347C128.134 44.9988 128.216 45.3521 128.292 45.7054C128.368 46.0533 128.439 46.4121 128.499 46.7654C128.542 46.8252 128.689 46.798 128.732 46.7328L128.716 46.5534C128.683 46.1675 128.694 46.0914 129.531 45.912L130.548 45.6891C130.716 45.6511 130.722 45.6565 130.776 45.8957C130.83 46.1566 130.82 46.2544 130.613 46.4501C130.341 46.7056 129.955 47.0263 129.667 47.3144C129.031 47.9612 128.814 48.4395 128.977 49.2059C129.037 49.4831 129.097 49.6299 129.14 49.7223C129.184 49.7386 129.27 49.7223 129.298 49.6734C129.281 49.5755 129.281 49.3364 129.423 49.07C129.651 48.6297 130.238 48.0862 131.173 47.2165C131.216 47.173 131.276 47.1459 131.309 47.1893C131.553 47.5426 132.043 48.0318 132.771 47.8688C133.342 47.7438 133.651 47.3687 133.782 46.9176C133.896 46.5262 133.858 45.9718 133.722 45.3467C133.581 44.6944 133.412 44.0259 133.255 43.5367C133.244 43.5204 133.222 43.5149 133.206 43.5095C133.146 43.4986 133.064 43.5258 133.032 43.5747L133.054 43.7867C133.097 44.1672 132.999 44.1998 132.238 44.3629L132.244 44.352ZM133.168 45.1239C133.331 45.113 133.363 45.1891 133.434 45.4989C133.586 46.1892 133.124 46.7165 132.494 46.8523C131.738 47.0154 131.282 46.7436 131.108 45.9609C131.026 45.5804 131.042 45.575 131.298 45.5206L132.95 45.1619C133.043 45.1402 133.113 45.1293 133.168 45.1239Z" fill="#545454"/>
<path d="M125.15 35.927C124.933 36.226 124.656 36.5467 124.427 36.7967C124.427 36.8456 124.444 36.9 124.471 36.9489C124.498 36.9978 124.547 37.0467 124.579 37.0467C125.003 36.9543 126.014 36.7804 126.819 36.688L127.917 36.5575C128.814 36.4543 129.395 36.3673 129.852 36.3618C130.124 36.3618 130.265 36.4814 130.395 36.6228L130.537 36.7749C130.613 36.7749 130.727 36.7152 130.732 36.6391C130.602 36.4543 130.455 36.226 130.303 35.9759C130.167 35.7531 130.031 35.5139 129.874 35.2204C129.803 35.1878 129.689 35.2476 129.662 35.3291L129.732 35.5628C129.808 35.802 129.765 35.8564 129.417 35.9107C128.248 36.1118 127.036 36.2694 125.927 36.4216C126.047 36.2531 126.346 35.8183 126.585 35.5085L127.525 34.2583C128.064 33.5463 128.183 33.3941 128.248 33.3615C128.303 33.3288 128.373 33.3615 128.498 33.4973L128.645 33.6441C128.732 33.6767 128.841 33.6061 128.841 33.5191C128.607 33.1549 128.455 32.9266 128.265 32.6114C128.102 32.3396 127.928 32.0352 127.781 31.758C127.765 31.7417 127.743 31.7363 127.727 31.7363C127.661 31.7363 127.591 31.796 127.574 31.8504L127.64 32.0406C127.754 32.3505 127.694 32.4755 127.341 32.9484L125.139 35.9324L125.15 35.927Z" fill="#545454"/>
<path d="M121.612 32.3124L121.482 32.1874C121.4 32.1765 121.291 32.2744 121.308 32.345C121.547 32.6168 121.792 32.9049 122.014 33.1875C122.237 33.4647 122.46 33.7583 122.672 34.0463C122.737 34.0789 122.857 33.992 122.868 33.9104L122.775 33.7528C122.574 33.4267 122.547 33.3506 123.221 32.8125L125.58 30.9209C126.254 30.3828 126.319 30.4209 126.597 30.6926L126.727 30.8177C126.809 30.8231 126.917 30.7307 126.901 30.66C126.662 30.3883 126.428 30.111 126.205 29.8338C125.971 29.5403 125.749 29.2522 125.537 28.9642C125.52 28.9587 125.499 28.9533 125.482 28.9642C125.422 28.9805 125.352 29.0403 125.346 29.1L125.439 29.2577C125.64 29.5892 125.667 29.6599 124.993 30.198L122.634 32.0896C121.96 32.6277 121.895 32.5842 121.618 32.3179L121.612 32.3124Z" fill="#545454"/>
<path d="M130.358 38.8622L127.548 39.9819C126.749 40.3026 126.694 40.2428 126.515 39.9003L126.374 39.634C126.298 39.6014 126.167 39.6666 126.162 39.7373C126.314 40.0688 126.504 40.5309 126.635 40.8624L126.977 41.7267C127.33 42.6127 127.58 43.2649 127.694 43.6019C127.939 43.6237 128.58 43.5639 128.917 43.4823C128.972 43.4062 128.945 43.2703 128.868 43.2214C128.151 43.1997 127.874 43.1182 127.499 42.1561C127.254 41.5201 127.254 41.3679 127.325 41.2375C127.406 41.0744 127.673 40.9494 128.059 40.7972L129.021 40.4167C129.211 40.3406 129.227 40.3406 129.298 40.5146L129.445 40.8787C129.706 41.5364 129.744 41.6723 129.445 41.8517L129.162 42.0256C129.14 42.1017 129.2 42.2485 129.265 42.2648C129.504 42.1615 129.765 42.0419 130.048 41.9278C130.325 41.8191 130.608 41.7212 130.814 41.6506C130.858 41.5908 130.804 41.444 130.727 41.406L130.45 41.4549C130.097 41.5147 130.048 41.406 129.782 40.7483L129.64 40.3841C129.57 40.2102 129.575 40.1993 129.771 40.1232L131.048 39.6177C131.478 39.4492 131.494 39.4383 131.624 39.7645L131.825 40.27C131.907 40.4765 131.972 40.7102 131.999 40.9005C132.027 41.1723 131.891 41.3571 131.499 41.6506C131.478 41.7267 131.554 41.8734 131.624 41.8789C131.929 41.7049 132.51 41.4223 132.624 41.3408C132.57 41.2483 132.391 40.8135 132.195 40.3298L131.619 38.8893C131.488 38.5578 131.353 38.199 131.255 37.9055C131.244 37.8947 131.222 37.8892 131.2 37.8838C131.135 37.8838 131.054 37.9218 131.026 37.9762L131.059 38.1012C131.157 38.4763 131.151 38.5523 130.352 38.873L130.358 38.8622Z" fill="#545454"/>
<path d="M131.668 51.4942L131.494 51.853C131.189 52.4835 130.831 52.7227 130.369 52.7498C129.874 52.777 129.477 52.4509 129.439 51.8367C129.39 51.0431 130.233 50.5485 130.64 50.38C130.695 50.3147 130.679 50.1734 130.592 50.1299C130.086 50.1517 129.532 50.293 129.374 50.4506C129.287 50.6191 129.07 51.054 129.113 51.8041C129.184 52.9836 129.885 53.6467 130.809 53.5923C131.63 53.5434 132.097 52.9292 132.342 52.3857L132.581 51.8693C132.831 51.3149 133.184 51.0594 133.527 51.0377C133.956 51.0105 134.396 51.2551 134.434 51.9019C134.478 52.5922 133.951 52.9075 133.532 53.0542C133.478 53.1303 133.494 53.2771 133.57 53.3097C133.951 53.2879 134.483 53.1738 134.657 53.0705C134.706 52.6846 134.788 52.3693 134.761 51.9508C134.69 50.7659 133.972 50.206 133.168 50.2549C132.44 50.2984 131.978 50.8637 131.673 51.4942H131.668Z" fill="#545454"/>
<path d="M77.2039 83.3136C77.4213 82.9874 77.7855 82.4874 77.8942 82.3352C77.742 82.2428 77.3615 81.9819 76.9321 81.6666L75.6657 80.7426C75.3722 80.5306 75.0732 80.3023 74.8504 80.1175C74.7797 80.1066 74.6819 80.2208 74.6927 80.3023L74.7688 80.3784C75.0515 80.6556 75.095 80.7209 74.5786 81.4275L72.7631 83.9224C72.2468 84.6344 72.1707 84.6072 71.8282 84.4224L71.6652 84.3355C71.5836 84.3463 71.5021 84.4768 71.5347 84.542C71.8554 84.754 72.1598 84.966 72.4533 85.178C72.7468 85.3899 73.0458 85.6182 73.4643 85.9444C73.535 85.9552 73.6328 85.8411 73.6219 85.7595L73.3665 85.5204C73.0784 85.2486 73.024 85.1997 73.5404 84.4876L74.2253 83.5473C74.3449 83.3788 74.3666 83.3734 74.5188 83.4821L74.9156 83.7702C75.4972 84.1941 75.595 84.2865 75.4537 84.6127L75.3178 84.9116C75.3232 84.9877 75.4537 85.0801 75.5244 85.0529C75.6711 84.8409 75.8287 84.5909 76.0135 84.3409C76.1929 84.0909 76.3886 83.8517 76.5245 83.6832C76.5245 83.6071 76.4049 83.5147 76.3288 83.531L76.106 83.7212C75.8342 83.955 75.7255 83.8952 75.1384 83.4712L74.7416 83.1831C74.5895 83.069 74.5895 83.0527 74.7145 82.8842L75.5896 81.6829C75.8614 81.3079 75.8722 81.2916 76.1549 81.4981L76.4973 81.7482C76.7147 81.9058 76.8724 82.0308 77.0245 82.2102C77.2311 82.4656 77.1985 82.7374 76.9811 83.1723C77.0191 83.2592 77.1496 83.3353 77.2148 83.3027L77.2039 83.3136Z" fill="#545454"/>
<path d="M133.472 58.6745C133.385 58.6908 133.33 58.8539 133.363 58.9191C133.95 59.3431 133.999 59.5714 133.852 60.3052L133.765 60.7509C133.727 60.9574 133.706 60.9629 133.374 60.8976L129.928 60.2236C129.08 60.0551 129.085 59.9845 129.113 59.5986L129.14 59.2561C129.113 59.1909 128.949 59.1691 128.906 59.2235C128.824 59.7399 128.759 60.1149 128.689 60.4628C128.618 60.8161 128.542 61.1694 128.433 61.6314C128.455 61.7021 128.596 61.7401 128.661 61.6912L128.748 61.4086C128.863 61.039 128.901 60.9737 129.748 61.1422L133.195 61.8162C133.532 61.8815 133.542 61.8923 133.504 62.1043L133.417 62.5555C133.249 63.4088 133.07 63.5338 132.428 63.5121C132.358 63.5719 132.347 63.7132 132.401 63.7621C132.662 63.7893 133.336 63.985 133.646 64.1317C133.673 64.1209 133.695 64.0828 133.706 64.0393C133.711 64.0067 133.706 63.9741 133.695 63.9361C133.532 63.8056 133.532 63.6806 133.608 63.2892L134.244 60.0334C134.352 59.4898 134.38 59.3811 134.586 59.3811C134.613 59.3703 134.63 59.3376 134.635 59.3105C134.64 59.2724 134.64 59.2344 134.619 59.2181C134.352 59.1094 133.879 58.8919 133.477 58.6691L133.472 58.6745Z" fill="#545454"/>
<path d="M134.467 55.0382L134.434 55.2175C134.363 55.598 134.336 55.6687 133.477 55.6198L130.455 55.4513C129.596 55.4024 129.575 55.3263 129.547 54.9458L129.531 54.7664C129.504 54.7338 129.455 54.7229 129.406 54.7229C129.357 54.7229 129.314 54.7392 129.292 54.7718C129.292 55.1306 129.276 55.5111 129.254 55.8698C129.232 56.2285 129.205 56.5927 129.172 56.9515C129.2 57.0167 129.346 57.033 129.406 56.9786L129.439 56.7993C129.509 56.4188 129.537 56.3481 130.401 56.397L133.423 56.5655C134.282 56.6145 134.303 56.6851 134.331 57.071L134.347 57.2504C134.401 57.3102 134.548 57.3102 134.586 57.2504C134.586 56.8917 134.602 56.5275 134.619 56.1688C134.64 55.7937 134.668 55.4295 134.7 55.0762C134.673 55.011 134.526 54.9947 134.467 55.049V55.0382Z" fill="#545454"/>
<path d="M103.903 91.9234C103.474 91.657 102.963 91.0211 102.142 90.0047C102.104 89.9612 102.077 89.896 102.12 89.8633C102.501 89.6405 103.028 89.1785 102.919 88.4229C102.832 87.8305 102.474 87.488 102.023 87.3304C101.827 87.2597 101.588 87.2217 101.316 87.2163C101.044 87.2108 100.74 87.2326 100.425 87.2761C99.7505 87.3739 99.0548 87.4989 98.5438 87.6239C98.4841 87.6728 98.5058 87.8033 98.571 87.8522H98.7884C99.1798 87.8305 99.2015 87.9283 99.3157 88.7165L99.7505 91.7223C99.8755 92.592 99.8049 92.63 99.4244 92.7333L99.2505 92.7822C99.1852 92.8529 99.2287 92.9942 99.2994 93.0159C99.6744 92.9453 100.044 92.8855 100.403 92.8311C100.762 92.7822 101.137 92.7333 101.501 92.7007C101.561 92.6572 101.55 92.5104 101.484 92.4615H101.3C100.908 92.4669 100.827 92.4561 100.702 91.5864L100.55 90.5373C100.522 90.3634 100.533 90.358 100.778 90.3199C101.05 90.2819 101.142 90.3036 101.327 90.5265C101.571 90.82 101.865 91.2385 102.137 91.5483C102.751 92.2386 103.224 92.4995 104.007 92.3854C104.295 92.3474 104.447 92.2984 104.545 92.2604C104.561 92.2169 104.545 92.1245 104.501 92.0973C104.403 92.1028 104.159 92.0864 103.898 91.9234H103.903ZM100.876 89.9884C100.479 90.0481 100.479 90.0264 100.441 89.7655L100.196 88.0588C100.142 87.6783 100.147 87.6565 100.571 87.5913C100.658 87.5804 100.745 87.575 100.827 87.5804C101.403 87.6185 101.794 88.0751 101.876 88.6458C101.99 89.4285 101.675 89.8742 100.87 89.9884H100.876Z" fill="#545454"/>
<path d="M66.5235 75.0299C65.9745 75.0299 65.5288 75.4756 65.5288 76.0246C65.5288 76.5736 65.9745 77.0193 66.5235 77.0193C67.0725 77.0193 67.5182 76.5736 67.5182 76.0246C67.5182 75.4756 67.0725 75.0299 66.5235 75.0299Z" fill="#545454"/>
<path d="M85.6348 79.0032C82.9279 79.4 80.9766 79.7642 80.9766 79.7642C80.9766 79.7642 87.01 83.906 96.2285 83.8408C105.572 83.7756 111.682 79.3511 111.682 79.3511C111.682 79.3511 103.996 77.9651 97.2504 77.9651C96.1307 77.9651 94.9349 78.0194 93.7173 78.1009C93.6521 78.0846 93.5706 78.0683 93.4836 78.0412C90.7713 78.2205 88.0862 78.5467 85.8848 78.8619C85.8033 78.9108 85.7217 78.9597 85.6348 79.0032Z" fill="#545454"/>
<path d="M114.448 68.7084C114.404 68.7465 114.426 68.8334 114.491 68.8606C114.894 68.741 115.709 68.2355 115.709 67.4746C115.709 67.0397 115.453 66.7245 115.1 66.4744C115.03 66.4255 114.926 66.3603 114.839 66.3005C114.682 66.1972 114.654 66.132 114.682 66.0342C114.709 65.9472 114.736 65.9037 114.899 65.8765L115.6 65.7787C115.774 65.7515 115.872 65.545 115.915 65.4254C115.921 65.3928 115.905 65.3602 115.856 65.3547C115.796 65.3928 115.758 65.4091 115.551 65.4363L115.165 65.4906C114.991 65.5178 114.877 65.5341 114.807 65.5558C114.736 65.5776 114.638 65.7461 114.567 65.9146C114.497 66.0831 114.448 66.2625 114.448 66.3549C114.448 66.5451 114.649 66.6593 114.883 66.8278C115.116 67.0017 115.328 67.2463 115.328 67.5942C115.328 68.2029 114.758 68.6052 114.453 68.703L114.448 68.7084Z" fill="#545454"/>
<path d="M116.421 66.0776C116.535 65.833 116.688 65.7896 116.965 65.7896H118.025C118.166 65.7896 118.188 65.8276 118.041 66.1048L116.612 68.7628C116.622 68.8334 116.698 68.866 116.753 68.866C116.785 68.866 116.791 68.866 116.807 68.8606L117.938 66.7299C118.22 66.1972 118.487 65.7135 118.639 65.4906C118.639 65.4634 118.623 65.4417 118.59 65.4362C118.503 65.4526 118.188 65.4526 117.894 65.4526H117.035C116.791 65.4526 116.628 65.4471 116.497 65.4362C116.465 65.6156 116.383 65.8874 116.307 66.0396C116.323 66.0776 116.383 66.0994 116.432 66.0776H116.421Z" fill="#545454"/>
<path d="M111.665 68.8606C112.061 68.79 112.556 68.5834 112.942 68.2355C113.518 67.7083 113.752 67.0832 113.752 66.5234C113.752 65.8494 113.431 65.371 112.774 65.371C112.203 65.371 111.692 65.8059 111.692 66.4418C111.692 66.893 111.996 67.2571 112.42 67.2571C112.638 67.2571 112.812 67.181 112.953 67.0669C112.964 67.0289 112.953 66.9854 112.92 66.9691C112.839 67.0071 112.768 67.018 112.654 67.018C112.284 67.018 112.083 66.5614 112.083 66.219C112.083 65.8385 112.306 65.5558 112.643 65.5558C113.176 65.5558 113.301 66.1266 113.301 66.5016C113.301 67.4963 112.708 68.1105 112.426 68.3279C112.214 68.491 111.953 68.6378 111.637 68.7465C111.605 68.7791 111.627 68.8443 111.665 68.8661V68.8606Z" fill="#545454"/>
<path d="M109.67 67.7898C109.773 67.779 110.154 67.7735 110.393 67.7735C110.632 67.7735 110.937 67.779 111.127 67.7898C111.176 67.779 111.181 67.6866 111.143 67.6539L110.969 67.6376C110.616 67.605 110.605 67.5507 110.605 67.1702V66.045C110.605 65.6646 110.621 65.6428 110.996 65.5776L111.089 65.5613C111.127 65.5341 111.121 65.4417 111.073 65.4308C110.942 65.4417 110.643 65.4471 110.393 65.4471C110.143 65.4471 109.828 65.4417 109.725 65.4308C109.676 65.4417 109.67 65.5341 109.708 65.5613L109.801 65.5776C110.176 65.6428 110.192 65.6646 110.192 66.045V67.1702C110.192 67.5507 110.181 67.5942 109.801 67.6376L109.654 67.6539C109.616 67.6811 109.621 67.7735 109.67 67.7898Z" fill="#545454"/>
<path d="M88.184 42.2757C88.3254 42.3137 89.6897 42.2974 90.043 41.8082C90.3963 41.319 90.6028 40.5254 90.8964 40.4004C90.7496 40.3895 90.505 40.3515 90.2224 40.3461C89.7549 40.3352 89.1733 40.4113 88.733 40.8026C88.021 41.4332 88.059 42.0528 88.059 42.0528C87.9394 42.1017 87.7927 42.205 87.6514 42.33H88.0808C88.1188 42.3083 88.1514 42.292 88.1895 42.2757H88.184Z" fill="#545454"/>
<path d="M90.2543 41.6886C90.1402 41.8462 89.7162 42.2159 88.9063 42.2974C88.9063 42.3083 88.9063 42.3191 88.9009 42.33H90.2326C90.2652 42.0365 90.2543 41.6886 90.2543 41.6886Z" fill="#545454"/>
<path d="M86.64 41.0527C86.5367 41.1723 86.0312 41.7049 85.8301 42.3354H86.9444C86.8302 41.8463 86.5747 41.3679 86.64 41.0527Z" fill="#545454"/>
<path d="M98.1743 41.7756C97.783 41.2647 97.0873 40.6341 97.0764 40.5907C97.0873 40.8244 97.1416 41.2429 97.0166 41.7756C96.9731 41.9604 96.9351 42.1398 96.9351 42.3355H98.3592C98.3429 42.1343 98.2939 41.9387 98.1689 41.7756H98.1743Z" fill="#545454"/>
<path d="M91.184 41.8028C90.8199 41.8028 90.5046 42.0202 90.3633 42.33H92.0102C91.8689 42.0202 91.5537 41.8028 91.1895 41.8028H91.184Z" fill="#545454"/>
<path d="M85.0145 42.33C85.0036 42.292 84.9927 42.2539 84.9873 42.2159V42.33H85.0145Z" fill="#545454"/>
<path d="M96.0384 42.1669C95.5873 42.0745 95.3916 42.0365 94.897 42.0365C94.9513 42.1017 95.0383 42.2104 95.1253 42.33H96.4515C96.3374 42.2539 96.2015 42.1941 96.0384 42.1615V42.1669Z" fill="#545454"/>
<path d="M75.4809 66.6429C76.6495 67.3496 77.9323 67.4583 78.7911 67.4257C78.4867 67.8822 77.9812 67.9312 77.7909 67.9366C77.6333 67.8279 77.4376 67.7681 77.2311 67.7681C76.6767 67.7681 76.231 68.2138 76.231 68.7682C76.231 69.3226 76.6767 69.7683 77.2311 69.7683C77.7855 69.7683 78.2312 69.3226 78.2312 68.7682C78.2312 68.6704 78.2149 68.5834 78.1877 68.4964C78.7095 67.5833 79.4325 67.3876 79.514 67.3659C79.6173 67.3496 79.6934 67.3387 79.7368 67.3278C80.0358 67.2626 78.9052 69.0074 78.715 69.3063C76.5843 69.6053 77.0572 71.649 77.0735 72.0513C77.3072 71.6273 78.3508 71.4968 78.7748 70.9424C79.1987 70.388 79.0737 69.752 79.052 69.4748C79.7314 68.5562 80.3076 66.7951 80.4761 66.3875C80.4869 66.5886 80.5141 66.7734 80.5467 66.9528C80.5467 66.9528 80.275 67.5615 80.2206 67.9909C80.0195 68.2029 79.3292 69.2248 80.5739 70.5565C80.5467 70.4587 80.7152 69.8879 80.8294 69.7466C80.9435 69.6053 81.4273 68.9095 80.5576 67.9583C80.5685 67.8659 80.4435 67.9638 80.6283 67.3333C81.1066 69.0998 82.4763 69.8281 82.7699 69.9586C83.2156 71.6164 85.281 71.0892 85.7104 70.937C85.2647 70.5728 85.4332 70.3391 84.6451 69.8934C83.8569 69.4477 83.221 69.7031 82.9438 69.7031C79.3564 67.6594 81.4219 64.0556 81.6828 63.6371C81.8839 64.6264 82.3296 65.371 82.8677 65.9309C82.922 66.1266 82.8568 66.257 82.797 66.3277C82.6394 66.219 82.4546 66.1537 82.2535 66.1537C81.7262 66.1537 81.2968 66.5832 81.2968 67.1104C81.2968 67.6376 81.7262 68.067 82.2535 68.067C82.7807 68.067 83.2101 67.6376 83.2101 67.1104C83.2101 66.8277 83.0851 66.5777 82.8894 66.3983L83.0471 66.1103C83.1286 66.1864 83.2101 66.2516 83.2917 66.3222C83.3188 66.3712 83.7048 67.056 83.8135 67.2898C83.7537 67.5017 83.558 69.5998 86.1833 70.0129C86.129 69.8716 85.9877 69.2737 85.9877 69.1596C85.9877 69.0454 85.9007 67.3278 84.1124 67.2028C84.0254 67.1376 83.8243 66.8441 83.7156 66.6429C84.7158 67.3169 85.7431 67.5398 86.0148 67.5942C86.7106 68.4475 87.5096 68.5127 88.151 68.3606C88.151 69.9803 88.189 71.7686 88.1401 73.0025C88.0803 74.6114 88.314 77.503 85.8844 78.8619C88.0912 78.5467 90.7709 78.2205 93.4832 78.0412C93.1897 77.9651 92.8092 77.84 92.657 77.6933C92.3852 77.4378 92.1189 77.1878 92.0156 76.3018C92.0102 76.1442 91.9504 74.9484 91.9286 74.5842C91.9069 74.22 91.7765 72.3991 91.6949 71.6382C91.6188 70.8772 91.3742 68.5943 91.3253 68.1323C91.2601 67.5181 91.3416 66.9147 91.5264 66.3277C92.6353 66.0668 92.8038 65.2786 92.869 65.2895C93.0157 65.2188 93.2169 65.0993 93.4343 64.9579C93.2332 65.3004 93.1462 65.545 93.0973 65.6428C91.0698 66.1972 92.0645 68.453 92.1026 68.578C92.1026 68.366 92.9016 67.7409 93.3201 67.2463C93.9506 67.23 95.1465 67.0126 95.2117 65.8928C95.3095 65.795 95.9781 65.333 96.2064 65.3873C96.2988 66.6266 95.1791 68.279 94.6464 68.7791C92.8146 68.7791 92.7114 70.6543 92.6679 70.9478C94.9671 70.4152 94.9019 69.1596 94.9671 68.9476C95.3041 68.4475 95.5759 68.0616 95.7987 67.73C95.9835 67.7953 96.0216 68.0888 96.0596 68.1377C95.9781 68.4258 95.7607 69.0726 95.8041 69.6325C95.8422 70.1923 96.701 71.0837 96.8369 71.1707C96.7445 70.7032 97.1685 69.8499 97.1521 69.3281C97.1304 68.8063 96.489 68.2301 96.2933 68.1105C96.1683 67.7137 95.8966 67.5942 95.8966 67.5942C95.8966 67.5942 95.9129 67.5724 95.9183 67.5615C96.0324 67.5615 96.1575 67.6268 96.1955 67.6268C96.3368 67.8224 96.6412 68.279 97.0163 68.5291C97.2446 68.6867 97.6957 68.6976 98.0436 68.6812C98.0327 68.9095 98.0273 69.1107 97.9838 69.2085C98.1142 68.9313 98.8426 68.7573 99.1198 68.6269C99.7014 68.3442 99.6742 67.2571 99.6742 67.0669C99.8753 66.8495 100.495 66.1592 100.957 65.5504C101.071 66.6701 101.767 67.2572 102.441 67.567C102.071 68.3932 101.588 68.8661 101.424 69.0889C100.587 69.29 100.25 69.5672 99.9895 69.8934C99.5981 70.5674 99.6035 71.3827 99.7068 71.8067C101.392 71.4588 101.778 70.3445 101.685 69.4585C101.664 69.2357 102.066 68.8117 102.164 68.6758C102.397 68.404 102.609 68.1649 102.794 67.8822C102.805 67.8985 102.843 67.9529 102.816 68.0997C102.789 68.2682 102.223 69.5944 103.664 70.2032C103.648 70.1162 103.68 69.5998 103.724 69.3444C103.767 69.0889 103.718 68.4475 102.995 68.0562C102.957 68.029 102.903 67.8768 102.892 67.7355C103.207 67.8333 103.474 67.8714 103.631 67.8877C103.631 67.9203 103.62 67.9529 103.62 67.9855C103.62 68.4856 104.028 68.8932 104.528 68.8932C105.028 68.8932 105.436 68.4856 105.436 67.9855C105.436 67.4854 105.028 67.0778 104.528 67.0778C104.142 67.0778 103.816 67.3169 103.686 67.6539C103.566 67.6268 103.408 67.5942 103.289 67.5615C103.191 67.5289 103.109 67.4963 103.022 67.4637C103.251 66.9473 103.398 66.2407 103.419 65.0503C103.43 64.2024 103.039 63.311 102.473 62.4739C102.984 62.6261 104.403 63.0881 104.648 63.2186C104.664 63.3164 104.68 63.4795 104.637 63.561C104.572 63.6806 103.533 64.5231 104.887 65.8983C104.909 65.8004 105.273 65.1264 105.316 64.659C105.36 64.5611 105.365 64.1263 104.849 63.5991C104.849 63.5991 104.811 63.4251 104.789 63.2947C105.697 63.8274 105.925 64.2568 106.055 64.697C104.468 65.7406 105.218 67.0397 105.262 67.2898C105.534 66.9147 106.061 66.681 106.365 66.2788C106.724 65.8059 106.382 64.9145 106.289 64.7297C106.229 63.9632 105.534 63.3708 104.892 62.9794C105.039 62.974 105.229 63.0338 105.338 63.0338C106.528 64.1535 107.36 62.887 107.36 62.887C106.186 61.9086 105.501 62.6098 105.267 62.7729C105.066 62.9142 104.648 62.8109 104.534 62.7729C104.381 62.6913 103.947 62.5065 103.479 62.3054C103.49 62.3054 103.533 62.3054 103.533 62.3054C103.533 62.3054 103.593 62.2022 103.832 62.1641C104.072 62.1315 106.137 62.3272 106.344 60.0823C106.229 60.1421 105.512 60.3215 105.142 60.3758C104.778 60.4302 103.914 60.7781 103.696 61.9358C103.675 62.001 103.484 62.1478 103.283 62.2185C102.582 61.9249 101.957 61.664 101.838 61.6151C101.772 61.5336 101.707 61.4575 101.642 61.376C101.506 61.1748 101.37 61.039 101.234 60.9357C100.375 60.0388 99.4785 59.3268 98.973 58.9843C98.9513 58.7397 99.1959 58.6582 99.2502 58.6039C99.5927 58.6473 100.359 58.7724 100.984 58.631C101.419 58.5332 101.957 57.9679 102.272 57.5711C102.392 57.8103 102.452 57.9679 102.468 58.0657C102.245 58.2451 102.098 58.5169 102.098 58.8213C102.098 59.3594 102.533 59.7942 103.071 59.7942C103.61 59.7942 104.044 59.3594 104.044 58.8213C104.044 58.2832 103.61 57.8483 103.071 57.8483C103.006 57.8483 102.941 57.8538 102.876 57.8701C102.789 57.7831 102.631 57.6255 102.49 57.4515C102.468 57.4298 102.452 57.3972 102.43 57.3591C102.479 57.283 102.522 57.2232 102.533 57.1961C102.479 57.2124 102.419 57.2232 102.359 57.2341C102.213 56.9515 102.077 56.609 102.039 56.5166C102.724 56.6199 103.561 56.7775 104.55 57.033C104.593 57.0602 104.675 57.0874 104.773 57.12C104.8 57.2069 104.8 57.2993 104.805 57.3265C104.436 58.169 104.642 58.3919 104.707 58.5169C105.142 59.0441 105.327 59.4355 105.425 59.6257C105.398 59.5333 105.729 58.4354 105.615 58.0657C105.501 57.6961 105.05 57.4461 104.958 57.2396C104.947 57.2178 104.941 57.1961 104.936 57.1689C105.246 57.2667 105.626 57.3754 105.762 57.4678C106.219 57.7831 106.392 58.3049 106.936 58.4843C107.654 58.7234 108.181 58.4408 108.936 58.4191C108.833 58.0603 108.126 57.1037 107.561 56.9786C106.762 56.8047 106.121 57.0439 105.838 57.071C105.74 57.071 105.289 56.821 104.49 56.5873C104.463 56.5329 104.452 56.4731 104.506 56.4025C104.582 56.3046 105.006 55.8916 105.381 55.56C105.468 55.5274 105.68 55.4676 105.865 55.5111C106.11 55.5654 106.371 56.1688 106.947 56.2612C107.523 56.3536 108.137 56.109 108.317 55.9405C107.92 55.7828 107.882 55.3589 107.197 55.1523C106.887 55.1251 106.528 55.136 105.92 55.348C105.882 55.3317 105.74 55.348 105.697 55.2882C105.827 55.1795 105.936 55.1088 105.974 55.1088C106.142 55.0925 107.23 54.8371 107.447 54.5816C107.811 54.1576 107.692 53.4456 107.963 53.1629C107.963 53.1629 106.784 53.2825 106.316 53.6195C106.197 53.288 106.028 52.8694 105.713 52.5052C105.131 51.8367 104.637 51.7388 104.039 51.6845C103.843 51.5377 102.658 50.8746 102.778 50.4071C103.12 50.1191 103.463 49.8799 103.789 49.6788C104.284 49.6679 104.631 49.9506 104.74 49.994C105.083 50.5593 105.262 50.6898 105.86 50.7876C106.458 50.8855 107.409 50.5756 107.55 50.5593C107.039 49.8364 106.104 49.5538 105.963 49.5538C105.24 49.5375 104.854 49.7549 104.854 49.7549C104.854 49.7549 104.457 49.6136 104.229 49.5266C104.18 49.5103 104.158 49.4885 104.137 49.4722C104.588 49.2168 104.974 49.0537 105.289 48.9341C105.458 49.1787 105.74 49.3418 106.061 49.3418C106.577 49.3418 106.996 48.9233 106.996 48.4069C106.996 47.8905 106.577 47.472 106.061 47.472C105.545 47.472 105.126 47.8905 105.126 48.4069C105.126 48.5102 105.148 48.608 105.18 48.7004C103.05 49.4288 101.56 51.1192 101.294 51.3638C101.158 51.4834 101.077 51.5105 101.028 51.5105C101.011 51.2986 100.984 51.0866 100.946 50.8746C100.897 50.6028 100.816 50.3147 100.723 50.0158C100.723 50.0158 100.707 49.5483 100.848 49.4777C100.99 49.407 101.343 49.1352 101.484 49.1352C101.626 49.1352 103.74 49.4451 104.349 47.4068C104.164 47.4068 101.838 46.923 101.327 48.8689C101.164 48.9504 100.821 49.2929 100.403 49.1352C100.136 48.4612 99.8047 47.7601 99.4351 47.0752C99.6253 46.9013 99.8373 46.711 100.06 46.5208C100.163 46.4719 100.305 46.4175 100.457 46.4175C100.712 46.4175 101.098 46.4664 101.098 46.4664C101.098 46.4664 101.664 46.9013 102.495 46.8415C103.327 46.7817 103.664 46.2273 103.908 46.1403C103.821 46.1294 103.099 45.6565 102.098 45.7652C101.919 45.7761 101.397 45.825 101.109 46.2218C101.028 46.2218 100.609 46.2381 100.451 46.1892C100.908 45.8033 101.332 45.4609 101.446 45.3793C102.011 45.3195 102.506 45.1836 102.941 44.8847C103.376 44.5857 103.495 43.3301 103.474 43.0638C103.305 43.1616 102.234 43.5693 101.772 43.8356C101.316 44.102 101.348 44.9554 101.299 45.1402C101.278 45.2163 100.821 45.613 100.305 46.0424C100.196 45.8848 100.24 45.5369 100.24 45.3684C100.745 44.7923 100.805 44.2814 100.794 44.0531C100.707 43.5476 100.288 42.5094 100.261 42.3518C98.9241 44.1346 99.9134 45.1999 100.033 45.3413C100 45.8087 100.033 46.1729 100.038 46.2599C99.7829 46.4719 99.5329 46.6675 99.31 46.8469C99.272 46.7762 99.2339 46.7056 99.1959 46.6404C98.386 45.2054 98.0381 44.3792 98.2229 43.3356C98.2556 43.1508 98.3969 42.7051 98.3643 42.2811H96.9402C96.9402 42.6453 97.1032 43.0638 97.7066 43.6671C97.4348 43.4769 97.0489 43.0421 96.8858 42.7649C96.7825 42.5909 96.6521 42.4115 96.451 42.2811H95.1247C95.2878 42.4985 95.4671 42.7594 95.5161 42.879C95.5922 43.0638 95.8259 43.64 96.6303 43.5802C96.8478 43.5802 97.2065 43.5802 97.3043 43.6345C97.4022 43.6889 97.6631 43.9389 97.6957 44.1509C97.7772 44.6564 97.9403 45.1999 98.1414 45.7381C98.0925 45.7163 98.0218 45.6728 97.9403 45.575C97.7827 45.3902 96.8423 43.5421 94.8366 44.564C94.9508 44.6292 95.4835 45.1402 95.7226 45.4228C95.9672 45.7055 96.7173 46.249 97.8153 45.8087C97.8751 45.7924 98.0707 45.8576 98.2338 45.9718C98.4023 46.4012 98.5926 46.8252 98.7882 47.2328C98.7556 47.2546 98.6795 47.3198 98.6632 47.3307C98.636 47.347 98.6089 47.3633 98.5817 47.3687C97.6848 46.6947 96.8423 46.9828 96.5325 47.173C96.3314 47.298 96.0053 47.472 95.7552 47.5916C95.5432 47.1839 95.1519 46.798 94.4398 46.548C94.4725 46.673 94.467 47.4122 94.4344 47.7818C94.3964 48.1514 94.5268 49.07 95.603 49.5592C95.6411 49.5809 95.6954 49.6897 95.7389 49.8201C94.7442 49.2929 93.9778 48.8363 93.4397 48.483C93.4288 48.4286 93.3745 48.1895 93.3908 48.0373C93.4071 47.8688 94.7116 46.5751 93.0755 45.0151C93.0647 45.1293 92.8472 45.6837 92.7494 45.7815C92.6516 45.8794 92.1515 47.1839 93.1625 47.9829C93.1951 48.0536 93.2332 48.2221 93.2386 48.3525C92.8092 48.059 92.5646 47.8525 92.5211 47.7818C92.407 47.5807 92.3526 47.0426 92.3526 47.0426C92.2928 46.162 91.4449 45.7924 91.1351 45.6783C90.8252 45.5641 90.2273 45.3684 90.0262 45.1945C90.2273 47.7764 91.3307 47.6894 91.7275 47.8035C92.1243 47.9177 92.2656 48.0318 92.2656 48.0318C92.9016 48.6406 93.9072 49.2657 94.8475 49.7929C94.7931 49.7984 94.7279 49.8038 94.6301 49.7821C94.429 49.7386 93.0647 49.0863 92.0537 50.1082C91.9232 49.5483 91.7384 49.0918 91.5427 48.7602C91.2546 48.2764 90.6133 47.6785 89.9229 47.0208C89.8686 46.7436 89.7708 46.4175 89.586 46.124C89.3631 45.7598 88.7978 45.4989 88.2977 45.3304C88.2053 45.2163 88.1184 45.0967 88.0368 44.9771C88.0368 44.9282 88.0368 44.814 88.1347 44.7488C88.2488 44.6618 88.9446 44.2107 89.0587 44.1509C89.1729 44.0965 89.4827 44.0204 90.0534 44.2379C90.1241 44.3955 90.635 44.8466 91.2003 44.9064C91.771 44.9662 92.6624 44.7216 92.9723 44.3248C92.6896 44.1998 92.3907 43.8139 91.396 43.6291C91.2438 43.6128 90.6459 43.5584 90.1349 43.9715C89.9936 43.928 89.4555 43.8846 89.5968 43.7704C89.7218 43.6726 90.2491 43.3954 90.5806 43.3138C90.7383 43.4552 90.9503 43.5476 91.1785 43.5476C91.6786 43.5476 92.0863 43.1399 92.0863 42.6398C92.0863 42.5039 92.0537 42.3789 91.9993 42.2594H90.3524C90.298 42.3735 90.2654 42.5039 90.2654 42.6398C90.2654 42.7214 90.2763 42.7975 90.298 42.8736L89.3903 43.6508C89.3196 43.678 89.2055 43.5367 89.2326 43.3682C89.2598 43.1997 89.3468 43.1562 89.3468 43.1562C89.3468 43.1562 90.1404 42.7431 90.2002 42.4333C90.211 42.3844 90.2165 42.3246 90.2219 42.2702H88.8902C88.863 42.4387 88.9065 42.8573 89.0261 43.1997C89.0261 43.3573 89.0696 43.8411 88.825 44.0096C88.5967 44.1726 88.0966 44.564 87.7433 44.5259C87.5368 44.14 87.4172 43.7595 87.4281 43.3845C87.4498 42.879 87.7216 42.4659 88.064 42.2702H87.6346C87.2976 42.5583 86.966 42.9877 86.966 43.3736C86.966 43.7704 87.0476 44.1563 87.1726 44.5314C86.928 44.5151 86.6943 44.4825 86.4823 44.4281C86.4497 44.3792 86.4171 44.314 86.4171 44.2379V43.7432C86.4171 43.7432 86.928 43.3193 86.9878 42.8518C87.0095 42.6616 86.9878 42.4659 86.9389 42.2757H85.8246C85.6724 42.7485 85.6941 43.2758 86.1779 43.7324C86.1779 43.8683 86.2649 44.1672 86.1072 44.3194C85.7213 44.1835 85.3952 43.9933 85.1289 43.7922C85.156 43.7161 85.1723 43.6345 85.1723 43.5476C85.1723 43.129 85.1017 42.6561 85.0093 42.2757H84.9821V42.1615C84.9386 41.9984 84.8897 41.8517 84.8462 41.7484C84.7647 41.9224 84.4385 42.2702 84.1505 42.5692C84.6505 41.5201 83.9385 41.1777 83.8841 41.0799C83.8243 40.982 83.6721 40.7102 83.6558 40.6559C82.4057 41.9767 83.7428 42.6453 83.8406 42.6996C83.8515 42.754 83.8624 42.8083 83.8787 42.8627C83.8678 42.8736 83.8515 42.8899 83.8406 42.9007C83.558 43.1834 83.346 43.8791 83.77 44.7325C83.6287 45.113 83.5145 45.7544 83.6395 46.4936C83.7645 47.2056 83.6613 48.521 83.3188 48.7439C82.6014 48.1677 82.0524 47.6568 81.7262 47.2328C81.7099 47.0969 81.6882 46.8523 81.7099 46.6893C81.7371 46.4773 82.4926 45.4554 82.46 44.9988C82.4329 44.5477 81.6664 43.2269 81.7099 42.8138C81.5958 43.1127 80.2369 44.814 81.4436 46.3468C81.4653 46.461 81.5034 46.6784 81.4871 46.8795C80.8185 45.7272 80.7152 44.102 80.7152 44.102C80.7152 44.102 80.8131 43.9878 81.0685 43.6889C81.324 43.3899 81.0685 42.7105 80.987 42.4985C80.9 42.2865 80.775 41.4332 80.775 41.4332C80.775 41.4332 80.5196 41.5636 80.0521 42.542C79.5847 43.5204 80.2206 43.9878 80.3076 44.3303C80.3076 44.9336 80.4054 45.4935 80.5467 45.9827C80.5141 45.9827 80.4869 45.9827 80.4652 45.9718C80.3782 45.9174 79.8564 45.6022 79.8564 45.6022C79.8564 45.6022 79.5575 44.0585 77.4703 44.5966C77.5681 44.7108 77.7094 46.1022 79.6988 45.9283C79.8945 45.9881 80.4108 46.0968 80.7098 46.4827C80.9218 47.0643 81.1718 47.4992 81.3186 47.7057C81.3784 47.7818 81.4436 47.8579 81.5088 47.9394C81.4273 47.9557 81.1501 47.9884 81.0033 47.8199C80.9435 47.6622 80.2532 45.874 77.6714 46.673C77.8562 46.7436 78.4215 47.2002 78.6334 47.5535C78.8454 47.9068 79.09 48.6297 80.862 48.1623C81.0522 48.1351 81.5306 48.2547 81.9165 48.4015C82.1122 48.608 82.3296 48.82 82.5633 49.0374C82.5579 49.0809 82.5307 49.1461 82.4111 49.2113C82.2263 49.3092 81.6882 49.5375 81.6882 49.5375C81.6882 49.5375 79.8999 49.2657 79.514 51.4236C79.6825 51.3692 80.5359 51.4073 81.2044 51.1572C81.748 50.9507 81.8839 50.1082 81.8839 49.8636C82.0143 49.706 82.5796 49.2548 82.5633 49.5375C82.5524 49.7223 82.3568 50.5865 82.3676 51.3964C81.9165 51.1627 81.286 51.0594 80.563 51.5649C80.4217 51.6084 79.5466 51.9019 79.1553 53.7065C78.8291 53.1684 78.4813 52.5542 78.1388 51.8693C78.1008 51.6464 78.1551 51.4127 78.2149 51.3638C79.215 50.6409 79.1607 49.6734 79.052 49.3037C78.9433 48.9341 78.7911 48.1786 78.7965 48.0373C76.7691 49.2276 77.867 51.092 77.9377 51.3366C77.954 51.3964 77.9703 51.4671 77.9758 51.5323C77.492 50.5376 77.0354 49.4233 76.693 48.2493C77.03 48.0753 77.2637 47.7274 77.2637 47.3252C77.2637 46.7491 76.7963 46.2816 76.2201 46.2816C75.6439 46.2816 75.1765 46.7491 75.1765 47.3252C75.1765 47.9014 75.6439 48.3688 76.2201 48.3688C76.2364 48.3688 76.2527 48.3688 76.269 48.3688C76.3505 48.6569 76.4593 49.0374 76.6223 49.5375C76.5625 49.5212 76.5027 49.4994 76.4538 49.4722C76.2962 49.3853 75.1439 48.3362 74.0078 49.5864C74.1057 49.6027 74.6166 49.8201 74.8612 49.9506C75.1058 50.081 75.7798 50.2604 76.4321 49.6679C76.4593 49.6462 76.5571 49.6407 76.6604 49.6516C76.9974 50.6735 77.5029 52.0215 78.1769 53.3695C78.1551 53.4836 78.0953 53.6576 77.8616 53.663C77.7312 53.6684 77.2854 53.7065 76.6821 53.701L76.1712 53.3369C76.1712 53.3369 75.932 50.6844 73.6165 50.5539C73.7035 50.6952 73.8285 51.4181 73.8828 51.6736C73.9426 51.9291 73.8393 53.0053 75.8831 53.3206C76.0135 53.3858 76.1114 53.538 76.2092 53.6793C75.4265 53.6358 74.497 53.5054 73.6654 53.1521C73.6328 53.0705 73.4589 52.6303 73.4589 52.3965C73.4589 52.1411 74.0133 50.6517 72.1272 49.7005C72.1543 49.8147 72.1707 50.2386 72.1543 50.38C72.1435 50.5213 71.8445 51.9291 73.149 52.4074C73.2306 52.5052 73.3665 52.6846 73.4697 53.0597C73.361 53.0053 73.2523 52.951 73.1545 52.8912L72.7849 53.0053C72.7849 53.0053 73.1817 53.2662 73.8991 53.5217C73.8611 53.576 73.8013 53.6467 73.7252 53.7065C73.5839 53.8206 73.3719 53.9348 73.3719 53.9348C73.3719 53.9348 71.9695 53.326 71.2847 54.7881C71.5673 54.8588 72.8718 55.1415 73.4534 54.1794C73.4534 54.1794 73.8665 53.913 74.0676 53.5815C74.8069 53.8206 75.8342 54.0326 77.0952 53.9728C76.9376 54.0598 76.7745 54.1359 76.6821 54.1522C76.4429 54.1902 74.3775 54.0109 74.1872 56.2557C74.3014 56.1959 75.0188 56.0111 75.383 55.9513C75.7526 55.8916 76.606 55.5382 76.818 54.375C76.8397 54.2935 77.3181 53.9837 77.5627 53.9456C77.5898 53.9456 77.6116 53.9348 77.6279 53.9239C77.7203 53.913 77.8127 53.9076 77.9051 53.8967C78.0084 53.875 78.3345 53.9348 78.5356 54.0435C78.9107 54.7229 79.3292 55.3915 79.7912 56.0003C79.5792 56.1416 79.1824 56.4242 78.9107 56.7667C78.8237 56.7504 77.5192 56.5655 77.4648 58.68C77.4866 58.6473 78.3073 58.5006 78.753 58.0386C78.7422 58.0984 78.7367 58.1581 78.7367 58.2234C78.7367 58.7343 79.1553 59.1528 79.6662 59.1528C80.1771 59.1528 80.5957 58.7343 80.5957 58.2234C80.5957 57.7451 80.2315 57.3537 79.7586 57.3048C79.7423 57.2504 79.5357 56.4242 79.9217 56.1742L79.7477 56.2775C79.8075 56.2394 79.8673 56.2014 79.9271 56.1688C80.4272 56.821 80.9164 57.4352 81.3947 58.0223C81.3621 58.0114 81.3294 57.9951 81.2914 57.9896C81.324 58.1038 81.3675 58.7669 81.3512 59.1039C81.3403 59.4409 81.5088 60.2617 82.5035 60.6476C82.5633 60.6748 82.6557 60.8596 82.6774 61.0498C82.6013 61.0716 82.5416 61.0879 82.4492 61.1096C81.574 61.3216 81.1283 60.7889 80.8076 60.5987C78.7095 59.0007 76.4701 59.8268 75.4265 60.3432C75.4211 60.2671 75.4156 60.1584 75.4428 60.0769C75.4863 59.9627 76.0679 59.4953 76.0679 58.9572C76.0679 58.4191 75.8668 57.7233 75.6439 57.4244C75.6004 57.5222 75.383 57.8701 75.3015 57.9788C75.1602 58.1799 74.3394 58.8865 75.2743 60.0497C75.2852 60.1149 75.2961 60.2834 75.2634 60.4247C75.1819 60.4682 75.0841 60.5171 75.0243 60.5498C74.9917 60.5171 74.7471 60.3106 74.6329 60.0877C74.5079 59.854 73.9589 57.6635 71.5836 58.2669C71.6869 58.3647 72.1326 59.0333 72.3174 59.392C72.5077 59.7507 73.1762 60.5063 74.4481 60.3106C74.5242 60.3106 74.7362 60.4411 74.8721 60.6313C74.8612 60.6367 74.8286 60.653 74.8232 60.6585C74.6329 60.7237 74.1003 60.7835 73.1871 61.0607C72.2685 61.3379 71.9532 62.637 71.9315 63.1044C72.1924 62.9522 72.687 62.9088 73.2143 62.8544C72.899 64.9416 74.546 65.3167 74.546 65.3167C74.546 65.3167 74.9536 65.8928 75.1656 66.1483C75.3776 66.4038 74.7416 66.1483 74.5297 66.1048C73.149 64.7025 71.85 65.6374 71.4858 65.8928C71.8282 65.8928 72.3174 66.681 72.9099 66.8277C73.5078 66.9745 74.2524 66.6538 74.5079 66.5723C74.7634 66.4853 75.2743 66.5071 75.4646 66.5723L75.4809 66.6429ZM79.0194 57.6255C79.1281 57.12 79.0846 56.9895 79.0846 56.9895C79.0846 56.9895 79.2422 56.783 79.4705 56.5655C79.4705 56.6471 79.4923 57.0493 79.514 57.37C79.3238 57.4026 79.1498 57.4896 79.0139 57.62L79.0194 57.6255ZM92.7548 65.0775C92.5863 65.0395 92.358 65.034 92.1243 65.0503C92.4939 64.4416 92.9668 63.8545 93.5212 63.3001C93.6952 63.2838 93.8582 63.2784 94.005 63.2838C94.3094 63.3001 94.5757 63.3708 94.8747 63.5719C94.4453 64.2513 92.9396 65.0123 92.7603 65.0775H92.7548ZM95.266 57.9407C95.4943 58.4788 95.6085 58.9137 95.6574 59.1257C95.7063 59.3485 95.6085 59.5605 95.4943 59.7236C94.9562 60.2019 94.4942 60.5661 94.1626 60.8107C93.8256 60.7237 93.755 60.528 93.6789 60.4193C93.3854 59.4572 93.1408 58.6365 92.9016 57.9081C93.7658 58.3266 94.7062 57.9299 94.8692 57.9081C94.929 57.8972 94.9943 57.8972 95.0541 57.9081C95.141 57.9135 95.2008 57.9299 95.266 57.9462V57.9407ZM96.0759 65.1754C95.9781 65.2623 95.3095 65.6319 95.141 65.6428C95.0106 65.6537 94.2333 65.458 93.5321 66.257C93.4941 65.9852 93.418 65.7624 93.4125 65.7135C93.4506 65.2786 93.8745 64.7188 93.9615 64.6101C94.3964 64.3002 94.7986 63.9904 94.9182 63.8708C94.9997 63.7893 95.0595 63.7621 95.1084 63.7513C95.3421 63.9469 95.603 64.2133 95.9183 64.5938C95.9998 64.6916 96.0651 64.8003 96.114 64.9145C96.1303 65.0177 96.1303 65.1319 96.0814 65.1754H96.0759ZM102.109 62.9414C102.604 63.735 102.903 64.5122 102.914 65.0612C102.936 65.9689 102.783 66.6919 102.571 67.268C100.952 66.3983 101.381 64.9308 101.381 64.9308C101.615 64.4905 102.088 63.8002 102.104 62.9414H102.109ZM99.2557 60.1638C99.31 60.2834 99.3318 60.4139 99.3535 60.4519C99.2448 60.7781 98.9622 61.501 98.9676 62.1424C98.9785 62.7837 99.8971 63.8491 100.049 63.9524C99.9732 63.4143 100.506 62.4685 100.517 61.876C100.528 61.2836 99.8318 60.5878 99.6144 60.4411C99.609 60.4139 99.5981 60.3921 99.5927 60.3704C100.196 60.7509 100.745 61.2401 101.212 61.7619C101.446 62.3054 101.62 63.012 101.457 63.7513C101.305 63.9959 100.365 65.3167 98.2719 64.235C98.1631 64.1698 98.0273 64.0883 97.924 64.023C97.924 64.023 97.924 64.023 97.924 64.0176C97.8696 63.0446 97.2065 62.6696 96.9076 62.5826C96.614 62.5011 96.0487 62.2782 95.9563 62.213C95.8857 64.0122 97.4674 64.1263 97.7392 64.1807C98.0544 64.447 99.5818 65.6048 101.082 64.6372C101.039 64.7079 100.984 64.784 100.93 64.8547C100.555 65.3493 100.272 65.7298 100.06 66.0179C100.055 66.0179 100.028 65.9961 100.028 65.9961C100.028 65.9961 99.9406 66.0505 99.7449 65.9798C99.5492 65.9091 98.0816 64.9199 97.0163 66.5179C97.1304 66.5179 97.7392 66.681 98.0327 66.7897C98.3316 66.8984 99.1198 66.9908 99.7557 66.2081C99.7775 66.1864 99.8645 66.1646 99.9677 66.1537C99.4405 66.8767 99.397 66.9691 99.397 66.9691C99.397 66.9691 98.6089 67.0452 98.2882 67.5344C98.1686 67.7192 98.1088 67.9746 98.0816 68.2301C97.8859 67.9746 97.6903 67.6866 97.4891 67.5398C97.1521 67.2952 96.4673 67.4148 96.2933 67.48C96.1846 67.442 96.0922 67.4311 96.0161 67.4311C96.4347 66.7843 96.614 66.3603 96.6521 65.6156C96.7336 64.072 94.804 62.7348 94.4181 62.4794C94.4344 62.4685 94.4453 62.4522 94.4616 62.4413C94.8529 62.1206 95.3911 61.5662 95.9672 60.9466C96.0542 60.9792 96.1411 61.0226 96.1846 61.0716C96.3042 61.1966 97.0543 62.4848 98.4512 61.6695C98.3643 61.626 97.9675 61.2836 97.7827 61.0933C97.5979 60.9031 97.0326 60.5443 96.2662 60.9031C96.2336 60.9139 96.152 60.8922 96.0596 60.8541C96.4401 60.441 96.8097 60.0116 97.1848 59.5768C97.9077 59.5986 98.6089 59.816 99.2502 60.1693L99.2557 60.1638ZM102.093 57.283C101.555 57.283 100.843 57.1091 100.397 57.1961C99.8155 57.3102 99.2774 58.131 99.1796 58.3756C98.8752 58.5278 98.7447 58.7343 98.6958 58.843C98.6632 58.8267 98.6306 58.805 98.6089 58.7995C98.3697 58.718 98.174 58.6419 98.0273 58.5821C98.4458 58.082 98.8045 57.6418 99.022 57.37C99.1633 57.1906 99.2992 57.0058 99.4296 56.8101C99.6144 56.6145 99.859 56.397 100.087 56.3916C100.212 56.3916 100.451 56.3916 100.778 56.4134C101.963 56.5112 101.881 56.9189 101.973 57.071C102.022 57.1526 102.055 57.2124 102.093 57.283ZM105.969 54.1468C105.811 54.4838 105.746 54.8208 105.746 54.9403C105.67 55.1088 105.295 55.4024 105.039 55.6143C104.784 55.8318 104.512 56.0111 104.061 56.4242C104.033 56.4351 103.974 56.4568 103.919 56.4786C103.827 56.4568 103.735 56.4351 103.631 56.4134C103.169 56.321 102.62 56.2503 102.088 56.1796C102.06 56.0981 102.05 55.9948 102.098 55.9187C102.196 55.7774 102.267 55.6904 102.267 55.6904C102.267 55.6904 103.359 55.5328 103.827 55.1958C104.191 54.9349 104.615 54.3316 104.914 53.7771C105.186 53.9456 105.534 54.0761 105.969 54.1468ZM101.022 52.4291C101.147 52.19 101.299 51.9454 101.392 51.8639C101.636 51.5486 101.892 51.2659 102.147 51.0105C102.207 50.9779 102.294 50.9453 102.403 50.9398C102.517 50.9344 102.647 50.9561 102.772 51.0594C103.099 51.3312 103.838 51.9671 103.838 51.9671C103.854 52.1356 103.925 52.8585 104.49 53.4401C104.05 53.5434 103.463 53.7337 102.946 54.1141C102.011 54.7936 102.169 55.435 102.136 55.5872C102.028 55.7067 101.886 56.0166 101.609 56.1198C100.854 56.0057 100.229 55.8752 100.142 55.6306C100.636 54.6468 100.973 53.5543 101.033 52.4346L101.022 52.4291ZM98.2229 50.9344C98.3262 50.7333 99.4731 49.3798 98.3099 48.0264C98.386 47.972 98.4458 47.9286 98.5002 47.8851L98.7176 48.3308C98.7176 48.3308 98.7067 48.0753 98.8371 47.7383C98.848 47.7166 98.8698 47.684 98.8969 47.6459C98.9078 47.6459 98.9241 47.635 98.935 47.635C98.935 47.635 98.9513 47.635 98.9676 47.635C99.4024 48.5319 99.8155 49.3092 99.9188 49.706C100.131 50.5213 100.354 51.5486 100.038 53.1358C99.734 52.7118 98.9513 51.9019 98.1577 51.266L98.1631 51.2551C98.1631 51.2551 98.1142 51.1464 98.2229 50.929V50.9344ZM95.9346 48.1732C96.614 48.5971 97.2391 48.5319 97.7283 48.3417C97.6522 48.521 97.5761 48.7004 97.5109 48.8309C97.3424 49.1624 97.1304 50.0701 97.9566 50.9126C97.9783 50.9398 97.9946 51.0322 97.9892 51.1355C97.674 50.8909 97.3641 50.6844 97.0869 50.5539C96.6521 50.3474 96.2607 50.1462 95.8857 49.9506C95.8911 49.9234 95.9129 49.8582 95.9129 49.8582C95.9129 49.8582 95.8259 49.7766 95.8476 49.532C95.8585 49.407 96.0487 48.8091 95.9292 48.1677L95.9346 48.1732ZM94.6736 50.0973C94.7116 50.0484 94.891 49.9886 95.0812 49.9777C95.9781 50.4724 96.7771 50.88 97.0597 51.0648C97.6631 51.5051 98.1088 51.94 98.4512 52.3476C98.174 52.5052 97.9077 52.6248 97.6576 52.7064C97.6196 52.7227 97.5381 52.739 97.5 52.7553C96.489 53.0488 95.7607 52.8151 95.6085 52.7227C95.8966 51.0594 94.8203 50.6191 94.4181 50.4398C94.5051 50.3419 94.592 50.2278 94.6736 50.0919V50.0973ZM92.2167 52.228C92.2439 51.7715 92.2222 51.3475 92.1841 50.9507C92.3961 50.9779 92.619 51.0105 92.7711 51.0485C93.0647 51.1138 93.7278 51.1083 94.2931 50.5756C94.3529 51.0105 94.3746 51.5595 94.4507 51.9889C94.5485 52.5705 95.228 52.8096 95.4291 52.8694C96.027 53.3477 96.9402 53.2499 97.6631 53.0488C97.5652 53.1629 97.3913 53.2608 97.3152 53.3369C95.6846 53.4347 96.0379 54.9132 96.0379 54.9132C97.5544 54.7284 97.5109 53.75 97.5544 53.4673C97.5924 53.2227 97.9512 52.989 98.0544 52.9292C98.3806 52.8151 98.5871 52.7172 98.6958 52.6683C99.4242 53.6793 99.4894 54.4892 99.4785 54.8045C98.7556 56.3318 97.5 57.794 96.3368 58.93C96.2118 58.9137 96.2009 58.8376 96.114 58.8213C96.0216 58.5984 95.9292 58.381 95.8259 58.169C95.8476 57.9625 95.9346 57.7559 95.9944 57.7233C97.0597 57.2124 97.1739 56.2883 97.1304 55.9187C97.0869 55.5491 97.0706 54.8099 97.1032 54.6849C94.9888 55.4676 95.7117 57.4081 95.7389 57.6472C95.7607 57.8157 95.7281 57.8864 95.7063 57.9299C95.0704 56.6797 94.3203 55.7611 94.0104 55.4132C93.6245 53.8696 92.6461 53.6793 91.9884 53.6956C92.1298 53.0814 92.2004 52.5542 92.2167 52.2226V52.228ZM91.7221 54.6523C92.4015 55.7394 93.6082 55.6361 93.7332 55.6687C94.4561 56.4025 94.9073 57.1526 95.1954 57.7777C95.0377 57.7722 94.9562 57.6961 94.9182 57.6363C94.3529 56.5982 93.4288 56.5329 93.0592 56.5982C92.8962 56.6253 92.657 56.6525 92.4341 56.6688C92.1841 56.0709 91.9123 55.5491 91.5753 55.0708C91.6297 54.9295 91.6732 54.7881 91.7221 54.6523ZM92.6026 60.7998C92.7711 61.3977 92.5646 61.8597 92.407 62.1097C92.2004 62.2402 91.9993 62.3326 91.733 62.4033C91.6188 62.425 90.9774 62.387 90.9394 61.3053C90.9068 60.3432 90.9503 58.3266 91.1622 56.7938C91.9613 58.4897 92.4559 60.2889 92.5972 60.7998H92.6026ZM90.7274 49.3364C91.5264 50.9779 91.0481 52.7444 90.5752 53.9456C90.385 53.7717 90.1893 53.6032 89.9664 53.4347C89.4555 53.0923 88.9772 52.7716 88.4825 52.4346L88.4934 52.4183C88.4934 52.4183 90.4828 52.0052 89.9556 49.5157C89.8305 49.5592 88.3304 50.2984 88.238 51.3692C88.2108 51.603 88.314 52.0324 88.2488 52.2824C87.727 51.9345 87.2052 51.5812 86.7214 51.2496C86.6943 51.1409 86.6562 50.9833 86.678 50.842C86.7051 50.6517 87.2161 50.0865 87.2161 49.6027C87.6944 49.7984 88.2869 49.9288 88.7761 49.706C89.0152 49.6081 89.4011 49.2385 89.6566 49.2385C89.7218 49.2385 89.8034 49.2385 89.9012 49.2331C89.9664 49.2331 90.0317 49.2331 90.1023 49.2331C90.3143 49.2331 90.548 49.2603 90.7328 49.3418L90.7274 49.3364ZM83.7482 48.7819C83.7972 48.5699 83.9276 48.0318 83.9439 47.2546C84.0091 46.9284 83.933 46.5969 84.1994 46.586C84.4603 46.5751 84.8679 46.7599 84.9767 46.8089C84.9767 46.8197 84.9767 46.8306 84.9767 46.8415C84.9767 47.3578 85.3952 47.7764 85.9116 47.7764C86.4279 47.7764 86.8465 47.3578 86.8465 46.8415C86.8465 46.3251 86.4279 45.9066 85.9116 45.9066C85.493 45.9066 85.1452 46.1838 85.0256 46.5588C84.8571 46.5208 84.4222 46.4175 84.1776 46.3468C84.0146 46.2979 83.933 46.1783 83.8841 46.0696C83.8841 46.0479 83.8841 46.0261 83.8787 46.0044C83.8352 45.6783 83.7809 45.1836 84.0472 44.8575C84.1505 44.8086 84.6016 44.5586 84.8951 44.2107C85.7865 44.8358 86.9334 45.1456 87.1943 45.2434C87.3791 45.3141 87.4879 45.3848 87.5531 45.4445C87.7379 45.912 87.9444 46.7491 88.2162 47.0915C88.401 47.3252 88.8848 47.5046 89.3033 47.6242C89.6566 47.9666 89.9447 48.2221 90.048 48.3362C90.2436 48.5536 90.4013 48.7765 90.5372 48.9994C90.4774 49.0374 90.3958 49.07 90.3034 49.07C90.1186 49.07 89.5642 48.9722 89.5642 48.9722C89.5642 48.9722 88.5152 47.7709 86.9443 48.6678C86.8791 48.5482 86.8084 48.4341 86.7269 48.3362C86.4714 48.0264 86.3301 47.9231 86.3301 47.7383C86.1888 48.021 84.9114 49.7223 86.3573 50.8148C86.4008 50.8692 86.4442 50.9126 86.4551 51.0703C85.4387 50.3691 84.5092 49.7114 83.7428 49.1135C83.7211 49.0537 83.7102 48.9559 83.7482 48.7819ZM82.1611 53.6739C81.9437 53.3749 81.5686 52.739 81.5306 52.614C80.0739 54.337 81.6664 55.6687 81.8078 55.8644C81.9328 56.0329 82.0524 56.5601 82.0904 56.7232C82.0469 56.7884 81.96 56.9297 81.9328 56.9678C81.8839 56.9786 81.7969 57.0113 81.6828 57.0058C81.1501 56.4677 80.6609 55.9513 80.3891 55.598C80.1934 55.348 79.8673 54.8751 79.4814 54.2718C79.4488 54.2065 79.3727 53.9891 79.4542 53.6358C79.552 53.2119 79.8782 52.0487 80.5902 51.8204C80.6881 51.8802 81.0468 52.4998 81.7806 52.4889C82.0687 52.4835 82.3133 52.44 82.5144 52.3748C82.5416 52.4346 82.5687 52.4944 82.6014 52.5433C82.3459 52.7009 82.1665 52.9781 82.1665 53.2988C82.1665 53.788 82.5633 54.1848 83.0525 54.1848C83.5417 54.1848 83.9385 53.788 83.9385 53.2988C83.9385 52.8096 83.5417 52.4128 83.0525 52.4128C82.971 52.4128 82.8894 52.4291 82.8133 52.4509C82.8079 52.44 82.7807 52.3911 82.7427 52.2878C82.922 52.2063 83.0525 52.1139 83.1069 52.0487C83.0851 52.0324 82.9003 51.8041 82.6014 51.5921C82.5579 51.1464 82.5796 50.5322 82.7916 49.7223C82.7916 49.7223 82.8677 49.5538 82.971 49.4614C84.2211 50.5702 85.8409 51.7715 87.4063 52.8096C87.0965 52.7933 86.966 52.7118 86.8791 52.6683C86.2703 51.6736 85.3898 51.8584 85.1343 51.9454C84.8788 52.0324 84.1396 52.2117 83.9983 52.228C84.1831 52.4618 84.357 52.6466 84.5309 52.7988C84.4331 52.9564 82.8894 55.473 82.2154 56.5166C82.1013 56.272 82.0198 55.8644 82.0524 55.8046C82.7264 54.8371 82.3731 53.9783 82.1502 53.6793L82.1611 53.6739ZM82.4818 57.7994C82.3404 57.6255 82.1665 57.3537 82.2861 57.1145C82.335 57.0113 82.5198 56.6797 82.7644 56.2557C82.8514 56.2014 83.1721 56.0057 83.4928 55.9785C83.5797 55.9731 83.7591 55.9676 83.9874 55.9622C84.1668 56.0492 84.4114 56.2503 84.4168 56.3046C84.4385 57.1852 85.0365 57.5439 85.2974 57.6255C85.5637 57.707 86.0692 57.9244 86.1453 57.9842C86.2594 56.3046 84.7158 56.2068 84.5418 56.1525C84.4494 56.1253 84.3516 56.0329 84.2755 55.9513C85.0093 55.9242 86.0583 55.8535 86.7867 55.5872C86.8845 55.6143 87.7651 55.7557 88.2053 55.348C88.6456 54.9349 88.7 54.4675 89.0696 54.3533C88.7 54.2392 87.1128 53.8424 86.6834 55.3317C86.5693 55.4458 85.5202 55.7448 83.4656 55.7448C83.4004 55.7231 83.2427 55.6361 83.1884 55.5274C83.7917 54.4838 84.4929 53.3097 84.7429 52.9727C85.879 53.7989 86.7323 53.0868 86.841 53.0542C86.9715 53.0107 87.1128 52.9944 87.5476 53.0379C87.6509 53.0488 87.727 53.0651 87.7922 53.076C88.151 53.3097 88.5097 53.5326 88.8522 53.7445C89.3142 54.0272 89.7327 54.4675 90.1132 54.9947C89.3631 56.7069 89.0805 57.8429 88.8304 59.4083C88.7978 59.5986 88.7761 59.7127 88.7489 59.8703C88.7217 59.8377 88.6728 59.7725 88.6565 59.5931C88.6347 59.3485 88.9554 57.2993 86.7323 56.9569C86.7867 57.0765 86.9171 57.8048 86.9497 58.1745C86.9824 58.5441 87.2759 59.4246 88.4228 59.7127C88.4934 59.7399 88.651 59.979 88.6945 60.2019C88.5043 61.2727 88.3956 61.5879 88.2869 61.7782C88.1564 62.0119 87.977 62.0336 87.4987 61.7456C87.0204 61.4575 84.6342 59.8323 83.6993 58.968C83.3678 58.6637 82.9275 58.2451 82.4763 57.8048L82.4818 57.7994ZM82.7862 59.7073C83.0579 60.0116 83.3297 60.3106 83.6015 60.5987C83.5145 60.827 83.259 60.9411 82.8079 61.0661C82.7807 60.9846 82.7264 60.7944 82.7318 60.615C82.7318 60.5226 82.8242 60.153 82.7862 59.7073ZM82.2807 62.0554C82.7699 61.4249 83.3351 61.289 83.7754 61.3053C84.0744 61.3162 84.3081 61.4031 84.4331 61.4521C85.1995 62.213 85.9605 62.8979 86.7269 63.4958C87.1345 63.898 88.2597 64.6862 88.1727 66.6049C88.1673 66.7462 88.1619 66.9038 88.1564 67.0506C87.0911 66.5832 86.3627 67.0886 86.1072 67.2408C85.1941 67.1756 84.145 66.9963 82.8949 65.4308C82.7318 65.2243 82.6013 65.0177 82.4926 64.8166C82.4763 64.7025 82.4709 64.5503 82.5524 64.4959C82.6829 64.409 82.922 64.4416 83.0471 64.4959C83.1775 64.5557 83.4167 64.7786 83.5417 65.0503C83.5417 65.2351 83.4167 66.8549 85.5691 67.1213C85.5256 67.0234 85.3843 66.7843 85.3735 66.6266C85.3571 66.469 85.2321 65.0232 83.8406 64.9253C83.7809 64.8655 83.3732 64.5014 83.5145 64.4579C83.6558 64.4144 83.7537 64.4579 83.8406 64.4851C83.9276 64.5122 85.3571 66.045 87.2759 64.4851C87.2161 64.4579 86.8084 64.3437 86.6671 64.2459C86.5258 64.1481 85.4061 63.1968 83.8733 64.1589C83.7537 64.2078 82.7155 64.2839 82.2426 64.1915C81.9382 63.1479 82.2154 62.2674 82.2807 62.05V62.0554ZM74.9156 65.2025C75.2798 63.9252 74.6166 63.3273 74.2579 63.0936C74.1437 63.0175 74.0078 62.9196 73.872 62.8272C74.5623 62.6642 74.8558 61.0063 74.9591 60.9248C75.0623 60.8705 75.1602 60.8324 75.258 60.7835L75.4048 61.0607C75.4048 61.0607 74.4046 62.7022 76.5571 63.5773C76.5571 63.4741 76.6495 62.849 76.6441 62.3217C76.6441 62.0336 76.231 61.0661 75.5243 61.0226L75.4265 60.7074C76.5299 60.2019 77.3833 59.9899 78.0627 59.9627C78.1443 59.9627 78.2203 59.9627 78.2964 59.9627C79.4379 59.9953 80.0902 60.5606 80.7315 61.0118C81.4273 61.5064 81.5686 62.2185 81.5958 62.6859C81.5251 62.8055 81.449 62.9251 81.3838 63.0447C81.2534 63.0773 80.7207 63.224 80.1499 63.5121C79.9923 63.3925 79.9108 63.2295 79.9162 63.1588C80.1499 62.0445 79.5086 61.414 79.1987 61.2292C78.8889 61.0444 78.3182 60.6259 78.2367 60.528C77.5953 62.6098 79.5086 63.1914 79.7097 63.3164C79.8727 63.4143 79.938 63.5556 79.9597 63.6154C79.9271 63.6317 79.8945 63.648 79.8619 63.6697C79.7151 63.7567 79.4107 63.9469 79.4107 63.9469C79.4107 63.9469 77.829 63.1642 76.8941 65.1101C76.8452 65.1427 76.818 65.4145 77.2365 65.3873C77.6551 65.3547 78.9052 65.545 79.5086 64.197C79.6281 64.1209 80.1119 63.5991 81.237 63.3056C80.7587 64.2241 80.4108 65.2515 80.1934 66.3331C79.9978 67.3224 78.1714 67.2191 76.8887 66.893C76.5788 66.556 76.6169 66.1972 76.5517 66.0505C76.9484 64.8003 75.7309 64.2459 75.5189 64.1209C75.3613 66.0342 76.3397 66.1374 76.3397 66.1374C76.3397 66.1374 76.481 66.5071 76.5408 66.6756C76.5571 66.7299 76.5571 66.768 76.5517 66.7951C76.1929 66.681 75.9048 66.556 75.7472 66.4418C75.2145 65.8657 75.0895 65.5287 74.9156 65.208V65.2025Z" fill="#545454"/>
</g>
<defs>
<clipPath id="clip0_2083_12104">
<rect width="84" height="84" fill="white" transform="translate(54 12)"/>
</clipPath>
</defs>
</svg>
