<svg width="192" height="108" viewBox="0 0 192 108" fill="none" xmlns="http://www.w3.org/2000/svg">
<g clip-path="url(#clip0_2089_4322)">
<path d="M47.6433 65.7777C47.6433 65.0277 47.2569 64.7499 46.5946 64.7499C45.4354 64.8333 44.5522 65.8611 44.6626 67.0555C44.6626 67.0555 44.6626 67.0555 44.6626 67.0833C44.6626 68.0555 45.1594 68.7777 46.0426 68.7777C46.429 68.7777 46.6774 68.6666 46.7326 68.3055L46.8706 67.6944C46.9534 67.1944 46.9258 67.1944 46.291 67.111L46.3462 66.9444H48.0021L47.9469 67.111C47.5881 67.1666 47.5605 67.1944 47.4501 67.6944L47.3397 68.2222C47.3121 68.3888 47.2845 68.5833 47.3121 68.7499C46.8706 68.8888 46.4014 68.9722 45.9322 68.9999C44.9662 69.111 44.0831 68.3888 43.9727 67.4166C43.9727 67.3055 43.9727 67.2222 43.9727 67.111C43.9727 65.6666 45.1318 64.4999 46.567 64.4999C46.6222 64.4999 46.705 64.4999 46.7602 64.4999C47.1465 64.4999 47.5329 64.5833 47.9193 64.6944C47.8917 64.8888 47.8641 65.2777 47.8365 65.7499H47.6433V65.7777Z" fill="#545454"/>
<path d="M48.5542 66.5833C48.775 66.2777 49.1062 66.0277 49.4926 65.9166C49.6582 65.9166 49.6858 66.1944 49.5754 66.6944L49.5202 67.0277H49.5478C49.879 66.3888 50.2653 65.9444 50.5137 65.9444C50.6241 65.9444 50.7345 66 50.7897 66.1111C50.8449 66.1944 50.8449 66.3333 50.7897 66.4166C50.7345 66.5 50.6793 66.5555 50.5965 66.6111C50.5413 66.6666 50.4861 66.6666 50.4585 66.6111C50.4033 66.5277 50.3205 66.5 50.2377 66.5C50.1549 66.5 50.0721 66.5555 49.9342 66.7777C49.7686 67.0277 49.6306 67.3055 49.4926 67.5833C49.3822 68 49.2994 68.4444 49.2166 68.8611C49.051 68.8888 48.8578 68.9444 48.6922 69L48.637 68.9444C48.8026 68.25 48.9958 67.4444 49.1062 66.75C49.1338 66.5277 49.1338 66.4722 49.1062 66.4722C48.9406 66.5277 48.775 66.6388 48.6646 66.7777L48.5542 66.5833Z" fill="#545454"/>
<path d="M53.9911 68.2777C53.7427 68.6111 53.4116 68.8611 52.9976 68.9722C52.8596 68.9722 52.7768 68.8888 52.8596 68.3611L52.97 67.7777C52.7492 68.1111 52.4732 68.4166 52.1696 68.6666C52.004 68.8333 51.7832 68.9444 51.5348 68.9722C51.3416 68.9722 51.1484 68.75 51.1484 68.2222C51.1484 67.5555 51.4244 66.9166 51.9212 66.4444C52.28 66.1388 52.7216 65.9444 53.1908 65.9166C53.3288 65.9166 53.4668 65.9166 53.6048 65.9722C53.6876 66 53.7979 66.0277 53.8807 66H53.9083C53.7979 66.4722 53.6048 67.3333 53.4668 68.1666C53.4392 68.3888 53.4392 68.4444 53.4668 68.4444C53.6324 68.3611 53.7979 68.25 53.9359 68.1111L53.9911 68.2777ZM53.0804 67.3055C53.1632 67.0277 53.246 66.5277 53.3012 66.3333C53.1632 66.2777 53.0252 66.25 52.8872 66.25C52.7216 66.25 52.5836 66.3055 52.4456 66.3888C51.9764 66.8611 51.728 67.4722 51.7556 68.1388C51.7556 68.4166 51.8384 68.5555 51.9212 68.5555C52.1696 68.5277 52.8872 67.7222 53.0804 67.3055Z" fill="#545454"/>
<path d="M56.7511 68.25C56.4199 68.6666 55.9507 68.9444 55.4263 69C54.9847 69 54.7087 68.6666 54.7087 68.0277C54.7087 67.4166 54.9571 66.8611 55.3987 66.4444C55.6747 66.1666 56.0611 66 56.4475 65.9444C56.7235 65.9444 56.9719 66.1111 56.9719 66.2777C56.9719 66.4166 56.8891 66.5555 56.7511 66.6111C56.6959 66.6388 56.6407 66.6388 56.6131 66.5833C56.5303 66.3888 56.3371 66.2777 56.1163 66.2777C55.8955 66.2777 55.7299 66.4444 55.5919 66.6944C55.3987 67.0555 55.3159 67.4722 55.3159 67.8888C55.3159 68.3611 55.4815 68.5833 55.7575 68.5833C56.0887 68.5277 56.4199 68.3611 56.6407 68.1111L56.7511 68.25Z" fill="#545454"/>
<path d="M59.6764 68.2222C59.3452 68.6666 58.8208 68.9722 58.2689 69C57.9377 69 57.5237 68.8055 57.5237 68.0277C57.5237 67.3611 57.8273 66.75 58.3241 66.3333C58.6 66.1111 58.9036 65.9722 59.2624 65.9444C59.566 65.9444 59.8144 66.1666 59.842 66.4722C59.842 67.1388 58.7656 67.4722 58.1309 67.6388V67.8333C58.1309 68.1944 58.2413 68.5555 58.6276 68.5555C58.9864 68.5 59.3452 68.3333 59.5936 68.0555L59.6764 68.2222ZM58.738 66.2777C58.3792 66.5555 58.1585 66.9722 58.1585 67.4166C59.0416 67.1666 59.3176 66.8611 59.3176 66.5555C59.3176 66.3888 59.2072 66.2222 59.0416 66.1944C58.9312 66.2222 58.8484 66.25 58.7656 66.2777H58.738Z" fill="#545454"/>
<path d="M65.141 68.2777C64.8927 68.6111 64.5615 68.8611 64.1475 68.9722C64.0095 68.9722 63.9267 68.8888 64.0095 68.3611L64.1199 67.7777C63.8991 68.1111 63.6231 68.4166 63.3195 68.6666C63.1539 68.8333 62.9331 68.9444 62.6847 68.9722C62.4915 68.9722 62.2983 68.75 62.2983 68.2222C62.2983 67.5555 62.5743 66.9166 63.0711 66.4444C63.4299 66.1388 63.8715 65.9444 64.3407 65.9166C64.4787 65.9166 64.6167 65.9166 64.7547 65.9722C64.8375 66 64.9478 66.0277 65.0306 66H65.0582C64.9478 66.4722 64.7547 67.3333 64.6167 68.1666C64.5891 68.3888 64.5891 68.4444 64.6167 68.4444C64.7823 68.3611 64.9478 68.25 65.0858 68.1111L65.141 68.2777ZM64.2027 67.3055C64.2855 67.0277 64.3683 66.5277 64.4235 66.3333C64.2855 66.2777 64.1475 66.25 64.0095 66.25C63.8439 66.25 63.7059 66.3055 63.5679 66.3888C63.0987 66.8611 62.8503 67.4722 62.8779 68.1388C62.8779 68.4166 62.9607 68.5555 63.0435 68.5555C63.2919 68.5277 64.0095 67.7222 64.2027 67.3055Z" fill="#545454"/>
<path d="M68.7842 68.3333C68.5358 68.6666 68.2046 68.8888 67.8182 69C67.6526 69 67.5698 68.8333 67.7078 68.3055C67.8182 67.8333 67.9286 67.3333 68.039 66.8611C68.1218 66.5 68.0942 66.3888 67.9838 66.3888C67.7078 66.3888 66.9902 67.1944 66.659 67.7222C66.5762 68.0555 66.4934 68.4722 66.383 68.8611C66.2174 68.8888 66.0243 68.9444 65.8587 69L65.8035 68.9444C65.9967 68.25 66.1623 67.4722 66.3278 66.7222C66.383 66.5 66.3554 66.4722 66.3278 66.4722C66.1623 66.5277 66.0243 66.6388 65.9139 66.7777V66.5833C66.1347 66.2777 66.4658 66.0555 66.8522 65.9444C67.0178 65.9444 67.0454 66.1666 66.9074 66.6944L66.7694 67.2222C67.073 66.7777 67.4594 66.3888 67.9286 66.1111C68.0666 66.0277 68.2046 65.9722 68.3702 65.9444C68.5358 65.9444 68.729 66.0555 68.5358 66.8888C68.4254 67.3333 68.3426 67.7777 68.2322 68.2222C68.177 68.3888 68.2046 68.4722 68.2322 68.4722C68.3978 68.4166 68.5358 68.3055 68.6462 68.1666L68.7842 68.3333Z" fill="#545454"/>
<path d="M72.51 68.3055C72.2616 68.6388 71.9304 68.8888 71.5164 68.9722C71.3784 68.9722 71.268 68.8611 71.3784 68.3611L71.4888 67.8333C71.2404 68.1666 70.9644 68.4444 70.6608 68.6944C70.4952 68.8611 70.2744 68.9722 70.0261 68.9999C69.7777 68.9999 69.5845 68.7499 69.5845 68.1944C69.5845 67.5277 69.8605 66.8888 70.3572 66.4444C70.6884 66.1666 71.1024 65.9999 71.5164 65.9444C71.6544 65.9444 71.7648 65.9444 71.9028 65.9999L72.1236 64.9444C72.1788 64.6388 72.1512 64.6111 71.8752 64.6111H71.682V64.4444C72.0684 64.3888 72.4272 64.3333 72.7584 64.2222C72.8136 64.2222 72.8412 64.2777 72.8136 64.4166C72.51 65.7222 72.234 66.9722 72.0132 68.2499C71.9856 68.4166 71.9856 68.4722 72.0408 68.4722C72.234 68.4166 72.372 68.2777 72.51 68.1388V68.3055ZM71.5716 67.3333L71.7648 66.3888C71.6268 66.2777 71.4336 66.2222 71.2404 66.2222C71.1024 66.2222 70.9368 66.2777 70.8264 66.3611C70.3848 66.8055 70.1365 67.4166 70.1365 68.0555C70.1365 68.3888 70.2193 68.5277 70.3296 68.5277C70.6884 68.5277 71.3784 67.7499 71.5716 67.3333Z" fill="#545454"/>
<path d="M79.1338 64.4722C79.0786 64.75 79.0234 65.2777 78.9683 65.6388H78.7475C78.7475 65.4444 78.7475 65.2222 78.6647 65.0277C78.6095 64.8888 78.4439 64.8333 77.9747 64.8333H77.5883L76.9811 68.0833C76.8983 68.6111 76.9259 68.6666 77.5331 68.6944V68.8888H75.6564L75.7116 68.6944C76.2635 68.6666 76.3187 68.5833 76.4015 68.0833L77.0087 64.8333H76.6775C76.1255 64.8333 76.0152 64.8888 75.8772 65.0277C75.7392 65.1944 75.6288 65.4166 75.546 65.6111H75.3804C75.4908 65.2222 75.6012 64.8333 75.684 64.4166H75.822C75.8772 64.5555 75.96 64.5833 76.1255 64.5833H78.6095C78.6095 64.5833 78.8855 64.5277 78.9407 64.4166H79.1338V64.4722Z" fill="#545454"/>
<path d="M78.9131 66.5833C79.1339 66.2777 79.4651 66.0277 79.8515 65.9166C80.017 65.9166 80.0446 66.1944 79.9342 66.6944L79.8791 67.0277H79.9066C80.2378 66.3888 80.6242 65.9444 80.8726 65.9444C80.983 65.9444 81.0934 66 81.1486 66.1111C81.2038 66.1944 81.2038 66.3333 81.1486 66.4166C81.0934 66.5 81.0382 66.5555 80.9554 66.6111C80.9002 66.6666 80.845 66.6666 80.8174 66.6111C80.7622 66.5277 80.6794 66.5 80.5966 66.5C80.5138 66.5 80.431 66.5555 80.293 66.7777C80.1274 67.0277 79.9894 67.3055 79.8515 67.5833C79.7411 68 79.6583 68.4444 79.5755 68.8611C79.4099 68.8888 79.2167 68.9444 79.0511 69L78.9959 68.9444C79.1615 68.25 79.3547 67.4444 79.4651 66.75C79.4927 66.5277 79.4927 66.4722 79.4651 66.4722C79.2995 66.5277 79.1339 66.6388 79.0235 66.7777L78.9131 66.5833Z" fill="#545454"/>
<path d="M84.7641 68.3055C84.5158 68.6388 84.157 68.8888 83.7706 69C83.605 69 83.5222 68.8611 83.6602 68.3055C83.7154 68.1111 83.743 67.9444 83.7706 67.75C83.4946 68.1666 83.1358 68.5277 82.7218 68.8055C82.5838 68.9166 82.3906 69 82.1974 69C82.0042 69 81.811 68.8611 81.9766 68.1388C82.087 67.6666 82.1974 67.1666 82.3078 66.6666C82.3354 66.5 82.3354 66.4444 82.3078 66.4444C82.1422 66.5277 82.0042 66.6111 81.8662 66.75L81.7834 66.5833C82.0318 66.2777 82.3906 66.0555 82.777 65.9444C82.9426 65.9444 82.9702 66.0833 82.8598 66.5277C82.7494 67.0277 82.6114 67.5555 82.501 68.0833C82.4182 68.4166 82.4734 68.5277 82.5838 68.5277C82.9426 68.5277 83.6326 67.6666 83.881 67.2222C83.9638 66.8888 84.0466 66.5277 84.1294 66.1111L84.6262 65.9444H84.709C84.5434 66.6388 84.3502 67.3611 84.2122 68.2222C84.1846 68.4444 84.1846 68.5 84.2398 68.5C84.4054 68.4166 84.571 68.3055 84.709 68.1666L84.7641 68.3055Z" fill="#545454"/>
<path d="M87.248 66.2777H86.6132L86.2268 68.0833C86.1716 68.4166 86.1992 68.4722 86.2544 68.4722C86.4752 68.3888 86.6684 68.2499 86.834 68.0833L86.9168 68.2222C86.6408 68.5833 86.282 68.8333 85.8404 68.9444C85.6748 68.9444 85.5368 68.7499 85.6748 68.0555L86.0612 66.2777H85.592V66.2222L85.73 65.9999H86.1164L86.2544 65.3888L86.8064 64.9722L86.8616 65.0277L86.6408 66.0277H87.386L87.248 66.2777Z" fill="#545454"/>
<path d="M90.6702 68.3333C90.4218 68.6666 90.063 68.8888 89.6766 68.9722C89.511 68.9722 89.4558 68.7777 89.5386 68.3055L89.8974 66.8055C89.9802 66.4722 89.925 66.3611 89.8422 66.3611C89.5662 66.3611 88.8486 67.0555 88.5174 67.6111C88.4346 67.9166 88.3242 68.5277 88.269 68.8333C88.1034 68.8611 87.9102 68.9166 87.7446 68.9722L87.6895 68.9166C87.9654 67.6388 88.2414 66.3333 88.4898 64.9722C88.545 64.6388 88.5174 64.6111 88.269 64.6111H88.1034V64.4444C88.4622 64.3888 88.7934 64.3333 89.1246 64.2222C89.1798 64.2222 89.2074 64.2777 89.1522 64.4444L88.5726 67.1388C88.8762 66.6944 89.2902 66.3333 89.7594 66.0833C89.8974 65.9999 90.063 65.9444 90.2286 65.9444C90.3942 65.9444 90.5874 66.0555 90.4218 66.8055L90.0906 68.2222C90.063 68.4166 90.063 68.4722 90.1182 68.4722C90.2838 68.4166 90.4218 68.3055 90.5598 68.1944L90.6702 68.3333Z" fill="#545454"/>
<path d="M51.2588 46.0555C51.0932 46.7222 50.8448 47.3611 50.5689 47.9722C49.8237 48.1666 49.0785 48.2777 48.3057 48.3055C46.0978 48.5277 44.1107 46.8889 43.9175 44.6389C43.9175 44.5 43.9175 44.3611 43.9175 44.2222C43.9175 41.8333 45.8494 39.8889 48.2505 39.8889C48.3885 39.8889 48.5265 39.8889 48.6645 39.8889C49.3821 39.9166 50.1273 40.0277 50.8172 40.2222C50.9276 40.9166 51.0104 41.4166 51.0656 42.1111L50.6792 42.1944C50.5413 41.0555 49.4925 40.2222 48.3609 40.3611C46.5946 40.4444 45.2146 41.9444 45.2698 43.7222C45.2698 43.8055 45.2698 43.8611 45.2698 43.9444C45.2698 46.2222 46.567 47.8055 48.4161 47.8055C49.6305 47.8055 50.2929 47.1389 50.9 45.9166L51.2588 46.0277V46.0555Z" fill="#545454"/>
<path d="M59.4281 44.9166C59.4833 46.7222 58.1034 48.25 56.3094 48.3055C56.2266 48.3055 56.1714 48.3055 56.0886 48.3055C54.3223 48.4166 52.8043 47.0555 52.694 45.2777C52.694 45.2222 52.694 45.1666 52.694 45.1111C52.6388 43.2777 54.0463 41.75 55.8678 41.6944C55.9506 41.6944 56.0058 41.6944 56.0886 41.6944C57.8274 41.5833 59.3177 42.9166 59.4281 44.6388C59.4281 44.7222 59.4281 44.8055 59.4281 44.9166ZM54.0739 44.8055C54.0739 46.5833 54.9571 47.8333 56.199 47.8333C57.165 47.8333 58.0482 47.1111 58.0482 45.1666C58.0482 43.6388 57.2754 42.1111 55.9506 42.1111C54.9847 42.1111 54.0739 43.0277 54.0739 44.8055Z" fill="#545454"/>
<path d="M66.4383 46.3333C66.3555 46.75 66.1623 47.8055 66.0519 48.1111H60.946V47.7222C61.8844 47.6389 61.9396 47.5833 61.9396 46.6111V43.2778C61.9396 42.3333 61.8568 42.2778 61.0012 42.2222V41.8611H64.1475V42.25C63.2368 42.3055 63.154 42.3333 63.154 43.3055V46.75C63.154 47.2222 63.2092 47.4722 63.4024 47.5555C63.7059 47.6389 64.0371 47.6944 64.3683 47.6666C64.9479 47.6666 65.3067 47.5833 65.5275 47.3055C65.7483 47 65.9139 46.6389 66.0243 46.2778L66.4383 46.3333Z" fill="#545454"/>
<path d="M74.6076 44.9166C74.6628 46.7222 73.2828 48.25 71.4889 48.3055C71.4061 48.3055 71.3509 48.3055 71.2681 48.3055C69.5017 48.4166 67.9838 47.0555 67.8734 45.2777C67.8734 45.2222 67.8734 45.1666 67.8734 45.1111C67.8182 43.2777 69.2257 41.75 71.0473 41.6944C71.1301 41.6944 71.1853 41.6944 71.2681 41.6944C73.0068 41.5833 74.4972 42.9166 74.6076 44.6388C74.6076 44.7222 74.6076 44.8055 74.6076 44.9166ZM69.2257 44.8055C69.2257 46.5833 70.1089 47.8333 71.3509 47.8333C72.3168 47.8333 73.2 47.1111 73.2 45.1666C73.2 43.6388 72.4272 42.1111 71.1025 42.1111C70.1641 42.1111 69.2257 43.0277 69.2257 44.8055Z" fill="#545454"/>
<path d="M82.5836 48.1944H82.2525C81.4797 48.3055 80.7345 47.9722 80.2929 47.3333C79.9893 46.8889 79.6857 46.4167 79.4373 45.9167C79.2166 45.5278 79.0786 45.4444 78.5818 45.4444H78.3058V46.6667C78.3058 47.5833 78.3886 47.6667 79.2442 47.75V48.1111H76.1807V47.7222C77.0362 47.6667 77.119 47.5833 77.119 46.6389V43.3055C77.119 42.3333 77.0362 42.3055 76.2083 42.25V41.8611H79.2718C79.8237 41.8333 80.3757 41.9444 80.8725 42.1944C81.3141 42.4722 81.5901 42.9444 81.5625 43.4722C81.5625 44.2222 81.0105 44.8889 80.2929 45.0833C80.4585 45.3889 80.8725 46.0555 81.1761 46.5C81.3969 46.8333 81.6453 47.1667 81.9213 47.4444C82.1145 47.6389 82.3629 47.7778 82.6388 47.8611L82.5836 48.1944ZM78.8302 45C79.1614 45 79.4925 44.9444 79.7961 44.7778C80.1549 44.5278 80.3481 44.1111 80.3205 43.6667C80.3757 42.9722 79.8513 42.3611 79.1614 42.3055C79.0786 42.3055 79.0234 42.3055 78.9406 42.3055C78.4162 42.3055 78.3334 42.4167 78.3334 42.8055V45H78.8302Z" fill="#545454"/>
<path d="M87.9103 48.1111V47.7222H88.1587C88.5451 47.6389 88.6279 47.5277 88.4623 47.0555L88.0759 46.1111H85.9232C85.8128 46.3889 85.7024 46.6666 85.592 47.0277C85.454 47.5277 85.592 47.6389 85.9784 47.6944L86.3096 47.75V48.1111H83.8809V47.7222C84.488 47.6389 84.7364 47.5555 85.1228 46.6111L87.1375 41.75L87.6067 41.6389L89.7043 46.8055C90.0079 47.5555 90.2562 47.6389 90.8634 47.6944V48.1111H87.9103ZM86.9996 43.25L86.0888 45.5833H87.8551L86.9996 43.25Z" fill="#545454"/>
<path d="M95.5277 41.8611C96.5488 41.7777 97.5424 42.0833 98.3428 42.7222C98.8947 43.2499 99.1983 43.9999 99.1707 44.7777C99.1707 47.0833 97.3216 48.1111 95.1137 48.1111H92.3538V47.7222C93.2093 47.6666 93.3197 47.5833 93.3197 46.6388V43.3333C93.3197 42.3611 93.2369 42.3055 92.4366 42.2499V41.8611H95.5277ZM94.5065 46.6111C94.5065 47.4444 94.7273 47.6666 95.4449 47.6666C96.9628 47.6666 97.7908 46.6111 97.7908 44.9722C97.7908 43.0277 96.742 42.3055 95.3345 42.3055C94.9481 42.3055 94.6997 42.3611 94.6169 42.4722C94.5341 42.5833 94.5065 42.7499 94.5065 43.0833V46.6111Z" fill="#545454"/>
<path d="M107.809 44.9166C107.864 46.7222 106.484 48.25 104.691 48.3055C104.608 48.3055 104.553 48.3055 104.47 48.3055C102.703 48.4166 101.185 47.0555 101.075 45.2777C101.075 45.2222 101.075 45.1666 101.075 45.1111C101.02 43.2777 102.427 41.75 104.249 41.6944C104.332 41.6944 104.387 41.6944 104.47 41.6944C106.208 41.5833 107.699 42.9166 107.809 44.6388C107.809 44.7222 107.809 44.8055 107.809 44.9166ZM102.455 44.8055C102.455 46.5833 103.338 47.8333 104.58 47.8333C105.546 47.8333 106.429 47.1111 106.429 45.1666C106.429 43.6388 105.656 42.1111 104.332 42.1111C103.366 42.1111 102.455 43.0277 102.455 44.8055Z" fill="#545454"/>
<path d="M120.615 46.0555C120.45 46.6944 120.201 47.3333 119.925 47.9444C119.18 48.1389 118.435 48.25 117.662 48.2778C115.454 48.5 113.467 46.8611 113.274 44.6111C113.274 44.4722 113.274 44.3333 113.274 44.1944C113.274 41.8055 115.206 39.8611 117.607 39.8611C117.745 39.8611 117.883 39.8611 118.021 39.8611C118.739 39.8889 119.484 40 120.174 40.1944C120.284 40.8889 120.367 41.3889 120.422 42.0833L120.036 42.1666C119.87 41 118.821 40.1944 117.662 40.3333C115.896 40.4166 114.516 41.9166 114.571 43.6944C114.571 43.7778 114.571 43.8333 114.571 43.9166C114.571 46.1944 115.868 47.7778 117.717 47.7778C118.932 47.7778 119.594 47.1111 120.201 45.8889L120.615 46.0278V46.0555Z" fill="#545454"/>
<path d="M126.411 48.1111V47.7222C127.239 47.6389 127.322 47.5833 127.322 46.6111V45.0833H124.313V46.6389C124.313 47.6111 124.369 47.6944 125.169 47.75V48.1111H122.161V47.7222C123.016 47.6666 123.099 47.5833 123.099 46.6111V43.3333C123.099 42.3611 123.016 42.3055 122.105 42.2222V41.8611H125.169V42.25C124.369 42.3055 124.286 42.3611 124.286 43.3611V44.5555H127.294V43.3333C127.294 42.3611 127.211 42.3055 126.411 42.2222V41.8611H129.419V42.2222C128.591 42.3055 128.481 42.3611 128.481 43.3611V46.6389C128.481 47.6111 128.564 47.6666 129.419 47.75V48.1111H126.411Z" fill="#545454"/>
<path d="M137.589 48.1944H137.258C136.485 48.3055 135.74 47.9722 135.298 47.3333C134.994 46.8889 134.691 46.4167 134.442 45.9167C134.222 45.5278 134.084 45.4444 133.587 45.4444H133.311V46.6667C133.311 47.5833 133.394 47.6667 134.249 47.75V48.1111H131.186V47.7222C132.041 47.6667 132.124 47.5833 132.124 46.6389V43.3055C132.124 42.3333 132.041 42.3055 131.213 42.25V41.8611H134.277C134.829 41.8333 135.381 41.9444 135.878 42.1944C136.319 42.4722 136.595 42.9444 136.568 43.4722C136.568 44.2222 136.016 44.8889 135.298 45.0833C135.464 45.3889 135.878 46.0555 136.181 46.5C136.402 46.8333 136.65 47.1667 136.926 47.4444C137.12 47.6389 137.368 47.7778 137.644 47.8611L137.589 48.1944ZM133.835 45C134.166 45 134.498 44.9444 134.801 44.7778C135.16 44.5278 135.353 44.1111 135.326 43.6667C135.381 42.9722 134.856 42.3611 134.166 42.3055C134.084 42.3055 134.028 42.3055 133.946 42.3055C133.421 42.3055 133.339 42.4167 133.339 42.8055V45H133.835Z" fill="#545454"/>
<path d="M138.913 48.1111V47.7222C139.741 47.6389 139.852 47.5833 139.852 46.6389V43.3333C139.852 42.3611 139.769 42.3055 138.913 42.25V41.8611H141.977V42.25C141.121 42.3055 141.038 42.3611 141.038 43.3333V46.6389C141.038 47.5833 141.094 47.6389 141.977 47.7222V48.1111H138.913Z" fill="#545454"/>
<path d="M147.524 43.6111C147.248 42.8055 146.834 42.1388 146.061 42.1388C145.537 42.1388 145.096 42.5277 145.068 43.0555C145.068 43.0555 145.068 43.0833 145.068 43.1111C145.068 43.8055 145.592 44.0555 146.199 44.3055L146.475 44.4166C147.414 44.8055 148.214 45.2499 148.214 46.3333C148.131 47.4999 147.138 48.3888 145.979 48.3055C145.923 48.3055 145.896 48.3055 145.841 48.3055C145.234 48.3055 144.626 48.1388 144.074 47.8333C143.992 47.5833 143.854 46.8055 143.743 46.1388L144.13 46.0555C144.378 46.8333 144.985 47.8888 146.006 47.8888C146.558 47.9166 147.055 47.4722 147.083 46.9166C147.083 46.8888 147.083 46.8611 147.083 46.8333C147.083 46.1388 146.586 45.8611 146.006 45.6111L145.675 45.4722C144.93 45.1388 143.992 44.6666 143.992 43.6388C143.992 42.4999 144.847 41.7222 146.255 41.7222C146.724 41.7222 147.221 41.8333 147.662 41.9999C147.745 42.3888 147.8 42.8888 147.883 43.5833H147.524V43.6111Z" fill="#545454"/>
<path d="M155.39 43.6111C155.335 43.25 155.197 42.9166 155.004 42.6111C154.838 42.3889 154.562 42.3055 153.982 42.3055H153.403V46.6111C153.403 47.5833 153.486 47.6389 154.452 47.7222V48.1111H151.195V47.7222C152.106 47.6666 152.188 47.5833 152.188 46.6111V42.3055H151.802C151.002 42.3055 150.808 42.3889 150.615 42.6389C150.422 42.9166 150.312 43.25 150.257 43.5833H149.87C149.87 42.7778 149.981 42.0833 149.981 41.6111H150.284C150.422 41.8055 150.56 41.8333 150.836 41.8333H154.866C155.059 41.8611 155.252 41.7778 155.362 41.6111H155.666C155.666 42.0278 155.721 42.9722 155.776 43.5555L155.39 43.6111Z" fill="#545454"/>
<path d="M157.488 48.1111V47.7222C158.316 47.6389 158.426 47.5833 158.426 46.6389V43.3333C158.426 42.3611 158.343 42.3055 157.488 42.25V41.8611H160.551V42.25C159.695 42.3055 159.613 42.3611 159.613 43.3333V46.6389C159.613 47.5833 159.668 47.6389 160.551 47.7222V48.1111H157.488Z" fill="#545454"/>
<path d="M165.905 48.1111V47.7222H166.154C166.54 47.6389 166.623 47.5277 166.457 47.0555L166.071 46.0833H163.918C163.808 46.3611 163.697 46.6389 163.587 47C163.449 47.5 163.587 47.6111 163.973 47.6666L164.304 47.7222V48.1111H161.876V47.7222C162.483 47.6389 162.731 47.5555 163.118 46.6111L165.132 41.75L165.602 41.6389L167.699 46.8055C168.003 47.5555 168.251 47.6389 168.858 47.6944V48.1111H165.905ZM165.022 43.25L164.111 45.5833H165.878L165.022 43.25Z" fill="#545454"/>
<path d="M176.973 42.25C176.338 42.25 176.089 42.3889 176.062 42.8055C176.007 43.3889 175.979 43.9444 175.979 44.5278V48.1666H175.482L171.453 43.3055V45.3889C171.453 45.9722 171.453 46.5278 171.536 47.1111C171.591 47.5278 171.839 47.6389 172.584 47.6944V48.1111H169.962V47.7222C170.57 47.6666 170.818 47.5555 170.873 47.1389C170.928 46.5555 170.956 46 170.956 45.4166V43.6111C170.956 42.5 170.735 42.3055 169.797 42.25V41.8611H171.729L175.455 46.1666V44.5278C175.455 43.9722 175.455 43.3889 175.372 42.8333C175.372 42.3889 175.096 42.2778 174.351 42.25V41.8611H176.973V42.25Z" fill="#545454"/>
<path d="M52.5007 52.75C51.7831 52.8055 51.5072 52.9722 51.4244 53.4722C51.3692 54.1111 51.3416 54.7777 51.3416 55.4166V56.5C51.452 57.6389 51.1208 58.8055 50.4308 59.7222C49.8512 60.3055 49.0508 60.6111 48.2229 60.5833C47.5053 60.6111 46.8153 60.3889 46.2357 59.9722C45.4354 59.2222 45.0214 58.1389 45.1594 57.0555V54C45.1594 52.8889 45.049 52.8333 44.083 52.7222V52.3889H47.3397V52.75C46.4289 52.8333 46.3185 52.8889 46.3185 54V56.7777C46.3185 58.75 47.0637 59.8611 48.5541 59.8611C50.2652 59.8611 50.8172 58.4444 50.8172 56.3889V55.4166C50.8172 54.75 50.8172 54.1111 50.7344 53.4444C50.6516 52.9722 50.4032 52.8055 49.5476 52.75V52.3889H52.4731V52.75H52.5007Z" fill="#545454"/>
<path d="M60.7253 54.5277C60.0905 54.5277 59.8421 54.6666 59.8145 55.0833C59.7593 55.6666 59.7317 56.2222 59.7317 56.8055V60.4444H59.235L55.2055 55.5833V57.6666C55.2055 58.25 55.2055 58.8055 55.2883 59.3889C55.3435 59.8055 55.5919 59.9166 56.3371 59.9722V60.3889H53.7152V60C54.3223 59.9444 54.5707 59.8333 54.6259 59.4166C54.6811 58.8333 54.7087 58.2777 54.7087 57.6944V55.8889C54.7087 54.7777 54.4879 54.5833 53.5496 54.5277V54.1389H55.4815L59.1798 58.4444H59.2074V56.8055C59.2074 56.25 59.2074 55.6666 59.1246 55.1111C59.097 54.6666 58.8486 54.5555 58.1034 54.5277V54.1389H60.7253V54.5277Z" fill="#545454"/>
<path d="M62.2156 60.3889V60C63.0435 59.9166 63.1539 59.8611 63.1539 58.9166V55.6111C63.1539 54.6389 63.0711 54.5833 62.2156 54.5277V54.1389H65.2791V54.5277C64.4235 54.5833 64.3407 54.6389 64.3407 55.6111V58.9166C64.3407 59.8611 64.3959 59.9166 65.2791 60V60.3889H62.2156Z" fill="#545454"/>
<path d="M73.6967 54.5277C72.9791 54.6389 72.8411 54.75 72.4271 55.5833C72.0131 56.4166 71.1576 58.5277 70.3572 60.5277H69.9156C69.2256 58.7777 68.3149 56.6389 67.7905 55.3611C67.4869 54.6666 67.2937 54.5833 66.6865 54.5277V54.1389H69.612V54.5277L69.2532 54.5833C68.8944 54.6389 68.8393 54.75 69.0048 55.1944C69.2532 55.8889 69.9156 57.4722 70.4952 58.8889C70.9368 57.7777 71.6819 55.9166 71.8751 55.25C72.0407 54.75 71.9855 54.6389 71.5164 54.5555H71.2128V54.1389H73.6415V54.5277H73.6967Z" fill="#545454"/>
<path d="M80.6517 58.7222C80.5689 59.1389 80.3757 60.1389 80.2929 60.3889H75.0491V60C75.9874 59.9166 76.0426 59.8333 76.0426 58.8889V55.6111C76.0426 54.6389 75.9874 54.5833 75.1319 54.5277V54.1389H80.0169C80.0169 54.4166 80.0721 55.0555 80.1273 55.6944H79.7409C79.6857 55.4166 79.5477 55.1389 79.3545 54.9166C79.1889 54.6944 78.9681 54.5833 78.2506 54.5833H77.5882C77.2294 54.5833 77.2018 54.5833 77.2018 54.9722V56.8889H78.1402C78.9405 56.8889 78.9957 56.8055 79.1337 56.1389H79.5201V58.1666H79.1337C79.0233 57.5 78.9405 57.3889 78.1402 57.3889H77.2018V58.9166C77.2018 59.4444 77.257 59.6944 77.4226 59.7777C77.7538 59.9166 78.085 59.9444 78.4438 59.9166C79.1061 59.9166 79.4373 59.8333 79.6581 59.5555C79.9065 59.2777 80.0721 58.9722 80.1825 58.6111L80.6517 58.7222Z" fill="#545454"/>
<path d="M88.683 60.4722H88.3518C87.579 60.5833 86.8339 60.25 86.3923 59.6111C86.0887 59.1666 85.7851 58.6944 85.5367 58.1944C85.3159 57.8055 85.1779 57.7222 84.6811 57.7222H84.4052V58.9444C84.4052 59.8611 84.488 59.9444 85.3435 60.0278V60.3889H82.28V60C83.1356 59.9444 83.2184 59.8611 83.2184 58.9166V55.5833C83.2184 54.6111 83.1356 54.5833 82.3076 54.5278V54.1389H85.3711C85.9231 54.1111 86.4751 54.2222 86.9719 54.4722C87.4135 54.75 87.6894 55.2222 87.6618 55.75C87.6618 56.5 87.1099 57.1666 86.3923 57.3611C86.5579 57.6666 86.9719 58.3333 87.2755 58.7778C87.4962 59.1111 87.7446 59.4444 88.0206 59.7222C88.2138 59.9166 88.4622 60.0555 88.7382 60.1389L88.683 60.4722ZM84.9019 57.2778C85.2331 57.2778 85.5643 57.2222 85.8679 57.0555C86.2267 56.8055 86.4199 56.3889 86.3923 55.9444C86.4475 55.25 85.9231 54.6389 85.2331 54.5833C85.1503 54.5833 85.0951 54.5833 85.0123 54.5833C84.488 54.5833 84.4052 54.6944 84.4052 55.0833V57.2778H84.9019Z" fill="#545454"/>
<path d="M93.9268 55.8888C93.6508 55.0833 93.2368 54.4166 92.4641 54.4166C91.9397 54.4166 91.4981 54.8055 91.4705 55.3333C91.4705 55.3333 91.4705 55.3611 91.4705 55.3888C91.4705 56.0833 91.9949 56.3333 92.6021 56.5833L92.8781 56.6944C93.8164 57.0833 94.6168 57.5277 94.6168 58.611C94.534 59.7777 93.5404 60.6666 92.3813 60.5833C92.3261 60.5833 92.2985 60.5833 92.2433 60.5833C91.6361 60.5833 91.0289 60.4166 90.4769 60.111C90.3941 59.861 90.2561 59.0833 90.1458 58.4166L90.5321 58.3333C90.7805 59.111 91.3877 60.1666 92.4089 60.1666C92.9609 60.1944 93.4576 59.7499 93.4852 59.1944C93.4852 59.1666 93.4852 59.1388 93.4852 59.111C93.4852 58.4166 92.9885 58.1388 92.4089 57.8888L92.0777 57.7499C91.3325 57.4166 90.3941 56.9444 90.3941 55.9166C90.3941 54.7777 91.2497 53.9999 92.6573 53.9999C93.1264 53.9999 93.6232 54.111 94.0648 54.2777C94.1476 54.6666 94.2028 55.1666 94.2856 55.8611H93.9268V55.8888Z" fill="#545454"/>
<path d="M96.3003 60.3889V60C97.1283 59.9166 97.2387 59.8611 97.2387 58.9166V55.6111C97.2387 54.6389 97.1559 54.5833 96.3003 54.5277V54.1389H99.3638V54.5277C98.5082 54.5833 98.4254 54.6389 98.4254 55.6111V58.9166C98.4254 59.8611 98.4806 59.9166 99.3638 60V60.3889H96.3003Z" fill="#545454"/>
<path d="M106.595 55.8889C106.54 55.5277 106.402 55.1944 106.208 54.8889C106.043 54.6666 105.767 54.5833 105.187 54.5833H104.608V58.8889C104.608 59.8611 104.69 59.9166 105.656 60V60.3889H102.4V60C103.31 59.9444 103.393 59.8611 103.393 58.8889V54.5833H103.007C102.207 54.5833 102.013 54.6666 101.82 54.9166C101.627 55.1944 101.517 55.5277 101.461 55.8611H101.075C101.103 55.0555 101.185 54.3611 101.185 53.8889H101.489C101.627 54.0833 101.765 54.1111 102.041 54.1111H106.07C106.264 54.1389 106.457 54.0555 106.567 53.8889H106.871C106.871 54.3055 106.926 55.25 106.981 55.8333L106.595 55.8889Z" fill="#545454"/>
<path d="M114.709 54.5277C114.185 54.5 113.688 54.7777 113.467 55.2777C113.026 55.9166 112.639 56.5833 112.308 57.2777C112.198 57.4444 112.142 57.6666 112.142 57.8611V58.9722C112.142 59.8611 112.225 59.9444 113.191 60.0277V60.3889H109.907V60C110.873 59.9166 110.928 59.8333 110.928 58.9444V57.9722C110.928 57.7222 110.873 57.5 110.735 57.3055C110.404 56.75 110.072 56.1666 109.52 55.25C109.162 54.6666 109.024 54.5833 108.417 54.5277V54.1389H111.259V54.5277L110.845 54.5833C110.569 54.6389 110.542 54.75 110.68 55C111.011 55.6111 111.508 56.5277 111.866 57.0833C112.28 56.3333 112.722 55.5277 112.915 55.0833C113.081 54.7222 112.998 54.6111 112.639 54.5555H112.308V54.1389H114.709V54.5277Z" fill="#545454"/>
<path d="M37.3488 40.5833C29.8419 38.4722 21.9209 38.4722 14.414 40.5833C14.1656 40.6667 14 40.8889 14 41.1389V53.9722C14 60.5 18.6366 64.2778 25.6192 67.9722C25.702 68.0278 25.7848 68.0278 25.8676 68.0278C25.9504 68.0278 26.0332 68.0278 26.116 67.9722C33.0985 64.2778 37.7352 60.5 37.7352 53.9722V41.1389C37.7352 40.8889 37.5972 40.6389 37.3488 40.5833ZM32.1326 49.9444H36.6588V50.5556H32.1326V49.9444ZM36.6312 47.9167H32.1326V45.7222C32.1326 45.7222 32.0774 45.5556 32.0222 45.5C31.9394 45.4444 31.8566 45.4444 31.7738 45.5C31.553 45.5833 31.3322 45.6667 31.1114 45.6944V44.8056C31.1114 44.8056 31.0562 44.6389 30.9734 44.5833C30.8906 44.5278 30.8078 44.5278 30.725 44.5833C29.9799 44.9167 29.1795 45.0556 28.3791 44.9722H28.0203V40.1944C30.9182 40.3889 33.8161 40.8333 36.6312 41.5833V47.9167ZM20.7618 52.25C21.5345 52.75 22.4729 52.9444 23.3837 52.8333H23.5217C24.1013 52.8333 24.6532 53 25.15 53.3056C24.4876 53.1944 23.8253 53.1944 23.1629 53.3056C22.0865 53.4722 21.0102 53.2222 20.127 52.6111V46.0833C20.127 46.0833 20.4306 46.1667 20.6238 46.1944V52.0556C20.6238 52.0556 20.7066 52.1944 20.7618 52.25ZM26.1436 47.3056V46.6944C26.5576 45.8611 27.4407 45.3889 28.3515 45.4722C29.0967 45.5278 29.8695 45.4167 30.587 45.1667V51.9167C29.8971 52.25 29.1519 52.4167 28.3791 52.3333C27.5787 52.2778 26.7784 52.5 26.1436 53V47.3056ZM26.8888 45.25V40.1389C27.082 40.1389 27.3027 40.1389 27.4959 40.1389V44.9722C27.2751 45.0278 27.082 45.1111 26.8888 45.2222V45.25ZM25.6192 46.6944V53C25.012 52.5556 24.2944 52.3056 23.5493 52.3333H23.3837C22.6109 52.4167 21.8657 52.2778 21.1758 51.9167V45.1667C21.8933 45.3889 22.6661 45.5 23.4113 45.4722C24.322 45.3889 25.2052 45.8611 25.6192 46.6944ZM26.8888 53.7778C27.0544 53.75 27.2751 53.75 27.4959 53.7222V65.9167C27.2751 66.0278 27.082 66.1389 26.8888 66.2778V53.7778ZM26.5852 53.3056C27.082 53 27.6339 52.8333 28.2135 52.8333H28.3515C29.2623 52.9444 30.2006 52.75 31.001 52.25C31.0562 52.2222 31.1114 52.1389 31.1114 52.0556V46.1944C31.3046 46.1944 31.4702 46.1111 31.6082 46.0833V52.6111C30.725 53.2222 29.6487 53.4722 28.5723 53.3056C27.9099 53.1944 27.2475 53.1944 26.5852 53.3056ZM24.874 40.1389V45.25C24.4324 45.0278 23.9081 44.9167 23.4113 44.9444C22.6109 45.0278 21.7829 44.8889 21.0378 44.5556C20.955 44.5556 20.8722 44.5556 20.7894 44.5556C20.7066 44.6111 20.6514 44.6944 20.6514 44.7778V45.6667C20.4306 45.6389 20.2098 45.5556 19.989 45.4722C19.9062 45.4444 19.8234 45.4722 19.7682 45.4722C19.6854 45.5278 19.6578 45.6111 19.6578 45.6944V47.8889H15.1316V41.5556C18.3055 40.6667 21.5897 40.1944 24.874 40.1389ZM15.1316 49.9444H19.6578V50.5556H15.1316V49.9444ZM15.1316 53.9722V51.0833H19.6578V52.7222C19.6578 52.7222 19.6854 52.8611 19.7406 52.9167C20.7342 53.6944 22.0313 54 23.2733 53.8056C23.8253 53.7222 24.3496 53.7222 24.9016 53.7778V66.2778C18.8298 62.9167 15.1316 59.5556 15.1316 53.9722ZM28.0203 65.6111V53.75C28.1859 53.75 28.3515 53.75 28.5171 53.8056C29.7591 54 31.0562 53.6944 32.0498 52.9167C32.105 52.8611 32.1326 52.8056 32.1326 52.7222V51.0833H36.6588V53.9722C36.6312 59.1944 33.4021 62.4722 28.0203 65.6111Z" fill="#545454"/>
<path d="M21.9761 53.1667V53.6389C22.4453 53.7222 22.942 53.75 23.4112 53.7222C23.7148 53.7222 24.0184 53.7222 24.322 53.8056V53.3334C24.0184 53.2778 23.7148 53.25 23.4112 53.2778C22.942 53.2778 22.4453 53.25 21.9761 53.1667Z" fill="#545454"/>
<path d="M24.8188 53.4166C24.3772 53.2222 23.8804 53.1666 23.4112 53.1944C22.942 53.2222 22.4453 53.1944 21.9761 53.0833C21.9761 53.0833 21.9761 53.0926 21.9761 53.1111V53.5833V53.6111C22.4453 53.6944 22.942 53.7222 23.4112 53.6944C23.8804 53.6944 24.3772 53.7778 24.8188 53.9444C24.8188 53.9444 24.8188 53.9352 24.8188 53.9166V53.4444V53.4166Z" fill="#545454"/>
<path d="M29.7866 53.6111H29.8142V53.1389C29.8142 53.1389 29.8142 53.1389 29.7866 53.1389C29.3174 53.25 28.8206 53.2778 28.3514 53.25C27.8822 53.25 27.3854 53.3056 26.9439 53.4722H26.9163V53.9722C26.9163 53.9722 26.9163 53.9722 26.9439 53.9722C27.3854 53.7778 27.8822 53.6945 28.3514 53.7222C28.8206 53.7222 29.3174 53.7222 29.7866 53.6111Z" fill="#545454"/>
<path d="M21.9485 53.7222C22.4177 53.8056 22.8869 53.8333 23.356 53.8333V53.3611C22.8869 53.3889 22.4177 53.3611 21.9761 53.25V53.75L21.9485 53.7222Z" fill="#545454"/>
<path d="M23.8804 53.1667V53.6389C24.184 53.6667 24.4876 53.75 24.7912 53.8611V53.3889C24.4876 53.2778 24.184 53.2222 23.8528 53.1945L23.8804 53.1667Z" fill="#545454"/>
<path d="M26.9439 53.8889C27.3854 53.6944 27.8822 53.6111 28.3514 53.6389C28.7102 53.6389 29.0414 53.6389 29.3174 53.6389H29.345V53.1944C29.345 53.1944 29.345 53.1944 29.3174 53.1944C29.0414 53.1944 28.7102 53.1944 28.3514 53.1944C27.8822 53.1667 27.3854 53.2222 26.9439 53.3889H26.9163V53.8889C26.9163 53.8889 26.9163 53.9444 26.9439 53.8889Z" fill="#545454"/>
<path d="M28.241 53.1389C27.7994 53.1389 27.3578 53.2222 26.9439 53.3611H26.9163V53.8611V53.8889C27.3302 53.7222 27.7718 53.6389 28.2134 53.6389H28.241L28.2134 53.1389H28.241Z" fill="#545454"/>
<path d="M29.7866 53.1945C29.4554 53.2778 29.0966 53.3056 28.7654 53.3056H28.7378V53.7778V53.8056C29.069 53.8056 29.4278 53.7778 29.759 53.6945H29.7866V53.2222C29.7866 53.2222 29.7866 53.1945 29.759 53.1945H29.7866Z" fill="#545454"/>
</g>
<defs>
<clipPath id="clip0_2089_4322">
<rect width="163" height="30" fill="white" transform="translate(14 39)"/>
</clipPath>
</defs>
</svg>
