<svg width="192" height="108" viewBox="0 0 192 108" fill="none" xmlns="http://www.w3.org/2000/svg">
<path d="M154.982 32.1696C153.077 33.5821 152.671 35.368 153.189 37.0817C155.875 37.3467 159.793 40.6493 158.756 45.4274C159.101 42.7336 157.386 39.151 154.166 37.986C153.205 37.6385 151.174 37.3324 149.906 37.2555C147.811 37.128 146.557 35.9375 147.121 34.1793C145.052 36.1243 146.028 39.4048 148.314 41.0367C150.372 42.5042 152.575 42.1978 153.982 45.3922C152.754 43.7866 150.878 43.0971 149.512 42.9527C148.144 42.8096 145.835 42.0021 145.998 40.109C144.152 42.6621 145.523 46.1616 149.254 46.6891C150.321 46.8404 153.977 46.8105 155.14 49.3942C154.738 48.5317 151.446 48.2261 151.01 47.6286C150.677 51.7498 155.392 52.8481 158.092 51.6638C163.823 49.6 163.839 41.4828 157.527 37.4758C155.877 36.4283 154.015 34.6527 154.982 32.1696Z" fill="#545454"/>
<path d="M102.442 60.4128H101.658C99.0669 60.5316 99.0888 60.3047 99.0888 63.081V67.631C97.1788 68.3779 94.6712 69.0048 91.9537 69.0048C85.8331 69.0048 80.3092 66.0791 80.3092 58.0753C80.3092 53.4784 84.1905 47.3871 92.2518 47.3871C95.1481 47.3871 96.5213 47.9246 97.9838 48.4015C98.8207 48.6709 99.1507 49.0896 99.1507 49.5671V53.4178H98.3725C98.2825 51.0309 96.7606 48.4315 92.0137 48.4315C85.7731 48.4315 83.7424 52.7321 83.713 57.8366C83.683 62.5547 86.0718 67.9597 92.1325 67.9597C95.865 67.9597 96.1931 66.5854 96.1931 64.2572V62.7941C96.1931 60.0178 96.3131 60.4547 93.0287 60.1259V59.3491H102.478L102.442 60.4128ZM150.724 54.4144H155.175C156.816 54.3556 158.817 53.9969 160.191 53.1613L160.251 53.2213V65.0039C160.251 67.6901 160.101 67.6007 162.638 67.9601V68.7351H155.175V67.9601C157.713 67.6007 157.564 67.6901 157.564 65.0039V56.7332C157.564 55.3588 156.639 55.4781 155.175 55.4781H151.835M151.834 55.4911C152.162 55.7768 152.759 57.2712 152.759 58.7931C152.759 61.0631 150.581 63.6594 146.967 63.6594C146.4 63.6594 145.983 63.63 145.744 63.6C145.355 63.8975 144.908 64.3162 144.908 64.8244C144.908 65.5406 146.131 65.69 147.923 66.0175L150.669 66.5563C152.789 66.9744 154.343 68.4369 154.343 70.6157C154.343 73.6626 151.326 76.1994 147.356 76.1994C143.504 76.1994 140.309 74.2294 140.309 70.945C140.309 70.4975 140.249 69.8706 140.697 69.6025L143.831 67.93V67.8688C142.489 67.6894 141.652 66.9438 141.921 65.5994L144.758 63.2706C142.489 62.1375 141.384 60.7037 141.384 58.3156C141.384 55.1499 144.429 53.448 147.237 53.448C148.311 53.448 150.185 53.7986 151.011 54.6968M145.176 68.1394C143.981 68.8556 142.757 69.7213 142.757 71.275C142.757 73.4832 144.461 75.1551 147.534 75.1551C150.281 75.1551 151.983 73.4238 151.983 71.7813C151.983 69.2738 149.893 68.9763 148.073 68.6469L145.176 68.1394ZM144.22 57.928C144.22 59.9274 144.938 62.8837 147.475 62.7943C149.475 62.705 149.924 60.5543 149.924 59.1818C149.924 56.4355 148.849 54.2255 146.908 54.2843C144.847 54.3755 144.22 56.4649 144.22 57.928ZM172.285 69.0053C171.837 68.4678 171.598 67.5421 171.598 66.6459L169.27 68.199C168.581 68.6465 167.746 69.0053 166.821 69.0053C164.85 69.0053 163.209 67.2727 163.209 65.0933C163.209 62.2565 164.881 61.3608 168.373 59.9871L171.598 58.7333C171.598 56.1352 170.91 54.4045 169.06 54.4045C167.238 54.4045 166.611 56.047 165.894 57.1214C165.806 57.2695 165.685 57.2695 165.508 57.2402L164.492 57.0014C164.313 56.9427 164.222 56.822 164.252 56.6133L164.701 55.0314C164.881 54.4633 165.208 54.2251 165.566 54.1051C166.939 53.5689 167.955 53.3595 169.27 53.3595C172.762 53.3595 174.286 54.9108 174.286 58.1671V64.7934C174.286 66.3177 174.375 67.6015 176.375 66.8246L176.554 67.6602L172.285 69.0053ZM171.598 59.8683C168.97 60.8539 165.894 61.5696 165.894 64.6159C165.894 66.0177 166.821 67.154 168.193 67.154C169.747 67.154 171.598 66.1384 171.598 62.1964V59.8683ZM138.221 56.195C137.922 56.0469 137.564 56.0763 137.117 56.0763C135.892 56.0763 135.682 58.1063 135.682 60.257V64.9139C135.682 65.9001 135.682 66.3182 135.803 67.0333C135.922 67.6601 136.998 67.7201 138.609 67.8701V68.6464H130.607V67.8701C133.146 67.5114 132.997 67.6014 132.997 64.9139V56.6425C132.997 55.27 132.071 55.3888 130.637 55.3888V54.6138C132.251 54.5525 134.249 54.1957 135.624 53.3594L135.682 53.4188V56.1057L137.237 54.4938C137.952 53.7482 138.371 53.3594 138.879 53.3594C139.147 53.3594 139.506 53.3894 139.984 54.2544L140.849 55.7769C140.937 55.9563 140.79 56.0763 140.611 56.195L139.744 56.7632C139.566 56.8838 139.445 56.8219 139.297 56.7338L138.221 56.195ZM115.564 61.3025C115.564 57.1512 118.58 53.3592 123.536 53.3592C127.268 53.3592 130.971 55.8974 130.971 61.0631C130.971 65.3906 127.777 69.005 122.999 69.005C119.178 69.005 115.564 66.4069 115.564 61.3025ZM128.015 61.2112C128.015 57.8968 126.612 54.4043 123.118 54.4043C120.55 54.4043 118.52 56.5837 118.52 61.1818C118.52 65.0031 120.224 67.96 123.477 67.96C125.955 67.96 128.015 65.8394 128.015 61.2112ZM104.819 60.4047C104.819 63.8098 106.401 67.3017 110.672 67.3017C112.315 67.3017 113.3 66.5867 114.016 66.2273L114.493 67.1536L110.583 69.0048H109.656C108.909 69.0048 106.401 69.3917 103.983 66.7354C103.088 65.7204 101.983 63.3617 101.983 61.1229C101.983 57.6291 103.863 53.3591 108.94 53.3591C112.315 53.3591 114.493 55.8072 114.493 59.5685V60.4047H104.819ZM110.404 59.3597C111.06 59.3597 111.896 58.9416 111.896 57.6291C111.896 55.7178 110.433 54.4041 108.761 54.4041C106.76 54.4041 104.819 55.5972 104.819 59.3597H110.404ZM76.882 55.211L75.6576 55.8066H72.3438V63.6604C72.3438 64.8248 72.4038 67.2129 74.3732 67.2129C75.1807 67.2129 75.9563 67.1542 76.6732 66.8548L76.882 67.6311L73.4182 69.0055C71.3282 69.0055 69.6563 68.3786 69.6563 64.2873V55.8066H67.2681V54.4341H69.6563V51.2991C70.1938 50.7316 70.7913 50.1947 71.5376 49.6265H72.3438V54.4341H76.882V55.211ZM57.6243 64.8548H58.4012C58.3706 66.9448 59.9231 67.9598 61.6562 67.9598C63.3869 67.9598 64.4025 66.6454 64.4025 65.3917C64.4025 63.451 62.8493 62.7648 61.0587 61.481C58.6399 59.7185 57.6549 59.241 57.6549 57.2697C57.6549 54.7622 59.9837 53.3591 62.4319 53.3591C63.3869 53.3591 64.5806 53.4191 65.955 53.8666V56.8516H65.1781C65.0894 55.8385 64.1931 54.4041 62.4906 54.4041C61.2368 54.4041 60.1925 55.1497 60.1925 56.3154C60.1925 57.7485 61.715 58.5235 63.8944 60.0779C66.7013 62.0473 67.06 63.1535 67.06 64.526C67.06 67.631 64.2525 69.0048 61.6562 69.0048C60.0131 69.0048 58.7293 68.7355 57.6243 68.1986V64.8548ZM46.4616 60.4047C46.4616 63.8098 48.0435 67.3017 52.3129 67.3017C53.9548 67.3017 54.9404 66.5867 55.6573 66.2273L56.1354 67.1536L52.2241 69.0048H51.2985C50.5523 69.0048 48.0435 69.3917 45.6247 66.7354C44.7297 65.7204 43.6247 63.3617 43.6247 61.1229C43.6247 57.6291 45.5053 53.3591 50.5816 53.3591C53.9548 53.3591 56.1354 55.8072 56.1354 59.5685V60.4047H46.4616ZM52.0448 59.3597C52.701 59.3597 53.5373 58.9416 53.5373 57.6291C53.5373 55.7178 52.0742 54.4041 50.4023 54.4041C48.4022 54.4041 46.4616 55.5972 46.4616 59.3597H52.0448ZM23.8608 48.5228C21.9802 48.5228 21.2933 49.2984 21.8902 51.3284L25.4427 64.166H25.5027L31.504 48.0134H32.6384L38.5509 63.956H38.6103C39.9541 59.776 41.2078 55.5366 42.5216 51.2972C43.0891 49.4459 42.5816 48.5503 40.1628 48.5209V47.744H46.7316V48.5209C45.8366 48.5209 44.6416 49.2078 44.1341 50.849L38.5803 68.6442H37.2066L31.2052 52.4316L25.234 68.6442H23.9502L19.4414 52.6716C18.6058 49.7453 17.6201 48.5215 16.0376 48.5215V47.7447H23.8608V48.5215V48.5228ZM137.77 37.6807L137.472 37.942H135.85C135.242 40.8926 134.249 44.8239 133.542 46.7089H132.984L134.757 37.942H133.579L133.692 37.4213H134.856C135.514 34.7788 137.695 34.5063 138.216 34.5063C138.502 34.5063 139.097 34.5557 139.284 34.7288L139.134 35.5476L138.824 35.6963C138.652 35.3619 138.255 34.9776 137.734 34.9776C136.99 34.9776 136.431 35.4863 136.133 36.8257L135.998 37.4213H137.819L137.77 37.6807ZM127.071 41.3267C127.071 39.703 128.471 37.2711 130.542 37.2711C132.191 37.2711 132.552 38.388 132.552 39.5042C132.552 40.868 131.46 43.7693 129.091 43.7693C127.504 43.7693 127.071 42.4936 127.071 41.3267ZM131.411 38.9086C131.411 37.6192 130.63 37.5692 130.431 37.5692C129.091 37.5692 128.212 39.9742 128.212 41.5873C128.212 42.2323 128.323 43.398 129.241 43.398C130.655 43.398 131.411 41.0667 131.411 38.9086ZM123.081 44.5621H118.498V44.1603C119.138 44.1196 119.646 44.0559 119.706 43.8203C119.763 43.5715 119.763 43.3759 119.763 43.024V41.0421L117.495 36.9465C117.044 36.1102 116.55 35.8371 115.881 35.8371V35.4339H120.216V35.8371C119.11 35.8371 119.211 36.2546 119.573 36.9465L121.393 40.2708L123.399 36.9852C123.894 36.1758 123.37 35.8371 122.511 35.8371V35.4458H125.639V35.8371C125.231 35.8371 124.853 35.9539 124.491 36.5677L122.09 40.454C121.915 40.7671 121.815 41.159 121.815 41.5365V43.024C121.815 43.3759 121.815 43.5715 121.873 43.8203C121.931 44.0559 122.438 44.1196 123.081 44.1603V44.5621ZM112.244 43.0241C112.244 43.3766 112.244 43.571 112.301 43.8204C112.361 44.0547 112.854 44.1204 113.51 44.1591V44.5623H108.928V44.1591C109.583 44.1204 110.075 44.0547 110.135 43.8204C110.192 43.571 110.192 43.3766 110.192 43.0241V35.9141H108.97C107.735 35.9141 107.414 36.6072 106.876 37.4285H106.482L106.876 35.4334H115.574L115.966 37.4285H115.574C115.036 36.6072 114.731 35.9141 113.481 35.9141H112.244V43.0241ZM104.697 43.0241C104.697 43.3766 104.697 43.571 104.754 43.8204C104.812 44.0547 105.307 44.1204 105.962 44.1591V44.5623H101.379V44.1591C102.035 44.1204 102.528 44.0547 102.588 43.8204C102.643 43.571 102.643 43.3766 102.643 43.0241V36.9716C102.643 36.6197 102.643 36.4241 102.588 36.1753C102.528 35.9416 102.035 35.8759 101.379 35.8366V35.4334H105.962V35.8366C105.307 35.8759 104.812 35.9416 104.754 36.1753C104.697 36.4241 104.697 36.6197 104.697 36.9716V43.0241ZM99.1254 37.4541C98.8648 36.6328 98.3273 35.7453 97.1779 35.7453C96.5235 35.7453 95.7672 36.1103 95.7672 37.0759C95.7672 37.9891 96.7429 38.4466 98.3273 39.5285C99.8123 40.5316 100.277 41.2635 100.277 42.2547C100.277 43.8585 98.501 44.7191 96.4216 44.7191C95.2147 44.7191 94.4141 44.5623 93.6578 44.3029C93.5991 44.276 93.5553 44.2241 93.5553 44.1197V42.1366H93.9485C94.196 43.3235 95.0254 44.2504 96.2623 44.2504C97.2073 44.2504 98.051 43.5591 98.051 42.6066C98.051 41.7453 97.6291 41.1585 95.5929 39.9722C94.5016 39.3453 93.5991 38.6278 93.5991 37.4797C93.5991 36.1884 94.9816 35.2772 96.9897 35.2772C97.9341 35.2772 98.6466 35.3035 99.3741 35.486C99.4779 35.5241 99.5204 35.6022 99.5204 35.6672V37.4541H99.1254ZM83.3028 35.4339H88.4234C90.0822 35.4339 91.5366 36.1502 91.5366 37.7414C91.5366 38.9277 90.6491 39.9071 89.3841 40.2852L90.8685 42.3327C91.5366 43.2465 92.2785 44.094 92.6854 44.3284V44.5621H90.5903C89.7328 44.5621 88.8453 42.3459 87.6959 40.5452H86.6203V43.0246C86.6203 43.3759 86.6203 43.5709 86.6784 43.8196C86.7372 44.0553 87.2453 44.1196 87.8859 44.1596V44.5621H83.3028V44.1596C83.944 44.1196 84.4522 44.0553 84.5115 43.8196C84.5684 43.5709 84.5684 43.3759 84.5684 43.0246V36.9714C84.5684 36.6202 84.5684 36.4239 84.5115 36.1758C84.4522 35.9414 83.944 35.8764 83.3028 35.8371V35.4339ZM86.6203 40.0371H87.6384C88.9184 40.0371 89.3547 39.0577 89.3547 37.8321C89.3547 36.424 88.6422 35.9414 87.6384 35.9414H86.6203V40.0371ZM74.4327 44.1596C75.0727 44.1196 75.5815 44.0553 75.6383 43.8196C75.6983 43.5709 75.6983 43.3759 75.6983 43.0246V36.9721C75.6983 36.6196 75.6983 36.4239 75.6383 36.1758C75.5815 35.9414 75.0727 35.8764 74.4327 35.8371V35.4339H81.574V37.5321H81.1815C80.9628 36.6064 80.6146 35.9146 79.5959 35.9146H77.749V39.5677H78.9559C79.8721 39.5677 80.2659 39.0577 80.2659 38.3158H80.6571V41.3552H80.2659C80.2365 40.6365 79.9303 40.0502 78.9559 40.0502H77.749V43.0109C77.749 44.0028 78.2871 44.0809 79.4803 44.0809C81.3259 44.0809 81.6034 43.3615 82.214 42.2021H82.6065L82.1702 44.5621H74.4327V44.1596ZM68.3517 35.8368C67.6248 35.8368 67.1448 36.0712 67.4498 36.9206C68.0898 38.6412 68.861 40.7281 69.6323 42.6719C70.4617 40.8187 71.2617 38.9412 72.0754 37.0887C72.468 36.1362 72.0461 35.8368 71.116 35.8368V35.4337H74.3586V35.8368C73.8348 35.8368 73.3117 36.0712 73.0492 36.6724C71.9011 39.3068 70.7373 41.9275 69.5892 44.5619H68.3079C67.5667 42.6856 66.1848 39.15 65.5454 37.585C65.1085 36.5156 64.5554 35.8368 63.7847 35.8368V35.4337H68.3517V35.8368ZM62.448 43.024C62.448 43.3765 62.448 43.5709 62.5067 43.8203C62.5649 44.0546 63.0599 44.1203 63.7143 44.159V44.5621H59.1317V44.159C59.7867 44.1203 60.2798 44.0546 60.3392 43.8203C60.3967 43.5709 60.3967 43.3765 60.3967 43.024V36.9714C60.3967 36.6196 60.3967 36.424 60.3392 36.1752C60.2798 35.9414 59.7867 35.8758 59.1317 35.8364V35.4333H63.7143V35.8364C63.0599 35.8758 62.5649 35.9414 62.5067 36.1752C62.448 36.424 62.448 36.6196 62.448 36.9714V43.024ZM55.9759 44.562C54.2309 42.5545 51.7728 39.777 49.6053 37.4282H49.5765V42.6463C49.5765 42.9726 49.6053 43.2589 49.649 43.5064C49.7221 43.937 50.1147 44.1195 51.2353 44.1601V44.562H47.5553V44.1601C48.3396 44.1195 48.7321 43.937 48.7902 43.5064C48.834 43.2589 48.8634 42.9726 48.8634 42.6463V36.8813C48.4565 36.28 47.8896 35.8369 47.0165 35.8369V35.4338H50.4059C52.1947 37.5063 54.4491 40.0113 56.3691 42.1364H56.3984V37.3494C56.3984 37.0238 56.3397 36.7376 56.3109 36.4888C56.2678 36.0582 55.8884 35.8763 54.754 35.8369V35.4338H58.4203V35.8369C57.6491 35.8763 57.2566 36.0582 57.1834 36.4888C57.1403 36.7376 57.1103 37.0238 57.1103 37.3494V44.562H55.9759ZM39.817 41.0942C39.817 42.6986 40.3702 43.9105 42.2602 43.9105C44.0352 43.9105 45.0383 43.0105 45.0383 40.9374V37.3498C45.0383 37.0242 44.9952 36.7373 44.9659 36.4892C44.8927 36.0586 44.5008 35.8754 43.7302 35.8367V35.4336H47.1327V35.8367C46.3471 35.8754 45.9552 36.0586 45.8971 36.4892C45.8534 36.7373 45.824 37.0242 45.824 37.3498V41.0686C45.824 43.6761 43.919 44.7193 42.0133 44.7193C38.7408 44.7193 37.7658 43.3092 37.7658 41.0024V36.9717C37.7658 36.6192 37.7658 36.4242 37.7083 36.1754C37.6489 35.9417 37.1408 35.8754 36.5008 35.8367V35.4336H41.0827V35.8367C40.4421 35.8754 39.9339 35.9417 39.8752 36.1754C39.8171 36.4242 39.817 36.6192 39.817 36.9717V41.0942Z" fill="#545454"/>
</svg>
