<svg width="192" height="108" viewBox="0 0 192 108" fill="none" xmlns="http://www.w3.org/2000/svg">
<path d="M168.735 53.1758C168.646 53.07 168.572 52.9314 168.52 52.7622C168.468 52.5907 168.433 52.4215 168.414 52.25C168.395 52.0808 168.388 51.8764 168.388 51.6415V45.9789C168.388 45.6781 168.402 45.4267 168.433 45.227C168.464 45.0273 168.52 44.837 168.608 44.6584C168.693 44.4798 168.825 44.3482 169.005 44.2589C169.184 44.172 169.408 44.1274 169.68 44.1274C169.951 44.1274 170.176 44.172 170.353 44.2589C170.53 44.3459 170.662 44.4798 170.75 44.6584C170.837 44.837 170.898 45.0249 170.927 45.227C170.957 45.4267 170.972 45.6781 170.972 45.9789V51.6415C170.972 51.8764 170.962 52.0808 170.946 52.25C170.927 52.4215 170.894 52.5907 170.839 52.7622C170.787 52.9314 170.714 53.07 170.62 53.1758C170.525 53.2815 170.402 53.3661 170.244 53.4319C170.088 53.4977 169.899 53.5306 169.677 53.5306C169.456 53.5306 169.267 53.4977 169.106 53.4319C168.95 53.3661 168.825 53.2815 168.735 53.1758ZM171.366 54.9356C171.833 54.75 172.209 54.4751 172.487 54.1109C172.766 53.7467 172.972 53.3191 173.099 52.8257C173.227 52.3323 173.293 51.7589 173.293 51.1081V46.5052C173.293 45.1777 173.012 44.1697 172.45 43.4836C171.888 42.7975 170.964 42.4521 169.68 42.4521C169.019 42.4521 168.457 42.5414 167.987 42.7199C167.519 42.8985 167.144 43.164 166.865 43.5212C166.587 43.876 166.383 44.2989 166.256 44.7853C166.131 45.2716 166.067 45.8449 166.067 46.5075V51.1105C166.067 52.4544 166.346 53.4742 166.905 54.172C167.465 54.8675 168.388 55.2176 169.677 55.2176C170.334 55.2152 170.896 55.1213 171.366 54.9356ZM164.343 42.5954H162.091V55.0625H164.343V42.5954ZM155.743 44.2214H156.371C156.629 44.2214 156.848 44.2378 157.028 44.2707C157.21 44.3036 157.361 44.36 157.481 44.4446C157.602 44.5268 157.698 44.6184 157.772 44.7195C157.845 44.8205 157.899 44.9615 157.937 45.1448C157.975 45.328 157.998 45.5089 158.008 45.6899C158.017 45.8708 158.022 46.1081 158.022 46.4042V50.9624C158.022 51.2585 158.02 51.4817 158.015 51.6321C158.01 51.7824 157.996 51.9634 157.977 52.1772C157.956 52.391 157.928 52.5508 157.887 52.6542C157.847 52.7599 157.788 52.875 157.71 52.9995C157.632 53.1241 157.536 53.2157 157.42 53.2698C157.304 53.3261 157.16 53.3731 156.99 53.4131C156.82 53.453 156.619 53.4742 156.393 53.4742H155.743V44.2214ZM156.468 55.0649C157.193 55.0649 157.807 54.9826 158.305 54.8205C158.804 54.6584 159.203 54.4023 159.503 54.0569C159.802 53.7115 160.017 53.2909 160.15 52.7928C160.282 52.297 160.346 51.6932 160.346 50.9812V46.484C160.346 45.7933 160.282 45.2082 160.152 44.7359C160.024 44.2613 159.805 43.8619 159.498 43.5353C159.191 43.2087 158.782 42.9714 158.275 42.821C157.765 42.6706 157.134 42.5954 156.378 42.5954H153.462V55.0625H156.468V55.0649ZM146.917 55.0649L147.431 52.1701H149.599L150.104 55.0649H152.227L149.689 42.5978H147.309L144.763 55.0649H146.917ZM148.511 45.5653L149.349 50.6875H147.672L148.511 45.5653ZM143.486 42.5954H141.233V55.0625H143.486V42.5954ZM139.866 55.0649V53.493H136.376L139.859 43.7162V42.5954H134.364V44.1673H137.523L134.198 53.5752V55.0649H139.866ZM128.047 55.0649L128.562 52.1701H130.732L131.237 55.0649H133.36L130.822 42.5978H128.442L125.894 55.0649H128.047ZM129.641 45.5653L130.479 50.6875H128.803L129.641 45.5653ZM120.241 55.0649V49.3717H121.254L122.751 55.0649H125.041L123.303 48.9206C123.842 48.695 124.229 48.3332 124.463 47.8374C124.696 47.3417 124.815 46.7026 124.815 45.9201C124.815 45.2928 124.727 44.7641 124.552 44.3294C124.378 43.8971 124.118 43.5517 123.766 43.3003C123.417 43.0465 123.003 42.868 122.531 42.7599C122.059 42.6518 121.492 42.5978 120.831 42.5978H117.96V55.0649H120.241ZM120.241 44.1603H120.928C121.589 44.1603 122.042 44.3036 122.288 44.5926C122.533 44.8816 122.659 45.3586 122.659 46.0259C122.659 46.7167 122.517 47.2054 122.231 47.492C121.946 47.7787 121.466 47.9197 120.791 47.9197H120.238V44.1603H120.241ZM114.588 53.8008L114.753 55.0649H116.233V48.7326H112.824V50.1988H114.177V51.2209C114.177 51.6015 114.155 51.9258 114.113 52.196C114.07 52.4638 113.997 52.7035 113.893 52.9103C113.789 53.117 113.645 53.2745 113.464 53.3755C113.279 53.4789 113.05 53.5306 112.779 53.5306C112.255 53.5306 111.9 53.3567 111.714 53.0066C111.527 52.6589 111.435 52.109 111.435 51.3548V46.3266C111.435 46.1222 111.438 45.953 111.442 45.8238C111.447 45.6922 111.459 45.5418 111.475 45.3727C111.494 45.2035 111.518 45.0625 111.551 44.9568C111.584 44.8487 111.631 44.7383 111.695 44.6208C111.759 44.5057 111.834 44.4164 111.926 44.3529C112.016 44.2918 112.129 44.2378 112.262 44.1955C112.394 44.1532 112.547 44.1321 112.72 44.1321C112.946 44.1321 113.138 44.1626 113.294 44.2214C113.449 44.2824 113.572 44.36 113.664 44.454C113.754 44.5503 113.825 44.6866 113.872 44.8652C113.919 45.0437 113.95 45.2199 113.962 45.3962C113.974 45.5724 113.981 45.798 113.981 46.0729V46.719H116.165V46.1105C116.165 44.8816 115.896 43.9652 115.357 43.3614C114.819 42.7575 113.929 42.4544 112.689 42.4544C112.009 42.4544 111.435 42.5531 110.965 42.7481C110.498 42.9432 110.129 43.2369 109.863 43.6269C109.596 44.0169 109.404 44.4728 109.291 44.992C109.178 45.5113 109.121 46.1292 109.121 46.8459V50.906C109.121 52.3158 109.383 53.3872 109.903 54.125C110.425 54.8628 111.277 55.2293 112.46 55.2293C113.501 55.2293 114.21 54.7524 114.588 53.8008Z" fill="#545454"/>
<path d="M22.5428 43.1758C23.2677 43.0935 24.0824 43.0771 24.6562 43.5869C25.0482 43.9793 25.4897 44.5785 25.4897 45.7862C25.4897 45.8426 25.4874 45.9013 25.4874 45.9601C25.4472 47.2007 25.0316 47.7293 24.3657 48.1875C24.1036 48.3426 23.6078 48.5447 22.7128 48.6292H22.727H22.7104H22.7128C22.7128 48.6292 22.4531 48.6245 22.446 48.6245C22.2665 48.6128 22.1366 48.6081 22.0989 48.648L22.0823 48.6645L22.0209 48.7256L21.995 48.7491L22.0233 48.8008C22.0634 48.8736 22.1862 48.9182 22.2901 48.9347C22.6278 48.9488 23.5983 48.9112 23.7447 48.883C25.1355 48.695 25.9266 47.976 26.3469 47.4004C26.7601 46.6978 26.9443 46.1739 26.9443 45.5794C26.9443 45.3351 26.9136 45.079 26.8546 44.7923C26.7058 44.0522 25.8699 43.063 24.9773 42.8468L24.9655 42.8445C24.1249 42.5954 23.0009 42.6377 22.9584 42.6377C22.9584 42.6377 21.832 42.7129 21.8226 42.7129C21.8226 42.7129 21.1307 42.7364 21.1331 42.7364L20.7529 42.7528H20.7293L20.2169 42.727C20.2051 42.727 20.2003 42.7223 20.1909 42.7199L20.1956 42.7246C20.1956 42.7246 19.8721 42.7035 19.8863 42.7035L19.2889 42.6706L19.2747 42.6682C19.0575 42.6283 18.8898 42.6283 18.8166 42.6659L18.8024 42.6729L18.7883 42.6776C18.7387 42.6964 18.7174 42.734 18.7056 42.821C18.6891 42.9455 18.7576 42.9948 18.826 43.0277L18.8331 43.0324L18.8426 43.0371C18.9559 43.1006 19.4754 43.07 19.6974 43.0583L19.7517 43.0653L20.0563 43.1358L20.0941 43.2603C20.2428 43.7467 20.2806 45.3985 20.2972 46.9516L20.3349 52.1466C20.3349 52.8374 20.3279 52.9079 20.3255 52.9267C20.3255 52.9267 20.3066 53.258 20.3066 53.2557C20.2877 53.6269 20.2641 54.0404 20.2169 54.2848L20.1956 54.3929L20.0988 54.4422C19.9784 54.5057 19.7564 54.609 19.6053 54.609H19.4754C19.1732 54.609 19.0763 54.609 19.015 54.649C18.9772 54.6748 18.9536 54.7242 18.9559 54.7806C18.9583 54.8581 19.0031 54.9333 19.074 54.9732C19.1401 55.0132 19.2534 55.0202 19.7186 54.9591L19.7375 54.9497L20.1555 54.9638L20.9418 54.9685L22.5145 54.9544C22.5145 54.9544 22.9088 54.9497 22.956 54.9497C23.067 54.9262 23.093 54.8769 23.1024 54.8557C23.1119 54.8346 23.1166 54.8111 23.1166 54.7876C23.1166 54.7524 23.1071 54.7171 23.0859 54.6819C23.0174 54.5714 22.9607 54.562 22.8474 54.5808L22.8214 54.5855C22.8214 54.5855 22.3374 54.5738 22.3326 54.5738L22.1248 54.5644L22.0445 54.562L21.9855 54.508L21.8793 54.414L21.7683 53.8172V53.8078C21.7305 53.4413 21.5912 49.992 21.5864 48.9135L21.5817 48.0348L21.5959 48.0606C21.6077 46.6885 21.6337 44.0381 21.6809 43.7726C21.773 43.3849 21.9076 43.2439 22.5428 43.1758Z" fill="#545454"/>
<path d="M94.2583 42.6377C94.1496 42.5907 93.8734 42.5931 93.6514 42.5954C93.6514 42.5954 91.0114 42.6213 91.0091 42.6213C90.9406 42.6213 90.891 42.6424 90.8603 42.6824C90.8367 42.7129 90.8154 42.7599 90.8414 42.8563C90.8697 42.962 90.9736 42.9902 91.2594 42.9761C91.2594 42.9761 91.2546 42.9808 91.2546 42.9831C91.2901 42.9761 91.3231 42.9761 91.3467 42.9737C91.3892 42.969 91.3892 42.969 91.6419 43.0278L91.7151 43.0442L91.7647 43.103C91.8332 43.1852 91.9087 43.352 91.9607 43.5494C92.0646 44.0616 92.1779 45.9813 92.1779 46.9469C92.1779 46.9469 92.1779 47.0527 92.1779 47.0738C92.2582 47.8328 92.3031 50.9813 92.3031 52.4709V53.1805L91.8898 52.6025C87.2829 46.1763 84.8979 42.9408 84.6004 42.7059C84.5154 42.6941 84.2344 42.68 83.3395 42.6871L83.3135 42.6847C83.3135 42.6847 82.4138 42.6424 82.4115 42.6424C82.4115 42.6424 82.3005 42.6401 82.2485 42.6377L82.2462 42.6401C82.1824 42.6612 82.1328 42.7364 82.1328 42.8093C82.1328 42.814 82.1328 42.821 82.1328 42.8257C82.1352 42.8469 82.1541 42.9479 82.2839 42.962L82.3524 42.9667C82.6972 42.9949 83.1411 43.0442 83.2922 43.1241L83.3442 43.1523L83.3772 43.2017C83.4079 43.2486 83.5024 43.3943 83.5709 44.1979C83.5945 44.6937 83.7102 47.1326 83.7102 47.3793V47.3887C83.7102 47.3887 83.7031 47.3793 83.7007 47.3793C83.7102 47.4568 83.7149 47.5485 83.7149 47.6824L83.7173 47.9855C83.7338 48.7327 83.7621 50.1236 83.7621 51.3572C83.7621 52.5813 83.7338 53.3238 83.6748 53.6269C83.6606 53.9065 83.6228 54.1086 83.5543 54.2707L83.526 54.3365L83.1718 54.5715L82.6995 54.5903L82.683 54.5879C82.5012 54.5691 82.402 54.5762 82.3406 54.6655C82.2462 54.7994 82.2839 54.8675 82.2957 54.8863C82.3477 54.978 82.4658 54.985 82.5933 54.978C82.5933 54.978 83.9841 54.9521 83.9888 54.9521L85.4387 54.9662C85.5591 54.9662 85.6488 54.9709 85.7244 54.9827C85.722 54.9803 85.7102 54.9686 85.7102 54.9686C85.7102 54.9686 85.8094 54.9709 85.8637 54.9733L85.8684 54.9709C85.9369 54.9451 86.0219 54.8816 86.0361 54.7923C86.0361 54.7923 86.0432 54.7477 86.0503 54.7054C86.0078 54.6749 85.9936 54.6655 85.9676 54.6467C85.8377 54.6349 85.5379 54.6114 85.5379 54.6114H85.3442H85.2852L84.879 54.407L84.846 54.3365C84.7657 54.1673 84.709 53.9465 84.6736 53.6692C84.4446 52.3417 84.3265 46.5546 84.3147 45.0344L84.3076 44.3201L84.7279 44.9004C85.0254 45.3116 92.0197 54.978 92.2393 55.3586C92.3338 55.5066 92.4707 55.5043 92.5345 55.4831C92.5345 55.4831 92.5368 55.4831 92.5392 55.4831C92.5793 55.4573 92.9312 55.2223 92.9312 55.2223L92.9477 55.2153C93.0351 55.1753 93.1791 55.0954 93.1815 55.0132L93.0186 52.4568C92.9808 51.9047 92.8438 47.8892 92.8438 45.8285C92.8438 45.22 92.8556 44.8323 92.8769 44.649C92.8769 44.649 92.9312 44.1133 92.9312 44.1157C92.9784 43.5799 93.0162 43.2674 93.2547 43.056L93.2783 43.0325L93.394 42.9784L93.4247 42.9737C93.7482 42.922 93.9466 42.9596 94.015 42.9737C94.015 42.9737 94.1189 42.9831 94.1449 42.9855H94.1473C94.2158 42.9714 94.3197 42.8915 94.3362 42.7928C94.3362 42.7928 94.3409 42.7552 94.3456 42.7247C94.3031 42.6777 94.2819 42.6565 94.2583 42.6377C94.2606 42.6377 94.2583 42.6377 94.2583 42.6377Z" fill="#545454"/>
<path d="M82.4004 56.5569C82.3767 56.5499 82.3626 56.5452 82.3508 56.5428C82.2776 56.5381 82.176 56.6133 82.1028 56.6815C81.9706 56.8013 81.333 57.2806 80.8348 57.5156C79.4747 58.244 78.2279 58.4484 77.4722 58.5729C76.7237 58.6928 74.7355 59.0123 71.968 58.1641C70.3174 57.6566 68.9832 56.8295 67.6467 55.4785C67.1886 55.1307 65.6254 52.9409 63.4199 49.7595L62.5297 48.486L62.8816 48.4249C63.2428 48.3615 63.9135 48.2158 64.3527 47.9456L64.3716 47.9338L64.3952 47.9268C65.3539 47.5861 66.0481 46.2585 66.0481 45.5302C66.0481 45.5302 66.0457 45.4714 66.0457 45.4691C66.0032 44.7383 65.93 43.5142 64.2913 42.9315C63.5309 42.6801 62.7871 42.713 62.3408 42.7341C62.3408 42.7341 62.2346 42.7388 62.2416 42.7388C62.2416 42.7388 60.9075 42.8257 60.8933 42.8257L59.5615 42.8187L59.5379 42.8163L59.5237 42.814C59.5237 42.814 59.212 42.7717 59.2215 42.774C59.2215 42.774 58.5981 42.7106 58.591 42.7106C58.3029 42.6707 58.1187 42.6495 58.0196 42.6636C57.9629 42.7083 57.8377 42.8022 57.8377 42.8022C57.8377 42.8022 57.8141 42.821 57.8047 42.8281C57.8118 42.8375 57.8212 42.8563 57.8236 42.861C57.8354 42.8751 57.8755 42.9315 57.8755 42.9315L57.885 42.9503C57.9204 43.0208 58.0267 43.0349 58.1046 43.0396L58.1235 43.0419L58.5509 43.1124C58.7776 43.1265 58.9358 43.1641 59.0208 43.2252L59.0774 43.2839L59.1459 43.4366L59.1506 43.4531C59.2404 43.7773 59.3136 44.4846 59.3301 44.7054L59.3207 44.6984C59.3325 44.7524 59.3396 44.8088 59.3443 44.8699L59.4033 45.8027V45.8262V45.8427C59.401 45.8591 59.4009 45.899 59.4009 45.9578C59.4009 46.376 59.4316 47.72 59.4458 47.8422L59.4482 47.8704V47.8868C59.4482 47.9738 59.4789 48.9818 59.4978 49.6514C59.5001 50.0438 59.5119 51.6415 59.5119 52.4334C59.5119 52.6683 59.5119 52.8304 59.5096 52.8704L59.5025 52.861C59.5025 52.8727 59.5048 52.8821 59.5048 52.8939C59.5048 52.9573 59.4978 53.0302 59.4907 53.1171C59.4269 53.9841 59.3915 54.2261 59.3561 54.3224L59.3419 54.3553L59.29 54.4399C59.29 54.4399 59.1058 54.6138 59.0562 54.5762C59.0397 54.5762 59.0231 54.5762 59.0231 54.5762C58.2651 54.5715 58.2297 54.6162 58.1943 54.6561C58.166 54.689 58.1282 54.7548 58.1282 54.8253C58.1282 54.8464 58.1306 54.8652 58.14 54.8864C58.1589 54.9381 58.199 54.9709 58.251 54.9827C58.2935 54.9827 58.5485 54.9874 58.5485 54.9874C58.5485 54.9874 58.7138 54.978 58.7256 54.978L60.9169 54.9545C60.9169 54.9545 61.0964 54.9521 61.1129 54.9521L61.4364 54.9639C62.1637 54.9921 62.2818 54.9897 62.3266 54.9545C62.4093 54.8864 62.4376 54.8159 62.4211 54.7101C62.4069 54.6209 62.3739 54.5574 62.048 54.5833L61.4789 54.5974H61.4411L61.3514 54.5739L61.3231 54.5645L61.1389 54.4869L60.9878 54.1157L60.983 54.0992C60.8673 53.6434 60.7375 50.0391 60.7162 48.8925L60.7044 48.2487L61.1176 48.7421C62.4376 50.3163 63.9701 52.5485 64.7919 53.7468C64.7919 53.7468 65.1697 54.2943 65.1768 54.306C65.4035 54.6843 66.6526 56.4465 68.1591 57.5132C69.6161 58.5447 71.2383 59.1768 73.4202 59.5645C74.9692 59.8394 77.0212 59.6702 78.523 59.1439L78.6104 59.1133C79.4534 58.8196 80.4097 58.486 81.8006 57.3441C82.2894 56.9423 82.4169 56.6791 82.4169 56.6016C82.4169 56.5945 82.4169 56.5875 82.4145 56.5851C82.4145 56.5828 82.4051 56.5663 82.4004 56.5569ZM61.0137 48.0842H61.0185L60.9618 48.0818L60.9287 48.0795L60.7233 48.0067L60.7162 47.8563C60.695 47.4662 60.6832 46.9047 60.6832 46.235C60.6832 45.0085 60.7115 43.775 60.7115 43.7679L60.7233 43.7186L60.7564 43.6035L60.8012 43.4719L61.6537 43.2675L61.6631 43.2651C61.9347 43.2228 62.6383 43.1429 63.3137 43.3168L63.3278 43.3215L63.342 43.3262C64.4542 43.782 64.5392 44.3812 64.6549 45.213L64.6691 45.3022L64.6667 45.3234C64.6667 45.3234 64.6526 45.5842 64.6526 45.5818C64.6455 46.0917 64.6313 46.9423 63.6632 47.6166L63.6561 47.6213L63.649 47.626C63.028 47.9855 62.0669 48.1523 61.0137 48.0842Z" fill="#545454"/>
<path d="M38.1346 43.1757C38.8595 43.0935 39.6742 43.077 40.248 43.5869C40.64 43.9793 41.0815 44.5785 41.0815 45.7862C41.0815 45.8426 41.0792 45.9013 41.0792 45.96C41.0367 47.2006 40.6234 47.7293 39.9575 48.1875C39.6954 48.3426 39.1995 48.5446 38.3046 48.6292H38.3188H38.3022H38.3046C38.3046 48.6292 38.0449 48.6245 38.0378 48.6245C37.8583 48.6128 37.7284 48.6081 37.6907 48.648L37.6741 48.6645L37.6127 48.7255L37.5868 48.749L37.6151 48.8007C37.6552 48.8736 37.778 48.9182 37.8819 48.9347C38.2196 48.9488 39.1901 48.9112 39.3365 48.883C40.7273 48.695 41.5184 47.976 41.9387 47.4004C42.3519 46.6978 42.5361 46.1739 42.5361 45.5794C42.5361 45.335 42.5054 45.0789 42.4464 44.7923C42.2976 44.0521 41.4617 43.0629 40.5691 42.8468L40.5573 42.8444C39.7167 42.5954 38.5927 42.6377 38.5502 42.6377C38.5502 42.6377 37.4238 42.7129 37.4144 42.7129C37.4144 42.7129 36.7225 42.7364 36.7249 42.7364L36.3447 42.7528H36.3211L35.8087 42.727C35.7969 42.727 35.7921 42.7223 35.7827 42.7199L35.7874 42.7246C35.7874 42.7246 35.4639 42.7035 35.4781 42.7035L34.8807 42.6706L34.8665 42.6682C34.6493 42.6283 34.4816 42.6283 34.4084 42.6659L34.3942 42.6729L34.3801 42.6776C34.3305 42.6964 34.3092 42.734 34.2974 42.8209C34.2809 42.9455 34.3494 42.9948 34.4178 43.0277L34.4249 43.0324L34.4344 43.0371C34.5477 43.1005 35.0672 43.07 35.2892 43.0583L35.3435 43.0653L35.6481 43.1358L35.6859 43.2603C35.8346 43.7467 35.8724 45.3985 35.889 46.9516L35.9244 52.1466C35.9244 52.8374 35.9173 52.9079 35.9173 52.9267C35.9173 52.9267 35.8984 53.258 35.8984 53.2556C35.8795 53.6269 35.8559 54.0404 35.8087 54.2848L35.7874 54.3928L35.6906 54.4422C35.5702 54.5056 35.3482 54.609 35.1971 54.609H35.0672C34.765 54.609 34.6681 54.609 34.6068 54.6489C34.569 54.6748 34.5454 54.7241 34.5477 54.7805C34.5501 54.8581 34.5949 54.9333 34.6658 54.9732C34.7319 55.0131 34.8452 55.0202 35.3104 54.9591L35.3293 54.9497L35.7473 54.9638L36.5336 54.9685L38.1063 54.9544C38.1063 54.9544 38.5006 54.9497 38.5478 54.9497C38.6588 54.9262 38.6848 54.8769 38.6942 54.8557C38.7037 54.8346 38.7084 54.8111 38.7084 54.7876C38.7084 54.7523 38.6989 54.7171 38.6777 54.6818C38.6092 54.5714 38.5525 54.562 38.4392 54.5808L38.4132 54.5855C38.4132 54.5855 37.9291 54.5738 37.9244 54.5738L37.7166 54.5644L37.6363 54.562L37.5773 54.508L37.4711 54.414L37.3601 53.8172L37.3577 53.8078C37.3199 53.4412 37.1806 49.992 37.1759 48.9135L37.1712 48.0348L37.1853 48.0606C37.1971 46.6884 37.2231 44.038 37.2703 43.7725C37.3648 43.3848 37.4994 43.2439 38.1346 43.1757Z" fill="#545454"/>
<path d="M45.9693 43.1758C46.6942 43.0935 47.5089 43.0771 48.0827 43.5869C48.4747 43.9793 48.9162 44.5785 48.9162 45.7862C48.9162 45.8426 48.9139 45.9013 48.9139 45.9601C48.8737 47.2007 48.4605 47.7293 47.7946 48.1875C47.5349 48.3426 47.0366 48.5447 46.1417 48.6292H46.1558H46.1393H46.1417C46.1417 48.6292 45.8819 48.6245 45.8748 48.6245C45.6954 48.6128 45.5655 48.6081 45.5277 48.648L45.5112 48.6645L45.4498 48.7256L45.4238 48.7491L45.4522 48.8008C45.4923 48.8736 45.6151 48.9182 45.719 48.9347C46.0567 48.9488 47.0272 48.9112 47.1759 48.883C48.5668 48.695 49.3578 47.976 49.7781 47.4004C50.1914 46.6978 50.3755 46.1739 50.3755 45.5794C50.3755 45.3351 50.3449 45.079 50.2882 44.7923C50.1371 44.0522 49.3035 43.063 48.4109 42.8468L48.3991 42.8445C47.5585 42.5954 46.4345 42.6377 46.392 42.6377C46.392 42.6377 45.2633 42.7129 45.2562 42.7129C45.2562 42.7129 44.5643 42.7364 44.5667 42.7364L44.1865 42.7528H44.1629L43.6505 42.727C43.641 42.727 43.6339 42.7223 43.6245 42.7199L43.6292 42.7246C43.6292 42.7246 43.3057 42.7035 43.3199 42.7035L42.7225 42.6706L42.7083 42.6682C42.491 42.6283 42.3234 42.6283 42.2502 42.6659L42.236 42.6729L42.2219 42.6776C42.1723 42.6964 42.151 42.734 42.1392 42.821C42.1227 42.9455 42.1912 42.9948 42.2596 43.0277L42.2691 43.0324L42.2762 43.0371C42.3895 43.1006 42.909 43.07 43.131 43.0583L43.1853 43.0653L43.4899 43.1358L43.5277 43.2603C43.6764 43.7467 43.7142 45.3985 43.7308 46.9516L43.7662 52.1466C43.7662 52.8374 43.7591 52.9079 43.7591 52.9267C43.7591 52.9267 43.7402 53.258 43.7402 53.2557C43.7213 53.6269 43.6977 54.0404 43.6505 54.2848L43.6292 54.3929L43.5324 54.4422C43.412 54.5057 43.19 54.609 43.0389 54.609H42.909C42.6068 54.609 42.5099 54.609 42.4485 54.649C42.4108 54.6748 42.3872 54.7242 42.3895 54.7806C42.3919 54.8581 42.4367 54.9333 42.5076 54.9732C42.5737 55.0132 42.687 55.0202 43.1522 54.9591L43.1711 54.9497L43.5891 54.9638L44.3754 54.9685L45.948 54.9544C45.948 54.9544 46.3424 54.9497 46.3896 54.9497C46.5006 54.9262 46.5266 54.8769 46.536 54.8557C46.5455 54.8346 46.5502 54.8111 46.5502 54.7876C46.5502 54.7524 46.5407 54.7171 46.5195 54.6819C46.451 54.5714 46.3943 54.562 46.281 54.5808L46.255 54.5855C46.255 54.5855 45.7709 54.5738 45.7662 54.5738L45.5584 54.5644L45.4781 54.562L45.4191 54.508L45.3128 54.414L45.2019 53.8172V53.8078C45.1641 53.4413 45.0248 49.992 45.02 48.9135L45.0153 48.0348L45.0295 48.0606C45.0413 46.6885 45.0673 44.0381 45.1145 43.7726C45.1995 43.3849 45.3317 43.2439 45.9693 43.1758Z" fill="#545454"/>
<path d="M102.116 52.0479C102.028 52.0409 101.957 52.109 101.927 52.2265C101.927 52.2265 101.858 52.532 101.858 52.5296L101.707 53.1382L101.695 53.1758L101.565 53.406L101.549 53.4248C101.114 53.9041 100.522 54.1861 99.7898 54.266C99.1239 54.3388 97.5371 54.4775 97.2183 54.1955L97.1899 54.1697L97.1711 54.1368C97.1356 54.0757 97.0294 53.8901 96.968 52.3205C96.968 52.3205 96.9585 52.1184 96.9585 52.1255C96.9491 51.9916 96.8971 49.2707 96.8948 49.1156L96.8971 49.118C96.8924 49.0851 96.8877 49.0522 96.8853 49.0263L96.8806 48.9042L96.8995 48.7138L97.2159 48.6551H97.2325C97.7 48.6316 99.2372 48.6104 99.4356 48.641L99.4497 48.6433L99.4592 48.6457C99.4592 48.6457 99.5159 48.6598 99.5135 48.6598C99.6859 48.6997 99.8205 48.7538 99.9267 48.829L99.9905 48.8736L100.071 49.1438L100.078 49.1861C100.078 49.1861 100.104 49.5667 100.106 49.5761C100.113 49.7759 100.12 49.8604 100.189 49.9168C100.215 49.938 100.3 49.9568 100.333 49.945C100.456 49.9074 100.522 49.8299 100.482 49.5691C100.465 49.4634 100.307 47.7035 100.475 47.0433C100.501 46.8459 100.477 46.7378 100.394 46.6908C100.345 46.6626 100.271 46.6697 100.215 46.7096L100.182 46.7261C100.163 46.7495 100.135 46.8365 100.106 47.1114C100.106 47.1114 100.094 47.2759 100.094 47.2829L100.021 47.7763L99.9834 47.8233C99.9385 47.8774 99.8559 47.9502 99.7118 47.9784C99.2726 48.0606 97.641 48.1217 97.1002 48.1029L96.8948 48.0959L96.8806 47.8938C96.8617 47.6354 96.8523 47.0597 96.8523 46.3125C96.8523 45.4502 96.8664 44.0827 96.8995 43.8854L96.9042 43.8924C96.9066 43.8501 96.9113 43.8055 96.9184 43.7702C96.9585 43.4577 97.1215 43.3261 97.5843 43.2298C98.2525 43.0935 99.1239 43.1358 99.5324 43.1828C99.6386 43.1946 100.007 43.2439 100.312 43.3684L100.338 43.3778L100.385 43.4154C100.385 43.4154 100.512 43.5094 100.501 43.5024L100.637 43.7021L100.652 43.7162L100.715 44.2472L100.713 44.2707C100.713 44.2707 100.689 44.5761 100.687 44.5761L100.706 44.945C100.706 44.9474 100.711 44.9497 100.711 44.9497C100.77 45.0249 100.869 45.0649 100.954 45.0437C101.02 45.0296 101.063 44.9826 101.081 44.9121C101.084 44.8816 101.171 44.0169 101.171 44.0169C101.171 44.0169 101.178 44.024 101.178 44.0263C101.178 43.9511 101.19 43.8548 101.202 43.7373L101.235 43.453L101.237 43.4436C101.268 43.2862 101.296 43.1217 101.296 43.0089C101.296 42.9385 101.287 42.8891 101.261 42.868C101.14 42.7716 100.805 42.6894 100.446 42.6659C100.061 42.6424 98.6729 42.6565 98.1605 42.6894C97.6362 42.7246 95.4756 42.7599 95.2489 42.7293L95.2395 42.727L95.2277 42.7246C95.0081 42.673 94.9042 42.7011 94.8806 42.7246L94.8782 42.727L94.8758 42.7293C94.8593 42.7575 94.8145 42.8445 94.8145 42.9009C94.8145 42.9032 94.8145 42.9032 94.8145 42.9056C94.8546 42.9408 94.8971 42.9784 94.916 42.9948C95.0411 43.0606 95.256 43.1946 95.3576 43.5682C95.5866 44.3459 95.6952 47.9807 95.6952 48.7867C95.6952 48.7867 95.7023 49.6842 95.7023 49.696C95.7094 50.3962 95.7141 51.0165 95.7141 51.5404C95.7141 52.586 95.6976 53.2604 95.648 53.4624C95.537 54.1415 95.1592 54.6396 95.1167 54.6936C95.1167 54.6936 95.1143 54.696 95.112 54.6983V54.7007C95.1025 54.7242 95.0907 54.7618 95.0907 54.7994C95.0907 54.8323 95.0978 54.8675 95.1214 54.8957C95.1616 54.9427 95.2655 54.985 95.5229 54.9121L95.537 54.9098L95.5512 54.9074C95.9928 54.837 96.6303 54.8487 96.9349 54.8534C96.9349 54.8534 97.0837 54.8557 97.0884 54.8557L97.7968 54.8745C98.7036 54.9004 100.073 54.9403 100.333 54.9239L100.493 54.9145C100.987 54.8863 101.436 54.8534 101.556 54.7618C101.591 54.7101 101.766 54.4587 101.766 54.4587L101.78 54.4446C101.78 54.4446 101.854 54.32 101.856 54.32C101.856 54.3177 101.965 54.0663 101.979 54.0334C101.991 53.977 102.161 53.0583 102.161 53.0559C102.272 52.4944 102.302 52.3182 102.302 52.2571C102.302 52.2524 102.302 52.2477 102.302 52.243C102.286 52.1748 102.222 52.0573 102.116 52.0479Z" fill="#545454"/>
<path d="M34.2565 52.3299C34.1975 52.344 34.155 52.3839 34.1314 52.4356C34.1314 52.4356 34.0818 52.6165 34.0794 52.6259L33.907 53.2157L33.8952 53.2556L33.6024 53.6292L33.5647 53.6691L33.534 53.6903C33.534 53.6903 33.4867 53.7232 33.4891 53.7208C33.175 53.9393 32.7854 54.2119 31.541 54.2401L31.3828 54.2424C30.0746 54.2683 29.7251 54.2659 29.5716 54.0498C29.3733 53.7725 29.319 52.6846 29.3166 52.6753C29.3024 52.3815 29.2552 49.5009 29.2552 48.7232V48.6715L29.2694 48.4436C29.2694 48.4436 31.2954 48.413 31.3001 48.413C31.8409 48.413 32.2447 48.4647 32.41 48.5564L32.4973 48.6057L32.5209 48.702C32.5894 48.9793 32.6414 49.4563 32.6414 49.5737V49.5996C32.6414 49.609 32.6414 49.6184 32.6437 49.6301C32.6461 49.6442 32.6603 49.7124 32.6768 49.7923C32.7642 49.8228 32.8232 49.844 32.8775 49.8627H32.8822C32.9578 49.8463 33.0428 49.8111 33.0428 49.6818V49.7006C33.0428 49.7006 33.0286 49.3388 33.0286 49.3411C33.0286 49.3411 33.0168 49.1696 33.0168 49.1532C33.0168 49.1532 33.0121 48.7443 33.0121 48.7396C33.0121 48.1311 33.031 46.9116 33.0711 46.7143L33.0759 46.7213C33.0782 46.6978 33.0806 46.6767 33.0853 46.6508C33.0664 46.6038 33.0475 46.5592 33.0263 46.5051C32.9838 46.4722 32.9224 46.4605 32.8515 46.4816C32.7547 46.5122 32.6886 46.5709 32.6768 46.6344C32.606 47.0808 32.5351 47.4003 32.4761 47.5601L32.443 47.6494L32.3557 47.687C32.1974 47.7575 31.8905 47.8491 31.038 47.8397C31.038 47.8397 30.2989 47.8444 30.2848 47.8444C29.6354 47.8538 29.4441 47.8421 29.3237 47.7457L29.2576 47.694L29.2411 47.6118C29.1773 47.2782 29.1985 44.4539 29.1985 44.4304C29.234 43.7114 29.5173 43.2861 29.9801 43.265C30.7263 43.2321 31.6402 43.2791 31.9684 43.3284C32.273 43.3731 32.6083 43.4506 32.7901 43.6879L32.8326 43.742C32.8326 43.742 32.8515 44.0122 32.8515 44.0192C32.8515 44.0192 32.8539 44.656 32.8539 44.6607L32.8515 44.7805C32.8515 44.9826 32.8775 45.0061 32.9295 45.039C32.9342 45.0413 33.0617 45.1236 33.1632 45.0836C33.1632 45.0836 33.1821 45.0766 33.1986 45.0695C33.2128 45.0507 33.2199 45.0437 33.2293 45.0296C33.2364 45.0131 33.2435 45.0037 33.253 44.9802C33.2577 44.8862 33.2742 44.6231 33.2742 44.6207L33.3356 43.7302L33.3427 43.7067C33.3899 43.5446 33.4419 43.3073 33.4419 43.1287C33.4419 43.0206 33.423 42.9854 33.4206 42.983C33.3569 42.8844 33.2246 42.6799 32.4595 42.7199C32.4595 42.7199 30.0108 42.7951 30.0014 42.7951C28.5232 42.7692 27.3827 42.7551 27.1938 42.8256C27.1914 42.8303 27.1867 42.8444 27.1867 42.8444L27.1749 42.8632C27.1324 42.9267 27.1229 42.9643 27.1229 42.9854C27.1229 42.9971 27.1253 43.0042 27.1277 43.0089C27.1277 43.0089 27.1324 43.023 27.1324 43.0253C27.1725 43.0324 27.2434 43.0441 27.2434 43.0441C27.3638 43.0512 27.4842 43.0911 27.5645 43.2814C27.6944 43.5869 27.8054 44.9097 27.8266 45.6851L27.8313 45.8237C27.8904 47.9924 27.9541 50.5582 27.9541 51.4229C27.9541 51.5709 27.9518 51.6696 27.947 51.7072L27.94 51.7002C27.94 51.7143 27.9423 51.7237 27.9423 51.7401C27.9423 51.8012 27.9376 51.8764 27.9329 51.9657L27.9187 52.2312C27.8927 53.1358 27.8526 53.7514 27.7416 53.9981C27.5881 54.4727 27.3024 54.5714 27.1607 54.6184C27.1607 54.6184 27.0993 54.6442 27.0663 54.6583C27.0474 54.6701 27.0356 54.6912 27.0332 54.7171C27.0332 54.7218 27.0332 54.7265 27.0332 54.7312C27.0332 54.797 27.0781 54.8862 27.097 54.9074C27.097 54.9074 27.1017 54.9121 27.104 54.9144C27.3024 54.9097 27.7416 54.8956 27.7463 54.8956C27.7463 54.8956 27.888 54.8956 27.9163 54.8956C28.8869 54.7852 31.0002 54.8651 32.0983 54.9309C33.0522 54.9873 33.6119 54.9003 33.7394 54.7876C33.8504 54.6912 33.9661 54.468 34.0535 54.1743L34.0723 54.132L34.1219 54.0075C34.1219 54.0075 34.1833 53.8336 34.1904 53.8148C34.1975 53.7819 34.3274 53.2016 34.3297 53.1969C34.4265 52.7857 34.4667 52.5977 34.4667 52.499C34.4667 52.4403 34.4525 52.4144 34.4265 52.3909C34.3557 52.3205 34.2896 52.3228 34.2565 52.3299Z" fill="#545454"/>
<path d="M57.7671 52.2571C57.6916 52.2548 57.6467 52.3065 57.6255 52.3394L57.6231 52.3417C57.5948 52.4592 57.5121 52.814 57.5121 52.814L57.3539 53.5118L57.3209 53.5612C57.191 53.7562 56.9478 54.1204 56.0812 54.1862C55.0799 54.2613 53.5734 54.2801 53.3467 54.2355L53.3278 54.2308L53.3113 54.2238C53.0728 54.1392 52.9193 53.9629 52.8438 53.3145C52.7564 52.572 52.6501 49.6866 52.6501 48.8995V48.8431L52.6596 48.5988L54.9312 48.5894L54.9406 48.5917C54.9406 48.5917 54.9973 48.5964 54.9949 48.5964C55.1366 48.6082 55.3987 48.627 55.6018 48.7186L55.6774 48.7632L55.7128 48.8243L55.8002 49.0193L55.7978 49.0029C55.7978 49.0029 55.845 49.4752 55.845 49.4799C55.8663 49.7501 55.8781 49.8511 55.9466 49.9075C56.0174 49.9709 56.0717 50.0015 56.1355 49.9827C56.1685 49.9733 56.2134 49.9474 56.2394 49.8511C56.2583 49.7736 56.2464 49.4893 56.1898 48.7632L56.1803 48.6457C56.1614 48.3802 56.1945 47.0903 56.2181 46.9352L56.2205 46.9235L56.2228 46.9117C56.2677 46.7449 56.263 46.6321 56.2087 46.5663C56.1756 46.5264 56.126 46.5076 56.0693 46.5123C55.8875 46.5264 55.8521 46.5898 55.8521 46.8835C55.8521 46.8835 55.8545 47.0598 55.8545 47.0621C55.8545 47.4568 55.7789 47.6918 55.616 47.8022L55.5853 47.821L55.5522 47.8304C54.9642 48.002 54.0079 48.0207 53.6277 48.0207C53.6277 48.0207 53.4058 48.0254 53.3987 48.0254L52.6832 48.0137L52.6265 47.7693C52.6265 47.7693 52.6336 47.7764 52.636 47.7764C52.6218 47.7247 52.6147 47.6636 52.6147 47.5884C52.6147 47.5273 52.6171 47.4592 52.6194 47.3863C52.6171 47.0386 52.6147 46.7261 52.6147 46.4418C52.6147 43.9371 52.721 43.6998 52.7564 43.6176L52.7682 43.5894L52.7895 43.5659C52.9949 43.3215 53.2027 43.2675 53.7623 43.2252C54.3479 43.1805 55.0067 43.2181 55.2854 43.2604C55.6726 43.3192 56.1803 43.5612 56.2984 43.6645H56.2889C56.3244 43.6927 56.3551 43.7233 56.3716 43.7421C56.4542 43.8361 56.5818 44.0875 56.5818 44.4822C56.5818 44.5292 56.5794 44.5785 56.5747 44.6302C56.5723 44.6561 56.5723 44.6843 56.5723 44.7148C56.5723 44.8605 56.6006 45.0367 56.7352 45.0508C56.8557 45.0626 56.9194 44.9404 56.9383 44.8276C56.9383 44.7618 56.9336 44.0757 56.9336 44.0734L56.9265 43.782V43.7679L56.9336 43.5964C56.9501 43.1641 56.9454 42.9996 56.9171 42.9597C56.8769 42.9056 56.5841 42.6824 55.9702 42.673C55.9702 42.673 54.3031 42.7341 54.3149 42.7341C53.5026 42.8046 52.2841 42.7999 52.0267 42.7858L51.4671 42.7458C51.4671 42.7458 50.5131 42.6871 50.4588 42.6848C50.4045 42.6918 50.3384 42.7505 50.3266 42.8304C50.3266 42.8375 50.3242 42.8445 50.3242 42.8492C50.3242 42.9009 50.3549 42.9432 50.4092 42.9644C50.5297 43.009 50.9334 43.1711 51.0303 43.3614C51.1719 43.6434 51.2617 44.0264 51.2876 44.4705L51.4104 48.4178C51.4175 48.6481 51.4529 51.0917 51.4529 52.2759C51.4529 52.5626 51.4506 52.774 51.4459 52.8633C51.4459 52.8633 51.4388 53.0207 51.4388 53.0231C51.3868 54.0264 51.3183 54.3083 51.2262 54.4329L51.1956 54.4752L51.1483 54.4987C50.9712 54.5926 50.8744 54.7054 50.8744 54.8159C50.8744 54.8206 50.8744 54.8253 50.8744 54.83C50.8791 54.8863 50.9122 54.9333 50.9618 54.9498C51.0303 54.9756 51.1908 54.9451 51.3797 54.9122C51.3797 54.9122 51.5993 54.877 51.6088 54.8746C51.826 54.8488 52.9807 54.8229 53.5427 54.8394C53.5427 54.8394 54.3503 54.8558 54.3527 54.8558C54.3527 54.8558 55.9371 54.9004 55.9466 54.9004C56.6975 54.9498 57.2004 54.9075 57.3256 54.783C57.4507 54.6584 57.5523 54.4893 57.583 54.3506L57.5877 54.3318C57.616 54.2308 57.8262 53.1171 57.9537 52.4404L57.9561 52.4357C57.9561 52.4333 57.9537 52.431 57.9537 52.431C57.9372 52.3723 57.8758 52.2595 57.7671 52.2571Z" fill="#545454"/>
<path d="M81.8001 54.656C81.7765 54.6536 81.4814 54.6301 81.4625 54.6301C81.2783 54.6301 81.146 54.6301 81.0114 54.5597L80.7163 54.3952L80.6856 54.3223C80.6218 54.1649 80.5841 53.9323 80.5581 53.5446C80.499 52.6588 80.3621 47.1724 80.3621 44.8275C80.3621 43.8548 80.3857 43.7396 80.3951 43.6903C80.4093 43.6174 80.4636 43.3684 80.5439 43.2157L80.5935 43.1217L80.78 43.0817C80.78 43.0817 80.7682 43.0958 80.7659 43.0982C80.8485 43.0794 80.9571 43.07 81.1272 43.0629L81.4365 43.0488H81.4389C81.4861 43.0347 81.5853 42.9666 81.5876 42.8703C81.5876 42.835 81.5687 42.7716 81.4861 42.7316C81.3231 42.7034 80.7871 42.6987 79.8001 42.7011C79.8001 42.7011 79.649 42.7034 79.6419 42.7034L79.3774 42.6964C78.6478 42.6753 77.8213 42.6518 77.7268 42.7387L77.7127 42.7786L77.7056 42.8045L77.6914 42.8538L77.7009 42.9079C77.7292 42.9737 77.8 43.0089 77.9063 43.0136L78.0928 43.0159C78.5769 43.0159 78.6879 43.0512 78.754 43.0817L78.7824 43.0958L78.806 43.117C78.9382 43.2345 79.035 43.3966 79.0515 44.3999L79.061 44.8299C79.1342 48.6856 79.172 51.2655 79.172 52.4967C79.172 52.9337 79.1672 53.2039 79.1578 53.3097L79.1554 53.4859C79.1531 53.8172 79.1413 54.1109 79.0563 54.3247L79.0279 54.3952L78.7422 54.5667L78.6855 54.5996C78.6855 54.5996 78.3384 54.616 78.3361 54.616C78.0196 54.6325 77.9299 54.6466 77.8827 54.6936C77.8638 54.7523 77.8473 54.7993 77.8189 54.8792C77.8236 54.8909 77.8284 54.9027 77.8284 54.9027C77.8591 54.9779 77.9346 55.0037 77.97 55.0108H77.9748C78.0787 55.0061 78.5084 54.992 78.5084 54.992C78.5084 54.992 79.0256 54.9638 79.0374 54.9638L81.7293 54.9755H81.7387C81.8426 54.9849 81.93 54.9215 81.9465 54.8299C81.9418 54.7382 81.8922 54.6701 81.8001 54.656Z" fill="#545454"/>
<path d="M66.5366 43.1335C66.5366 43.1335 66.7586 43.1499 66.7609 43.1499C66.7609 43.1499 67.304 43.1922 67.3088 43.1922L67.3867 43.1993L67.5685 43.2298L67.7102 43.2533C67.7102 43.2533 67.7716 43.4648 67.774 43.4718C67.9605 44.1603 68.0738 49.3318 68.0738 51.4206C68.0738 51.4206 68.062 52.3628 68.062 52.3651L68.0526 52.7105C68.0361 53.3379 68.0219 53.9323 67.9227 54.2448L67.9156 54.273L67.9015 54.2965C67.7716 54.5033 67.6771 54.8276 67.6748 54.8322C67.6748 54.8322 67.6795 54.8604 67.6842 54.8698C67.6866 54.8722 67.8047 54.9803 68.506 54.9074H68.5178C68.5178 54.9074 69.4954 54.9098 69.4977 54.9098C69.4977 54.9098 70.0786 54.9192 70.0692 54.9192L70.5178 54.9074C71.0893 54.8933 71.8 54.8745 71.9228 54.8463C72.9524 54.6795 75.4884 54.0592 76.8226 51.9446C78.4732 49.3294 77.7435 46.8106 77.5806 46.3313C77.3444 45.6358 76.6242 43.5212 73.3514 42.8633C72.388 42.6283 71.1082 42.7434 70.3407 42.8139C70.3407 42.8139 69.8118 42.8515 69.8047 42.8515L69.2451 42.8844L69.2026 42.8821C69.2026 42.8821 68.2297 42.8257 68.2344 42.8257C68.2344 42.8257 67.585 42.8092 67.5921 42.8092C67.5921 42.8092 67.1435 42.8022 67.1317 42.8022L66.9073 42.7881C66.6075 42.7716 66.5154 42.774 66.4611 42.8092C66.4469 42.8492 66.4233 42.9079 66.3926 42.9854C66.3949 42.9948 66.3997 43.0042 66.3997 43.0042C66.4209 43.0724 66.4752 43.1194 66.5366 43.1335ZM69.2805 44.4258C69.2852 44.024 69.3348 43.7632 69.4269 43.6551C69.4269 43.6551 69.5048 43.5963 69.5119 43.5916C69.5095 43.594 69.5024 43.5963 69.5001 43.5987L69.5166 43.5893L69.5143 43.5916C69.7339 43.4507 70.3832 43.2416 72.3124 43.3567C75.3137 43.5259 76.3928 46.1339 76.4046 48.5212C76.3291 53.1899 73.6726 53.8619 72.8012 54.0827C72.8012 54.0827 72.6643 54.118 72.669 54.118C72.3337 54.2143 71.6277 54.2589 70.5721 54.2448H70.4871C70.3336 54.2448 69.8307 54.125 69.6607 54.0733L69.5261 54.0334L69.5025 53.8971C69.4788 53.7679 69.4576 53.5071 69.4293 53.157L69.4009 52.7951C69.3466 52.1114 69.2828 46.2538 69.2828 44.6889L69.2805 44.4258Z" fill="#545454"/>
<path d="M105.902 69.0663C104.712 69.0663 104.089 68.3826 104.027 67.0151L105.099 66.7919C105.128 67.68 105.383 68.1265 105.864 68.1265C106.051 68.1265 106.19 68.0701 106.282 67.9573C106.372 67.8445 106.419 67.6918 106.419 67.4991C106.419 67.3135 106.386 67.142 106.318 66.9869C106.249 66.8318 106.171 66.7049 106.082 66.6063C105.992 66.5076 105.864 66.3854 105.699 66.2397L104.811 65.4737C104.552 65.2458 104.356 65.0109 104.228 64.7665C104.101 64.5221 104.037 64.2167 104.037 63.8478C104.037 63.3262 104.19 62.9221 104.5 62.633C104.809 62.344 105.232 62.196 105.768 62.1913C106.016 62.189 106.233 62.2195 106.424 62.283C106.613 62.3464 106.771 62.431 106.894 62.5391C107.017 62.6448 107.121 62.7787 107.203 62.9385C107.286 63.0983 107.347 63.2627 107.39 63.4343C107.43 63.6058 107.458 63.7961 107.475 64.0076L106.424 64.2143C106.419 64.0781 106.41 63.9606 106.398 63.8619C106.386 63.7632 106.365 63.6598 106.334 63.5588C106.304 63.4554 106.266 63.3732 106.219 63.3097C106.171 63.2463 106.108 63.1946 106.027 63.157C105.947 63.1194 105.855 63.1053 105.749 63.1124C105.567 63.1241 105.428 63.1829 105.331 63.2933C105.234 63.4037 105.187 63.5494 105.187 63.7327C105.187 63.9488 105.229 64.1274 105.314 64.266C105.399 64.4047 105.534 64.555 105.716 64.7148L106.596 65.4761C106.743 65.6077 106.87 65.7369 106.979 65.8614C107.088 65.986 107.192 66.1269 107.291 66.2867C107.39 66.4465 107.465 66.6227 107.517 66.813C107.569 67.0057 107.595 67.2078 107.595 67.4216C107.595 67.9103 107.439 68.3074 107.128 68.6128C106.814 68.9136 106.408 69.0663 105.902 69.0663Z" fill="#545454"/>
<path d="M112.119 69.0663C111.829 69.0663 111.572 69.0287 111.35 68.9559C111.128 68.883 110.943 68.782 110.797 68.6528C110.651 68.5235 110.533 68.3614 110.443 68.1711C110.351 67.9784 110.287 67.774 110.252 67.5531C110.214 67.3323 110.197 67.0856 110.197 66.8083V64.4657C110.197 64.1744 110.216 63.9159 110.254 63.6903C110.292 63.4648 110.355 63.2557 110.445 63.063C110.535 62.8703 110.653 62.7106 110.797 62.586C110.943 62.4615 111.125 62.3652 111.347 62.2947C111.569 62.2242 111.827 62.1889 112.119 62.1889C112.457 62.1889 112.743 62.2336 112.984 62.3229C113.222 62.4122 113.411 62.5437 113.55 62.7153C113.69 62.8891 113.789 63.0912 113.853 63.3215C113.914 63.5517 113.947 63.8219 113.947 64.1297V64.7054H112.762V64.1344C112.762 63.7984 112.743 63.5729 112.71 63.4577C112.639 63.2298 112.467 63.11 112.193 63.0935C112.171 63.0935 112.15 63.0935 112.126 63.0935C112.023 63.0935 111.933 63.1053 111.855 63.1311C111.777 63.1546 111.716 63.1946 111.666 63.2463C111.616 63.3003 111.579 63.3543 111.548 63.4154C111.517 63.4742 111.496 63.5517 111.482 63.6481C111.468 63.7444 111.458 63.8337 111.454 63.9136C111.449 63.9934 111.446 64.0968 111.446 64.2214V67.0668C111.446 67.4615 111.496 67.7434 111.595 67.9103C111.694 68.0771 111.871 68.1617 112.126 68.1617C112.214 68.1617 112.289 68.1523 112.358 68.1311C112.424 68.11 112.481 68.0865 112.526 68.0536C112.57 68.0231 112.608 67.9784 112.639 67.9197C112.67 67.8609 112.693 67.8069 112.71 67.7575C112.726 67.7082 112.738 67.6377 112.748 67.5484C112.757 67.4591 112.759 67.384 112.762 67.3205C112.764 67.2594 112.764 67.1725 112.764 67.0644V66.4653H113.949V67.0174C113.949 67.2688 113.933 67.4944 113.898 67.6941C113.862 67.8938 113.801 68.0818 113.716 68.258C113.631 68.4342 113.52 68.5799 113.383 68.695C113.248 68.8125 113.073 68.9018 112.861 68.9676C112.646 69.0334 112.4 69.0663 112.119 69.0663Z" fill="#545454"/>
<path d="M116.803 68.9841V62.2642H118.033V65.0743H119.405V62.2642H120.635V68.9841H119.405V65.9437H118.033V68.9841H116.803Z" fill="#545454"/>
<path d="M125.491 69.0663C124.796 69.0663 124.298 68.8783 123.996 68.5024C123.694 68.1264 123.545 67.5766 123.545 66.8529V64.3717C123.545 64.0146 123.578 63.7068 123.646 63.4436C123.715 63.1828 123.824 62.9549 123.975 62.7622C124.126 62.5696 124.327 62.4262 124.579 62.3299C124.832 62.2336 125.136 62.1866 125.491 62.1866C126.183 62.1866 126.681 62.3722 126.983 62.7411C127.285 63.1123 127.436 63.6551 127.436 64.3717V66.8529C127.436 67.2054 127.401 67.5132 127.332 67.7787C127.264 68.0442 127.153 68.2745 127.002 68.4718C126.851 68.6692 126.65 68.8149 126.397 68.9159C126.147 69.0169 125.845 69.0663 125.491 69.0663ZM125.184 68.1053C125.269 68.1405 125.373 68.157 125.491 68.157C125.611 68.157 125.713 68.1382 125.795 68.1053C125.88 68.07 125.946 68.0254 125.996 67.9667C126.046 67.9103 126.086 67.8351 126.114 67.7434C126.142 67.6518 126.161 67.5602 126.171 67.4685C126.18 67.3769 126.185 67.2665 126.185 67.1396V64.0874C126.185 63.9253 126.178 63.789 126.161 63.6833C126.145 63.5752 126.114 63.4718 126.064 63.3778C126.017 63.2815 125.946 63.211 125.85 63.1617C125.755 63.1147 125.635 63.0912 125.486 63.0912C125.34 63.0912 125.217 63.1147 125.122 63.1617C125.025 63.2087 124.955 63.2815 124.907 63.3778C124.86 63.4742 124.829 63.5752 124.813 63.6833C124.796 63.7914 124.789 63.9253 124.789 64.0874V67.1396C124.789 67.2665 124.794 67.3769 124.804 67.4685C124.813 67.5602 124.832 67.6518 124.86 67.7434C124.889 67.8351 124.929 67.9103 124.976 67.9667C125.03 68.0254 125.099 68.07 125.184 68.1053Z" fill="#545454"/>
<path d="M132.176 69.0663C131.482 69.0663 130.984 68.8783 130.681 68.5024C130.379 68.1264 130.23 67.5766 130.23 66.8529V64.3717C130.23 64.0146 130.264 63.7068 130.332 63.4436C130.4 63.1828 130.509 62.9549 130.66 62.7622C130.811 62.5696 131.012 62.4262 131.265 62.3299C131.517 62.2336 131.822 62.1866 132.176 62.1866C132.868 62.1866 133.366 62.3722 133.669 62.7411C133.971 63.1123 134.122 63.6551 134.122 64.3717V66.8529C134.122 67.2054 134.087 67.5132 134.018 67.7787C133.95 68.0442 133.839 68.2745 133.687 68.4718C133.536 68.6692 133.336 68.8149 133.083 68.9159C132.833 69.0169 132.53 69.0663 132.176 69.0663ZM131.869 68.1053C131.954 68.1405 132.058 68.157 132.176 68.157C132.297 68.157 132.398 68.1382 132.481 68.1053C132.566 68.07 132.632 68.0254 132.682 67.9667C132.731 67.9103 132.771 67.8351 132.8 67.7434C132.828 67.6518 132.847 67.5602 132.856 67.4685C132.866 67.3769 132.87 67.2665 132.87 67.1396V64.0874C132.87 63.9253 132.863 63.789 132.847 63.6833C132.83 63.5752 132.8 63.4718 132.75 63.3778C132.703 63.2815 132.632 63.211 132.535 63.1617C132.441 63.1147 132.32 63.0912 132.171 63.0912C132.025 63.0912 131.902 63.1147 131.808 63.1617C131.711 63.2087 131.64 63.2815 131.593 63.3778C131.546 63.4742 131.515 63.5752 131.499 63.6833C131.482 63.7914 131.475 63.9253 131.475 64.0874V67.1396C131.475 67.2665 131.48 67.3769 131.489 67.4685C131.499 67.5602 131.517 67.6518 131.546 67.7434C131.574 67.8351 131.614 67.9103 131.661 67.9667C131.716 68.0254 131.782 68.07 131.869 68.1053Z" fill="#545454"/>
<path d="M137.018 68.984V62.2641H138.248V68.1382H139.865V68.9864H137.018V68.984Z" fill="#545454"/>
<path d="M52.1348 68.9841V62.2642H53.7901C54.1018 62.2642 54.3757 62.2924 54.6071 62.3464C54.8385 62.4028 55.0463 62.4944 55.2258 62.6213C55.4076 62.7505 55.5422 62.9268 55.6343 63.1547C55.7264 63.3826 55.7712 63.6551 55.7689 63.977C55.7665 64.8065 55.4359 65.2693 54.7747 65.368C55.1738 65.4432 55.4713 65.6171 55.6697 65.8896C55.8657 66.1622 55.9672 66.5428 55.9696 67.0339C55.9719 67.673 55.8114 68.157 55.4879 68.4883C55.1644 68.8196 54.6945 68.9841 54.0734 68.9841H52.1348ZM53.365 65.0038H53.7476C54.1088 65.0038 54.3568 64.9263 54.4937 64.7736C54.6307 64.6185 54.6968 64.36 54.6968 63.9958C54.6968 63.8055 54.6756 63.6528 54.6283 63.5353C54.5835 63.4178 54.5079 63.3285 54.4017 63.2698C54.2954 63.2111 54.1773 63.1711 54.0498 63.1523C53.9199 63.1335 53.7499 63.1241 53.535 63.1241H53.3627V65.0038H53.365ZM53.365 68.1218H53.816C54.182 68.1218 54.4371 68.0372 54.5788 67.8657C54.7204 67.6965 54.7913 67.4145 54.7913 67.0222C54.7913 66.6157 54.711 66.322 54.5528 66.141C54.3946 65.9578 54.1277 65.8685 53.7523 65.8685H53.365V68.1218Z" fill="#545454"/>
<path d="M60.6122 69.0663C60.31 69.0663 60.0502 69.0311 59.8283 68.9606C59.6063 68.8901 59.4245 68.7914 59.2828 68.6645C59.1411 68.5376 59.0254 68.3755 58.9404 68.1758C58.8554 67.9784 58.794 67.7623 58.7609 67.532C58.7279 67.3017 58.709 67.0315 58.709 66.7261V62.2641H59.9015V66.8529C59.9015 67.0104 59.9062 67.1443 59.9133 67.2547C59.9203 67.3652 59.9392 67.4826 59.9652 67.6025C59.9912 67.7247 60.0313 67.821 60.0809 67.8938C60.1305 67.9667 60.2013 68.0278 60.2887 68.0771C60.3761 68.1264 60.4823 68.1499 60.6075 68.1499C60.7326 68.1499 60.8389 68.1241 60.9263 68.0771C61.0136 68.0278 61.0821 67.9667 61.1293 67.8938C61.1766 67.821 61.2144 67.7247 61.2427 67.6025C61.271 67.4803 61.2899 67.3652 61.2946 67.2547C61.3017 67.1443 61.3041 67.0104 61.3041 66.8506V62.2618H62.4966V66.7237C62.4966 67.0292 62.48 67.297 62.4446 67.5296C62.4116 67.7599 62.3502 67.9761 62.2651 68.1734C62.1801 68.3708 62.0668 68.5353 61.9251 68.6622C61.7834 68.789 61.6016 68.8877 61.382 68.9582C61.1624 69.0287 60.9097 69.0663 60.6122 69.0663Z" fill="#545454"/>
<path d="M67.1601 69.0663C65.97 69.0663 65.3466 68.3826 65.2852 67.0151L66.3572 66.7919C66.3855 67.68 66.6406 68.1265 67.1223 68.1265C67.3088 68.1265 67.4482 68.0701 67.5402 67.9573C67.63 67.8445 67.6772 67.6918 67.6772 67.4991C67.6772 67.3135 67.6441 67.142 67.5757 66.9869C67.5072 66.8318 67.4293 66.7049 67.3395 66.6063C67.2498 66.5076 67.1223 66.3854 66.957 66.2397L66.0691 65.4737C65.8094 65.2458 65.6134 65.0109 65.4859 64.7665C65.3584 64.5221 65.2946 64.2167 65.2946 63.8478C65.2946 63.3262 65.4481 62.9221 65.7574 62.633C66.0668 62.344 66.4894 62.196 67.0255 62.1913C67.2734 62.189 67.4907 62.2195 67.6819 62.283C67.8708 62.3464 68.029 62.431 68.1518 62.5391C68.2746 62.6448 68.3785 62.7787 68.4612 62.9385C68.5438 63.0983 68.6052 63.2627 68.6477 63.4343C68.6879 63.6058 68.7162 63.7961 68.7327 64.0076L67.6819 64.2143C67.6772 64.0781 67.6678 63.9606 67.6559 63.8619C67.6441 63.7632 67.6229 63.6598 67.5922 63.5588C67.5615 63.4554 67.5237 63.3732 67.4765 63.3097C67.4293 63.2463 67.3655 63.1946 67.2852 63.157C67.2049 63.1194 67.1128 63.1053 67.0066 63.1124C66.8248 63.1241 66.6854 63.1829 66.5886 63.2933C66.4918 63.4037 66.4446 63.5494 66.4446 63.7327C66.4446 63.9488 66.4871 64.1274 66.5721 64.266C66.6571 64.4047 66.7917 64.555 66.9735 64.7148L67.8543 65.4761C68.0007 65.6077 68.1282 65.7369 68.2368 65.8614C68.3455 65.986 68.4494 66.1269 68.5485 66.2867C68.6477 66.4465 68.7233 66.6227 68.7752 66.813C68.8272 67.0057 68.8532 67.2078 68.8532 67.4216C68.8532 67.9103 68.6973 68.3074 68.3856 68.6128C68.0739 68.9136 67.6654 69.0663 67.1601 69.0663Z" fill="#545454"/>
<path d="M71.6016 68.9841V62.2642H72.8153V68.9841H71.6016Z" fill="#545454"/>
<path d="M75.8477 68.984V62.2641H76.6954L78.3483 66.0705V62.2641H79.366V68.984H78.5585L76.889 64.9826V68.984H75.8477Z" fill="#545454"/>
<path d="M82.3809 68.984V62.2641H85.2074V63.1264H83.6111V65.0555H84.8744V65.9178H83.6111V68.1358H85.2286V68.984H82.3809Z" fill="#545454"/>
<path d="M89.6347 69.0663C88.4446 69.0663 87.8212 68.3826 87.7598 67.0151L88.8318 66.7919C88.8601 67.6801 89.1152 68.1265 89.5969 68.1265C89.7834 68.1265 89.9227 68.0701 90.0148 67.9573C90.1046 67.8445 90.1518 67.6918 90.1518 67.4992C90.1518 67.3135 90.1187 67.142 90.0503 66.9869C89.9818 66.8319 89.9039 66.705 89.8141 66.6063C89.7244 66.5076 89.5969 66.3854 89.4316 66.2398L88.5437 65.4738C88.284 65.2459 88.088 65.0109 87.9605 64.7665C87.833 64.5222 87.7692 64.2167 87.7692 63.8478C87.7692 63.3262 87.9227 62.9221 88.232 62.6331C88.5414 62.3441 88.964 62.196 89.5001 62.1913C89.748 62.189 89.9652 62.2195 90.1565 62.283C90.3454 62.3464 90.5036 62.431 90.6264 62.5391C90.7492 62.6448 90.8531 62.7788 90.9358 62.9385C91.0184 63.0983 91.0798 63.2628 91.1223 63.4343C91.1624 63.6058 91.1908 63.7961 91.2073 64.0076L90.1565 64.2144C90.1518 64.0781 90.1424 63.9606 90.1305 63.8619C90.1187 63.7632 90.0975 63.6599 90.0668 63.5588C90.0361 63.4554 89.9983 63.3732 89.9511 63.3098C89.9039 63.2463 89.8401 63.1946 89.7598 63.157C89.6795 63.1195 89.5874 63.1054 89.4812 63.1124C89.2994 63.1241 89.16 63.1829 89.0632 63.2933C88.9664 63.4038 88.9192 63.5494 88.9192 63.7327C88.9192 63.9489 88.9617 64.1274 89.0467 64.2661C89.1317 64.4047 89.2663 64.5551 89.4481 64.7148L90.3289 65.4761C90.4753 65.6077 90.6028 65.7369 90.7114 65.8615C90.8201 65.986 90.924 66.127 91.0231 66.2867C91.1223 66.4465 91.1979 66.6227 91.2498 66.8131C91.3018 67.0057 91.3277 67.2078 91.3277 67.4216C91.3277 67.9103 91.1719 68.3074 90.8602 68.6129C90.5461 68.9136 90.1376 69.0663 89.6347 69.0663Z" fill="#545454"/>
<path d="M95.7401 69.0663C94.55 69.0663 93.9266 68.3826 93.8652 67.0151L94.9373 66.7919C94.9656 67.6801 95.2207 68.1265 95.7024 68.1265C95.8889 68.1265 96.0282 68.0701 96.1203 67.9573C96.2101 67.8445 96.2573 67.6918 96.2573 67.4992C96.2573 67.3135 96.2242 67.142 96.1557 66.9869C96.0873 66.8319 96.0093 66.705 95.9196 66.6063C95.8299 66.5076 95.7024 66.3854 95.5371 66.2398L94.6492 65.4738C94.3895 65.2459 94.1935 65.0109 94.066 64.7665C93.9384 64.5222 93.8747 64.2167 93.8747 63.8478C93.8747 63.3262 94.0282 62.9221 94.3375 62.6331C94.6468 62.3441 95.0695 62.196 95.6056 62.1913C95.8535 62.189 96.0707 62.2195 96.262 62.283C96.4533 62.3464 96.6091 62.431 96.7319 62.5391C96.8547 62.6448 96.9586 62.7788 97.0413 62.9385C97.1239 63.0983 97.1853 63.2628 97.2278 63.4343C97.2679 63.6058 97.2963 63.7961 97.3128 64.0076L96.262 64.2144C96.2573 64.0781 96.2478 63.9606 96.236 63.8619C96.2242 63.7632 96.203 63.6599 96.1723 63.5588C96.1416 63.4554 96.1038 63.3732 96.0566 63.3098C96.0093 63.2463 95.9456 63.1946 95.8653 63.157C95.785 63.1195 95.6929 63.1054 95.5867 63.1124C95.4048 63.1241 95.2655 63.1829 95.1687 63.2933C95.0719 63.4038 95.0247 63.5494 95.0247 63.7327C95.0247 63.9489 95.0672 64.1274 95.1522 64.2661C95.2372 64.4047 95.3718 64.5551 95.5536 64.7148L96.4344 65.4761C96.5808 65.6077 96.7083 65.7369 96.8169 65.8615C96.9255 65.986 97.0294 66.127 97.1286 66.2867C97.2278 66.4465 97.3034 66.6227 97.3553 66.8131C97.4073 67.0057 97.4332 67.2078 97.4332 67.4216C97.4332 67.9103 97.2774 68.3074 96.9657 68.6129C96.654 68.9136 96.2455 69.0663 95.7401 69.0663Z" fill="#545454"/>
<path d="M106.432 37.9055H105.072V59.663H106.432V37.9055Z" fill="#545454"/>
</svg>
