<svg width="192" height="108" viewBox="0 0 192 108" fill="none" xmlns="http://www.w3.org/2000/svg">
<g clip-path="url(#clip0_2089_4441)">
<path d="M64.4216 50.6462C65.0028 51.7541 65.6324 52.8621 66.262 54.0182C66.3589 53.8737 66.4558 53.6329 66.6011 53.3438C66.7464 53.0548 66.9401 52.7176 67.1338 52.3322C67.3276 51.9468 67.5697 51.5614 67.8119 51.1279C68.0541 50.6943 68.2962 50.2608 68.5384 49.779C68.7806 49.3455 69.0227 48.8638 69.2649 48.4302C69.5071 47.9967 69.7492 47.6113 69.943 47.2259H70.0883C70.1851 47.9967 70.282 48.7674 70.3304 49.49C70.4273 50.2126 70.4757 50.9352 70.5726 51.6578C70.6694 52.3804 70.7179 53.0548 70.8147 53.7774C70.9116 54.4518 71.0085 55.1744 71.1053 55.8488C71.0085 55.8488 70.9116 55.8006 70.8147 55.8006H70.2336C70.1367 55.8006 70.0398 55.8006 69.943 55.8488C69.8461 54.7408 69.7492 53.681 69.6524 52.6694C69.5555 51.6578 69.4586 50.598 69.3133 49.5382H69.2649C68.6837 50.5498 68.1509 51.6096 67.5697 52.6212C67.037 53.6329 66.5042 54.6927 66.0199 55.8488H65.9714C65.4871 54.8372 64.9543 53.7774 64.4216 52.7176C63.8888 51.6578 63.3561 50.598 62.7749 49.5382H62.7264C62.678 50.0681 62.5811 50.598 62.5327 51.1761C62.4843 51.7541 62.3874 52.3804 62.339 52.9584C62.2905 53.5365 62.2421 54.0664 62.1937 54.5963C62.1452 55.1262 62.1452 55.5116 62.1452 55.8488C61.9999 55.8488 61.8546 55.8006 61.7093 55.8006C61.564 55.8006 61.4187 55.8006 61.2734 55.8488C61.3703 55.1744 61.5156 54.5 61.6125 53.7292C61.7093 53.0066 61.8546 52.2359 61.9515 51.5133C62.0484 50.7907 62.1452 50.0199 62.2421 49.2973C62.339 48.5747 62.3874 47.9003 62.4843 47.2259H62.678C63.3076 48.4302 63.8404 49.5382 64.4216 50.6462Z" fill="#545454"/>
<path d="M73.5271 49.0083C73.5271 48.4784 73.4787 47.9485 73.4787 47.4186C73.5756 47.4186 73.6724 47.4668 73.7693 47.4668H74.3505C74.4474 47.4668 74.5442 47.4186 74.6411 47.4186C74.5927 47.9485 74.5927 48.4784 74.5927 49.0083C74.5927 49.5382 74.5442 50.0681 74.5442 50.598V52.7176C74.5442 53.2475 74.5442 53.7774 74.5927 54.3073C74.5927 54.8372 74.6411 55.3671 74.6411 55.8488C74.4474 55.8488 74.2536 55.8006 74.0115 55.8006C73.7693 55.8006 73.5756 55.8006 73.3818 55.8488C73.4303 55.3189 73.4303 54.8372 73.4303 54.3073C73.4303 53.7774 73.4787 53.2475 73.4787 52.7176V50.598C73.5271 50.0681 73.5271 49.5382 73.5271 49.0083Z" fill="#545454"/>
<path d="M77.5955 50.598C77.5955 50.0681 77.5955 49.5382 77.5471 49.0083C77.5471 48.4784 77.4986 47.9485 77.4986 47.4186C77.7892 47.4186 78.1283 47.4668 78.4189 47.4668H79.3391C79.6297 47.4668 79.9687 47.4668 80.2593 47.4186C80.5499 47.4186 80.8889 47.3704 81.1795 47.3704C81.906 47.3704 82.5357 47.4668 83.02 47.6595C83.5528 47.8521 83.9402 48.093 84.2793 48.4784C84.6183 48.8156 84.8605 49.2492 85.0058 49.7791C85.1511 50.2608 85.2479 50.8389 85.2479 51.4651C85.2479 52.284 85.1026 52.9585 84.812 53.5365C84.5214 54.1146 84.1824 54.5482 83.7465 54.8854C83.3106 55.2226 82.8263 55.4634 82.2935 55.608C81.7607 55.7525 81.2764 55.8007 80.7436 55.8007H78.2736C77.983 55.8007 77.7408 55.8007 77.4502 55.8488C77.4986 55.3189 77.4986 54.8372 77.4986 54.3073C77.4986 53.7774 77.5471 53.2475 77.5471 52.7176V50.598H77.5955ZM78.6126 52.7176C78.6126 53.5847 78.661 54.4518 78.7095 55.3189C78.9032 55.3671 79.0969 55.3671 79.436 55.4153C79.7266 55.4153 80.0171 55.4634 80.3562 55.4634C80.7921 55.4634 81.2764 55.4153 81.7123 55.3189C82.1482 55.2226 82.5841 55.0299 82.9231 54.6927C83.2622 54.4036 83.5528 53.9701 83.7949 53.4884C84.0371 52.9585 84.134 52.3322 84.134 51.5133C84.134 50.7907 84.0371 50.2126 83.8918 49.7309C83.6981 49.2492 83.4559 48.912 83.1653 48.6229C82.8747 48.3339 82.4872 48.1894 82.0513 48.093C81.6154 47.9967 81.1311 47.9485 80.6468 47.9485C80.2593 47.9485 79.9203 47.9485 79.6297 47.9967C79.2907 48.0448 79.0001 48.0448 78.7579 48.093C78.7095 48.4784 78.7095 48.912 78.7095 49.3455V52.7176H78.6126Z" fill="#545454"/>
<path d="M87.8147 50.598C87.8147 50.0681 87.8147 49.5382 87.7663 49.0083C87.7663 48.4784 87.7179 47.9485 87.7179 47.4186C88.0085 47.4186 88.3475 47.4668 88.6381 47.4668H89.5583C89.8489 47.4668 90.188 47.4668 90.4786 47.4186C90.7692 47.4186 91.1082 47.3704 91.3988 47.3704C92.1253 47.3704 92.7549 47.4668 93.2392 47.6595C93.772 47.8521 94.1595 48.093 94.4985 48.4784C94.8375 48.8156 95.0797 49.2492 95.225 49.7791C95.3703 50.2608 95.4671 50.8389 95.4671 51.4651C95.4671 52.284 95.3219 52.9585 95.0313 53.5365C94.7407 54.1146 94.4016 54.5482 93.9657 54.8854C93.5298 55.2226 93.0455 55.4634 92.5127 55.608C91.98 55.7525 91.4956 55.8007 90.9629 55.8007H88.4928C88.2022 55.8007 87.96 55.8007 87.6694 55.8488C87.7179 55.3189 87.7179 54.8372 87.7179 54.3073C87.7179 53.7774 87.7663 53.2475 87.7663 52.7176V50.598H87.8147ZM88.8318 52.7176C88.8318 53.5847 88.8803 54.4518 88.9287 55.3189C89.1224 55.3671 89.3162 55.3671 89.6552 55.4153C89.9458 55.4153 90.2364 55.4634 90.5754 55.4634C91.0113 55.4634 91.4956 55.4153 91.9315 55.3189C92.3674 55.2226 92.8033 55.0299 93.1424 54.6927C93.4814 54.4036 93.772 53.9701 94.0142 53.4884C94.2563 52.9585 94.3532 52.3322 94.3532 51.5133C94.3532 50.7907 94.2563 50.2126 94.111 49.7309C93.9173 49.2492 93.6751 48.912 93.3845 48.6229C93.0939 48.3339 92.7065 48.1894 92.2706 48.093C91.8347 47.9967 91.3503 47.9485 90.866 47.9485C90.4785 47.9485 90.1395 47.9485 89.8489 47.9967C89.5099 48.0448 89.2193 48.0448 88.9771 48.093C88.9287 48.4784 88.9287 48.912 88.9287 49.3455V52.7176H88.8318Z" fill="#545454"/>
<path d="M98.0343 49.0083C98.0343 48.4784 97.9858 47.9485 97.9858 47.4186C98.0827 47.4186 98.1796 47.4668 98.2764 47.4668H98.8576C98.9545 47.4668 99.0514 47.4186 99.1482 47.4186C99.0998 47.9485 99.0998 48.4784 99.0998 49.0083C99.0998 49.5382 99.0514 50.0681 99.0514 50.598V53.2957C99.0514 54.0664 99.0514 54.7408 99.0998 55.3189H100.795C101.328 55.3189 101.909 55.2707 102.539 55.1744C102.49 55.3189 102.49 55.4634 102.49 55.5598C102.49 55.6561 102.49 55.7525 102.539 55.897C102.151 55.897 101.764 55.8488 101.425 55.8488H99.1482C98.7608 55.8488 98.4217 55.8488 97.9858 55.897C98.0343 55.3671 98.0343 54.8854 98.0343 54.3555C98.0343 53.8256 98.0827 53.2957 98.0827 52.7658V50.6462C98.0827 50.0681 98.0343 49.5382 98.0343 49.0083Z" fill="#545454"/>
<path d="M104.815 49.0083C104.815 48.4784 104.766 47.9485 104.766 47.4186C105.154 47.4186 105.493 47.4668 105.88 47.4668H108.108C108.447 47.4668 108.834 47.4186 109.222 47.4186C109.174 47.5631 109.174 47.6594 109.174 47.804C109.174 47.9485 109.174 48.0448 109.222 48.1893C108.98 48.1893 108.738 48.1412 108.495 48.1412C108.253 48.1412 108.06 48.093 107.817 48.093C107.575 48.093 107.285 48.0448 107.042 48.0448H106.025C106.025 48.2857 106.025 48.5747 105.977 48.8156V51.2242H106.946C107.236 51.2242 107.478 51.2242 107.721 51.1761C107.963 51.1761 108.156 51.1279 108.399 51.1279C108.592 51.1279 108.786 51.0797 108.98 51.0797C108.931 51.2242 108.931 51.3206 108.931 51.4651C108.931 51.6096 108.931 51.706 108.98 51.8505C108.786 51.8023 108.495 51.8023 108.253 51.8023C107.963 51.8023 107.672 51.7541 107.381 51.7541H105.977V55.3671H107.769C108.06 55.3671 108.35 55.3189 108.641 55.3189C108.931 55.3189 109.125 55.2707 109.319 55.2226C109.319 55.2707 109.27 55.3671 109.27 55.4153V55.6079C109.27 55.7525 109.27 55.8488 109.319 55.9452C108.931 55.9452 108.592 55.897 108.205 55.897H105.977C105.589 55.897 105.25 55.897 104.863 55.9452C104.911 55.4153 104.911 54.8854 104.911 54.3555C104.911 53.8256 104.96 53.2957 104.96 52.7658V50.6462C104.863 50.0681 104.863 49.5382 104.815 49.0083Z" fill="#545454"/>
<path d="M116.245 48.0448H115.567C115.325 48.0448 115.082 48.0448 114.84 48.093C114.598 48.093 114.356 48.1412 114.162 48.1412C113.92 48.1412 113.726 48.1893 113.581 48.1893C113.629 48.0448 113.629 47.9003 113.629 47.804C113.629 47.7076 113.629 47.5631 113.581 47.4186C114.114 47.4186 114.647 47.4668 115.179 47.4668H118.376C118.909 47.4668 119.441 47.4186 119.974 47.4186C119.926 47.5631 119.926 47.7076 119.926 47.804C119.926 47.9003 119.926 48.0448 119.974 48.1893C119.78 48.1412 119.587 48.1412 119.393 48.1412C119.199 48.1412 118.957 48.093 118.715 48.093C118.473 48.093 118.231 48.093 117.988 48.0448H117.31C117.262 48.9119 117.262 49.7309 117.262 50.598V52.7176C117.262 53.2475 117.262 53.7774 117.31 54.3073C117.31 54.8372 117.359 55.3671 117.359 55.8488C117.165 55.8488 116.971 55.8006 116.729 55.8006C116.535 55.8006 116.293 55.8006 116.1 55.8488C116.148 55.3189 116.148 54.8372 116.148 54.3073C116.148 53.7774 116.196 53.2475 116.196 52.7176V50.598C116.293 49.779 116.293 48.9119 116.245 48.0448Z" fill="#545454"/>
<path d="M122.057 49.0083C122.057 48.4784 122.008 47.9485 122.008 47.4186C122.396 47.4186 122.735 47.4668 123.122 47.4668H125.35C125.738 47.4668 126.077 47.4186 126.464 47.4186C126.416 47.5631 126.416 47.6594 126.416 47.804C126.416 47.9485 126.416 48.0448 126.464 48.1893C126.222 48.1893 125.98 48.1412 125.738 48.1412C125.495 48.1412 125.302 48.093 125.06 48.093C124.817 48.093 124.527 48.0448 124.285 48.0448H123.268C123.268 48.2857 123.268 48.5747 123.219 48.8156V51.2242H124.188C124.478 51.2242 124.721 51.2242 124.963 51.1761C125.205 51.1761 125.399 51.1279 125.641 51.1279C125.835 51.1279 126.028 51.0797 126.222 51.0797C126.174 51.2242 126.174 51.3206 126.174 51.4651C126.174 51.6096 126.174 51.706 126.222 51.8505C126.028 51.8023 125.738 51.8023 125.495 51.8023C125.253 51.8023 124.914 51.7541 124.624 51.7541H123.219V55.3671H125.011C125.302 55.3671 125.592 55.3189 125.883 55.3189C126.174 55.3189 126.367 55.2707 126.561 55.2226C126.561 55.2707 126.513 55.3671 126.513 55.4153V55.6079C126.513 55.7525 126.513 55.8488 126.561 55.9452C126.174 55.9452 125.835 55.897 125.447 55.897H123.219C122.832 55.897 122.493 55.897 122.105 55.9452C122.154 55.4153 122.154 54.8854 122.154 54.3555C122.154 53.8256 122.202 53.2957 122.202 52.7658V50.6462C122.057 50.0681 122.057 49.5382 122.057 49.0083Z" fill="#545454"/>
<path d="M132.809 52.6694C131.743 51.5133 130.678 50.4053 129.612 49.2492C129.612 49.49 129.612 49.7791 129.564 50.1644V54.0664C129.564 54.3555 129.564 54.5963 129.612 54.8854C129.612 55.1262 129.612 55.3671 129.661 55.5116C129.661 55.7043 129.661 55.8007 129.709 55.897C129.564 55.897 129.419 55.8488 129.273 55.8488C129.128 55.8488 128.934 55.8488 128.837 55.897C128.837 55.8007 128.886 55.6561 128.886 55.4634C128.886 55.2708 128.934 54.9817 128.934 54.6927C128.934 54.4036 128.983 54.0664 128.983 53.6811C128.983 53.3438 129.031 52.9585 129.031 52.6213C129.031 52.284 129.031 51.8987 129.08 51.5615V48.6229C129.08 48.0448 129.08 47.6113 129.031 47.3704H129.225C129.709 47.9003 130.242 48.4784 130.823 49.1046C131.404 49.7309 131.986 50.3571 132.518 50.9352C133.1 51.5615 133.632 52.0914 134.117 52.6694C134.601 53.1993 135.085 53.6811 135.424 54.0183V49.8272C135.424 49.0083 135.376 48.2375 135.327 47.5149C135.473 47.5631 135.618 47.5631 135.763 47.5631C135.86 47.5631 136.005 47.5631 136.151 47.5149C136.151 47.7076 136.102 47.9485 136.102 48.3339C136.102 48.7193 136.054 49.0565 136.054 49.49C136.054 49.9236 136.005 50.309 136.005 50.6943C136.005 51.0797 135.957 51.4169 135.957 51.6578V56.0897H135.763C134.892 54.9335 133.874 53.8256 132.809 52.6694Z" fill="#545454"/>
<path d="M143.029 52.6694C141.963 51.5133 140.898 50.4053 139.832 49.2492C139.832 49.49 139.832 49.7791 139.784 50.1644V54.0664C139.784 54.3555 139.784 54.5963 139.832 54.8854C139.88 55.1744 139.832 55.3671 139.88 55.5116C139.88 55.7043 139.88 55.8007 139.929 55.897C139.784 55.897 139.638 55.8488 139.493 55.8488C139.348 55.8488 139.154 55.8488 139.057 55.897C139.057 55.8007 139.106 55.6561 139.106 55.4634C139.106 55.2226 139.154 54.9817 139.154 54.6927C139.154 54.4036 139.202 54.0664 139.202 53.6811C139.202 53.3438 139.251 52.9585 139.251 52.6213C139.251 52.284 139.251 51.8987 139.299 51.5615V48.6229C139.299 48.0448 139.299 47.6113 139.251 47.3704H139.445C139.929 47.9003 140.462 48.4784 141.043 49.1046C141.624 49.7309 142.205 50.3571 142.738 50.9352C143.319 51.5615 143.852 52.0914 144.336 52.6694C144.821 53.1993 145.305 53.6811 145.644 54.0183V49.8272C145.644 49.0083 145.596 48.2375 145.547 47.5149C145.692 47.5631 145.838 47.5631 145.983 47.5631C146.08 47.5631 146.225 47.5631 146.371 47.5149C146.371 47.7076 146.322 47.9485 146.322 48.3339C146.322 48.7193 146.274 49.0565 146.274 49.49C146.274 49.9236 146.225 50.309 146.225 50.6943C146.225 51.0797 146.177 51.4169 146.177 51.6578V56.0897H145.983C145.111 54.9335 144.094 53.8256 143.029 52.6694Z" fill="#545454"/>
<path d="M149.276 49.0083C149.276 48.4784 149.228 47.9485 149.228 47.4186C149.615 47.4186 149.955 47.4668 150.342 47.4668H152.57C152.909 47.4668 153.296 47.4186 153.684 47.4186C153.635 47.5631 153.635 47.6594 153.635 47.804C153.635 47.9485 153.635 48.0448 153.684 48.1893C153.442 48.1893 153.2 48.1412 152.957 48.1412C152.715 48.1412 152.521 48.093 152.279 48.093C152.037 48.093 151.747 48.0448 151.504 48.0448H150.487C150.487 48.2857 150.487 48.5747 150.439 48.8156V51.2242H151.408C151.698 51.2242 151.94 51.2242 152.182 51.1761C152.425 51.1761 152.618 51.1279 152.861 51.1279C153.054 51.1279 153.248 51.0797 153.442 51.0797C153.393 51.2242 153.393 51.3206 153.393 51.4651C153.393 51.6096 153.393 51.706 153.442 51.8505C153.248 51.8023 152.957 51.8023 152.715 51.8023C152.473 51.8023 152.134 51.7541 151.843 51.7541H150.439V55.3671H152.231C152.521 55.3671 152.812 55.3189 153.103 55.3189C153.393 55.3189 153.587 55.2707 153.781 55.2226C153.781 55.2707 153.732 55.3671 153.732 55.4153V55.6079C153.732 55.7525 153.732 55.8488 153.781 55.9452C153.393 55.9452 153.054 55.897 152.667 55.897H150.439C150.051 55.897 149.712 55.897 149.325 55.9452C149.373 55.4153 149.373 54.8854 149.373 54.3555C149.373 53.8256 149.422 53.2957 149.422 52.7658V50.6462C149.325 50.0681 149.325 49.5382 149.276 49.0083Z" fill="#545454"/>
<path d="M156.105 54.7409C156.202 54.8854 156.347 55.0299 156.493 55.1744C156.638 55.3189 156.832 55.4153 157.074 55.4634C157.268 55.5598 157.51 55.5598 157.8 55.5598C158.091 55.5598 158.333 55.5116 158.527 55.4153C158.769 55.3189 158.914 55.1744 159.06 55.0299C159.205 54.8854 159.35 54.6927 159.399 54.4518C159.495 54.211 159.544 54.0183 159.544 53.7774C159.544 53.392 159.447 53.103 159.253 52.8621C159.06 52.6213 158.817 52.4767 158.527 52.284C158.236 52.0914 157.946 51.995 157.607 51.8987C157.268 51.7541 156.977 51.6096 156.686 51.4169C156.396 51.2242 156.154 50.9834 155.96 50.6943C155.766 50.4053 155.669 50.0199 155.669 49.5382C155.669 49.201 155.718 48.8638 155.863 48.5747C156.008 48.2857 156.154 48.0448 156.396 47.8522C156.638 47.6595 156.928 47.4668 157.219 47.3704C157.558 47.2741 157.897 47.1777 158.333 47.1777C158.721 47.1777 159.06 47.2259 159.35 47.3223C159.641 47.4186 159.931 47.5631 160.174 47.7558C160.077 47.9003 160.028 48.0448 159.98 48.1894C159.931 48.3339 159.883 48.5266 159.834 48.7674H159.689C159.641 48.6711 159.592 48.5266 159.544 48.3821C159.495 48.2375 159.399 48.1412 159.253 47.9967C159.156 47.9003 159.011 47.804 158.817 47.7076C158.672 47.6113 158.478 47.6113 158.236 47.6113C157.994 47.6113 157.8 47.6595 157.607 47.7076C157.413 47.804 157.268 47.9003 157.122 48.0448C156.977 48.1894 156.88 48.3339 156.783 48.5266C156.686 48.7193 156.686 48.912 156.686 49.1528C156.686 49.5382 156.783 49.8272 156.977 50.0681C157.171 50.309 157.413 50.4535 157.703 50.6462C157.994 50.8389 158.285 50.9352 158.624 51.0316C158.963 51.1279 159.253 51.2724 159.544 51.4651C159.834 51.6578 160.077 51.8505 160.27 52.1395C160.464 52.4286 160.561 52.7658 160.561 53.1993C160.561 53.5847 160.513 53.9219 160.367 54.2591C160.222 54.5963 160.028 54.8854 159.786 55.1262C159.544 55.3671 159.205 55.5598 158.817 55.7043C158.43 55.8488 157.994 55.897 157.558 55.897C157.025 55.897 156.638 55.8488 156.299 55.7043C155.96 55.5598 155.718 55.4153 155.524 55.2226C155.621 55.0299 155.669 54.8854 155.669 54.6927C155.718 54.5482 155.718 54.3555 155.766 54.1146H155.911C155.911 54.4036 156.008 54.5963 156.105 54.7409Z" fill="#545454"/>
<path d="M162.935 54.7409C163.031 54.8854 163.177 55.0299 163.322 55.1744C163.467 55.3189 163.661 55.4153 163.903 55.4634C164.097 55.5598 164.339 55.5598 164.63 55.5598C164.92 55.5598 165.163 55.5116 165.356 55.4153C165.598 55.3189 165.744 55.1744 165.889 55.0299C166.034 54.8854 166.18 54.6927 166.228 54.4518C166.325 54.211 166.373 54.0183 166.373 53.7774C166.373 53.392 166.277 53.103 166.083 52.8621C165.889 52.6213 165.647 52.4767 165.356 52.284C165.066 52.1395 164.775 51.995 164.436 51.8987C164.097 51.7541 163.806 51.6096 163.516 51.4169C163.225 51.2242 162.983 50.9834 162.789 50.6943C162.596 50.4053 162.499 50.0199 162.499 49.5382C162.499 49.201 162.547 48.8638 162.692 48.5747C162.838 48.2857 162.983 48.0448 163.225 47.8522C163.467 47.6595 163.758 47.4668 164.097 47.3704C164.436 47.2741 164.775 47.1777 165.211 47.1777C165.598 47.1777 165.937 47.2259 166.228 47.3223C166.519 47.4186 166.761 47.5631 167.051 47.7558C166.955 47.9003 166.906 48.0448 166.858 48.1894C166.809 48.3339 166.761 48.5266 166.712 48.7674H166.567C166.519 48.6711 166.47 48.5266 166.422 48.3821C166.373 48.2375 166.276 48.1412 166.131 47.9967C166.034 47.9003 165.889 47.804 165.695 47.7076C165.502 47.6113 165.356 47.6113 165.114 47.6113C164.872 47.6113 164.678 47.6595 164.484 47.7076C164.291 47.804 164.145 47.9003 164 48.0448C163.855 48.1894 163.758 48.3339 163.661 48.5266C163.564 48.7193 163.564 48.912 163.564 49.1528C163.564 49.5382 163.661 49.8272 163.855 50.0681C164.049 50.309 164.291 50.4535 164.581 50.6462C164.872 50.7907 165.163 50.9352 165.502 51.0316C165.841 51.1279 166.131 51.2724 166.422 51.4651C166.712 51.6578 166.955 51.8505 167.148 52.1395C167.342 52.4286 167.439 52.7658 167.439 53.1993C167.439 53.5847 167.39 53.9219 167.245 54.2591C167.1 54.5963 166.906 54.8854 166.664 55.1262C166.422 55.3671 166.083 55.5598 165.695 55.7043C165.308 55.8488 164.872 55.897 164.436 55.897C163.903 55.897 163.516 55.8488 163.177 55.7043C162.838 55.5598 162.596 55.4153 162.402 55.2226C162.499 55.0299 162.547 54.8854 162.547 54.6927C162.596 54.5482 162.596 54.3555 162.644 54.1146H162.789C162.692 54.4036 162.789 54.5963 162.935 54.7409Z" fill="#545454"/>
<path d="M169.715 49.0083C169.715 48.4784 169.667 47.9485 169.667 47.4186C170.054 47.4186 170.393 47.4668 170.78 47.4668H173.008C173.347 47.4668 173.735 47.4186 174.122 47.4186C174.074 47.5631 174.074 47.6594 174.074 47.804C174.074 47.9485 174.074 48.0448 174.122 48.1893C173.88 48.1893 173.638 48.1412 173.396 48.1412C173.154 48.1412 172.96 48.093 172.718 48.093C172.476 48.093 172.185 48.0448 171.943 48.0448H170.926C170.926 48.2857 170.926 48.5747 170.877 48.8156V51.2242H171.846C172.137 51.2242 172.379 51.2242 172.621 51.1761C172.863 51.1761 173.057 51.1279 173.299 51.1279C173.541 51.1279 173.686 51.0797 173.88 51.0797C173.832 51.2242 173.832 51.3206 173.832 51.4651C173.832 51.6096 173.832 51.706 173.88 51.8505C173.686 51.8023 173.396 51.8023 173.154 51.8023C172.863 51.8023 172.572 51.7541 172.282 51.7541H170.877V55.3671H172.669C172.96 55.3671 173.251 55.3189 173.541 55.3189C173.832 55.3189 174.025 55.2707 174.219 55.2226C174.219 55.2707 174.171 55.3671 174.171 55.4153V55.6079C174.171 55.7525 174.171 55.8488 174.219 55.9452C173.832 55.9452 173.493 55.897 173.105 55.897H170.877C170.49 55.897 170.151 55.897 169.763 55.9452C169.812 55.4153 169.812 54.8854 169.812 54.3555C169.812 53.8256 169.86 53.2957 169.86 52.7658V50.6462C169.715 50.0681 169.715 49.5382 169.715 49.0083Z" fill="#545454"/>
<path d="M176.496 49.0083C176.496 48.4784 176.447 47.9485 176.447 47.4186C176.835 47.4186 177.174 47.4668 177.561 47.4668H179.789C180.128 47.4668 180.516 47.4186 180.903 47.4186C180.855 47.5631 180.855 47.6594 180.855 47.804C180.855 47.9485 180.855 48.0448 180.903 48.1893C180.661 48.1893 180.419 48.1412 180.177 48.1412C179.934 48.1412 179.741 48.093 179.499 48.093C179.256 48.093 178.966 48.0448 178.724 48.0448H177.707C177.707 48.2857 177.707 48.5747 177.658 48.8156V51.2242H178.627C178.917 51.2242 179.16 51.2242 179.402 51.1761C179.644 51.1761 179.838 51.1279 180.08 51.1279C180.273 51.1279 180.467 51.0797 180.661 51.0797C180.612 51.2242 180.613 51.3206 180.613 51.4651C180.613 51.6096 180.612 51.706 180.661 51.8505C180.467 51.8023 180.177 51.8023 179.934 51.8023C179.692 51.8023 179.353 51.7541 179.063 51.7541H177.658V55.3671H179.45C179.741 55.3671 180.031 55.3189 180.322 55.3189C180.613 55.3189 180.806 55.2707 181 55.2226C181 55.2707 180.952 55.3671 180.952 55.4153V55.6079C180.952 55.7525 180.952 55.8488 181 55.9452C180.613 55.9452 180.273 55.897 179.886 55.897H177.658C177.271 55.897 176.932 55.897 176.544 55.9452C176.593 55.4153 176.593 54.8854 176.593 54.3555C176.593 53.8256 176.641 53.2957 176.641 52.7658V50.6462C176.496 50.0681 176.496 49.5382 176.496 49.0083Z" fill="#545454"/>
<path d="M57.6893 66.3023C57.7862 66.4469 57.883 66.5432 58.0283 66.6395C58.1736 66.7359 58.3189 66.8322 58.5127 66.8804C58.7064 66.9286 58.9001 66.9768 59.1423 66.9768C59.3845 66.9768 59.5782 66.9286 59.7719 66.8322C59.9656 66.7359 60.1109 66.6395 60.2562 66.495C60.4015 66.3505 60.4984 66.206 60.5468 66.0133C60.5953 65.8206 60.6437 65.6279 60.6437 65.4352C60.6437 65.098 60.5468 64.8572 60.4015 64.6645C60.2562 64.4718 60.0141 64.3273 59.7719 64.1827C59.5297 64.0382 59.2392 63.9419 58.9486 63.8455C58.658 63.7492 58.4158 63.6047 58.1252 63.4601C57.883 63.3156 57.6893 63.1229 57.4956 62.8339C57.3503 62.593 57.2534 62.2558 57.2534 61.8223C57.2534 61.5332 57.3018 61.2442 57.3987 61.0033C57.4956 60.7625 57.6409 60.5698 57.883 60.3771C58.0768 60.1844 58.3189 60.088 58.6095 59.9435C58.9001 59.8472 59.1907 59.799 59.5782 59.799C59.9172 59.799 60.2078 59.8472 60.45 59.9435C60.6921 60.0399 60.9343 60.1362 61.128 60.3289C61.0796 60.4253 61.0312 60.5698 60.9827 60.7143C60.9343 60.8588 60.8859 61.0033 60.8374 61.2442H60.6921C60.6437 61.1478 60.5953 61.0515 60.5468 60.907C60.4984 60.8106 60.4015 60.6661 60.3047 60.5698C60.2078 60.4734 60.0625 60.3771 59.9172 60.3289C59.7719 60.2807 59.6266 60.2326 59.3845 60.2326C59.1423 60.2326 58.997 60.2807 58.8517 60.3289C58.7064 60.3771 58.5611 60.4734 58.4158 60.6179C58.2705 60.7143 58.1736 60.8588 58.1252 61.0515C58.0768 61.196 58.0283 61.3887 58.0283 61.5814C58.0283 61.9186 58.1252 62.1595 58.2705 62.3522C58.4158 62.5449 58.658 62.6894 58.9001 62.8339C59.1423 62.9784 59.4329 63.0748 59.7235 63.1711C60.0141 63.2674 60.2562 63.412 60.5468 63.5565C60.789 63.701 60.9827 63.8937 61.1765 64.1346C61.3218 64.3754 61.4186 64.6645 61.4186 65.0498C61.4186 65.3871 61.3702 65.6761 61.2249 65.9651C61.128 66.2542 60.9343 66.495 60.6921 66.7359C60.45 66.9286 60.2078 67.1213 59.8688 67.2176C59.5297 67.314 59.1907 67.4103 58.7548 67.4103C58.3189 67.4103 57.9799 67.3621 57.6893 67.2176C57.3987 67.1213 57.205 66.9768 57.0112 66.8322C57.0597 66.6877 57.1081 66.5432 57.1565 66.3987C57.205 66.2542 57.205 66.1096 57.205 65.917H57.3503C57.4956 66.0615 57.5924 66.206 57.6893 66.3023Z" fill="#545454"/>
<path d="M66.6493 60.6179H65.4869C65.2932 60.6179 65.0994 60.6179 64.9057 60.6661C64.712 60.6661 64.5667 60.7143 64.4214 60.7143C64.4698 60.5698 64.4698 60.4734 64.4698 60.3771C64.4698 60.2807 64.4698 60.1844 64.4214 60.0399C64.9057 60.0399 65.3416 60.088 65.7775 60.088H68.4898C68.9257 60.088 69.41 60.088 69.8459 60.0399C69.7975 60.1844 69.7975 60.2807 69.7975 60.3771C69.7975 60.4734 69.7975 60.5698 69.8459 60.7143C69.7006 60.7143 69.5069 60.6661 69.3616 60.6661C69.1678 60.6661 68.9741 60.6179 68.7804 60.6179H67.618C67.618 61.3405 67.5695 62.0631 67.5695 62.7857V64.6163C67.5695 65.098 67.5695 65.5316 67.618 65.9651C67.618 66.3987 67.6664 66.8804 67.6664 67.3139H66.6009C66.6009 66.8804 66.6493 66.4468 66.6493 65.9651C66.6493 65.5316 66.6977 65.0498 66.6977 64.6163V62.7857C66.6977 62.0631 66.6493 61.3405 66.6493 60.6179Z" fill="#545454"/>
<path d="M78.4186 67.314H77.2562C77.2078 67.1694 77.1594 66.9767 77.0625 66.7359C76.9656 66.495 76.8688 66.2542 76.7719 66.0133C76.675 65.7724 76.5782 65.5316 76.4813 65.2425C76.3844 65.0017 76.2876 64.7608 76.1907 64.5199H73.5753C73.3332 65.0498 73.1394 65.5797 72.9457 66.1096C72.752 66.5914 72.6067 67.0249 72.5098 67.3621H71.7349C72.3161 66.1096 72.8488 64.9053 73.43 63.701C73.9628 62.4967 74.544 61.2442 75.0767 59.9917H75.2705C75.4642 60.3771 75.6095 60.8588 75.8032 61.2924C75.997 61.7741 76.1907 62.2558 76.3844 62.7375C76.5782 63.2193 76.7719 63.701 77.0141 64.1827C77.2562 64.6645 77.4015 65.098 77.5953 65.5316C77.789 65.9651 77.9343 66.3023 78.0796 66.6395C78.1765 66.8804 78.3218 67.1213 78.4186 67.314ZM73.7206 64.0382H76.0454L74.883 61.3405L73.7206 64.0382Z" fill="#545454"/>
<path d="M82.4872 60.6179H81.3248C81.1311 60.6179 80.9373 60.6179 80.7436 60.6661C80.5499 60.6661 80.4046 60.7143 80.2593 60.7143C80.3077 60.5698 80.3077 60.4734 80.3077 60.3771C80.3077 60.2807 80.3077 60.1844 80.2593 60.0399C80.7436 60.0399 81.1795 60.088 81.6154 60.088H84.3277C84.7635 60.088 85.2479 60.088 85.6838 60.0399C85.6353 60.1844 85.6353 60.2807 85.6353 60.3771C85.6353 60.4734 85.6353 60.5698 85.6838 60.7143C85.5385 60.7143 85.3447 60.6661 85.1994 60.6661C85.0057 60.6661 84.812 60.6179 84.6183 60.6179H83.4559C83.4559 61.3405 83.4074 62.0631 83.4074 62.7857V64.6163C83.4074 65.098 83.4074 65.5316 83.4559 65.9651C83.4559 66.3987 83.5043 66.8804 83.5043 67.3139H82.4388C82.4388 66.8804 82.4872 66.4468 82.4872 65.9651C82.4872 65.5316 82.5356 65.0498 82.5356 64.6163V62.7857C82.5356 62.0631 82.5356 61.3405 82.4872 60.6179Z" fill="#545454"/>
<path d="M89.1707 61.3887C89.1707 60.9551 89.1223 60.4734 89.1223 60.0399C89.4613 60.0399 89.7519 60.088 90.0909 60.088H91.9798C92.2704 60.088 92.6094 60.088 92.9 60.0399C92.9 60.1362 92.8516 60.2325 92.8516 60.3771C92.8516 60.5216 92.8516 60.5698 92.9 60.7143C92.6579 60.7143 92.4641 60.6661 92.2704 60.6661C92.0767 60.6661 91.8829 60.6179 91.6892 60.6179C91.4955 60.6179 91.2533 60.5698 91.0111 60.5698H90.1393C90.1393 60.8106 90.1393 61.0033 90.0909 61.196V63.2674H90.9143C91.1564 63.2674 91.3986 63.2674 91.5923 63.2193C91.7861 63.2193 91.9798 63.2193 92.1735 63.1711C92.3673 63.1229 92.5126 63.1711 92.6579 63.1229C92.6579 63.2193 92.6094 63.3156 92.6094 63.4601C92.6094 63.5565 92.6094 63.6528 92.6579 63.7973C92.4641 63.7973 92.2704 63.7492 92.0282 63.7492C91.7861 63.7492 91.5439 63.7492 91.3017 63.701H90.0909V66.8322H91.5923C91.8345 66.8322 92.0767 66.784 92.3188 66.784C92.561 66.784 92.7547 66.7359 92.9 66.6877C92.9 66.7359 92.9 66.784 92.8516 66.8322V66.9767C92.8516 67.0731 92.8516 67.1694 92.9 67.2658H89.0254C89.0254 66.8322 89.0738 66.3505 89.0738 65.9169C89.0738 65.4834 89.1223 65.0017 89.1223 64.5681V62.7375C89.1707 62.304 89.1707 61.8704 89.1707 61.3887Z" fill="#545454"/>
<path d="M107.382 63.5083V61.196C107.382 60.6661 107.333 60.2808 107.333 60.0881C107.43 60.0881 107.478 60.1362 107.575 60.1362H107.769C107.866 60.1362 107.963 60.1362 108.108 60.0881C108.108 60.3289 108.06 60.618 108.06 60.9552C108.06 61.2924 108.011 61.6778 108.011 62.0632C108.011 62.4485 107.963 62.8339 107.963 63.2675C107.963 63.701 107.914 64.0864 107.914 64.4718C107.914 64.9535 107.818 65.3871 107.721 65.7243C107.575 66.1097 107.382 66.3987 107.139 66.6877C106.897 66.9286 106.558 67.1213 106.219 67.2658C105.832 67.4103 105.444 67.4585 104.96 67.4585C103.894 67.4585 103.12 67.2176 102.635 66.7359C102.151 66.2542 101.909 65.4834 101.909 64.4718C101.909 64.1346 101.909 63.8455 101.957 63.6047C101.957 63.3638 102.006 63.0748 102.006 62.8339V61.2442C102.006 60.8107 101.957 60.3771 101.957 60.0881C102.054 60.0881 102.151 60.1362 102.248 60.1362H102.78C102.877 60.1362 102.926 60.1362 103.023 60.0881C103.023 60.2326 102.974 60.4253 102.974 60.7143C102.974 60.9552 102.926 61.2442 102.926 61.5814C102.926 61.9186 102.877 62.2558 102.877 62.5931V64.4718C102.877 64.7127 102.926 65.0017 102.974 65.2426C103.023 65.4834 103.071 65.7243 103.168 65.917C103.265 66.1578 103.41 66.3505 103.555 66.4951C103.749 66.6396 103.943 66.7841 104.233 66.8804C104.524 66.9768 104.815 67.025 105.251 67.025C105.638 67.025 105.977 66.9768 106.219 66.8323C106.461 66.7359 106.704 66.5914 106.849 66.3987C106.994 66.206 107.139 66.0133 107.236 65.7725C107.333 65.5316 107.382 65.2907 107.43 65.0017C107.478 64.7608 107.478 64.4718 107.527 64.2309C107.382 63.9419 107.382 63.701 107.382 63.5083Z" fill="#545454"/>
<path d="M115.712 64.5681C114.792 63.6046 113.871 62.593 112.951 61.6296V67.2176H112.176C112.176 67.1694 112.225 67.0249 112.225 66.8322C112.225 66.6395 112.273 66.3987 112.273 66.1578C112.273 65.9169 112.322 65.6279 112.322 65.2907C112.322 65.0017 112.37 64.6644 112.37 64.3754C112.37 64.0864 112.37 63.7492 112.418 63.4601V60.9551C112.418 60.4734 112.418 60.088 112.37 59.8472H112.564C113 60.3289 113.436 60.8106 113.968 61.3405C114.453 61.8704 114.937 62.4003 115.421 62.9302C115.906 63.4601 116.342 63.9419 116.777 64.3754C117.213 64.8571 117.601 65.2425 117.94 65.5316V61.9186C117.94 61.196 117.891 60.5698 117.891 59.9435C118.037 59.9917 118.134 59.9917 118.23 59.9917C118.327 59.9917 118.424 59.9917 118.569 59.9435C118.569 60.088 118.521 60.3289 118.521 60.6179C118.521 60.907 118.473 61.2442 118.473 61.6296C118.473 61.9668 118.424 62.304 118.424 62.6412V67.2658H118.279C117.504 66.495 116.632 65.5316 115.712 64.5681Z" fill="#545454"/>
<path d="M122.783 61.4369C122.783 61.0034 122.735 60.5216 122.735 60.0881C122.832 60.0881 122.929 60.1362 122.977 60.1362H123.462C123.558 60.1362 123.655 60.1362 123.704 60.0881C123.704 60.5698 123.655 61.0034 123.655 61.4369C123.655 61.8705 123.607 62.3522 123.607 62.7857V64.6163C123.607 65.098 123.607 65.5316 123.655 65.9652C123.655 66.3987 123.704 66.8804 123.704 67.314H122.638C122.638 66.8804 122.687 66.4469 122.687 65.9652C122.687 65.5316 122.735 65.0499 122.735 64.6163V62.7857C122.832 62.304 122.832 61.8705 122.783 61.4369Z" fill="#545454"/>
<path d="M130.097 67.314C129.951 66.8804 129.757 66.3987 129.515 65.8206C129.273 65.2426 129.031 64.6163 128.789 63.9901C128.547 63.3638 128.256 62.6894 127.965 62.015C127.675 61.3406 127.433 60.7143 127.142 60.0881C127.239 60.0881 127.336 60.1362 127.433 60.1362H127.917C128.014 60.1362 128.111 60.1362 128.208 60.0881C128.353 60.5698 128.547 61.0515 128.74 61.5333C128.934 62.0632 129.128 62.5449 129.322 63.0748C129.515 63.6047 129.757 64.1346 129.951 64.6645C130.193 65.1944 130.387 65.7243 130.629 66.3024C130.775 66.0133 130.871 65.6761 131.065 65.3389C131.259 65.0017 131.356 64.6163 131.501 64.2309C131.646 63.8455 131.792 63.4602 131.937 63.0748C132.082 62.6894 132.228 62.304 132.373 61.9186C132.518 61.5333 132.615 61.196 132.76 60.907C132.857 60.5698 132.954 60.3289 133.051 60.0881C133.196 60.1362 133.342 60.1362 133.438 60.1362C133.535 60.1362 133.681 60.1362 133.826 60.0881C133.293 61.2924 132.76 62.5449 132.228 63.7492C131.695 64.9535 131.21 66.1578 130.775 67.3622H130.436C130.29 67.2658 130.193 67.314 130.097 67.314Z" fill="#545454"/>
<path d="M137.265 61.3887C137.265 60.9551 137.217 60.4734 137.217 60.0399C137.556 60.0399 137.846 60.088 138.185 60.088H140.074C140.365 60.088 140.704 60.088 140.994 60.0399C140.994 60.1362 140.946 60.2325 140.946 60.3771C140.946 60.5216 140.946 60.5698 140.994 60.7143C140.752 60.7143 140.558 60.6661 140.365 60.6661C140.171 60.6661 139.977 60.6179 139.783 60.6179C139.59 60.6179 139.348 60.5698 139.105 60.5698H138.234C138.234 60.8106 138.234 61.0033 138.185 61.196V63.2674H139.009C139.251 63.2674 139.493 63.2674 139.687 63.2193C139.88 63.2193 140.074 63.2193 140.268 63.1711C140.462 63.1711 140.607 63.1711 140.752 63.1229C140.752 63.2193 140.704 63.3156 140.704 63.4601C140.704 63.5565 140.704 63.6528 140.752 63.7973C140.558 63.7973 140.365 63.7492 140.122 63.7492C139.88 63.7492 139.638 63.7492 139.396 63.701H138.185V66.8322H139.687C139.929 66.8322 140.171 66.784 140.413 66.784C140.655 66.784 140.849 66.7359 140.994 66.6877C140.994 66.7359 140.994 66.784 140.946 66.8322V66.9767C140.946 67.0731 140.946 67.1694 140.994 67.2658H137.12C137.12 66.8322 137.168 66.3505 137.168 65.9169C137.168 65.4834 137.217 65.0017 137.217 64.5681V62.7375C137.265 62.304 137.265 61.8704 137.265 61.3887Z" fill="#545454"/>
<path d="M144.82 62.7857C144.82 62.304 144.82 61.8704 144.772 61.4369C144.772 61.0033 144.723 60.5216 144.723 60.088C144.917 60.088 145.111 60.1362 145.304 60.1362H145.886C146.079 60.1362 146.273 60.1362 146.467 60.088C146.661 60.088 146.854 60.0399 147.048 60.0399C147.339 60.0399 147.629 60.088 147.92 60.1362C148.21 60.1844 148.404 60.2807 148.646 60.4252C148.84 60.5698 148.985 60.7143 149.131 60.9551C149.228 61.1478 149.324 61.4369 149.324 61.7259C149.324 62.0631 149.228 62.3521 149.082 62.593C148.937 62.8339 148.743 63.0266 148.549 63.1711C148.307 63.3156 148.114 63.4601 147.823 63.5565C147.581 63.6528 147.339 63.701 147.145 63.7492C147.242 63.8455 147.339 63.99 147.484 64.1827C147.629 64.3754 147.775 64.5681 147.968 64.809C148.162 65.0498 148.356 65.2907 148.549 65.5316C148.743 65.7724 148.937 66.0133 149.131 66.2541C149.324 66.495 149.47 66.6877 149.663 66.8804C149.809 67.0731 149.954 67.2176 150.051 67.3139H148.792C148.695 67.1694 148.501 66.9286 148.307 66.6395C148.114 66.3505 147.871 66.0133 147.581 65.6761C147.339 65.3389 147.048 65.0017 146.757 64.6644C146.467 64.3272 146.225 64.0382 146.031 63.7973H145.643V64.5681C145.643 65.0498 145.643 65.4834 145.692 65.9169C145.692 66.3505 145.74 66.8322 145.74 67.2658H144.675C144.675 66.8322 144.723 66.3987 144.723 65.9169C144.723 65.4834 144.772 65.0017 144.772 64.5681V62.7857H144.82ZM145.692 63.4119C145.789 63.4119 145.886 63.4601 146.031 63.4601H146.418C146.661 63.4601 146.854 63.4119 147.096 63.3638C147.339 63.3156 147.532 63.2193 147.726 63.1229C147.92 62.9784 148.065 62.8339 148.21 62.6412C148.356 62.4485 148.404 62.1595 148.404 61.8704C148.404 61.5814 148.356 61.3887 148.259 61.196C148.162 61.0033 148.017 60.8588 147.871 60.7624C147.726 60.6661 147.532 60.5698 147.339 60.5698C147.145 60.5216 146.951 60.5216 146.757 60.5216H146.128C145.982 60.5216 145.837 60.5216 145.692 60.5698C145.692 60.9551 145.643 61.3405 145.643 61.7259V63.4119H145.692Z" fill="#545454"/>
<path d="M153.49 66.3023C153.587 66.4469 153.684 66.5432 153.829 66.6395C153.974 66.7359 154.12 66.8322 154.313 66.8804C154.507 66.9286 154.701 66.9768 154.943 66.9768C155.185 66.9768 155.379 66.9286 155.573 66.8322C155.766 66.7359 155.912 66.6395 156.057 66.495C156.202 66.3505 156.299 66.206 156.348 66.0133C156.396 65.8206 156.444 65.6279 156.444 65.4352C156.444 65.098 156.348 64.8572 156.202 64.6645C156.057 64.4718 155.815 64.3273 155.573 64.1827C155.331 64.0382 155.04 63.9419 154.749 63.8455C154.459 63.7492 154.217 63.6047 153.926 63.4601C153.684 63.3156 153.49 63.1229 153.296 62.8339C153.151 62.593 153.054 62.2558 153.054 61.8223C153.054 61.5332 153.103 61.2442 153.199 61.0033C153.296 60.7625 153.442 60.5698 153.684 60.3771C153.878 60.1844 154.12 60.088 154.41 59.9435C154.701 59.799 154.992 59.799 155.379 59.799C155.718 59.799 156.009 59.8472 156.251 59.9435C156.493 60.0399 156.735 60.1362 156.929 60.3289C156.88 60.4253 156.832 60.5698 156.784 60.7143C156.735 60.8588 156.687 61.0033 156.638 61.2442H156.493C156.444 61.1478 156.396 61.0515 156.348 60.907C156.299 60.8106 156.202 60.6661 156.105 60.5698C156.009 60.4734 155.863 60.3771 155.718 60.3289C155.573 60.2807 155.427 60.2326 155.185 60.2326C154.992 60.2326 154.798 60.2807 154.652 60.3289C154.507 60.3771 154.362 60.4734 154.217 60.6179C154.071 60.7143 153.974 60.8588 153.926 61.0515C153.878 61.196 153.829 61.3887 153.829 61.5814C153.829 61.9186 153.926 62.1595 154.071 62.3522C154.217 62.5449 154.459 62.6894 154.701 62.8339C154.943 62.9784 155.234 63.0748 155.524 63.1711C155.815 63.2674 156.057 63.412 156.348 63.5565C156.59 63.701 156.784 63.8937 156.977 64.1346C157.123 64.3754 157.219 64.6645 157.219 65.0498C157.219 65.3871 157.171 65.6761 157.026 65.9651C156.929 66.2542 156.735 66.495 156.493 66.7359C156.251 66.9286 156.009 67.1213 155.67 67.2176C155.331 67.314 154.992 67.4103 154.556 67.4103C154.12 67.4103 153.781 67.3621 153.49 67.2176C153.199 67.1213 153.006 66.9768 152.812 66.8322C152.86 66.6877 152.909 66.5432 152.957 66.3987C153.006 66.2542 153.006 66.1096 153.006 65.917H153.151C153.345 66.0615 153.393 66.206 153.49 66.3023Z" fill="#545454"/>
<path d="M160.997 61.4369C160.997 61.0034 160.948 60.5216 160.948 60.0881C161.045 60.0881 161.142 60.1362 161.191 60.1362H161.675C161.772 60.1362 161.869 60.1362 161.917 60.0881C161.917 60.5698 161.869 61.0034 161.869 61.4369C161.869 61.8705 161.82 62.3522 161.82 62.7857V64.6163C161.82 65.098 161.82 65.5316 161.869 65.9652C161.869 66.3987 161.917 66.8804 161.917 67.314H160.852C160.852 66.8804 160.9 66.4469 160.9 65.9652C160.9 65.5316 160.948 65.0499 160.948 64.6163V62.7857C161.045 62.304 161.045 61.8705 160.997 61.4369Z" fill="#545454"/>
<path d="M167.632 60.6179H166.47C166.276 60.6179 166.082 60.6179 165.889 60.6661C165.695 60.6661 165.55 60.7143 165.404 60.7143C165.453 60.5698 165.453 60.4734 165.453 60.3771C165.453 60.2807 165.453 60.1844 165.404 60.0399C165.889 60.0399 166.325 60.088 166.76 60.088H169.473C169.909 60.088 170.393 60.088 170.829 60.0399C170.78 60.1844 170.78 60.2807 170.78 60.3771C170.78 60.4734 170.78 60.5698 170.829 60.7143C170.684 60.7143 170.49 60.6661 170.344 60.6661C170.199 60.6661 169.957 60.6179 169.763 60.6179H168.601C168.601 61.3405 168.552 62.0631 168.552 62.7857V64.6163C168.552 65.098 168.552 65.5316 168.601 65.9651C168.601 66.3987 168.649 66.8804 168.649 67.3139H167.584C167.584 66.8804 167.632 66.4468 167.632 65.9651C167.632 65.5316 167.681 65.0498 167.681 64.6163V62.7857C167.681 62.0631 167.681 61.3405 167.632 60.6179Z" fill="#545454"/>
<path d="M176.108 64.3272C176.059 64.2309 175.914 64.0382 175.817 63.7973C175.672 63.5565 175.527 63.3156 175.381 63.0266C175.236 62.7375 175.042 62.4485 174.849 62.1595C174.655 61.8704 174.51 61.5814 174.316 61.2923C174.171 61.0033 173.977 60.7624 173.88 60.5216C173.735 60.2807 173.638 60.1362 173.589 60.0399C173.686 60.0399 173.783 60.088 173.88 60.088H174.461C174.558 60.088 174.655 60.088 174.752 60.0399C175.091 60.6661 175.381 61.2442 175.72 61.8222C176.059 62.4003 176.398 63.0266 176.786 63.6528C176.931 63.4119 177.125 63.1229 177.319 62.8339C177.512 62.5448 177.658 62.2076 177.851 61.9186C178.045 61.5814 178.19 61.2923 178.384 60.9551C178.53 60.6179 178.675 60.3289 178.82 60.0399C179.014 60.088 179.159 60.088 179.256 60.088C179.353 60.088 179.498 60.088 179.692 60.0399C179.353 60.5698 179.062 61.0033 178.772 61.4369C178.481 61.8704 178.287 62.2076 178.045 62.5448C177.851 62.882 177.658 63.1711 177.512 63.4601C177.367 63.7492 177.222 63.99 177.125 64.1827V65.8688C177.125 66.1578 177.125 66.3987 177.173 66.6395C177.173 66.8804 177.173 67.0731 177.222 67.2176H176.156C176.205 66.8322 176.205 66.3987 176.253 65.8688C176.059 65.4352 176.108 64.9053 176.108 64.3272Z" fill="#545454"/>
<path d="M46.017 47.3704H36.5241C36.1851 48.5747 35.7976 49.8272 35.4586 51.0797C35.1196 52.3322 34.7321 53.5365 34.3931 54.789H39.5754C39.8176 54.0664 40.0113 53.392 40.205 52.6694H41.2221C40.7862 54.2591 40.3019 55.8488 39.866 57.4385C39.4301 59.0282 38.9458 60.6179 38.5099 62.2076H36.9116C36.3788 63.99 35.8945 65.7724 35.3617 67.5548H45.0483C45.5811 65.7724 46.0654 63.99 46.5982 62.2076H45.0483C45.4842 60.6179 45.9686 59.0282 46.4045 57.4385C46.8404 55.8488 47.3247 54.2591 47.7606 52.6694H48.7777C48.584 53.392 48.3902 54.0664 48.1965 54.789H53.4273C53.7663 53.5365 54.1538 52.284 54.4928 51.0797C54.8318 49.8272 55.2193 48.6229 55.5583 47.3704H46.017Z" fill="#545454"/>
<path d="M34.2963 54.8372C34.7322 53.2475 35.2165 51.6578 35.6524 50.0681C36.0883 48.4784 36.5726 46.8887 37.0085 45.299H38.51C38.9943 43.5166 39.5271 41.7824 40.0114 40H32.4558C30.5185 42.0714 28.5812 44.1429 26.6439 46.2143C25.9174 44.1429 25.1425 42.0714 24.416 40H16.812C16.2792 41.7824 15.7949 43.5166 15.3105 45.2508H16.8604C16.3761 46.8887 15.9402 48.4784 15.4558 50.0681C15.0199 51.6578 14.5356 53.2475 14.0997 54.8372H12.5499C12.0171 56.6196 11.5328 58.402 11 60.1844H20.2507C20.7835 58.402 21.2678 56.6196 21.8006 54.8372H20.1538C20.5897 53.2475 21.0741 51.706 21.51 50.1163C21.9943 51.3206 22.4786 52.5731 22.963 53.7774H25.9174C27.0798 52.5731 28.2906 51.3206 29.453 50.1163C29.0171 51.706 28.5328 53.2475 28.0969 54.8372H26.547C26.0142 56.6196 25.5299 58.402 24.9972 60.1844H34.2479C34.7806 58.402 35.265 56.6196 35.7977 54.8372H34.2963Z" fill="#545454"/>
<path d="M47.0825 68.2774H47.3247V69H47.5184V68.2774H47.7606V68.1329H47.0825V68.2774Z" fill="#545454"/>
<path d="M48.2451 68.7109L48.0998 68.1329H47.8577V68.9518H48.003V68.2774L48.1967 68.9518H48.342L48.5357 68.2774V69H48.6326V68.1329H48.3904L48.2451 68.7109Z" fill="#545454"/>
</g>
<defs>
<clipPath id="clip0_2089_4441">
<rect width="170" height="29" fill="white" transform="translate(11 40)"/>
</clipPath>
</defs>
</svg>
