<svg width="192" height="108" viewBox="0 0 192 108" fill="none" xmlns="http://www.w3.org/2000/svg">
<g clip-path="url(#clip0_2088_3920)">
<path d="M173 49.4113C172.948 49.566 172.888 49.7168 172.844 49.8714C172.299 51.7833 170.785 52.9931 168.759 53.243C167.349 53.4135 166.059 53.0922 164.786 52.5607C164.345 52.3783 164.297 52.0054 164.249 51.6365C164.161 51.0059 164.093 50.3673 164.057 49.7326C164.045 49.5383 164.173 49.3399 164.237 49.1416C164.369 49.3003 164.578 49.4431 164.622 49.6216C164.806 50.4188 165.21 51.0733 165.803 51.6286C166.596 52.3743 167.561 52.5488 168.582 52.3307C169.568 52.1205 170.248 51.5255 170.465 50.518C170.669 49.566 170.361 48.737 169.616 48.1381C168.963 47.6145 168.206 47.2218 167.505 46.7498C166.728 46.2262 165.843 45.7899 165.218 45.1235C164.125 43.9495 163.945 42.4898 164.469 40.9865C165.01 39.4514 166.192 38.6304 167.765 38.3091C169.079 38.0433 170.385 38.2734 171.686 38.4281C171.802 38.44 171.987 38.6185 171.995 38.7295C172.055 39.5625 172.083 40.3994 172.103 41.2324C172.103 41.3236 171.967 41.4188 171.894 41.514C171.818 41.4228 171.722 41.3395 171.674 41.2364C171.482 40.8397 171.362 40.3994 171.117 40.0424C170.313 38.8565 168.743 38.5907 167.557 39.3999C166.496 40.1257 166.184 41.8789 167.029 42.9063C167.453 43.4219 168.054 43.8265 168.634 44.1914C169.319 44.6198 170.08 44.9252 170.781 45.3338C171.802 45.9287 172.583 46.73 172.812 47.9398C172.836 48.0746 172.936 48.1976 173 48.3285V49.4113Z" fill="#545454"/>
<path d="M18.0201 45.2147C18.2283 45.1909 18.3885 45.1513 18.5487 45.1552C20.9116 45.1632 23.2744 45.179 25.6373 45.1751C26.0058 45.1751 26.1459 45.2861 26.1299 45.6471C26.1019 46.369 26.1059 47.0869 26.0818 47.8088C26.0698 48.1857 26.214 48.3364 26.6065 48.3324C28.1363 48.3245 29.6662 48.3324 31.2001 48.3443C31.969 48.3483 32.3575 48.6973 32.3575 49.443C32.3615 57.261 32.3575 65.079 32.3575 72.897C32.3575 72.9604 32.3414 73.0199 32.3254 73.1429C32.1652 73.0794 32.0251 73.0477 31.9049 72.9723C29.5981 71.5444 27.2392 70.1839 24.9965 68.6647C22.0249 66.6537 19.8503 63.9842 18.781 60.5413C18.2724 58.9071 18.0161 57.2253 18.0201 55.5118C18.0241 52.1046 18.0201 48.6934 18.0201 45.2187V45.2147ZM25.6053 59.1768C25.9857 59.157 26.3382 59.1848 26.6706 59.1094C26.8548 59.0658 27.003 58.8595 27.1632 58.7247C26.999 58.5739 26.8548 58.3478 26.6585 58.2844C26.3982 58.2011 26.0939 58.2685 25.8175 58.2169C25.7174 58.1971 25.5652 58.0147 25.5732 57.9195C25.6373 57.269 26.3382 56.6898 26.9509 56.7414C27.6998 56.8049 28.1804 57.3364 28.1764 58.094C28.1764 58.332 28.1764 58.57 28.1764 58.8238C29.1135 58.4113 29.5901 57.3919 29.2617 56.551C29.0494 56.0076 28.681 55.5911 28.1443 55.3492C27.3274 54.9803 26.5704 55.2103 25.8095 55.6467C26.3582 54.9446 26.6786 54.183 26.2821 53.3937C25.9337 52.6916 25.397 52.0768 24.8924 51.347C24.2196 52.0689 23.6549 52.6519 23.3345 53.4373C22.9821 54.3099 23.5027 54.9842 23.9392 55.7736C22.069 54.9446 20.9917 55.1865 20.4951 56.4519C20.1346 57.3681 20.6513 58.4827 21.6004 58.7723C21.6004 58.5025 21.5924 58.2447 21.6004 57.9869C21.6244 57.4157 22.053 56.9159 22.6096 56.7969C23.2144 56.666 23.775 56.904 24.0554 57.4157C24.4078 58.0583 24.2957 58.2487 23.5628 58.2407C23.4787 58.2407 23.3946 58.2407 23.3145 58.2407C22.9861 58.2407 22.6096 58.2447 22.5976 58.6572C22.5816 59.1015 22.9821 59.1253 23.3185 59.153C23.5868 59.1768 23.8591 59.1808 24.2156 59.1967C24.0314 59.6092 23.8952 59.9146 23.7951 60.1367C23.9753 60.3827 24.1275 60.5612 24.2516 60.7595C24.536 61.1998 25.0806 61.3069 25.377 60.9261C25.6854 60.5294 26.0138 60.0971 25.6653 59.5418C25.6093 59.4545 25.6253 59.3276 25.5973 59.1808L25.6053 59.1768Z" fill="#545454"/>
<path d="M18.0481 34.8622H26.4342C26.3782 34.4298 26.3541 34.057 26.278 33.692C26.2019 33.3351 26.3742 33.22 26.6745 33.0852C27.3794 32.7679 28.0642 32.399 28.749 32.042C29.0614 31.8794 29.1535 31.6057 29.1415 31.2606C29.1215 30.5625 29.1335 29.8644 29.1335 29.1226C29.8063 29.1226 30.4191 29.1107 31.0318 29.1266C31.3802 29.1345 31.6526 29.0711 31.7647 28.6982C31.8688 28.3492 32.1131 28.2143 32.4856 28.2579C32.7138 28.2857 32.9541 28.2817 33.1824 28.2579C33.5869 28.2183 33.8632 28.373 33.9954 28.7498C34.1035 29.0631 34.3118 29.1623 34.6442 29.1385C35.1728 29.1028 35.7095 29.1425 36.2381 29.0988C36.6186 29.0671 36.6947 29.2059 36.6827 29.5391C36.6626 30.146 36.6426 30.7529 36.6867 31.3558C36.7027 31.5858 36.8348 31.8952 37.0151 32.0063C37.6598 32.4029 38.3287 32.7718 39.0215 33.0693C39.3939 33.228 39.5541 33.3906 39.474 33.7833C39.406 34.1125 39.3779 34.4496 39.3219 34.8542H47.5198V44.0962C47.3836 44.1081 47.2715 44.1279 47.1594 44.1279C44.7124 44.1319 42.2694 44.1279 39.8225 44.1478C39.3779 44.1517 39.2458 44.0248 39.2658 43.5924C39.3018 42.8229 39.2658 42.0534 39.2778 41.28C39.2818 40.9825 39.2177 40.8357 38.8693 40.8397C37.3715 40.8595 35.8737 40.8238 34.3799 40.8714C33.9714 40.8833 33.5549 41.0697 33.1744 41.2522C32.9381 41.3672 32.7979 41.3791 32.5537 41.2562C32.1612 41.0658 31.7246 40.8794 31.3001 40.8675C29.7543 40.8199 28.2044 40.8595 26.6585 40.8437C26.2941 40.8397 26.2019 40.9785 26.21 41.3077C26.226 42.0931 26.2019 42.8824 26.222 43.6678C26.23 44.0208 26.1379 44.1398 25.7454 44.1359C23.3185 44.12 20.8875 44.1279 18.4566 44.1438C18.1482 44.1438 18 44.1002 18 43.7511C18.012 40.8675 18.008 37.9798 18.008 35.0962C18.008 35.0486 18.024 35.001 18.0481 34.8622ZM33.0703 31.2606H32.854C32.6978 34.0173 32.5416 36.7701 32.3774 39.5228C32.3614 39.8243 32.4776 39.9552 32.7819 39.9036C33.0342 39.86 33.3466 39.9631 33.3186 39.4831C33.2104 37.8013 33.1304 36.1195 33.0783 34.4378C33.0422 33.3787 33.0703 32.3196 33.0703 31.2606ZM33.9914 31.9389C34.3438 34.3822 35.1047 36.6987 36.0499 38.9635C36.7307 38.8961 36.8429 38.6422 36.5625 38.075C35.9297 36.7978 35.305 35.5166 34.7403 34.2077C34.4239 33.4779 34.2357 32.6965 33.9914 31.9349V31.9389ZM31.8208 31.8476C31.7647 31.8357 31.7126 31.8199 31.6566 31.808C31.4483 32.5061 31.2601 33.2081 31.0318 33.8983C30.5352 35.4135 29.8784 36.8534 28.9773 38.1782C28.749 38.5153 28.8732 38.7255 29.1736 38.8961C29.55 39.1063 29.6421 38.7969 29.7262 38.5589C30.2188 37.1746 30.7274 35.7943 31.176 34.3941C31.4443 33.5612 31.6085 32.6965 31.8168 31.8476H31.8208ZM30.5913 31.681C30.5913 31.681 30.5592 31.6731 30.5432 31.6652C30.0186 32.3553 29.546 33.0931 28.9573 33.7238C28.3646 34.3584 27.6557 34.886 26.9909 35.4532C26.6905 35.711 26.7026 36.0164 26.9068 36.2822C27.1631 36.6114 27.3193 36.2306 27.5075 36.1314C27.5756 36.0957 27.6277 36.0204 27.6837 35.9569C28.757 34.7828 29.6702 33.5017 30.4231 32.1094C30.4952 31.9746 30.5352 31.8238 30.5913 31.681ZM35.2449 31.9468C35.2129 31.9627 35.1808 31.9785 35.1488 31.9944C35.7295 32.8789 36.2822 33.7872 36.9069 34.64C37.3114 35.1954 37.82 35.6793 38.2966 36.179C38.5329 36.4289 38.6931 36.4091 38.7972 36.0323C38.8853 35.7229 38.7972 35.5563 38.5569 35.3699C38.1044 35.0129 37.6438 34.6519 37.2514 34.2355C36.5585 33.4977 35.9137 32.7123 35.2489 31.9508L35.2449 31.9468Z" fill="#545454"/>
<path d="M33.6389 72.9605C33.5869 72.9922 33.5188 72.9962 33.4106 73.0239C33.3826 72.6194 33.3345 72.2505 33.3345 71.8816C33.3305 64.7855 33.3305 57.6894 33.3345 50.5934C33.3345 50.1689 33.3506 49.7406 33.3866 49.3161C33.4467 48.6498 33.7751 48.3523 34.4559 48.3483C35.8536 48.3364 37.2513 48.3443 38.649 48.3285C39.3939 48.3205 39.3899 48.3086 39.3939 47.5788C39.3939 46.9085 39.4059 46.2342 39.3939 45.5638C39.3899 45.306 39.45 45.1632 39.7463 45.1632C42.3214 45.1672 44.9006 45.1632 47.5518 45.1632C47.5518 45.429 47.5518 45.6075 47.5518 45.782C47.5518 49.1099 47.5518 52.4338 47.5518 55.7617C47.5558 61.0015 45.3892 65.2099 41.14 68.276M40.6274 53.2747C40.5072 53.0605 40.4352 52.9415 40.3711 52.8186C39.9386 51.9896 39.2097 51.5889 38.3086 51.5969C37.3995 51.6048 36.6906 52.0491 36.2781 52.8741C35.7375 53.949 36.1219 54.8692 36.7867 55.7379C37.9441 57.2571 39.1055 58.7723 40.2469 60.2994C40.5032 60.6445 40.6835 60.6762 40.9558 60.3153C41.8048 59.1848 42.7019 58.0861 43.5309 56.9398C44.0596 56.2099 44.5722 55.4523 44.9727 54.6551C45.5093 53.596 44.9446 52.3267 43.7992 51.7992C42.746 51.3153 41.4204 51.7555 40.8877 52.763C40.8156 52.9019 40.7435 53.0407 40.6274 53.2707V53.2747Z" fill="#545454"/>
<path d="M129.799 46.0477C128.65 46.0477 127.501 46.0557 126.355 46.0438C126.031 46.0438 125.907 46.0953 125.915 46.4801C125.951 47.9715 125.919 49.4629 125.931 50.9543C125.939 52.0451 126.227 52.3386 127.328 52.4497C127.445 52.4616 127.573 52.4338 127.673 52.4774C127.805 52.533 127.917 52.6361 128.037 52.7194C127.909 52.8225 127.785 53.001 127.649 53.0129C127.204 53.0446 126.752 53.0129 126.303 53.0129C124.821 53.0129 123.344 53.0248 121.862 53.0327C121.73 53.0327 121.581 53.0565 121.469 53.005C121.365 52.9574 121.245 52.8265 121.237 52.7273C121.233 52.6559 121.389 52.529 121.497 52.5012C121.738 52.4378 121.99 52.4378 122.234 52.3822C122.735 52.2672 123.071 51.9896 123.099 51.4461C123.119 51.0693 123.147 50.6925 123.151 50.3157C123.155 47.2813 123.155 44.2509 123.151 41.2165C123.151 40.8913 123.123 40.5621 123.099 40.2368C123.051 39.5863 122.751 39.261 122.098 39.1579C121.886 39.1222 121.661 39.1222 121.457 39.0627C121.357 39.0349 121.201 38.8763 121.217 38.8287C121.257 38.7137 121.369 38.6026 121.481 38.5312C121.553 38.4876 121.678 38.5153 121.774 38.5153C123.656 38.5153 125.534 38.5074 127.416 38.5074C127.549 38.5074 127.701 38.4876 127.809 38.5471C127.909 38.5986 128.013 38.7414 128.013 38.8446C128.013 38.9199 127.857 39.0429 127.753 39.0627C127.461 39.1222 127.156 39.1222 126.864 39.1738C126.327 39.269 125.959 39.6141 125.947 40.1257C125.911 41.6171 125.907 43.1086 125.915 44.6C125.915 44.7071 126.123 44.9054 126.235 44.9093C128.614 44.9252 130.993 44.9252 133.376 44.9054C133.504 44.9054 133.74 44.7031 133.744 44.592C133.76 43.1839 133.788 41.7718 133.716 40.3637C133.672 39.4792 133.364 39.2452 132.471 39.1262C132.274 39.0984 132.066 39.1143 131.878 39.0627C131.778 39.0349 131.618 38.8842 131.634 38.8327C131.67 38.7176 131.782 38.6026 131.89 38.5312C131.962 38.4876 132.086 38.5153 132.182 38.5153C134.065 38.5153 135.943 38.5074 137.825 38.5074C137.941 38.5074 138.081 38.4796 138.166 38.5312C138.274 38.5986 138.378 38.7295 138.402 38.8485C138.414 38.9041 138.25 39.0468 138.145 39.0706C136.516 39.4356 136.512 39.4356 136.508 41.0579C136.508 44.3699 136.508 47.6819 136.516 50.994C136.516 52.057 136.76 52.3029 137.837 52.4497C137.921 52.4616 138.017 52.4417 138.081 52.4814C138.206 52.5528 138.31 52.6559 138.426 52.7472C138.31 52.8424 138.202 53.0169 138.081 53.0208C137.633 53.0486 137.184 53.0129 136.736 53.0169C135.29 53.0208 133.844 53.0327 132.395 53.0407C132.262 53.0407 132.114 53.0764 131.998 53.0288C131.862 52.9772 131.758 52.8582 131.638 52.767C131.75 52.6758 131.85 52.5369 131.974 52.5052C132.214 52.4457 132.471 52.4576 132.715 52.4179C133.4 52.3029 133.716 52.0253 133.732 51.3549C133.768 49.7009 133.752 48.0429 133.76 46.3888C133.76 46.0914 133.592 46.0517 133.336 46.0557C132.154 46.0636 130.973 46.0557 129.791 46.0596L129.799 46.0477Z" fill="#545454"/>
<path d="M113.239 53.3342C108.265 53.3976 105.046 51.0415 104.265 47.7414C103.111 42.8626 106.732 38.2852 111.814 38.2059C114.032 38.1702 116.063 38.7453 117.773 40.1773C120.472 42.4421 120.741 46.2262 119.279 49.0821C117.769 52.0371 115.19 53.2826 113.239 53.3342ZM117.228 46.2103C117.24 44.2469 116.8 42.4144 115.538 40.8357C114.205 39.1698 111.978 38.6065 110.024 39.4395C108.674 40.0146 107.945 41.1173 107.468 42.4263C106.876 44.0565 106.996 45.7224 107.252 47.3765C107.464 48.7568 107.985 50.0142 109.034 51.0256C110.588 52.529 112.382 52.755 114.429 52.049C115.446 51.7 116.035 50.8154 116.507 49.8873C117.1 48.729 117.224 47.4796 117.232 46.2063L117.228 46.2103Z" fill="#545454"/>
<path d="M154.105 48.7807C154.117 48.6101 154.141 48.4395 154.141 48.265C154.149 45.9882 154.153 43.7075 154.153 41.4307C154.153 41.2007 154.153 40.9706 154.137 40.7445C154.049 39.745 153.384 39.1182 152.335 39.0746C151.955 39.0588 151.766 38.9517 151.891 38.5312C151.975 38.5233 152.055 38.5034 152.135 38.5034C153.765 38.4995 155.395 38.4876 157.025 38.5034C157.177 38.5034 157.329 38.67 157.481 38.7573C157.373 38.8525 157.277 39.0112 157.157 39.031C155.831 39.2571 155.371 39.7569 155.303 41.1253C155.267 41.8274 155.263 42.5334 155.259 43.2394C155.247 46.1072 155.239 48.975 155.235 51.8468C155.235 52.1562 155.275 52.4695 155.291 52.7789C155.315 53.2469 155.114 53.3897 154.694 53.1716C154.494 53.0684 154.318 52.9019 154.165 52.7353C151.402 49.7406 148.647 46.7379 145.883 43.7392C145.235 43.0332 144.582 42.3391 143.925 41.6409C143.829 41.5378 143.717 41.4545 143.556 41.3157C143.516 41.4625 143.476 41.5338 143.476 41.6052C143.488 44.3739 143.5 47.1465 143.52 49.9151C143.52 50.2879 143.548 50.6687 143.613 51.0376C143.765 51.9102 144.153 52.2672 145.054 52.414C145.235 52.4417 145.431 52.4219 145.595 52.4854C145.719 52.533 145.807 52.6758 145.911 52.7749C145.795 52.8622 145.679 53.0209 145.559 53.0209C143.817 53.0367 142.075 53.0327 140.293 53.0327V52.5528C140.325 52.529 140.337 52.5131 140.353 52.5092C141.967 52.2196 142.419 51.7555 142.439 50.1213C142.475 47.1227 142.463 44.12 142.447 41.1213C142.439 40.0543 141.762 39.3761 140.633 39.1738C140.465 39.142 140.325 38.9675 140.172 38.8604C140.337 38.7771 140.501 38.6185 140.669 38.6185C141.818 38.5986 142.968 38.5867 144.113 38.6383C144.385 38.6502 144.71 38.8406 144.902 39.0469C147.565 41.9107 150.209 44.7904 152.86 47.67C153.224 48.0627 153.589 48.4554 153.949 48.8481C154.001 48.8283 154.049 48.8084 154.101 48.7886L154.105 48.7807Z" fill="#545454"/>
<path d="M67.8884 34.3822C68.7335 34.5052 69.6706 34.6242 70.6037 34.7908C70.7679 34.8185 70.9962 35.0287 71.0202 35.1795C71.1604 36.0838 71.2525 36.9961 71.3446 37.9084C71.3526 37.9997 71.2525 38.1861 71.2125 38.1821C71.0963 38.1781 70.9401 38.1226 70.8841 38.0354C70.7519 37.8291 70.6638 37.599 70.5717 37.369C69.9109 35.7546 68.2008 34.8859 66.5268 35.3183C64.8808 35.7427 63.8876 37.2698 64.0958 38.9992C64.244 40.2645 64.9769 41.1451 65.9981 41.7956C66.7751 42.2914 67.6441 42.6524 68.4451 43.1164C69.2301 43.5726 70.0591 43.997 70.7359 44.5841C72.9826 46.5435 72.8224 50.1451 70.4435 51.9538C68.9137 53.12 67.1555 53.5841 65.2452 53.3342C64.2961 53.2112 63.371 52.9454 62.4338 52.7273C62.0694 52.644 61.8972 52.406 61.8571 52.0252C61.757 51.1169 61.6008 50.2086 61.5047 49.3002C61.4847 49.1217 61.6409 48.9274 61.7129 48.741C61.8691 48.8718 62.1094 48.975 62.1735 49.1455C62.6501 50.391 63.3189 51.4699 64.5364 52.1442C65.7578 52.8225 66.9913 52.8185 68.1848 52.1204C69.3782 51.4223 70.007 50.3593 69.9509 48.975C69.8989 47.7335 69.2261 46.8132 68.2088 46.1469C67.4199 45.6312 66.5909 45.1751 65.7819 44.6911C65.2132 44.35 64.6205 44.0446 64.0918 43.6559C62.2776 42.3192 61.6689 40.4827 62.1094 38.3566C62.558 36.187 64.0638 35.0089 66.2104 34.5766C66.727 34.4734 67.2637 34.4536 67.8964 34.3822H67.8884Z" fill="#545454"/>
<path d="M99.0143 45.7264C99.0143 43.0371 99.0143 40.3518 99.0143 37.6625C99.0143 37.4999 99.0143 37.3333 99.0022 37.1706C98.9101 36.0918 98.4296 35.6197 97.3362 35.5245C97.156 35.5087 96.9598 35.5166 96.7996 35.4492C96.6954 35.4055 96.5833 35.235 96.5913 35.1279C96.5993 35.0327 96.7515 34.9216 96.8637 34.8701C96.9598 34.8264 97.0919 34.8582 97.2081 34.8582C99.3387 34.8542 101.465 34.8502 103.596 34.8463C103.824 34.8463 104.044 34.8383 104.056 35.1477C104.072 35.4809 103.828 35.4412 103.612 35.4571C103.396 35.473 103.179 35.4968 102.967 35.5285C102.238 35.6435 101.79 36.0442 101.681 36.7661C101.601 37.3134 101.565 37.8727 101.565 38.428C101.557 42.573 101.585 46.722 101.553 50.867C101.545 51.9578 101.453 53.0644 101.257 54.1394C100.82 56.5193 99.2626 58.094 97.0238 58.4866C96.0947 58.6493 95.1616 58.5858 94.3086 58.1297C93.5556 57.729 93.2753 56.9992 93.5877 56.3685C93.812 55.9124 94.1804 55.7458 94.689 55.7974C95.1896 55.8489 95.3218 56.2138 95.3538 56.5867C95.4099 57.2412 95.7623 57.6219 96.3751 57.7528C97.0238 57.8956 97.6967 57.8322 98.0811 57.2451C98.4095 56.7493 98.6618 56.1702 98.782 55.5911C98.9422 54.8295 98.9862 54.0323 99.0063 53.2509C99.0383 51.9895 99.0143 50.7282 99.0143 49.4668C99.0143 48.2213 99.0143 46.9758 99.0143 45.7304V45.7264Z" fill="#545454"/>
<path d="M73.0146 41.391C73.1508 40.2011 73.291 39.019 73.4312 37.7934C73.5713 37.8331 73.6554 37.8331 73.6875 37.8727C74.156 38.4677 74.8248 38.4955 75.4937 38.4955C78.9859 38.4955 82.4821 38.4994 85.9744 38.4955C86.503 38.4955 87.0517 38.5193 87.4161 38.0036C87.4642 37.9322 87.6164 37.9322 87.8206 37.8608C87.7725 38.3487 87.7245 38.7612 87.6884 39.1737C87.6444 39.6775 87.6164 40.1852 87.5723 40.6889C87.5603 40.8516 87.5603 41.0301 87.4802 41.161C87.4161 41.2681 87.2559 41.3474 87.1238 41.3752C87.0797 41.3831 86.9676 41.2006 86.9315 41.0935C86.8474 40.8476 86.8194 40.5818 86.7233 40.3399C86.527 39.8441 86.1586 39.495 85.6099 39.4792C84.4125 39.4395 83.215 39.4474 82.0176 39.4435C81.9575 39.4435 81.8974 39.4831 81.7933 39.5188C81.7933 39.8123 81.7933 40.1019 81.7933 40.3954C81.7933 43.525 81.7973 46.6546 81.8093 49.7881C81.8093 50.2125 81.8454 50.6369 81.8894 51.0614C81.9855 51.9459 82.406 52.3306 83.3151 52.3862C83.4313 52.3941 83.5674 52.3584 83.6596 52.406C83.8158 52.4814 83.9479 52.6083 84.0921 52.7154C83.9479 52.8225 83.8077 52.9415 83.6515 53.0327C83.5915 53.0684 83.4874 53.0406 83.4073 53.0406C81.4769 53.0406 79.5506 53.0406 77.6202 53.0406C77.5041 53.0406 77.3679 53.0763 77.2758 53.0287C77.1316 52.9534 77.0155 52.8225 76.8914 52.7154C77.0035 52.6202 77.1036 52.4695 77.2318 52.4377C77.5201 52.3663 77.8205 52.3584 78.1168 52.3187C78.6775 52.2473 78.9619 51.9023 79.042 51.3787C79.09 51.0574 79.1381 50.7282 79.1381 50.4029C79.1461 46.96 79.1381 43.521 79.1501 40.0781C79.1501 39.618 79.042 39.4395 78.5414 39.4673C77.4961 39.5268 76.4468 39.5069 75.4015 39.5545C74.16 39.614 73.9718 39.7846 73.6875 40.9706C73.5753 41.4346 73.5673 41.4426 73.0146 41.395V41.391Z" fill="#545454"/>
<path d="M125.747 72.7621H121.201C121.193 72.7066 121.185 72.655 121.173 72.5995C121.346 72.5479 121.514 72.4884 121.686 72.4527C122.303 72.3258 122.539 72.0958 122.635 71.481C122.667 71.2707 122.675 71.0565 122.675 70.8423C122.675 68.4505 122.679 66.0548 122.675 63.663C122.675 63.4488 122.667 63.2346 122.631 63.0244C122.527 62.358 122.319 62.1755 121.634 62.0764C121.47 62.0526 121.314 61.9574 121.153 61.8979C121.165 61.8463 121.173 61.7947 121.185 61.7432C121.338 61.7154 121.494 61.6639 121.646 61.6678C123.356 61.6837 125.07 61.652 126.78 61.7432C127.926 61.8027 128.919 62.3025 129.431 63.3893C130.076 64.7577 129.483 66.1976 128.038 66.9353C127.562 67.176 127.485 67.5184 127.805 67.9627C128.53 68.9821 129.231 70.0173 129.984 71.0169C130.493 71.6912 131.065 72.3139 131.982 72.4646C132.079 72.4805 132.159 72.5955 132.247 72.6669L132.203 72.8058C131.698 72.8058 131.185 72.7463 130.689 72.8177C129.848 72.9446 129.295 72.5995 128.851 71.953C128.014 70.7313 127.157 69.5255 126.328 68.2958C125.763 67.4629 125.314 67.2963 124.257 67.6295C124.257 68.9146 124.245 70.2077 124.265 71.5008C124.273 72.0006 124.541 72.3219 125.074 72.4012C125.314 72.4369 125.551 72.5241 125.787 72.5916C125.771 72.6511 125.759 72.7106 125.743 72.7701L125.747 72.7621ZM124.245 64.7141C124.245 65.0592 124.245 65.4003 124.245 65.7454C124.245 67.3161 124.381 67.4193 125.975 67.0464C125.991 67.0464 126.007 67.0424 126.023 67.0385C127.157 66.7529 127.877 65.8406 127.889 64.6784C127.902 63.4369 127.337 62.6118 126.195 62.354C125.691 62.239 125.146 62.2985 124.622 62.2747C124.305 62.2588 124.237 62.4294 124.241 62.707C124.253 63.3774 124.245 64.0477 124.241 64.7181L124.245 64.7141Z" fill="#545454"/>
<path d="M85.9384 70.4655C85.9384 70.2394 85.9384 70.0173 85.9384 69.7912C85.9384 68.0221 85.9384 66.2491 85.9344 64.48C85.9344 64.2024 85.9264 63.9208 85.8823 63.6471C85.7101 62.5682 85.4538 62.3262 84.3605 62.1834C84.1162 62.1517 83.8719 62.1358 83.98 61.7273C84.4326 61.759 84.8891 61.8146 85.3497 61.8146C86.0826 61.8146 86.8115 61.759 87.5403 61.7551C87.7206 61.7551 87.9008 61.8423 88.081 61.886C88.077 61.9455 88.069 62.0049 88.065 62.0644C87.9008 62.1001 87.7366 62.1596 87.5684 62.1715C87.0197 62.2033 86.7073 62.4968 86.6072 63.0045C86.5431 63.3417 86.5031 63.6867 86.4991 64.0279C86.4911 66.8798 86.4991 69.7317 86.4991 72.5836C86.4991 72.7462 86.4991 72.9049 86.4991 73.254C86.1947 73.0318 85.9744 72.9247 85.8183 72.7581C84.5407 71.3778 83.2792 69.9816 82.0016 68.6052C80.5439 67.0384 79.0741 65.4836 77.4881 63.7938C77.4881 64.2778 77.4881 64.6268 77.4881 64.9759C77.4922 66.8758 77.4922 68.7797 77.5082 70.6797C77.5082 70.9534 77.5642 71.231 77.6123 71.5047C77.6964 71.9926 77.9968 72.2901 78.4814 72.4051C78.6576 72.4488 78.8458 72.4607 79.014 72.5202C79.1382 72.5638 79.2383 72.663 79.3504 72.7383C79.2303 72.7938 79.1061 72.897 78.986 72.9009C78.1049 72.9128 77.2238 72.9009 76.3388 72.9009C76.0544 72.9009 75.7741 72.9089 75.4897 72.889C75.3255 72.8771 75.1653 72.8256 75.0051 72.7899C75.0051 72.7423 75.0051 72.6986 75.0051 72.6511C75.1533 72.6114 75.2975 72.5598 75.4497 72.5321C76.3428 72.3655 76.7232 72.0124 76.7352 71.116C76.7673 68.629 76.7753 66.138 76.7432 63.6471C76.7312 62.7546 76.2146 62.3064 75.3055 62.1834C75.1173 62.1596 74.9411 62.0446 74.7568 61.9693C74.7729 61.9137 74.7849 61.8582 74.8009 61.8027C74.921 61.7828 75.0452 61.7511 75.1653 61.7511C75.8942 61.759 76.6231 61.759 77.352 61.7947C77.5082 61.8027 77.6964 61.9058 77.8085 62.0248C80.1714 64.5356 82.5263 67.0503 84.8851 69.5651C85.1855 69.8864 85.4979 70.1997 85.8062 70.5171C85.8503 70.5012 85.8943 70.4853 85.9384 70.4695V70.4655Z" fill="#545454"/>
<path d="M65.7818 62.0724C65.6135 62.1081 65.4453 62.1517 65.2731 62.1716C64.5803 62.2509 64.324 62.5048 64.324 63.1751C64.316 65.2218 64.2879 67.2725 64.348 69.3192C64.368 69.934 64.5443 70.6044 64.8446 71.1438C65.6496 72.5837 66.783 72.7582 68.3609 72.5004C69.6224 72.2941 70.4234 71.3421 70.4514 69.9816C70.4995 67.7405 70.4714 65.4955 70.4434 63.2544C70.4314 62.4532 70.1951 62.2668 69.3941 62.1676C69.246 62.1478 69.1098 62.0129 68.9696 61.9336C69.1138 61.8701 69.262 61.7472 69.4061 61.7472C70.4794 61.7313 71.5568 61.7392 72.6301 61.7392L72.6901 61.8622C72.586 61.9376 72.4939 62.0446 72.3778 62.0803C71.6248 62.2945 71.4166 62.5167 71.4086 63.2901C71.3886 65.206 71.3966 67.1257 71.3765 69.0416C71.3725 69.4818 71.3485 69.9301 71.2524 70.3584C70.8799 72.0442 69.6905 72.8296 68.0525 73.0715C67.0193 73.2223 65.99 73.1509 65.0088 72.782C63.3628 72.1592 62.722 70.8463 62.67 69.228C62.6099 67.4113 62.65 65.5907 62.6379 63.774C62.6379 63.4964 62.6099 63.2187 62.5739 62.9411C62.5138 62.4651 62.2254 62.2192 61.7449 62.1835C61.6608 62.1795 61.5606 62.1993 61.5006 62.1636C61.3884 62.0922 61.3003 61.9852 61.2002 61.8939C61.3083 61.8463 61.4205 61.7511 61.5286 61.7511C62.1413 61.7551 62.7581 61.7987 63.3708 61.8027C63.9996 61.8027 64.6324 61.767 65.2611 61.771C65.4413 61.771 65.6176 61.8543 65.7978 61.9019C65.7898 61.9614 65.7858 62.0209 65.7777 62.0843L65.7818 62.0724Z" fill="#545454"/>
<path d="M119.835 70.4179C119.639 71.1715 119.463 71.8974 119.247 72.6114C119.211 72.7304 118.986 72.8692 118.846 72.8652C116.235 72.8652 113.624 72.8414 111.013 72.8176C110.845 72.8176 110.68 72.774 110.512 72.7502C110.508 72.6947 110.5 72.6431 110.496 72.5876C110.684 72.536 110.873 72.4646 111.069 72.4329C111.85 72.2941 112.086 72.064 112.094 71.2429C112.122 69.2755 112.118 67.3082 112.122 65.3447C112.122 64.607 112.122 63.8692 112.098 63.1314C112.078 62.3937 111.822 62.1517 111.069 62.0803C110.881 62.0644 110.692 61.997 110.508 61.9534C110.508 61.8939 110.512 61.8304 110.516 61.7709C110.676 61.7392 110.837 61.6797 110.997 61.6797C113.324 61.6678 115.654 61.6599 117.981 61.6559C118.189 61.6559 118.402 61.6757 118.618 61.6876V64.0715C118.574 64.0913 118.53 64.1111 118.486 64.131C118.394 63.9723 118.262 63.8216 118.217 63.651C117.973 62.7149 117.332 62.2548 116.391 62.1834C115.646 62.1279 114.897 62.1319 114.153 62.0882C113.8 62.0684 113.676 62.2191 113.676 62.5444C113.688 63.8375 113.68 65.1305 113.712 66.4236C113.712 66.5426 113.928 66.7528 114.052 66.7608C114.633 66.7925 115.214 66.7647 115.795 66.7647C116.511 66.7647 117.012 66.4871 117.176 65.7533C117.204 65.6343 117.28 65.5272 117.445 65.428V68.8551C117.416 68.867 117.388 68.8749 117.356 68.8868C117.296 68.7044 117.22 68.5259 117.18 68.3434C117.064 67.8119 116.76 67.4985 116.191 67.4827C115.478 67.4589 114.765 67.439 114.048 67.4152C113.78 67.4073 113.652 67.5223 113.66 67.796C113.692 68.99 113.696 70.1878 113.756 71.3778C113.788 72.0085 114.06 72.2941 114.681 72.3218C115.542 72.3615 116.411 72.3456 117.272 72.302C118.217 72.2544 118.822 71.707 119.211 70.8899C119.323 70.6559 119.407 70.3544 119.831 70.41L119.835 70.4179Z" fill="#545454"/>
<path d="M101.133 62.0843C100.977 62.116 100.824 62.1597 100.668 62.1755C99.9875 62.239 99.8313 62.4135 100.068 63.068C100.556 64.4245 101.089 65.7652 101.613 67.1059C102.022 68.1451 102.442 69.1764 102.875 70.2037C102.979 70.4536 103.151 70.6718 103.336 70.9732C104.233 68.6489 105.086 66.4554 105.923 64.258C106.063 63.893 106.143 63.5043 106.211 63.1196C106.315 62.5167 106.111 62.2668 105.514 62.1755C105.386 62.1557 105.25 62.1359 105.134 62.0803C105.078 62.0565 105.022 61.9494 105.03 61.886C105.038 61.8305 105.138 61.7472 105.194 61.7511C106.279 61.7789 107.36 61.8186 108.446 61.8542C108.458 61.8939 108.47 61.9375 108.482 61.9772C108.386 62.0407 108.298 62.1359 108.189 62.1676C107.617 62.3263 107.316 62.7348 107.112 63.2425C106.103 65.7692 105.102 68.2998 104.088 70.8265C103.832 71.4651 103.572 72.1037 103.271 72.7225C103.175 72.9168 102.951 73.0517 102.783 73.2143C102.635 73.0319 102.434 72.8732 102.346 72.6669C101.393 70.4179 100.464 68.157 99.5189 65.9041C99.1184 64.9521 98.6859 64.012 98.2694 63.068C98.0571 62.5841 97.7167 62.2707 97.1681 62.1716C97.0279 62.1478 96.9158 61.9812 96.7876 61.882C96.9318 61.8344 97.0719 61.7472 97.2161 61.7432C98.3775 61.7353 99.5429 61.7353 100.704 61.7511C100.857 61.7511 101.005 61.8423 101.157 61.8899L101.129 62.0843H101.133Z" fill="#545454"/>
<path d="M161.294 61.763H165.455C165.475 61.8106 165.499 61.8582 165.519 61.9058C165.379 61.9772 165.243 62.0724 165.095 62.12C164.526 62.2985 164.43 62.4413 164.754 62.9093C165.583 64.0993 166.452 65.2575 167.305 66.4276C167.457 66.6378 167.63 66.6577 167.782 66.4395C168.555 65.3527 169.32 64.2619 170.085 63.1711C170.149 63.0799 170.193 62.9688 170.229 62.8578C170.353 62.4611 170.193 62.231 169.772 62.1755C169.56 62.1477 169.352 62.1081 169.083 62.0605C169.332 61.763 171.971 61.7035 172.395 61.9137C172.335 61.9891 172.295 62.1041 172.223 62.1279C171.63 62.3183 171.29 62.7864 170.938 63.2465C170.069 64.3849 169.22 65.5431 168.31 66.6497C167.934 67.1138 167.834 67.6017 167.834 68.1491C167.834 69.2161 167.834 70.2791 167.834 71.3461C167.834 72.1751 167.954 72.3179 168.791 72.4845C168.823 72.4924 168.859 72.4964 168.887 72.5122C169.003 72.5797 169.115 72.6511 169.232 72.7225C169.095 72.7819 168.963 72.8811 168.823 72.889C168.427 72.9128 168.026 72.9009 167.626 72.9009C166.777 72.9009 165.928 72.9009 165.079 72.889C164.954 72.889 164.834 72.7859 164.71 72.7304C164.818 72.659 164.922 72.5519 165.039 72.5281C166.012 72.3337 166.224 72.0878 166.224 71.1041C166.224 70.0728 166.24 69.0376 166.212 68.0063C166.204 67.7286 166.124 67.4113 165.968 67.1852C164.906 65.6779 163.833 64.1746 162.716 62.707C162.515 62.4413 162.099 62.3342 161.775 62.1676C161.594 62.0764 161.402 62.0089 161.214 61.9336C161.238 61.8741 161.262 61.8185 161.286 61.759L161.294 61.763Z" fill="#545454"/>
<path d="M151.622 72.6431C151.79 72.5955 151.958 72.54 152.127 72.5043C152.984 72.3178 153.144 72.1512 153.148 71.2707C153.164 68.7956 153.164 66.3245 153.172 63.8494C153.172 63.4884 153.216 63.1274 153.172 62.7705C153.156 62.6316 152.956 62.4095 152.835 62.4055C152.07 62.3738 151.306 62.3659 150.541 62.4055C149.924 62.4373 149.483 62.7427 149.315 63.3734C149.263 63.5677 149.139 63.7383 149.035 63.9525C148.762 63.5479 148.786 62.1001 149.047 61.2949C149.932 62.0525 150.989 61.7431 151.99 61.763C153.22 61.7868 154.449 61.7669 155.679 61.763C156.476 61.759 157.277 61.7788 158.07 61.7154C158.43 61.6876 158.775 61.4813 159.167 61.3425C159.183 61.4496 159.219 61.5527 159.211 61.6559C159.167 62.2747 159.127 62.8974 159.055 63.5122C159.043 63.6312 158.903 63.7343 158.823 63.8454C158.743 63.7581 158.618 63.6867 158.582 63.5836C158.186 62.4373 158.118 62.3778 156.876 62.3698C156.296 62.3659 155.711 62.3857 155.13 62.3698C154.818 62.3619 154.694 62.4611 154.694 62.7903C154.706 65.6065 154.702 68.4267 154.71 71.2429C154.71 71.9847 154.93 72.4805 155.823 72.4884C155.947 72.4884 156.067 72.6431 156.191 72.7264C156.071 72.7819 155.955 72.889 155.835 72.889C154.59 72.8969 153.34 72.893 152.094 72.885C151.938 72.885 151.786 72.8256 151.634 72.7938C151.634 72.7423 151.626 72.6907 151.622 72.6352V72.6431Z" fill="#545454"/>
<path d="M139.299 63.7581C139.195 63.5955 139.059 63.4408 138.995 63.2663C138.666 62.3619 137.97 61.9415 137.049 61.9217C136.316 61.9018 135.679 62.1715 135.326 62.8776C134.894 63.7502 134.882 64.6308 135.579 65.3447C136.039 65.8168 136.656 66.1499 137.225 66.5109C137.657 66.7846 138.134 66.9869 138.574 67.2487C139.632 67.8833 140.176 68.8273 140.092 70.0411C140 71.3738 139.159 72.1989 137.974 72.7264C136.676 73.3055 135.374 73.1112 134.085 72.6907C133.949 72.6471 133.773 72.4964 133.745 72.3734C133.604 71.707 133.504 71.0367 133.392 70.3663C133.456 70.3425 133.52 70.3148 133.584 70.291C133.688 70.4853 133.813 70.6718 133.901 70.8741C134.269 71.7308 134.838 72.3813 135.771 72.6471C136.728 72.9168 137.805 72.4845 138.27 71.6634C138.787 70.7511 138.666 69.692 137.878 69.0177C137.341 68.5616 136.708 68.2165 136.111 67.8278C135.779 67.6136 135.419 67.4351 135.094 67.209C133.929 66.3919 133.448 65.075 133.817 63.7423C134.161 62.4849 135.186 61.6321 136.616 61.5329C137.353 61.4814 138.102 61.5845 138.847 61.6242C139.195 61.644 139.327 61.8344 139.339 62.1715C139.363 62.6753 139.431 63.1751 139.479 63.6748L139.299 63.7542V63.7581Z" fill="#545454"/>
<path d="M94.821 62.0764C94.6528 62.1081 94.4846 62.1517 94.3164 62.1755C93.7157 62.2469 93.3913 62.5484 93.3873 63.1275C93.3753 65.9159 93.3753 68.7004 93.3873 71.4889C93.3873 72.1235 93.6356 72.3655 94.2683 72.4726C94.3645 72.4884 94.4726 72.4964 94.5567 72.536C94.6368 72.5757 94.6929 72.659 94.7569 72.7225C94.6728 72.782 94.5927 72.889 94.5046 72.893C94.008 72.9089 93.5074 72.9049 93.0068 72.9049C92.2419 72.9049 91.4769 72.9049 90.712 72.889C90.5598 72.889 90.4077 72.8176 90.2515 72.778C90.2515 72.7264 90.2555 72.6788 90.2555 72.6273C90.4557 72.5757 90.652 72.5162 90.8522 72.4726C91.4569 72.3417 91.7172 72.1037 91.7172 71.5127C91.7293 68.7282 91.7293 65.9397 91.7092 63.1552C91.7052 62.5047 91.4209 62.2588 90.7641 62.1755C90.664 62.1636 90.5558 62.1636 90.4757 62.12C90.3876 62.0724 90.3276 61.9732 90.2555 61.8979C90.3436 61.8463 90.4357 61.7471 90.5238 61.7471C90.9043 61.7511 91.2847 61.8066 91.6692 61.8027C92.5342 61.8027 93.3993 61.7709 94.2643 61.767C94.4566 61.767 94.6448 61.8265 94.837 61.8582C94.833 61.9296 94.825 62.001 94.821 62.0724V62.0764Z" fill="#545454"/>
<path d="M142.01 72.6074C142.246 72.5559 142.487 72.5122 142.719 72.4527C143.16 72.3377 143.456 72.0878 143.472 71.5999C143.492 71.0446 143.536 70.4893 143.536 69.934C143.544 68.0023 143.544 66.0667 143.536 64.135C143.536 63.774 143.504 63.417 143.468 63.0561C143.416 62.4809 143.176 62.2469 142.599 62.1834C142.499 62.1715 142.387 62.1993 142.303 62.1596C142.198 62.1081 142.114 62.0089 142.022 61.9336C142.122 61.8701 142.222 61.7551 142.323 61.7551C142.803 61.7551 143.284 61.8106 143.768 61.8066C144.549 61.8066 145.33 61.763 146.111 61.763C146.267 61.763 146.42 61.878 146.576 61.9415C146.436 62.0208 146.303 62.1517 146.155 62.1715C145.326 62.2747 145.046 62.5523 145.046 63.3813C145.046 65.8882 145.05 68.395 145.058 70.9018C145.058 71.1477 145.094 71.3897 145.106 71.6356C145.134 72.1433 145.414 72.4091 145.915 72.4646C145.963 72.4686 146.019 72.4646 146.063 72.4845C146.223 72.5638 146.379 72.655 146.536 72.7423C146.367 72.7978 146.199 72.9009 146.027 72.9049C144.882 72.9168 143.732 72.9128 142.583 72.9049C142.387 72.9049 142.19 72.8454 141.994 72.8176C141.994 72.7502 142.002 72.6828 142.006 72.6154L142.01 72.6074Z" fill="#545454"/>
<path d="M162.676 40.7127C162.676 41.5933 162.375 42.3985 161.686 42.934C161.034 43.4417 160.257 43.7987 159.512 44.1755C159.392 44.235 159.143 44.0486 158.951 43.9772C159.067 43.8542 159.159 43.6995 159.3 43.6162C159.708 43.3743 160.177 43.2116 160.545 42.9221C161.33 42.3033 161.174 41.399 160.257 41.0261C159.372 40.6651 159.067 40.1217 159.344 39.4038C159.604 38.7295 160.553 38.3328 161.318 38.5827C162.183 38.8683 162.664 39.6299 162.668 40.7127H162.676Z" fill="#545454"/>
<path d="M87.4644 53.2549C86.5513 53.2549 85.7984 52.5448 85.7824 51.6683C85.7703 50.8194 86.5473 50.042 87.4324 50.0261C88.3254 50.0103 89.1024 50.7877 89.0984 51.6881C89.0984 52.5567 88.3735 53.2469 87.4644 53.2509V53.2549Z" fill="#545454"/>
<path d="M33.9514 44.941C33.9514 45.6193 33.9594 46.2976 33.9394 46.9759C33.9394 47.0433 33.7552 47.1781 33.6951 47.1623C33.571 47.1266 33.4428 47.0235 33.3747 46.9164C33.1745 46.5871 33.0143 46.2341 32.8101 45.9009C32.738 45.7819 32.5938 45.7026 32.4296 45.6312C32.4416 46.1389 32.782 46.6149 32.4977 47.0948C32.4496 47.0988 32.3976 47.1028 32.3495 47.1107C32.3295 46.9838 32.2974 46.8608 32.2934 46.7339C32.2854 46.242 32.2774 45.7502 32.2934 45.2623C32.2934 45.1513 32.3976 45.0442 32.4496 44.9371C32.5578 44.9966 32.7139 45.0323 32.766 45.1235C32.9182 45.3932 33.0223 45.6907 33.1625 45.9644C33.2145 46.0636 33.3227 46.1389 33.4068 46.2222C33.4709 46.1191 33.567 46.0239 33.587 45.9168C33.619 45.7264 33.587 45.5241 33.607 45.3298C33.623 45.1909 33.6831 45.0561 33.7232 44.9172C33.7952 44.9252 33.8713 44.9371 33.9434 44.945L33.9514 44.941Z" fill="#545454"/>
<path d="M31.7248 45.0838C31.4124 45.1354 31.2202 45.1711 31.032 45.1989C30.5474 45.2663 30.3471 45.5082 30.3431 46.0477C30.3391 46.4324 30.3992 46.7934 30.8758 46.8529C31.036 46.8727 31.2122 46.7855 31.3804 46.7458C31.3163 46.599 31.2562 46.4483 31.1801 46.3055C31.1441 46.2341 31.088 46.1786 30.9559 46.0041C31.2162 45.9763 31.4204 45.897 31.5486 45.9604C31.6687 46.0199 31.7689 46.2341 31.7689 46.3809C31.7689 46.6189 31.6768 47.0631 31.6127 47.0631C31.1962 47.0711 30.7356 47.075 30.3672 46.9124C29.9467 46.726 29.8786 45.7938 30.1669 45.3456C30.4673 44.8815 31.044 44.7467 31.7248 45.0838Z" fill="#545454"/>
<path d="M36.0218 44.9609C36.0218 45.54 36.0618 46.123 35.9977 46.6942C35.9777 46.8568 35.6533 47.1107 35.4771 47.1028C35.1607 47.0948 34.6161 46.9758 34.572 46.8053C34.4278 46.2341 34.4639 45.6233 34.4438 45.0243C34.4438 44.9886 34.568 44.949 34.7122 44.8657C34.7362 45.1275 34.7642 45.3297 34.7722 45.5281C34.7843 45.7581 34.7562 45.9882 34.7843 46.2143C34.8203 46.5197 34.8363 46.8846 35.2809 46.8727C35.7054 46.8608 35.6934 46.5157 35.7014 46.2222C35.7094 45.9287 35.6894 45.6312 35.7054 45.3377C35.7134 45.1988 35.7815 45.064 35.8255 44.9252C35.8936 44.9371 35.9617 44.949 36.0298 44.9609H36.0218Z" fill="#545454"/>
<path d="M29.6782 47.1861C29.3619 46.9561 29.0855 46.5951 28.7932 46.5832C28.5168 46.5713 28.2205 46.9204 27.9121 47.1266C27.8961 47.0552 27.832 46.9561 27.86 46.8847C28.0603 46.3135 28.2605 45.7423 28.4888 45.1791C28.5929 44.9292 28.8492 44.7745 29.0014 45.0839C29.3058 45.7106 29.522 46.3809 29.7704 47.0354C29.7824 47.0632 29.7263 47.1147 29.6822 47.1901L29.6782 47.1861ZM29.2177 46.131C29.0254 45.9287 28.9013 45.7978 28.7731 45.667C28.669 45.7978 28.5088 45.9208 28.4808 46.0676C28.4648 46.1548 28.645 46.3452 28.7611 46.369C28.8693 46.3889 29.0054 46.25 29.2137 46.131H29.2177Z" fill="#545454"/>
<path d="M30.8075 44.3461C30.383 44.3461 30.0586 44.3778 29.7502 44.3302C29.6541 44.3144 29.5299 44.0922 29.5259 43.9574C29.5019 43.4695 29.4899 42.9737 29.5419 42.4898C29.558 42.3549 29.7902 42.1725 29.9544 42.1328C30.2027 42.0733 30.4791 42.1169 30.8115 42.1169C30.6152 42.577 29.8503 42.1685 30.0105 42.7912C30.0506 42.942 30.399 43.0173 30.6353 43.1403C30.6112 43.525 29.9264 43.1086 29.9504 43.6678C29.9745 44.239 30.5111 43.9455 30.8115 44.3501L30.8075 44.3461Z" fill="#545454"/>
<path d="M36.242 42.3113C35.9737 42.3589 35.8175 42.3668 35.6773 42.4184C35.5492 42.466 35.441 42.5612 35.3249 42.6326C35.425 42.7436 35.5091 42.8705 35.6253 42.9538C35.7254 43.0252 35.8615 43.0451 36.1299 43.1403C35.8736 43.2593 35.7294 43.3069 35.6132 43.3862C35.4891 43.4695 35.389 43.5885 35.2768 43.6916C35.409 43.8027 35.5251 43.9336 35.6733 44.0169C35.8135 44.0962 35.9817 44.12 36.1379 44.1716C36.1299 44.2311 36.1219 44.2945 36.1139 44.354C35.8135 44.354 35.5051 44.3857 35.2128 44.3381C35.1166 44.3223 34.9925 44.1121 34.9845 43.9812C34.9444 43.4774 34.9404 42.9697 34.9404 42.462C34.9404 42.3668 35.0005 42.2121 35.0766 42.1843C35.425 42.0495 35.7895 41.9662 36.238 42.3113H36.242Z" fill="#545454"/>
<path d="M37.7879 45.1195C37.4435 45.2107 37.1671 45.2861 36.8868 45.3615C36.8708 45.4091 36.8588 45.4567 36.8428 45.5043C37.075 45.6709 37.3394 45.8018 37.5236 46.008C37.6798 46.1865 37.8159 46.4443 37.8199 46.6704C37.8199 46.8172 37.5917 47.0671 37.4315 47.0988C37.1431 47.1543 36.7787 47.2535 36.5063 46.833C36.8668 46.8053 37.1631 46.7855 37.6157 46.7537C37.4155 46.5197 37.3113 46.3769 37.1832 46.2539C37.031 46.1072 36.8307 45.9961 36.7026 45.8295C36.4543 45.5082 36.5504 45.179 36.8508 44.9728C37.1351 44.7744 37.4835 44.6792 37.7839 45.1235L37.7879 45.1195Z" fill="#545454"/>
<path d="M34.5803 42.2359C34.3721 42.3113 34.2399 42.3827 34.0997 42.4025C33.6071 42.4818 33.3428 42.7396 33.3188 43.1958C33.2867 43.7035 33.503 43.9812 34.0236 44.0962C34.1638 44.1279 34.308 44.1557 34.4842 44.1914C34.0757 44.4532 33.5791 44.3738 33.2387 44.0208C32.8542 43.6202 32.8302 42.9618 33.1866 42.4898C33.523 42.0376 33.9435 41.9424 34.5843 42.2399L34.5803 42.2359Z" fill="#545454"/>
<path d="M32.8021 42.4104C32.0212 42.3549 31.4805 42.4779 31.4725 43.2632C31.4685 44.0605 31.9932 44.1755 32.7301 44.0486C32.3256 44.4373 31.7929 44.4016 31.4285 44.0605C31.012 43.6718 31 42.8388 31.4004 42.3906C31.7288 42.0257 32.2935 41.9821 32.8021 42.4104Z" fill="#545454"/>
</g>
<defs>
<clipPath id="clip0_2088_3920">
<rect width="155" height="45" fill="white" transform="translate(18 28.25)"/>
</clipPath>
</defs>
</svg>
